<svg width="45" height="42" viewBox="0 0 45 42" fill="none" xmlns="http://www.w3.org/2000/svg">
<path d="M22.4197 0.750977C18.1509 0.750977 13.9779 1.93862 10.4286 4.16372C6.87916 6.38882 4.11275 9.55143 2.47914 13.2516C0.845533 16.9518 0.418107 21.0234 1.25091 24.9516C2.08372 28.8797 4.13935 32.4879 7.15786 35.3199C10.1764 38.1519 14.0222 40.0805 18.209 40.8619C22.3958 41.6432 26.7355 41.2422 30.6794 39.7095C34.6233 38.1769 37.9941 35.5814 40.3658 32.2513C42.7374 28.9212 44.0033 25.006 44.0033 21.001C43.9969 15.6322 41.7209 10.485 37.6746 6.68864C33.6283 2.89232 28.1421 0.756932 22.4197 0.750977ZM24.8179 36.5879V26.251H28.8148C29.4509 26.251 30.0609 26.0139 30.5106 25.592C30.9603 25.17 31.213 24.5977 31.213 24.001C31.213 23.4042 30.9603 22.8319 30.5106 22.41C30.0609 21.988 29.4509 21.751 28.8148 21.751H24.8179V18.001C24.8179 17.4042 25.0706 16.8319 25.5203 16.41C25.97 15.988 26.58 15.751 27.2161 15.751H30.4136C31.0497 15.751 31.6596 15.5139 32.1094 15.092C32.5591 14.67 32.8118 14.0977 32.8118 13.501C32.8118 12.9042 32.5591 12.3319 32.1094 11.91C31.6596 11.488 31.0497 11.251 30.4136 11.251H27.2161C25.308 11.251 23.478 11.9621 22.1288 13.228C20.7795 14.4939 20.0216 16.2108 20.0216 18.001V21.751H16.0246C15.3886 21.751 14.7786 21.988 14.3288 22.41C13.8791 22.8319 13.6264 23.4042 13.6264 24.001C13.6264 24.5977 13.8791 25.17 14.3288 25.592C14.7786 26.0139 15.3886 26.251 16.0246 26.251H20.0216V36.5879C15.8209 36.019 12.0059 33.9785 9.34419 30.877C6.68249 27.7755 5.3717 23.8432 5.67563 19.8715C5.97957 15.8998 7.87566 12.1835 10.9823 9.47059C14.089 6.75764 18.1756 5.24939 22.4197 5.24939C26.6639 5.24939 30.7505 6.75764 33.8571 9.47059C36.9638 12.1835 38.8599 15.8998 39.1638 19.8715C39.4677 23.8432 38.157 27.7755 35.4953 30.877C32.8335 33.9785 29.0185 36.019 24.8179 36.5879Z" fill="#63358D"/>
</svg>
