<svg width="44" height="40" viewBox="0 0 44 40" fill="none" xmlns="http://www.w3.org/2000/svg">
<path d="M13.1447 0H31.051C37.8725 0 43.4149 5.2 43.4149 11.6V28.4C43.4149 31.4765 42.1123 34.427 39.7936 36.6024C37.4749 38.7779 34.3301 40 31.051 40H13.1447C6.3232 40 0.780762 34.8 0.780762 28.4V11.6C0.780762 8.52349 2.08338 5.57298 4.40207 3.39756C6.72075 1.22214 9.86555 0 13.1447 0ZM12.7183 4C10.683 4 8.73106 4.75857 7.29188 6.10883C5.8527 7.45909 5.04418 9.29044 5.04418 11.2V28.8C5.04418 32.78 8.47623 36 12.7183 36H31.4773C33.5127 36 35.4646 35.2414 36.9038 33.8912C38.343 32.5409 39.1515 30.7096 39.1515 28.8V11.2C39.1515 7.22 35.7194 4 31.4773 4H12.7183ZM33.2893 7C33.996 7 34.6738 7.26339 35.1735 7.73223C35.6732 8.20107 35.9539 8.83696 35.9539 9.5C35.9539 10.163 35.6732 10.7989 35.1735 11.2678C34.6738 11.7366 33.996 12 33.2893 12C32.5826 12 31.9048 11.7366 31.4051 11.2678C30.9054 10.7989 30.6247 10.163 30.6247 9.5C30.6247 8.83696 30.9054 8.20107 31.4051 7.73223C31.9048 7.26339 32.5826 7 33.2893 7ZM22.0978 10C24.9247 10 27.6357 11.0536 29.6346 12.9289C31.6334 14.8043 32.7564 17.3478 32.7564 20C32.7564 22.6522 31.6334 25.1957 29.6346 27.0711C27.6357 28.9464 24.9247 30 22.0978 30C19.271 30 16.56 28.9464 14.5611 27.0711C12.5622 25.1957 11.4393 22.6522 11.4393 20C11.4393 17.3478 12.5622 14.8043 14.5611 12.9289C16.56 11.0536 19.271 10 22.0978 10ZM22.0978 14C20.4017 14 18.7751 14.6321 17.5758 15.7574C16.3765 16.8826 15.7027 18.4087 15.7027 20C15.7027 21.5913 16.3765 23.1174 17.5758 24.2426C18.7751 25.3679 20.4017 26 22.0978 26C23.7939 26 25.4206 25.3679 26.6199 24.2426C27.8192 23.1174 28.493 21.5913 28.493 20C28.493 18.4087 27.8192 16.8826 26.6199 15.7574C25.4206 14.6321 23.7939 14 22.0978 14Z" fill="#63358D"/>
</svg>
