<svg width="40" height="40" viewBox="0 0 40 40" fill="none" xmlns="http://www.w3.org/2000/svg">
<mask id="mask0_76_1341" style="mask-type:alpha" maskUnits="userSpaceOnUse" x="3" y="3" width="34" height="34">
<path d="M32.6356 3C33.618 3 34.5603 3.39017 35.255 4.08468C35.9497 4.77919 36.34 5.72115 36.34 6.70333V32.6267C36.34 33.6089 35.9497 34.5508 35.255 35.2453C34.5603 35.9398 33.618 36.33 32.6356 36.33H6.70444C5.72196 36.33 4.77972 35.9398 4.08501 35.2453C3.39029 34.5508 3 33.6089 3 32.6267V6.70333C3 5.72115 3.39029 4.77919 4.08501 4.08468C4.77972 3.39017 5.72196 3 6.70444 3H32.6356ZM31.7094 31.7008V21.887C31.7094 20.286 31.0733 18.7506 29.9409 17.6186C28.8085 16.4865 27.2726 15.8506 25.6712 15.8506C24.0968 15.8506 22.2631 16.8134 21.374 18.2577V16.2024H16.2063V31.7008H21.374V22.5721C21.374 21.1463 22.5224 19.9798 23.9486 19.9798C24.6364 19.9798 25.2959 20.2529 25.7822 20.7391C26.2685 21.2252 26.5417 21.8846 26.5417 22.5721V31.7008H31.7094ZM10.1866 13.2953C11.0119 13.2953 11.8034 12.9675 12.387 12.3841C12.9705 11.8007 13.2984 11.0095 13.2984 10.1845C13.2984 8.46242 11.9092 7.05515 10.1866 7.05515C9.35643 7.05515 8.56023 7.38484 7.9732 7.97171C7.38616 8.55857 7.05637 9.35452 7.05637 10.1845C7.05637 11.9065 8.46406 13.2953 10.1866 13.2953ZM12.7612 31.7008V16.2024H7.63056V31.7008H12.7612Z" fill="#E8E8E8"/>
<path d="M3 6.70333C3 5.72115 3.39029 4.77919 4.08501 4.08468C4.77972 3.39017 5.72196 3 6.70444 3H3V6.70333Z" fill="#E8E8E8"/>
<path d="M32.6356 3C33.618 3 34.5603 3.39017 35.255 4.08468C35.9497 4.77919 36.34 5.72115 36.34 6.70333V3H32.6356Z" fill="#E8E8E8"/>
<path d="M36.34 32.6267C36.34 33.6089 35.9497 34.5508 35.255 35.2453C34.5603 35.9398 33.618 36.33 32.6356 36.33H36.34V32.6267Z" fill="#E8E8E8"/>
<path d="M6.70444 36.33C5.72196 36.33 4.77972 35.9398 4.08501 35.2453C3.39029 34.5508 3 33.6089 3 32.6267V36.33H6.70444Z" fill="#E8E8E8"/>
</mask>
<g mask="url(#mask0_76_1341)">
<rect width="40" height="40" fill="white"/>
</g>
</svg>
