<svg width="40" height="35" viewBox="0 0 40 35" fill="none" xmlns="http://www.w3.org/2000/svg">
<path fill-rule="evenodd" clip-rule="evenodd" d="M13.9999 0.0624437C13.8152 0.114222 13.5207 0.286635 13.3457 0.445807C12.9575 0.798486 0.207795 22.6375 0.052003 23.2164C-0.153194 23.9791 0.267884 24.8986 0.980274 25.2435C1.35113 25.423 1.52847 25.4372 3.40629 25.4372H5.43214L5.43415 29.2498C5.43598 32.7401 5.45022 33.0934 5.60245 33.4285C5.81158 33.8889 6.32772 34.3478 6.77665 34.4724C6.9971 34.5336 8.85592 34.5684 11.9283 34.5687L16.735 34.5692C17.1438 34.5692 18.217 34.5692 18.217 33.0873V28.1635C18.217 23.9258 18.1973 23.1925 18.0756 22.9014C17.7919 22.2223 17.2931 21.8774 16.471 21.792L15.958 21.7387L17.9778 18.2053C19.8227 14.9781 20.0072 14.6892 20.1074 14.8721C20.1677 14.9822 21.0766 16.5722 22.1272 18.4055L24.0373 21.7387L23.5127 21.7923C22.8611 21.8588 22.3557 21.994 22 22.5C22 22.5 21.8241 22.7849 21.8241 22.9872C21.8241 24.0992 21.8241 28.1697 21.8241 28.1697C21.8241 28.1697 21.8241 32 21.8241 33.352C21.8241 34.5 23.1026 34.5235 23.1026 34.5235L27.9672 34.5494C31.2307 34.5668 32.9518 34.543 33.1964 34.4771C33.6616 34.3519 34.1799 33.8977 34.393 33.4285C34.5453 33.0934 34.5595 32.7401 34.5613 29.2498L34.5633 25.4372H36.6328C38.6813 25.4372 38.7064 25.4348 39.0961 25.2064C39.751 24.8227 40.1288 23.9568 39.9597 23.2277C39.8863 22.9113 27.1363 0.932453 26.8133 0.565528C26.3139 -0.00193691 25.2308 -0.160926 24.5373 0.231478C24.0695 0.496124 24.0534 0.520051 21.7778 4.32263C20.8075 5.9443 19.9849 7.23876 19.9501 7.19922C19.9153 7.15977 18.9955 5.63846 17.9062 3.81854C16.1131 0.822686 15.8887 0.487905 15.5344 0.280243C15.08 0.0139528 14.4782 -0.0714319 13.9999 0.0624437ZM17.6756 11.2319C17.3059 11.8428 11.2898 22.4032 11.1071 22.7624C10.8922 23.1846 10.8475 23.886 11.0083 24.3126C11.1398 24.6612 11.6233 25.1575 11.9815 25.3111C12.1772 25.3951 12.6423 25.4372 13.3741 25.4372H14.4729V28.1311V30.8251H11.8283H9.18376L9.15719 26.9668C9.15719 26.9668 9.13062 24.5 9.13062 23.1085C9.13062 21.9297 8 21.7387 8 21.7387H5.10028L9.73433 13.7938C12.2831 9.42415 14.4159 5.77207 14.4739 5.6781C14.566 5.52906 14.7882 5.85535 16.212 8.23013L17.8445 10.9529L17.6756 11.2319ZM30.211 13.7094L34.8948 21.7387L32 21.7844C32 21.7844 30.8649 21.7844 30.8649 23.1085C30.8649 24.5 30.8383 26.9668 30.8383 26.9668L30.8117 30.8251H28.1672H25.5226V28.1311V25.4372H26.6214C27.3531 25.4372 27.8183 25.3951 28.014 25.3111C28.3722 25.1575 28.8557 24.6612 28.9872 24.3126C29.1558 23.8654 29.1035 23.1859 28.8643 22.7174C28.7434 22.4805 27.1972 19.7593 25.4282 16.6704C23.6592 13.5815 22.2102 11.0109 22.2082 10.9581C22.2017 10.7818 25.3844 5.54377 25.4564 5.61244C25.4954 5.6497 27.6349 9.29329 30.211 13.7094Z" fill="#63358D"/>
</svg>
