<svg width="24" height="24" viewBox="0 0 24 24" fill="none" xmlns="http://www.w3.org/2000/svg">
<path d="M5.33333 22H12M8.66667 22V2M8.66667 2L2 8.66667H22M8.66667 2L19.7778 8.66667M17.5556 8.66667V13.1111C17.9951 13.1111 18.4247 13.2414 18.7902 13.4856C19.1556 13.7298 19.4404 14.0769 19.6086 14.4829C19.7768 14.889 19.8208 15.3358 19.7351 15.7669C19.6493 16.1979 19.4377 16.5939 19.1269 16.9047C18.8161 17.2155 18.4202 17.4271 17.9891 17.5129C17.558 17.5986 17.1112 17.5546 16.7051 17.3864C16.2991 17.2182 15.952 16.9334 15.7078 16.5679C15.4637 16.2025 15.3333 15.7728 15.3333 15.3333" stroke="#F3F3F3" stroke-width="2.22222" stroke-linecap="round" stroke-linejoin="round"/>
</svg>
