<?xml version="1.0" encoding="UTF-8" standalone="no"?>
<svg
   width="78"
   height="77"
   viewBox="0 0 78 77"
   fill="none"
   version="1.1"
   id="svg18"
   sodipodi:docname="triangulo-cima.svg"
   inkscape:version="1.4.4 (dcaf3e7, 2026-05-05)"
   xmlns:inkscape="http://www.inkscape.org/namespaces/inkscape"
   xmlns:sodipodi="http://sodipodi.sourceforge.net/DTD/sodipodi-0.dtd"
   xmlns="http://www.w3.org/2000/svg"
   xmlns:svg="http://www.w3.org/2000/svg">
  <sodipodi:namedview
     id="namedview18"
     pagecolor="#ffffff"
     bordercolor="#000000"
     borderopacity="0.25"
     inkscape:showpageshadow="2"
     inkscape:pageopacity="0.0"
     inkscape:pagecheckerboard="0"
     inkscape:deskcolor="#d1d1d1"
     showgrid="true"
     inkscape:zoom="7.1415929"
     inkscape:cx="25.624535"
     inkscape:cy="42.917596"
     inkscape:window-width="1920"
     inkscape:window-height="1009"
     inkscape:window-x="-8"
     inkscape:window-y="-8"
     inkscape:window-maximized="1"
     inkscape:current-layer="svg18">
    <inkscape:grid
       id="grid18"
       units="px"
       originx="0"
       originy="0"
       spacingx="1"
       spacingy="1"
       empcolor="#0099e5"
       empopacity="0.30196078"
       color="#0099e5"
       opacity="0.14901961"
       empspacing="5"
       enabled="true"
       visible="true" />
  </sodipodi:namedview>
  <g
     id="g18"
     transform="translate(-1.080022,-1.612453)">
    <g
       filter="url(#filter0_di_1729_883)"
       id="g2"
       transform="translate(12.079522,-13.069647)">
      <path
         d="m 3.06622,81.7108 -0.05255,-41.461 2.63122,-3.0376 41.24301,-5.8906 0.0181,-0.0027 0.0181,-0.002 0.1501,1.3089 c -0.1438,-1.2539 -0.1499,-1.3067 -0.1501,-1.3089 l 0.0011,-2e-4 h 0.0016 c 0,0 0.0031,-5e-4 0.0052,-7e-4 0.0042,-5e-4 0.0102,-0.0012 0.0176,-0.002 0.0151,-0.0017 0.0367,-0.0041 0.0638,-0.0069 0.0541,-0.0058 0.1312,-0.0137 0.2247,-0.0226 0.1864,-0.0178 0.443,-0.04 0.7194,-0.0573 0.2733,-0.017 0.5829,-0.0303 0.8706,-0.0273 0.2449,0.0026 0.6202,0.0158 0.9446,0.1114 1.9961,0.5884 2.6672,2.3812 2.6433,3.9553 -0.0235,1.5497 -0.676,3.2281 -1.7092,4.4178 L 11.4031,84.951 C 10.4162,86.0878 9.02223,86.9893 7.59203,87.2177 6.86062,87.3345 6.06756,87.2809 5.33069,86.924 4.57914,86.5601 3.99798,85.934 3.62328,85.108 3.53794,84.9197 3.49485,84.7027 3.48106,84.6368 3.4557,84.5156 3.43005,84.373 3.40547,84.2257 3.3559,83.9288 3.30266,83.5664 3.25452,83.2219 3.20611,82.8754 3.16166,82.5381 3.12929,82.288 3.11309,82.1629 3.09977,82.0591 3.0906,81.9865 3.08601,81.9503 3.08254,81.9216 3.08009,81.902 3.07887,81.8923 3.07783,81.8848 3.07718,81.8797 3.07686,81.8771 3.07651,81.8736 3.07651,81.8736 L 3.07629,81.872 3.06622,81.7915 Z"
         fill="url(#paint0_linear_1729_883)"
         id="path1"
         style="fill:url(#paint0_linear_1729_883)" />
      <path
         d="m 3.07629,81.872 2.2e-4,0.0016 c 0,0 3.5e-4,0.0035 6.7e-4,0.0061 6.5e-4,0.0051 0.00169,0.0126 0.00291,0.0223 0.00245,0.0196 0.00592,0.0483 0.01051,0.0845 0.00917,0.0726 0.02249,0.1764 0.03869,0.3015 0.03237,0.2501 0.07682,0.5874 0.12523,0.9339 0.04814,0.3445 0.10138,0.7069 0.15095,1.0038 0.02458,0.1473 0.05023,0.2899 0.07559,0.4111 0.01379,0.0659 0.05688,0.2829 0.14222,0.4712 0.3747,0.826 0.95586,1.4521 1.70741,1.816 0.73687,0.3569 1.52993,0.4105 2.26134,0.2937 1.4302,-0.2284 2.82417,-1.1299 3.81107,-2.2667 L 50.7068,39.6844 c 1.0332,-1.1897 1.6857,-2.8681 1.7092,-4.4178 0.0239,-1.5741 -0.6472,-3.3669 -2.6433,-3.9553 -0.3244,-0.0956 -0.6997,-0.1088 -0.9446,-0.1114 -0.2877,-0.003 -0.5973,0.0103 -0.8706,0.0273 -0.2764,0.0173 -0.533,0.0395 -0.7194,0.0573 -0.0935,0.0089 -0.1706,0.0168 -0.2247,0.0226 -0.0271,0.0028 -0.0487,0.0052 -0.0638,0.0069 -0.0074,8e-4 -0.0134,0.0015 -0.0176,0.002 -0.0021,2e-4 -0.0052,7e-4 -0.0052,7e-4 h -0.0016 l -0.0011,2e-4 -0.0181,0.002 -0.0181,0.0027 -41.24301,5.8906 -2.63122,3.0376 0.05255,41.461 v 0.0807 z M 46.9241,31.3169 47.0742,32.6258 C 46.9304,31.3719 46.9243,31.3191 46.9241,31.3169 Z M 3.07629,81.872 4.38363,81.7093"
         stroke="#9638ff"
         stroke-width="0.228996"
         stroke-miterlimit="10"
         id="path2" />
    </g>
    <g
       filter="url(#filter1_dii_1729_883)"
       id="g4"
       transform="translate(12.079522,-13.069647)">
      <path
         d="M 3.01367,27.7328 C 3.06347,26.4861 3.46387,24.9795 5.64488,24.6952 7.8259,24.411 46.8879,18.8046 46.8879,18.8046 l 0.0181,-0.0026 0.0181,-0.0021 0.1501,1.3089 c -0.1447,-1.2617 -0.1501,-1.3089 -0.1501,-1.3089 l 0.0027,-2e-4 c 0,0 0.0031,-4e-4 0.0052,-7e-4 0.0042,-4e-4 0.0102,-0.0011 0.0176,-0.002 0.0151,-0.0016 0.0367,-0.004 0.0638,-0.0069 0.0541,-0.0058 0.1312,-0.0136 0.2247,-0.0226 0.1864,-0.0178 0.443,-0.04 0.7194,-0.0572 0.2733,-0.0171 0.5829,-0.0303 0.8706,-0.0273 0.2449,0.0025 0.6202,0.0158 0.9446,0.1113 1.9961,0.5884 2.6672,2.3813 2.6433,3.9554 -0.0235,1.5496 -0.676,3.228 -1.7092,4.4178 L 11.4031,72.434 C 10.4162,73.5708 9.02222,74.4723 7.59202,74.7007 6.86059,74.8175 6.06757,74.764 5.33069,74.4071 4.57912,74.0431 3.99797,73.4171 3.62328,72.591 3.53792,72.4027 3.49483,72.1856 3.48105,72.1198 3.4557,71.9987 3.43004,71.856 3.40547,71.7088 3.3559,71.4118 3.30265,71.0494 3.25451,70.7049 3.20611,70.3584 3.16165,70.0211 3.12928,69.771 3.11308,69.6459 3.09977,69.5422 3.09059,69.4696 3.086,69.4333 3.08253,69.4046 3.08008,69.385 3.07887,69.3754 3.07782,69.3678 3.07718,69.3627 3.07686,69.3601 3.0765,69.3566 3.0765,69.3566 L 3.07628,69.3551 3.06622,69.2746 v -0.0808 c 0,0 -0.10236,-40.2143 -0.05255,-41.461 z"
         fill="url(#paint1_linear_1729_883)"
         id="path3"
         style="fill:url(#paint1_linear_1729_883)" />
      <path
         d="m 46.9241,18.7999 c 0,0 0.0054,0.0472 0.1501,1.3089 z M 3.07628,69.3551 3.0765,69.3566 c 0,0 3.6e-4,0.0035 6.8e-4,0.0061 6.4e-4,0.0051 0.00169,0.0127 0.0029,0.0223 0.00245,0.0196 0.00592,0.0483 0.01051,0.0846 0.00918,0.0726 0.02249,0.1763 0.03869,0.3014 0.03237,0.2501 0.07683,0.5874 0.12523,0.9339 0.04814,0.3445 0.10139,0.7069 0.15096,1.0039 0.02457,0.1472 0.05023,0.2899 0.07558,0.411 0.01378,0.0658 0.05687,0.2829 0.14223,0.4712 0.37469,0.8261 0.95584,1.4521 1.70741,1.8161 0.73688,0.3568 1.5299,0.4104 2.26133,0.2936 1.4302,-0.2284 2.82418,-1.1299 3.81108,-2.2667 L 50.7068,27.1675 c 1.0332,-1.1898 1.6857,-2.8682 1.7092,-4.4178 0.0239,-1.5741 -0.6472,-3.367 -2.6433,-3.9554 -0.3244,-0.0955 -0.6997,-0.1088 -0.9446,-0.1113 -0.2877,-0.003 -0.5973,0.0102 -0.8706,0.0273 -0.2764,0.0172 -0.533,0.0394 -0.7194,0.0572 -0.0935,0.009 -0.1706,0.0168 -0.2247,0.0226 -0.0271,0.0029 -0.0487,0.0053 -0.0638,0.0069 -0.0074,9e-4 -0.0134,0.0016 -0.0176,0.002 -0.0021,3e-4 -0.0052,7e-4 -0.0052,7e-4 l -0.0027,2e-4 -0.0181,0.0021 -0.0181,0.0026 c 0,0 -39.062,5.6064 -41.24302,5.8906 -2.18101,0.2843 -2.58141,1.7909 -2.63121,3.0376 -0.04981,1.2467 0.05255,41.461 0.05255,41.461 v 0.0808 z m 0,0 1.30734,-0.1628"
         stroke="#d0acff"
         stroke-width="0.228996"
         stroke-miterlimit="10"
         id="path4" />
    </g>
  </g>
  <defs
     id="defs18">
    <filter
       id="filter0_di_1729_883"
       x="1.89917"
       y="30.584999"
       width="51.632"
       height="58.3027"
       filterUnits="userSpaceOnUse"
       color-interpolation-filters="sRGB">
      <feFlood
         flood-opacity="0"
         result="BackgroundImageFix"
         id="feFlood4" />
      <feColorMatrix
         in="SourceAlpha"
         type="matrix"
         values="0 0 0 0 0 0 0 0 0 0 0 0 0 0 0 0 0 0 127 0"
         result="hardAlpha"
         id="feColorMatrix4" />
      <feOffset
         dy="0.5"
         id="feOffset4" />
      <feGaussianBlur
         stdDeviation="0.5"
         id="feGaussianBlur4" />
      <feComposite
         in2="hardAlpha"
         operator="out"
         id="feComposite4" />
      <feColorMatrix
         type="matrix"
         values="0 0 0 0 0 0 0 0 0 0 0 0 0 0 0 0 0 0 0.25 0"
         id="feColorMatrix5" />
      <feBlend
         mode="normal"
         in2="BackgroundImageFix"
         result="effect1_dropShadow_1729_883"
         id="feBlend5" />
      <feBlend
         mode="normal"
         in="SourceGraphic"
         in2="effect1_dropShadow_1729_883"
         result="shape"
         id="feBlend6" />
      <feColorMatrix
         in="SourceAlpha"
         type="matrix"
         values="0 0 0 0 0 0 0 0 0 0 0 0 0 0 0 0 0 0 127 0"
         result="hardAlpha"
         id="feColorMatrix6" />
      <feOffset
         id="feOffset6" />
      <feGaussianBlur
         stdDeviation="0.5"
         id="feGaussianBlur6" />
      <feComposite
         in2="hardAlpha"
         operator="arithmetic"
         k2="-1"
         k3="1"
         id="feComposite6"
         k1="0"
         k4="0" />
      <feColorMatrix
         type="matrix"
         values="0 0 0 0 1 0 0 0 0 1 0 0 0 0 1 0 0 0 1 0"
         id="feColorMatrix7" />
      <feBlend
         mode="normal"
         in2="shape"
         result="effect2_innerShadow_1729_883"
         id="feBlend7" />
    </filter>
    <filter
       id="filter1_dii_1729_883"
       x="1.8855"
       y="18.0681"
       width="51.645599"
       height="58.3027"
       filterUnits="userSpaceOnUse"
       color-interpolation-filters="sRGB">
      <feFlood
         flood-opacity="0"
         result="BackgroundImageFix"
         id="feFlood7" />
      <feColorMatrix
         in="SourceAlpha"
         type="matrix"
         values="0 0 0 0 0 0 0 0 0 0 0 0 0 0 0 0 0 0 127 0"
         result="hardAlpha"
         id="feColorMatrix8" />
      <feOffset
         dy="0.5"
         id="feOffset8" />
      <feGaussianBlur
         stdDeviation="0.5"
         id="feGaussianBlur8" />
      <feComposite
         in2="hardAlpha"
         operator="out"
         id="feComposite8" />
      <feColorMatrix
         type="matrix"
         values="0 0 0 0 0 0 0 0 0 0 0 0 0 0 0 0 0 0 0.5 0"
         id="feColorMatrix9" />
      <feBlend
         mode="normal"
         in2="BackgroundImageFix"
         result="effect1_dropShadow_1729_883"
         id="feBlend9" />
      <feBlend
         mode="normal"
         in="SourceGraphic"
         in2="effect1_dropShadow_1729_883"
         result="shape"
         id="feBlend10" />
      <feColorMatrix
         in="SourceAlpha"
         type="matrix"
         values="0 0 0 0 0 0 0 0 0 0 0 0 0 0 0 0 0 0 127 0"
         result="hardAlpha"
         id="feColorMatrix10" />
      <feOffset
         id="feOffset10" />
      <feGaussianBlur
         stdDeviation="6"
         id="feGaussianBlur10" />
      <feComposite
         in2="hardAlpha"
         operator="arithmetic"
         k2="-1"
         k3="1"
         id="feComposite10"
         k1="0"
         k4="0" />
      <feColorMatrix
         type="matrix"
         values="0 0 0 0 1 0 0 0 0 1 0 0 0 0 1 0 0 0 0.5 0"
         id="feColorMatrix11" />
      <feBlend
         mode="normal"
         in2="shape"
         result="effect2_innerShadow_1729_883"
         id="feBlend11" />
      <feColorMatrix
         in="SourceAlpha"
         type="matrix"
         values="0 0 0 0 0 0 0 0 0 0 0 0 0 0 0 0 0 0 127 0"
         result="hardAlpha"
         id="feColorMatrix12" />
      <feOffset
         id="feOffset12" />
      <feGaussianBlur
         stdDeviation="0.5"
         id="feGaussianBlur12" />
      <feComposite
         in2="hardAlpha"
         operator="arithmetic"
         k2="-1"
         k3="1"
         id="feComposite12"
         k1="0"
         k4="0" />
      <feColorMatrix
         type="matrix"
         values="0 0 0 0 1 0 0 0 0 1 0 0 0 0 1 0 0 0 1 0"
         id="feColorMatrix13" />
      <feBlend
         mode="normal"
         in2="effect2_innerShadow_1729_883"
         result="effect3_innerShadow_1729_883"
         id="feBlend13" />
    </filter>
    <linearGradient
       id="paint0_linear_1729_883"
       x1="27.715099"
       y1="31.199499"
       x2="27.715099"
       y2="87.273201"
       gradientUnits="userSpaceOnUse">
      <stop
         stop-color="#9638FF"
         id="stop13" />
      <stop
         offset="0.403841"
         stop-color="#6618BB"
         id="stop14" />
      <stop
         offset="1"
         stop-color="#3E0672"
         id="stop15" />
    </linearGradient>
    <linearGradient
       id="paint1_linear_1729_883"
       x1="27.7083"
       y1="18.6826"
       x2="27.7083"
       y2="74.756302"
       gradientUnits="userSpaceOnUse">
      <stop
         stop-color="#D0ACFF"
         id="stop16" />
      <stop
         offset="0.403841"
         stop-color="#AF52FF"
         id="stop17" />
      <stop
         offset="1"
         stop-color="#9638FF"
         id="stop18" />
    </linearGradient>
  </defs>
</svg>
