<svg width="25" height="20" viewBox="0 0 25 20" fill="none" xmlns="http://www.w3.org/2000/svg">
<path d="M6.96903 6.92217L3.27508 10.0001L6.96903 13.0781C7.09154 13.1785 7.19296 13.3021 7.26744 13.4419C7.34192 13.5817 7.38799 13.7349 7.403 13.8925C7.418 14.0502 7.40164 14.2093 7.35486 14.3606C7.30808 14.512 7.2318 14.6525 7.13043 14.7742C7.02905 14.8959 6.90459 14.9964 6.76421 15.0697C6.62384 15.1431 6.47032 15.1879 6.31253 15.2017C6.15473 15.2154 5.99578 15.1978 5.84483 15.1498C5.69389 15.1018 5.55394 15.0244 5.43305 14.9221L0.633107 10.9221C0.49792 10.8095 0.389151 10.6685 0.314508 10.5092C0.239864 10.3499 0.201172 10.1761 0.201172 10.0001C0.201172 9.82418 0.239864 9.65039 0.314508 9.49105C0.389151 9.33172 0.49792 9.19076 0.633107 9.07814L5.43305 5.07819C5.67792 4.87752 5.99217 4.78174 6.30734 4.81173C6.62251 4.84172 6.91306 4.99505 7.11569 5.23831C7.31832 5.48156 7.4166 5.79504 7.38913 6.11044C7.36166 6.42584 7.21066 6.7176 6.96903 6.92217ZM24.5688 9.07814L19.7689 5.07819C19.648 4.97585 19.508 4.89845 19.3571 4.85046C19.2061 4.80247 19.0472 4.78484 18.8894 4.79858C18.7316 4.81233 18.5781 4.85717 18.4377 4.93054C18.2973 5.0039 18.1729 5.10433 18.0715 5.22603C17.9701 5.34773 17.8938 5.4883 17.8471 5.63962C17.8003 5.79095 17.7839 5.95003 17.7989 6.10771C17.8139 6.26539 17.86 6.41854 17.9345 6.55833C18.009 6.69811 18.1104 6.82177 18.2329 6.92217L21.9268 10.0001L18.2329 13.0781C18.1104 13.1785 18.009 13.3021 17.9345 13.4419C17.86 13.5817 17.8139 13.7349 17.7989 13.8925C17.7839 14.0502 17.8003 14.2093 17.8471 14.3606C17.8938 14.512 17.9701 14.6525 18.0715 14.7742C18.1729 14.8959 18.2973 14.9964 18.4377 15.0697C18.5781 15.1431 18.7316 15.1879 18.8894 15.2017C19.0472 15.2154 19.2061 15.1978 19.3571 15.1498C19.508 15.1018 19.648 15.0244 19.7689 14.9221L24.5688 10.9221C24.704 10.8095 24.8128 10.6685 24.8874 10.5092C24.9621 10.3499 25.0008 10.1761 25.0008 10.0001C25.0008 9.82418 24.9621 9.65039 24.8874 9.49105C24.8128 9.33172 24.704 9.19076 24.5688 9.07814ZM16.2109 0.0722576C16.0628 0.0183889 15.9055 -0.00577009 15.748 0.00116073C15.5906 0.00809155 15.436 0.0459765 15.2932 0.112651C15.1504 0.179326 15.0221 0.273484 14.9157 0.389748C14.8092 0.506012 14.7268 0.642103 14.6729 0.790249L8.27302 18.39C8.16453 18.6891 8.17922 19.0189 8.31386 19.3071C8.44849 19.5953 8.69205 19.8183 8.99101 19.927C9.12226 19.9755 9.26109 20.0002 9.401 20C9.64738 20 9.88779 19.9243 10.0896 19.7829C10.2914 19.6416 10.4448 19.4416 10.529 19.21L16.9289 1.61024C16.9828 1.46211 17.0069 1.30482 17 1.14736C16.9931 0.989891 16.9552 0.835333 16.8885 0.692511C16.8218 0.54969 16.7277 0.421403 16.6114 0.314979C16.4952 0.208554 16.3591 0.126076 16.2109 0.0722576Z" fill="#F3F3F3"/>
</svg>
