<svg width="40" height="40" viewBox="0 0 40 40" fill="none" xmlns="http://www.w3.org/2000/svg">
<mask id="mask0_488_442" style="mask-type:alpha" maskUnits="userSpaceOnUse" x="3" y="3" width="34" height="34">
<path fill-rule="evenodd" clip-rule="evenodd" d="M3.33105 3.33044V36.6638H36.6644V3.33044H3.33105ZM16.7727 12.2656C17.7973 11.8538 18.8936 11.6498 19.9977 11.6654C22.2079 11.6654 24.3275 12.5417 25.8903 14.1046C27.4531 15.6674 28.3311 17.787 28.3311 19.9971C28.3311 22.2072 27.4531 24.3269 25.8903 25.8897C24.3275 27.4525 22.2079 28.3304 19.9977 28.3304C18.8936 28.3461 17.7973 28.1421 16.7727 27.7303C15.748 27.3186 14.8155 26.7073 14.0291 25.932C13.2428 25.1567 12.6184 24.2329 12.1922 23.2142C11.766 22.1955 11.5465 21.1022 11.5465 19.9979C11.5465 18.8937 11.766 17.8004 12.1922 16.7817C12.6184 15.763 13.2428 14.8392 14.0291 14.0639C14.8155 13.2886 15.748 12.6773 16.7727 12.2656ZM27.3287 9.80373C27.7015 9.41569 28.21 9.18696 28.7477 9.16544V9.16211C29.3003 9.16211 29.8302 9.3816 30.2209 9.7723C30.6116 10.163 30.8311 10.6929 30.8311 11.2454C30.8311 11.798 30.6116 12.3279 30.2209 12.7186C29.8302 13.1093 29.3003 13.3288 28.7477 13.3288C28.21 13.3073 27.7015 13.0785 27.3287 12.6905C26.9559 12.3025 26.7477 11.7852 26.7477 11.2471C26.7477 10.709 26.9559 10.1918 27.3287 9.80373Z" fill="white"/>
<path d="M19.9977 14.9988C20.6619 14.9865 21.3219 15.1068 21.939 15.3525C22.5562 15.5981 23.1183 15.9643 23.5924 16.4297C24.0664 16.895 24.443 17.4502 24.7001 18.0627C24.9572 18.6752 25.0897 19.3328 25.0898 19.9971C25.0899 20.6614 24.9577 21.319 24.7008 21.9316C24.4439 22.5442 24.0675 23.0995 23.5935 23.565C23.1196 24.0305 22.5577 24.3969 21.9406 24.6428C21.3235 24.8887 20.6636 25.0091 19.9994 24.9971C18.6733 24.9971 17.4015 24.4703 16.4639 23.5326C15.5262 22.595 14.9994 21.3232 14.9994 19.9971C14.9994 18.671 15.5262 17.3993 16.4639 16.4616C17.4015 15.5239 18.6733 14.9971 19.9994 14.9971L19.9977 14.9988Z" fill="white"/>
</mask>
<g mask="url(#mask0_488_442)">
<rect width="40" height="40" fill="white"/>
</g>
</svg>
