<svg width="40" height="40" viewBox="0 0 40 40" fill="none" xmlns="http://www.w3.org/2000/svg">
<mask id="mask0_488_436" style="mask-type:alpha" maskUnits="userSpaceOnUse" x="3" y="3" width="34" height="34">
<path fill-rule="evenodd" clip-rule="evenodd" d="M36.34 6.70333V32.6267V36.33H32.6356H6.70444H3V32.6267V6.70333V3H6.70444H32.6356H36.34V6.70333ZM31.7094 21.887V31.7008H26.5417V22.5721C26.5417 21.8846 26.2685 21.2252 25.7822 20.7391C25.2959 20.2529 24.6364 19.9798 23.9486 19.9798C22.5224 19.9798 21.374 21.1463 21.374 22.5721V31.7008H16.2063V16.2024H21.374V18.2577C22.2631 16.8134 24.0968 15.8506 25.6712 15.8506C27.2726 15.8506 28.8085 16.4865 29.9409 17.6186C31.0733 18.7506 31.7094 20.286 31.7094 21.887ZM12.387 12.3841C11.8034 12.9675 11.0119 13.2953 10.1866 13.2953C8.46406 13.2953 7.05637 11.9065 7.05637 10.1845C7.05637 9.35452 7.38616 8.55857 7.9732 7.97171C8.56023 7.38484 9.35643 7.05515 10.1866 7.05515C11.9092 7.05515 13.2984 8.46242 13.2984 10.1845C13.2984 11.0095 12.9705 11.8007 12.387 12.3841ZM12.7612 16.2024V31.7008H7.63056V16.2024H12.7612Z" fill="#E8E8E8"/>
</mask>
<g mask="url(#mask0_488_436)">
<rect width="40" height="40" fill="white"/>
</g>
</svg>
