<svg width="64" height="64" viewBox="0 0 64 64" fill="none" xmlns="http://www.w3.org/2000/svg">
<path d="M21.3334 10.6667C21.3334 12.0812 20.7715 13.4378 19.7713 14.4379C18.7711 15.4381 17.4145 16 16.0001 16C14.5856 16 13.229 15.4381 12.2288 14.4379C11.2286 13.4378 10.6667 12.0812 10.6667 10.6667C10.6667 9.25222 11.2286 7.89567 12.2288 6.89547C13.229 5.89528 14.5856 5.33337 16.0001 5.33337C17.4145 5.33337 18.7711 5.89528 19.7713 6.89547C20.7715 7.89567 21.3334 9.25222 21.3334 10.6667ZM13.3334 42.6667V56C13.3334 57.4728 12.1395 58.6667 10.6667 58.6667V58.6667C9.19392 58.6667 8 57.4728 8 56V26.6667C7.99975 25.0893 8.46587 23.5469 9.33975 22.2337C10.2136 20.9204 11.4563 19.8947 12.9114 19.2857C14.3666 18.6767 15.9693 18.5115 17.5181 18.8108C19.0669 19.1101 20.4927 19.8607 21.6161 20.968L27.9468 26.9494L32.2295 22.6667C33.2707 21.6255 34.9589 21.6255 36.0002 22.6667V22.6667C37.0414 23.7079 37.0414 25.3961 36.0002 26.4374L28.9549 33.4826C28.4529 33.9846 27.6426 33.9964 27.1262 33.5092L24.0001 30.56V56C24.0001 57.4728 22.8062 58.6667 21.3334 58.6667V58.6667C19.8607 58.6667 18.6667 57.4728 18.6667 56V42.6667H13.3334ZM26.6668 10.6667C26.6668 12.1395 27.8607 13.3334 29.3335 13.3334H50.6669V37.3334H29.3335C27.8607 37.3334 26.6668 38.5273 26.6668 40V40C26.6668 41.4728 27.8607 42.6667 29.3335 42.6667H38.3069L45.117 57.1358C45.5569 58.0703 46.4968 58.6667 47.5296 58.6667V58.6667C49.484 58.6667 50.7744 56.6336 49.9423 54.8651L44.2029 42.6667H53.3336C54.0409 42.6667 54.7192 42.3858 55.2193 41.8857C55.7194 41.3856 56.0003 40.7073 56.0003 40V10.6667C56.0003 9.95946 55.7194 9.28119 55.2193 8.78109C54.7192 8.28099 54.0409 8.00004 53.3336 8.00004H29.3335C27.8607 8.00004 26.6668 9.19395 26.6668 10.6667V10.6667Z" fill="#F3F3F3"/>
</svg>
