<svg width="44" height="44" viewBox="0 0 44 44" fill="none" xmlns="http://www.w3.org/2000/svg">
<path d="M11 38.5C10.4805 38.5 10.0448 38.324 9.6928 37.972C9.3408 37.62 9.16541 37.1849 9.16663 36.6667V9.16671C9.16663 8.64727 9.34263 8.21155 9.69463 7.85955C10.0466 7.50755 10.4817 7.33216 11 7.33338H24.1541C24.5819 7.33338 24.9639 7.47088 25.3 7.74588C25.6361 8.02088 25.85 8.37227 25.9416 8.80005L26.4 11H34.8333C35.3527 11 35.7885 11.176 36.1405 11.528C36.4925 11.88 36.6679 12.3152 36.6666 12.8334V27.5C36.6666 28.0195 36.4906 28.4552 36.1386 28.8072C35.7866 29.1592 35.3515 29.3346 34.8333 29.3334H25.3458C24.918 29.3334 24.5361 29.1959 24.2 28.9209C23.8639 28.6459 23.65 28.2945 23.5583 27.8667L23.1 25.6667H12.8333V36.6667C12.8333 37.1862 12.6573 37.6219 12.3053 37.9739C11.9533 38.3259 11.5182 38.5013 11 38.5Z" fill="#F3F3F3"/>
</svg>
