<svg width="64" height="64" viewBox="0 0 64 64" fill="none" xmlns="http://www.w3.org/2000/svg">
<mask id="path-1-outside-1_931_1658" maskUnits="userSpaceOnUse" x="3.57129" y="4.17175" width="56" height="56" fill="black">
<rect fill="white" x="3.57129" y="4.17175" width="56" height="56"/>
<path fill-rule="evenodd" clip-rule="evenodd" d="M6.88674 5.22945C6.88674 5.26118 6.84621 5.28714 6.79664 5.28714C6.69837 5.28714 6.49191 5.47967 6.37643 5.67901C6.28242 5.84125 6.26795 32.2885 6.36185 32.2885C6.39393 32.2885 6.42017 32.3286 6.42017 32.3776C6.42017 32.4931 6.67994 32.7501 6.79664 32.7501C6.84621 32.7501 6.88674 32.776 6.88674 32.8078C6.88674 32.8461 15.1878 32.8655 31.6733 32.8655C48.1589 32.8655 56.4599 32.8461 56.4599 32.8078C56.4599 32.776 56.5004 32.7501 56.55 32.7501C56.6667 32.7501 56.9265 32.4931 56.9265 32.3776C56.9265 32.3286 56.9527 32.2885 56.9848 32.2885C57.0235 32.2885 57.0431 27.8268 57.0431 19.0186C57.0431 10.2104 57.0235 5.74871 56.9848 5.74871C56.9527 5.74871 56.9265 5.70861 56.9265 5.65957C56.9265 5.54412 56.6667 5.28714 56.55 5.28714C56.5004 5.28714 56.4599 5.26118 56.4599 5.22945C56.4599 5.19108 48.1589 5.17175 31.6733 5.17175C15.1878 5.17175 6.88674 5.19108 6.88674 5.22945ZM55.2935 19.0186V31.1346H31.6733H8.05317V19.0186V6.90261H31.6733H55.2935V19.0186ZM30.7985 11.8067V12.6721H31.6733H32.5481V11.8067V11.8067C32.5481 11.3287 32.1607 10.9413 31.6827 10.9413H31.6733H31.6639C31.186 10.9413 30.7985 11.3287 30.7985 11.8067V11.8067ZM26.1182 12.6725C25.8055 12.9819 25.5496 13.2633 25.5496 13.2977C25.5496 13.3322 25.8112 13.6198 26.1309 13.9367L26.7122 14.513L27.3323 13.9047L27.9525 13.2964L27.7863 13.1171C27.4657 12.7716 26.8693 12.2032 26.7785 12.1567C26.7095 12.1215 26.546 12.2492 26.1182 12.6725ZM36.476 12.2261C36.3 12.3613 35.4059 13.246 35.4059 13.285C35.4059 13.2975 35.6823 13.579 36.0202 13.9104L36.6344 14.513L37.2158 13.9367C37.5355 13.6198 37.7971 13.3322 37.7971 13.2975C37.7971 13.2629 37.5372 12.979 37.2196 12.6665L36.7915 12.2454C36.7059 12.1611 36.5713 12.1529 36.476 12.2261V12.2261ZM30.8568 13.5953C30.8087 13.626 30.6725 13.6516 30.5541 13.6521C30.4357 13.6525 30.3226 13.6789 30.3028 13.7106C30.2829 13.7424 30.2042 13.7683 30.1278 13.7683C30.0514 13.7683 29.9727 13.7943 29.9528 13.826C29.933 13.8578 29.8797 13.8837 29.8343 13.8837C29.7291 13.8837 29.0844 14.1815 29.0586 14.242C29.0479 14.2671 28.9946 14.2876 28.9402 14.2876C28.8859 14.2876 28.8035 14.3395 28.7573 14.403C28.711 14.4665 28.6529 14.5184 28.6282 14.5184C28.4907 14.5184 27.4159 15.593 27.4159 15.7304C27.4159 15.7619 27.3941 15.7877 27.3674 15.7877C27.3407 15.7877 27.2817 15.8591 27.2363 15.9463C27.1908 16.0336 27.1391 16.118 27.1215 16.1338C27.0607 16.1884 26.7743 16.8294 26.7743 16.9109C26.7743 16.9558 26.7481 17.0085 26.716 17.0281C26.6839 17.0477 26.6577 17.1256 26.6577 17.2012C26.6577 17.2768 26.6314 17.3547 26.5994 17.3743C26.5673 17.3939 26.541 17.52 26.541 17.6546C26.541 17.7892 26.5133 17.9268 26.4793 17.9604C26.4043 18.0346 26.4393 19.3868 26.5262 19.7686C26.6379 20.2589 26.9494 21.0956 27.0204 21.0956C27.0455 21.0956 27.0659 21.1476 27.0659 21.211C27.0659 21.2745 27.0922 21.3264 27.1243 21.3264C27.1563 21.3264 27.1826 21.3654 27.1826 21.413C27.1826 21.4606 27.2088 21.4995 27.2409 21.4995C27.273 21.4995 27.2992 21.5384 27.2992 21.586C27.2992 21.6336 27.3255 21.6726 27.3575 21.6726C27.3896 21.6726 27.4159 21.6995 27.4159 21.7324C27.4159 21.7652 27.4749 21.8567 27.5471 21.9356C27.8535 22.2707 28.2854 22.69 28.4283 22.7913L28.5823 22.9003V23.7448C28.5823 24.6032 28.6614 25.4691 28.7559 25.6437C28.7845 25.6967 28.8423 25.8245 28.8843 25.9276C28.9263 26.0308 28.9805 26.1151 29.0048 26.1151C29.029 26.1151 29.0489 26.1409 29.0489 26.1724C29.0489 26.3099 29.6341 26.8858 29.8736 26.984C29.9653 27.0215 30.0403 27.0751 30.0403 27.1029C30.0403 27.1308 30.0912 27.1536 30.1535 27.1536C30.2158 27.1536 30.2829 27.1796 30.3028 27.2113C30.3226 27.2431 30.416 27.269 30.5103 27.269C30.6047 27.269 30.6819 27.295 30.6819 27.3267C30.6819 27.3629 31.0512 27.3844 31.6733 27.3844C32.2954 27.3844 32.6648 27.3629 32.6648 27.3267C32.6648 27.295 32.7419 27.269 32.8363 27.269C32.9307 27.269 33.0241 27.2431 33.0439 27.2113C33.0637 27.1796 33.1308 27.1536 33.1931 27.1536C33.2554 27.1536 33.3063 27.134 33.3063 27.11C33.3063 27.086 33.3792 27.0345 33.4682 26.9956C33.709 26.8901 34.2978 26.3059 34.2978 26.1724C34.2978 26.1409 34.3176 26.1151 34.3419 26.1151C34.3661 26.1151 34.4203 26.0308 34.4623 25.9276C34.5044 25.8245 34.5622 25.6967 34.5908 25.6437C34.6852 25.4692 34.7644 24.6034 34.7644 23.7471V22.905L34.98 22.7359C35.2599 22.5166 35.5088 22.269 35.7267 21.9933C35.8229 21.8716 35.9345 21.7385 35.9745 21.6975C36.0147 21.6566 36.0474 21.5824 36.0474 21.5324C36.0474 21.4826 36.0695 21.4418 36.0966 21.4418C36.192 21.4418 36.689 20.3496 36.689 20.1399C36.689 20.0664 36.7152 19.9902 36.7473 19.9706C36.7794 19.951 36.8056 19.8067 36.8056 19.6499C36.8056 19.493 36.8319 19.3648 36.8639 19.3648C36.8993 19.3648 36.9223 19.1159 36.9223 18.7335C36.9223 18.375 36.8971 18.0869 36.8639 18.0666C36.8319 18.047 36.8056 17.937 36.8056 17.8221C36.8056 17.7073 36.7754 17.5206 36.7385 17.4072C36.5656 16.8765 36.3737 16.3917 36.3295 16.3743C36.3026 16.3636 36.2807 16.3171 36.2807 16.2709C36.2807 16.2246 36.2282 16.131 36.1641 16.0629C36.0999 15.9947 36.0474 15.905 36.0474 15.8633C36.0474 15.8217 36.0212 15.7877 35.9891 15.7877C35.957 15.7877 35.9308 15.7608 35.9308 15.7279C35.9308 15.5915 34.8439 14.5184 34.7056 14.5184C34.6738 14.5184 34.6477 14.4924 34.6477 14.4607C34.6477 14.429 34.6083 14.403 34.5602 14.403C34.5121 14.403 34.4728 14.377 34.4728 14.3453C34.4728 14.3136 34.4355 14.2876 34.3901 14.2876C34.3447 14.2876 34.2988 14.2669 34.2881 14.2416C34.2342 14.1141 32.9685 13.653 32.6725 13.653C32.5759 13.653 32.4805 13.627 32.4607 13.5953C32.4139 13.5205 30.9738 13.5205 30.8568 13.5953ZM32.3149 15.3261C32.3149 15.3578 32.3939 15.3838 32.4906 15.3838C32.5873 15.3838 32.712 15.4082 32.7677 15.438C32.8234 15.4679 32.9936 15.5364 33.1459 15.5901C33.2983 15.644 33.423 15.7062 33.423 15.7285C33.423 15.7509 33.4865 15.7978 33.5642 15.8329C33.7283 15.9068 33.8906 16.0331 34.1451 16.2849C34.4862 16.6223 34.5112 16.6618 35.0057 17.6475C35.0333 17.7026 35.056 17.826 35.056 17.9216C35.056 18.0172 35.0822 18.0955 35.1143 18.0955C35.1495 18.0955 35.1726 18.3347 35.1726 18.6979C35.1726 19.0372 35.1471 19.3159 35.1143 19.3359C35.0822 19.3555 35.056 19.4266 35.056 19.4939C35.056 19.8677 34.4989 20.8691 34.1033 21.2064C33.8456 21.4261 33.7714 21.4824 33.4888 21.6729C33.1279 21.9161 33.0292 22.104 32.9784 22.6453L32.9397 23.0573H31.6733H30.407L30.3683 22.6453C30.3158 22.0869 30.2202 21.9157 29.8088 21.6435C29.6172 21.5167 29.4596 21.3935 29.4587 21.3697C29.4578 21.3459 29.4297 21.3264 29.3962 21.3264C29.329 21.3264 29.0489 21.0664 29.0489 21.0041C29.0489 20.9826 29.0006 20.923 28.9416 20.8716C28.8826 20.8203 28.735 20.5836 28.6137 20.3456C28.4923 20.1076 28.3699 19.8678 28.3418 19.8127C28.3137 19.7576 28.2907 19.6343 28.2907 19.5387C28.2907 19.443 28.2644 19.3648 28.2324 19.3648C28.197 19.3648 28.174 19.1148 28.174 18.7301C28.174 18.3455 28.197 18.0955 28.2324 18.0955C28.2644 18.0955 28.2907 17.9916 28.2907 17.8647C28.2907 17.7378 28.3169 17.6339 28.349 17.6339C28.3811 17.6339 28.4073 17.5907 28.4073 17.5379C28.4073 17.4083 28.593 16.9993 28.6518 16.9993C28.6778 16.9993 28.6989 16.9652 28.6989 16.9236C28.6989 16.882 28.7514 16.7922 28.8156 16.7241C28.8797 16.656 28.9322 16.5855 28.9322 16.5674C28.9322 16.5247 29.4439 16.0185 29.4872 16.0185C29.5054 16.0185 29.5767 15.9665 29.6455 15.9031C29.7144 15.8396 29.8051 15.7877 29.8472 15.7877C29.8893 15.7877 29.9237 15.7667 29.9237 15.7411C29.9237 15.6828 30.3371 15.4992 30.4682 15.4992C30.5215 15.4992 30.5652 15.4732 30.5652 15.4415C30.5652 15.4098 30.6702 15.3838 30.7985 15.3838C30.9268 15.3838 31.0318 15.3578 31.0318 15.3261C31.0318 15.2911 31.2845 15.2684 31.6733 15.2684C32.0622 15.2684 32.3149 15.2911 32.3149 15.3261ZM23.7999 17.8647V17.8647C23.7999 18.3427 24.1874 18.7301 24.6654 18.7301H24.6748H25.5496V17.8647V16.9993H24.6748H24.6654C24.1874 16.9993 23.7999 17.3867 23.7999 17.8647V17.8647ZM37.7971 17.8647V18.7301H38.6719H38.6813C39.1592 18.7301 39.5467 18.3427 39.5467 17.8647V17.8647V17.8647C39.5467 17.3867 39.1592 16.9993 38.6813 16.9993H38.6719H37.7971V17.8647ZM32.9564 24.9092C32.9564 25.1203 32.7766 25.4152 32.601 25.4921C32.5078 25.5329 32.4315 25.5859 32.4315 25.6099C32.4315 25.6339 32.0903 25.6536 31.6733 25.6536C31.2068 25.6536 30.9151 25.6313 30.9151 25.5959C30.9151 25.5641 30.8723 25.5382 30.8199 25.5382C30.644 25.5382 30.3903 25.1612 30.3903 24.8998C30.3903 24.7927 30.4435 24.7881 31.6733 24.7881C32.9377 24.7881 32.9564 24.7899 32.9564 24.9092ZM26.8618 34.654C26.842 34.6857 26.7617 34.7117 26.6834 34.7117C26.6051 34.7117 26.541 34.7377 26.541 34.7694C26.541 34.8011 26.5029 34.8271 26.4564 34.8271C26.4098 34.8271 26.2392 34.9581 26.0773 35.1183C25.9153 35.2785 25.7829 35.4473 25.7829 35.4934C25.7829 35.5394 25.7566 35.5771 25.7245 35.5771C25.6925 35.5771 25.6662 35.6405 25.6662 35.718C25.6662 35.7955 25.64 35.8748 25.6079 35.8945C25.5702 35.9175 25.5496 36.9902 25.5496 38.9235C25.5496 40.8568 25.5702 41.9294 25.6079 41.9525C25.64 41.9721 25.6662 42.0515 25.6662 42.1289C25.6662 42.2064 25.6925 42.2698 25.7245 42.2698C25.7566 42.2698 25.7829 42.3064 25.7829 42.351C25.7829 42.4601 26.2584 42.9388 26.4157 42.9883C26.4846 43.0099 26.541 43.0518 26.541 43.0814C26.541 43.111 26.6051 43.1352 26.6834 43.1352C26.7617 43.1352 26.842 43.1612 26.8618 43.1929C26.8816 43.2246 27.1353 43.2506 27.4255 43.2506C27.9052 43.2506 27.9495 43.2598 27.9114 43.3516C27.8884 43.4071 27.8049 43.7122 27.726 44.0295C27.647 44.3468 27.5559 44.7103 27.5235 44.8372C27.4912 44.9642 27.451 45.1654 27.4342 45.2844C27.4174 45.4034 27.3801 45.5007 27.3514 45.5007C27.2725 45.5007 27.2889 46.0615 27.3721 46.2051C27.4653 46.3659 27.6494 46.5481 27.812 46.6402C27.9634 46.726 28.4657 46.7371 28.4657 46.6546C28.4657 46.6229 28.5048 46.5969 28.5527 46.5969C28.6283 46.5969 28.7756 46.4947 29.0129 46.2777C29.0487 46.2449 29.1699 46.1544 29.2822 46.0766C29.5119 45.9173 29.6292 45.8247 29.8655 45.6161C29.9553 45.5368 30.1017 45.4199 30.1909 45.3565C30.28 45.293 30.4127 45.1826 30.4856 45.1113C30.5586 45.0399 30.6418 44.9815 30.6705 44.9815C30.6994 44.9815 30.799 44.9097 30.8919 44.822C30.9849 44.7343 31.1651 44.585 31.2923 44.4902C31.4195 44.3955 31.5901 44.26 31.6713 44.1892C31.7526 44.1183 31.9897 43.9309 32.1982 43.7727C32.4067 43.6144 32.6354 43.4322 32.7064 43.3678C32.825 43.2602 32.9121 43.2506 33.7674 43.2506C34.3257 43.2506 34.7136 43.2275 34.7352 43.1929C34.755 43.1612 34.8353 43.1352 34.9136 43.1352C34.9919 43.1352 35.056 43.1092 35.056 43.0775C35.056 43.0458 35.0941 43.0198 35.1407 43.0198C35.1873 43.0198 35.3578 42.8888 35.5197 42.7286C35.6817 42.5684 35.8141 42.3997 35.8141 42.3536C35.8141 42.3075 35.8404 42.2698 35.8725 42.2698C35.9045 42.2698 35.9308 42.2064 35.9308 42.1289C35.9308 42.0515 35.957 41.9721 35.9891 41.9525C36.0268 41.9294 36.0474 40.8568 36.0474 38.9235C36.0474 36.9902 36.0268 35.9175 35.9891 35.8945C35.957 35.8748 35.9308 35.7955 35.9308 35.718C35.9308 35.6405 35.9063 35.5771 35.8764 35.5771C35.8465 35.5771 35.8036 35.5187 35.7812 35.4473C35.7317 35.2901 35.2511 34.8271 35.1373 34.8271C35.0926 34.8271 35.056 34.8011 35.056 34.7694C35.056 34.7377 34.9919 34.7117 34.9136 34.7117C34.8353 34.7117 34.755 34.6857 34.7352 34.654C34.7118 34.6165 33.336 34.5963 30.7985 34.5963C28.261 34.5963 26.8853 34.6165 26.8618 34.654ZM39.1093 34.654C39.0895 34.6857 39.0092 34.7117 38.9309 34.7117C38.8526 34.7117 38.7885 34.7377 38.7885 34.7694C38.7885 34.8011 38.7504 34.8271 38.7039 34.8271C38.6573 34.8271 38.4867 34.9581 38.3248 35.1183C38.1628 35.2785 38.0304 35.4473 38.0304 35.4934C38.0304 35.5394 38.0041 35.5771 37.972 35.5771C37.94 35.5771 37.9137 35.6405 37.9137 35.718C37.9137 35.7955 37.8875 35.8748 37.8554 35.8945C37.8177 35.9175 37.7971 36.9902 37.7971 38.9235C37.7971 40.8568 37.8177 41.9294 37.8554 41.9525C37.8875 41.9721 37.9137 42.0515 37.9137 42.1289C37.9137 42.2064 37.94 42.2698 37.972 42.2698C38.0041 42.2698 38.0304 42.3064 38.0304 42.351C38.0304 42.4601 38.5059 42.9388 38.6632 42.9883C38.7321 43.0099 38.7885 43.0518 38.7885 43.0814C38.7885 43.111 38.8526 43.1352 38.9309 43.1352C39.0092 43.1352 39.0895 43.1612 39.1093 43.1929C39.1309 43.2275 39.5188 43.2506 40.0771 43.2506C40.9255 43.2506 41.0205 43.2609 41.1381 43.3655C41.3604 43.5634 41.9346 44.0006 41.972 44.0006C41.9917 44.0006 42.0773 44.0721 42.1624 44.1595C42.2474 44.2468 42.422 44.3948 42.5503 44.4883C42.6786 44.5817 42.826 44.705 42.8779 44.7622C42.9298 44.8193 42.9968 44.8661 43.0269 44.8661C43.0569 44.8661 43.1747 44.9504 43.2885 45.0536C43.4023 45.1567 43.5675 45.293 43.6556 45.3565C43.7436 45.4199 43.8892 45.5368 43.979 45.6161C44.2129 45.8227 44.3311 45.9161 44.5623 46.0777C44.7428 46.2037 44.8779 46.3101 45.1119 46.5104C45.2762 46.6511 45.4542 46.7123 45.6988 46.7123C45.8436 46.7123 45.9621 46.6864 45.9621 46.6546C45.9621 46.6229 46.0026 46.5969 46.0522 46.5969C46.1689 46.5969 46.4286 46.34 46.4286 46.2245C46.4286 46.1755 46.4549 46.1354 46.487 46.1354C46.519 46.1354 46.5453 45.9926 46.5453 45.818C46.5453 45.6435 46.5218 45.5007 46.4931 45.5007C46.4644 45.5007 46.4271 45.4034 46.4103 45.2844C46.3935 45.1654 46.3533 44.9642 46.321 44.8372C46.2886 44.7103 46.1975 44.3468 46.1185 44.0295C46.0396 43.7122 45.9561 43.4071 45.9331 43.3516C45.8951 43.2598 45.9393 43.2506 46.419 43.2506C46.7092 43.2506 46.9629 43.2246 46.9827 43.1929C47.0025 43.1612 47.0828 43.1352 47.1611 43.1352C47.2394 43.1352 47.3035 43.1092 47.3035 43.0775C47.3035 43.0458 47.3416 43.0198 47.3881 43.0198C47.4347 43.0198 47.6053 42.8888 47.7672 42.7286C47.9292 42.5684 48.0616 42.3997 48.0616 42.3536C48.0616 42.3075 48.0879 42.2698 48.12 42.2698C48.152 42.2698 48.1783 42.2064 48.1783 42.1289C48.1783 42.0515 48.2045 41.9721 48.2366 41.9525C48.2743 41.9294 48.2949 40.8568 48.2949 38.9235C48.2949 36.9902 48.2743 35.9175 48.2366 35.8945C48.2045 35.8748 48.1783 35.7955 48.1783 35.718C48.1783 35.6405 48.1538 35.5771 48.1239 35.5771C48.0939 35.5771 48.0511 35.5187 48.0287 35.4473C47.9792 35.2901 47.4985 34.8271 47.3848 34.8271C47.3401 34.8271 47.3035 34.8011 47.3035 34.7694C47.3035 34.7377 47.2394 34.7117 47.1611 34.7117C47.0828 34.7117 47.0025 34.6857 46.9827 34.654C46.9592 34.6165 45.5835 34.5963 43.046 34.5963C40.5085 34.5963 39.1327 34.6165 39.1093 34.654ZM34.2978 38.9235V41.5197H33.3055C32.3382 41.5197 32.2008 41.5408 31.9895 41.7217C31.7556 41.9219 31.6205 42.0283 31.44 42.1544C31.2088 42.3159 31.0906 42.4094 30.8567 42.616C30.7669 42.6953 30.6213 42.8121 30.5333 42.8756C30.4452 42.939 30.28 43.0753 30.1662 43.1785C30.0523 43.2816 29.9272 43.366 29.888 43.366C29.8488 43.366 29.8051 43.3985 29.7907 43.4381C29.7764 43.4778 29.7429 43.4901 29.7164 43.4655C29.6898 43.4409 29.6993 43.3352 29.7375 43.2306C29.7758 43.126 29.807 42.9709 29.807 42.8859C29.807 42.8009 29.8333 42.7313 29.8654 42.7313C29.8974 42.7313 29.9237 42.5886 29.9237 42.414C29.9237 42.2395 29.8974 42.0967 29.8654 42.0967C29.8333 42.0967 29.807 42.0566 29.807 42.0076C29.807 41.8921 29.5473 41.6351 29.4306 41.6351C29.381 41.6351 29.3405 41.6092 29.3405 41.5774C29.3405 41.5412 28.9614 41.5197 28.3198 41.5197H27.2992V38.9235V36.3272H30.7985H34.2978V38.9235ZM46.5453 38.9235V41.5197H45.5247C44.8831 41.5197 44.504 41.5412 44.504 41.5774C44.504 41.6092 44.4635 41.6351 44.4139 41.6351C44.3643 41.6351 44.2594 41.6989 44.1806 41.7768C44.1019 41.8547 44.0375 41.9585 44.0375 42.0076C44.0375 42.0566 44.0112 42.0967 43.9791 42.0967C43.9471 42.0967 43.9208 42.2395 43.9208 42.414C43.9208 42.5886 43.9471 42.7313 43.9791 42.7313C44.0112 42.7313 44.0375 42.8009 44.0375 42.8859C44.0375 42.9709 44.0687 43.126 44.107 43.2306C44.195 43.4713 44.1412 43.5277 43.972 43.3718C43.8996 43.3051 43.818 43.2506 43.7905 43.2506C43.7631 43.2506 43.6809 43.1922 43.6079 43.1208C43.535 43.0494 43.4023 42.939 43.3132 42.8756C43.224 42.8121 43.0784 42.6953 42.9894 42.616C42.7745 42.4242 42.4101 42.1379 42.301 42.0749C42.2243 42.0306 42.1121 41.9418 41.855 41.7217C41.6437 41.5408 41.5063 41.5197 40.539 41.5197H39.5467V38.9235V36.3272H43.046H46.5453V38.9235ZM10.0361 42.4429C10.0361 42.4746 9.93269 42.5006 9.80625 42.5006C9.67981 42.5006 9.5602 42.5265 9.54037 42.5583C9.52054 42.59 9.46233 42.616 9.41101 42.616C9.23867 42.616 8.45676 43.0416 8.19664 43.277C8.05492 43.4053 7.90562 43.5388 7.86485 43.5737C7.69712 43.7173 7.41164 44.0595 7.41164 44.1169C7.41164 44.1508 7.35915 44.2343 7.29499 44.3024C7.23084 44.3705 7.17835 44.4733 7.17835 44.5308C7.17835 44.5883 7.15211 44.6353 7.12003 44.6353C7.08795 44.6353 7.06171 44.6872 7.06171 44.7507C7.06171 44.8141 7.04106 44.8661 7.01587 44.8661C6.99067 44.8661 6.92191 45.0771 6.86301 45.3351C6.71487 45.9843 6.75284 46.9247 6.95002 47.4912C7.02736 47.7133 7.11035 47.9037 7.13449 47.9143C7.15864 47.9249 7.17835 47.9833 7.17835 48.0441C7.17835 48.105 7.2046 48.1547 7.23667 48.1547C7.26875 48.1547 7.29499 48.1936 7.29499 48.2412C7.29499 48.2888 7.31704 48.3278 7.34393 48.3278C7.37087 48.3278 7.42418 48.3956 7.46232 48.4785C7.5393 48.6456 7.46914 48.7893 7.31051 48.7893C7.18972 48.7893 6.47885 49.1754 6.36658 49.302C6.3159 49.3591 6.24416 49.4165 6.2073 49.4294C6.11795 49.4606 5.54541 49.9943 5.54524 50.0465C5.54512 50.0691 5.46709 50.1777 5.37179 50.288C5.17332 50.5178 4.78718 51.2806 4.78718 51.443C4.78718 51.5029 4.76373 51.5663 4.73504 51.5838C4.70634 51.6014 4.66342 51.7262 4.63968 51.8613C4.56923 52.2622 4.54258 58.2514 4.61122 58.2514C4.64382 58.2514 4.67053 58.2915 4.67053 58.3405C4.67053 58.4559 4.9303 58.7129 5.047 58.7129C5.09657 58.7129 5.1371 58.7389 5.1371 58.7706C5.1371 58.8089 8.77245 58.8283 15.9266 58.8283C23.0807 58.8283 26.716 58.8089 26.716 58.7706C26.716 58.7389 26.7565 58.7129 26.8061 58.7129C26.9228 58.7129 27.1826 58.4559 27.1826 58.3405C27.1826 58.2915 27.2093 58.2514 27.2419 58.2514C27.3105 58.2514 27.2839 52.2622 27.2134 51.8613C27.1897 51.7262 27.1468 51.6014 27.1181 51.5838C27.0894 51.5663 27.0659 51.5055 27.0659 51.4488C27.0659 51.3169 26.6523 50.4875 26.4734 50.2606C26.3107 50.0543 25.6943 49.4403 25.4943 49.2855C25.2867 49.1247 24.6434 48.7893 24.5426 48.7893C24.3853 48.7893 24.308 48.64 24.3878 48.4901C24.427 48.4167 24.4747 48.3436 24.494 48.3278C24.5133 48.3119 24.5684 48.221 24.6164 48.1258C24.6644 48.0306 24.7178 47.9398 24.735 47.9239C24.7522 47.9081 24.8309 47.7005 24.9101 47.4628C25.1423 46.7645 25.1073 45.4112 24.8441 44.9101C24.8151 44.855 24.7914 44.7706 24.7914 44.7226C24.7914 44.6746 24.7652 44.6353 24.7331 44.6353C24.701 44.6353 24.6742 44.5898 24.6735 44.5343C24.6728 44.4788 24.6209 44.3684 24.5581 44.2891C24.4954 44.2098 24.4435 44.118 24.4428 44.0853C24.4403 43.9732 23.3959 43.03 23.1603 42.9272C23.031 42.8707 22.9251 42.8083 22.9251 42.7883C22.9251 42.7685 22.7922 42.7164 22.6298 42.6727C22.4674 42.6289 22.3215 42.5723 22.3056 42.5468C22.2897 42.5214 22.1879 42.5006 22.0795 42.5006C21.971 42.5006 21.866 42.4746 21.8462 42.4429C21.8257 42.4101 21.5345 42.3852 21.172 42.3852C20.7855 42.3852 20.5339 42.4079 20.5339 42.4429C20.5339 42.4746 20.4305 42.5006 20.3041 42.5006C20.1777 42.5006 20.058 42.5265 20.0382 42.5583C20.0184 42.59 19.9602 42.616 19.9089 42.616C19.7365 42.616 18.9546 43.0416 18.6945 43.277C18.5528 43.4053 18.4035 43.5388 18.3627 43.5737C18.195 43.7173 17.9095 44.0595 17.9095 44.1169C17.9095 44.1508 17.857 44.2343 17.7928 44.3024C17.7287 44.3705 17.6762 44.4733 17.6762 44.5308C17.6762 44.5883 17.65 44.6353 17.6179 44.6353C17.5858 44.6353 17.5596 44.6872 17.5596 44.7507C17.5596 44.8141 17.5389 44.8661 17.5137 44.8661C17.4885 44.8661 17.4198 45.0771 17.3609 45.3351C17.2127 45.9843 17.2507 46.9247 17.4479 47.4912C17.5252 47.7133 17.6082 47.9037 17.6323 47.9143C17.6565 47.9249 17.6762 47.9833 17.6762 48.0441C17.6762 48.105 17.7024 48.1547 17.7345 48.1547C17.7666 48.1547 17.7928 48.1936 17.7928 48.2412C17.7928 48.2888 17.8149 48.3278 17.8418 48.3278C17.8687 48.3278 17.922 48.3956 17.9602 48.4785C18.0372 48.6457 17.967 48.7893 17.8082 48.7893C17.7091 48.7893 17.1322 49.0842 17.1027 49.1499C17.092 49.1738 17.0519 49.1932 17.0135 49.1932C16.9752 49.1932 16.9059 49.2451 16.8597 49.3086C16.8135 49.3721 16.7477 49.424 16.7136 49.424C16.628 49.424 16.0432 50.017 16.0432 50.1037C16.0432 50.1424 15.9907 50.174 15.9266 50.174C15.8624 50.174 15.8099 50.1407 15.8099 50.0999C15.8099 50.0136 15.2218 49.424 15.1357 49.424C15.1037 49.424 15.0397 49.3721 14.9934 49.3086C14.9472 49.2451 14.8779 49.1932 14.8396 49.1932C14.8012 49.1932 14.7611 49.1738 14.7504 49.1499C14.7209 49.0842 14.144 48.7893 14.0449 48.7893C13.8874 48.7893 13.8101 48.6401 13.89 48.4901C13.9291 48.4167 13.9769 48.3436 13.9962 48.3278C14.0155 48.3119 14.0706 48.221 14.1186 48.1258C14.1666 48.0306 14.22 47.9398 14.2372 47.9239C14.2544 47.9081 14.3331 47.7005 14.4122 47.4628C14.6445 46.7645 14.6095 45.4112 14.3462 44.9101C14.3172 44.855 14.2936 44.7706 14.2936 44.7226C14.2936 44.6746 14.2673 44.6353 14.2352 44.6353C14.2032 44.6353 14.1763 44.5898 14.1756 44.5343C14.1749 44.4788 14.123 44.3684 14.0603 44.2891C13.9975 44.2098 13.9456 44.118 13.9449 44.0853C13.9425 43.9732 12.898 43.03 12.6625 42.9272C12.5331 42.8707 12.4273 42.8083 12.4273 42.7883C12.4273 42.7685 12.2944 42.7164 12.132 42.6727C11.9696 42.6289 11.8236 42.5723 11.8078 42.5468C11.7919 42.5214 11.6901 42.5006 11.5816 42.5006C11.4731 42.5006 11.3682 42.4746 11.3483 42.4429C11.3279 42.4101 11.0367 42.3852 10.6742 42.3852C10.2877 42.3852 10.0361 42.4079 10.0361 42.4429ZM52.0275 42.4429C52.0275 42.4746 51.9241 42.5006 51.7976 42.5006C51.6712 42.5006 51.5516 42.5265 51.5318 42.5583C51.5119 42.59 51.4537 42.616 51.4024 42.616C51.2301 42.616 50.4481 43.0416 50.188 43.277C50.0463 43.4053 49.897 43.5388 49.8562 43.5737C49.6885 43.7173 49.403 44.0595 49.403 44.1169C49.403 44.1508 49.3505 44.2343 49.2864 44.3024C49.2222 44.3705 49.1697 44.4733 49.1697 44.5308C49.1697 44.5883 49.1435 44.6353 49.1114 44.6353C49.0793 44.6353 49.0531 44.6872 49.0531 44.7507C49.0531 44.8141 49.0324 44.8661 49.0073 44.8661C48.9821 44.8661 48.9133 45.0771 48.8544 45.3351C48.7063 45.9843 48.7442 46.9247 48.9414 47.4912C49.0187 47.7133 49.1017 47.9037 49.1259 47.9143C49.15 47.9249 49.1697 47.9833 49.1697 48.0441C49.1697 48.105 49.196 48.1547 49.2281 48.1547C49.2601 48.1547 49.2864 48.1936 49.2864 48.2412C49.2864 48.2888 49.3084 48.3278 49.3353 48.3278C49.3623 48.3278 49.4156 48.3956 49.4537 48.4785C49.5307 48.6456 49.4605 48.7893 49.3019 48.7893C49.1811 48.7893 48.4702 49.1754 48.358 49.302C48.3073 49.3591 48.2355 49.4165 48.1987 49.4294C48.1093 49.4606 47.5368 49.9943 47.5366 50.0465C47.5365 50.0691 47.4585 50.1777 47.3632 50.288C47.1647 50.5178 46.7786 51.2806 46.7786 51.443C46.7786 51.5029 46.7551 51.5663 46.7264 51.5838C46.6977 51.6014 46.6548 51.7262 46.6311 51.8613C46.5606 52.2622 46.534 58.2514 46.6026 58.2514C46.6352 58.2514 46.6619 58.2915 46.6619 58.3405C46.6619 58.4559 46.9217 58.7129 47.0384 58.7129C47.088 58.7129 47.1285 58.7389 47.1285 58.7706C47.1285 58.8087 49.0142 58.8283 52.669 58.8283C56.3238 58.8283 58.2095 58.8087 58.2095 58.7706C58.2095 58.7389 58.2501 58.7129 58.2997 58.7129C58.4164 58.7129 58.6761 58.4559 58.6761 58.3405C58.6761 58.2915 58.7028 58.2514 58.7354 58.2514C58.8041 58.2514 58.7774 52.2622 58.707 51.8613C58.6832 51.7262 58.6403 51.6014 58.6116 51.5838C58.5829 51.5663 58.5595 51.5055 58.5595 51.4488C58.5595 51.3169 58.1459 50.4875 57.9669 50.2606C57.8043 50.0543 57.1878 49.4403 56.9878 49.2855C56.7803 49.1247 56.137 48.7893 56.0361 48.7893C55.8788 48.7893 55.8015 48.64 55.8814 48.4901C55.9205 48.4167 55.9683 48.3436 55.9876 48.3278C56.0069 48.3119 56.062 48.221 56.11 48.1258C56.158 48.0306 56.2113 47.9398 56.2286 47.9239C56.2458 47.9081 56.3245 47.7005 56.4036 47.4628C56.6359 46.7645 56.6009 45.4112 56.3376 44.9101C56.3086 44.855 56.2849 44.7706 56.2849 44.7226C56.2849 44.6746 56.2587 44.6353 56.2266 44.6353C56.1945 44.6353 56.1677 44.5898 56.167 44.5343C56.1663 44.4788 56.1144 44.3684 56.0517 44.2891C55.9889 44.2098 55.937 44.118 55.9363 44.0853C55.9338 43.9732 54.8894 43.03 54.6539 42.9272C54.5245 42.8707 54.4187 42.8083 54.4187 42.7883C54.4187 42.7685 54.2858 42.7164 54.1234 42.6727C53.961 42.6289 53.815 42.5723 53.7992 42.5468C53.7832 42.5214 53.6815 42.5006 53.573 42.5006C53.4645 42.5006 53.3595 42.4746 53.3397 42.4429C53.3192 42.4101 53.028 42.3852 52.6656 42.3852C52.2791 42.3852 52.0275 42.4079 52.0275 42.4429ZM11.1734 44.1737C11.1932 44.2055 11.2596 44.2314 11.3209 44.2314C11.4476 44.2314 11.7767 44.4024 12.0773 44.6246C12.3686 44.8397 12.4273 44.9037 12.4273 45.0062C12.4273 45.0561 12.4506 45.0969 12.4792 45.0969C12.5077 45.0969 12.5923 45.2202 12.6672 45.3709C12.7849 45.6077 12.8036 45.7327 12.8048 46.2911C12.8059 46.7329 12.7833 46.9601 12.7335 47.0094C12.6934 47.0491 12.6606 47.1234 12.6606 47.1745C12.6606 47.2257 12.6147 47.3178 12.5585 47.3793C12.5023 47.4409 12.4223 47.5561 12.3806 47.6354C12.2625 47.8601 11.5466 48.3278 11.3209 48.3278C11.2596 48.3278 11.1932 48.3537 11.1734 48.3855C11.1535 48.4172 10.9305 48.4432 10.6776 48.4432C10.4248 48.4432 10.2017 48.4172 10.1819 48.3855C10.1621 48.3537 10.0687 48.3278 9.97434 48.3278C9.87997 48.3278 9.80281 48.3018 9.80281 48.2701C9.80281 48.2384 9.77429 48.2124 9.73948 48.2124C9.62219 48.2124 9.04988 47.781 8.97401 47.6354C8.93266 47.5561 8.85293 47.4409 8.79677 47.3793C8.74061 47.3178 8.69471 47.2257 8.69471 47.1745C8.69471 47.1234 8.66193 47.0491 8.62181 47.0094C8.57194 46.9601 8.54937 46.7329 8.55042 46.2911C8.5517 45.7327 8.57037 45.6077 8.68806 45.3709C8.76294 45.2202 8.84757 45.0969 8.87609 45.0969C8.90466 45.0969 8.92799 45.0544 8.92799 45.0026C8.92799 44.8702 9.57635 44.3468 9.74041 44.3468C9.77476 44.3468 9.80281 44.3208 9.80281 44.2891C9.80281 44.2574 9.87997 44.2314 9.97434 44.2314C10.0687 44.2314 10.1621 44.2055 10.1819 44.1737C10.2017 44.142 10.4248 44.116 10.6776 44.116C10.9305 44.116 11.1535 44.142 11.1734 44.1737ZM21.6712 44.1737C21.691 44.2055 21.7574 44.2314 21.8187 44.2314C21.9454 44.2314 22.2745 44.4024 22.5752 44.6246C22.8665 44.8397 22.9251 44.9037 22.9251 45.0062C22.9251 45.0561 22.9485 45.0969 22.977 45.0969C23.0055 45.0969 23.0902 45.2202 23.1651 45.3709C23.2827 45.6077 23.3014 45.7327 23.3027 46.2911C23.3037 46.7329 23.2812 46.9601 23.2313 47.0094C23.1912 47.0491 23.1584 47.1234 23.1584 47.1745C23.1584 47.2257 23.1124 47.3178 23.0563 47.3793C23.0002 47.4409 22.9202 47.5561 22.8785 47.6354C22.7604 47.8601 22.0445 48.3278 21.8187 48.3278C21.7574 48.3278 21.691 48.3537 21.6712 48.3855C21.6514 48.4172 21.4283 48.4432 21.1755 48.4432C20.9227 48.4432 20.6996 48.4172 20.6797 48.3855C20.6599 48.3537 20.5665 48.3278 20.4722 48.3278C20.3778 48.3278 20.3007 48.3018 20.3007 48.2701C20.3007 48.2384 20.2721 48.2124 20.2373 48.2124C20.12 48.2124 19.5477 47.781 19.4719 47.6354C19.4305 47.5561 19.3507 47.4409 19.2946 47.3793C19.2385 47.3178 19.1926 47.2257 19.1926 47.1745C19.1926 47.1234 19.1598 47.0491 19.1197 47.0094C19.0698 46.9601 19.0472 46.7329 19.0483 46.2911C19.0495 45.7327 19.0682 45.6077 19.1859 45.3709C19.2608 45.2202 19.3454 45.0969 19.3739 45.0969C19.4025 45.0969 19.4258 45.0544 19.4258 45.0026C19.4258 44.8702 20.0742 44.3468 20.2383 44.3468C20.2726 44.3468 20.3007 44.3208 20.3007 44.2891C20.3007 44.2574 20.3778 44.2314 20.4722 44.2314C20.5665 44.2314 20.6599 44.2055 20.6797 44.1737C20.6996 44.142 20.9227 44.116 21.1755 44.116C21.4283 44.116 21.6514 44.142 21.6712 44.1737ZM53.1648 44.1737C53.1846 44.2055 53.251 44.2314 53.3122 44.2314C53.439 44.2314 53.7681 44.4024 54.0687 44.6246C54.36 44.8397 54.4187 44.9037 54.4187 45.0062C54.4187 45.0561 54.442 45.0969 54.4706 45.0969C54.4991 45.0969 54.5837 45.2202 54.6586 45.3709C54.7763 45.6077 54.795 45.7327 54.7962 46.2911C54.7973 46.7329 54.7747 46.9601 54.7248 47.0094C54.6848 47.0491 54.6519 47.1234 54.6519 47.1745C54.6519 47.2257 54.606 47.3178 54.5499 47.3793C54.4938 47.4409 54.4137 47.5561 54.372 47.6354C54.2539 47.8601 53.538 48.3278 53.3122 48.3278C53.251 48.3278 53.1846 48.3537 53.1648 48.3855C53.1449 48.4172 52.9218 48.4432 52.669 48.4432C52.4162 48.4432 52.1931 48.4172 52.1733 48.3855C52.1535 48.3537 52.0601 48.3278 51.9657 48.3278C51.8714 48.3278 51.7942 48.3018 51.7942 48.2701C51.7942 48.2384 51.7657 48.2124 51.7309 48.2124C51.6136 48.2124 51.0413 47.781 50.9654 47.6354C50.924 47.5561 50.8443 47.4409 50.7882 47.3793C50.7321 47.3178 50.6861 47.2257 50.6861 47.1745C50.6861 47.1234 50.6533 47.0491 50.6132 47.0094C50.5633 46.9601 50.5408 46.7329 50.5418 46.2911C50.5431 45.7327 50.5618 45.6077 50.6794 45.3709C50.7543 45.2202 50.839 45.0969 50.8675 45.0969C50.8961 45.0969 50.9194 45.0544 50.9194 45.0026C50.9194 44.8702 51.5677 44.3468 51.7318 44.3468C51.7661 44.3468 51.7942 44.3208 51.7942 44.2891C51.7942 44.2574 51.8714 44.2314 51.9657 44.2314C52.0601 44.2314 52.1535 44.2055 52.1733 44.1737C52.1931 44.142 52.4162 44.116 52.669 44.116C52.9218 44.116 53.1449 44.142 53.1648 44.1737ZM12.9522 50.2317C12.9522 50.2635 13.0194 50.2894 13.1016 50.2894C13.3639 50.2894 13.8964 50.5957 14.2609 50.9564C14.6255 51.317 14.9351 51.8437 14.9351 52.1032C14.9351 52.1845 14.9613 52.2511 14.9934 52.2511C15.0314 52.2511 15.0517 53.0973 15.0517 54.6743V57.0975H10.6776H6.30353V54.6743C6.30353 53.0973 6.32388 52.2511 6.36185 52.2511C6.39393 52.2511 6.42017 52.1845 6.42017 52.1032C6.42017 51.8437 6.7298 51.317 7.09437 50.9564C7.45888 50.5957 7.99135 50.2894 8.25362 50.2894C8.33586 50.2894 8.4031 50.2635 8.4031 50.2317C8.4031 50.1942 9.20018 50.174 10.6776 50.174C12.1551 50.174 12.9522 50.1942 12.9522 50.2317ZM23.45 50.2317C23.45 50.2635 23.5173 50.2894 23.5995 50.2894C23.8618 50.2894 24.3942 50.5957 24.7587 50.9564C25.1233 51.317 25.4329 51.8437 25.4329 52.1032C25.4329 52.1845 25.4592 52.2511 25.4913 52.2511C25.5292 52.2511 25.5496 53.0973 25.5496 54.6743V57.0975H21.1755H16.8014V54.6743C16.8014 53.0973 16.8217 52.2511 16.8597 52.2511C16.8918 52.2511 16.918 52.1845 16.918 52.1032C16.918 51.8437 17.2276 51.317 17.5922 50.9564C17.9567 50.5957 18.4892 50.2894 18.7515 50.2894C18.8337 50.2894 18.9009 50.2635 18.9009 50.2317C18.9009 50.1942 19.698 50.174 21.1755 50.174C22.6529 50.174 23.45 50.1942 23.45 50.2317ZM54.9436 50.2317C54.9436 50.2635 55.0108 50.2894 55.093 50.2894C55.3553 50.2894 55.8878 50.5957 56.2523 50.9564C56.6169 51.317 56.9265 51.8437 56.9265 52.1032C56.9265 52.1845 56.9527 52.2511 56.9848 52.2511C57.0228 52.2511 57.0431 53.0973 57.0431 54.6743V57.0975H52.669H48.2949V54.6743C48.2949 53.0973 48.3153 52.2511 48.3532 52.2511C48.3853 52.2511 48.4116 52.1845 48.4116 52.1032C48.4116 51.8437 48.7212 51.317 49.0858 50.9564C49.4503 50.5957 49.9827 50.2894 50.245 50.2894C50.3272 50.2894 50.3945 50.2635 50.3945 50.2317C50.3945 50.1942 51.1916 50.174 52.669 50.174C54.1465 50.174 54.9436 50.1942 54.9436 50.2317Z"/>
</mask>
<path fill-rule="evenodd" clip-rule="evenodd" d="M6.88674 5.22945C6.88674 5.26118 6.84621 5.28714 6.79664 5.28714C6.69837 5.28714 6.49191 5.47967 6.37643 5.67901C6.28242 5.84125 6.26795 32.2885 6.36185 32.2885C6.39393 32.2885 6.42017 32.3286 6.42017 32.3776C6.42017 32.4931 6.67994 32.7501 6.79664 32.7501C6.84621 32.7501 6.88674 32.776 6.88674 32.8078C6.88674 32.8461 15.1878 32.8655 31.6733 32.8655C48.1589 32.8655 56.4599 32.8461 56.4599 32.8078C56.4599 32.776 56.5004 32.7501 56.55 32.7501C56.6667 32.7501 56.9265 32.4931 56.9265 32.3776C56.9265 32.3286 56.9527 32.2885 56.9848 32.2885C57.0235 32.2885 57.0431 27.8268 57.0431 19.0186C57.0431 10.2104 57.0235 5.74871 56.9848 5.74871C56.9527 5.74871 56.9265 5.70861 56.9265 5.65957C56.9265 5.54412 56.6667 5.28714 56.55 5.28714C56.5004 5.28714 56.4599 5.26118 56.4599 5.22945C56.4599 5.19108 48.1589 5.17175 31.6733 5.17175C15.1878 5.17175 6.88674 5.19108 6.88674 5.22945ZM55.2935 19.0186V31.1346H31.6733H8.05317V19.0186V6.90261H31.6733H55.2935V19.0186ZM30.7985 11.8067V12.6721H31.6733H32.5481V11.8067V11.8067C32.5481 11.3287 32.1607 10.9413 31.6827 10.9413H31.6733H31.6639C31.186 10.9413 30.7985 11.3287 30.7985 11.8067V11.8067ZM26.1182 12.6725C25.8055 12.9819 25.5496 13.2633 25.5496 13.2977C25.5496 13.3322 25.8112 13.6198 26.1309 13.9367L26.7122 14.513L27.3323 13.9047L27.9525 13.2964L27.7863 13.1171C27.4657 12.7716 26.8693 12.2032 26.7785 12.1567C26.7095 12.1215 26.546 12.2492 26.1182 12.6725ZM36.476 12.2261C36.3 12.3613 35.4059 13.246 35.4059 13.285C35.4059 13.2975 35.6823 13.579 36.0202 13.9104L36.6344 14.513L37.2158 13.9367C37.5355 13.6198 37.7971 13.3322 37.7971 13.2975C37.7971 13.2629 37.5372 12.979 37.2196 12.6665L36.7915 12.2454C36.7059 12.1611 36.5713 12.1529 36.476 12.2261V12.2261ZM30.8568 13.5953C30.8087 13.626 30.6725 13.6516 30.5541 13.6521C30.4357 13.6525 30.3226 13.6789 30.3028 13.7106C30.2829 13.7424 30.2042 13.7683 30.1278 13.7683C30.0514 13.7683 29.9727 13.7943 29.9528 13.826C29.933 13.8578 29.8797 13.8837 29.8343 13.8837C29.7291 13.8837 29.0844 14.1815 29.0586 14.242C29.0479 14.2671 28.9946 14.2876 28.9402 14.2876C28.8859 14.2876 28.8035 14.3395 28.7573 14.403C28.711 14.4665 28.6529 14.5184 28.6282 14.5184C28.4907 14.5184 27.4159 15.593 27.4159 15.7304C27.4159 15.7619 27.3941 15.7877 27.3674 15.7877C27.3407 15.7877 27.2817 15.8591 27.2363 15.9463C27.1908 16.0336 27.1391 16.118 27.1215 16.1338C27.0607 16.1884 26.7743 16.8294 26.7743 16.9109C26.7743 16.9558 26.7481 17.0085 26.716 17.0281C26.6839 17.0477 26.6577 17.1256 26.6577 17.2012C26.6577 17.2768 26.6314 17.3547 26.5994 17.3743C26.5673 17.3939 26.541 17.52 26.541 17.6546C26.541 17.7892 26.5133 17.9268 26.4793 17.9604C26.4043 18.0346 26.4393 19.3868 26.5262 19.7686C26.6379 20.2589 26.9494 21.0956 27.0204 21.0956C27.0455 21.0956 27.0659 21.1476 27.0659 21.211C27.0659 21.2745 27.0922 21.3264 27.1243 21.3264C27.1563 21.3264 27.1826 21.3654 27.1826 21.413C27.1826 21.4606 27.2088 21.4995 27.2409 21.4995C27.273 21.4995 27.2992 21.5384 27.2992 21.586C27.2992 21.6336 27.3255 21.6726 27.3575 21.6726C27.3896 21.6726 27.4159 21.6995 27.4159 21.7324C27.4159 21.7652 27.4749 21.8567 27.5471 21.9356C27.8535 22.2707 28.2854 22.69 28.4283 22.7913L28.5823 22.9003V23.7448C28.5823 24.6032 28.6614 25.4691 28.7559 25.6437C28.7845 25.6967 28.8423 25.8245 28.8843 25.9276C28.9263 26.0308 28.9805 26.1151 29.0048 26.1151C29.029 26.1151 29.0489 26.1409 29.0489 26.1724C29.0489 26.3099 29.6341 26.8858 29.8736 26.984C29.9653 27.0215 30.0403 27.0751 30.0403 27.1029C30.0403 27.1308 30.0912 27.1536 30.1535 27.1536C30.2158 27.1536 30.2829 27.1796 30.3028 27.2113C30.3226 27.2431 30.416 27.269 30.5103 27.269C30.6047 27.269 30.6819 27.295 30.6819 27.3267C30.6819 27.3629 31.0512 27.3844 31.6733 27.3844C32.2954 27.3844 32.6648 27.3629 32.6648 27.3267C32.6648 27.295 32.7419 27.269 32.8363 27.269C32.9307 27.269 33.0241 27.2431 33.0439 27.2113C33.0637 27.1796 33.1308 27.1536 33.1931 27.1536C33.2554 27.1536 33.3063 27.134 33.3063 27.11C33.3063 27.086 33.3792 27.0345 33.4682 26.9956C33.709 26.8901 34.2978 26.3059 34.2978 26.1724C34.2978 26.1409 34.3176 26.1151 34.3419 26.1151C34.3661 26.1151 34.4203 26.0308 34.4623 25.9276C34.5044 25.8245 34.5622 25.6967 34.5908 25.6437C34.6852 25.4692 34.7644 24.6034 34.7644 23.7471V22.905L34.98 22.7359C35.2599 22.5166 35.5088 22.269 35.7267 21.9933C35.8229 21.8716 35.9345 21.7385 35.9745 21.6975C36.0147 21.6566 36.0474 21.5824 36.0474 21.5324C36.0474 21.4826 36.0695 21.4418 36.0966 21.4418C36.192 21.4418 36.689 20.3496 36.689 20.1399C36.689 20.0664 36.7152 19.9902 36.7473 19.9706C36.7794 19.951 36.8056 19.8067 36.8056 19.6499C36.8056 19.493 36.8319 19.3648 36.8639 19.3648C36.8993 19.3648 36.9223 19.1159 36.9223 18.7335C36.9223 18.375 36.8971 18.0869 36.8639 18.0666C36.8319 18.047 36.8056 17.937 36.8056 17.8221C36.8056 17.7073 36.7754 17.5206 36.7385 17.4072C36.5656 16.8765 36.3737 16.3917 36.3295 16.3743C36.3026 16.3636 36.2807 16.3171 36.2807 16.2709C36.2807 16.2246 36.2282 16.131 36.1641 16.0629C36.0999 15.9947 36.0474 15.905 36.0474 15.8633C36.0474 15.8217 36.0212 15.7877 35.9891 15.7877C35.957 15.7877 35.9308 15.7608 35.9308 15.7279C35.9308 15.5915 34.8439 14.5184 34.7056 14.5184C34.6738 14.5184 34.6477 14.4924 34.6477 14.4607C34.6477 14.429 34.6083 14.403 34.5602 14.403C34.5121 14.403 34.4728 14.377 34.4728 14.3453C34.4728 14.3136 34.4355 14.2876 34.3901 14.2876C34.3447 14.2876 34.2988 14.2669 34.2881 14.2416C34.2342 14.1141 32.9685 13.653 32.6725 13.653C32.5759 13.653 32.4805 13.627 32.4607 13.5953C32.4139 13.5205 30.9738 13.5205 30.8568 13.5953ZM32.3149 15.3261C32.3149 15.3578 32.3939 15.3838 32.4906 15.3838C32.5873 15.3838 32.712 15.4082 32.7677 15.438C32.8234 15.4679 32.9936 15.5364 33.1459 15.5901C33.2983 15.644 33.423 15.7062 33.423 15.7285C33.423 15.7509 33.4865 15.7978 33.5642 15.8329C33.7283 15.9068 33.8906 16.0331 34.1451 16.2849C34.4862 16.6223 34.5112 16.6618 35.0057 17.6475C35.0333 17.7026 35.056 17.826 35.056 17.9216C35.056 18.0172 35.0822 18.0955 35.1143 18.0955C35.1495 18.0955 35.1726 18.3347 35.1726 18.6979C35.1726 19.0372 35.1471 19.3159 35.1143 19.3359C35.0822 19.3555 35.056 19.4266 35.056 19.4939C35.056 19.8677 34.4989 20.8691 34.1033 21.2064C33.8456 21.4261 33.7714 21.4824 33.4888 21.6729C33.1279 21.9161 33.0292 22.104 32.9784 22.6453L32.9397 23.0573H31.6733H30.407L30.3683 22.6453C30.3158 22.0869 30.2202 21.9157 29.8088 21.6435C29.6172 21.5167 29.4596 21.3935 29.4587 21.3697C29.4578 21.3459 29.4297 21.3264 29.3962 21.3264C29.329 21.3264 29.0489 21.0664 29.0489 21.0041C29.0489 20.9826 29.0006 20.923 28.9416 20.8716C28.8826 20.8203 28.735 20.5836 28.6137 20.3456C28.4923 20.1076 28.3699 19.8678 28.3418 19.8127C28.3137 19.7576 28.2907 19.6343 28.2907 19.5387C28.2907 19.443 28.2644 19.3648 28.2324 19.3648C28.197 19.3648 28.174 19.1148 28.174 18.7301C28.174 18.3455 28.197 18.0955 28.2324 18.0955C28.2644 18.0955 28.2907 17.9916 28.2907 17.8647C28.2907 17.7378 28.3169 17.6339 28.349 17.6339C28.3811 17.6339 28.4073 17.5907 28.4073 17.5379C28.4073 17.4083 28.593 16.9993 28.6518 16.9993C28.6778 16.9993 28.6989 16.9652 28.6989 16.9236C28.6989 16.882 28.7514 16.7922 28.8156 16.7241C28.8797 16.656 28.9322 16.5855 28.9322 16.5674C28.9322 16.5247 29.4439 16.0185 29.4872 16.0185C29.5054 16.0185 29.5767 15.9665 29.6455 15.9031C29.7144 15.8396 29.8051 15.7877 29.8472 15.7877C29.8893 15.7877 29.9237 15.7667 29.9237 15.7411C29.9237 15.6828 30.3371 15.4992 30.4682 15.4992C30.5215 15.4992 30.5652 15.4732 30.5652 15.4415C30.5652 15.4098 30.6702 15.3838 30.7985 15.3838C30.9268 15.3838 31.0318 15.3578 31.0318 15.3261C31.0318 15.2911 31.2845 15.2684 31.6733 15.2684C32.0622 15.2684 32.3149 15.2911 32.3149 15.3261ZM23.7999 17.8647V17.8647C23.7999 18.3427 24.1874 18.7301 24.6654 18.7301H24.6748H25.5496V17.8647V16.9993H24.6748H24.6654C24.1874 16.9993 23.7999 17.3867 23.7999 17.8647V17.8647ZM37.7971 17.8647V18.7301H38.6719H38.6813C39.1592 18.7301 39.5467 18.3427 39.5467 17.8647V17.8647V17.8647C39.5467 17.3867 39.1592 16.9993 38.6813 16.9993H38.6719H37.7971V17.8647ZM32.9564 24.9092C32.9564 25.1203 32.7766 25.4152 32.601 25.4921C32.5078 25.5329 32.4315 25.5859 32.4315 25.6099C32.4315 25.6339 32.0903 25.6536 31.6733 25.6536C31.2068 25.6536 30.9151 25.6313 30.9151 25.5959C30.9151 25.5641 30.8723 25.5382 30.8199 25.5382C30.644 25.5382 30.3903 25.1612 30.3903 24.8998C30.3903 24.7927 30.4435 24.7881 31.6733 24.7881C32.9377 24.7881 32.9564 24.7899 32.9564 24.9092ZM26.8618 34.654C26.842 34.6857 26.7617 34.7117 26.6834 34.7117C26.6051 34.7117 26.541 34.7377 26.541 34.7694C26.541 34.8011 26.5029 34.8271 26.4564 34.8271C26.4098 34.8271 26.2392 34.9581 26.0773 35.1183C25.9153 35.2785 25.7829 35.4473 25.7829 35.4934C25.7829 35.5394 25.7566 35.5771 25.7245 35.5771C25.6925 35.5771 25.6662 35.6405 25.6662 35.718C25.6662 35.7955 25.64 35.8748 25.6079 35.8945C25.5702 35.9175 25.5496 36.9902 25.5496 38.9235C25.5496 40.8568 25.5702 41.9294 25.6079 41.9525C25.64 41.9721 25.6662 42.0515 25.6662 42.1289C25.6662 42.2064 25.6925 42.2698 25.7245 42.2698C25.7566 42.2698 25.7829 42.3064 25.7829 42.351C25.7829 42.4601 26.2584 42.9388 26.4157 42.9883C26.4846 43.0099 26.541 43.0518 26.541 43.0814C26.541 43.111 26.6051 43.1352 26.6834 43.1352C26.7617 43.1352 26.842 43.1612 26.8618 43.1929C26.8816 43.2246 27.1353 43.2506 27.4255 43.2506C27.9052 43.2506 27.9495 43.2598 27.9114 43.3516C27.8884 43.4071 27.8049 43.7122 27.726 44.0295C27.647 44.3468 27.5559 44.7103 27.5235 44.8372C27.4912 44.9642 27.451 45.1654 27.4342 45.2844C27.4174 45.4034 27.3801 45.5007 27.3514 45.5007C27.2725 45.5007 27.2889 46.0615 27.3721 46.2051C27.4653 46.3659 27.6494 46.5481 27.812 46.6402C27.9634 46.726 28.4657 46.7371 28.4657 46.6546C28.4657 46.6229 28.5048 46.5969 28.5527 46.5969C28.6283 46.5969 28.7756 46.4947 29.0129 46.2777C29.0487 46.2449 29.1699 46.1544 29.2822 46.0766C29.5119 45.9173 29.6292 45.8247 29.8655 45.6161C29.9553 45.5368 30.1017 45.4199 30.1909 45.3565C30.28 45.293 30.4127 45.1826 30.4856 45.1113C30.5586 45.0399 30.6418 44.9815 30.6705 44.9815C30.6994 44.9815 30.799 44.9097 30.8919 44.822C30.9849 44.7343 31.1651 44.585 31.2923 44.4902C31.4195 44.3955 31.5901 44.26 31.6713 44.1892C31.7526 44.1183 31.9897 43.9309 32.1982 43.7727C32.4067 43.6144 32.6354 43.4322 32.7064 43.3678C32.825 43.2602 32.9121 43.2506 33.7674 43.2506C34.3257 43.2506 34.7136 43.2275 34.7352 43.1929C34.755 43.1612 34.8353 43.1352 34.9136 43.1352C34.9919 43.1352 35.056 43.1092 35.056 43.0775C35.056 43.0458 35.0941 43.0198 35.1407 43.0198C35.1873 43.0198 35.3578 42.8888 35.5197 42.7286C35.6817 42.5684 35.8141 42.3997 35.8141 42.3536C35.8141 42.3075 35.8404 42.2698 35.8725 42.2698C35.9045 42.2698 35.9308 42.2064 35.9308 42.1289C35.9308 42.0515 35.957 41.9721 35.9891 41.9525C36.0268 41.9294 36.0474 40.8568 36.0474 38.9235C36.0474 36.9902 36.0268 35.9175 35.9891 35.8945C35.957 35.8748 35.9308 35.7955 35.9308 35.718C35.9308 35.6405 35.9063 35.5771 35.8764 35.5771C35.8465 35.5771 35.8036 35.5187 35.7812 35.4473C35.7317 35.2901 35.2511 34.8271 35.1373 34.8271C35.0926 34.8271 35.056 34.8011 35.056 34.7694C35.056 34.7377 34.9919 34.7117 34.9136 34.7117C34.8353 34.7117 34.755 34.6857 34.7352 34.654C34.7118 34.6165 33.336 34.5963 30.7985 34.5963C28.261 34.5963 26.8853 34.6165 26.8618 34.654ZM39.1093 34.654C39.0895 34.6857 39.0092 34.7117 38.9309 34.7117C38.8526 34.7117 38.7885 34.7377 38.7885 34.7694C38.7885 34.8011 38.7504 34.8271 38.7039 34.8271C38.6573 34.8271 38.4867 34.9581 38.3248 35.1183C38.1628 35.2785 38.0304 35.4473 38.0304 35.4934C38.0304 35.5394 38.0041 35.5771 37.972 35.5771C37.94 35.5771 37.9137 35.6405 37.9137 35.718C37.9137 35.7955 37.8875 35.8748 37.8554 35.8945C37.8177 35.9175 37.7971 36.9902 37.7971 38.9235C37.7971 40.8568 37.8177 41.9294 37.8554 41.9525C37.8875 41.9721 37.9137 42.0515 37.9137 42.1289C37.9137 42.2064 37.94 42.2698 37.972 42.2698C38.0041 42.2698 38.0304 42.3064 38.0304 42.351C38.0304 42.4601 38.5059 42.9388 38.6632 42.9883C38.7321 43.0099 38.7885 43.0518 38.7885 43.0814C38.7885 43.111 38.8526 43.1352 38.9309 43.1352C39.0092 43.1352 39.0895 43.1612 39.1093 43.1929C39.1309 43.2275 39.5188 43.2506 40.0771 43.2506C40.9255 43.2506 41.0205 43.2609 41.1381 43.3655C41.3604 43.5634 41.9346 44.0006 41.972 44.0006C41.9917 44.0006 42.0773 44.0721 42.1624 44.1595C42.2474 44.2468 42.422 44.3948 42.5503 44.4883C42.6786 44.5817 42.826 44.705 42.8779 44.7622C42.9298 44.8193 42.9968 44.8661 43.0269 44.8661C43.0569 44.8661 43.1747 44.9504 43.2885 45.0536C43.4023 45.1567 43.5675 45.293 43.6556 45.3565C43.7436 45.4199 43.8892 45.5368 43.979 45.6161C44.2129 45.8227 44.3311 45.9161 44.5623 46.0777C44.7428 46.2037 44.8779 46.3101 45.1119 46.5104C45.2762 46.6511 45.4542 46.7123 45.6988 46.7123C45.8436 46.7123 45.9621 46.6864 45.9621 46.6546C45.9621 46.6229 46.0026 46.5969 46.0522 46.5969C46.1689 46.5969 46.4286 46.34 46.4286 46.2245C46.4286 46.1755 46.4549 46.1354 46.487 46.1354C46.519 46.1354 46.5453 45.9926 46.5453 45.818C46.5453 45.6435 46.5218 45.5007 46.4931 45.5007C46.4644 45.5007 46.4271 45.4034 46.4103 45.2844C46.3935 45.1654 46.3533 44.9642 46.321 44.8372C46.2886 44.7103 46.1975 44.3468 46.1185 44.0295C46.0396 43.7122 45.9561 43.4071 45.9331 43.3516C45.8951 43.2598 45.9393 43.2506 46.419 43.2506C46.7092 43.2506 46.9629 43.2246 46.9827 43.1929C47.0025 43.1612 47.0828 43.1352 47.1611 43.1352C47.2394 43.1352 47.3035 43.1092 47.3035 43.0775C47.3035 43.0458 47.3416 43.0198 47.3881 43.0198C47.4347 43.0198 47.6053 42.8888 47.7672 42.7286C47.9292 42.5684 48.0616 42.3997 48.0616 42.3536C48.0616 42.3075 48.0879 42.2698 48.12 42.2698C48.152 42.2698 48.1783 42.2064 48.1783 42.1289C48.1783 42.0515 48.2045 41.9721 48.2366 41.9525C48.2743 41.9294 48.2949 40.8568 48.2949 38.9235C48.2949 36.9902 48.2743 35.9175 48.2366 35.8945C48.2045 35.8748 48.1783 35.7955 48.1783 35.718C48.1783 35.6405 48.1538 35.5771 48.1239 35.5771C48.0939 35.5771 48.0511 35.5187 48.0287 35.4473C47.9792 35.2901 47.4985 34.8271 47.3848 34.8271C47.3401 34.8271 47.3035 34.8011 47.3035 34.7694C47.3035 34.7377 47.2394 34.7117 47.1611 34.7117C47.0828 34.7117 47.0025 34.6857 46.9827 34.654C46.9592 34.6165 45.5835 34.5963 43.046 34.5963C40.5085 34.5963 39.1327 34.6165 39.1093 34.654ZM34.2978 38.9235V41.5197H33.3055C32.3382 41.5197 32.2008 41.5408 31.9895 41.7217C31.7556 41.9219 31.6205 42.0283 31.44 42.1544C31.2088 42.3159 31.0906 42.4094 30.8567 42.616C30.7669 42.6953 30.6213 42.8121 30.5333 42.8756C30.4452 42.939 30.28 43.0753 30.1662 43.1785C30.0523 43.2816 29.9272 43.366 29.888 43.366C29.8488 43.366 29.8051 43.3985 29.7907 43.4381C29.7764 43.4778 29.7429 43.4901 29.7164 43.4655C29.6898 43.4409 29.6993 43.3352 29.7375 43.2306C29.7758 43.126 29.807 42.9709 29.807 42.8859C29.807 42.8009 29.8333 42.7313 29.8654 42.7313C29.8974 42.7313 29.9237 42.5886 29.9237 42.414C29.9237 42.2395 29.8974 42.0967 29.8654 42.0967C29.8333 42.0967 29.807 42.0566 29.807 42.0076C29.807 41.8921 29.5473 41.6351 29.4306 41.6351C29.381 41.6351 29.3405 41.6092 29.3405 41.5774C29.3405 41.5412 28.9614 41.5197 28.3198 41.5197H27.2992V38.9235V36.3272H30.7985H34.2978V38.9235ZM46.5453 38.9235V41.5197H45.5247C44.8831 41.5197 44.504 41.5412 44.504 41.5774C44.504 41.6092 44.4635 41.6351 44.4139 41.6351C44.3643 41.6351 44.2594 41.6989 44.1806 41.7768C44.1019 41.8547 44.0375 41.9585 44.0375 42.0076C44.0375 42.0566 44.0112 42.0967 43.9791 42.0967C43.9471 42.0967 43.9208 42.2395 43.9208 42.414C43.9208 42.5886 43.9471 42.7313 43.9791 42.7313C44.0112 42.7313 44.0375 42.8009 44.0375 42.8859C44.0375 42.9709 44.0687 43.126 44.107 43.2306C44.195 43.4713 44.1412 43.5277 43.972 43.3718C43.8996 43.3051 43.818 43.2506 43.7905 43.2506C43.7631 43.2506 43.6809 43.1922 43.6079 43.1208C43.535 43.0494 43.4023 42.939 43.3132 42.8756C43.224 42.8121 43.0784 42.6953 42.9894 42.616C42.7745 42.4242 42.4101 42.1379 42.301 42.0749C42.2243 42.0306 42.1121 41.9418 41.855 41.7217C41.6437 41.5408 41.5063 41.5197 40.539 41.5197H39.5467V38.9235V36.3272H43.046H46.5453V38.9235ZM10.0361 42.4429C10.0361 42.4746 9.93269 42.5006 9.80625 42.5006C9.67981 42.5006 9.5602 42.5265 9.54037 42.5583C9.52054 42.59 9.46233 42.616 9.41101 42.616C9.23867 42.616 8.45676 43.0416 8.19664 43.277C8.05492 43.4053 7.90562 43.5388 7.86485 43.5737C7.69712 43.7173 7.41164 44.0595 7.41164 44.1169C7.41164 44.1508 7.35915 44.2343 7.29499 44.3024C7.23084 44.3705 7.17835 44.4733 7.17835 44.5308C7.17835 44.5883 7.15211 44.6353 7.12003 44.6353C7.08795 44.6353 7.06171 44.6872 7.06171 44.7507C7.06171 44.8141 7.04106 44.8661 7.01587 44.8661C6.99067 44.8661 6.92191 45.0771 6.86301 45.3351C6.71487 45.9843 6.75284 46.9247 6.95002 47.4912C7.02736 47.7133 7.11035 47.9037 7.13449 47.9143C7.15864 47.9249 7.17835 47.9833 7.17835 48.0441C7.17835 48.105 7.2046 48.1547 7.23667 48.1547C7.26875 48.1547 7.29499 48.1936 7.29499 48.2412C7.29499 48.2888 7.31704 48.3278 7.34393 48.3278C7.37087 48.3278 7.42418 48.3956 7.46232 48.4785C7.5393 48.6456 7.46914 48.7893 7.31051 48.7893C7.18972 48.7893 6.47885 49.1754 6.36658 49.302C6.3159 49.3591 6.24416 49.4165 6.2073 49.4294C6.11795 49.4606 5.54541 49.9943 5.54524 50.0465C5.54512 50.0691 5.46709 50.1777 5.37179 50.288C5.17332 50.5178 4.78718 51.2806 4.78718 51.443C4.78718 51.5029 4.76373 51.5663 4.73504 51.5838C4.70634 51.6014 4.66342 51.7262 4.63968 51.8613C4.56923 52.2622 4.54258 58.2514 4.61122 58.2514C4.64382 58.2514 4.67053 58.2915 4.67053 58.3405C4.67053 58.4559 4.9303 58.7129 5.047 58.7129C5.09657 58.7129 5.1371 58.7389 5.1371 58.7706C5.1371 58.8089 8.77245 58.8283 15.9266 58.8283C23.0807 58.8283 26.716 58.8089 26.716 58.7706C26.716 58.7389 26.7565 58.7129 26.8061 58.7129C26.9228 58.7129 27.1826 58.4559 27.1826 58.3405C27.1826 58.2915 27.2093 58.2514 27.2419 58.2514C27.3105 58.2514 27.2839 52.2622 27.2134 51.8613C27.1897 51.7262 27.1468 51.6014 27.1181 51.5838C27.0894 51.5663 27.0659 51.5055 27.0659 51.4488C27.0659 51.3169 26.6523 50.4875 26.4734 50.2606C26.3107 50.0543 25.6943 49.4403 25.4943 49.2855C25.2867 49.1247 24.6434 48.7893 24.5426 48.7893C24.3853 48.7893 24.308 48.64 24.3878 48.4901C24.427 48.4167 24.4747 48.3436 24.494 48.3278C24.5133 48.3119 24.5684 48.221 24.6164 48.1258C24.6644 48.0306 24.7178 47.9398 24.735 47.9239C24.7522 47.9081 24.8309 47.7005 24.9101 47.4628C25.1423 46.7645 25.1073 45.4112 24.8441 44.9101C24.8151 44.855 24.7914 44.7706 24.7914 44.7226C24.7914 44.6746 24.7652 44.6353 24.7331 44.6353C24.701 44.6353 24.6742 44.5898 24.6735 44.5343C24.6728 44.4788 24.6209 44.3684 24.5581 44.2891C24.4954 44.2098 24.4435 44.118 24.4428 44.0853C24.4403 43.9732 23.3959 43.03 23.1603 42.9272C23.031 42.8707 22.9251 42.8083 22.9251 42.7883C22.9251 42.7685 22.7922 42.7164 22.6298 42.6727C22.4674 42.6289 22.3215 42.5723 22.3056 42.5468C22.2897 42.5214 22.1879 42.5006 22.0795 42.5006C21.971 42.5006 21.866 42.4746 21.8462 42.4429C21.8257 42.4101 21.5345 42.3852 21.172 42.3852C20.7855 42.3852 20.5339 42.4079 20.5339 42.4429C20.5339 42.4746 20.4305 42.5006 20.3041 42.5006C20.1777 42.5006 20.058 42.5265 20.0382 42.5583C20.0184 42.59 19.9602 42.616 19.9089 42.616C19.7365 42.616 18.9546 43.0416 18.6945 43.277C18.5528 43.4053 18.4035 43.5388 18.3627 43.5737C18.195 43.7173 17.9095 44.0595 17.9095 44.1169C17.9095 44.1508 17.857 44.2343 17.7928 44.3024C17.7287 44.3705 17.6762 44.4733 17.6762 44.5308C17.6762 44.5883 17.65 44.6353 17.6179 44.6353C17.5858 44.6353 17.5596 44.6872 17.5596 44.7507C17.5596 44.8141 17.5389 44.8661 17.5137 44.8661C17.4885 44.8661 17.4198 45.0771 17.3609 45.3351C17.2127 45.9843 17.2507 46.9247 17.4479 47.4912C17.5252 47.7133 17.6082 47.9037 17.6323 47.9143C17.6565 47.9249 17.6762 47.9833 17.6762 48.0441C17.6762 48.105 17.7024 48.1547 17.7345 48.1547C17.7666 48.1547 17.7928 48.1936 17.7928 48.2412C17.7928 48.2888 17.8149 48.3278 17.8418 48.3278C17.8687 48.3278 17.922 48.3956 17.9602 48.4785C18.0372 48.6457 17.967 48.7893 17.8082 48.7893C17.7091 48.7893 17.1322 49.0842 17.1027 49.1499C17.092 49.1738 17.0519 49.1932 17.0135 49.1932C16.9752 49.1932 16.9059 49.2451 16.8597 49.3086C16.8135 49.3721 16.7477 49.424 16.7136 49.424C16.628 49.424 16.0432 50.017 16.0432 50.1037C16.0432 50.1424 15.9907 50.174 15.9266 50.174C15.8624 50.174 15.8099 50.1407 15.8099 50.0999C15.8099 50.0136 15.2218 49.424 15.1357 49.424C15.1037 49.424 15.0397 49.3721 14.9934 49.3086C14.9472 49.2451 14.8779 49.1932 14.8396 49.1932C14.8012 49.1932 14.7611 49.1738 14.7504 49.1499C14.7209 49.0842 14.144 48.7893 14.0449 48.7893C13.8874 48.7893 13.8101 48.6401 13.89 48.4901C13.9291 48.4167 13.9769 48.3436 13.9962 48.3278C14.0155 48.3119 14.0706 48.221 14.1186 48.1258C14.1666 48.0306 14.22 47.9398 14.2372 47.9239C14.2544 47.9081 14.3331 47.7005 14.4122 47.4628C14.6445 46.7645 14.6095 45.4112 14.3462 44.9101C14.3172 44.855 14.2936 44.7706 14.2936 44.7226C14.2936 44.6746 14.2673 44.6353 14.2352 44.6353C14.2032 44.6353 14.1763 44.5898 14.1756 44.5343C14.1749 44.4788 14.123 44.3684 14.0603 44.2891C13.9975 44.2098 13.9456 44.118 13.9449 44.0853C13.9425 43.9732 12.898 43.03 12.6625 42.9272C12.5331 42.8707 12.4273 42.8083 12.4273 42.7883C12.4273 42.7685 12.2944 42.7164 12.132 42.6727C11.9696 42.6289 11.8236 42.5723 11.8078 42.5468C11.7919 42.5214 11.6901 42.5006 11.5816 42.5006C11.4731 42.5006 11.3682 42.4746 11.3483 42.4429C11.3279 42.4101 11.0367 42.3852 10.6742 42.3852C10.2877 42.3852 10.0361 42.4079 10.0361 42.4429ZM52.0275 42.4429C52.0275 42.4746 51.9241 42.5006 51.7976 42.5006C51.6712 42.5006 51.5516 42.5265 51.5318 42.5583C51.5119 42.59 51.4537 42.616 51.4024 42.616C51.2301 42.616 50.4481 43.0416 50.188 43.277C50.0463 43.4053 49.897 43.5388 49.8562 43.5737C49.6885 43.7173 49.403 44.0595 49.403 44.1169C49.403 44.1508 49.3505 44.2343 49.2864 44.3024C49.2222 44.3705 49.1697 44.4733 49.1697 44.5308C49.1697 44.5883 49.1435 44.6353 49.1114 44.6353C49.0793 44.6353 49.0531 44.6872 49.0531 44.7507C49.0531 44.8141 49.0324 44.8661 49.0073 44.8661C48.9821 44.8661 48.9133 45.0771 48.8544 45.3351C48.7063 45.9843 48.7442 46.9247 48.9414 47.4912C49.0187 47.7133 49.1017 47.9037 49.1259 47.9143C49.15 47.9249 49.1697 47.9833 49.1697 48.0441C49.1697 48.105 49.196 48.1547 49.2281 48.1547C49.2601 48.1547 49.2864 48.1936 49.2864 48.2412C49.2864 48.2888 49.3084 48.3278 49.3353 48.3278C49.3623 48.3278 49.4156 48.3956 49.4537 48.4785C49.5307 48.6456 49.4605 48.7893 49.3019 48.7893C49.1811 48.7893 48.4702 49.1754 48.358 49.302C48.3073 49.3591 48.2355 49.4165 48.1987 49.4294C48.1093 49.4606 47.5368 49.9943 47.5366 50.0465C47.5365 50.0691 47.4585 50.1777 47.3632 50.288C47.1647 50.5178 46.7786 51.2806 46.7786 51.443C46.7786 51.5029 46.7551 51.5663 46.7264 51.5838C46.6977 51.6014 46.6548 51.7262 46.6311 51.8613C46.5606 52.2622 46.534 58.2514 46.6026 58.2514C46.6352 58.2514 46.6619 58.2915 46.6619 58.3405C46.6619 58.4559 46.9217 58.7129 47.0384 58.7129C47.088 58.7129 47.1285 58.7389 47.1285 58.7706C47.1285 58.8087 49.0142 58.8283 52.669 58.8283C56.3238 58.8283 58.2095 58.8087 58.2095 58.7706C58.2095 58.7389 58.2501 58.7129 58.2997 58.7129C58.4164 58.7129 58.6761 58.4559 58.6761 58.3405C58.6761 58.2915 58.7028 58.2514 58.7354 58.2514C58.8041 58.2514 58.7774 52.2622 58.707 51.8613C58.6832 51.7262 58.6403 51.6014 58.6116 51.5838C58.5829 51.5663 58.5595 51.5055 58.5595 51.4488C58.5595 51.3169 58.1459 50.4875 57.9669 50.2606C57.8043 50.0543 57.1878 49.4403 56.9878 49.2855C56.7803 49.1247 56.137 48.7893 56.0361 48.7893C55.8788 48.7893 55.8015 48.64 55.8814 48.4901C55.9205 48.4167 55.9683 48.3436 55.9876 48.3278C56.0069 48.3119 56.062 48.221 56.11 48.1258C56.158 48.0306 56.2113 47.9398 56.2286 47.9239C56.2458 47.9081 56.3245 47.7005 56.4036 47.4628C56.6359 46.7645 56.6009 45.4112 56.3376 44.9101C56.3086 44.855 56.2849 44.7706 56.2849 44.7226C56.2849 44.6746 56.2587 44.6353 56.2266 44.6353C56.1945 44.6353 56.1677 44.5898 56.167 44.5343C56.1663 44.4788 56.1144 44.3684 56.0517 44.2891C55.9889 44.2098 55.937 44.118 55.9363 44.0853C55.9338 43.9732 54.8894 43.03 54.6539 42.9272C54.5245 42.8707 54.4187 42.8083 54.4187 42.7883C54.4187 42.7685 54.2858 42.7164 54.1234 42.6727C53.961 42.6289 53.815 42.5723 53.7992 42.5468C53.7832 42.5214 53.6815 42.5006 53.573 42.5006C53.4645 42.5006 53.3595 42.4746 53.3397 42.4429C53.3192 42.4101 53.028 42.3852 52.6656 42.3852C52.2791 42.3852 52.0275 42.4079 52.0275 42.4429ZM11.1734 44.1737C11.1932 44.2055 11.2596 44.2314 11.3209 44.2314C11.4476 44.2314 11.7767 44.4024 12.0773 44.6246C12.3686 44.8397 12.4273 44.9037 12.4273 45.0062C12.4273 45.0561 12.4506 45.0969 12.4792 45.0969C12.5077 45.0969 12.5923 45.2202 12.6672 45.3709C12.7849 45.6077 12.8036 45.7327 12.8048 46.2911C12.8059 46.7329 12.7833 46.9601 12.7335 47.0094C12.6934 47.0491 12.6606 47.1234 12.6606 47.1745C12.6606 47.2257 12.6147 47.3178 12.5585 47.3793C12.5023 47.4409 12.4223 47.5561 12.3806 47.6354C12.2625 47.8601 11.5466 48.3278 11.3209 48.3278C11.2596 48.3278 11.1932 48.3537 11.1734 48.3855C11.1535 48.4172 10.9305 48.4432 10.6776 48.4432C10.4248 48.4432 10.2017 48.4172 10.1819 48.3855C10.1621 48.3537 10.0687 48.3278 9.97434 48.3278C9.87997 48.3278 9.80281 48.3018 9.80281 48.2701C9.80281 48.2384 9.77429 48.2124 9.73948 48.2124C9.62219 48.2124 9.04988 47.781 8.97401 47.6354C8.93266 47.5561 8.85293 47.4409 8.79677 47.3793C8.74061 47.3178 8.69471 47.2257 8.69471 47.1745C8.69471 47.1234 8.66193 47.0491 8.62181 47.0094C8.57194 46.9601 8.54937 46.7329 8.55042 46.2911C8.5517 45.7327 8.57037 45.6077 8.68806 45.3709C8.76294 45.2202 8.84757 45.0969 8.87609 45.0969C8.90466 45.0969 8.92799 45.0544 8.92799 45.0026C8.92799 44.8702 9.57635 44.3468 9.74041 44.3468C9.77476 44.3468 9.80281 44.3208 9.80281 44.2891C9.80281 44.2574 9.87997 44.2314 9.97434 44.2314C10.0687 44.2314 10.1621 44.2055 10.1819 44.1737C10.2017 44.142 10.4248 44.116 10.6776 44.116C10.9305 44.116 11.1535 44.142 11.1734 44.1737ZM21.6712 44.1737C21.691 44.2055 21.7574 44.2314 21.8187 44.2314C21.9454 44.2314 22.2745 44.4024 22.5752 44.6246C22.8665 44.8397 22.9251 44.9037 22.9251 45.0062C22.9251 45.0561 22.9485 45.0969 22.977 45.0969C23.0055 45.0969 23.0902 45.2202 23.1651 45.3709C23.2827 45.6077 23.3014 45.7327 23.3027 46.2911C23.3037 46.7329 23.2812 46.9601 23.2313 47.0094C23.1912 47.0491 23.1584 47.1234 23.1584 47.1745C23.1584 47.2257 23.1124 47.3178 23.0563 47.3793C23.0002 47.4409 22.9202 47.5561 22.8785 47.6354C22.7604 47.8601 22.0445 48.3278 21.8187 48.3278C21.7574 48.3278 21.691 48.3537 21.6712 48.3855C21.6514 48.4172 21.4283 48.4432 21.1755 48.4432C20.9227 48.4432 20.6996 48.4172 20.6797 48.3855C20.6599 48.3537 20.5665 48.3278 20.4722 48.3278C20.3778 48.3278 20.3007 48.3018 20.3007 48.2701C20.3007 48.2384 20.2721 48.2124 20.2373 48.2124C20.12 48.2124 19.5477 47.781 19.4719 47.6354C19.4305 47.5561 19.3507 47.4409 19.2946 47.3793C19.2385 47.3178 19.1926 47.2257 19.1926 47.1745C19.1926 47.1234 19.1598 47.0491 19.1197 47.0094C19.0698 46.9601 19.0472 46.7329 19.0483 46.2911C19.0495 45.7327 19.0682 45.6077 19.1859 45.3709C19.2608 45.2202 19.3454 45.0969 19.3739 45.0969C19.4025 45.0969 19.4258 45.0544 19.4258 45.0026C19.4258 44.8702 20.0742 44.3468 20.2383 44.3468C20.2726 44.3468 20.3007 44.3208 20.3007 44.2891C20.3007 44.2574 20.3778 44.2314 20.4722 44.2314C20.5665 44.2314 20.6599 44.2055 20.6797 44.1737C20.6996 44.142 20.9227 44.116 21.1755 44.116C21.4283 44.116 21.6514 44.142 21.6712 44.1737ZM53.1648 44.1737C53.1846 44.2055 53.251 44.2314 53.3122 44.2314C53.439 44.2314 53.7681 44.4024 54.0687 44.6246C54.36 44.8397 54.4187 44.9037 54.4187 45.0062C54.4187 45.0561 54.442 45.0969 54.4706 45.0969C54.4991 45.0969 54.5837 45.2202 54.6586 45.3709C54.7763 45.6077 54.795 45.7327 54.7962 46.2911C54.7973 46.7329 54.7747 46.9601 54.7248 47.0094C54.6848 47.0491 54.6519 47.1234 54.6519 47.1745C54.6519 47.2257 54.606 47.3178 54.5499 47.3793C54.4938 47.4409 54.4137 47.5561 54.372 47.6354C54.2539 47.8601 53.538 48.3278 53.3122 48.3278C53.251 48.3278 53.1846 48.3537 53.1648 48.3855C53.1449 48.4172 52.9218 48.4432 52.669 48.4432C52.4162 48.4432 52.1931 48.4172 52.1733 48.3855C52.1535 48.3537 52.0601 48.3278 51.9657 48.3278C51.8714 48.3278 51.7942 48.3018 51.7942 48.2701C51.7942 48.2384 51.7657 48.2124 51.7309 48.2124C51.6136 48.2124 51.0413 47.781 50.9654 47.6354C50.924 47.5561 50.8443 47.4409 50.7882 47.3793C50.7321 47.3178 50.6861 47.2257 50.6861 47.1745C50.6861 47.1234 50.6533 47.0491 50.6132 47.0094C50.5633 46.9601 50.5408 46.7329 50.5418 46.2911C50.5431 45.7327 50.5618 45.6077 50.6794 45.3709C50.7543 45.2202 50.839 45.0969 50.8675 45.0969C50.8961 45.0969 50.9194 45.0544 50.9194 45.0026C50.9194 44.8702 51.5677 44.3468 51.7318 44.3468C51.7661 44.3468 51.7942 44.3208 51.7942 44.2891C51.7942 44.2574 51.8714 44.2314 51.9657 44.2314C52.0601 44.2314 52.1535 44.2055 52.1733 44.1737C52.1931 44.142 52.4162 44.116 52.669 44.116C52.9218 44.116 53.1449 44.142 53.1648 44.1737ZM12.9522 50.2317C12.9522 50.2635 13.0194 50.2894 13.1016 50.2894C13.3639 50.2894 13.8964 50.5957 14.2609 50.9564C14.6255 51.317 14.9351 51.8437 14.9351 52.1032C14.9351 52.1845 14.9613 52.2511 14.9934 52.2511C15.0314 52.2511 15.0517 53.0973 15.0517 54.6743V57.0975H10.6776H6.30353V54.6743C6.30353 53.0973 6.32388 52.2511 6.36185 52.2511C6.39393 52.2511 6.42017 52.1845 6.42017 52.1032C6.42017 51.8437 6.7298 51.317 7.09437 50.9564C7.45888 50.5957 7.99135 50.2894 8.25362 50.2894C8.33586 50.2894 8.4031 50.2635 8.4031 50.2317C8.4031 50.1942 9.20018 50.174 10.6776 50.174C12.1551 50.174 12.9522 50.1942 12.9522 50.2317ZM23.45 50.2317C23.45 50.2635 23.5173 50.2894 23.5995 50.2894C23.8618 50.2894 24.3942 50.5957 24.7587 50.9564C25.1233 51.317 25.4329 51.8437 25.4329 52.1032C25.4329 52.1845 25.4592 52.2511 25.4913 52.2511C25.5292 52.2511 25.5496 53.0973 25.5496 54.6743V57.0975H21.1755H16.8014V54.6743C16.8014 53.0973 16.8217 52.2511 16.8597 52.2511C16.8918 52.2511 16.918 52.1845 16.918 52.1032C16.918 51.8437 17.2276 51.317 17.5922 50.9564C17.9567 50.5957 18.4892 50.2894 18.7515 50.2894C18.8337 50.2894 18.9009 50.2635 18.9009 50.2317C18.9009 50.1942 19.698 50.174 21.1755 50.174C22.6529 50.174 23.45 50.1942 23.45 50.2317ZM54.9436 50.2317C54.9436 50.2635 55.0108 50.2894 55.093 50.2894C55.3553 50.2894 55.8878 50.5957 56.2523 50.9564C56.6169 51.317 56.9265 51.8437 56.9265 52.1032C56.9265 52.1845 56.9527 52.2511 56.9848 52.2511C57.0228 52.2511 57.0431 53.0973 57.0431 54.6743V57.0975H52.669H48.2949V54.6743C48.2949 53.0973 48.3153 52.2511 48.3532 52.2511C48.3853 52.2511 48.4116 52.1845 48.4116 52.1032C48.4116 51.8437 48.7212 51.317 49.0858 50.9564C49.4503 50.5957 49.9827 50.2894 50.245 50.2894C50.3272 50.2894 50.3945 50.2635 50.3945 50.2317C50.3945 50.1942 51.1916 50.174 52.669 50.174C54.1465 50.174 54.9436 50.1942 54.9436 50.2317Z" fill="#F3F3F3"/>
<path fill-rule="evenodd" clip-rule="evenodd" d="M6.88674 5.22945C6.88674 5.26118 6.84621 5.28714 6.79664 5.28714C6.69837 5.28714 6.49191 5.47967 6.37643 5.67901C6.28242 5.84125 6.26795 32.2885 6.36185 32.2885C6.39393 32.2885 6.42017 32.3286 6.42017 32.3776C6.42017 32.4931 6.67994 32.7501 6.79664 32.7501C6.84621 32.7501 6.88674 32.776 6.88674 32.8078C6.88674 32.8461 15.1878 32.8655 31.6733 32.8655C48.1589 32.8655 56.4599 32.8461 56.4599 32.8078C56.4599 32.776 56.5004 32.7501 56.55 32.7501C56.6667 32.7501 56.9265 32.4931 56.9265 32.3776C56.9265 32.3286 56.9527 32.2885 56.9848 32.2885C57.0235 32.2885 57.0431 27.8268 57.0431 19.0186C57.0431 10.2104 57.0235 5.74871 56.9848 5.74871C56.9527 5.74871 56.9265 5.70861 56.9265 5.65957C56.9265 5.54412 56.6667 5.28714 56.55 5.28714C56.5004 5.28714 56.4599 5.26118 56.4599 5.22945C56.4599 5.19108 48.1589 5.17175 31.6733 5.17175C15.1878 5.17175 6.88674 5.19108 6.88674 5.22945ZM55.2935 19.0186V31.1346H31.6733H8.05317V19.0186V6.90261H31.6733H55.2935V19.0186ZM30.7985 11.8067V12.6721H31.6733H32.5481V11.8067V11.8067C32.5481 11.3287 32.1607 10.9413 31.6827 10.9413H31.6733H31.6639C31.186 10.9413 30.7985 11.3287 30.7985 11.8067V11.8067ZM26.1182 12.6725C25.8055 12.9819 25.5496 13.2633 25.5496 13.2977C25.5496 13.3322 25.8112 13.6198 26.1309 13.9367L26.7122 14.513L27.3323 13.9047L27.9525 13.2964L27.7863 13.1171C27.4657 12.7716 26.8693 12.2032 26.7785 12.1567C26.7095 12.1215 26.546 12.2492 26.1182 12.6725ZM36.476 12.2261C36.3 12.3613 35.4059 13.246 35.4059 13.285C35.4059 13.2975 35.6823 13.579 36.0202 13.9104L36.6344 14.513L37.2158 13.9367C37.5355 13.6198 37.7971 13.3322 37.7971 13.2975C37.7971 13.2629 37.5372 12.979 37.2196 12.6665L36.7915 12.2454C36.7059 12.1611 36.5713 12.1529 36.476 12.2261V12.2261ZM30.8568 13.5953C30.8087 13.626 30.6725 13.6516 30.5541 13.6521C30.4357 13.6525 30.3226 13.6789 30.3028 13.7106C30.2829 13.7424 30.2042 13.7683 30.1278 13.7683C30.0514 13.7683 29.9727 13.7943 29.9528 13.826C29.933 13.8578 29.8797 13.8837 29.8343 13.8837C29.7291 13.8837 29.0844 14.1815 29.0586 14.242C29.0479 14.2671 28.9946 14.2876 28.9402 14.2876C28.8859 14.2876 28.8035 14.3395 28.7573 14.403C28.711 14.4665 28.6529 14.5184 28.6282 14.5184C28.4907 14.5184 27.4159 15.593 27.4159 15.7304C27.4159 15.7619 27.3941 15.7877 27.3674 15.7877C27.3407 15.7877 27.2817 15.8591 27.2363 15.9463C27.1908 16.0336 27.1391 16.118 27.1215 16.1338C27.0607 16.1884 26.7743 16.8294 26.7743 16.9109C26.7743 16.9558 26.7481 17.0085 26.716 17.0281C26.6839 17.0477 26.6577 17.1256 26.6577 17.2012C26.6577 17.2768 26.6314 17.3547 26.5994 17.3743C26.5673 17.3939 26.541 17.52 26.541 17.6546C26.541 17.7892 26.5133 17.9268 26.4793 17.9604C26.4043 18.0346 26.4393 19.3868 26.5262 19.7686C26.6379 20.2589 26.9494 21.0956 27.0204 21.0956C27.0455 21.0956 27.0659 21.1476 27.0659 21.211C27.0659 21.2745 27.0922 21.3264 27.1243 21.3264C27.1563 21.3264 27.1826 21.3654 27.1826 21.413C27.1826 21.4606 27.2088 21.4995 27.2409 21.4995C27.273 21.4995 27.2992 21.5384 27.2992 21.586C27.2992 21.6336 27.3255 21.6726 27.3575 21.6726C27.3896 21.6726 27.4159 21.6995 27.4159 21.7324C27.4159 21.7652 27.4749 21.8567 27.5471 21.9356C27.8535 22.2707 28.2854 22.69 28.4283 22.7913L28.5823 22.9003V23.7448C28.5823 24.6032 28.6614 25.4691 28.7559 25.6437C28.7845 25.6967 28.8423 25.8245 28.8843 25.9276C28.9263 26.0308 28.9805 26.1151 29.0048 26.1151C29.029 26.1151 29.0489 26.1409 29.0489 26.1724C29.0489 26.3099 29.6341 26.8858 29.8736 26.984C29.9653 27.0215 30.0403 27.0751 30.0403 27.1029C30.0403 27.1308 30.0912 27.1536 30.1535 27.1536C30.2158 27.1536 30.2829 27.1796 30.3028 27.2113C30.3226 27.2431 30.416 27.269 30.5103 27.269C30.6047 27.269 30.6819 27.295 30.6819 27.3267C30.6819 27.3629 31.0512 27.3844 31.6733 27.3844C32.2954 27.3844 32.6648 27.3629 32.6648 27.3267C32.6648 27.295 32.7419 27.269 32.8363 27.269C32.9307 27.269 33.0241 27.2431 33.0439 27.2113C33.0637 27.1796 33.1308 27.1536 33.1931 27.1536C33.2554 27.1536 33.3063 27.134 33.3063 27.11C33.3063 27.086 33.3792 27.0345 33.4682 26.9956C33.709 26.8901 34.2978 26.3059 34.2978 26.1724C34.2978 26.1409 34.3176 26.1151 34.3419 26.1151C34.3661 26.1151 34.4203 26.0308 34.4623 25.9276C34.5044 25.8245 34.5622 25.6967 34.5908 25.6437C34.6852 25.4692 34.7644 24.6034 34.7644 23.7471V22.905L34.98 22.7359C35.2599 22.5166 35.5088 22.269 35.7267 21.9933C35.8229 21.8716 35.9345 21.7385 35.9745 21.6975C36.0147 21.6566 36.0474 21.5824 36.0474 21.5324C36.0474 21.4826 36.0695 21.4418 36.0966 21.4418C36.192 21.4418 36.689 20.3496 36.689 20.1399C36.689 20.0664 36.7152 19.9902 36.7473 19.9706C36.7794 19.951 36.8056 19.8067 36.8056 19.6499C36.8056 19.493 36.8319 19.3648 36.8639 19.3648C36.8993 19.3648 36.9223 19.1159 36.9223 18.7335C36.9223 18.375 36.8971 18.0869 36.8639 18.0666C36.8319 18.047 36.8056 17.937 36.8056 17.8221C36.8056 17.7073 36.7754 17.5206 36.7385 17.4072C36.5656 16.8765 36.3737 16.3917 36.3295 16.3743C36.3026 16.3636 36.2807 16.3171 36.2807 16.2709C36.2807 16.2246 36.2282 16.131 36.1641 16.0629C36.0999 15.9947 36.0474 15.905 36.0474 15.8633C36.0474 15.8217 36.0212 15.7877 35.9891 15.7877C35.957 15.7877 35.9308 15.7608 35.9308 15.7279C35.9308 15.5915 34.8439 14.5184 34.7056 14.5184C34.6738 14.5184 34.6477 14.4924 34.6477 14.4607C34.6477 14.429 34.6083 14.403 34.5602 14.403C34.5121 14.403 34.4728 14.377 34.4728 14.3453C34.4728 14.3136 34.4355 14.2876 34.3901 14.2876C34.3447 14.2876 34.2988 14.2669 34.2881 14.2416C34.2342 14.1141 32.9685 13.653 32.6725 13.653C32.5759 13.653 32.4805 13.627 32.4607 13.5953C32.4139 13.5205 30.9738 13.5205 30.8568 13.5953ZM32.3149 15.3261C32.3149 15.3578 32.3939 15.3838 32.4906 15.3838C32.5873 15.3838 32.712 15.4082 32.7677 15.438C32.8234 15.4679 32.9936 15.5364 33.1459 15.5901C33.2983 15.644 33.423 15.7062 33.423 15.7285C33.423 15.7509 33.4865 15.7978 33.5642 15.8329C33.7283 15.9068 33.8906 16.0331 34.1451 16.2849C34.4862 16.6223 34.5112 16.6618 35.0057 17.6475C35.0333 17.7026 35.056 17.826 35.056 17.9216C35.056 18.0172 35.0822 18.0955 35.1143 18.0955C35.1495 18.0955 35.1726 18.3347 35.1726 18.6979C35.1726 19.0372 35.1471 19.3159 35.1143 19.3359C35.0822 19.3555 35.056 19.4266 35.056 19.4939C35.056 19.8677 34.4989 20.8691 34.1033 21.2064C33.8456 21.4261 33.7714 21.4824 33.4888 21.6729C33.1279 21.9161 33.0292 22.104 32.9784 22.6453L32.9397 23.0573H31.6733H30.407L30.3683 22.6453C30.3158 22.0869 30.2202 21.9157 29.8088 21.6435C29.6172 21.5167 29.4596 21.3935 29.4587 21.3697C29.4578 21.3459 29.4297 21.3264 29.3962 21.3264C29.329 21.3264 29.0489 21.0664 29.0489 21.0041C29.0489 20.9826 29.0006 20.923 28.9416 20.8716C28.8826 20.8203 28.735 20.5836 28.6137 20.3456C28.4923 20.1076 28.3699 19.8678 28.3418 19.8127C28.3137 19.7576 28.2907 19.6343 28.2907 19.5387C28.2907 19.443 28.2644 19.3648 28.2324 19.3648C28.197 19.3648 28.174 19.1148 28.174 18.7301C28.174 18.3455 28.197 18.0955 28.2324 18.0955C28.2644 18.0955 28.2907 17.9916 28.2907 17.8647C28.2907 17.7378 28.3169 17.6339 28.349 17.6339C28.3811 17.6339 28.4073 17.5907 28.4073 17.5379C28.4073 17.4083 28.593 16.9993 28.6518 16.9993C28.6778 16.9993 28.6989 16.9652 28.6989 16.9236C28.6989 16.882 28.7514 16.7922 28.8156 16.7241C28.8797 16.656 28.9322 16.5855 28.9322 16.5674C28.9322 16.5247 29.4439 16.0185 29.4872 16.0185C29.5054 16.0185 29.5767 15.9665 29.6455 15.9031C29.7144 15.8396 29.8051 15.7877 29.8472 15.7877C29.8893 15.7877 29.9237 15.7667 29.9237 15.7411C29.9237 15.6828 30.3371 15.4992 30.4682 15.4992C30.5215 15.4992 30.5652 15.4732 30.5652 15.4415C30.5652 15.4098 30.6702 15.3838 30.7985 15.3838C30.9268 15.3838 31.0318 15.3578 31.0318 15.3261C31.0318 15.2911 31.2845 15.2684 31.6733 15.2684C32.0622 15.2684 32.3149 15.2911 32.3149 15.3261ZM23.7999 17.8647V17.8647C23.7999 18.3427 24.1874 18.7301 24.6654 18.7301H24.6748H25.5496V17.8647V16.9993H24.6748H24.6654C24.1874 16.9993 23.7999 17.3867 23.7999 17.8647V17.8647ZM37.7971 17.8647V18.7301H38.6719H38.6813C39.1592 18.7301 39.5467 18.3427 39.5467 17.8647V17.8647V17.8647C39.5467 17.3867 39.1592 16.9993 38.6813 16.9993H38.6719H37.7971V17.8647ZM32.9564 24.9092C32.9564 25.1203 32.7766 25.4152 32.601 25.4921C32.5078 25.5329 32.4315 25.5859 32.4315 25.6099C32.4315 25.6339 32.0903 25.6536 31.6733 25.6536C31.2068 25.6536 30.9151 25.6313 30.9151 25.5959C30.9151 25.5641 30.8723 25.5382 30.8199 25.5382C30.644 25.5382 30.3903 25.1612 30.3903 24.8998C30.3903 24.7927 30.4435 24.7881 31.6733 24.7881C32.9377 24.7881 32.9564 24.7899 32.9564 24.9092ZM26.8618 34.654C26.842 34.6857 26.7617 34.7117 26.6834 34.7117C26.6051 34.7117 26.541 34.7377 26.541 34.7694C26.541 34.8011 26.5029 34.8271 26.4564 34.8271C26.4098 34.8271 26.2392 34.9581 26.0773 35.1183C25.9153 35.2785 25.7829 35.4473 25.7829 35.4934C25.7829 35.5394 25.7566 35.5771 25.7245 35.5771C25.6925 35.5771 25.6662 35.6405 25.6662 35.718C25.6662 35.7955 25.64 35.8748 25.6079 35.8945C25.5702 35.9175 25.5496 36.9902 25.5496 38.9235C25.5496 40.8568 25.5702 41.9294 25.6079 41.9525C25.64 41.9721 25.6662 42.0515 25.6662 42.1289C25.6662 42.2064 25.6925 42.2698 25.7245 42.2698C25.7566 42.2698 25.7829 42.3064 25.7829 42.351C25.7829 42.4601 26.2584 42.9388 26.4157 42.9883C26.4846 43.0099 26.541 43.0518 26.541 43.0814C26.541 43.111 26.6051 43.1352 26.6834 43.1352C26.7617 43.1352 26.842 43.1612 26.8618 43.1929C26.8816 43.2246 27.1353 43.2506 27.4255 43.2506C27.9052 43.2506 27.9495 43.2598 27.9114 43.3516C27.8884 43.4071 27.8049 43.7122 27.726 44.0295C27.647 44.3468 27.5559 44.7103 27.5235 44.8372C27.4912 44.9642 27.451 45.1654 27.4342 45.2844C27.4174 45.4034 27.3801 45.5007 27.3514 45.5007C27.2725 45.5007 27.2889 46.0615 27.3721 46.2051C27.4653 46.3659 27.6494 46.5481 27.812 46.6402C27.9634 46.726 28.4657 46.7371 28.4657 46.6546C28.4657 46.6229 28.5048 46.5969 28.5527 46.5969C28.6283 46.5969 28.7756 46.4947 29.0129 46.2777C29.0487 46.2449 29.1699 46.1544 29.2822 46.0766C29.5119 45.9173 29.6292 45.8247 29.8655 45.6161C29.9553 45.5368 30.1017 45.4199 30.1909 45.3565C30.28 45.293 30.4127 45.1826 30.4856 45.1113C30.5586 45.0399 30.6418 44.9815 30.6705 44.9815C30.6994 44.9815 30.799 44.9097 30.8919 44.822C30.9849 44.7343 31.1651 44.585 31.2923 44.4902C31.4195 44.3955 31.5901 44.26 31.6713 44.1892C31.7526 44.1183 31.9897 43.9309 32.1982 43.7727C32.4067 43.6144 32.6354 43.4322 32.7064 43.3678C32.825 43.2602 32.9121 43.2506 33.7674 43.2506C34.3257 43.2506 34.7136 43.2275 34.7352 43.1929C34.755 43.1612 34.8353 43.1352 34.9136 43.1352C34.9919 43.1352 35.056 43.1092 35.056 43.0775C35.056 43.0458 35.0941 43.0198 35.1407 43.0198C35.1873 43.0198 35.3578 42.8888 35.5197 42.7286C35.6817 42.5684 35.8141 42.3997 35.8141 42.3536C35.8141 42.3075 35.8404 42.2698 35.8725 42.2698C35.9045 42.2698 35.9308 42.2064 35.9308 42.1289C35.9308 42.0515 35.957 41.9721 35.9891 41.9525C36.0268 41.9294 36.0474 40.8568 36.0474 38.9235C36.0474 36.9902 36.0268 35.9175 35.9891 35.8945C35.957 35.8748 35.9308 35.7955 35.9308 35.718C35.9308 35.6405 35.9063 35.5771 35.8764 35.5771C35.8465 35.5771 35.8036 35.5187 35.7812 35.4473C35.7317 35.2901 35.2511 34.8271 35.1373 34.8271C35.0926 34.8271 35.056 34.8011 35.056 34.7694C35.056 34.7377 34.9919 34.7117 34.9136 34.7117C34.8353 34.7117 34.755 34.6857 34.7352 34.654C34.7118 34.6165 33.336 34.5963 30.7985 34.5963C28.261 34.5963 26.8853 34.6165 26.8618 34.654ZM39.1093 34.654C39.0895 34.6857 39.0092 34.7117 38.9309 34.7117C38.8526 34.7117 38.7885 34.7377 38.7885 34.7694C38.7885 34.8011 38.7504 34.8271 38.7039 34.8271C38.6573 34.8271 38.4867 34.9581 38.3248 35.1183C38.1628 35.2785 38.0304 35.4473 38.0304 35.4934C38.0304 35.5394 38.0041 35.5771 37.972 35.5771C37.94 35.5771 37.9137 35.6405 37.9137 35.718C37.9137 35.7955 37.8875 35.8748 37.8554 35.8945C37.8177 35.9175 37.7971 36.9902 37.7971 38.9235C37.7971 40.8568 37.8177 41.9294 37.8554 41.9525C37.8875 41.9721 37.9137 42.0515 37.9137 42.1289C37.9137 42.2064 37.94 42.2698 37.972 42.2698C38.0041 42.2698 38.0304 42.3064 38.0304 42.351C38.0304 42.4601 38.5059 42.9388 38.6632 42.9883C38.7321 43.0099 38.7885 43.0518 38.7885 43.0814C38.7885 43.111 38.8526 43.1352 38.9309 43.1352C39.0092 43.1352 39.0895 43.1612 39.1093 43.1929C39.1309 43.2275 39.5188 43.2506 40.0771 43.2506C40.9255 43.2506 41.0205 43.2609 41.1381 43.3655C41.3604 43.5634 41.9346 44.0006 41.972 44.0006C41.9917 44.0006 42.0773 44.0721 42.1624 44.1595C42.2474 44.2468 42.422 44.3948 42.5503 44.4883C42.6786 44.5817 42.826 44.705 42.8779 44.7622C42.9298 44.8193 42.9968 44.8661 43.0269 44.8661C43.0569 44.8661 43.1747 44.9504 43.2885 45.0536C43.4023 45.1567 43.5675 45.293 43.6556 45.3565C43.7436 45.4199 43.8892 45.5368 43.979 45.6161C44.2129 45.8227 44.3311 45.9161 44.5623 46.0777C44.7428 46.2037 44.8779 46.3101 45.1119 46.5104C45.2762 46.6511 45.4542 46.7123 45.6988 46.7123C45.8436 46.7123 45.9621 46.6864 45.9621 46.6546C45.9621 46.6229 46.0026 46.5969 46.0522 46.5969C46.1689 46.5969 46.4286 46.34 46.4286 46.2245C46.4286 46.1755 46.4549 46.1354 46.487 46.1354C46.519 46.1354 46.5453 45.9926 46.5453 45.818C46.5453 45.6435 46.5218 45.5007 46.4931 45.5007C46.4644 45.5007 46.4271 45.4034 46.4103 45.2844C46.3935 45.1654 46.3533 44.9642 46.321 44.8372C46.2886 44.7103 46.1975 44.3468 46.1185 44.0295C46.0396 43.7122 45.9561 43.4071 45.9331 43.3516C45.8951 43.2598 45.9393 43.2506 46.419 43.2506C46.7092 43.2506 46.9629 43.2246 46.9827 43.1929C47.0025 43.1612 47.0828 43.1352 47.1611 43.1352C47.2394 43.1352 47.3035 43.1092 47.3035 43.0775C47.3035 43.0458 47.3416 43.0198 47.3881 43.0198C47.4347 43.0198 47.6053 42.8888 47.7672 42.7286C47.9292 42.5684 48.0616 42.3997 48.0616 42.3536C48.0616 42.3075 48.0879 42.2698 48.12 42.2698C48.152 42.2698 48.1783 42.2064 48.1783 42.1289C48.1783 42.0515 48.2045 41.9721 48.2366 41.9525C48.2743 41.9294 48.2949 40.8568 48.2949 38.9235C48.2949 36.9902 48.2743 35.9175 48.2366 35.8945C48.2045 35.8748 48.1783 35.7955 48.1783 35.718C48.1783 35.6405 48.1538 35.5771 48.1239 35.5771C48.0939 35.5771 48.0511 35.5187 48.0287 35.4473C47.9792 35.2901 47.4985 34.8271 47.3848 34.8271C47.3401 34.8271 47.3035 34.8011 47.3035 34.7694C47.3035 34.7377 47.2394 34.7117 47.1611 34.7117C47.0828 34.7117 47.0025 34.6857 46.9827 34.654C46.9592 34.6165 45.5835 34.5963 43.046 34.5963C40.5085 34.5963 39.1327 34.6165 39.1093 34.654ZM34.2978 38.9235V41.5197H33.3055C32.3382 41.5197 32.2008 41.5408 31.9895 41.7217C31.7556 41.9219 31.6205 42.0283 31.44 42.1544C31.2088 42.3159 31.0906 42.4094 30.8567 42.616C30.7669 42.6953 30.6213 42.8121 30.5333 42.8756C30.4452 42.939 30.28 43.0753 30.1662 43.1785C30.0523 43.2816 29.9272 43.366 29.888 43.366C29.8488 43.366 29.8051 43.3985 29.7907 43.4381C29.7764 43.4778 29.7429 43.4901 29.7164 43.4655C29.6898 43.4409 29.6993 43.3352 29.7375 43.2306C29.7758 43.126 29.807 42.9709 29.807 42.8859C29.807 42.8009 29.8333 42.7313 29.8654 42.7313C29.8974 42.7313 29.9237 42.5886 29.9237 42.414C29.9237 42.2395 29.8974 42.0967 29.8654 42.0967C29.8333 42.0967 29.807 42.0566 29.807 42.0076C29.807 41.8921 29.5473 41.6351 29.4306 41.6351C29.381 41.6351 29.3405 41.6092 29.3405 41.5774C29.3405 41.5412 28.9614 41.5197 28.3198 41.5197H27.2992V38.9235V36.3272H30.7985H34.2978V38.9235ZM46.5453 38.9235V41.5197H45.5247C44.8831 41.5197 44.504 41.5412 44.504 41.5774C44.504 41.6092 44.4635 41.6351 44.4139 41.6351C44.3643 41.6351 44.2594 41.6989 44.1806 41.7768C44.1019 41.8547 44.0375 41.9585 44.0375 42.0076C44.0375 42.0566 44.0112 42.0967 43.9791 42.0967C43.9471 42.0967 43.9208 42.2395 43.9208 42.414C43.9208 42.5886 43.9471 42.7313 43.9791 42.7313C44.0112 42.7313 44.0375 42.8009 44.0375 42.8859C44.0375 42.9709 44.0687 43.126 44.107 43.2306C44.195 43.4713 44.1412 43.5277 43.972 43.3718C43.8996 43.3051 43.818 43.2506 43.7905 43.2506C43.7631 43.2506 43.6809 43.1922 43.6079 43.1208C43.535 43.0494 43.4023 42.939 43.3132 42.8756C43.224 42.8121 43.0784 42.6953 42.9894 42.616C42.7745 42.4242 42.4101 42.1379 42.301 42.0749C42.2243 42.0306 42.1121 41.9418 41.855 41.7217C41.6437 41.5408 41.5063 41.5197 40.539 41.5197H39.5467V38.9235V36.3272H43.046H46.5453V38.9235ZM10.0361 42.4429C10.0361 42.4746 9.93269 42.5006 9.80625 42.5006C9.67981 42.5006 9.5602 42.5265 9.54037 42.5583C9.52054 42.59 9.46233 42.616 9.41101 42.616C9.23867 42.616 8.45676 43.0416 8.19664 43.277C8.05492 43.4053 7.90562 43.5388 7.86485 43.5737C7.69712 43.7173 7.41164 44.0595 7.41164 44.1169C7.41164 44.1508 7.35915 44.2343 7.29499 44.3024C7.23084 44.3705 7.17835 44.4733 7.17835 44.5308C7.17835 44.5883 7.15211 44.6353 7.12003 44.6353C7.08795 44.6353 7.06171 44.6872 7.06171 44.7507C7.06171 44.8141 7.04106 44.8661 7.01587 44.8661C6.99067 44.8661 6.92191 45.0771 6.86301 45.3351C6.71487 45.9843 6.75284 46.9247 6.95002 47.4912C7.02736 47.7133 7.11035 47.9037 7.13449 47.9143C7.15864 47.9249 7.17835 47.9833 7.17835 48.0441C7.17835 48.105 7.2046 48.1547 7.23667 48.1547C7.26875 48.1547 7.29499 48.1936 7.29499 48.2412C7.29499 48.2888 7.31704 48.3278 7.34393 48.3278C7.37087 48.3278 7.42418 48.3956 7.46232 48.4785C7.5393 48.6456 7.46914 48.7893 7.31051 48.7893C7.18972 48.7893 6.47885 49.1754 6.36658 49.302C6.3159 49.3591 6.24416 49.4165 6.2073 49.4294C6.11795 49.4606 5.54541 49.9943 5.54524 50.0465C5.54512 50.0691 5.46709 50.1777 5.37179 50.288C5.17332 50.5178 4.78718 51.2806 4.78718 51.443C4.78718 51.5029 4.76373 51.5663 4.73504 51.5838C4.70634 51.6014 4.66342 51.7262 4.63968 51.8613C4.56923 52.2622 4.54258 58.2514 4.61122 58.2514C4.64382 58.2514 4.67053 58.2915 4.67053 58.3405C4.67053 58.4559 4.9303 58.7129 5.047 58.7129C5.09657 58.7129 5.1371 58.7389 5.1371 58.7706C5.1371 58.8089 8.77245 58.8283 15.9266 58.8283C23.0807 58.8283 26.716 58.8089 26.716 58.7706C26.716 58.7389 26.7565 58.7129 26.8061 58.7129C26.9228 58.7129 27.1826 58.4559 27.1826 58.3405C27.1826 58.2915 27.2093 58.2514 27.2419 58.2514C27.3105 58.2514 27.2839 52.2622 27.2134 51.8613C27.1897 51.7262 27.1468 51.6014 27.1181 51.5838C27.0894 51.5663 27.0659 51.5055 27.0659 51.4488C27.0659 51.3169 26.6523 50.4875 26.4734 50.2606C26.3107 50.0543 25.6943 49.4403 25.4943 49.2855C25.2867 49.1247 24.6434 48.7893 24.5426 48.7893C24.3853 48.7893 24.308 48.64 24.3878 48.4901C24.427 48.4167 24.4747 48.3436 24.494 48.3278C24.5133 48.3119 24.5684 48.221 24.6164 48.1258C24.6644 48.0306 24.7178 47.9398 24.735 47.9239C24.7522 47.9081 24.8309 47.7005 24.9101 47.4628C25.1423 46.7645 25.1073 45.4112 24.8441 44.9101C24.8151 44.855 24.7914 44.7706 24.7914 44.7226C24.7914 44.6746 24.7652 44.6353 24.7331 44.6353C24.701 44.6353 24.6742 44.5898 24.6735 44.5343C24.6728 44.4788 24.6209 44.3684 24.5581 44.2891C24.4954 44.2098 24.4435 44.118 24.4428 44.0853C24.4403 43.9732 23.3959 43.03 23.1603 42.9272C23.031 42.8707 22.9251 42.8083 22.9251 42.7883C22.9251 42.7685 22.7922 42.7164 22.6298 42.6727C22.4674 42.6289 22.3215 42.5723 22.3056 42.5468C22.2897 42.5214 22.1879 42.5006 22.0795 42.5006C21.971 42.5006 21.866 42.4746 21.8462 42.4429C21.8257 42.4101 21.5345 42.3852 21.172 42.3852C20.7855 42.3852 20.5339 42.4079 20.5339 42.4429C20.5339 42.4746 20.4305 42.5006 20.3041 42.5006C20.1777 42.5006 20.058 42.5265 20.0382 42.5583C20.0184 42.59 19.9602 42.616 19.9089 42.616C19.7365 42.616 18.9546 43.0416 18.6945 43.277C18.5528 43.4053 18.4035 43.5388 18.3627 43.5737C18.195 43.7173 17.9095 44.0595 17.9095 44.1169C17.9095 44.1508 17.857 44.2343 17.7928 44.3024C17.7287 44.3705 17.6762 44.4733 17.6762 44.5308C17.6762 44.5883 17.65 44.6353 17.6179 44.6353C17.5858 44.6353 17.5596 44.6872 17.5596 44.7507C17.5596 44.8141 17.5389 44.8661 17.5137 44.8661C17.4885 44.8661 17.4198 45.0771 17.3609 45.3351C17.2127 45.9843 17.2507 46.9247 17.4479 47.4912C17.5252 47.7133 17.6082 47.9037 17.6323 47.9143C17.6565 47.9249 17.6762 47.9833 17.6762 48.0441C17.6762 48.105 17.7024 48.1547 17.7345 48.1547C17.7666 48.1547 17.7928 48.1936 17.7928 48.2412C17.7928 48.2888 17.8149 48.3278 17.8418 48.3278C17.8687 48.3278 17.922 48.3956 17.9602 48.4785C18.0372 48.6457 17.967 48.7893 17.8082 48.7893C17.7091 48.7893 17.1322 49.0842 17.1027 49.1499C17.092 49.1738 17.0519 49.1932 17.0135 49.1932C16.9752 49.1932 16.9059 49.2451 16.8597 49.3086C16.8135 49.3721 16.7477 49.424 16.7136 49.424C16.628 49.424 16.0432 50.017 16.0432 50.1037C16.0432 50.1424 15.9907 50.174 15.9266 50.174C15.8624 50.174 15.8099 50.1407 15.8099 50.0999C15.8099 50.0136 15.2218 49.424 15.1357 49.424C15.1037 49.424 15.0397 49.3721 14.9934 49.3086C14.9472 49.2451 14.8779 49.1932 14.8396 49.1932C14.8012 49.1932 14.7611 49.1738 14.7504 49.1499C14.7209 49.0842 14.144 48.7893 14.0449 48.7893C13.8874 48.7893 13.8101 48.6401 13.89 48.4901C13.9291 48.4167 13.9769 48.3436 13.9962 48.3278C14.0155 48.3119 14.0706 48.221 14.1186 48.1258C14.1666 48.0306 14.22 47.9398 14.2372 47.9239C14.2544 47.9081 14.3331 47.7005 14.4122 47.4628C14.6445 46.7645 14.6095 45.4112 14.3462 44.9101C14.3172 44.855 14.2936 44.7706 14.2936 44.7226C14.2936 44.6746 14.2673 44.6353 14.2352 44.6353C14.2032 44.6353 14.1763 44.5898 14.1756 44.5343C14.1749 44.4788 14.123 44.3684 14.0603 44.2891C13.9975 44.2098 13.9456 44.118 13.9449 44.0853C13.9425 43.9732 12.898 43.03 12.6625 42.9272C12.5331 42.8707 12.4273 42.8083 12.4273 42.7883C12.4273 42.7685 12.2944 42.7164 12.132 42.6727C11.9696 42.6289 11.8236 42.5723 11.8078 42.5468C11.7919 42.5214 11.6901 42.5006 11.5816 42.5006C11.4731 42.5006 11.3682 42.4746 11.3483 42.4429C11.3279 42.4101 11.0367 42.3852 10.6742 42.3852C10.2877 42.3852 10.0361 42.4079 10.0361 42.4429ZM52.0275 42.4429C52.0275 42.4746 51.9241 42.5006 51.7976 42.5006C51.6712 42.5006 51.5516 42.5265 51.5318 42.5583C51.5119 42.59 51.4537 42.616 51.4024 42.616C51.2301 42.616 50.4481 43.0416 50.188 43.277C50.0463 43.4053 49.897 43.5388 49.8562 43.5737C49.6885 43.7173 49.403 44.0595 49.403 44.1169C49.403 44.1508 49.3505 44.2343 49.2864 44.3024C49.2222 44.3705 49.1697 44.4733 49.1697 44.5308C49.1697 44.5883 49.1435 44.6353 49.1114 44.6353C49.0793 44.6353 49.0531 44.6872 49.0531 44.7507C49.0531 44.8141 49.0324 44.8661 49.0073 44.8661C48.9821 44.8661 48.9133 45.0771 48.8544 45.3351C48.7063 45.9843 48.7442 46.9247 48.9414 47.4912C49.0187 47.7133 49.1017 47.9037 49.1259 47.9143C49.15 47.9249 49.1697 47.9833 49.1697 48.0441C49.1697 48.105 49.196 48.1547 49.2281 48.1547C49.2601 48.1547 49.2864 48.1936 49.2864 48.2412C49.2864 48.2888 49.3084 48.3278 49.3353 48.3278C49.3623 48.3278 49.4156 48.3956 49.4537 48.4785C49.5307 48.6456 49.4605 48.7893 49.3019 48.7893C49.1811 48.7893 48.4702 49.1754 48.358 49.302C48.3073 49.3591 48.2355 49.4165 48.1987 49.4294C48.1093 49.4606 47.5368 49.9943 47.5366 50.0465C47.5365 50.0691 47.4585 50.1777 47.3632 50.288C47.1647 50.5178 46.7786 51.2806 46.7786 51.443C46.7786 51.5029 46.7551 51.5663 46.7264 51.5838C46.6977 51.6014 46.6548 51.7262 46.6311 51.8613C46.5606 52.2622 46.534 58.2514 46.6026 58.2514C46.6352 58.2514 46.6619 58.2915 46.6619 58.3405C46.6619 58.4559 46.9217 58.7129 47.0384 58.7129C47.088 58.7129 47.1285 58.7389 47.1285 58.7706C47.1285 58.8087 49.0142 58.8283 52.669 58.8283C56.3238 58.8283 58.2095 58.8087 58.2095 58.7706C58.2095 58.7389 58.2501 58.7129 58.2997 58.7129C58.4164 58.7129 58.6761 58.4559 58.6761 58.3405C58.6761 58.2915 58.7028 58.2514 58.7354 58.2514C58.8041 58.2514 58.7774 52.2622 58.707 51.8613C58.6832 51.7262 58.6403 51.6014 58.6116 51.5838C58.5829 51.5663 58.5595 51.5055 58.5595 51.4488C58.5595 51.3169 58.1459 50.4875 57.9669 50.2606C57.8043 50.0543 57.1878 49.4403 56.9878 49.2855C56.7803 49.1247 56.137 48.7893 56.0361 48.7893C55.8788 48.7893 55.8015 48.64 55.8814 48.4901C55.9205 48.4167 55.9683 48.3436 55.9876 48.3278C56.0069 48.3119 56.062 48.221 56.11 48.1258C56.158 48.0306 56.2113 47.9398 56.2286 47.9239C56.2458 47.9081 56.3245 47.7005 56.4036 47.4628C56.6359 46.7645 56.6009 45.4112 56.3376 44.9101C56.3086 44.855 56.2849 44.7706 56.2849 44.7226C56.2849 44.6746 56.2587 44.6353 56.2266 44.6353C56.1945 44.6353 56.1677 44.5898 56.167 44.5343C56.1663 44.4788 56.1144 44.3684 56.0517 44.2891C55.9889 44.2098 55.937 44.118 55.9363 44.0853C55.9338 43.9732 54.8894 43.03 54.6539 42.9272C54.5245 42.8707 54.4187 42.8083 54.4187 42.7883C54.4187 42.7685 54.2858 42.7164 54.1234 42.6727C53.961 42.6289 53.815 42.5723 53.7992 42.5468C53.7832 42.5214 53.6815 42.5006 53.573 42.5006C53.4645 42.5006 53.3595 42.4746 53.3397 42.4429C53.3192 42.4101 53.028 42.3852 52.6656 42.3852C52.2791 42.3852 52.0275 42.4079 52.0275 42.4429ZM11.1734 44.1737C11.1932 44.2055 11.2596 44.2314 11.3209 44.2314C11.4476 44.2314 11.7767 44.4024 12.0773 44.6246C12.3686 44.8397 12.4273 44.9037 12.4273 45.0062C12.4273 45.0561 12.4506 45.0969 12.4792 45.0969C12.5077 45.0969 12.5923 45.2202 12.6672 45.3709C12.7849 45.6077 12.8036 45.7327 12.8048 46.2911C12.8059 46.7329 12.7833 46.9601 12.7335 47.0094C12.6934 47.0491 12.6606 47.1234 12.6606 47.1745C12.6606 47.2257 12.6147 47.3178 12.5585 47.3793C12.5023 47.4409 12.4223 47.5561 12.3806 47.6354C12.2625 47.8601 11.5466 48.3278 11.3209 48.3278C11.2596 48.3278 11.1932 48.3537 11.1734 48.3855C11.1535 48.4172 10.9305 48.4432 10.6776 48.4432C10.4248 48.4432 10.2017 48.4172 10.1819 48.3855C10.1621 48.3537 10.0687 48.3278 9.97434 48.3278C9.87997 48.3278 9.80281 48.3018 9.80281 48.2701C9.80281 48.2384 9.77429 48.2124 9.73948 48.2124C9.62219 48.2124 9.04988 47.781 8.97401 47.6354C8.93266 47.5561 8.85293 47.4409 8.79677 47.3793C8.74061 47.3178 8.69471 47.2257 8.69471 47.1745C8.69471 47.1234 8.66193 47.0491 8.62181 47.0094C8.57194 46.9601 8.54937 46.7329 8.55042 46.2911C8.5517 45.7327 8.57037 45.6077 8.68806 45.3709C8.76294 45.2202 8.84757 45.0969 8.87609 45.0969C8.90466 45.0969 8.92799 45.0544 8.92799 45.0026C8.92799 44.8702 9.57635 44.3468 9.74041 44.3468C9.77476 44.3468 9.80281 44.3208 9.80281 44.2891C9.80281 44.2574 9.87997 44.2314 9.97434 44.2314C10.0687 44.2314 10.1621 44.2055 10.1819 44.1737C10.2017 44.142 10.4248 44.116 10.6776 44.116C10.9305 44.116 11.1535 44.142 11.1734 44.1737ZM21.6712 44.1737C21.691 44.2055 21.7574 44.2314 21.8187 44.2314C21.9454 44.2314 22.2745 44.4024 22.5752 44.6246C22.8665 44.8397 22.9251 44.9037 22.9251 45.0062C22.9251 45.0561 22.9485 45.0969 22.977 45.0969C23.0055 45.0969 23.0902 45.2202 23.1651 45.3709C23.2827 45.6077 23.3014 45.7327 23.3027 46.2911C23.3037 46.7329 23.2812 46.9601 23.2313 47.0094C23.1912 47.0491 23.1584 47.1234 23.1584 47.1745C23.1584 47.2257 23.1124 47.3178 23.0563 47.3793C23.0002 47.4409 22.9202 47.5561 22.8785 47.6354C22.7604 47.8601 22.0445 48.3278 21.8187 48.3278C21.7574 48.3278 21.691 48.3537 21.6712 48.3855C21.6514 48.4172 21.4283 48.4432 21.1755 48.4432C20.9227 48.4432 20.6996 48.4172 20.6797 48.3855C20.6599 48.3537 20.5665 48.3278 20.4722 48.3278C20.3778 48.3278 20.3007 48.3018 20.3007 48.2701C20.3007 48.2384 20.2721 48.2124 20.2373 48.2124C20.12 48.2124 19.5477 47.781 19.4719 47.6354C19.4305 47.5561 19.3507 47.4409 19.2946 47.3793C19.2385 47.3178 19.1926 47.2257 19.1926 47.1745C19.1926 47.1234 19.1598 47.0491 19.1197 47.0094C19.0698 46.9601 19.0472 46.7329 19.0483 46.2911C19.0495 45.7327 19.0682 45.6077 19.1859 45.3709C19.2608 45.2202 19.3454 45.0969 19.3739 45.0969C19.4025 45.0969 19.4258 45.0544 19.4258 45.0026C19.4258 44.8702 20.0742 44.3468 20.2383 44.3468C20.2726 44.3468 20.3007 44.3208 20.3007 44.2891C20.3007 44.2574 20.3778 44.2314 20.4722 44.2314C20.5665 44.2314 20.6599 44.2055 20.6797 44.1737C20.6996 44.142 20.9227 44.116 21.1755 44.116C21.4283 44.116 21.6514 44.142 21.6712 44.1737ZM53.1648 44.1737C53.1846 44.2055 53.251 44.2314 53.3122 44.2314C53.439 44.2314 53.7681 44.4024 54.0687 44.6246C54.36 44.8397 54.4187 44.9037 54.4187 45.0062C54.4187 45.0561 54.442 45.0969 54.4706 45.0969C54.4991 45.0969 54.5837 45.2202 54.6586 45.3709C54.7763 45.6077 54.795 45.7327 54.7962 46.2911C54.7973 46.7329 54.7747 46.9601 54.7248 47.0094C54.6848 47.0491 54.6519 47.1234 54.6519 47.1745C54.6519 47.2257 54.606 47.3178 54.5499 47.3793C54.4938 47.4409 54.4137 47.5561 54.372 47.6354C54.2539 47.8601 53.538 48.3278 53.3122 48.3278C53.251 48.3278 53.1846 48.3537 53.1648 48.3855C53.1449 48.4172 52.9218 48.4432 52.669 48.4432C52.4162 48.4432 52.1931 48.4172 52.1733 48.3855C52.1535 48.3537 52.0601 48.3278 51.9657 48.3278C51.8714 48.3278 51.7942 48.3018 51.7942 48.2701C51.7942 48.2384 51.7657 48.2124 51.7309 48.2124C51.6136 48.2124 51.0413 47.781 50.9654 47.6354C50.924 47.5561 50.8443 47.4409 50.7882 47.3793C50.7321 47.3178 50.6861 47.2257 50.6861 47.1745C50.6861 47.1234 50.6533 47.0491 50.6132 47.0094C50.5633 46.9601 50.5408 46.7329 50.5418 46.2911C50.5431 45.7327 50.5618 45.6077 50.6794 45.3709C50.7543 45.2202 50.839 45.0969 50.8675 45.0969C50.8961 45.0969 50.9194 45.0544 50.9194 45.0026C50.9194 44.8702 51.5677 44.3468 51.7318 44.3468C51.7661 44.3468 51.7942 44.3208 51.7942 44.2891C51.7942 44.2574 51.8714 44.2314 51.9657 44.2314C52.0601 44.2314 52.1535 44.2055 52.1733 44.1737C52.1931 44.142 52.4162 44.116 52.669 44.116C52.9218 44.116 53.1449 44.142 53.1648 44.1737ZM12.9522 50.2317C12.9522 50.2635 13.0194 50.2894 13.1016 50.2894C13.3639 50.2894 13.8964 50.5957 14.2609 50.9564C14.6255 51.317 14.9351 51.8437 14.9351 52.1032C14.9351 52.1845 14.9613 52.2511 14.9934 52.2511C15.0314 52.2511 15.0517 53.0973 15.0517 54.6743V57.0975H10.6776H6.30353V54.6743C6.30353 53.0973 6.32388 52.2511 6.36185 52.2511C6.39393 52.2511 6.42017 52.1845 6.42017 52.1032C6.42017 51.8437 6.7298 51.317 7.09437 50.9564C7.45888 50.5957 7.99135 50.2894 8.25362 50.2894C8.33586 50.2894 8.4031 50.2635 8.4031 50.2317C8.4031 50.1942 9.20018 50.174 10.6776 50.174C12.1551 50.174 12.9522 50.1942 12.9522 50.2317ZM23.45 50.2317C23.45 50.2635 23.5173 50.2894 23.5995 50.2894C23.8618 50.2894 24.3942 50.5957 24.7587 50.9564C25.1233 51.317 25.4329 51.8437 25.4329 52.1032C25.4329 52.1845 25.4592 52.2511 25.4913 52.2511C25.5292 52.2511 25.5496 53.0973 25.5496 54.6743V57.0975H21.1755H16.8014V54.6743C16.8014 53.0973 16.8217 52.2511 16.8597 52.2511C16.8918 52.2511 16.918 52.1845 16.918 52.1032C16.918 51.8437 17.2276 51.317 17.5922 50.9564C17.9567 50.5957 18.4892 50.2894 18.7515 50.2894C18.8337 50.2894 18.9009 50.2635 18.9009 50.2317C18.9009 50.1942 19.698 50.174 21.1755 50.174C22.6529 50.174 23.45 50.1942 23.45 50.2317ZM54.9436 50.2317C54.9436 50.2635 55.0108 50.2894 55.093 50.2894C55.3553 50.2894 55.8878 50.5957 56.2523 50.9564C56.6169 51.317 56.9265 51.8437 56.9265 52.1032C56.9265 52.1845 56.9527 52.2511 56.9848 52.2511C57.0228 52.2511 57.0431 53.0973 57.0431 54.6743V57.0975H52.669H48.2949V54.6743C48.2949 53.0973 48.3153 52.2511 48.3532 52.2511C48.3853 52.2511 48.4116 52.1845 48.4116 52.1032C48.4116 51.8437 48.7212 51.317 49.0858 50.9564C49.4503 50.5957 49.9827 50.2894 50.245 50.2894C50.3272 50.2894 50.3945 50.2635 50.3945 50.2317C50.3945 50.1942 51.1916 50.174 52.669 50.174C54.1465 50.174 54.9436 50.1942 54.9436 50.2317Z" stroke="#F3F3F3" stroke-width="0.8" mask="url(#path-1-outside-1_931_1658)"/>
</svg>
