<svg width="32" height="35" viewBox="0 0 32 35" fill="none" xmlns="http://www.w3.org/2000/svg">
<path d="M23.7402 18.9986C22.8679 18.9986 22.1607 19.7057 22.1607 20.578C22.1607 21.4503 22.8679 22.1575 23.7402 22.1575V18.9986ZM24.2961 20.578L24.2966 18.9986H24.2961V20.578ZM28.9965 24.7288L27.4293 24.9246L27.4293 24.9249L28.9965 24.7288ZM29.614 29.6629L31.1813 29.4671L31.1812 29.4668L29.614 29.6629ZM26.4789 33.2135L26.4792 31.634H26.4789V33.2135ZM5.20715 33.2135V31.634H5.20681L5.20715 33.2135ZM2.07199 29.6629L3.63923 29.8588L3.63925 29.8586L2.07199 29.6629ZM2.68796 24.7288L1.12073 24.5329L1.1207 24.5331L2.68796 24.7288ZM7.3915 20.578L7.39089 22.1575H7.3915V20.578ZM7.94588 22.1575C8.81817 22.1575 9.52531 21.4503 9.52531 20.578C9.52531 19.7057 8.81817 18.9986 7.94588 18.9986V22.1575ZM22.1607 9.52205C22.1607 13.0112 19.3322 15.8398 15.843 15.8398V18.9986C21.0768 18.9986 25.3196 14.7558 25.3196 9.52205H22.1607ZM15.843 15.8398C12.3538 15.8398 9.52531 13.0112 9.52531 9.52205H6.36645C6.36645 14.7558 10.6093 18.9986 15.843 18.9986V15.8398ZM9.52531 9.52205C9.52531 6.03287 12.3538 3.20434 15.843 3.20434V0.0454807C10.6093 0.0454807 6.36645 4.28828 6.36645 9.52205H9.52531ZM15.843 3.20434C19.3322 3.20434 22.1607 6.03287 22.1607 9.52205H25.3196C25.3196 4.28828 21.0768 0.0454807 15.843 0.0454807V3.20434ZM23.7402 22.1575H24.2961V18.9986H23.7402V22.1575ZM24.2957 22.1575C25.0655 22.1577 25.8087 22.439 26.3857 22.9485L28.4766 20.5807C27.3226 19.5617 25.8361 18.999 24.2966 18.9986L24.2957 22.1575ZM26.3857 22.9485C26.9627 23.4581 27.3338 24.1608 27.4293 24.9246L30.5637 24.5329C30.3728 23.0052 29.6306 21.5998 28.4766 20.5807L26.3857 22.9485ZM27.4293 24.9249L28.0468 29.8591L31.1812 29.4668L30.5637 24.5326L27.4293 24.9249ZM28.0468 29.8588C28.0746 30.081 28.0548 30.3066 27.9887 30.5206L31.0069 31.4527C31.2052 30.8106 31.2646 30.1338 31.1813 29.4671L28.0468 29.8588ZM27.9887 30.5206C27.9226 30.7346 27.8118 30.9321 27.6635 31.1L30.0314 33.1909C30.4761 32.6872 30.8087 32.0947 31.0069 31.4527L27.9887 30.5206ZM27.6635 31.1C27.5153 31.2679 27.333 31.4024 27.1288 31.4944L28.4273 34.3741C29.0398 34.0979 29.5866 33.6945 30.0314 33.1909L27.6635 31.1ZM27.1288 31.4944C26.9246 31.5865 26.7032 31.6341 26.4792 31.634L26.4785 34.7929C27.1505 34.793 27.8147 34.6503 28.4273 34.3741L27.1288 31.4944ZM26.4789 31.634H5.20715V34.7929H26.4789V31.634ZM5.20681 31.634C4.98283 31.6341 4.7614 31.5865 4.55722 31.4944L3.25875 34.3741C3.87129 34.6503 4.53556 34.793 5.20749 34.7929L5.20681 31.634ZM4.55722 31.4944C4.35304 31.4024 4.17078 31.2679 4.02253 31.1L1.65467 33.1909C2.09942 33.6945 2.64621 34.0979 3.25875 34.3741L4.55722 31.4944ZM4.02253 31.1C3.87428 30.9321 3.76344 30.7346 3.69735 30.5206L0.679128 31.4527C0.877384 32.0947 1.20992 32.6872 1.65467 33.1909L4.02253 31.1ZM3.69735 30.5206C3.63127 30.3066 3.61145 30.081 3.63923 29.8588L0.504749 29.4671C0.421429 30.1338 0.480871 30.8106 0.679128 31.4527L3.69735 30.5206ZM3.63925 29.8586L4.25523 24.9244L1.1207 24.5331L0.504725 29.4673L3.63925 29.8586ZM4.2552 24.9246C4.3507 24.1604 4.7221 23.4574 5.29955 22.9478L3.20943 20.5793C2.05452 21.5985 1.31172 23.0045 1.12073 24.5329L4.2552 24.9246ZM5.29955 22.9478C5.87701 22.4382 6.62074 22.1572 7.39089 22.1575L7.39211 18.9986C5.8518 18.998 4.36434 19.5602 3.20943 20.5793L5.29955 22.9478ZM7.3915 22.1575H7.94588V18.9986H7.3915V22.1575Z" fill="white"/>
</svg>
