<svg width="64" height="64" viewBox="0 0 64 64" fill="none" xmlns="http://www.w3.org/2000/svg">
<path d="M53.3335 18.6667H50.1095C50.5006 17.3701 50.6886 16.0208 50.6668 14.6667C50.6668 9.52004 46.4802 5.33337 41.3335 5.33337C37.0082 5.33337 34.1202 9.28537 32.2562 13.56C30.4188 9.52004 27.3842 5.33337 22.6668 5.33337C17.5202 5.33337 13.3335 9.52004 13.3335 14.6667C13.3335 16.256 13.5442 17.5707 13.8908 18.6667H10.6668C7.7255 18.6667 5.3335 21.0587 5.3335 24V29.3334C5.3335 32.2747 7.7255 34.6667 10.6668 34.6667V53.3334C10.6668 56.2747 13.0588 58.6667 16.0002 58.6667H48.0002C50.9415 58.6667 53.3335 56.2747 53.3335 53.3334V34.6667C56.2748 34.6667 58.6668 32.2747 58.6668 29.3334V24C58.6668 21.0587 56.2748 18.6667 53.3335 18.6667ZM41.3335 10.6667C43.5388 10.6667 45.3335 12.4614 45.3335 14.6667C45.3335 18.6667 43.6642 18.6667 42.6668 18.6667H36.0588C37.4215 14.464 39.4002 10.6667 41.3335 10.6667ZM18.6668 14.6667C18.6668 12.4614 20.4615 10.6667 22.6668 10.6667C25.0348 10.6667 27.2375 14.7334 28.5282 18.6667H21.3335C20.3362 18.6667 18.6668 18.6667 18.6668 14.6667ZM10.6668 24H29.3335V29.3334H10.6668V24ZM16.0002 53.3334V34.6667H29.3335V53.3334H16.0002ZM48.0002 53.3334H34.6668V34.6667H48.0002V53.3334ZM34.6668 29.3334V24.2267L34.7122 24H53.3335L53.3362 29.3334H34.6668Z" fill="#F3F3F3"/>
</svg>
