<svg width="30" height="7" viewBox="0 0 30 7" fill="none" xmlns="http://www.w3.org/2000/svg">
<path d="M29.3755 3.73083C29.5321 3.57422 29.5321 3.32031 29.3755 3.16371L26.8235 0.611662C26.6669 0.455056 26.413 0.455056 26.2564 0.611662C26.0998 0.768268 26.0998 1.02218 26.2564 1.17878L28.5248 3.44727L26.2564 5.71575C26.0998 5.87236 26.0998 6.12627 26.2564 6.28287C26.413 6.43948 26.6669 6.43948 26.8235 6.28287L29.3755 3.73083ZM0.218872 3.84828L29.092 3.84828L29.092 3.04625L0.218872 3.04625L0.218872 3.84828Z" fill="white"/>
<path d="M22.9593 3.73083C23.1159 3.57422 23.1159 3.32031 22.9593 3.16371L20.4072 0.61166C20.2506 0.455054 19.9967 0.455054 19.8401 0.61166C19.6835 0.768266 19.6835 1.02217 19.8401 1.17878L22.1086 3.44727L19.8401 5.71575C19.6835 5.87236 19.6835 6.12627 19.8401 6.28287C19.9967 6.43948 20.2506 6.43948 20.4072 6.28287L22.9593 3.73083ZM0.218872 3.84828L22.6757 3.84828V3.04625L0.218872 3.04625L0.218872 3.84828Z" fill="white"/>
</svg>
