<svg width="32" height="40" viewBox="0 0 32 40" fill="none" xmlns="http://www.w3.org/2000/svg">
<path d="M31.4405 0.963387C31.6036 1.07314 31.7373 1.2216 31.8299 1.39565C31.9224 1.56971 31.971 1.76401 31.9712 1.96141V19.998C31.9712 20.2381 31.8996 20.4727 31.7658 20.6716C31.632 20.8705 31.4421 21.0245 31.2205 21.1138L30.7759 19.998L31.2205 21.1138L31.2134 21.1162L31.199 21.1235L31.144 21.1451C30.8297 21.2708 30.5133 21.391 30.195 21.5058C29.5638 21.7343 28.6865 22.0421 27.692 22.3475C25.7412 22.9536 23.1999 23.6053 21.2133 23.6053C19.1884 23.6053 17.5126 22.9319 16.0543 22.3427L15.9874 22.3187C14.4717 21.7054 13.1807 21.2004 11.6507 21.2004C9.97727 21.2004 7.73485 21.7535 5.82472 22.3475C4.96948 22.6157 4.12205 22.9084 3.28347 23.2253V38.0345C3.28347 38.3535 3.15753 38.6593 2.93337 38.8848C2.7092 39.1103 2.40516 39.237 2.08814 39.237C1.77113 39.237 1.46709 39.1103 1.24292 38.8848C1.01876 38.6593 0.892822 38.3535 0.892822 38.0345V1.96141C0.892822 1.6425 1.01876 1.33666 1.24292 1.11116C1.46709 0.885657 1.77113 0.758972 2.08814 0.758972C2.40516 0.758972 2.7092 0.885657 2.93337 1.11116C3.15753 1.33666 3.28347 1.6425 3.28347 1.96141V2.63958C3.82375 2.4496 4.46923 2.23076 5.17208 2.01432C7.12284 1.4131 9.66649 0.758972 11.6507 0.758972C13.6589 0.758972 15.2941 1.42512 16.7213 2.0071L16.8241 2.05039C18.3111 2.65401 19.6068 3.16385 21.2133 3.16385C22.8868 3.16385 25.1292 2.61073 27.0393 2.01672C28.1278 1.67478 29.2035 1.29295 30.2643 0.872001L30.3097 0.855167L30.3193 0.850357H30.3217M29.5806 3.69533C29.0546 3.88291 28.4331 4.09694 27.7493 4.30857C25.8129 4.9146 23.274 5.56632 21.2133 5.56632C19.0952 5.56632 17.4074 4.87852 15.9467 4.28211L15.9276 4.2749C14.4287 3.66887 13.1783 3.16385 11.6507 3.16385C10.0514 3.16385 7.81135 3.71456 5.87732 4.31338C5.00499 4.58413 4.14006 4.87843 3.28347 5.19597V20.6665C3.80941 20.479 4.43098 20.2649 5.1147 20.0533C7.05112 19.4449 9.58999 18.7955 11.6507 18.7955C13.6756 18.7955 15.3514 19.4689 16.8097 20.0581L16.8767 20.0821C18.3923 20.6954 19.6833 21.2004 21.2133 21.2004C22.8103 21.2004 25.0527 20.6497 26.9867 20.0509C27.859 19.7801 28.724 19.4858 29.5806 19.1683V3.69773V3.69533Z" fill="white"/>
</svg>
