<svg width="25" height="35" viewBox="0 0 25 35" fill="none" xmlns="http://www.w3.org/2000/svg">
<path d="M22.3697 34.4334H2.73812C2.0875 34.4327 1.4637 34.174 1.00364 33.7139C0.543578 33.2538 0.284829 32.63 0.28418 31.9794V2.53207C0.284829 1.88144 0.543578 1.25765 1.00364 0.797586C1.4637 0.337523 2.0875 0.0787747 2.73812 0.078125H22.3697C23.0203 0.0787747 23.6441 0.337523 24.1042 0.797586C24.5642 1.25765 24.823 1.88144 24.8236 2.53207V22.9219L18.6888 19.8545L12.5539 22.9219V2.53207H2.73812V31.9794H22.3697V27.0715H24.8236V31.9794C24.8227 32.6299 24.5638 33.2535 24.1038 33.7135C23.6438 34.1735 23.0202 34.4324 22.3697 34.4334ZM18.6888 17.111L22.3697 18.9514V2.53207H15.0078V18.9514L18.6888 17.111Z" fill="white"/>
</svg>
