<svg width="300" height="45" viewBox="0 0 300 45" fill="none" xmlns="http://www.w3.org/2000/svg">
<path fill-rule="evenodd" clip-rule="evenodd" d="M140.863 16.0603C134.075 21.0273 132.386 22.0042 130.588 22.0042C129.244 22.0042 127.768 21.5194 126.655 20.7121C125.674 20.0014 124.239 19.4199 123.466 19.4199C122.692 19.4199 121.428 20.0014 120.658 20.7121L119.255 22.0042H103.445C90.6921 22.0042 87.4369 21.8616 86.6156 21.2656C86.0553 20.8599 85.5969 20.3988 85.5969 20.2422C85.5969 20.0851 92.7346 19.8939 101.459 19.8174C111.582 19.7285 117.258 19.4912 117.145 19.1615C117.037 18.8441 110.373 18.5449 99.8659 18.3862L82.7637 18.1278L78.1055 14.8431C73.9955 11.9456 73.3011 11.6396 72.2146 12.2438C71.5367 12.6206 69.3387 14.1567 67.3304 15.6577L63.6796 18.3862H46.1211C30.9893 18.3862 28.5633 18.4932 28.5633 19.1615C28.5633 19.8277 30.8211 19.9368 44.604 19.9368C53.4264 19.9368 60.6447 20.1228 60.6447 20.3503C60.6447 20.5777 60.2597 21.0429 59.7892 21.384C59.1753 21.829 54.4572 22.0042 43.0676 22.0042H27.2023L25.42 20.7121C24.4398 20.0014 23.026 19.4199 22.2796 19.4199C21.5325 19.4199 20.3184 20.0014 19.5826 20.7121C18.5603 21.6987 17.595 22.0042 15.4976 22.0042C13.5563 22.0042 12.3907 21.6817 11.5231 20.9049C10.6334 20.1084 9.86554 19.9042 8.73485 20.1647C7.8765 20.3621 6.867 20.9395 6.49201 21.4481C5.98441 22.136 6.17404 22.656 7.23344 23.4804C8.01623 24.0897 9.08632 24.5885 9.61174 24.5885C10.1365 24.5885 10.9763 24.2298 11.4782 23.7915C12.1098 23.24 13.4487 23.0291 15.8248 23.1077C18.4163 23.1935 19.6154 23.5191 20.714 24.4355C21.8426 25.3762 22.4614 25.5364 23.4652 25.1472C24.1767 24.8712 25.1734 24.2836 25.6795 23.8417C26.463 23.1568 28.8827 23.0457 42.0175 23.0896C50.4984 23.118 58.215 23.2984 59.1661 23.4912C60.1171 23.684 61.0261 24.1259 61.1858 24.4738C61.4089 24.9591 57.6704 25.1054 45.0196 25.1054C34.524 25.1054 28.5633 25.2925 28.5633 25.6222C28.5633 25.9468 34.0727 26.181 43.3564 26.2507C51.4922 26.3122 59.4598 26.3738 61.061 26.3872C63.6568 26.4089 64.4652 26.7635 68.5082 29.6491L73.0431 32.8867L77.558 29.6419L82.0729 26.3975L98.6283 26.2699C107.733 26.1991 115.744 26.1412 116.431 26.1406C117.117 26.1396 117.678 25.9065 117.678 25.6222C117.678 25.2925 111.737 25.1054 101.281 25.1054C92.2627 25.1054 84.8839 24.9012 84.8839 24.6516C84.8839 24.4024 85.2853 23.9745 85.7751 23.7011C86.2684 23.4261 93.9138 23.1465 102.913 23.0751L119.16 22.9459L121.512 24.2469L123.864 25.5473L125.583 24.4045C126.639 23.7031 128.403 23.2111 130.154 23.1299C132.816 23.0069 133.362 23.2462 138.353 26.7257C141.294 28.7756 145.071 31.378 146.748 32.5089L149.795 34.5644L153.224 31.9021C155.11 30.4383 157.046 29.2403 157.526 29.2403C158.006 29.2403 158.236 29.049 158.037 28.8154C157.837 28.5813 159.562 27.1857 161.868 25.7142C165.38 23.4731 166.511 23.0379 168.826 23.0379C170.606 23.0379 172.137 23.4065 173.122 24.0717C173.963 24.6402 175.067 25.1002 175.573 25.094C176.08 25.0878 177.296 24.6278 178.276 24.0717C179.919 23.1403 181.273 23.0602 195.518 23.0493C204.021 23.0431 211.801 23.2648 212.807 23.5419C213.813 23.8194 214.635 24.2846 214.635 24.5756C214.635 24.9219 208.958 25.1054 198.238 25.1054C187.782 25.1054 181.841 25.2925 181.841 25.6222C181.841 25.953 188.192 26.1391 199.468 26.1391H217.095L221.816 29.5359L226.538 32.9327L231.363 29.5359L236.188 26.1391H253.174C263.728 26.1391 270.326 25.9432 270.6 25.6222C270.888 25.2832 265.379 25.1054 254.601 25.1054C245.56 25.1054 238.162 24.9012 238.162 24.6516C238.162 24.4024 238.587 23.9424 239.106 23.6303C239.727 23.256 245.721 23.0472 256.658 23.0183C272.494 22.9764 273.339 23.024 274.831 24.0401C275.691 24.6257 276.674 25.1054 277.016 25.1054C277.357 25.1054 278.315 24.6438 279.142 24.0799C280.136 23.4039 281.77 23.0235 283.938 22.964C286.183 22.9025 287.604 23.146 288.411 23.731C289.061 24.2029 289.835 24.5885 290.131 24.5885C290.427 24.5885 291.368 24.0489 292.223 23.3894L293.777 22.1898L291.998 20.9782C290.382 19.8773 290.105 19.8391 288.964 20.5591C288.274 20.9948 286.379 21.4729 284.753 21.6212C282.199 21.8548 281.484 21.6838 279.489 20.3632L277.181 18.8348L274.96 20.3658L272.738 21.8972L256.555 21.8218C245.332 21.769 240.117 21.5618 239.543 21.1447C239.086 20.8144 238.929 20.2908 239.193 19.9817C239.514 19.6049 244.831 19.4199 255.356 19.4199C265.63 19.4199 270.888 19.2416 270.6 18.9031C270.326 18.5816 263.702 18.3862 253.096 18.3862H236.034L231.361 14.9486L226.689 11.5104L224.118 13.2688C222.703 14.2353 220.66 15.7244 219.577 16.5772L217.606 18.1278L199.724 18.2823C189.039 18.3743 181.841 18.6348 181.841 18.9284C181.841 19.2235 187.706 19.4199 196.503 19.4199C205.381 19.4199 211.717 19.6339 212.564 19.9626C213.333 20.2614 213.774 20.7265 213.544 20.9963C213.299 21.2837 206.288 21.4874 196.659 21.4874H180.193L177.825 20.1776L175.457 18.8684L173.886 20.1776C172.632 21.2238 171.661 21.4863 169.058 21.4832C165.862 21.4786 165.651 21.37 158.005 15.7978C153.718 12.6728 149.934 10.1164 149.598 10.1164C149.261 10.1164 145.331 12.7912 140.863 16.0603ZM160.16 20.9204C159.537 21.4191 159.028 22.0998 159.028 22.4327C159.028 22.7655 159.358 23.0379 159.763 23.0379C160.168 23.0379 160.67 23.3625 160.88 23.759C161.109 24.1905 159.137 26.0548 155.961 28.4107C153.046 30.5727 150.343 32.3414 149.954 32.3414C149.565 32.3414 146.8 30.5505 143.811 28.3621C138.683 24.6076 138.432 24.3192 139.388 23.2617C140.253 22.305 140.256 21.9908 139.415 21.1199C138.508 20.1802 138.878 19.7585 144.058 15.8324L149.688 11.5662L155.489 15.79C160.888 19.7192 161.213 20.0763 160.16 20.9204ZM230.854 16.527C232.52 17.6678 233.884 18.8736 233.884 19.2059C233.884 19.5383 233.394 20.1053 232.794 20.466C231.896 21.0067 231.425 20.9452 230.121 20.1172C229.249 19.5646 228.03 18.8369 227.41 18.5004C226.515 18.0135 226.001 18.0714 224.906 18.7831C224.149 19.2757 222.971 19.9978 222.29 20.3875C221.297 20.9565 220.84 20.9695 219.982 20.4536C219.394 20.0996 218.913 19.4396 218.913 18.9868C218.913 18.534 220.415 17.0573 222.251 15.7058C225.006 13.6781 225.786 13.3535 226.707 13.8502C227.322 14.1815 229.188 15.3858 230.854 16.527ZM78.0919 17.2331C80.7797 19.407 80.8559 19.56 79.5919 20.2298C78.4249 20.849 78.0028 20.7787 76.1706 19.6613C75.0214 18.9599 73.6084 18.3862 73.0317 18.3862C72.4549 18.3862 71.2579 18.9976 70.3717 19.7445C68.916 20.9715 68.6087 21.0346 67.1971 20.3957C66.3381 20.0065 65.6351 19.4675 65.6351 19.1977C65.6351 18.9279 67.2805 17.6047 69.291 16.2578C72.2624 14.2668 73.1628 13.9143 74.1032 14.3748C74.7391 14.687 76.5342 15.973 78.0919 17.2331ZM146.286 19.5264C144.676 20.7472 143.355 21.9691 143.351 22.242C143.347 22.5144 144.849 23.7398 146.689 24.9648L150.036 27.1919L153.105 25.0072C154.794 23.806 156.176 22.5216 156.176 22.1536C156.176 21.7856 154.854 20.6128 153.238 19.5476C151.622 18.4823 150.055 17.5427 149.757 17.4589C149.458 17.3752 147.897 18.3056 146.286 19.5264ZM218.2 21.2124C218.2 21.6269 217.551 21.7711 216.402 21.6119C215.008 21.4186 214.779 21.2093 215.385 20.6805C215.814 20.3053 216.623 20.1254 217.183 20.281C217.742 20.4371 218.2 20.8557 218.2 21.2124ZM64.9222 21.2289C65.6722 21.8843 65.5239 22.0042 63.9626 22.0042C62.6138 22.0042 62.2259 21.7949 62.5254 21.2289C62.7513 20.8025 63.1834 20.4536 63.4857 20.4536C63.7872 20.4536 64.4338 20.8025 64.9222 21.2289ZM83.4581 21.2289C84.2081 21.8843 84.0598 22.0042 82.4985 22.0042C81.1497 22.0042 80.7618 21.7949 81.0613 21.2289C81.2873 20.8025 81.7193 20.4536 82.0216 20.4536C82.3231 20.4536 82.9697 20.8025 83.4581 21.2289ZM236.736 20.9705C236.736 21.2548 235.853 21.4837 234.775 21.4796C233.248 21.4734 233.051 21.3607 233.884 20.9705C234.472 20.695 235.355 20.466 235.845 20.4614C236.335 20.4572 236.736 20.6862 236.736 20.9705ZM64.9222 23.4995C64.9222 23.7533 64.4509 24.0923 63.8756 24.252C63.3003 24.4123 62.6672 24.3533 62.469 24.1213C62.2716 23.8892 62.3143 23.5501 62.5653 23.3682C62.8162 23.1868 63.4486 23.0379 63.9719 23.0379C64.4944 23.0379 64.9222 23.2457 64.9222 23.4995ZM218.2 23.5548C218.2 23.8391 217.558 24.0717 216.774 24.0717C215.99 24.0717 215.348 23.8391 215.348 23.5548C215.348 23.2705 215.99 23.0379 216.774 23.0379C217.558 23.0379 218.2 23.2705 218.2 23.5548ZM236.736 23.5548C236.736 23.8391 236.255 24.0717 235.666 24.0717C235.078 24.0717 234.597 23.8391 234.597 23.5548C234.597 23.2705 235.078 23.0379 235.666 23.0379C236.255 23.0379 236.736 23.2705 236.736 23.5548ZM70.7168 25.0909C72.3437 26.2182 73.2448 26.5061 74.1046 26.1722C74.7484 25.9225 75.8634 25.247 76.582 24.6712C77.3006 24.0954 78.3151 23.7429 78.8362 23.8882C79.3567 24.0329 79.9612 24.4877 80.1787 24.8986C80.3961 25.3095 79.9762 26.0791 79.2447 26.6094C78.514 27.1392 77.6385 27.8985 77.3006 28.296C76.962 28.6934 75.745 29.5426 74.5958 30.1825L72.5055 31.3454L68.7648 28.6676C65.1553 26.0828 65.0633 25.9468 66.1249 24.772C66.7301 24.1027 67.5115 23.5548 67.8623 23.5548C68.213 23.5548 69.4977 24.2458 70.7168 25.0909ZM83.2207 23.8995C82.9591 24.0887 82.5313 24.0887 82.2697 23.8995C82.0087 23.7099 82.2226 23.5548 82.7452 23.5548C83.2677 23.5548 83.4816 23.7099 83.2207 23.8995ZM224.376 25.3974C224.592 25.8052 225.278 26.1391 225.901 26.1391C226.524 26.1391 227.914 25.5277 228.991 24.7798C230.178 23.9548 231.391 23.5439 232.075 23.7341C232.696 23.9068 233.386 24.3921 233.608 24.8128C233.866 25.2987 232.524 26.6151 229.929 28.4226L225.845 31.2674L222.087 28.574L218.328 25.8807L219.788 24.7379C220.945 23.8323 221.533 23.7052 222.616 24.1254C223.369 24.4174 224.161 24.9896 224.376 25.3974ZM79.8935 26.9144C79.8935 27.0565 79.7331 27.1728 79.537 27.1728C79.341 27.1728 79.1806 27.0565 79.1806 26.9144C79.1806 26.7722 79.341 26.656 79.537 26.656C79.7331 26.656 79.8935 26.7722 79.8935 26.9144Z" fill="white"/>
</svg>
