<svg width="96" height="96" viewBox="0 0 96 96" fill="none" xmlns="http://www.w3.org/2000/svg">
<g clip-path="url(#clip0_207_602)">
<path d="M26.0801 34.8799C28.488 34.8799 30.4404 36.8306 30.4404 39.2363V74.084C30.4404 76.4898 28.488 78.4395 26.0801 78.4395H21.7197C19.312 78.4392 17.3604 76.4896 17.3604 74.084V39.2363C17.3604 36.8307 19.312 34.8801 21.7197 34.8799H26.0801Z" fill="white"/>
<path d="M47.9199 34.8799C50.3279 34.8799 52.2803 36.8306 52.2803 39.2363V41.4141C52.2803 41.4141 54.4599 34.88 63.1797 34.8799C71.8997 34.8799 78.4404 39.2362 78.4404 47.9482V74.084C78.4404 76.4897 76.488 78.4394 74.0801 78.4395H69.7197C67.3119 78.4393 65.3605 76.4915 65.3604 74.0859V52.3037C65.3602 43.5921 52.2809 47.9477 52.2803 54.4814V74.084C52.2802 76.4898 50.3279 78.4395 47.9199 78.4395H43.5596C41.1518 78.4392 39.2002 76.4896 39.2002 74.084V39.2363C39.2002 36.8307 41.1517 34.8801 43.5596 34.8799H47.9199Z" fill="white"/>
<path d="M23.9004 17.3604C27.5121 17.3605 30.4402 20.2878 30.4404 23.8994C30.4404 27.5113 27.5122 30.4393 23.9004 30.4395C20.2884 30.4395 17.3604 27.5114 17.3604 23.8994C17.3606 20.2877 20.2886 17.3604 23.9004 17.3604Z" fill="white"/>
<path fill-rule="evenodd" clip-rule="evenodd" d="M82.8691 -0.0400391C90.0992 -0.0399924 95.9599 5.82096 95.96 13.0508V82.8691C95.9599 90.0992 90.0992 95.9599 82.8691 95.96H13.0508C5.82096 95.9599 -0.0399924 90.0992 -0.0400391 82.8691V13.0508C-0.0399909 5.82096 5.82096 -0.0399909 13.0508 -0.0400391H82.8691ZM13.0508 8.6875C10.6409 8.68755 8.68755 10.6409 8.6875 13.0508V82.8691C8.68755 85.2791 10.6409 87.2324 13.0508 87.2324H82.8691C85.2791 87.2324 87.2324 85.2791 87.2324 82.8691V13.0508C87.2324 10.6409 85.2791 8.68755 82.8691 8.6875H13.0508Z" fill="white"/>
</g>
<defs>
<clipPath id="clip0_207_602">
<rect width="96" height="96" fill="white"/>
</clipPath>
</defs>
</svg>
