<svg width="96" height="96" viewBox="0 0 96 96" fill="none" xmlns="http://www.w3.org/2000/svg">
<g clip-path="url(#clip0_207_600)">
<path d="M73.4993 17.6731C70.2862 17.6731 67.8764 20.0829 67.8764 23.296C67.8764 26.5091 70.2862 28.9189 73.4993 28.9189C76.7123 28.9189 79.1222 26.5091 79.1222 23.296C79.1222 20.0829 76.7123 17.6731 73.4993 17.6731Z" fill="white"/>
<path d="M48.1962 24.9025C34.9423 24.9025 24.4997 35.7467 24.4997 48.599C24.4997 61.4513 35.3439 72.2955 48.1962 72.2955C61.0486 72.2955 71.8927 61.4513 71.8927 48.599C71.8927 35.7467 61.4502 24.9025 48.1962 24.9025ZM48.1962 63.8611C39.7619 63.8611 32.9341 57.0333 32.9341 48.599C32.9341 40.1647 39.7619 33.3369 48.1962 33.3369C56.6306 33.3369 63.4584 40.1647 63.4584 48.599C63.4584 57.0333 56.6306 63.8611 48.1962 63.8611Z" fill="white"/>
<path d="M67.4747 0.000976562H29.3194C12.8523 0.000976562 0 12.8533 0 28.9187V67.0741C0 83.1395 12.8523 95.9918 28.9177 95.9918H67.0731C83.1385 95.9918 95.9908 83.1395 95.9908 67.0741V28.9187C96.3925 12.8533 83.5401 0.000976562 67.4747 0.000976562ZM87.1549 67.4757C87.1549 78.3199 78.3189 87.5575 67.0731 87.5575H28.9177C18.0736 87.5575 8.83598 78.7215 8.83598 67.4757V29.3204C8.83598 18.4762 17.672 9.23859 28.9177 9.23859H67.0731C77.9173 9.23859 87.1549 18.0746 87.1549 29.3204V67.4757Z" fill="white"/>
</g>
<defs>
<clipPath id="clip0_207_600">
<rect width="96" height="96" fill="white"/>
</clipPath>
</defs>
</svg>
