<svg width="40" height="44" viewBox="0 0 40 44" fill="none" xmlns="http://www.w3.org/2000/svg">
<path d="M26.1088 29.2593L38.2758 14.5206C39.7078 12.786 39.6349 10.3611 38.113 9.10497L37.6476 8.72088C36.1257 7.46446 33.731 7.85235 32.2991 9.58703L31.1392 10.992C31.0189 10.6942 30.8327 10.4261 30.5755 10.2138L30.3364 10.0164C29.4121 9.25348 27.9578 9.48882 27.0884 10.5424L24.0693 14.1994C23.8982 14.0791 23.7241 13.9655 23.5471 13.858L24.4009 12.8237C24.9999 12.098 24.9696 11.0835 24.3328 10.558L24.2479 10.4878C23.6111 9.96235 22.6093 10.1244 22.0103 10.8501L20.5076 12.6702C19.9048 12.5466 19.2891 12.4785 18.6671 12.465L20.775 9.91158C21.6447 8.858 21.6003 7.3857 20.676 6.62274L20.4369 6.42536C19.5126 5.6624 18.0583 5.89798 17.1889 6.95132L9.09099 16.7611C8.91851 16.9699 8.78376 17.1955 8.68293 17.4285C4.65771 22.527 4.93076 29.516 9.35099 33.1649C13.8402 36.8708 20.9035 35.7271 25.1276 30.6104C25.4877 30.1741 25.8132 29.7219 26.1088 29.2593Z" fill="#D0ACFF"/>
<path d="M27.2895 8.44054C28.1458 8.44054 28.8401 7.74631 28.8401 6.88995C28.8401 6.03358 28.1458 5.33936 27.2895 5.33936C26.4331 5.33936 25.7389 6.03358 25.7389 6.88995C25.7389 7.74631 26.4331 8.44054 27.2895 8.44054Z" fill="#D0ACFF"/>
<path d="M32.899 1.90937C32.0283 2.96419 32.1609 4.5114 33.1952 5.36518C34.2295 6.21896 35.7739 6.056 36.6446 5.00119C37.5153 3.94637 37.3827 2.39915 36.3484 1.54537C35.3141 0.691586 33.7698 0.85456 32.899 1.90937Z" fill="#D0ACFF"/>
<g filter="url(#filter0_di_207_594)">
<path d="M16.7059 8.2351C17.2775 8.16418 17.9673 8.32489 18.2838 9.00692C18.3336 9.11417 18.3524 9.23455 18.3618 9.30505C18.373 9.39013 18.3791 9.47966 18.3825 9.55647C18.3861 9.63456 18.3872 9.70659 18.3875 9.75869C18.3876 9.78491 18.3875 9.80655 18.3874 9.82191C18.3873 9.82881 18.3873 9.83447 18.3872 9.83874L18.4065 25.111L33.2587 22.9897L33.2652 22.9888L33.2718 22.988L33.3258 23.4594C33.274 23.0079 33.2718 22.9889 33.2718 22.988H33.2719L33.2722 22.988C33.2723 22.988 33.2725 22.988 33.2727 22.988C33.2732 22.9879 33.2738 22.9878 33.2746 22.9877C33.2761 22.9876 33.2783 22.9873 33.2809 22.987C33.2864 22.9864 33.2941 22.9855 33.3039 22.9845C33.3234 22.9824 33.3511 22.9796 33.3848 22.9764C33.4519 22.97 33.5443 22.962 33.6439 22.9558C33.7423 22.9496 33.8538 22.9448 33.9574 22.9459C34.0456 22.9469 34.1807 22.9516 34.2976 22.986C35.0164 23.1979 35.2581 23.8435 35.2495 24.4104C35.241 24.9685 35.006 25.5729 34.634 26.0013L20.4801 42.3025C20.1247 42.7119 19.6227 43.0365 19.1077 43.1188C18.8443 43.1608 18.5587 43.1416 18.2933 43.013C18.0227 42.882 17.8134 42.6565 17.6785 42.359C17.6477 42.2912 17.6322 42.2131 17.6272 42.1894C17.6181 42.1457 17.6089 42.0944 17.6 42.0413C17.5822 41.9344 17.563 41.8039 17.5457 41.6798C17.5282 41.5551 17.5122 41.4336 17.5006 41.3435C17.4947 41.2985 17.4899 41.2611 17.4866 41.235C17.485 41.2219 17.4837 41.2116 17.4828 41.2045C17.4824 41.201 17.482 41.1983 17.4818 41.1965C17.4817 41.1956 17.4816 41.1948 17.4815 41.1943C17.4815 41.1941 17.4815 41.1939 17.4815 41.1937V41.1936L17.4778 41.1647V41.1357L17.4589 26.2049L2.25942 28.3759L2.25024 28.3773L2.24105 28.3782L2.24089 28.3782H2.24017C2.23978 28.3783 2.23925 28.3783 2.23864 28.3784C2.23736 28.3785 2.23552 28.3787 2.23332 28.379C2.22891 28.3794 2.22267 28.38 2.21488 28.3807C2.19925 28.3822 2.17708 28.3842 2.15021 28.3864C2.09676 28.3909 2.02287 28.3963 1.9426 28.4001C1.8634 28.4039 1.77211 28.4064 1.68546 28.404C1.61108 28.402 1.49553 28.3959 1.39104 28.3652L1.39087 28.3651C0.686191 28.1574 0.41724 27.5288 0.402099 26.96C0.387181 26.3993 0.600895 25.7858 0.980241 25.3488L0.980563 25.3484L15.1603 9.04703C15.542 8.60772 16.1367 8.30573 16.7059 8.2351Z" fill="url(#paint0_linear_207_594)"/>
<path d="M33.2718 22.988L33.2652 22.9888L33.2587 22.9897L18.4065 25.111L18.3872 9.83874C18.3873 9.83447 18.3873 9.82881 18.3874 9.82191C18.3875 9.80655 18.3876 9.78491 18.3875 9.75869C18.3872 9.70659 18.3861 9.63456 18.3825 9.55647C18.3791 9.47966 18.373 9.39013 18.3618 9.30505C18.3524 9.23455 18.3336 9.11417 18.2838 9.00692C17.9673 8.32489 17.2775 8.16418 16.7059 8.2351C16.1367 8.30573 15.542 8.60772 15.1603 9.04703L0.980563 25.3484L0.980241 25.3488C0.600895 25.7858 0.387181 26.3993 0.402099 26.96C0.41724 27.5288 0.686191 28.1574 1.39087 28.3651L1.39104 28.3652C1.49553 28.3959 1.61108 28.402 1.68546 28.404C1.77211 28.4064 1.8634 28.4039 1.9426 28.4001C2.02287 28.3963 2.09676 28.3909 2.15021 28.3865C2.17708 28.3842 2.19925 28.3822 2.21488 28.3807C2.22267 28.38 2.22891 28.3794 2.23332 28.379C2.23552 28.3787 2.23736 28.3785 2.23864 28.3784C2.23925 28.3783 2.23978 28.3783 2.24017 28.3782H2.24089L2.24105 28.3782M33.2718 22.988L33.3258 23.4594C33.274 23.0079 33.2718 22.9889 33.2718 22.988ZM33.2718 22.988H33.2719L33.2722 22.988C33.2723 22.988 33.2725 22.988 33.2727 22.988C33.2732 22.9879 33.2738 22.9878 33.2746 22.9877C33.2761 22.9876 33.2783 22.9873 33.2809 22.987C33.2864 22.9864 33.2941 22.9855 33.3039 22.9845C33.3234 22.9824 33.3511 22.9796 33.3848 22.9764C33.4519 22.97 33.5443 22.962 33.6439 22.9558C33.7423 22.9496 33.8538 22.9448 33.9574 22.9459C34.0456 22.9469 34.1807 22.9516 34.2976 22.986C35.0164 23.1979 35.2581 23.8435 35.2495 24.4104C35.241 24.9685 35.006 25.5729 34.634 26.0013L20.4801 42.3025C20.1247 42.7119 19.6227 43.0365 19.1077 43.1188C18.8443 43.1608 18.5587 43.1416 18.2933 43.013C18.0227 42.882 17.8134 42.6565 17.6785 42.359C17.6477 42.2912 17.6322 42.2131 17.6272 42.1894C17.6181 42.1457 17.6089 42.0944 17.6 42.0413C17.5822 41.9344 17.563 41.8039 17.5457 41.6798C17.5282 41.5551 17.5122 41.4336 17.5006 41.3435C17.4947 41.2985 17.4899 41.2611 17.4866 41.235C17.485 41.2219 17.4837 41.2116 17.4828 41.2045C17.4824 41.201 17.482 41.1983 17.4818 41.1965C17.4817 41.1956 17.4816 41.1948 17.4815 41.1943C17.4815 41.1941 17.4815 41.1939 17.4815 41.1937V41.1936M17.4815 41.1936L17.9523 41.1351M17.4815 41.1936L17.4778 41.1647V41.1357L17.4589 26.2049L2.25942 28.3759L2.25024 28.3773L2.24105 28.3782M2.24105 28.3782L2.19233 27.9062" stroke="#9638FF" stroke-width="0.0824651" stroke-miterlimit="10"/>
</g>
<g filter="url(#filter1_dii_207_594)">
<path d="M16.7059 3.72826C17.2775 3.65734 17.9673 3.81806 18.2838 4.50008C18.3336 4.60733 18.3524 4.7277 18.3618 4.79821C18.373 4.88329 18.3791 4.97282 18.3825 5.04964C18.3861 5.12772 18.3872 5.19976 18.3875 5.25185C18.3876 5.27807 18.3875 5.29971 18.3874 5.31507C18.3873 5.32196 18.3873 5.32764 18.3872 5.3319L18.4065 20.6042L33.2587 18.4829L33.2652 18.4819L33.2718 18.4812L33.3258 18.9526C33.2737 18.4982 33.2718 18.4818 33.2718 18.4812H33.2719L33.2721 18.4811C33.2722 18.4811 33.2725 18.4812 33.2727 18.4811C33.2732 18.4811 33.2738 18.481 33.2746 18.4809C33.2761 18.4807 33.2783 18.4805 33.2809 18.4802C33.2864 18.4796 33.2941 18.4787 33.3039 18.4777C33.3234 18.4756 33.3511 18.4728 33.3848 18.4695C33.4519 18.4631 33.5443 18.4551 33.6439 18.4489C33.7423 18.4428 33.8538 18.438 33.9574 18.4391C34.0456 18.44 34.1807 18.4448 34.2976 18.4792C35.0164 18.6911 35.2581 19.3367 35.2495 19.9036C35.241 20.4616 35.006 21.0661 34.634 21.4945L20.4801 37.7957C20.1247 38.2051 19.6227 38.5297 19.1077 38.612C18.8443 38.654 18.5587 38.6347 18.2933 38.5062C18.0227 38.3751 17.8134 38.1497 17.6784 37.8522C17.6477 37.7844 17.6322 37.7062 17.6272 37.6825C17.6181 37.6389 17.6089 37.5875 17.6 37.5345C17.5822 37.4276 17.563 37.2971 17.5457 37.173C17.5282 37.0482 17.5122 36.9267 17.5006 36.8367C17.4947 36.7916 17.4899 36.7543 17.4866 36.7281C17.485 36.7151 17.4837 36.7047 17.4828 36.6977C17.4824 36.6942 17.482 36.6915 17.4818 36.6896C17.4817 36.6887 17.4816 36.688 17.4815 36.6875C17.4815 36.6872 17.4815 36.687 17.4815 36.6869V36.6867L17.4778 36.6579V36.6288L17.4589 21.6981L2.25942 23.8691L2.25023 23.8704L2.24105 23.8713L2.24089 23.8714H2.24017C2.23978 23.8714 2.23925 23.8715 2.23864 23.8716C2.23735 23.8717 2.23552 23.8719 2.23332 23.8721C2.22891 23.8726 2.22267 23.8732 2.21488 23.8739C2.19924 23.8754 2.17708 23.8774 2.15021 23.8796C2.09676 23.884 2.02287 23.8895 1.9426 23.8933C1.8634 23.8971 1.77212 23.8995 1.68546 23.8972C1.61107 23.8952 1.49554 23.8891 1.39104 23.8584L1.39087 23.8583C0.686186 23.6506 0.417236 23.022 0.402099 22.4531C0.387187 21.8925 0.6009 21.2789 0.98024 20.8419L0.980562 20.8415L15.1603 4.54019C15.542 4.10089 16.1367 3.79889 16.7059 3.72826Z" fill="url(#paint1_linear_207_594)"/>
<path d="M33.2718 18.4812L33.2652 18.4819L33.2587 18.4829L18.4065 20.6042L18.3872 5.3319C18.3873 5.32764 18.3873 5.32196 18.3874 5.31507C18.3875 5.29971 18.3876 5.27807 18.3875 5.25185C18.3872 5.19976 18.3861 5.12772 18.3825 5.04964C18.3791 4.97282 18.373 4.88329 18.3618 4.79821C18.3524 4.7277 18.3336 4.60733 18.2838 4.50008C17.9673 3.81806 17.2775 3.65734 16.7059 3.72826C16.1367 3.79889 15.542 4.10089 15.1603 4.54019L0.980562 20.8415L0.98024 20.8419C0.6009 21.2789 0.387187 21.8925 0.402099 22.4531C0.417236 23.022 0.686186 23.6506 1.39087 23.8583L1.39104 23.8584C1.49554 23.8891 1.61107 23.8952 1.68546 23.8972C1.77212 23.8995 1.8634 23.8971 1.9426 23.8933C2.02287 23.8895 2.09676 23.884 2.15021 23.8796C2.17708 23.8774 2.19924 23.8754 2.21488 23.8739C2.22267 23.8732 2.22891 23.8726 2.23332 23.8721C2.23552 23.8719 2.23735 23.8717 2.23864 23.8716C2.23925 23.8715 2.23978 23.8714 2.24017 23.8714H2.24089L2.24105 23.8713M33.2718 18.4812L33.3258 18.9526C33.2737 18.4982 33.2718 18.4818 33.2718 18.4812ZM33.2718 18.4812H33.2719L33.2721 18.4811C33.2722 18.4811 33.2725 18.4812 33.2727 18.4811C33.2732 18.4811 33.2738 18.481 33.2746 18.4809C33.2761 18.4807 33.2783 18.4805 33.2809 18.4802C33.2864 18.4796 33.2941 18.4787 33.3039 18.4777C33.3234 18.4756 33.3511 18.4728 33.3848 18.4695C33.4519 18.4631 33.5443 18.4551 33.6439 18.4489C33.7423 18.4428 33.8538 18.438 33.9574 18.4391C34.0456 18.44 34.1807 18.4448 34.2976 18.4792C35.0164 18.6911 35.2581 19.3367 35.2495 19.9036C35.241 20.4616 35.006 21.0661 34.634 21.4945L20.4801 37.7957C20.1247 38.2051 19.6227 38.5297 19.1077 38.612C18.8443 38.654 18.5587 38.6347 18.2933 38.5062C18.0227 38.3751 17.8134 38.1497 17.6784 37.8522C17.6477 37.7844 17.6322 37.7062 17.6272 37.6825C17.6181 37.6389 17.6089 37.5875 17.6 37.5345C17.5822 37.4276 17.563 37.2971 17.5457 37.173C17.5282 37.0482 17.5122 36.9267 17.5006 36.8367C17.4947 36.7916 17.4899 36.7543 17.4866 36.7281C17.485 36.7151 17.4837 36.7047 17.4828 36.6977C17.4824 36.6942 17.482 36.6915 17.4818 36.6896C17.4817 36.6887 17.4816 36.688 17.4815 36.6875C17.4815 36.6872 17.4815 36.687 17.4815 36.6869V36.6867M17.4815 36.6867L17.9523 36.6283M17.4815 36.6867L17.4778 36.6579V36.6288L17.4589 21.6981L2.25942 23.8691L2.25023 23.8704L2.24105 23.8713M2.24105 23.8713L2.19233 23.3994" stroke="#D0ACFF" stroke-width="0.0824651" stroke-miterlimit="10"/>
</g>
<defs>
<filter id="filter0_di_207_594" x="-8.10623e-06" y="7.99865" width="35.6511" height="35.7217" filterUnits="userSpaceOnUse" color-interpolation-filters="sRGB">
<feFlood flood-opacity="0" result="BackgroundImageFix"/>
<feColorMatrix in="SourceAlpha" type="matrix" values="0 0 0 0 0 0 0 0 0 0 0 0 0 0 0 0 0 0 127 0" result="hardAlpha"/>
<feOffset dy="0.180058"/>
<feGaussianBlur stdDeviation="0.180058"/>
<feComposite in2="hardAlpha" operator="out"/>
<feColorMatrix type="matrix" values="0 0 0 0 0 0 0 0 0 0 0 0 0 0 0 0 0 0 0.25 0"/>
<feBlend mode="normal" in2="BackgroundImageFix" result="effect1_dropShadow_207_594"/>
<feBlend mode="normal" in="SourceGraphic" in2="effect1_dropShadow_207_594" result="shape"/>
<feColorMatrix in="SourceAlpha" type="matrix" values="0 0 0 0 0 0 0 0 0 0 0 0 0 0 0 0 0 0 127 0" result="hardAlpha"/>
<feOffset/>
<feGaussianBlur stdDeviation="0.180058"/>
<feComposite in2="hardAlpha" operator="arithmetic" k2="-1" k3="1"/>
<feColorMatrix type="matrix" values="0 0 0 0 1 0 0 0 0 1 0 0 0 0 1 0 0 0 1 0"/>
<feBlend mode="normal" in2="shape" result="effect2_innerShadow_207_594"/>
</filter>
<filter id="filter1_dii_207_594" x="-8.10623e-06" y="3.49182" width="35.6511" height="35.7217" filterUnits="userSpaceOnUse" color-interpolation-filters="sRGB">
<feFlood flood-opacity="0" result="BackgroundImageFix"/>
<feColorMatrix in="SourceAlpha" type="matrix" values="0 0 0 0 0 0 0 0 0 0 0 0 0 0 0 0 0 0 127 0" result="hardAlpha"/>
<feOffset dy="0.180058"/>
<feGaussianBlur stdDeviation="0.180058"/>
<feComposite in2="hardAlpha" operator="out"/>
<feColorMatrix type="matrix" values="0 0 0 0 0 0 0 0 0 0 0 0 0 0 0 0 0 0 0.5 0"/>
<feBlend mode="normal" in2="BackgroundImageFix" result="effect1_dropShadow_207_594"/>
<feBlend mode="normal" in="SourceGraphic" in2="effect1_dropShadow_207_594" result="shape"/>
<feColorMatrix in="SourceAlpha" type="matrix" values="0 0 0 0 0 0 0 0 0 0 0 0 0 0 0 0 0 0 127 0" result="hardAlpha"/>
<feOffset/>
<feGaussianBlur stdDeviation="2.16069"/>
<feComposite in2="hardAlpha" operator="arithmetic" k2="-1" k3="1"/>
<feColorMatrix type="matrix" values="0 0 0 0 1 0 0 0 0 1 0 0 0 0 1 0 0 0 0.5 0"/>
<feBlend mode="normal" in2="shape" result="effect2_innerShadow_207_594"/>
<feColorMatrix in="SourceAlpha" type="matrix" values="0 0 0 0 0 0 0 0 0 0 0 0 0 0 0 0 0 0 127 0" result="hardAlpha"/>
<feOffset/>
<feGaussianBlur stdDeviation="0.180058"/>
<feComposite in2="hardAlpha" operator="arithmetic" k2="-1" k3="1"/>
<feColorMatrix type="matrix" values="0 0 0 0 1 0 0 0 0 1 0 0 0 0 1 0 0 0 1 0"/>
<feBlend mode="normal" in2="effect2_innerShadow_207_594" result="effect3_innerShadow_207_594"/>
</filter>
<linearGradient id="paint0_linear_207_594" x1="17.8255" y1="8.21973" x2="17.8255" y2="43.1388" gradientUnits="userSpaceOnUse">
<stop stop-color="#9638FF"/>
<stop offset="0.403841" stop-color="#6618BB"/>
<stop offset="1" stop-color="#3E0672"/>
</linearGradient>
<linearGradient id="paint1_linear_207_594" x1="17.8255" y1="3.71289" x2="17.8255" y2="38.632" gradientUnits="userSpaceOnUse">
<stop stop-color="#D0ACFF"/>
<stop offset="0.403841" stop-color="#AF52FF"/>
<stop offset="1" stop-color="#9638FF"/>
</linearGradient>
</defs>
</svg>
