<svg width="472" height="183" viewBox="0 0 472 183" fill="none" xmlns="http://www.w3.org/2000/svg">
<path d="M458.512 15.112V43.292H423.056V15.112H410.396V86.144H423.056V54.268H458.512V86.144H471.186V15.112H458.512Z" fill="white"/>
<path d="M383.592 72.4187C376.204 78.3347 366.071 77.2787 359.851 73.6867C352.567 69.4654 348.554 59.5414 348.554 50.0467C348.554 43.0841 350.982 33.7934 358.792 28.4121C365.971 23.4521 375.675 24.5067 381.482 27.6734C384.96 29.5721 388.023 32.3161 389.712 35.6921L399.632 29.5721C397.31 25.2454 394.038 22.1827 390.134 19.3347C380.422 12.2641 363.755 12.5801 352.776 18.1747C342.118 23.7681 335.89 37.1694 335.89 50.0467C335.89 56.9054 337.158 63.2374 339.794 69.1481C345.492 82.0254 356.788 87.3027 370.502 87.3027C383.171 87.3027 394.147 81.5014 399.736 71.3667L389.395 65.6654C388.023 68.1974 386.124 70.5161 383.592 72.4187Z" fill="white"/>
<path d="M296.526 57.5385H284.495L296.526 24.8198V25.0331L308.556 57.5385H296.526ZM296.526 15.1118H288.824L260.854 86.1438H273.835L280.59 67.8798H296.526H312.144L319.428 86.1438H333.144L304.543 15.1118H296.526Z" fill="white"/>
<path d="M213.68 54.2676H248.717V43.9262H213.68V26.0876H254.735V15.1116H201.332V86.1436H254.843V75.1676H213.68V54.2676Z" fill="white"/>
<path fill-rule="evenodd" clip-rule="evenodd" d="M307.405 152.794C307.405 158.851 302.465 163.791 296.408 163.791V168.19C301.997 168.19 306.906 165.186 309.605 160.709V152.794H307.405ZM311.804 152.794C311.804 158.851 316.745 163.791 322.803 163.791V168.19C317.211 168.19 312.303 165.186 309.605 160.709V152.794H311.804ZM364.593 117.587C364.593 111.53 369.533 106.59 375.591 106.59V102.19C370.001 102.19 365.09 105.196 362.394 109.672V117.587H364.593ZM360.193 117.594H362.394V109.68C359.697 105.203 354.785 102.198 349.195 102.198V106.596C355.254 106.596 360.193 111.537 360.193 117.594ZM360.193 152.789C360.193 158.844 355.254 163.798 349.195 163.798V168.184C357.676 168.184 364.593 161.267 364.593 152.789H360.193ZM412.982 117.595H417.384C417.384 109.115 410.467 102.199 401.985 102.199V106.596C408.04 106.596 412.982 111.537 412.982 117.595ZM259.016 152.789H254.617C254.617 161.267 261.533 168.184 270.014 168.184V163.785C263.956 163.785 259.016 158.844 259.016 152.789ZM322.806 102.199C314.746 102.199 307.392 109.15 307.405 117.59H311.808C311.808 111.338 316.916 106.59 322.805 106.588C322.791 104.494 322.792 103.798 322.806 102.199ZM364.593 163.786V168.188H390.988V146.188H417.384V117.595H412.982V141.789H390.988V117.595H386.588V163.785L364.593 163.786ZM375.591 102.19L401.985 102.199V106.601L375.591 106.59V102.19ZM364.604 143.075L364.593 152.789H360.193V144.899L334.462 119.128L337.546 116.01L364.604 143.075ZM307.405 127.309L334.462 154.373L337.546 151.255L311.808 125.484V117.59H307.405V127.309ZM254.617 102.199H307.405V106.596H285.41V152.695H281.01V106.596H259.016V152.789H254.617V102.199ZM270.014 163.785H296.412V168.188H270.014V163.785ZM322.803 102.201L349.198 102.199V106.601L322.803 106.588V102.201ZM322.803 163.791L349.198 163.807V168.185L322.803 168.178L322.803 163.791Z" fill="white"/>
<path d="M134.453 97.7268C128.754 100.367 124.107 104.901 121.261 110.5C121.786 110.388 122.313 110.388 122.839 110.388C126.851 110.388 130.757 111.127 134.453 112.397C137.723 113.453 140.785 115.035 143.526 117.037C146.801 110.388 148.803 103.108 149.329 95.4068C148.277 95.2988 147.222 95.1948 146.058 95.1948C141.945 95.1948 138.039 96.1415 134.453 97.7268Z" fill="#F49C0E"/>
<path d="M134.453 61.8457C136.035 60.7897 137.724 59.843 139.517 58.9963C137.932 56.6723 136.247 54.5657 134.453 52.559C131.287 49.075 127.803 46.0137 123.899 43.3777C120.628 48.0203 118.617 53.615 118.617 59.735C118.617 65.2243 120.312 70.3937 123.056 74.723C125.8 69.655 129.705 65.2243 134.453 61.8457Z" fill="#F49C0E"/>
<path d="M126.96 29.8658C129.28 28.3938 131.812 27.1245 134.453 26.1725C138.249 24.8045 142.263 24.0632 146.484 24.0632H148.169C145.32 18.2592 140.464 13.5125 134.453 10.8725C130.969 9.39517 127.168 8.4485 123.155 8.4485C122.521 8.4485 121.996 8.5525 121.361 8.5525C124.953 14.1458 127.06 20.6872 127.06 27.8632C127.06 28.4978 126.96 29.2352 126.96 29.8658Z" fill="#F49C0E"/>
<path d="M143.421 65.7507C140.042 67.2267 136.984 69.4454 134.452 72.0827C129.809 76.9387 126.852 83.6894 126.852 91.0814C126.852 91.7107 126.852 92.3454 126.96 92.9747C129.28 91.4987 131.81 90.2334 134.452 89.3907C138.144 88.1227 142.053 87.3854 146.058 87.3854C147.221 87.3854 148.277 87.4894 149.329 87.5934C148.802 79.6801 146.8 72.4001 143.421 65.7507Z" fill="#F49C0E"/>
<path d="M154.711 55.513C159.144 55.513 163.371 56.3597 167.271 57.837C169.804 58.7837 172.128 59.9477 174.343 61.4237V59.7344C174.343 52.5597 171.705 46.1237 167.271 41.1584C164.948 38.417 161.993 36.2024 158.724 34.617C158.832 35.2517 158.832 35.781 158.832 36.4144C158.832 43.4824 156.721 50.0264 153.233 55.6224C153.659 55.513 154.184 55.513 154.711 55.513Z" fill="#F49C0E"/>
<path d="M134.452 34.5133C132.657 35.4599 130.968 36.5186 129.383 37.6799C131.18 38.9479 132.867 40.3159 134.452 41.6879C138.46 45.1719 142.052 49.1839 145.111 53.5106C148.803 48.7599 151.021 42.8519 151.021 36.4146C151.021 34.9333 150.913 33.5626 150.701 32.0853C149.328 31.9813 147.96 31.8759 146.483 31.8759C142.152 31.8759 138.144 32.8239 134.452 34.5133Z" fill="#F49C0E"/>
<path d="M178.142 75.9878C175.61 80.9478 171.809 85.2745 167.271 88.5438C165.794 89.5998 164.213 90.5518 162.527 91.3945C164.213 92.3452 165.794 93.2931 167.271 94.4571C171.705 97.6225 175.293 101.844 177.825 106.7C180.883 102.265 182.577 96.8798 182.577 91.0811C182.577 85.4825 180.991 80.3145 178.142 75.9878Z" fill="#F49C0E"/>
<path d="M167.271 115.982C168.96 115.139 170.646 114.084 172.022 112.924C170.967 109.97 169.278 107.33 167.271 105.006C164.53 101.735 161.043 99.0949 156.93 97.4083C156.296 104.902 154.396 112.186 151.335 118.731C152.499 118.935 153.55 118.935 154.711 118.935C159.252 118.935 163.579 117.88 167.271 115.982Z" fill="#F49C0E"/>
<path d="M134.453 130.445C136.35 128.33 138.039 126.114 139.621 123.791C138.039 122.631 136.246 121.577 134.453 120.733C130.865 119.147 126.959 118.205 122.839 118.205C117.249 118.205 111.971 119.89 107.645 122.741C114.715 126.327 120.519 132.343 123.789 139.626C127.694 136.986 131.286 133.925 134.453 130.445Z" fill="#F49C0E"/>
<path d="M154.711 126.749C154.084 126.749 153.343 126.749 152.708 126.64C156.404 132.235 158.405 138.888 158.405 146.063V148.067C161.785 146.381 164.847 144.053 167.271 141.1C171.497 136.248 173.916 129.916 173.916 123.053V121.155C171.809 122.419 169.595 123.585 167.271 124.429C163.371 125.905 159.144 126.749 154.711 126.749Z" fill="#F49C0E"/>
<path d="M167.271 78.0983C169.487 75.6716 171.28 72.9263 172.548 69.7596C170.967 68.3863 169.173 67.2276 167.271 66.2796C163.579 64.3783 159.252 63.3223 154.711 63.3223C153.445 63.3223 152.289 63.4316 151.021 63.5356C154.184 70.3943 156.296 77.6769 156.929 85.3783C160.937 83.7929 164.529 81.2609 167.271 78.0983Z" fill="#F49C0E"/>
<path d="M134.453 141.312C132.758 142.685 131.073 144.053 129.279 145.325C130.865 146.481 132.658 147.536 134.453 148.382C138.039 149.965 141.945 150.92 146.058 150.92C147.535 150.92 148.907 150.808 150.279 150.598C150.597 149.121 150.702 147.645 150.702 146.062C150.702 139.832 148.594 134.137 145.215 129.493C142.053 133.82 138.461 137.829 134.453 141.312Z" fill="#F49C0E"/>
<path d="M15.3017 66.2801C13.507 67.2268 11.8177 68.2828 10.3457 69.5508C11.5057 72.6094 13.191 75.2494 15.3017 77.6774C18.151 81.0521 21.743 83.6894 25.747 85.3788C26.4897 77.5694 28.4924 70.2881 31.663 63.6401C30.495 63.4308 29.1257 63.3228 27.8577 63.3228C23.319 63.3228 19.0977 64.3788 15.3017 66.2801Z" fill="#009ABE"/>
<path d="M48.4411 26.0691C51.0785 27.0198 53.5051 28.2851 55.8251 29.7611C55.7251 29.1318 55.7251 28.4971 55.7251 27.8624C55.7251 20.6878 57.8318 13.9304 61.5238 8.44776C60.8945 8.33976 60.2598 8.33976 59.6291 8.33976C55.6171 8.33976 51.8158 9.18643 48.4411 10.6624C42.3171 13.2998 37.3611 18.1558 34.5078 24.0638H36.4105C40.6318 24.0638 44.6411 24.8051 48.4411 26.0691Z" fill="#009ABE"/>
<path d="M4.64267 75.6713C1.68533 80.1007 0 85.378 0 91.0807C0 96.8807 1.79333 102.265 4.74667 106.699C7.28267 101.843 10.8707 97.622 15.3013 94.4567C16.7773 93.2927 18.468 92.2367 20.2653 91.2887C18.468 90.442 16.8867 89.3913 15.3013 88.2273C10.8707 84.9567 7.17467 80.6313 4.64267 75.6713Z" fill="#009ABE"/>
<path d="M15.3011 57.8366C19.2064 56.3606 23.4278 55.5126 27.8571 55.5126C28.4918 55.5126 29.1251 55.5126 29.6518 55.622C26.0638 50.0273 23.9531 43.378 23.9531 36.202V34.722C20.6824 36.4153 17.7291 38.734 15.3011 41.5846C11.0784 46.4353 8.55176 52.7726 8.55176 59.734C8.55176 60.1606 8.55176 60.686 8.65176 61.2113C10.6584 59.8433 12.8731 58.6793 15.3011 57.8366Z" fill="#009ABE"/>
<path d="M70.4959 29.0228C73.7665 27.9668 77.2492 27.1242 80.7372 26.4908C82.3145 26.2815 83.8999 26.0695 85.4799 25.9655C84.4252 23.0068 82.7399 20.3708 80.7372 18.0482C77.9879 14.7762 74.5039 12.2442 70.4959 10.5548C70.1825 10.4508 69.9665 10.3468 69.7572 10.2375C65.8532 14.9895 63.5332 21.1095 63.5332 27.8628C63.5332 29.1322 63.6372 30.3988 63.7412 31.7682C65.9612 30.7122 68.1719 29.8655 70.4959 29.0228Z" fill="#009ABE"/>
<path d="M91.3921 20.0533C93.9281 15.2013 97.6201 10.872 102.055 7.60133C103.636 6.54533 105.217 5.49067 106.903 4.648C105.325 3.69733 103.74 2.74533 102.055 2.112C98.7801 0.738666 95.1894 0 91.3921 0C87.5961 0 84.0041 0.738667 80.7374 2.00667C79.1521 2.74533 77.5668 3.592 75.9814 4.54C77.6708 5.38267 79.2534 6.44133 80.7374 7.49733C85.2681 10.768 88.8601 15.0933 91.3921 20.0533Z" fill="#009ABE"/>
<path d="M113.131 10.3464C108.804 12.0317 105.008 14.673 102.055 18.1557C100.044 20.4757 98.4627 23.1117 97.3027 25.965C98.8841 26.069 100.469 26.2824 102.055 26.4904C108.067 27.5464 113.66 29.2357 118.937 31.7677C119.151 30.3997 119.255 29.1317 119.255 27.8624C119.255 21.217 116.931 15.0944 113.131 10.3464Z" fill="#009ABE"/>
<path d="M48.441 41.584C50.0223 40.2107 51.7117 38.8387 53.505 37.6787C51.9197 36.4147 50.2343 35.356 48.441 34.5134C44.745 32.824 40.7317 31.876 36.4103 31.876C34.933 31.876 33.457 31.9814 32.0797 32.1894C31.8717 33.4574 31.7637 34.8294 31.7637 36.2027C31.7637 42.64 33.9823 48.6547 37.6783 53.4027C40.7317 49.076 44.4277 45.0667 48.441 41.584Z" fill="#009ABE"/>
<path d="M87.5956 33.5619C85.2676 33.7753 83.0569 33.9833 80.7369 34.4086C77.2503 35.0379 73.7663 36.0979 70.4956 37.3633C68.9143 37.8913 67.4329 38.6259 65.9609 39.2606C67.1209 41.7966 68.5969 44.2206 70.4956 46.2273C73.2369 49.3939 76.8289 51.9286 80.7369 53.6153C84.0036 54.9873 87.5956 55.7259 91.3916 55.7259C92.0249 55.7259 92.5516 55.7259 93.1849 55.6219C89.5969 50.1313 87.4876 43.4819 87.4876 36.4153C87.4876 35.4593 87.5956 34.5126 87.5956 33.5619Z" fill="#009ABE"/>
<path d="M95.4009 33.5619C95.2969 34.5125 95.2969 35.4592 95.2969 36.4152C95.2969 43.3779 97.8329 49.7099 102.054 54.5659C104.478 57.4112 107.54 59.7339 110.916 61.4232V59.7339C110.916 52.1352 113.238 45.1712 117.14 39.4725C112.5 37.1539 107.432 35.4592 102.054 34.4085C99.9395 33.9832 97.7249 33.7752 95.4009 33.5619Z" fill="#009ABE"/>
<path d="M48.441 70.0763C45.1704 69.0203 42.109 67.4403 39.3637 65.5416C36.093 72.1869 33.9824 79.4669 33.457 87.2763C34.4037 87.3843 35.4584 87.4896 36.4104 87.4896C40.7317 87.4896 44.745 86.5349 48.441 84.7443C54.1397 81.9989 58.7824 77.3603 61.5237 71.7669C60.8944 71.8736 60.2597 71.8736 59.629 71.8736C55.725 71.8736 51.9197 71.2403 48.441 70.0763Z" fill="#009ABE"/>
<path d="M59.204 43.1648C55.1946 45.8048 51.6026 48.9715 48.44 52.4555C46.5386 54.4621 44.852 56.5688 43.376 58.8915C44.9533 59.9475 46.6466 61.0035 48.44 61.7421C51.8146 63.2181 55.616 64.0648 59.628 64.0648C63.4253 64.0648 67.1213 63.3235 70.496 61.8461C72.0773 61.2115 73.5546 60.3688 74.9293 59.5261C73.3453 58.6795 71.8693 57.7315 70.496 56.6728C65.64 53.1941 61.736 48.5475 59.204 43.1648Z" fill="#009ABE"/>
<path d="M49.2837 108.915C53.297 104.059 55.725 97.8307 55.725 91.0814V89.6001C53.7143 90.8681 51.5037 91.9227 49.2837 92.8707C45.2703 94.3521 40.949 95.1947 36.409 95.1947C35.4583 95.1947 34.4023 95.1947 33.3477 95.0894C33.873 102.791 35.8837 110.071 39.0463 116.616C43.0597 114.931 46.5383 112.185 49.2837 108.915Z" fill="#48BDD7"/>
<path d="M49.283 119.573C47.2804 121.045 45.1697 122.319 42.8457 123.475C44.7444 126.327 46.959 128.967 49.283 131.496C52.2404 134.561 55.4057 137.303 58.8857 139.627C62.3697 134.979 64.375 129.281 64.375 123.052C64.375 117.249 62.5817 111.868 59.5204 107.437C57.0924 112.185 53.6124 116.299 49.283 119.573Z" fill="#48BDD7"/>
<path d="M8.65137 121.155V123.052C8.65137 133.924 14.8794 143.319 23.954 147.962V145.959C23.954 138.888 25.9634 132.235 29.5474 126.75H27.858C20.79 126.75 14.2487 124.642 8.65137 121.155Z" fill="#48BDD7"/>
<path d="M80.521 148.491C82.741 148.908 84.9517 149.226 87.1703 149.435C87.3797 148.279 87.4876 147.119 87.4876 145.959C87.4876 138.888 84.8463 132.451 80.521 127.484C78.201 124.851 75.2476 122.631 72.077 121.047C72.077 121.68 72.1863 122.319 72.1863 123.052C72.1863 130.654 69.7583 137.724 65.6396 143.527C70.2836 145.851 75.2476 147.536 80.521 148.491Z" fill="#48BDD7"/>
<path d="M95.0883 149.435C97.4083 149.226 99.623 149.022 101.838 148.592C107.22 147.646 112.288 145.959 117.039 143.527C114.187 136.774 108.7 131.392 101.838 128.647C98.6763 127.274 95.0883 126.54 91.3923 126.54C90.7577 126.54 90.1243 126.64 89.5977 126.64C93.1857 132.235 95.1897 138.78 95.1897 145.959C95.1897 147.119 95.1897 148.279 95.0883 149.435Z" fill="#48BDD7"/>
<path d="M10.5527 112.924C15.3007 116.724 21.3154 118.936 27.8581 118.936C29.0207 118.936 30.2847 118.936 31.4487 118.731C28.3861 112.081 26.3807 104.901 25.7474 97.3052C18.7834 100.259 13.2981 105.849 10.5527 112.924Z" fill="#48BDD7"/>
<path d="M91.1832 162.421C88.5432 167.377 84.9512 171.499 80.5205 174.769C79.0445 175.825 77.4592 176.767 75.8818 177.622C77.3592 178.566 78.8352 179.409 80.5205 180.15C83.7912 181.519 87.4885 182.362 91.3925 182.362C95.0885 182.362 98.6765 181.623 101.838 180.251C103.531 179.621 105.108 178.778 106.586 177.824C104.9 176.981 103.319 176.037 101.838 174.981C97.4072 171.704 93.7112 167.377 91.1832 162.421Z" fill="#48BDD7"/>
<path d="M146.058 158.725C139.091 158.725 132.55 156.615 126.959 153.131C127.059 153.556 127.059 153.975 127.059 154.503C127.059 161.683 124.953 168.332 121.261 173.927H122.838C133.71 173.927 143.105 167.701 147.643 158.624C147.117 158.725 146.587 158.725 146.058 158.725Z" fill="#48BDD7"/>
<path d="M101.838 156.51C100.361 156.718 98.7806 156.931 97.1992 157.039C98.3579 159.78 99.9405 162.312 101.838 164.427C104.899 167.802 108.597 170.543 112.918 172.128C116.827 167.276 119.255 161.152 119.255 154.503C119.255 153.343 119.15 152.287 119.042 151.232C113.661 153.764 107.962 155.559 101.838 156.51Z" fill="#48BDD7"/>
<path d="M55.7242 153.03C53.7136 154.398 51.6029 155.458 49.2829 156.3C45.3789 157.878 41.0482 158.724 36.5136 158.724C35.8842 158.724 35.3496 158.724 34.8242 158.624C37.8856 164.636 43.0589 169.387 49.2829 171.815C52.4536 173.083 55.9322 173.814 59.5202 173.814C60.1549 173.814 60.7882 173.712 61.4189 173.712C57.8309 168.119 55.7242 161.574 55.7242 154.502V153.03Z" fill="#48BDD7"/>
<path d="M80.5212 164.319C82.4225 162.104 84.0039 159.676 85.1639 157.039C83.5825 156.827 81.9972 156.718 80.5212 156.402C74.6105 155.458 68.9145 153.66 63.6372 151.232C63.5332 152.288 63.5332 153.344 63.5332 154.503C63.5332 161.052 65.8532 167.164 69.6532 171.916C73.8705 170.23 77.5679 167.59 80.5212 164.319Z" fill="#48BDD7"/>
<path d="M49.2834 147.858C50.7594 147.119 52.1328 146.169 53.4008 145.221C51.9194 144.27 50.6554 143.21 49.2834 142.154C44.7448 138.358 40.7314 133.925 37.3608 129.069C33.7688 133.821 31.6621 139.626 31.6621 145.959C31.6621 147.535 31.8701 149.022 32.0794 150.598C33.5568 150.807 35.0328 150.919 36.5141 150.919C41.1568 150.919 45.4861 149.755 49.2834 147.858Z" fill="#48BDD7"/>
</svg>
