<svg width="472" height="128" viewBox="0 0 472 128" fill="none" xmlns="http://www.w3.org/2000/svg">
<g clip-path="url(#clip0_416_7994)">
<g filter="url(#filter0_di_416_7994)">
<mask id="path-1-inside-1_416_7994" fill="white">
<path d="M43.9324 126.102C38.4833 126.102 33.0874 125.029 28.0531 122.944C23.0187 120.858 18.4444 117.802 14.5912 113.949L43.9324 84.6077L43.9324 126.102Z"/>
</mask>
<path d="M43.9324 126.102C38.4833 126.102 33.0874 125.029 28.0531 122.944C23.0187 120.858 18.4444 117.802 14.5912 113.949L43.9324 84.6077L43.9324 126.102Z" fill="url(#paint0_linear_416_7994)" stroke="#D0ACFF" stroke-width="0.5" mask="url(#path-1-inside-1_416_7994)"/>
<mask id="path-2-inside-2_416_7994" fill="white">
<path d="M43.9343 2.18769C49.3834 2.18769 54.7793 3.26099 59.8136 5.34629C64.848 7.4316 69.4223 10.4881 73.2755 14.3412L43.9343 43.6824L43.9343 2.18769Z"/>
</mask>
<path d="M43.9343 2.18769C49.3834 2.18769 54.7793 3.26099 59.8136 5.34629C64.848 7.4316 69.4223 10.4881 73.2755 14.3412L43.9343 43.6824L43.9343 2.18769Z" fill="url(#paint1_linear_416_7994)" stroke="#D0ACFF" stroke-width="0.5" mask="url(#path-2-inside-2_416_7994)"/>
<g filter="url(#filter1_i_416_7994)">
<path d="M43.9336 43.1141C49.3828 43.1141 54.7786 44.1875 59.813 46.2728C64.8474 48.3581 69.4218 51.4145 73.2749 55.2676C77.128 59.1208 80.1845 63.6952 82.2698 68.7296C84.3551 73.7639 85.4285 79.1598 85.4285 84.6089C85.4285 90.0581 84.3551 95.4538 82.2698 100.488C80.1845 105.522 77.128 110.097 73.2749 113.95C69.4218 117.803 64.8474 120.86 59.813 122.945C54.7786 125.03 49.3828 126.104 43.9336 126.104V85.1773C38.4845 85.1773 33.0888 84.1039 28.0544 82.0186C23.0201 79.9333 18.4457 76.8769 14.5925 73.0237C10.7394 69.1706 7.68296 64.5962 5.59766 59.5618C3.51236 54.5275 2.43896 49.1316 2.43896 43.6824C2.43898 38.2333 3.51238 32.8376 5.59766 27.8033C7.68296 22.7689 10.7394 18.1945 14.5925 14.3414C18.4457 10.4882 23.0201 7.4318 28.0544 5.3465C33.0888 3.26122 38.4845 2.18782 43.9336 2.18781V43.1141Z" fill="url(#paint2_linear_416_7994)"/>
</g>
<path d="M44.1841 84.9271H43.9341C38.5178 84.927 33.1539 83.8601 28.1499 81.7874C23.146 79.7147 18.5989 76.6768 14.769 72.847C10.9392 69.0171 7.90133 64.4701 5.82861 59.4661C3.75595 54.4622 2.68903 49.0991 2.68896 43.6829C2.68898 38.2666 3.7559 32.9027 5.82861 27.8987C7.90136 22.8948 10.9392 18.3478 14.769 14.5179C18.5989 10.688 23.1459 7.65019 28.1499 5.57745C33.077 3.53657 38.3527 2.473 43.6841 2.44073V43.3646H43.9341C49.3502 43.3646 54.7134 44.4315 59.7173 46.5042C64.7213 48.577 69.2683 51.6148 73.0981 55.4446C76.928 59.2745 79.9659 63.8215 82.0386 68.8255C84.1112 73.8294 85.1782 79.1925 85.1782 84.6087C85.1782 90.025 84.1113 95.3889 82.0386 100.393C79.9659 105.397 76.9278 109.943 73.0981 113.773C69.2682 117.603 64.7213 120.641 59.7173 122.714C54.7904 124.755 49.5152 125.818 44.1841 125.85V84.9271Z" stroke="white" stroke-width="0.5"/>
</g>
<g filter="url(#filter2_di_416_7994)">
<mask id="path-5-inside-3_416_7994" fill="white">
<path d="M136.932 126.102C131.483 126.102 126.087 125.029 121.053 122.944C116.019 120.858 111.444 117.802 107.591 113.949L136.932 84.6077L136.932 126.102Z"/>
</mask>
<path d="M136.932 126.102C131.483 126.102 126.087 125.029 121.053 122.944C116.019 120.858 111.444 117.802 107.591 113.949L136.932 84.6077L136.932 126.102Z" fill="url(#paint3_linear_416_7994)" stroke="#D0ACFF" stroke-width="0.5" mask="url(#path-5-inside-3_416_7994)"/>
<mask id="path-6-inside-4_416_7994" fill="white">
<path d="M136.934 2.18769C142.383 2.18769 147.779 3.26099 152.814 5.34629C157.848 7.4316 162.422 10.4881 166.275 14.3412L136.934 43.6824L136.934 2.18769Z"/>
</mask>
<path d="M136.934 2.18769C142.383 2.18769 147.779 3.26099 152.814 5.34629C157.848 7.4316 162.422 10.4881 166.275 14.3412L136.934 43.6824L136.934 2.18769Z" fill="url(#paint4_linear_416_7994)" stroke="#D0ACFF" stroke-width="0.5" mask="url(#path-6-inside-4_416_7994)"/>
<g filter="url(#filter3_i_416_7994)">
<path d="M136.934 43.1141C142.383 43.1141 147.779 44.1875 152.813 46.2728C157.847 48.3581 162.422 51.4145 166.275 55.2676C170.128 59.1208 173.184 63.6952 175.27 68.7296C177.355 73.7639 178.428 79.1598 178.428 84.6089C178.428 90.0581 177.355 95.4538 175.27 100.488C173.184 105.522 170.128 110.097 166.275 113.95C162.422 117.803 157.847 120.86 152.813 122.945C147.779 125.03 142.383 126.104 136.934 126.104V85.1773C131.484 85.1773 126.089 84.1039 121.054 82.0186C116.02 79.9333 111.446 76.8769 107.593 73.0237C103.739 69.1706 100.683 64.5962 98.5977 59.5618C96.5124 54.5275 95.439 49.1316 95.439 43.6824C95.439 38.2333 96.5124 32.8376 98.5977 27.8033C100.683 22.7689 103.739 18.1945 107.593 14.3414C111.446 10.4882 116.02 7.4318 121.054 5.3465C126.089 3.26122 131.484 2.18782 136.934 2.18781V43.1141Z" fill="url(#paint5_linear_416_7994)"/>
</g>
<path d="M137.184 84.9271H136.934C131.518 84.927 126.154 83.8601 121.15 81.7874C116.146 79.7147 111.599 76.6768 107.769 72.847C103.939 69.0171 100.901 64.4701 98.8286 59.4661C96.7559 54.4622 95.689 49.0991 95.689 43.6829C95.689 38.2666 96.7559 32.9027 98.8286 27.8987C100.901 22.8948 103.939 18.3478 107.769 14.5179C111.599 10.688 116.146 7.65019 121.15 5.57745C126.077 3.53657 131.353 2.473 136.684 2.44073V43.3646H136.934C142.35 43.3646 147.713 44.4315 152.717 46.5042C157.721 48.577 162.268 51.6148 166.098 55.4446C169.928 59.2745 172.966 63.8215 175.039 68.8255C177.111 73.8294 178.178 79.1925 178.178 84.6087C178.178 90.025 177.111 95.3889 175.039 100.393C172.966 105.397 169.928 109.943 166.098 113.773C162.268 117.603 157.721 120.641 152.717 122.714C147.79 124.755 142.515 125.818 137.184 125.85V84.9271Z" stroke="white" stroke-width="0.5"/>
</g>
<g filter="url(#filter4_dii_416_7994)">
<rect x="194.5" y="1.75" width="36.5" height="125" rx="3" fill="url(#paint6_linear_416_7994)"/>
<rect x="194.75" y="2" width="36" height="124.5" rx="2.75" stroke="white" stroke-width="0.5"/>
</g>
<g filter="url(#filter5_d_416_7994)">
<path d="M278.344 39.75C275.583 39.75 273.38 39.1354 271.734 37.9062C270.099 36.6771 269.135 34.9271 268.844 32.6562C268.812 32.375 268.943 32.2344 269.234 32.2344H273.703C273.901 32.2344 274.031 32.3333 274.094 32.5312C274.302 33.6354 274.745 34.4479 275.422 34.9688C276.109 35.4896 277.062 35.75 278.281 35.75C279.333 35.75 280.156 35.5208 280.75 35.0625C281.344 34.6042 281.641 33.9688 281.641 33.1562C281.641 32.4375 281.411 31.8958 280.953 31.5312C280.505 31.1562 279.745 30.8802 278.672 30.7031L276.047 30.25C273.734 29.8854 272.016 29.1615 270.891 28.0781C269.766 26.9844 269.203 25.5 269.203 23.625C269.203 21.5 269.938 19.8385 271.406 18.6406C272.885 17.4427 274.943 16.8438 277.578 16.8438C280.13 16.8438 282.188 17.4271 283.75 18.5938C285.312 19.7604 286.255 21.4062 286.578 23.5312C286.589 23.6562 286.557 23.7604 286.484 23.8438C286.422 23.9167 286.333 23.9531 286.219 23.9531H281.734C281.516 23.9531 281.38 23.8229 281.328 23.5625C281.12 22.625 280.719 21.9375 280.125 21.5C279.531 21.0625 278.714 20.8438 277.672 20.8438C276.661 20.8438 275.891 21.0521 275.359 21.4688C274.839 21.8854 274.578 22.4896 274.578 23.2812C274.578 24 274.828 24.5677 275.328 24.9844C275.828 25.401 276.609 25.7083 277.672 25.9062L280.328 26.3125C282.724 26.6979 284.438 27.401 285.469 28.4219C286.5 29.4427 287.016 30.9479 287.016 32.9375C287.016 35.0417 286.24 36.7031 284.688 37.9219C283.135 39.1406 281.021 39.75 278.344 39.75ZM298.172 39.75C295.453 39.75 293.297 38.9896 291.703 37.4688C290.12 35.9479 289.328 33.8854 289.328 31.2812C289.328 28.6875 290.125 26.625 291.719 25.0938C293.312 23.5625 295.453 22.7969 298.141 22.7969C300.776 22.7969 302.828 23.5417 304.297 25.0312C305.776 26.5208 306.516 28.5938 306.516 31.25V32.1406C306.516 32.3698 306.391 32.4844 306.141 32.4844H294.641C294.724 33.6823 295.073 34.6042 295.688 35.25C296.312 35.8854 297.172 36.2031 298.266 36.2031C299.922 36.2031 300.943 35.6042 301.328 34.4062C301.401 34.1979 301.542 34.0938 301.75 34.0938H306.078C306.203 34.0938 306.297 34.1198 306.359 34.1719C306.432 34.2135 306.464 34.2812 306.453 34.375C306.172 36.0417 305.307 37.3542 303.859 38.3125C302.422 39.2708 300.526 39.75 298.172 39.75ZM294.641 29.9062H301.469C301.406 28.7708 301.094 27.8958 300.531 27.2812C299.979 26.6562 299.214 26.3438 298.234 26.3438C297.161 26.3438 296.318 26.651 295.703 27.2656C295.089 27.8802 294.734 28.7604 294.641 29.9062ZM309.844 39.5C309.583 39.5 309.453 39.3698 309.453 39.1094V23.4375C309.453 23.1771 309.583 23.0469 309.844 23.0469H314.031C314.281 23.0469 314.406 23.1771 314.406 23.4375V25.3906H314.547C315.672 23.6823 317.333 22.8281 319.531 22.8281C321.781 22.8281 323.359 23.6823 324.266 25.3906H324.422C325.766 23.6823 327.646 22.8281 330.062 22.8281C331.927 22.8281 333.339 23.4323 334.297 24.6406C335.266 25.8385 335.75 27.6146 335.75 29.9688V39.1094C335.75 39.3698 335.625 39.5 335.375 39.5H330.922C330.672 39.5 330.547 39.3698 330.547 39.1094V29.9688C330.547 28.8542 330.328 28.0312 329.891 27.5C329.453 26.9688 328.776 26.7031 327.859 26.7031C326.089 26.7031 325.203 27.7917 325.203 29.9688V39.1094C325.203 39.3698 325.073 39.5 324.812 39.5H320.359C320.109 39.5 319.984 39.3698 319.984 39.1094V29.9688C319.984 28.8542 319.771 28.0312 319.344 27.5C318.917 26.9688 318.245 26.7031 317.328 26.7031C316.411 26.7031 315.734 26.974 315.297 27.5156C314.859 28.0469 314.641 28.8646 314.641 29.9688V39.1094C314.641 39.3698 314.521 39.5 314.281 39.5H309.844ZM345.219 39.75C343.083 39.75 341.401 38.9948 340.172 37.4844C338.943 35.974 338.328 33.9062 338.328 31.2812C338.328 28.6146 338.932 26.5365 340.141 25.0469C341.349 23.5469 343.042 22.7969 345.219 22.7969C346.24 22.7969 347.193 23.0312 348.078 23.5C348.964 23.9583 349.672 24.5885 350.203 25.3906H350.375V23.4375C350.375 23.1771 350.5 23.0469 350.75 23.0469H355.203C355.453 23.0469 355.578 23.1771 355.578 23.4375V35.9219H357.094C357.323 35.9219 357.438 36.0469 357.438 36.2969V39.1094C357.438 39.3698 357.323 39.5 357.094 39.5H353.188C351.479 39.5 350.625 38.7865 350.625 37.3594V37.2031H350.469C349.99 37.9844 349.276 38.6042 348.328 39.0625C347.38 39.5208 346.344 39.75 345.219 39.75ZM343.609 31.2812C343.609 32.7812 343.917 33.9375 344.531 34.75C345.156 35.5521 346.026 35.9531 347.141 35.9531C348.245 35.9531 349.089 35.5521 349.672 34.75C350.266 33.9479 350.562 32.7917 350.562 31.2812C350.562 29.8021 350.26 28.6562 349.656 27.8438C349.062 27.0208 348.224 26.6094 347.141 26.6094C346.036 26.6094 345.172 27.0208 344.547 27.8438C343.922 28.6562 343.609 29.8021 343.609 31.2812ZM360.375 39.5C360.115 39.5 359.984 39.3698 359.984 39.1094V23.4375C359.984 23.1771 360.115 23.0469 360.375 23.0469H364.562C364.812 23.0469 364.938 23.1771 364.938 23.4375V25.3906H365.078C366.255 23.6615 367.958 22.7969 370.188 22.7969C372.104 22.7969 373.552 23.4062 374.531 24.625C375.521 25.8438 376.016 27.6562 376.016 30.0625V39.1094C376.016 39.3698 375.885 39.5 375.625 39.5H371.188C370.927 39.5 370.797 39.3698 370.797 39.1094V30.0625C370.797 28.9062 370.573 28.0521 370.125 27.5C369.677 26.9479 368.974 26.6719 368.016 26.6719C367.057 26.6719 366.344 26.9531 365.875 27.5156C365.406 28.0677 365.172 28.9167 365.172 30.0625V39.1094C365.172 39.3698 365.052 39.5 364.812 39.5H360.375ZM385.531 39.75C383.396 39.75 381.714 38.9948 380.484 37.4844C379.255 35.974 378.641 33.9062 378.641 31.2812C378.641 28.6146 379.245 26.5365 380.453 25.0469C381.661 23.5469 383.354 22.7969 385.531 22.7969C386.552 22.7969 387.505 23.0312 388.391 23.5C389.276 23.9583 389.984 24.5885 390.516 25.3906H390.688V23.4375C390.688 23.1771 390.812 23.0469 391.062 23.0469H395.516C395.766 23.0469 395.891 23.1771 395.891 23.4375V35.9219H397.406C397.635 35.9219 397.75 36.0469 397.75 36.2969V39.1094C397.75 39.3698 397.635 39.5 397.406 39.5H393.5C391.792 39.5 390.938 38.7865 390.938 37.3594V37.2031H390.781C390.302 37.9844 389.589 38.6042 388.641 39.0625C387.693 39.5208 386.656 39.75 385.531 39.75ZM383.922 31.2812C383.922 32.7812 384.229 33.9375 384.844 34.75C385.469 35.5521 386.339 35.9531 387.453 35.9531C388.557 35.9531 389.401 35.5521 389.984 34.75C390.578 33.9479 390.875 32.7917 390.875 31.2812C390.875 29.8021 390.573 28.6562 389.969 27.8438C389.375 27.0208 388.536 26.6094 387.453 26.6094C386.349 26.6094 385.484 27.0208 384.859 27.8438C384.234 28.6562 383.922 29.8021 383.922 31.2812ZM413.75 39.75C411.625 39.75 409.943 38.9948 408.703 37.4844C407.474 35.974 406.859 33.9062 406.859 31.2812C406.859 28.625 407.469 26.5469 408.688 25.0469C409.906 23.5469 411.594 22.7969 413.75 22.7969C414.781 22.7969 415.74 23.0312 416.625 23.5C417.521 23.9583 418.234 24.5885 418.766 25.3906H418.938V16.8438C418.938 16.5833 419.052 16.4531 419.281 16.4531H423.734C423.984 16.4531 424.109 16.5833 424.109 16.8438V39.1094C424.109 39.3698 423.984 39.5 423.734 39.5H419.531C419.281 39.5 419.156 39.3698 419.156 39.1094V37.2031H419.031C418.542 37.9844 417.823 38.6042 416.875 39.0625C415.927 39.5208 414.885 39.75 413.75 39.75ZM412.172 31.2812C412.172 32.7812 412.479 33.9375 413.094 34.75C413.708 35.5521 414.578 35.9531 415.703 35.9531C416.797 35.9531 417.641 35.5521 418.234 34.75C418.828 33.9375 419.125 32.7812 419.125 31.2812C419.125 29.8021 418.823 28.6562 418.219 27.8438C417.625 27.0208 416.786 26.6094 415.703 26.6094C414.589 26.6094 413.719 27.0208 413.094 27.8438C412.479 28.6562 412.172 29.8021 412.172 31.2812ZM435.891 39.75C433.172 39.75 431.016 38.9896 429.422 37.4688C427.839 35.9479 427.047 33.8854 427.047 31.2812C427.047 28.6875 427.844 26.625 429.438 25.0938C431.031 23.5625 433.172 22.7969 435.859 22.7969C438.495 22.7969 440.547 23.5417 442.016 25.0312C443.495 26.5208 444.234 28.5938 444.234 31.25V32.1406C444.234 32.3698 444.109 32.4844 443.859 32.4844H432.359C432.443 33.6823 432.792 34.6042 433.406 35.25C434.031 35.8854 434.891 36.2031 435.984 36.2031C437.641 36.2031 438.661 35.6042 439.047 34.4062C439.12 34.1979 439.26 34.0938 439.469 34.0938H443.797C443.922 34.0938 444.016 34.1198 444.078 34.1719C444.151 34.2135 444.182 34.2812 444.172 34.375C443.891 36.0417 443.026 37.3542 441.578 38.3125C440.141 39.2708 438.245 39.75 435.891 39.75ZM432.359 29.9062H439.188C439.125 28.7708 438.812 27.8958 438.25 27.2812C437.698 26.6562 436.932 26.3438 435.953 26.3438C434.88 26.3438 434.036 26.651 433.422 27.2656C432.807 27.8802 432.453 28.7604 432.359 29.9062ZM278.344 76.75C275.583 76.75 273.38 76.1354 271.734 74.9062C270.099 73.6771 269.135 71.9271 268.844 69.6562C268.812 69.375 268.943 69.2344 269.234 69.2344H273.703C273.901 69.2344 274.031 69.3333 274.094 69.5312C274.302 70.6354 274.745 71.4479 275.422 71.9688C276.109 72.4896 277.062 72.75 278.281 72.75C279.333 72.75 280.156 72.5208 280.75 72.0625C281.344 71.6042 281.641 70.9688 281.641 70.1562C281.641 69.4375 281.411 68.8958 280.953 68.5312C280.505 68.1562 279.745 67.8802 278.672 67.7031L276.047 67.25C273.734 66.8854 272.016 66.1615 270.891 65.0781C269.766 63.9844 269.203 62.5 269.203 60.625C269.203 58.5 269.938 56.8385 271.406 55.6406C272.885 54.4427 274.943 53.8438 277.578 53.8438C280.13 53.8438 282.188 54.4271 283.75 55.5938C285.312 56.7604 286.255 58.4062 286.578 60.5312C286.589 60.6562 286.557 60.7604 286.484 60.8438C286.422 60.9167 286.333 60.9531 286.219 60.9531H281.734C281.516 60.9531 281.38 60.8229 281.328 60.5625C281.12 59.625 280.719 58.9375 280.125 58.5C279.531 58.0625 278.714 57.8438 277.672 57.8438C276.661 57.8438 275.891 58.0521 275.359 58.4688C274.839 58.8854 274.578 59.4896 274.578 60.2812C274.578 61 274.828 61.5677 275.328 61.9844C275.828 62.401 276.609 62.7083 277.672 62.9062L280.328 63.3125C282.724 63.6979 284.438 64.401 285.469 65.4219C286.5 66.4427 287.016 67.9479 287.016 69.9375C287.016 72.0417 286.24 73.7031 284.688 74.9219C283.135 76.1406 281.021 76.75 278.344 76.75ZM290.688 76.5C290.427 76.5 290.297 76.3698 290.297 76.1094V60.4375C290.297 60.1771 290.427 60.0469 290.688 60.0469H295.125C295.365 60.0469 295.484 60.1771 295.484 60.4375V76.1094C295.484 76.3698 295.365 76.5 295.125 76.5H290.688ZM290.141 57.1094V52.5938C290.141 52.3646 290.266 52.25 290.516 52.25H295.281C295.542 52.25 295.672 52.3646 295.672 52.5938V57.1094C295.672 57.3385 295.542 57.4531 295.281 57.4531H290.516C290.266 57.4531 290.141 57.3385 290.141 57.1094ZM306.109 76.75C303.88 76.75 302.125 76.3073 300.844 75.4219C299.562 74.526 298.823 73.2344 298.625 71.5469C298.615 71.4219 298.641 71.3229 298.703 71.25C298.766 71.1667 298.854 71.125 298.969 71.125H302.875C303.094 71.125 303.234 71.2396 303.297 71.4688C303.443 72.1667 303.745 72.6615 304.203 72.9531C304.672 73.2448 305.307 73.3906 306.109 73.3906C306.776 73.3906 307.307 73.2552 307.703 72.9844C308.109 72.7031 308.312 72.3385 308.312 71.8906C308.312 71.4219 308.161 71.0781 307.859 70.8594C307.557 70.6302 307.036 70.4531 306.297 70.3281L304.031 69.9062C302.312 69.6146 301.042 69.0833 300.219 68.3125C299.406 67.5312 299 66.4115 299 64.9531C299 63.3698 299.604 62.1146 300.812 61.1875C302.031 60.2604 303.703 59.7969 305.828 59.7969C307.755 59.7969 309.323 60.2083 310.531 61.0312C311.74 61.8438 312.453 63.0521 312.672 64.6562C312.703 64.7917 312.682 64.8958 312.609 64.9688C312.547 65.0417 312.458 65.0781 312.344 65.0781H308.453C308.224 65.0781 308.073 64.9583 308 64.7188C307.875 64.1458 307.641 63.7396 307.297 63.5C306.953 63.25 306.464 63.125 305.828 63.125C305.182 63.125 304.688 63.2552 304.344 63.5156C304.01 63.776 303.844 64.1458 303.844 64.625C303.844 65.0729 304 65.4219 304.312 65.6719C304.635 65.9115 305.203 66.099 306.016 66.2344L308.312 66.6406C310.052 66.9323 311.292 67.4531 312.031 68.2031C312.781 68.9531 313.156 70.0573 313.156 71.5156C313.156 73.2552 312.547 74.5625 311.328 75.4375C310.12 76.3125 308.38 76.75 306.109 76.75ZM323.078 76.5C321.411 76.5 320.135 76.0573 319.25 75.1719C318.365 74.276 317.922 72.9896 317.922 71.3125V63.6406H315.375C315.115 63.6406 314.984 63.5104 314.984 63.25V60.4375C314.984 60.1771 315.115 60.0469 315.375 60.0469H317.922V55.5469C317.922 55.3073 318.052 55.1875 318.312 55.1875H322.766C322.995 55.1875 323.109 55.3073 323.109 55.5469V60.0469H326.859C327.109 60.0469 327.234 60.1771 327.234 60.4375V63.25C327.234 63.3646 327.198 63.4583 327.125 63.5312C327.052 63.6042 326.964 63.6406 326.859 63.6406H323.109V72.9219H326.828C327.078 72.9219 327.203 73.0469 327.203 73.2969V76.1094C327.203 76.3698 327.078 76.5 326.828 76.5H323.078ZM337.703 76.75C334.984 76.75 332.828 75.9896 331.234 74.4688C329.651 72.9479 328.859 70.8854 328.859 68.2812C328.859 65.6875 329.656 63.625 331.25 62.0938C332.844 60.5625 334.984 59.7969 337.672 59.7969C340.307 59.7969 342.359 60.5417 343.828 62.0312C345.307 63.5208 346.047 65.5938 346.047 68.25V69.1406C346.047 69.3698 345.922 69.4844 345.672 69.4844H334.172C334.255 70.6823 334.604 71.6042 335.219 72.25C335.844 72.8854 336.703 73.2031 337.797 73.2031C339.453 73.2031 340.474 72.6042 340.859 71.4062C340.932 71.1979 341.073 71.0938 341.281 71.0938H345.609C345.734 71.0938 345.828 71.1198 345.891 71.1719C345.964 71.2135 345.995 71.2812 345.984 71.375C345.703 73.0417 344.839 74.3542 343.391 75.3125C341.953 76.2708 340.057 76.75 337.703 76.75ZM334.172 66.9062H341C340.938 65.7708 340.625 64.8958 340.062 64.2812C339.51 63.6562 338.745 63.3438 337.766 63.3438C336.693 63.3438 335.849 63.651 335.234 64.2656C334.62 64.8802 334.266 65.7604 334.172 66.9062ZM349.375 76.5C349.115 76.5 348.984 76.3698 348.984 76.1094V60.4375C348.984 60.1771 349.115 60.0469 349.375 60.0469H353.562C353.812 60.0469 353.938 60.1771 353.938 60.4375V62.3906H354.078C355.203 60.6823 356.865 59.8281 359.062 59.8281C361.312 59.8281 362.891 60.6823 363.797 62.3906H363.953C365.297 60.6823 367.177 59.8281 369.594 59.8281C371.458 59.8281 372.87 60.4323 373.828 61.6406C374.797 62.8385 375.281 64.6146 375.281 66.9688V76.1094C375.281 76.3698 375.156 76.5 374.906 76.5H370.453C370.203 76.5 370.078 76.3698 370.078 76.1094V66.9688C370.078 65.8542 369.859 65.0312 369.422 64.5C368.984 63.9688 368.307 63.7031 367.391 63.7031C365.62 63.7031 364.734 64.7917 364.734 66.9688V76.1094C364.734 76.3698 364.604 76.5 364.344 76.5H359.891C359.641 76.5 359.516 76.3698 359.516 76.1094V66.9688C359.516 65.8542 359.302 65.0312 358.875 64.5C358.448 63.9688 357.776 63.7031 356.859 63.7031C355.943 63.7031 355.266 63.974 354.828 64.5156C354.391 65.0469 354.172 65.8646 354.172 66.9688V76.1094C354.172 76.3698 354.052 76.5 353.812 76.5H349.375ZM384.75 76.75C382.615 76.75 380.932 75.9948 379.703 74.4844C378.474 72.974 377.859 70.9062 377.859 68.2812C377.859 65.6146 378.464 63.5365 379.672 62.0469C380.88 60.5469 382.573 59.7969 384.75 59.7969C385.771 59.7969 386.724 60.0312 387.609 60.5C388.495 60.9583 389.203 61.5885 389.734 62.3906H389.906V60.4375C389.906 60.1771 390.031 60.0469 390.281 60.0469H394.734C394.984 60.0469 395.109 60.1771 395.109 60.4375V72.9219H396.625C396.854 72.9219 396.969 73.0469 396.969 73.2969V76.1094C396.969 76.3698 396.854 76.5 396.625 76.5H392.719C391.01 76.5 390.156 75.7865 390.156 74.3594V74.2031H390C389.521 74.9844 388.807 75.6042 387.859 76.0625C386.911 76.5208 385.875 76.75 384.75 76.75ZM383.141 68.2812C383.141 69.7812 383.448 70.9375 384.062 71.75C384.688 72.5521 385.557 72.9531 386.672 72.9531C387.776 72.9531 388.62 72.5521 389.203 71.75C389.797 70.9479 390.094 69.7917 390.094 68.2812C390.094 66.8021 389.792 65.6562 389.188 64.8438C388.594 64.0208 387.755 63.6094 386.672 63.6094C385.568 63.6094 384.703 64.0208 384.078 64.8438C383.453 65.6562 383.141 66.8021 383.141 68.2812ZM406.234 76.75C404.005 76.75 402.25 76.3073 400.969 75.4219C399.688 74.526 398.948 73.2344 398.75 71.5469C398.74 71.4219 398.766 71.3229 398.828 71.25C398.891 71.1667 398.979 71.125 399.094 71.125H403C403.219 71.125 403.359 71.2396 403.422 71.4688C403.568 72.1667 403.87 72.6615 404.328 72.9531C404.797 73.2448 405.432 73.3906 406.234 73.3906C406.901 73.3906 407.432 73.2552 407.828 72.9844C408.234 72.7031 408.438 72.3385 408.438 71.8906C408.438 71.4219 408.286 71.0781 407.984 70.8594C407.682 70.6302 407.161 70.4531 406.422 70.3281L404.156 69.9062C402.438 69.6146 401.167 69.0833 400.344 68.3125C399.531 67.5312 399.125 66.4115 399.125 64.9531C399.125 63.3698 399.729 62.1146 400.938 61.1875C402.156 60.2604 403.828 59.7969 405.953 59.7969C407.88 59.7969 409.448 60.2083 410.656 61.0312C411.865 61.8438 412.578 63.0521 412.797 64.6562C412.828 64.7917 412.807 64.8958 412.734 64.9688C412.672 65.0417 412.583 65.0781 412.469 65.0781H408.578C408.349 65.0781 408.198 64.9583 408.125 64.7188C408 64.1458 407.766 63.7396 407.422 63.5C407.078 63.25 406.589 63.125 405.953 63.125C405.307 63.125 404.812 63.2552 404.469 63.5156C404.135 63.776 403.969 64.1458 403.969 64.625C403.969 65.0729 404.125 65.4219 404.438 65.6719C404.76 65.9115 405.328 66.099 406.141 66.2344L408.438 66.6406C410.177 66.9323 411.417 67.4531 412.156 68.2031C412.906 68.9531 413.281 70.0573 413.281 71.5156C413.281 73.2552 412.672 74.5625 411.453 75.4375C410.245 76.3125 408.505 76.75 406.234 76.75ZM429.844 76.75C427.719 76.75 426.036 75.9948 424.797 74.4844C423.568 72.974 422.953 70.9062 422.953 68.2812C422.953 65.625 423.562 63.5469 424.781 62.0469C426 60.5469 427.688 59.7969 429.844 59.7969C430.875 59.7969 431.833 60.0312 432.719 60.5C433.615 60.9583 434.328 61.5885 434.859 62.3906H435.031V53.8438C435.031 53.5833 435.146 53.4531 435.375 53.4531H439.828C440.078 53.4531 440.203 53.5833 440.203 53.8438V76.1094C440.203 76.3698 440.078 76.5 439.828 76.5H435.625C435.375 76.5 435.25 76.3698 435.25 76.1094V74.2031H435.125C434.635 74.9844 433.917 75.6042 432.969 76.0625C432.021 76.5208 430.979 76.75 429.844 76.75ZM428.266 68.2812C428.266 69.7812 428.573 70.9375 429.188 71.75C429.802 72.5521 430.672 72.9531 431.797 72.9531C432.891 72.9531 433.734 72.5521 434.328 71.75C434.922 70.9375 435.219 69.7812 435.219 68.2812C435.219 66.8021 434.917 65.6562 434.312 64.8438C433.719 64.0208 432.88 63.6094 431.797 63.6094C430.682 63.6094 429.812 64.0208 429.188 64.8438C428.573 65.6562 428.266 66.8021 428.266 68.2812ZM451.984 76.75C449.266 76.75 447.109 75.9896 445.516 74.4688C443.932 72.9479 443.141 70.8854 443.141 68.2812C443.141 65.6875 443.938 63.625 445.531 62.0938C447.125 60.5625 449.266 59.7969 451.953 59.7969C454.589 59.7969 456.641 60.5417 458.109 62.0312C459.589 63.5208 460.328 65.5938 460.328 68.25V69.1406C460.328 69.3698 460.203 69.4844 459.953 69.4844H448.453C448.536 70.6823 448.885 71.6042 449.5 72.25C450.125 72.8854 450.984 73.2031 452.078 73.2031C453.734 73.2031 454.755 72.6042 455.141 71.4062C455.214 71.1979 455.354 71.0938 455.562 71.0938H459.891C460.016 71.0938 460.109 71.1198 460.172 71.1719C460.245 71.2135 460.276 71.2812 460.266 71.375C459.984 73.0417 459.12 74.3542 457.672 75.3125C456.234 76.2708 454.339 76.75 451.984 76.75ZM448.453 66.9062H455.281C455.219 65.7708 454.906 64.8958 454.344 64.2812C453.792 63.6562 453.026 63.3438 452.047 63.3438C450.974 63.3438 450.13 63.651 449.516 64.2656C448.901 64.8802 448.547 65.7604 448.453 66.9062ZM270.156 112.5C269.896 112.5 269.766 112.37 269.766 112.109V90.4844C269.766 90.224 269.896 90.0938 270.156 90.0938H274.734C274.964 90.0938 275.078 90.224 275.078 90.4844V112.109C275.078 112.37 274.964 112.5 274.734 112.5H270.156ZM279.688 112.5C279.427 112.5 279.297 112.37 279.297 112.109V96.4375C279.297 96.1771 279.427 96.0469 279.688 96.0469H283.875C284.125 96.0469 284.25 96.1771 284.25 96.4375V98.3906H284.391C285.568 96.6615 287.271 95.7969 289.5 95.7969C291.417 95.7969 292.865 96.4062 293.844 97.625C294.833 98.8438 295.328 100.656 295.328 103.062V112.109C295.328 112.37 295.198 112.5 294.938 112.5H290.5C290.24 112.5 290.109 112.37 290.109 112.109V103.062C290.109 101.906 289.885 101.052 289.438 100.5C288.99 99.9479 288.286 99.6719 287.328 99.6719C286.37 99.6719 285.656 99.9531 285.188 100.516C284.719 101.068 284.484 101.917 284.484 103.062V112.109C284.484 112.37 284.365 112.5 284.125 112.5H279.688ZM300.969 112.5C300.708 112.5 300.578 112.37 300.578 112.109V99.8906H298.031C297.771 99.8906 297.641 99.7656 297.641 99.5156V96.6875C297.641 96.4375 297.771 96.3125 298.031 96.3125H300.578V94.6094C300.578 92.9427 301.021 91.6667 301.906 90.7812C302.792 89.8958 304.068 89.4531 305.734 89.4531H309.484C309.734 89.4531 309.859 89.5833 309.859 89.8438V92.6562C309.859 92.9167 309.734 93.0469 309.484 93.0469H305.766V96.3125H309.516C309.63 96.3125 309.719 96.349 309.781 96.4219C309.854 96.4948 309.891 96.5833 309.891 96.6875V99.5156C309.891 99.7656 309.766 99.8906 309.516 99.8906H305.766V112.109C305.766 112.37 305.651 112.5 305.422 112.5H300.969ZM326.375 110.438C324.771 111.979 322.641 112.75 319.984 112.75C317.328 112.75 315.198 111.979 313.594 110.438C312 108.896 311.203 106.844 311.203 104.281C311.203 101.719 312 99.6719 313.594 98.1406C315.198 96.599 317.328 95.8281 319.984 95.8281C322.641 95.8281 324.771 96.599 326.375 98.1406C327.979 99.6719 328.781 101.719 328.781 104.281C328.781 106.844 327.979 108.896 326.375 110.438ZM316.484 104.281C316.484 105.844 316.781 107.036 317.375 107.859C317.979 108.672 318.849 109.078 319.984 109.078C321.109 109.078 321.974 108.672 322.578 107.859C323.193 107.036 323.5 105.844 323.5 104.281C323.5 102.729 323.193 101.542 322.578 100.719C321.974 99.8854 321.109 99.4688 319.984 99.4688C318.859 99.4688 317.995 99.8854 317.391 100.719C316.786 101.542 316.484 102.729 316.484 104.281ZM331.859 112.5C331.63 112.5 331.516 112.37 331.516 112.109V101.203C331.516 99.5365 331.953 98.2604 332.828 97.375C333.714 96.4896 334.99 96.0469 336.656 96.0469H341.969C342.208 96.0469 342.328 96.1771 342.328 96.4375V99.7031C342.328 99.9323 342.208 100.047 341.969 100.047H336.688V112.109C336.688 112.37 336.573 112.5 336.344 112.5H331.859ZM345.5 112.5C345.24 112.5 345.109 112.37 345.109 112.109V96.4375C345.109 96.1771 345.24 96.0469 345.5 96.0469H349.688C349.938 96.0469 350.062 96.1771 350.062 96.4375V98.3906H350.203C351.328 96.6823 352.99 95.8281 355.188 95.8281C357.438 95.8281 359.016 96.6823 359.922 98.3906H360.078C361.422 96.6823 363.302 95.8281 365.719 95.8281C367.583 95.8281 368.995 96.4323 369.953 97.6406C370.922 98.8385 371.406 100.615 371.406 102.969V112.109C371.406 112.37 371.281 112.5 371.031 112.5H366.578C366.328 112.5 366.203 112.37 366.203 112.109V102.969C366.203 101.854 365.984 101.031 365.547 100.5C365.109 99.9688 364.432 99.7031 363.516 99.7031C361.745 99.7031 360.859 100.792 360.859 102.969V112.109C360.859 112.37 360.729 112.5 360.469 112.5H356.016C355.766 112.5 355.641 112.37 355.641 112.109V102.969C355.641 101.854 355.427 101.031 355 100.5C354.573 99.9688 353.901 99.7031 352.984 99.7031C352.068 99.7031 351.391 99.974 350.953 100.516C350.516 101.047 350.297 101.865 350.297 102.969V112.109C350.297 112.37 350.177 112.5 349.938 112.5H345.5ZM380.875 112.75C378.74 112.75 377.057 111.995 375.828 110.484C374.599 108.974 373.984 106.906 373.984 104.281C373.984 101.615 374.589 99.5365 375.797 98.0469C377.005 96.5469 378.698 95.7969 380.875 95.7969C381.896 95.7969 382.849 96.0312 383.734 96.5C384.62 96.9583 385.328 97.5885 385.859 98.3906H386.031V96.4375C386.031 96.1771 386.156 96.0469 386.406 96.0469H390.859C391.109 96.0469 391.234 96.1771 391.234 96.4375V108.922H392.75C392.979 108.922 393.094 109.047 393.094 109.297V112.109C393.094 112.37 392.979 112.5 392.75 112.5H388.844C387.135 112.5 386.281 111.786 386.281 110.359V110.203H386.125C385.646 110.984 384.932 111.604 383.984 112.062C383.036 112.521 382 112.75 380.875 112.75ZM379.266 104.281C379.266 105.781 379.573 106.938 380.188 107.75C380.812 108.552 381.682 108.953 382.797 108.953C383.901 108.953 384.745 108.552 385.328 107.75C385.922 106.948 386.219 105.792 386.219 104.281C386.219 102.802 385.917 101.656 385.312 100.844C384.719 100.021 383.88 99.6094 382.797 99.6094C381.693 99.6094 380.828 100.021 380.203 100.844C379.578 101.656 379.266 102.802 379.266 104.281ZM401.109 118.969C400.859 118.969 400.734 118.849 400.734 118.609V117.078C400.734 116.839 400.859 116.719 401.109 116.719H402.906C403.396 116.719 403.76 116.667 404 116.562C404.25 116.458 404.375 116.255 404.375 115.953C404.375 115.641 404.26 115.427 404.031 115.312C403.802 115.208 403.427 115.156 402.906 115.156H402.266C402.151 115.156 402.057 115.12 401.984 115.047C401.911 114.984 401.875 114.901 401.875 114.797V112.656C399.625 112.354 397.859 111.464 396.578 109.984C395.307 108.505 394.672 106.604 394.672 104.281C394.672 101.719 395.479 99.6667 397.094 98.125C398.719 96.5729 400.87 95.7969 403.547 95.7969C405.839 95.7969 407.693 96.3438 409.109 97.4375C410.536 98.5208 411.37 100.021 411.609 101.938C411.62 102.062 411.589 102.167 411.516 102.25C411.453 102.323 411.365 102.359 411.25 102.359H406.938C406.708 102.359 406.578 102.229 406.547 101.969C406.391 101.094 406.068 100.458 405.578 100.062C405.089 99.6667 404.411 99.4688 403.547 99.4688C402.401 99.4688 401.516 99.8854 400.891 100.719C400.266 101.552 399.953 102.74 399.953 104.281C399.953 105.833 400.266 107.021 400.891 107.844C401.516 108.667 402.401 109.078 403.547 109.078C404.432 109.078 405.13 108.88 405.641 108.484C406.161 108.078 406.521 107.443 406.719 106.578C406.75 106.328 406.875 106.203 407.094 106.203H411.422C411.536 106.203 411.63 106.234 411.703 106.297C411.776 106.359 411.807 106.443 411.797 106.547C411.536 108.349 410.766 109.797 409.484 110.891C408.214 111.974 406.531 112.583 404.438 112.719V113.594C405.354 113.635 406.052 113.885 406.531 114.344C407.01 114.802 407.25 115.401 407.25 116.141C407.25 118.026 406.005 118.969 403.516 118.969H401.109ZM420.656 112.75C418.521 112.75 416.839 111.995 415.609 110.484C414.38 108.974 413.766 106.906 413.766 104.281C413.766 101.615 414.37 99.5365 415.578 98.0469C416.786 96.5469 418.479 95.7969 420.656 95.7969C421.677 95.7969 422.63 96.0312 423.516 96.5C424.401 96.9583 425.109 97.5885 425.641 98.3906H425.812V96.4375C425.812 96.1771 425.938 96.0469 426.188 96.0469H430.641C430.891 96.0469 431.016 96.1771 431.016 96.4375V108.922H432.531C432.76 108.922 432.875 109.047 432.875 109.297V112.109C432.875 112.37 432.76 112.5 432.531 112.5H428.625C426.917 112.5 426.062 111.786 426.062 110.359V110.203H425.906C425.427 110.984 424.714 111.604 423.766 112.062C422.818 112.521 421.781 112.75 420.656 112.75ZM416.172 93.3281C416.214 91.8906 416.562 90.776 417.219 89.9844C417.875 89.1823 418.766 88.7812 419.891 88.7812C420.516 88.7812 421.339 89.0052 422.359 89.4531C423.38 89.901 424.068 90.125 424.422 90.125C424.974 90.125 425.328 89.7969 425.484 89.1406C425.547 88.901 425.677 88.7812 425.875 88.7812H428.531C428.781 88.7812 428.906 88.9115 428.906 89.1719C428.865 90.6094 428.516 91.7292 427.859 92.5312C427.203 93.3229 426.318 93.7188 425.203 93.7188C424.578 93.7188 423.755 93.4896 422.734 93.0312C421.714 92.5729 421.021 92.3438 420.656 92.3438C420.104 92.3438 419.75 92.6719 419.594 93.3281C419.531 93.5885 419.406 93.7188 419.219 93.7188H416.562C416.302 93.7188 416.172 93.5885 416.172 93.3281ZM419.047 104.281C419.047 105.781 419.354 106.938 419.969 107.75C420.594 108.552 421.464 108.953 422.578 108.953C423.682 108.953 424.526 108.552 425.109 107.75C425.703 106.948 426 105.792 426 104.281C426 102.802 425.698 101.656 425.094 100.844C424.5 100.021 423.661 99.6094 422.578 99.6094C421.474 99.6094 420.609 100.021 419.984 100.844C419.359 101.656 419.047 102.802 419.047 104.281ZM449.625 110.438C448.021 111.979 445.891 112.75 443.234 112.75C440.578 112.75 438.448 111.979 436.844 110.438C435.25 108.896 434.453 106.844 434.453 104.281C434.453 101.719 435.25 99.6719 436.844 98.1406C438.448 96.599 440.578 95.8281 443.234 95.8281C445.891 95.8281 448.021 96.599 449.625 98.1406C451.229 99.6719 452.031 101.719 452.031 104.281C452.031 106.844 451.229 108.896 449.625 110.438ZM439.734 104.281C439.734 105.844 440.031 107.036 440.625 107.859C441.229 108.672 442.099 109.078 443.234 109.078C444.359 109.078 445.224 108.672 445.828 107.859C446.443 107.036 446.75 105.844 446.75 104.281C446.75 102.729 446.443 101.542 445.828 100.719C445.224 99.8854 444.359 99.4688 443.234 99.4688C442.109 99.4688 441.245 99.8854 440.641 100.719C440.036 101.542 439.734 102.729 439.734 104.281Z" fill="white"/>
</g>
</g>
<defs>
<filter id="filter0_di_416_7994" x="1.43896" y="1.25" width="85.061" height="127" filterUnits="userSpaceOnUse" color-interpolation-filters="sRGB">
<feFlood flood-opacity="0" result="BackgroundImageFix"/>
<feColorMatrix in="SourceAlpha" type="matrix" values="0 0 0 0 0 0 0 0 0 0 0 0 0 0 0 0 0 0 127 0" result="hardAlpha"/>
<feOffset dy="0.5"/>
<feGaussianBlur stdDeviation="0.5"/>
<feComposite in2="hardAlpha" operator="out"/>
<feColorMatrix type="matrix" values="0 0 0 0 0 0 0 0 0 0 0 0 0 0 0 0 0 0 0.25 0"/>
<feBlend mode="normal" in2="BackgroundImageFix" result="effect1_dropShadow_416_7994"/>
<feBlend mode="normal" in="SourceGraphic" in2="effect1_dropShadow_416_7994" result="shape"/>
<feColorMatrix in="SourceAlpha" type="matrix" values="0 0 0 0 0 0 0 0 0 0 0 0 0 0 0 0 0 0 127 0" result="hardAlpha"/>
<feOffset/>
<feGaussianBlur stdDeviation="0.5"/>
<feComposite in2="hardAlpha" operator="arithmetic" k2="-1" k3="1"/>
<feColorMatrix type="matrix" values="0 0 0 0 1 0 0 0 0 1 0 0 0 0 1 0 0 0 1 0"/>
<feBlend mode="normal" in2="shape" result="effect2_innerShadow_416_7994"/>
</filter>
<filter id="filter1_i_416_7994" x="2.43896" y="2.18781" width="82.9895" height="123.916" filterUnits="userSpaceOnUse" color-interpolation-filters="sRGB">
<feFlood flood-opacity="0" result="BackgroundImageFix"/>
<feBlend mode="normal" in="SourceGraphic" in2="BackgroundImageFix" result="shape"/>
<feColorMatrix in="SourceAlpha" type="matrix" values="0 0 0 0 0 0 0 0 0 0 0 0 0 0 0 0 0 0 127 0" result="hardAlpha"/>
<feOffset/>
<feGaussianBlur stdDeviation="6"/>
<feComposite in2="hardAlpha" operator="arithmetic" k2="-1" k3="1"/>
<feColorMatrix type="matrix" values="0 0 0 0 1 0 0 0 0 1 0 0 0 0 1 0 0 0 0.5 0"/>
<feBlend mode="normal" in2="shape" result="effect1_innerShadow_416_7994"/>
</filter>
<filter id="filter2_di_416_7994" x="94.439" y="1.25" width="85.061" height="127" filterUnits="userSpaceOnUse" color-interpolation-filters="sRGB">
<feFlood flood-opacity="0" result="BackgroundImageFix"/>
<feColorMatrix in="SourceAlpha" type="matrix" values="0 0 0 0 0 0 0 0 0 0 0 0 0 0 0 0 0 0 127 0" result="hardAlpha"/>
<feOffset dy="0.5"/>
<feGaussianBlur stdDeviation="0.5"/>
<feComposite in2="hardAlpha" operator="out"/>
<feColorMatrix type="matrix" values="0 0 0 0 0 0 0 0 0 0 0 0 0 0 0 0 0 0 0.25 0"/>
<feBlend mode="normal" in2="BackgroundImageFix" result="effect1_dropShadow_416_7994"/>
<feBlend mode="normal" in="SourceGraphic" in2="effect1_dropShadow_416_7994" result="shape"/>
<feColorMatrix in="SourceAlpha" type="matrix" values="0 0 0 0 0 0 0 0 0 0 0 0 0 0 0 0 0 0 127 0" result="hardAlpha"/>
<feOffset/>
<feGaussianBlur stdDeviation="0.5"/>
<feComposite in2="hardAlpha" operator="arithmetic" k2="-1" k3="1"/>
<feColorMatrix type="matrix" values="0 0 0 0 1 0 0 0 0 1 0 0 0 0 1 0 0 0 1 0"/>
<feBlend mode="normal" in2="shape" result="effect2_innerShadow_416_7994"/>
</filter>
<filter id="filter3_i_416_7994" x="95.439" y="2.18781" width="82.9895" height="123.916" filterUnits="userSpaceOnUse" color-interpolation-filters="sRGB">
<feFlood flood-opacity="0" result="BackgroundImageFix"/>
<feBlend mode="normal" in="SourceGraphic" in2="BackgroundImageFix" result="shape"/>
<feColorMatrix in="SourceAlpha" type="matrix" values="0 0 0 0 0 0 0 0 0 0 0 0 0 0 0 0 0 0 127 0" result="hardAlpha"/>
<feOffset/>
<feGaussianBlur stdDeviation="6"/>
<feComposite in2="hardAlpha" operator="arithmetic" k2="-1" k3="1"/>
<feColorMatrix type="matrix" values="0 0 0 0 1 0 0 0 0 1 0 0 0 0 1 0 0 0 0.5 0"/>
<feBlend mode="normal" in2="shape" result="effect1_innerShadow_416_7994"/>
</filter>
<filter id="filter4_dii_416_7994" x="193.5" y="1.25" width="38.5" height="127" filterUnits="userSpaceOnUse" color-interpolation-filters="sRGB">
<feFlood flood-opacity="0" result="BackgroundImageFix"/>
<feColorMatrix in="SourceAlpha" type="matrix" values="0 0 0 0 0 0 0 0 0 0 0 0 0 0 0 0 0 0 127 0" result="hardAlpha"/>
<feOffset dy="0.5"/>
<feGaussianBlur stdDeviation="0.5"/>
<feComposite in2="hardAlpha" operator="out"/>
<feColorMatrix type="matrix" values="0 0 0 0 0 0 0 0 0 0 0 0 0 0 0 0 0 0 0.5 0"/>
<feBlend mode="normal" in2="BackgroundImageFix" result="effect1_dropShadow_416_7994"/>
<feBlend mode="normal" in="SourceGraphic" in2="effect1_dropShadow_416_7994" result="shape"/>
<feColorMatrix in="SourceAlpha" type="matrix" values="0 0 0 0 0 0 0 0 0 0 0 0 0 0 0 0 0 0 127 0" result="hardAlpha"/>
<feOffset/>
<feGaussianBlur stdDeviation="6"/>
<feComposite in2="hardAlpha" operator="arithmetic" k2="-1" k3="1"/>
<feColorMatrix type="matrix" values="0 0 0 0 1 0 0 0 0 1 0 0 0 0 1 0 0 0 0.5 0"/>
<feBlend mode="normal" in2="shape" result="effect2_innerShadow_416_7994"/>
<feColorMatrix in="SourceAlpha" type="matrix" values="0 0 0 0 0 0 0 0 0 0 0 0 0 0 0 0 0 0 127 0" result="hardAlpha"/>
<feOffset/>
<feGaussianBlur stdDeviation="0.5"/>
<feComposite in2="hardAlpha" operator="arithmetic" k2="-1" k3="1"/>
<feColorMatrix type="matrix" values="0 0 0 0 1 0 0 0 0 1 0 0 0 0 1 0 0 0 1 0"/>
<feBlend mode="normal" in2="effect2_innerShadow_416_7994" result="effect3_innerShadow_416_7994"/>
</filter>
<filter id="filter5_d_416_7994" x="267.797" y="16.4531" width="193.531" height="104.516" filterUnits="userSpaceOnUse" color-interpolation-filters="sRGB">
<feFlood flood-opacity="0" result="BackgroundImageFix"/>
<feColorMatrix in="SourceAlpha" type="matrix" values="0 0 0 0 0 0 0 0 0 0 0 0 0 0 0 0 0 0 127 0" result="hardAlpha"/>
<feOffset dy="1"/>
<feGaussianBlur stdDeviation="0.5"/>
<feComposite in2="hardAlpha" operator="out"/>
<feColorMatrix type="matrix" values="0 0 0 0 0 0 0 0 0 0 0 0 0 0 0 0 0 0 0.25 0"/>
<feBlend mode="normal" in2="BackgroundImageFix" result="effect1_dropShadow_416_7994"/>
<feBlend mode="normal" in="SourceGraphic" in2="effect1_dropShadow_416_7994" result="shape"/>
</filter>
<linearGradient id="paint0_linear_416_7994" x1="14.5912" y1="55.2665" x2="73.2736" y2="113.949" gradientUnits="userSpaceOnUse">
<stop offset="0.509616" stop-color="#9638FF"/>
<stop offset="1" stop-color="#EBD8FF" stop-opacity="0.75"/>
</linearGradient>
<linearGradient id="paint1_linear_416_7994" x1="73.2755" y1="73.0236" x2="14.5931" y2="14.3412" gradientUnits="userSpaceOnUse">
<stop offset="0.509616" stop-color="#9638FF"/>
<stop offset="1" stop-color="#EBD8FF" stop-opacity="0.75"/>
</linearGradient>
<linearGradient id="paint2_linear_416_7994" x1="43.9337" y1="2.18781" x2="43.9337" y2="126.104" gradientUnits="userSpaceOnUse">
<stop stop-color="white"/>
<stop offset="0.4" stop-color="#FDEEFF"/>
<stop offset="1" stop-color="#D0ACFF"/>
</linearGradient>
<linearGradient id="paint3_linear_416_7994" x1="107.591" y1="55.2665" x2="166.274" y2="113.949" gradientUnits="userSpaceOnUse">
<stop offset="0.509616" stop-color="#9638FF"/>
<stop offset="1" stop-color="#EBD8FF" stop-opacity="0.75"/>
</linearGradient>
<linearGradient id="paint4_linear_416_7994" x1="166.275" y1="73.0236" x2="107.593" y2="14.3412" gradientUnits="userSpaceOnUse">
<stop offset="0.509616" stop-color="#9638FF"/>
<stop offset="1" stop-color="#EBD8FF" stop-opacity="0.75"/>
</linearGradient>
<linearGradient id="paint5_linear_416_7994" x1="136.934" y1="2.18781" x2="136.934" y2="126.104" gradientUnits="userSpaceOnUse">
<stop stop-color="white"/>
<stop offset="0.4" stop-color="#FDEEFF"/>
<stop offset="1" stop-color="#D0ACFF"/>
</linearGradient>
<linearGradient id="paint6_linear_416_7994" x1="212.75" y1="1.75" x2="212.75" y2="126.75" gradientUnits="userSpaceOnUse">
<stop stop-color="white"/>
<stop offset="0.4" stop-color="#FDEEFF"/>
<stop offset="1" stop-color="#D0ACFF"/>
</linearGradient>
<clipPath id="clip0_416_7994">
<rect width="472" height="128" fill="white"/>
</clipPath>
</defs>
</svg>
