<svg width="2087" height="505" viewBox="0 0 2087 505" fill="none" xmlns="http://www.w3.org/2000/svg">
<path d="M286.932 212.315C302.345 227.727 314.571 246.025 322.912 266.162C331.253 286.3 335.547 307.883 335.547 329.68C335.547 351.476 331.253 373.06 322.912 393.197C314.571 413.335 302.345 431.632 286.932 447.045C271.52 462.457 253.222 474.683 233.085 483.024C212.947 491.365 191.364 495.659 169.568 495.659C147.771 495.659 126.188 491.365 106.05 483.024C85.9127 474.683 67.6153 462.457 52.2027 447.045L169.568 329.68L286.932 212.315Z" fill="#9638FF"/>
<path d="M169.573 163.705C191.369 163.705 212.953 167.998 233.09 176.34C253.228 184.681 271.525 196.907 286.938 212.319C302.35 227.732 314.576 246.029 322.917 266.167C331.258 286.304 335.552 307.887 335.552 329.684C335.552 351.481 331.258 373.064 322.917 393.202C314.576 413.339 302.35 431.636 286.938 447.049C271.525 462.462 253.228 474.687 233.09 483.029C212.953 491.37 191.369 495.663 169.573 495.663L169.573 329.684L169.573 163.705Z" fill="#3E0672"/>
<path d="M52.2102 283.344C21.0831 252.217 3.59606 209.999 3.59603 165.979C3.59604 121.959 21.0831 79.7413 52.2101 48.6142C83.3372 17.4871 125.555 4.54171e-05 169.575 5.35093e-05C213.595 4.00223e-05 255.813 17.4871 286.94 48.6141L169.575 165.979L52.2102 283.344Z" fill="#9638FF"/>
<path d="M169.572 331.958C147.775 331.958 126.192 327.665 106.054 319.324C85.9169 310.982 67.6195 298.756 52.207 283.344C36.7944 267.931 24.5685 249.634 16.2273 229.496C7.88605 209.359 3.59286 187.776 3.59286 165.979C3.59286 144.182 7.88605 122.599 16.2273 102.462C24.5685 82.3241 36.7944 64.0267 52.207 48.6141C67.6196 33.2015 85.9169 20.9756 106.054 12.6344C126.192 4.29317 147.775 -1.90552e-06 169.572 0L169.572 165.979L169.572 331.958Z" fill="#3E0672"/>
<path d="M723.479 212.315C738.892 227.727 751.118 246.025 759.459 266.162C767.8 286.3 772.093 307.883 772.093 329.68C772.093 351.476 767.8 373.06 759.459 393.197C751.118 413.335 738.892 431.632 723.479 447.045C708.067 462.457 689.769 474.683 669.632 483.024C649.494 491.365 627.911 495.659 606.114 495.659C584.318 495.659 562.735 491.365 542.597 483.024C522.46 474.683 504.162 462.457 488.75 447.045L606.114 329.68L723.479 212.315Z" fill="#9638FF"/>
<path d="M606.12 163.705C627.916 163.705 649.499 167.998 669.637 176.34C689.774 184.681 708.072 196.907 723.484 212.319C738.897 227.732 751.123 246.029 759.464 266.167C767.805 286.304 772.099 307.887 772.099 329.684C772.099 351.481 767.805 373.064 759.464 393.202C751.123 413.339 738.897 431.636 723.484 447.049C708.072 462.462 689.774 474.687 669.637 483.029C649.499 491.37 627.916 495.663 606.12 495.663L606.12 329.684V163.705Z" fill="#3E0672"/>
<path d="M488.757 283.344C457.63 252.217 440.143 209.999 440.143 165.979C440.143 121.959 457.63 79.7413 488.757 48.6142C519.884 17.4871 562.101 4.54171e-05 606.122 5.35093e-05C650.142 4.00223e-05 692.36 17.4871 723.487 48.6141L606.122 165.979L488.757 283.344Z" fill="#9638FF"/>
<path d="M606.119 331.958C584.322 331.958 562.739 327.665 542.601 319.324C522.464 310.982 504.166 298.756 488.754 283.344C473.341 267.931 461.115 249.634 452.774 229.496C444.433 209.359 440.14 187.776 440.14 165.979C440.14 144.182 444.433 122.599 452.774 102.462C461.115 82.3241 473.341 64.0267 488.754 48.6141C504.166 33.2015 522.464 20.9756 542.601 12.6344C562.739 4.29317 584.322 -1.90552e-06 606.119 0L606.119 165.979V331.958Z" fill="#3E0672"/>
<rect x="876.688" width="145.516" height="495.663" fill="#3E0672"/>
<path d="M1219.44 139.164C1194.26 139.164 1178.84 127.523 1176.22 106.86C1176.08 105.55 1176.8 104.968 1177.97 104.968H1198.34C1199.21 104.968 1199.79 105.404 1200.09 106.278C1201.98 116.318 1208.09 120.975 1219.15 120.975C1228.75 120.975 1234.43 116.609 1234.43 109.188C1234.43 102.64 1230.64 99.5838 1220.89 97.9832L1208.96 95.9459C1188.01 92.5991 1177.82 82.8495 1177.82 65.8242C1177.82 46.4706 1191.94 34.9748 1215.95 34.9748C1239.23 34.9748 1253.93 46.034 1256.84 65.3876C1256.98 66.5517 1256.25 67.2793 1255.24 67.2793H1234.86C1233.99 67.2793 1233.26 66.9883 1232.97 65.5331C1231.08 56.9477 1225.84 53.1643 1216.38 53.1643C1207.22 53.1643 1202.27 56.9477 1202.27 64.2235C1202.27 70.7717 1206.78 74.4096 1216.38 76.1558L1228.46 78.0475C1250.29 81.5399 1258.87 90.1253 1258.87 108.169C1258.87 127.377 1243.74 139.164 1219.44 139.164ZM1309.57 139.164C1284.83 139.164 1269.4 124.322 1269.4 100.602C1269.4 77.0289 1284.97 62.0408 1309.42 62.0408C1333.43 62.0408 1347.55 76.3013 1347.55 100.457V104.531C1347.55 105.55 1346.96 106.132 1345.8 106.132H1293.56C1294.29 116.9 1299.96 123.012 1310 123.012C1317.57 123.012 1322.37 119.956 1323.97 114.863C1324.41 113.699 1324.99 113.408 1325.86 113.408H1345.51C1346.67 113.408 1347.4 113.844 1347.26 114.717C1344.78 129.706 1331.25 139.164 1309.57 139.164ZM1293.56 94.3453H1324.56C1323.97 84.0136 1318.73 78.193 1309.86 78.193C1300.11 78.193 1294.43 83.8681 1293.56 94.3453ZM1362.63 138C1361.46 138 1360.88 137.418 1360.88 136.254V64.9511C1360.88 63.7869 1361.46 63.2049 1362.63 63.2049H1381.69C1382.71 63.2049 1383.44 63.7869 1383.44 64.9511V73.8275H1384.02C1389.11 66.1152 1396.68 62.1863 1406.72 62.1863C1416.9 62.1863 1424.03 65.9697 1428.25 73.8275H1428.98C1435.09 66.1152 1443.82 62.1863 1454.59 62.1863C1471.47 62.1863 1480.49 73.1 1480.49 94.6363V136.254C1480.49 137.418 1479.77 138 1478.75 138H1458.52C1457.36 138 1456.78 137.418 1456.78 136.254V94.6363C1456.78 84.4502 1452.85 79.7937 1444.55 79.7937C1436.4 79.7937 1432.47 84.5957 1432.47 94.6363V136.254C1432.47 137.418 1431.89 138 1430.73 138H1410.5C1409.48 138 1408.76 137.418 1408.76 136.254V94.6363C1408.76 84.4502 1404.97 79.7937 1396.68 79.7937C1388.38 79.7937 1384.45 84.5957 1384.45 94.6363V136.254C1384.45 137.418 1383.87 138 1382.85 138H1362.63ZM1523.51 139.164C1504.01 139.164 1492.23 124.467 1492.23 100.602C1492.23 76.4468 1503.72 62.0408 1523.51 62.0408C1532.82 62.0408 1541.41 66.5517 1546.21 73.8275H1546.94V64.9511C1546.94 63.7869 1547.52 63.2049 1548.69 63.2049H1568.91C1569.93 63.2049 1570.66 63.7869 1570.66 64.9511V121.702H1577.5C1578.52 121.702 1579.1 122.284 1579.1 123.448V136.254C1579.1 137.418 1578.52 138 1577.5 138H1559.74C1551.89 138 1548.1 134.653 1548.1 128.25V127.523H1547.38C1543.01 134.653 1533.7 139.164 1523.51 139.164ZM1516.24 100.602C1516.24 114.281 1522.2 121.848 1532.24 121.848C1542.28 121.848 1547.81 114.281 1547.81 100.602C1547.81 87.0695 1542.14 79.3571 1532.24 79.3571C1522.2 79.3571 1516.24 87.0695 1516.24 100.602ZM1592.41 138C1591.25 138 1590.66 137.418 1590.66 136.254V64.9511C1590.66 63.7869 1591.25 63.2049 1592.41 63.2049H1611.47C1612.49 63.2049 1613.22 63.7869 1613.22 64.9511V73.8275H1613.8C1619.04 66.1152 1627.04 62.0408 1637.08 62.0408C1654.4 62.0408 1663.57 73.1 1663.57 95.0728V136.254C1663.57 137.418 1662.84 138 1661.82 138H1641.6C1640.58 138 1639.85 137.418 1639.85 136.254V95.0728C1639.85 84.5957 1635.92 79.6482 1627.19 79.6482C1618.46 79.6482 1614.24 84.5957 1614.24 95.0728V136.254C1614.24 137.418 1613.66 138 1612.64 138H1592.41ZM1706.83 139.164C1687.33 139.164 1675.54 124.467 1675.54 100.602C1675.54 76.4468 1687.04 62.0408 1706.83 62.0408C1716.14 62.0408 1724.73 66.5517 1729.53 73.8275H1730.26V64.9511C1730.26 63.7869 1730.84 63.2049 1732 63.2049H1752.23C1753.25 63.2049 1753.97 63.7869 1753.97 64.9511V121.702H1760.81C1761.83 121.702 1762.41 122.284 1762.41 123.448V136.254C1762.41 137.418 1761.83 138 1760.81 138H1743.06C1735.2 138 1731.42 134.653 1731.42 128.25V127.523H1730.69C1726.33 134.653 1717.01 139.164 1706.83 139.164ZM1699.55 100.602C1699.55 114.281 1705.52 121.848 1715.56 121.848C1725.6 121.848 1731.13 114.281 1731.13 100.602C1731.13 87.0695 1725.45 79.3571 1715.56 79.3571C1705.52 79.3571 1699.55 87.0695 1699.55 100.602ZM1835.14 139.164C1815.79 139.164 1803.86 124.467 1803.86 100.602C1803.86 76.4468 1815.5 62.0408 1835.14 62.0408C1844.6 62.0408 1853.19 66.5517 1857.99 73.8275H1858.72V34.9748C1858.72 33.8107 1859.3 33.2286 1860.32 33.2286H1880.55C1881.71 33.2286 1882.29 33.8107 1882.29 34.9748V136.254C1882.29 137.418 1881.71 138 1880.55 138H1861.48C1860.46 138 1859.74 137.418 1859.74 136.254V127.523H1859.16C1854.64 134.653 1845.48 139.164 1835.14 139.164ZM1828.01 100.602C1828.01 114.281 1833.84 121.848 1844.02 121.848C1853.92 121.848 1859.59 114.281 1859.59 100.602C1859.59 87.0695 1853.92 79.3571 1844.02 79.3571C1833.84 79.3571 1828.01 87.0695 1828.01 100.602ZM1935.82 139.164C1911.09 139.164 1895.66 124.322 1895.66 100.602C1895.66 77.0289 1911.23 62.0408 1935.68 62.0408C1959.69 62.0408 1973.8 76.3013 1973.8 100.457V104.531C1973.8 105.55 1973.22 106.132 1972.06 106.132H1919.82C1920.55 116.9 1926.22 123.012 1936.26 123.012C1943.83 123.012 1948.63 119.956 1950.23 114.863C1950.67 113.699 1951.25 113.408 1952.12 113.408H1971.77C1972.93 113.408 1973.66 113.844 1973.51 114.717C1971.04 129.706 1957.51 139.164 1935.82 139.164ZM1919.82 94.3453H1950.81C1950.23 84.0136 1944.99 78.193 1936.12 78.193C1926.37 78.193 1920.69 83.8681 1919.82 94.3453ZM1219.44 305.164C1194.26 305.164 1178.84 293.523 1176.22 272.86C1176.08 271.55 1176.8 270.968 1177.97 270.968H1198.34C1199.21 270.968 1199.79 271.404 1200.09 272.278C1201.98 282.318 1208.09 286.975 1219.15 286.975C1228.75 286.975 1234.43 282.609 1234.43 275.188C1234.43 268.64 1230.64 265.584 1220.89 263.983L1208.96 261.946C1188.01 258.599 1177.82 248.85 1177.82 231.824C1177.82 212.471 1191.94 200.975 1215.95 200.975C1239.23 200.975 1253.93 212.034 1256.84 231.388C1256.98 232.552 1256.25 233.279 1255.24 233.279H1234.86C1233.99 233.279 1233.26 232.988 1232.97 231.533C1231.08 222.948 1225.84 219.164 1216.38 219.164C1207.22 219.164 1202.27 222.948 1202.27 230.223C1202.27 236.772 1206.78 240.41 1216.38 242.156L1228.46 244.047C1250.29 247.54 1258.87 256.125 1258.87 274.169C1258.87 293.377 1243.74 305.164 1219.44 305.164ZM1275.52 304C1274.35 304 1273.77 303.418 1273.77 302.254V230.951C1273.77 229.787 1274.35 229.205 1275.52 229.205H1295.74C1296.76 229.205 1297.34 229.787 1297.34 230.951V302.254C1297.34 303.418 1296.76 304 1295.74 304H1275.52ZM1273.04 215.817V195.3C1273.04 194.281 1273.77 193.699 1274.79 193.699H1296.47C1297.49 193.699 1298.22 194.281 1298.22 195.3V215.817C1298.22 216.836 1297.49 217.418 1296.47 217.418H1274.79C1273.77 217.418 1273.04 216.836 1273.04 215.817ZM1345.68 305.164C1325.45 305.164 1313.38 296.87 1311.63 281.445C1311.48 280.281 1312.21 279.553 1313.23 279.553H1330.98C1332.15 279.553 1332.58 280.135 1332.88 281.154C1334.33 287.702 1338.7 289.885 1345.68 289.885C1351.79 289.885 1355.72 287.12 1355.72 283.046C1355.72 278.68 1353.1 277.08 1346.55 275.915L1336.22 274.024C1320.94 271.404 1313.38 265.002 1313.38 251.469C1313.38 237.208 1324.87 228.041 1344.37 228.041C1361.4 228.041 1373.47 235.171 1375.51 250.159C1375.8 251.469 1375.08 252.051 1374.06 252.051H1356.3C1355.14 252.051 1354.56 251.469 1354.27 250.45C1353.1 245.212 1350.05 243.174 1344.37 243.174C1338.41 243.174 1335.35 245.648 1335.35 250.014C1335.35 254.088 1337.68 255.98 1345.24 257.289L1355.72 259.181C1371.58 261.8 1377.69 268.058 1377.69 281.3C1377.69 297.306 1366.05 305.164 1345.68 305.164ZM1422.85 304C1407.72 304 1399.43 295.706 1399.43 280.426V245.503H1387.79C1386.62 245.503 1386.04 244.775 1386.04 243.756V230.951C1386.04 229.787 1386.62 229.205 1387.79 229.205H1399.43V208.687C1399.43 207.669 1400.01 207.086 1401.17 207.086H1421.4C1422.42 207.086 1423 207.669 1423 208.687V229.205H1440.03C1441.04 229.205 1441.77 229.787 1441.77 230.951V243.756C1441.77 244.775 1441.04 245.503 1440.03 245.503H1423V287.702H1439.88C1441.04 287.702 1441.63 288.284 1441.63 289.448V302.254C1441.63 303.418 1441.04 304 1439.88 304H1422.85ZM1489.47 305.164C1464.73 305.164 1449.31 290.322 1449.31 266.602C1449.31 243.029 1464.88 228.041 1489.33 228.041C1513.34 228.041 1527.45 242.301 1527.45 266.457V270.531C1527.45 271.55 1526.87 272.132 1525.71 272.132H1473.47C1474.19 282.9 1479.87 289.012 1489.91 289.012C1497.48 289.012 1502.28 285.956 1503.88 280.863C1504.31 279.699 1504.9 279.408 1505.77 279.408H1525.41C1526.58 279.408 1527.31 279.844 1527.16 280.717C1524.69 295.706 1511.15 305.164 1489.47 305.164ZM1473.47 260.345H1504.46C1503.88 250.014 1498.64 244.193 1489.76 244.193C1480.01 244.193 1474.34 249.868 1473.47 260.345ZM1542.53 304C1541.37 304 1540.79 303.418 1540.79 302.254V230.951C1540.79 229.787 1541.37 229.205 1542.53 229.205H1561.59C1562.61 229.205 1563.34 229.787 1563.34 230.951V239.828H1563.92C1569.02 232.115 1576.58 228.186 1586.62 228.186C1596.81 228.186 1603.94 231.97 1608.16 239.828H1608.89C1615 232.115 1623.73 228.186 1634.5 228.186C1651.38 228.186 1660.4 239.1 1660.4 260.636V302.254C1660.4 303.418 1659.67 304 1658.65 304H1638.43C1637.26 304 1636.68 303.418 1636.68 302.254V260.636C1636.68 250.45 1632.75 245.794 1624.46 245.794C1616.31 245.794 1612.38 250.596 1612.38 260.636V302.254C1612.38 303.418 1611.8 304 1610.63 304H1590.41C1589.39 304 1588.66 303.418 1588.66 302.254V260.636C1588.66 250.45 1584.88 245.794 1576.58 245.794C1568.29 245.794 1564.36 250.596 1564.36 260.636V302.254C1564.36 303.418 1563.78 304 1562.76 304H1542.53ZM1703.42 305.164C1683.92 305.164 1672.13 290.467 1672.13 266.602C1672.13 242.447 1683.63 228.041 1703.42 228.041C1712.73 228.041 1721.32 232.552 1726.12 239.828H1726.84V230.951C1726.84 229.787 1727.43 229.205 1728.59 229.205H1748.82C1749.84 229.205 1750.56 229.787 1750.56 230.951V287.702H1757.4C1758.42 287.702 1759 288.284 1759 289.448V302.254C1759 303.418 1758.42 304 1757.4 304H1739.65C1731.79 304 1728.01 300.653 1728.01 294.25V293.523H1727.28C1722.92 300.653 1713.6 305.164 1703.42 305.164ZM1696.14 266.602C1696.14 280.281 1702.11 287.848 1712.15 287.848C1722.19 287.848 1727.72 280.281 1727.72 266.602C1727.72 253.069 1722.04 245.357 1712.15 245.357C1702.11 245.357 1696.14 253.069 1696.14 266.602ZM1801.13 305.164C1780.9 305.164 1768.82 296.87 1767.08 281.445C1766.93 280.281 1767.66 279.553 1768.68 279.553H1786.43C1787.6 279.553 1788.03 280.135 1788.32 281.154C1789.78 287.702 1794.14 289.885 1801.13 289.885C1807.24 289.885 1811.17 287.12 1811.17 283.046C1811.17 278.68 1808.55 277.08 1802 275.915L1791.67 274.024C1776.39 271.404 1768.82 265.002 1768.82 251.469C1768.82 237.208 1780.32 228.041 1799.82 228.041C1816.84 228.041 1828.92 235.171 1830.96 250.159C1831.25 251.469 1830.52 252.051 1829.5 252.051H1811.75C1810.59 252.051 1810 251.469 1809.71 250.45C1808.55 245.212 1805.49 243.174 1799.82 243.174C1793.85 243.174 1790.8 245.648 1790.8 250.014C1790.8 254.088 1793.13 255.98 1800.69 257.289L1811.17 259.181C1827.03 261.8 1833.14 268.058 1833.14 281.3C1833.14 297.306 1821.5 305.164 1801.13 305.164ZM1908.47 305.164C1889.12 305.164 1877.19 290.467 1877.19 266.602C1877.19 242.447 1888.83 228.041 1908.47 228.041C1917.93 228.041 1926.52 232.552 1931.32 239.828H1932.04V200.975C1932.04 199.811 1932.63 199.229 1933.65 199.229H1953.87C1955.04 199.229 1955.62 199.811 1955.62 200.975V302.254C1955.62 303.418 1955.04 304 1953.87 304H1934.81C1933.79 304 1933.06 303.418 1933.06 302.254V293.523H1932.48C1927.97 300.653 1918.8 305.164 1908.47 305.164ZM1901.34 266.602C1901.34 280.281 1907.16 287.848 1917.35 287.848C1927.24 287.848 1932.92 280.281 1932.92 266.602C1932.92 253.069 1927.24 245.357 1917.35 245.357C1907.16 245.357 1901.34 253.069 1901.34 266.602ZM2009.15 305.164C1984.41 305.164 1968.99 290.322 1968.99 266.602C1968.99 243.029 1984.56 228.041 2009.01 228.041C2033.02 228.041 2047.13 242.301 2047.13 266.457V270.531C2047.13 271.55 2046.55 272.132 2045.38 272.132H1993.14C1993.87 282.9 1999.55 289.012 2009.59 289.012C2017.15 289.012 2021.96 285.956 2023.56 280.863C2023.99 279.699 2024.58 279.408 2025.45 279.408H2045.09C2046.26 279.408 2046.99 279.844 2046.84 280.717C2044.37 295.706 2030.83 305.164 2009.15 305.164ZM1993.14 260.345H2024.14C2023.56 250.014 2018.32 244.193 2009.44 244.193C1999.69 244.193 1994.02 249.868 1993.14 260.345ZM1182.19 470C1181.02 470 1180.44 469.418 1180.44 468.254V369.885C1180.44 368.721 1181.02 368.139 1182.19 368.139H1203C1204.01 368.139 1204.6 368.721 1204.6 369.885V468.254C1204.6 469.418 1204.01 470 1203 470H1182.19ZM1225.5 470C1224.33 470 1223.75 469.418 1223.75 468.254V396.951C1223.75 395.787 1224.33 395.205 1225.5 395.205H1244.56C1245.58 395.205 1246.3 395.787 1246.3 396.951V405.828H1246.89C1252.12 398.115 1260.13 394.041 1270.17 394.041C1287.48 394.041 1296.65 405.1 1296.65 427.073V468.254C1296.65 469.418 1295.92 470 1294.91 470H1274.68C1273.66 470 1272.93 469.418 1272.93 468.254V427.073C1272.93 416.596 1269 411.648 1260.27 411.648C1251.54 411.648 1247.32 416.596 1247.32 427.073V468.254C1247.32 469.418 1246.74 470 1245.72 470H1225.5ZM1322.3 470C1321.14 470 1320.56 469.418 1320.56 468.254V412.667H1308.92C1307.75 412.667 1307.17 412.085 1307.17 410.921V398.115C1307.17 397.097 1307.75 396.369 1308.92 396.369H1320.56V388.657C1320.56 373.523 1328.85 365.229 1343.99 365.229H1361.01C1362.18 365.229 1362.76 365.811 1362.76 366.975V379.78C1362.76 380.944 1362.18 381.526 1361.01 381.526H1344.13V396.369H1361.16C1362.18 396.369 1362.9 397.097 1362.9 398.115V410.921C1362.9 412.085 1362.18 412.667 1361.16 412.667H1344.13V468.254C1344.13 469.418 1343.55 470 1342.53 470H1322.3ZM1408.89 471.164C1384.74 471.164 1369.02 455.885 1369.02 432.602C1369.02 409.32 1384.74 394.186 1408.89 394.186C1433.05 394.186 1448.91 409.32 1448.91 432.602C1448.91 455.885 1433.05 471.164 1408.89 471.164ZM1393.03 432.602C1393.03 446.863 1398.56 454.43 1408.89 454.43C1419.08 454.43 1424.9 446.863 1424.9 432.602C1424.9 418.487 1419.08 410.775 1408.89 410.775C1398.71 410.775 1393.03 418.487 1393.03 432.602ZM1462.93 470C1461.91 470 1461.33 469.418 1461.33 468.254V418.633C1461.33 403.499 1469.62 395.205 1484.75 395.205H1508.91C1509.93 395.205 1510.51 395.787 1510.51 396.951V411.794C1510.51 412.812 1509.93 413.394 1508.91 413.394H1484.9V468.254C1484.9 469.418 1484.32 470 1483.3 470H1462.93ZM1524.91 470C1523.75 470 1523.16 469.418 1523.16 468.254V396.951C1523.16 395.787 1523.75 395.205 1524.91 395.205H1543.97C1544.99 395.205 1545.72 395.787 1545.72 396.951V405.828H1546.3C1551.39 398.115 1558.96 394.186 1569 394.186C1579.19 394.186 1586.32 397.97 1590.54 405.828H1591.27C1597.38 398.115 1606.11 394.186 1616.88 394.186C1633.76 394.186 1642.78 405.1 1642.78 426.636V468.254C1642.78 469.418 1642.05 470 1641.03 470H1620.81C1619.64 470 1619.06 469.418 1619.06 468.254V426.636C1619.06 416.45 1615.13 411.794 1606.84 411.794C1598.69 411.794 1594.76 416.596 1594.76 426.636V468.254C1594.76 469.418 1594.18 470 1593.01 470H1572.79C1571.77 470 1571.04 469.418 1571.04 468.254V426.636C1571.04 416.45 1567.26 411.794 1558.96 411.794C1550.67 411.794 1546.74 416.596 1546.74 426.636V468.254C1546.74 469.418 1546.16 470 1545.14 470H1524.91ZM1685.8 471.164C1666.3 471.164 1654.51 456.467 1654.51 432.602C1654.51 408.447 1666.01 394.041 1685.8 394.041C1695.11 394.041 1703.69 398.552 1708.5 405.828H1709.22V396.951C1709.22 395.787 1709.81 395.205 1710.97 395.205H1731.2C1732.22 395.205 1732.94 395.787 1732.94 396.951V453.702H1739.78C1740.8 453.702 1741.38 454.284 1741.38 455.448V468.254C1741.38 469.418 1740.8 470 1739.78 470H1722.03C1714.17 470 1710.39 466.653 1710.39 460.25V459.523H1709.66C1705.29 466.653 1695.98 471.164 1685.8 471.164ZM1678.52 432.602C1678.52 446.281 1684.49 453.848 1694.53 453.848C1704.57 453.848 1710.1 446.281 1710.1 432.602C1710.1 419.069 1704.42 411.357 1694.53 411.357C1684.49 411.357 1678.52 419.069 1678.52 432.602ZM1787.73 471.455C1779.87 471.455 1773.18 470.049 1767.65 467.235C1762.12 464.325 1757.9 459.862 1754.99 453.848C1752.08 447.833 1750.62 440.121 1750.62 430.711C1750.62 421.01 1752.27 413.103 1755.57 406.992C1758.87 400.88 1763.43 396.369 1769.25 393.459C1775.16 390.548 1781.96 389.093 1789.62 389.093C1795.05 389.093 1799.76 389.627 1803.73 390.694C1807.81 391.761 1811.35 393.022 1814.36 394.477L1807.95 411.212C1804.56 409.853 1801.36 408.738 1798.35 407.865C1795.44 406.992 1792.53 406.555 1789.62 406.555C1785.84 406.555 1782.68 407.477 1780.16 409.32C1777.64 411.066 1775.75 413.734 1774.49 417.323C1773.32 420.816 1772.74 425.23 1772.74 430.565C1772.74 435.804 1773.37 440.169 1774.63 443.662C1775.99 447.057 1777.93 449.628 1780.45 451.374C1782.97 453.023 1786.03 453.848 1789.62 453.848C1794.18 453.848 1798.2 453.266 1801.7 452.102C1805.19 450.84 1808.58 449.143 1811.88 447.009V465.489C1808.58 467.623 1805.09 469.127 1801.41 470C1797.82 470.97 1793.26 471.455 1787.73 471.455ZM1803.3 487.753C1803.3 491.342 1802.62 494.398 1801.26 496.92C1799.9 499.54 1797.62 501.528 1794.42 502.887C1791.22 504.245 1786.85 504.924 1781.32 504.924C1779.19 504.924 1777.25 504.778 1775.5 504.487C1773.85 504.196 1772.35 503.857 1770.99 503.469V491.536C1772.35 491.924 1774 492.264 1775.94 492.555C1777.98 492.846 1779.72 492.991 1781.18 492.991C1782.54 492.991 1783.7 492.652 1784.67 491.973C1785.74 491.391 1786.27 490.275 1786.27 488.626C1786.27 486.88 1785.4 485.328 1783.65 483.97C1781.91 482.611 1778.85 481.593 1774.49 480.914L1780.01 470H1793.69L1791.8 474.365C1793.74 474.948 1795.59 475.821 1797.33 476.985C1799.08 478.246 1800.48 479.75 1801.55 481.496C1802.72 483.242 1803.3 485.328 1803.3 487.753ZM1862.77 388.948C1873.44 388.948 1881.59 391.276 1887.21 395.932C1892.94 400.492 1895.8 407.525 1895.8 417.032V470H1880.66L1876.44 459.232H1875.86C1873.63 462.045 1871.3 464.373 1868.88 466.217C1866.55 468.06 1863.83 469.369 1860.73 470.146C1857.72 471.019 1853.99 471.455 1849.52 471.455C1844.87 471.455 1840.65 470.582 1836.86 468.836C1833.18 466.993 1830.27 464.228 1828.13 460.541C1826 456.758 1824.93 452.005 1824.93 446.281C1824.93 437.841 1827.89 431.632 1833.81 427.655C1839.73 423.58 1848.6 421.349 1860.44 420.961L1874.26 420.525V417.032C1874.26 412.861 1873.15 409.805 1870.91 407.865C1868.78 405.925 1865.77 404.954 1861.89 404.954C1858.01 404.954 1854.23 405.536 1850.54 406.701C1846.86 407.768 1843.17 409.126 1839.48 410.775L1832.35 396.078C1836.62 393.847 1841.33 392.101 1846.47 390.839C1851.71 389.578 1857.14 388.948 1862.77 388.948ZM1865.82 433.476C1858.84 433.67 1853.99 434.931 1851.27 437.259C1848.55 439.587 1847.2 442.643 1847.2 446.426C1847.2 449.725 1848.17 452.102 1850.11 453.557C1852.05 454.915 1854.57 455.594 1857.67 455.594C1862.33 455.594 1866.26 454.236 1869.46 451.519C1872.66 448.706 1874.26 444.777 1874.26 439.733V433.185L1865.82 433.476ZM1833.37 381.963C1833.66 378.18 1834.34 374.93 1835.41 372.213C1836.57 369.4 1838.03 367.12 1839.77 365.374C1841.52 363.531 1843.46 362.173 1845.59 361.3C1847.83 360.427 1850.2 359.99 1852.73 359.99C1854.67 359.99 1856.56 360.378 1858.4 361.154C1860.34 361.833 1862.18 362.706 1863.93 363.773C1865.77 364.744 1867.57 365.617 1869.31 366.393C1871.06 367.072 1872.81 367.411 1874.55 367.411C1876.01 367.411 1877.41 366.781 1878.77 365.52C1880.13 364.259 1881.1 362.367 1881.68 359.845H1892.31C1891.72 367.314 1889.59 372.844 1885.9 376.433C1882.22 380.023 1877.9 381.817 1872.95 381.817C1871.01 381.817 1869.12 381.478 1867.28 380.799C1865.43 380.023 1863.59 379.15 1861.75 378.18C1859.9 377.112 1858.11 376.239 1856.36 375.56C1854.62 374.784 1852.87 374.396 1851.12 374.396C1849.67 374.396 1848.26 375.027 1846.9 376.288C1845.55 377.549 1844.58 379.441 1843.99 381.963H1833.37ZM1951.02 471.164C1926.87 471.164 1911.15 455.885 1911.15 432.602C1911.15 409.32 1926.87 394.186 1951.02 394.186C1975.18 394.186 1991.04 409.32 1991.04 432.602C1991.04 455.885 1975.18 471.164 1951.02 471.164ZM1935.16 432.602C1935.16 446.863 1940.69 454.43 1951.02 454.43C1961.21 454.43 1967.03 446.863 1967.03 432.602C1967.03 418.487 1961.21 410.775 1951.02 410.775C1940.84 410.775 1935.16 418.487 1935.16 432.602Z" fill="#3E0672"/>
</svg>
