<svg width="472" height="128" viewBox="0 0 472 128" fill="none" xmlns="http://www.w3.org/2000/svg">
<g clip-path="url(#clip0_416_8049)">
<g filter="url(#filter0_d_416_8049)">
<path d="M278.344 38.75C275.583 38.75 273.38 38.1354 271.734 36.9062C270.099 35.6771 269.135 33.9271 268.844 31.6562C268.812 31.375 268.943 31.2344 269.234 31.2344H273.703C273.901 31.2344 274.031 31.3333 274.094 31.5312C274.302 32.6354 274.745 33.4479 275.422 33.9688C276.109 34.4896 277.062 34.75 278.281 34.75C279.333 34.75 280.156 34.5208 280.75 34.0625C281.344 33.6042 281.641 32.9688 281.641 32.1562C281.641 31.4375 281.411 30.8958 280.953 30.5312C280.505 30.1562 279.745 29.8802 278.672 29.7031L276.047 29.25C273.734 28.8854 272.016 28.1615 270.891 27.0781C269.766 25.9844 269.203 24.5 269.203 22.625C269.203 20.5 269.938 18.8385 271.406 17.6406C272.885 16.4427 274.943 15.8438 277.578 15.8438C280.13 15.8438 282.188 16.4271 283.75 17.5938C285.312 18.7604 286.255 20.4062 286.578 22.5312C286.589 22.6562 286.557 22.7604 286.484 22.8438C286.422 22.9167 286.333 22.9531 286.219 22.9531H281.734C281.516 22.9531 281.38 22.8229 281.328 22.5625C281.12 21.625 280.719 20.9375 280.125 20.5C279.531 20.0625 278.714 19.8438 277.672 19.8438C276.661 19.8438 275.891 20.0521 275.359 20.4688C274.839 20.8854 274.578 21.4896 274.578 22.2812C274.578 23 274.828 23.5677 275.328 23.9844C275.828 24.401 276.609 24.7083 277.672 24.9062L280.328 25.3125C282.724 25.6979 284.438 26.401 285.469 27.4219C286.5 28.4427 287.016 29.9479 287.016 31.9375C287.016 34.0417 286.24 35.7031 284.688 36.9219C283.135 38.1406 281.021 38.75 278.344 38.75ZM298.172 38.75C295.453 38.75 293.297 37.9896 291.703 36.4688C290.12 34.9479 289.328 32.8854 289.328 30.2812C289.328 27.6875 290.125 25.625 291.719 24.0938C293.312 22.5625 295.453 21.7969 298.141 21.7969C300.776 21.7969 302.828 22.5417 304.297 24.0312C305.776 25.5208 306.516 27.5938 306.516 30.25V31.1406C306.516 31.3698 306.391 31.4844 306.141 31.4844H294.641C294.724 32.6823 295.073 33.6042 295.688 34.25C296.312 34.8854 297.172 35.2031 298.266 35.2031C299.922 35.2031 300.943 34.6042 301.328 33.4062C301.401 33.1979 301.542 33.0938 301.75 33.0938H306.078C306.203 33.0938 306.297 33.1198 306.359 33.1719C306.432 33.2135 306.464 33.2812 306.453 33.375C306.172 35.0417 305.307 36.3542 303.859 37.3125C302.422 38.2708 300.526 38.75 298.172 38.75ZM294.641 28.9062H301.469C301.406 27.7708 301.094 26.8958 300.531 26.2812C299.979 25.6562 299.214 25.3438 298.234 25.3438C297.161 25.3438 296.318 25.651 295.703 26.2656C295.089 26.8802 294.734 27.7604 294.641 28.9062ZM309.844 38.5C309.583 38.5 309.453 38.3698 309.453 38.1094V22.4375C309.453 22.1771 309.583 22.0469 309.844 22.0469H314.031C314.281 22.0469 314.406 22.1771 314.406 22.4375V24.3906H314.547C315.672 22.6823 317.333 21.8281 319.531 21.8281C321.781 21.8281 323.359 22.6823 324.266 24.3906H324.422C325.766 22.6823 327.646 21.8281 330.062 21.8281C331.927 21.8281 333.339 22.4323 334.297 23.6406C335.266 24.8385 335.75 26.6146 335.75 28.9688V38.1094C335.75 38.3698 335.625 38.5 335.375 38.5H330.922C330.672 38.5 330.547 38.3698 330.547 38.1094V28.9688C330.547 27.8542 330.328 27.0312 329.891 26.5C329.453 25.9688 328.776 25.7031 327.859 25.7031C326.089 25.7031 325.203 26.7917 325.203 28.9688V38.1094C325.203 38.3698 325.073 38.5 324.812 38.5H320.359C320.109 38.5 319.984 38.3698 319.984 38.1094V28.9688C319.984 27.8542 319.771 27.0312 319.344 26.5C318.917 25.9688 318.245 25.7031 317.328 25.7031C316.411 25.7031 315.734 25.974 315.297 26.5156C314.859 27.0469 314.641 27.8646 314.641 28.9688V38.1094C314.641 38.3698 314.521 38.5 314.281 38.5H309.844ZM345.219 38.75C343.083 38.75 341.401 37.9948 340.172 36.4844C338.943 34.974 338.328 32.9062 338.328 30.2812C338.328 27.6146 338.932 25.5365 340.141 24.0469C341.349 22.5469 343.042 21.7969 345.219 21.7969C346.24 21.7969 347.193 22.0312 348.078 22.5C348.964 22.9583 349.672 23.5885 350.203 24.3906H350.375V22.4375C350.375 22.1771 350.5 22.0469 350.75 22.0469H355.203C355.453 22.0469 355.578 22.1771 355.578 22.4375V34.9219H357.094C357.323 34.9219 357.438 35.0469 357.438 35.2969V38.1094C357.438 38.3698 357.323 38.5 357.094 38.5H353.188C351.479 38.5 350.625 37.7865 350.625 36.3594V36.2031H350.469C349.99 36.9844 349.276 37.6042 348.328 38.0625C347.38 38.5208 346.344 38.75 345.219 38.75ZM343.609 30.2812C343.609 31.7812 343.917 32.9375 344.531 33.75C345.156 34.5521 346.026 34.9531 347.141 34.9531C348.245 34.9531 349.089 34.5521 349.672 33.75C350.266 32.9479 350.562 31.7917 350.562 30.2812C350.562 28.8021 350.26 27.6562 349.656 26.8438C349.062 26.0208 348.224 25.6094 347.141 25.6094C346.036 25.6094 345.172 26.0208 344.547 26.8438C343.922 27.6562 343.609 28.8021 343.609 30.2812ZM360.375 38.5C360.115 38.5 359.984 38.3698 359.984 38.1094V22.4375C359.984 22.1771 360.115 22.0469 360.375 22.0469H364.562C364.812 22.0469 364.938 22.1771 364.938 22.4375V24.3906H365.078C366.255 22.6615 367.958 21.7969 370.188 21.7969C372.104 21.7969 373.552 22.4062 374.531 23.625C375.521 24.8438 376.016 26.6562 376.016 29.0625V38.1094C376.016 38.3698 375.885 38.5 375.625 38.5H371.188C370.927 38.5 370.797 38.3698 370.797 38.1094V29.0625C370.797 27.9062 370.573 27.0521 370.125 26.5C369.677 25.9479 368.974 25.6719 368.016 25.6719C367.057 25.6719 366.344 25.9531 365.875 26.5156C365.406 27.0677 365.172 27.9167 365.172 29.0625V38.1094C365.172 38.3698 365.052 38.5 364.812 38.5H360.375ZM385.531 38.75C383.396 38.75 381.714 37.9948 380.484 36.4844C379.255 34.974 378.641 32.9062 378.641 30.2812C378.641 27.6146 379.245 25.5365 380.453 24.0469C381.661 22.5469 383.354 21.7969 385.531 21.7969C386.552 21.7969 387.505 22.0312 388.391 22.5C389.276 22.9583 389.984 23.5885 390.516 24.3906H390.688V22.4375C390.688 22.1771 390.812 22.0469 391.062 22.0469H395.516C395.766 22.0469 395.891 22.1771 395.891 22.4375V34.9219H397.406C397.635 34.9219 397.75 35.0469 397.75 35.2969V38.1094C397.75 38.3698 397.635 38.5 397.406 38.5H393.5C391.792 38.5 390.938 37.7865 390.938 36.3594V36.2031H390.781C390.302 36.9844 389.589 37.6042 388.641 38.0625C387.693 38.5208 386.656 38.75 385.531 38.75ZM383.922 30.2812C383.922 31.7812 384.229 32.9375 384.844 33.75C385.469 34.5521 386.339 34.9531 387.453 34.9531C388.557 34.9531 389.401 34.5521 389.984 33.75C390.578 32.9479 390.875 31.7917 390.875 30.2812C390.875 28.8021 390.573 27.6562 389.969 26.8438C389.375 26.0208 388.536 25.6094 387.453 25.6094C386.349 25.6094 385.484 26.0208 384.859 26.8438C384.234 27.6562 383.922 28.8021 383.922 30.2812ZM413.75 38.75C411.625 38.75 409.943 37.9948 408.703 36.4844C407.474 34.974 406.859 32.9062 406.859 30.2812C406.859 27.625 407.469 25.5469 408.688 24.0469C409.906 22.5469 411.594 21.7969 413.75 21.7969C414.781 21.7969 415.74 22.0312 416.625 22.5C417.521 22.9583 418.234 23.5885 418.766 24.3906H418.938V15.8438C418.938 15.5833 419.052 15.4531 419.281 15.4531H423.734C423.984 15.4531 424.109 15.5833 424.109 15.8438V38.1094C424.109 38.3698 423.984 38.5 423.734 38.5H419.531C419.281 38.5 419.156 38.3698 419.156 38.1094V36.2031H419.031C418.542 36.9844 417.823 37.6042 416.875 38.0625C415.927 38.5208 414.885 38.75 413.75 38.75ZM412.172 30.2812C412.172 31.7812 412.479 32.9375 413.094 33.75C413.708 34.5521 414.578 34.9531 415.703 34.9531C416.797 34.9531 417.641 34.5521 418.234 33.75C418.828 32.9375 419.125 31.7812 419.125 30.2812C419.125 28.8021 418.823 27.6562 418.219 26.8438C417.625 26.0208 416.786 25.6094 415.703 25.6094C414.589 25.6094 413.719 26.0208 413.094 26.8438C412.479 27.6562 412.172 28.8021 412.172 30.2812ZM435.891 38.75C433.172 38.75 431.016 37.9896 429.422 36.4688C427.839 34.9479 427.047 32.8854 427.047 30.2812C427.047 27.6875 427.844 25.625 429.438 24.0938C431.031 22.5625 433.172 21.7969 435.859 21.7969C438.495 21.7969 440.547 22.5417 442.016 24.0312C443.495 25.5208 444.234 27.5938 444.234 30.25V31.1406C444.234 31.3698 444.109 31.4844 443.859 31.4844H432.359C432.443 32.6823 432.792 33.6042 433.406 34.25C434.031 34.8854 434.891 35.2031 435.984 35.2031C437.641 35.2031 438.661 34.6042 439.047 33.4062C439.12 33.1979 439.26 33.0938 439.469 33.0938H443.797C443.922 33.0938 444.016 33.1198 444.078 33.1719C444.151 33.2135 444.182 33.2812 444.172 33.375C443.891 35.0417 443.026 36.3542 441.578 37.3125C440.141 38.2708 438.245 38.75 435.891 38.75ZM432.359 28.9062H439.188C439.125 27.7708 438.812 26.8958 438.25 26.2812C437.698 25.6562 436.932 25.3438 435.953 25.3438C434.88 25.3438 434.036 25.651 433.422 26.2656C432.807 26.8802 432.453 27.7604 432.359 28.9062ZM278.344 75.75C275.583 75.75 273.38 75.1354 271.734 73.9062C270.099 72.6771 269.135 70.9271 268.844 68.6562C268.812 68.375 268.943 68.2344 269.234 68.2344H273.703C273.901 68.2344 274.031 68.3333 274.094 68.5312C274.302 69.6354 274.745 70.4479 275.422 70.9688C276.109 71.4896 277.062 71.75 278.281 71.75C279.333 71.75 280.156 71.5208 280.75 71.0625C281.344 70.6042 281.641 69.9688 281.641 69.1562C281.641 68.4375 281.411 67.8958 280.953 67.5312C280.505 67.1562 279.745 66.8802 278.672 66.7031L276.047 66.25C273.734 65.8854 272.016 65.1615 270.891 64.0781C269.766 62.9844 269.203 61.5 269.203 59.625C269.203 57.5 269.938 55.8385 271.406 54.6406C272.885 53.4427 274.943 52.8438 277.578 52.8438C280.13 52.8438 282.188 53.4271 283.75 54.5938C285.312 55.7604 286.255 57.4062 286.578 59.5312C286.589 59.6562 286.557 59.7604 286.484 59.8438C286.422 59.9167 286.333 59.9531 286.219 59.9531H281.734C281.516 59.9531 281.38 59.8229 281.328 59.5625C281.12 58.625 280.719 57.9375 280.125 57.5C279.531 57.0625 278.714 56.8438 277.672 56.8438C276.661 56.8438 275.891 57.0521 275.359 57.4688C274.839 57.8854 274.578 58.4896 274.578 59.2812C274.578 60 274.828 60.5677 275.328 60.9844C275.828 61.401 276.609 61.7083 277.672 61.9062L280.328 62.3125C282.724 62.6979 284.438 63.401 285.469 64.4219C286.5 65.4427 287.016 66.9479 287.016 68.9375C287.016 71.0417 286.24 72.7031 284.688 73.9219C283.135 75.1406 281.021 75.75 278.344 75.75ZM290.688 75.5C290.427 75.5 290.297 75.3698 290.297 75.1094V59.4375C290.297 59.1771 290.427 59.0469 290.688 59.0469H295.125C295.365 59.0469 295.484 59.1771 295.484 59.4375V75.1094C295.484 75.3698 295.365 75.5 295.125 75.5H290.688ZM290.141 56.1094V51.5938C290.141 51.3646 290.266 51.25 290.516 51.25H295.281C295.542 51.25 295.672 51.3646 295.672 51.5938V56.1094C295.672 56.3385 295.542 56.4531 295.281 56.4531H290.516C290.266 56.4531 290.141 56.3385 290.141 56.1094ZM306.109 75.75C303.88 75.75 302.125 75.3073 300.844 74.4219C299.562 73.526 298.823 72.2344 298.625 70.5469C298.615 70.4219 298.641 70.3229 298.703 70.25C298.766 70.1667 298.854 70.125 298.969 70.125H302.875C303.094 70.125 303.234 70.2396 303.297 70.4688C303.443 71.1667 303.745 71.6615 304.203 71.9531C304.672 72.2448 305.307 72.3906 306.109 72.3906C306.776 72.3906 307.307 72.2552 307.703 71.9844C308.109 71.7031 308.312 71.3385 308.312 70.8906C308.312 70.4219 308.161 70.0781 307.859 69.8594C307.557 69.6302 307.036 69.4531 306.297 69.3281L304.031 68.9062C302.312 68.6146 301.042 68.0833 300.219 67.3125C299.406 66.5312 299 65.4115 299 63.9531C299 62.3698 299.604 61.1146 300.812 60.1875C302.031 59.2604 303.703 58.7969 305.828 58.7969C307.755 58.7969 309.323 59.2083 310.531 60.0312C311.74 60.8438 312.453 62.0521 312.672 63.6562C312.703 63.7917 312.682 63.8958 312.609 63.9688C312.547 64.0417 312.458 64.0781 312.344 64.0781H308.453C308.224 64.0781 308.073 63.9583 308 63.7188C307.875 63.1458 307.641 62.7396 307.297 62.5C306.953 62.25 306.464 62.125 305.828 62.125C305.182 62.125 304.688 62.2552 304.344 62.5156C304.01 62.776 303.844 63.1458 303.844 63.625C303.844 64.0729 304 64.4219 304.312 64.6719C304.635 64.9115 305.203 65.099 306.016 65.2344L308.312 65.6406C310.052 65.9323 311.292 66.4531 312.031 67.2031C312.781 67.9531 313.156 69.0573 313.156 70.5156C313.156 72.2552 312.547 73.5625 311.328 74.4375C310.12 75.3125 308.38 75.75 306.109 75.75ZM323.078 75.5C321.411 75.5 320.135 75.0573 319.25 74.1719C318.365 73.276 317.922 71.9896 317.922 70.3125V62.6406H315.375C315.115 62.6406 314.984 62.5104 314.984 62.25V59.4375C314.984 59.1771 315.115 59.0469 315.375 59.0469H317.922V54.5469C317.922 54.3073 318.052 54.1875 318.312 54.1875H322.766C322.995 54.1875 323.109 54.3073 323.109 54.5469V59.0469H326.859C327.109 59.0469 327.234 59.1771 327.234 59.4375V62.25C327.234 62.3646 327.198 62.4583 327.125 62.5312C327.052 62.6042 326.964 62.6406 326.859 62.6406H323.109V71.9219H326.828C327.078 71.9219 327.203 72.0469 327.203 72.2969V75.1094C327.203 75.3698 327.078 75.5 326.828 75.5H323.078ZM337.703 75.75C334.984 75.75 332.828 74.9896 331.234 73.4688C329.651 71.9479 328.859 69.8854 328.859 67.2812C328.859 64.6875 329.656 62.625 331.25 61.0938C332.844 59.5625 334.984 58.7969 337.672 58.7969C340.307 58.7969 342.359 59.5417 343.828 61.0312C345.307 62.5208 346.047 64.5938 346.047 67.25V68.1406C346.047 68.3698 345.922 68.4844 345.672 68.4844H334.172C334.255 69.6823 334.604 70.6042 335.219 71.25C335.844 71.8854 336.703 72.2031 337.797 72.2031C339.453 72.2031 340.474 71.6042 340.859 70.4062C340.932 70.1979 341.073 70.0938 341.281 70.0938H345.609C345.734 70.0938 345.828 70.1198 345.891 70.1719C345.964 70.2135 345.995 70.2812 345.984 70.375C345.703 72.0417 344.839 73.3542 343.391 74.3125C341.953 75.2708 340.057 75.75 337.703 75.75ZM334.172 65.9062H341C340.938 64.7708 340.625 63.8958 340.062 63.2812C339.51 62.6562 338.745 62.3438 337.766 62.3438C336.693 62.3438 335.849 62.651 335.234 63.2656C334.62 63.8802 334.266 64.7604 334.172 65.9062ZM349.375 75.5C349.115 75.5 348.984 75.3698 348.984 75.1094V59.4375C348.984 59.1771 349.115 59.0469 349.375 59.0469H353.562C353.812 59.0469 353.938 59.1771 353.938 59.4375V61.3906H354.078C355.203 59.6823 356.865 58.8281 359.062 58.8281C361.312 58.8281 362.891 59.6823 363.797 61.3906H363.953C365.297 59.6823 367.177 58.8281 369.594 58.8281C371.458 58.8281 372.87 59.4323 373.828 60.6406C374.797 61.8385 375.281 63.6146 375.281 65.9688V75.1094C375.281 75.3698 375.156 75.5 374.906 75.5H370.453C370.203 75.5 370.078 75.3698 370.078 75.1094V65.9688C370.078 64.8542 369.859 64.0312 369.422 63.5C368.984 62.9688 368.307 62.7031 367.391 62.7031C365.62 62.7031 364.734 63.7917 364.734 65.9688V75.1094C364.734 75.3698 364.604 75.5 364.344 75.5H359.891C359.641 75.5 359.516 75.3698 359.516 75.1094V65.9688C359.516 64.8542 359.302 64.0312 358.875 63.5C358.448 62.9688 357.776 62.7031 356.859 62.7031C355.943 62.7031 355.266 62.974 354.828 63.5156C354.391 64.0469 354.172 64.8646 354.172 65.9688V75.1094C354.172 75.3698 354.052 75.5 353.812 75.5H349.375ZM384.75 75.75C382.615 75.75 380.932 74.9948 379.703 73.4844C378.474 71.974 377.859 69.9062 377.859 67.2812C377.859 64.6146 378.464 62.5365 379.672 61.0469C380.88 59.5469 382.573 58.7969 384.75 58.7969C385.771 58.7969 386.724 59.0312 387.609 59.5C388.495 59.9583 389.203 60.5885 389.734 61.3906H389.906V59.4375C389.906 59.1771 390.031 59.0469 390.281 59.0469H394.734C394.984 59.0469 395.109 59.1771 395.109 59.4375V71.9219H396.625C396.854 71.9219 396.969 72.0469 396.969 72.2969V75.1094C396.969 75.3698 396.854 75.5 396.625 75.5H392.719C391.01 75.5 390.156 74.7865 390.156 73.3594V73.2031H390C389.521 73.9844 388.807 74.6042 387.859 75.0625C386.911 75.5208 385.875 75.75 384.75 75.75ZM383.141 67.2812C383.141 68.7812 383.448 69.9375 384.062 70.75C384.688 71.5521 385.557 71.9531 386.672 71.9531C387.776 71.9531 388.62 71.5521 389.203 70.75C389.797 69.9479 390.094 68.7917 390.094 67.2812C390.094 65.8021 389.792 64.6562 389.188 63.8438C388.594 63.0208 387.755 62.6094 386.672 62.6094C385.568 62.6094 384.703 63.0208 384.078 63.8438C383.453 64.6562 383.141 65.8021 383.141 67.2812ZM406.234 75.75C404.005 75.75 402.25 75.3073 400.969 74.4219C399.688 73.526 398.948 72.2344 398.75 70.5469C398.74 70.4219 398.766 70.3229 398.828 70.25C398.891 70.1667 398.979 70.125 399.094 70.125H403C403.219 70.125 403.359 70.2396 403.422 70.4688C403.568 71.1667 403.87 71.6615 404.328 71.9531C404.797 72.2448 405.432 72.3906 406.234 72.3906C406.901 72.3906 407.432 72.2552 407.828 71.9844C408.234 71.7031 408.438 71.3385 408.438 70.8906C408.438 70.4219 408.286 70.0781 407.984 69.8594C407.682 69.6302 407.161 69.4531 406.422 69.3281L404.156 68.9062C402.438 68.6146 401.167 68.0833 400.344 67.3125C399.531 66.5312 399.125 65.4115 399.125 63.9531C399.125 62.3698 399.729 61.1146 400.938 60.1875C402.156 59.2604 403.828 58.7969 405.953 58.7969C407.88 58.7969 409.448 59.2083 410.656 60.0312C411.865 60.8438 412.578 62.0521 412.797 63.6562C412.828 63.7917 412.807 63.8958 412.734 63.9688C412.672 64.0417 412.583 64.0781 412.469 64.0781H408.578C408.349 64.0781 408.198 63.9583 408.125 63.7188C408 63.1458 407.766 62.7396 407.422 62.5C407.078 62.25 406.589 62.125 405.953 62.125C405.307 62.125 404.812 62.2552 404.469 62.5156C404.135 62.776 403.969 63.1458 403.969 63.625C403.969 64.0729 404.125 64.4219 404.438 64.6719C404.76 64.9115 405.328 65.099 406.141 65.2344L408.438 65.6406C410.177 65.9323 411.417 66.4531 412.156 67.2031C412.906 67.9531 413.281 69.0573 413.281 70.5156C413.281 72.2552 412.672 73.5625 411.453 74.4375C410.245 75.3125 408.505 75.75 406.234 75.75ZM429.844 75.75C427.719 75.75 426.036 74.9948 424.797 73.4844C423.568 71.974 422.953 69.9062 422.953 67.2812C422.953 64.625 423.562 62.5469 424.781 61.0469C426 59.5469 427.688 58.7969 429.844 58.7969C430.875 58.7969 431.833 59.0312 432.719 59.5C433.615 59.9583 434.328 60.5885 434.859 61.3906H435.031V52.8438C435.031 52.5833 435.146 52.4531 435.375 52.4531H439.828C440.078 52.4531 440.203 52.5833 440.203 52.8438V75.1094C440.203 75.3698 440.078 75.5 439.828 75.5H435.625C435.375 75.5 435.25 75.3698 435.25 75.1094V73.2031H435.125C434.635 73.9844 433.917 74.6042 432.969 75.0625C432.021 75.5208 430.979 75.75 429.844 75.75ZM428.266 67.2812C428.266 68.7812 428.573 69.9375 429.188 70.75C429.802 71.5521 430.672 71.9531 431.797 71.9531C432.891 71.9531 433.734 71.5521 434.328 70.75C434.922 69.9375 435.219 68.7812 435.219 67.2812C435.219 65.8021 434.917 64.6562 434.312 63.8438C433.719 63.0208 432.88 62.6094 431.797 62.6094C430.682 62.6094 429.812 63.0208 429.188 63.8438C428.573 64.6562 428.266 65.8021 428.266 67.2812ZM451.984 75.75C449.266 75.75 447.109 74.9896 445.516 73.4688C443.932 71.9479 443.141 69.8854 443.141 67.2812C443.141 64.6875 443.938 62.625 445.531 61.0938C447.125 59.5625 449.266 58.7969 451.953 58.7969C454.589 58.7969 456.641 59.5417 458.109 61.0312C459.589 62.5208 460.328 64.5938 460.328 67.25V68.1406C460.328 68.3698 460.203 68.4844 459.953 68.4844H448.453C448.536 69.6823 448.885 70.6042 449.5 71.25C450.125 71.8854 450.984 72.2031 452.078 72.2031C453.734 72.2031 454.755 71.6042 455.141 70.4062C455.214 70.1979 455.354 70.0938 455.562 70.0938H459.891C460.016 70.0938 460.109 70.1198 460.172 70.1719C460.245 70.2135 460.276 70.2812 460.266 70.375C459.984 72.0417 459.12 73.3542 457.672 74.3125C456.234 75.2708 454.339 75.75 451.984 75.75ZM448.453 65.9062H455.281C455.219 64.7708 454.906 63.8958 454.344 63.2812C453.792 62.6562 453.026 62.3438 452.047 62.3438C450.974 62.3438 450.13 62.651 449.516 63.2656C448.901 63.8802 448.547 64.7604 448.453 65.9062ZM270.156 111.5C269.896 111.5 269.766 111.37 269.766 111.109V89.4844C269.766 89.224 269.896 89.0938 270.156 89.0938H274.734C274.964 89.0938 275.078 89.224 275.078 89.4844V111.109C275.078 111.37 274.964 111.5 274.734 111.5H270.156ZM279.688 111.5C279.427 111.5 279.297 111.37 279.297 111.109V95.4375C279.297 95.1771 279.427 95.0469 279.688 95.0469H283.875C284.125 95.0469 284.25 95.1771 284.25 95.4375V97.3906H284.391C285.568 95.6615 287.271 94.7969 289.5 94.7969C291.417 94.7969 292.865 95.4062 293.844 96.625C294.833 97.8438 295.328 99.6562 295.328 102.062V111.109C295.328 111.37 295.198 111.5 294.938 111.5H290.5C290.24 111.5 290.109 111.37 290.109 111.109V102.062C290.109 100.906 289.885 100.052 289.438 99.5C288.99 98.9479 288.286 98.6719 287.328 98.6719C286.37 98.6719 285.656 98.9531 285.188 99.5156C284.719 100.068 284.484 100.917 284.484 102.062V111.109C284.484 111.37 284.365 111.5 284.125 111.5H279.688ZM300.969 111.5C300.708 111.5 300.578 111.37 300.578 111.109V98.8906H298.031C297.771 98.8906 297.641 98.7656 297.641 98.5156V95.6875C297.641 95.4375 297.771 95.3125 298.031 95.3125H300.578V93.6094C300.578 91.9427 301.021 90.6667 301.906 89.7812C302.792 88.8958 304.068 88.4531 305.734 88.4531H309.484C309.734 88.4531 309.859 88.5833 309.859 88.8438V91.6562C309.859 91.9167 309.734 92.0469 309.484 92.0469H305.766V95.3125H309.516C309.63 95.3125 309.719 95.349 309.781 95.4219C309.854 95.4948 309.891 95.5833 309.891 95.6875V98.5156C309.891 98.7656 309.766 98.8906 309.516 98.8906H305.766V111.109C305.766 111.37 305.651 111.5 305.422 111.5H300.969ZM326.375 109.438C324.771 110.979 322.641 111.75 319.984 111.75C317.328 111.75 315.198 110.979 313.594 109.438C312 107.896 311.203 105.844 311.203 103.281C311.203 100.719 312 98.6719 313.594 97.1406C315.198 95.599 317.328 94.8281 319.984 94.8281C322.641 94.8281 324.771 95.599 326.375 97.1406C327.979 98.6719 328.781 100.719 328.781 103.281C328.781 105.844 327.979 107.896 326.375 109.438ZM316.484 103.281C316.484 104.844 316.781 106.036 317.375 106.859C317.979 107.672 318.849 108.078 319.984 108.078C321.109 108.078 321.974 107.672 322.578 106.859C323.193 106.036 323.5 104.844 323.5 103.281C323.5 101.729 323.193 100.542 322.578 99.7188C321.974 98.8854 321.109 98.4688 319.984 98.4688C318.859 98.4688 317.995 98.8854 317.391 99.7188C316.786 100.542 316.484 101.729 316.484 103.281ZM331.859 111.5C331.63 111.5 331.516 111.37 331.516 111.109V100.203C331.516 98.5365 331.953 97.2604 332.828 96.375C333.714 95.4896 334.99 95.0469 336.656 95.0469H341.969C342.208 95.0469 342.328 95.1771 342.328 95.4375V98.7031C342.328 98.9323 342.208 99.0469 341.969 99.0469H336.688V111.109C336.688 111.37 336.573 111.5 336.344 111.5H331.859ZM345.5 111.5C345.24 111.5 345.109 111.37 345.109 111.109V95.4375C345.109 95.1771 345.24 95.0469 345.5 95.0469H349.688C349.938 95.0469 350.062 95.1771 350.062 95.4375V97.3906H350.203C351.328 95.6823 352.99 94.8281 355.188 94.8281C357.438 94.8281 359.016 95.6823 359.922 97.3906H360.078C361.422 95.6823 363.302 94.8281 365.719 94.8281C367.583 94.8281 368.995 95.4323 369.953 96.6406C370.922 97.8385 371.406 99.6146 371.406 101.969V111.109C371.406 111.37 371.281 111.5 371.031 111.5H366.578C366.328 111.5 366.203 111.37 366.203 111.109V101.969C366.203 100.854 365.984 100.031 365.547 99.5C365.109 98.9688 364.432 98.7031 363.516 98.7031C361.745 98.7031 360.859 99.7917 360.859 101.969V111.109C360.859 111.37 360.729 111.5 360.469 111.5H356.016C355.766 111.5 355.641 111.37 355.641 111.109V101.969C355.641 100.854 355.427 100.031 355 99.5C354.573 98.9688 353.901 98.7031 352.984 98.7031C352.068 98.7031 351.391 98.974 350.953 99.5156C350.516 100.047 350.297 100.865 350.297 101.969V111.109C350.297 111.37 350.177 111.5 349.938 111.5H345.5ZM380.875 111.75C378.74 111.75 377.057 110.995 375.828 109.484C374.599 107.974 373.984 105.906 373.984 103.281C373.984 100.615 374.589 98.5365 375.797 97.0469C377.005 95.5469 378.698 94.7969 380.875 94.7969C381.896 94.7969 382.849 95.0312 383.734 95.5C384.62 95.9583 385.328 96.5885 385.859 97.3906H386.031V95.4375C386.031 95.1771 386.156 95.0469 386.406 95.0469H390.859C391.109 95.0469 391.234 95.1771 391.234 95.4375V107.922H392.75C392.979 107.922 393.094 108.047 393.094 108.297V111.109C393.094 111.37 392.979 111.5 392.75 111.5H388.844C387.135 111.5 386.281 110.786 386.281 109.359V109.203H386.125C385.646 109.984 384.932 110.604 383.984 111.062C383.036 111.521 382 111.75 380.875 111.75ZM379.266 103.281C379.266 104.781 379.573 105.938 380.188 106.75C380.812 107.552 381.682 107.953 382.797 107.953C383.901 107.953 384.745 107.552 385.328 106.75C385.922 105.948 386.219 104.792 386.219 103.281C386.219 101.802 385.917 100.656 385.312 99.8438C384.719 99.0208 383.88 98.6094 382.797 98.6094C381.693 98.6094 380.828 99.0208 380.203 99.8438C379.578 100.656 379.266 101.802 379.266 103.281ZM401.109 117.969C400.859 117.969 400.734 117.849 400.734 117.609V116.078C400.734 115.839 400.859 115.719 401.109 115.719H402.906C403.396 115.719 403.76 115.667 404 115.562C404.25 115.458 404.375 115.255 404.375 114.953C404.375 114.641 404.26 114.427 404.031 114.312C403.802 114.208 403.427 114.156 402.906 114.156H402.266C402.151 114.156 402.057 114.12 401.984 114.047C401.911 113.984 401.875 113.901 401.875 113.797V111.656C399.625 111.354 397.859 110.464 396.578 108.984C395.307 107.505 394.672 105.604 394.672 103.281C394.672 100.719 395.479 98.6667 397.094 97.125C398.719 95.5729 400.87 94.7969 403.547 94.7969C405.839 94.7969 407.693 95.3438 409.109 96.4375C410.536 97.5208 411.37 99.0208 411.609 100.938C411.62 101.062 411.589 101.167 411.516 101.25C411.453 101.323 411.365 101.359 411.25 101.359H406.938C406.708 101.359 406.578 101.229 406.547 100.969C406.391 100.094 406.068 99.4583 405.578 99.0625C405.089 98.6667 404.411 98.4688 403.547 98.4688C402.401 98.4688 401.516 98.8854 400.891 99.7188C400.266 100.552 399.953 101.74 399.953 103.281C399.953 104.833 400.266 106.021 400.891 106.844C401.516 107.667 402.401 108.078 403.547 108.078C404.432 108.078 405.13 107.88 405.641 107.484C406.161 107.078 406.521 106.443 406.719 105.578C406.75 105.328 406.875 105.203 407.094 105.203H411.422C411.536 105.203 411.63 105.234 411.703 105.297C411.776 105.359 411.807 105.443 411.797 105.547C411.536 107.349 410.766 108.797 409.484 109.891C408.214 110.974 406.531 111.583 404.438 111.719V112.594C405.354 112.635 406.052 112.885 406.531 113.344C407.01 113.802 407.25 114.401 407.25 115.141C407.25 117.026 406.005 117.969 403.516 117.969H401.109ZM420.656 111.75C418.521 111.75 416.839 110.995 415.609 109.484C414.38 107.974 413.766 105.906 413.766 103.281C413.766 100.615 414.37 98.5365 415.578 97.0469C416.786 95.5469 418.479 94.7969 420.656 94.7969C421.677 94.7969 422.63 95.0312 423.516 95.5C424.401 95.9583 425.109 96.5885 425.641 97.3906H425.812V95.4375C425.812 95.1771 425.938 95.0469 426.188 95.0469H430.641C430.891 95.0469 431.016 95.1771 431.016 95.4375V107.922H432.531C432.76 107.922 432.875 108.047 432.875 108.297V111.109C432.875 111.37 432.76 111.5 432.531 111.5H428.625C426.917 111.5 426.062 110.786 426.062 109.359V109.203H425.906C425.427 109.984 424.714 110.604 423.766 111.062C422.818 111.521 421.781 111.75 420.656 111.75ZM416.172 92.3281C416.214 90.8906 416.562 89.776 417.219 88.9844C417.875 88.1823 418.766 87.7812 419.891 87.7812C420.516 87.7812 421.339 88.0052 422.359 88.4531C423.38 88.901 424.068 89.125 424.422 89.125C424.974 89.125 425.328 88.7969 425.484 88.1406C425.547 87.901 425.677 87.7812 425.875 87.7812H428.531C428.781 87.7812 428.906 87.9115 428.906 88.1719C428.865 89.6094 428.516 90.7292 427.859 91.5312C427.203 92.3229 426.318 92.7188 425.203 92.7188C424.578 92.7188 423.755 92.4896 422.734 92.0312C421.714 91.5729 421.021 91.3438 420.656 91.3438C420.104 91.3438 419.75 91.6719 419.594 92.3281C419.531 92.5885 419.406 92.7188 419.219 92.7188H416.562C416.302 92.7188 416.172 92.5885 416.172 92.3281ZM419.047 103.281C419.047 104.781 419.354 105.938 419.969 106.75C420.594 107.552 421.464 107.953 422.578 107.953C423.682 107.953 424.526 107.552 425.109 106.75C425.703 105.948 426 104.792 426 103.281C426 101.802 425.698 100.656 425.094 99.8438C424.5 99.0208 423.661 98.6094 422.578 98.6094C421.474 98.6094 420.609 99.0208 419.984 99.8438C419.359 100.656 419.047 101.802 419.047 103.281ZM449.625 109.438C448.021 110.979 445.891 111.75 443.234 111.75C440.578 111.75 438.448 110.979 436.844 109.438C435.25 107.896 434.453 105.844 434.453 103.281C434.453 100.719 435.25 98.6719 436.844 97.1406C438.448 95.599 440.578 94.8281 443.234 94.8281C445.891 94.8281 448.021 95.599 449.625 97.1406C451.229 98.6719 452.031 100.719 452.031 103.281C452.031 105.844 451.229 107.896 449.625 109.438ZM439.734 103.281C439.734 104.844 440.031 106.036 440.625 106.859C441.229 107.672 442.099 108.078 443.234 108.078C444.359 108.078 445.224 107.672 445.828 106.859C446.443 106.036 446.75 104.844 446.75 103.281C446.75 101.729 446.443 100.542 445.828 99.7188C445.224 98.8854 444.359 98.4688 443.234 98.4688C442.109 98.4688 441.245 98.8854 440.641 99.7188C440.036 100.542 439.734 101.729 439.734 103.281Z" fill="white"/>
</g>
<g filter="url(#filter1_di_416_8049)">
<mask id="path-2-inside-1_416_8049" fill="white">
<path d="M43.9324 126.102C38.4833 126.102 33.0874 125.029 28.0531 122.944C23.0187 120.858 18.4444 117.802 14.5912 113.949L43.9324 84.6077L43.9324 126.102Z"/>
</mask>
<path d="M43.9324 126.102C38.4833 126.102 33.0874 125.029 28.0531 122.944C23.0187 120.858 18.4444 117.802 14.5912 113.949L43.9324 84.6077L43.9324 126.102Z" fill="url(#paint0_linear_416_8049)" stroke="#D0ACFF" stroke-width="0.5" mask="url(#path-2-inside-1_416_8049)"/>
<mask id="path-3-inside-2_416_8049" fill="white">
<path d="M43.9343 2.18763C49.3834 2.18763 54.7793 3.26093 59.8136 5.34623C64.848 7.43154 69.4223 10.488 73.2755 14.3412L43.9343 43.6824L43.9343 2.18763Z"/>
</mask>
<path d="M43.9343 2.18763C49.3834 2.18763 54.7793 3.26093 59.8136 5.34623C64.848 7.43154 69.4223 10.488 73.2755 14.3412L43.9343 43.6824L43.9343 2.18763Z" fill="url(#paint1_linear_416_8049)" stroke="#D0ACFF" stroke-width="0.5" mask="url(#path-3-inside-2_416_8049)"/>
<g filter="url(#filter2_i_416_8049)">
<path d="M43.9336 43.114C49.3828 43.114 54.7786 44.1874 59.813 46.2727C64.8474 48.358 69.4218 51.4144 73.2749 55.2676C77.128 59.1207 80.1845 63.6951 82.2698 68.7295C84.3551 73.7639 85.4285 79.1597 85.4285 84.6089C85.4285 90.058 84.3551 95.4537 82.2698 100.488C80.1845 105.522 77.128 110.097 73.2749 113.95C69.4218 117.803 64.8474 120.86 59.813 122.945C54.7786 125.03 49.3828 126.104 43.9336 126.104V85.1772C38.4845 85.1772 33.0888 84.1038 28.0544 82.0186C23.0201 79.9333 18.4457 76.8768 14.5925 73.0237C10.7394 69.1705 7.68296 64.5961 5.59766 59.5618C3.51236 54.5274 2.43896 49.1315 2.43896 43.6824C2.43898 38.2333 3.51238 32.8375 5.59766 27.8032C7.68296 22.7689 10.7394 18.1945 14.5925 14.3413C18.4457 10.4882 23.0201 7.43174 28.0544 5.34644C33.0888 3.26116 38.4845 2.18776 43.9336 2.18774V43.114Z" fill="url(#paint2_linear_416_8049)"/>
</g>
<path d="M44.1841 84.927H43.9341C38.5178 84.927 33.1539 83.8601 28.1499 81.7874C23.146 79.7146 18.5989 76.6768 14.769 72.8469C10.9392 69.017 7.90133 64.4701 5.82861 59.4661C3.75595 54.4622 2.68903 49.099 2.68896 43.6829C2.68898 38.2666 3.7559 32.9027 5.82861 27.8987C7.90136 22.8947 10.9392 18.3477 14.769 14.5178C18.5989 10.6879 23.1459 7.65013 28.1499 5.57739C33.077 3.53651 38.3527 2.47294 43.6841 2.44067V43.3645H43.9341C49.3502 43.3646 54.7134 44.4315 59.7173 46.5042C64.7213 48.5769 69.2683 51.6147 73.0981 55.4446C76.928 59.2745 79.9659 63.8215 82.0386 68.8254C84.1112 73.8294 85.1782 79.1925 85.1782 84.6086C85.1782 90.0249 84.1113 95.3888 82.0386 100.393C79.9659 105.397 76.9278 109.943 73.0981 113.773C69.2682 117.603 64.7213 120.641 59.7173 122.714C54.7904 124.755 49.5152 125.817 44.1841 125.85V84.927Z" stroke="white" stroke-width="0.5"/>
</g>
<g filter="url(#filter3_di_416_8049)">
<mask id="path-6-inside-3_416_8049" fill="white">
<path d="M136.932 126.102C131.483 126.102 126.087 125.029 121.053 122.944C116.019 120.858 111.444 117.802 107.591 113.949L136.932 84.6077L136.932 126.102Z"/>
</mask>
<path d="M136.932 126.102C131.483 126.102 126.087 125.029 121.053 122.944C116.019 120.858 111.444 117.802 107.591 113.949L136.932 84.6077L136.932 126.102Z" fill="url(#paint3_linear_416_8049)" stroke="#D0ACFF" stroke-width="0.5" mask="url(#path-6-inside-3_416_8049)"/>
<mask id="path-7-inside-4_416_8049" fill="white">
<path d="M136.934 2.18763C142.383 2.18763 147.779 3.26093 152.814 5.34623C157.848 7.43154 162.422 10.488 166.275 14.3412L136.934 43.6824L136.934 2.18763Z"/>
</mask>
<path d="M136.934 2.18763C142.383 2.18763 147.779 3.26093 152.814 5.34623C157.848 7.43154 162.422 10.488 166.275 14.3412L136.934 43.6824L136.934 2.18763Z" fill="url(#paint4_linear_416_8049)" stroke="#D0ACFF" stroke-width="0.5" mask="url(#path-7-inside-4_416_8049)"/>
<g filter="url(#filter4_i_416_8049)">
<path d="M136.934 43.114C142.383 43.114 147.779 44.1874 152.813 46.2727C157.847 48.358 162.422 51.4144 166.275 55.2676C170.128 59.1207 173.184 63.6951 175.27 68.7295C177.355 73.7639 178.428 79.1597 178.428 84.6089C178.428 90.058 177.355 95.4537 175.27 100.488C173.184 105.522 170.128 110.097 166.275 113.95C162.422 117.803 157.847 120.86 152.813 122.945C147.779 125.03 142.383 126.104 136.934 126.104V85.1772C131.484 85.1772 126.089 84.1038 121.054 82.0186C116.02 79.9333 111.446 76.8768 107.593 73.0237C103.739 69.1705 100.683 64.5961 98.5977 59.5618C96.5124 54.5274 95.439 49.1315 95.439 43.6824C95.439 38.2333 96.5124 32.8375 98.5977 27.8032C100.683 22.7689 103.739 18.1945 107.593 14.3413C111.446 10.4882 116.02 7.43174 121.054 5.34644C126.089 3.26116 131.484 2.18776 136.934 2.18774V43.114Z" fill="url(#paint5_linear_416_8049)"/>
</g>
<path d="M137.184 84.927H136.934C131.518 84.927 126.154 83.8601 121.15 81.7874C116.146 79.7146 111.599 76.6768 107.769 72.8469C103.939 69.017 100.901 64.4701 98.8286 59.4661C96.7559 54.4622 95.689 49.099 95.689 43.6829C95.689 38.2666 96.7559 32.9027 98.8286 27.8987C100.901 22.8947 103.939 18.3477 107.769 14.5178C111.599 10.6879 116.146 7.65013 121.15 5.57739C126.077 3.53651 131.353 2.47294 136.684 2.44067V43.3645H136.934C142.35 43.3646 147.713 44.4315 152.717 46.5042C157.721 48.5769 162.268 51.6147 166.098 55.4446C169.928 59.2745 172.966 63.8215 175.039 68.8254C177.111 73.8294 178.178 79.1925 178.178 84.6086C178.178 90.0249 177.111 95.3888 175.039 100.393C172.966 105.397 169.928 109.943 166.098 113.773C162.268 117.603 157.721 120.641 152.717 122.714C147.79 124.755 142.515 125.817 137.184 125.85V84.927Z" stroke="white" stroke-width="0.5"/>
</g>
<g filter="url(#filter5_dii_416_8049)">
<rect x="194.5" y="1.75" width="36.5" height="125" rx="3" fill="url(#paint6_linear_416_8049)"/>
<rect x="194.75" y="2" width="36" height="124.5" rx="2.75" stroke="white" stroke-width="0.5"/>
</g>
</g>
<defs>
<filter id="filter0_d_416_8049" x="267.797" y="15.4531" width="193.531" height="104.516" filterUnits="userSpaceOnUse" color-interpolation-filters="sRGB">
<feFlood flood-opacity="0" result="BackgroundImageFix"/>
<feColorMatrix in="SourceAlpha" type="matrix" values="0 0 0 0 0 0 0 0 0 0 0 0 0 0 0 0 0 0 127 0" result="hardAlpha"/>
<feOffset dy="1"/>
<feGaussianBlur stdDeviation="0.5"/>
<feComposite in2="hardAlpha" operator="out"/>
<feColorMatrix type="matrix" values="0 0 0 0 0 0 0 0 0 0 0 0 0 0 0 0 0 0 0.25 0"/>
<feBlend mode="normal" in2="BackgroundImageFix" result="effect1_dropShadow_416_8049"/>
<feBlend mode="normal" in="SourceGraphic" in2="effect1_dropShadow_416_8049" result="shape"/>
</filter>
<filter id="filter1_di_416_8049" x="1.43896" y="1.25" width="85.061" height="127" filterUnits="userSpaceOnUse" color-interpolation-filters="sRGB">
<feFlood flood-opacity="0" result="BackgroundImageFix"/>
<feColorMatrix in="SourceAlpha" type="matrix" values="0 0 0 0 0 0 0 0 0 0 0 0 0 0 0 0 0 0 127 0" result="hardAlpha"/>
<feOffset dy="0.5"/>
<feGaussianBlur stdDeviation="0.5"/>
<feComposite in2="hardAlpha" operator="out"/>
<feColorMatrix type="matrix" values="0 0 0 0 0 0 0 0 0 0 0 0 0 0 0 0 0 0 0.25 0"/>
<feBlend mode="normal" in2="BackgroundImageFix" result="effect1_dropShadow_416_8049"/>
<feBlend mode="normal" in="SourceGraphic" in2="effect1_dropShadow_416_8049" result="shape"/>
<feColorMatrix in="SourceAlpha" type="matrix" values="0 0 0 0 0 0 0 0 0 0 0 0 0 0 0 0 0 0 127 0" result="hardAlpha"/>
<feOffset/>
<feGaussianBlur stdDeviation="0.5"/>
<feComposite in2="hardAlpha" operator="arithmetic" k2="-1" k3="1"/>
<feColorMatrix type="matrix" values="0 0 0 0 1 0 0 0 0 1 0 0 0 0 1 0 0 0 1 0"/>
<feBlend mode="normal" in2="shape" result="effect2_innerShadow_416_8049"/>
</filter>
<filter id="filter2_i_416_8049" x="2.43896" y="2.18774" width="82.9895" height="123.916" filterUnits="userSpaceOnUse" color-interpolation-filters="sRGB">
<feFlood flood-opacity="0" result="BackgroundImageFix"/>
<feBlend mode="normal" in="SourceGraphic" in2="BackgroundImageFix" result="shape"/>
<feColorMatrix in="SourceAlpha" type="matrix" values="0 0 0 0 0 0 0 0 0 0 0 0 0 0 0 0 0 0 127 0" result="hardAlpha"/>
<feOffset/>
<feGaussianBlur stdDeviation="6"/>
<feComposite in2="hardAlpha" operator="arithmetic" k2="-1" k3="1"/>
<feColorMatrix type="matrix" values="0 0 0 0 1 0 0 0 0 1 0 0 0 0 1 0 0 0 0.5 0"/>
<feBlend mode="normal" in2="shape" result="effect1_innerShadow_416_8049"/>
</filter>
<filter id="filter3_di_416_8049" x="94.439" y="1.25" width="85.061" height="127" filterUnits="userSpaceOnUse" color-interpolation-filters="sRGB">
<feFlood flood-opacity="0" result="BackgroundImageFix"/>
<feColorMatrix in="SourceAlpha" type="matrix" values="0 0 0 0 0 0 0 0 0 0 0 0 0 0 0 0 0 0 127 0" result="hardAlpha"/>
<feOffset dy="0.5"/>
<feGaussianBlur stdDeviation="0.5"/>
<feComposite in2="hardAlpha" operator="out"/>
<feColorMatrix type="matrix" values="0 0 0 0 0 0 0 0 0 0 0 0 0 0 0 0 0 0 0.25 0"/>
<feBlend mode="normal" in2="BackgroundImageFix" result="effect1_dropShadow_416_8049"/>
<feBlend mode="normal" in="SourceGraphic" in2="effect1_dropShadow_416_8049" result="shape"/>
<feColorMatrix in="SourceAlpha" type="matrix" values="0 0 0 0 0 0 0 0 0 0 0 0 0 0 0 0 0 0 127 0" result="hardAlpha"/>
<feOffset/>
<feGaussianBlur stdDeviation="0.5"/>
<feComposite in2="hardAlpha" operator="arithmetic" k2="-1" k3="1"/>
<feColorMatrix type="matrix" values="0 0 0 0 1 0 0 0 0 1 0 0 0 0 1 0 0 0 1 0"/>
<feBlend mode="normal" in2="shape" result="effect2_innerShadow_416_8049"/>
</filter>
<filter id="filter4_i_416_8049" x="95.439" y="2.18774" width="82.9895" height="123.916" filterUnits="userSpaceOnUse" color-interpolation-filters="sRGB">
<feFlood flood-opacity="0" result="BackgroundImageFix"/>
<feBlend mode="normal" in="SourceGraphic" in2="BackgroundImageFix" result="shape"/>
<feColorMatrix in="SourceAlpha" type="matrix" values="0 0 0 0 0 0 0 0 0 0 0 0 0 0 0 0 0 0 127 0" result="hardAlpha"/>
<feOffset/>
<feGaussianBlur stdDeviation="6"/>
<feComposite in2="hardAlpha" operator="arithmetic" k2="-1" k3="1"/>
<feColorMatrix type="matrix" values="0 0 0 0 1 0 0 0 0 1 0 0 0 0 1 0 0 0 0.5 0"/>
<feBlend mode="normal" in2="shape" result="effect1_innerShadow_416_8049"/>
</filter>
<filter id="filter5_dii_416_8049" x="193.5" y="1.25" width="38.5" height="127" filterUnits="userSpaceOnUse" color-interpolation-filters="sRGB">
<feFlood flood-opacity="0" result="BackgroundImageFix"/>
<feColorMatrix in="SourceAlpha" type="matrix" values="0 0 0 0 0 0 0 0 0 0 0 0 0 0 0 0 0 0 127 0" result="hardAlpha"/>
<feOffset dy="0.5"/>
<feGaussianBlur stdDeviation="0.5"/>
<feComposite in2="hardAlpha" operator="out"/>
<feColorMatrix type="matrix" values="0 0 0 0 0 0 0 0 0 0 0 0 0 0 0 0 0 0 0.5 0"/>
<feBlend mode="normal" in2="BackgroundImageFix" result="effect1_dropShadow_416_8049"/>
<feBlend mode="normal" in="SourceGraphic" in2="effect1_dropShadow_416_8049" result="shape"/>
<feColorMatrix in="SourceAlpha" type="matrix" values="0 0 0 0 0 0 0 0 0 0 0 0 0 0 0 0 0 0 127 0" result="hardAlpha"/>
<feOffset/>
<feGaussianBlur stdDeviation="6"/>
<feComposite in2="hardAlpha" operator="arithmetic" k2="-1" k3="1"/>
<feColorMatrix type="matrix" values="0 0 0 0 1 0 0 0 0 1 0 0 0 0 1 0 0 0 0.5 0"/>
<feBlend mode="normal" in2="shape" result="effect2_innerShadow_416_8049"/>
<feColorMatrix in="SourceAlpha" type="matrix" values="0 0 0 0 0 0 0 0 0 0 0 0 0 0 0 0 0 0 127 0" result="hardAlpha"/>
<feOffset/>
<feGaussianBlur stdDeviation="0.5"/>
<feComposite in2="hardAlpha" operator="arithmetic" k2="-1" k3="1"/>
<feColorMatrix type="matrix" values="0 0 0 0 1 0 0 0 0 1 0 0 0 0 1 0 0 0 1 0"/>
<feBlend mode="normal" in2="effect2_innerShadow_416_8049" result="effect3_innerShadow_416_8049"/>
</filter>
<linearGradient id="paint0_linear_416_8049" x1="14.5912" y1="55.2665" x2="73.2736" y2="113.949" gradientUnits="userSpaceOnUse">
<stop offset="0.509616" stop-color="white"/>
<stop offset="1" stop-color="#DDC0FF"/>
</linearGradient>
<linearGradient id="paint1_linear_416_8049" x1="73.2755" y1="73.0236" x2="14.5931" y2="14.3412" gradientUnits="userSpaceOnUse">
<stop offset="0.509616" stop-color="white"/>
<stop offset="1" stop-color="#DDC0FF"/>
</linearGradient>
<linearGradient id="paint2_linear_416_8049" x1="43.9337" y1="2.18774" x2="43.9337" y2="126.104" gradientUnits="userSpaceOnUse">
<stop stop-color="#D0ACFF"/>
<stop offset="0.403841" stop-color="#AF52FF"/>
<stop offset="1" stop-color="#9638FF"/>
</linearGradient>
<linearGradient id="paint3_linear_416_8049" x1="107.591" y1="55.2665" x2="166.274" y2="113.949" gradientUnits="userSpaceOnUse">
<stop offset="0.509616" stop-color="white"/>
<stop offset="1" stop-color="#DDC0FF"/>
</linearGradient>
<linearGradient id="paint4_linear_416_8049" x1="166.275" y1="73.0236" x2="107.593" y2="14.3412" gradientUnits="userSpaceOnUse">
<stop offset="0.509616" stop-color="white"/>
<stop offset="1" stop-color="#DDC0FF"/>
</linearGradient>
<linearGradient id="paint5_linear_416_8049" x1="136.934" y1="2.18774" x2="136.934" y2="126.104" gradientUnits="userSpaceOnUse">
<stop stop-color="#D0ACFF"/>
<stop offset="0.403841" stop-color="#AF52FF"/>
<stop offset="1" stop-color="#9638FF"/>
</linearGradient>
<linearGradient id="paint6_linear_416_8049" x1="212.75" y1="1.75" x2="212.75" y2="126.75" gradientUnits="userSpaceOnUse">
<stop stop-color="#D0ACFF"/>
<stop offset="0.403841" stop-color="#AF52FF"/>
<stop offset="1" stop-color="#9638FF"/>
</linearGradient>
<clipPath id="clip0_416_8049">
<rect width="472" height="128" fill="white"/>
</clipPath>
</defs>
</svg>
