<svg width="99" height="108" viewBox="0 0 99 108" fill="none" xmlns="http://www.w3.org/2000/svg">
<path d="M56.9371 65.9439L73.0097 46.4742C74.9013 44.1827 74.8051 40.9795 72.7947 39.3201L72.1799 38.8127C70.1695 37.153 67.0061 37.6654 65.1145 39.9569L63.5823 41.8128C63.4234 41.4195 63.1774 41.0654 62.8377 40.7849L62.5218 40.5241C61.3008 39.5163 59.3797 39.8272 58.2311 41.2189L54.2429 46.0499C54.017 45.891 53.7869 45.7409 53.5531 45.5989L54.681 44.2325C55.4724 43.2738 55.4322 41.9338 54.5911 41.2396L54.4789 41.1469C53.6378 40.4527 52.3143 40.6667 51.523 41.6254L49.538 44.0297C48.7417 43.8665 47.9284 43.7765 47.1067 43.7587L49.8912 40.3856C51.0401 38.9939 50.9814 37.049 49.7605 36.0411L49.4446 35.7803C48.2236 34.7725 46.3025 35.0837 45.1539 36.4751L34.4567 49.4339C34.2288 49.7096 34.0508 50.0077 33.9176 50.3154C28.6003 57.0505 28.961 66.283 34.8001 71.1033C40.7304 75.9988 50.061 74.4879 55.641 67.7287C56.1167 67.1524 56.5467 66.555 56.9371 65.9439Z" fill="white"/>
<path d="M58.4968 38.4424C59.6281 38.4424 60.5451 37.5253 60.5451 36.394C60.5451 35.2628 59.6281 34.3457 58.4968 34.3457C57.3656 34.3457 56.4485 35.2628 56.4485 36.394C56.4485 37.5253 57.3656 38.4424 58.4968 38.4424Z" fill="white"/>
<path d="M65.9071 29.8147C64.7569 31.2081 64.9321 33.252 66.2984 34.3798C67.6647 35.5076 69.7047 35.2924 70.8549 33.899C72.0051 32.5056 71.83 30.4617 70.4637 29.3338C69.0973 28.206 67.0573 28.4213 65.9071 29.8147Z" fill="white"/>
<path d="M24.4618 64.1619C23.2997 63.8193 23.4213 62.1041 24.2155 61.1893L42.9469 39.6553C43.7413 38.7405 45.5135 38.3384 46.0316 39.4547C46.1215 39.6481 46.1099 40.2905 46.1099 40.2905L46.1623 81.6322C46.1623 81.6322 46.3155 82.8672 46.3713 82.9901C46.8718 84.0935 48.2341 83.6783 49.0282 82.7635L67.7254 61.2295C68.5199 60.3147 68.7393 58.601 67.5772 58.2585C67.3262 58.1845 66.4706 58.2826 66.4706 58.2826L25.3434 64.1568C25.3434 64.1568 24.678 64.2255 24.4618 64.1619Z" fill="#3E0672" stroke="#3E0672" stroke-width="1.25356" stroke-miterlimit="10"/>
<path d="M24.4618 58.2074C23.2997 57.8649 23.4213 56.1497 24.2155 55.2349L42.9469 33.7008C43.7413 32.786 45.5135 32.384 46.0316 33.5003C46.1215 33.6936 46.1099 34.3361 46.1099 34.3361L46.1623 75.6777C46.1623 75.6777 46.3155 76.9128 46.3713 77.0356C46.8718 78.1391 48.2341 77.7238 49.0282 76.809L67.7254 55.275C68.5199 54.3602 68.7393 52.6466 67.5772 52.304C67.3262 52.2301 66.4706 52.3282 66.4706 52.3282L25.3434 58.2024C25.3434 58.2024 24.678 58.271 24.4618 58.2074Z" fill="#9638FF" stroke="#9638FF" stroke-width="1.25356" stroke-miterlimit="10"/>
<path d="M9.60961 33.962C9.24841 34.7207 8.79119 35.2459 8.23797 35.5374C7.68611 35.8261 7.07901 35.862 6.41666 35.645C6.33527 35.6168 6.31365 35.5626 6.35182 35.4824L6.93656 34.2541C6.96246 34.1997 7.0067 34.1769 7.06928 34.1856C7.40004 34.2728 7.6813 34.2574 7.91306 34.1395C8.14618 34.0187 8.34248 33.7907 8.50196 33.4557C8.63963 33.1666 8.68432 32.9104 8.63603 32.6872C8.58774 32.464 8.45193 32.2993 8.2286 32.193C8.03104 32.0989 7.85216 32.091 7.69198 32.1693C7.53029 32.2433 7.35491 32.4162 7.16584 32.688L6.69781 33.3502C6.295 33.9381 5.8711 34.3158 5.42612 34.4833C4.97827 34.6494 4.49666 34.6098 3.98128 34.3645C3.39718 34.0864 3.03659 33.6671 2.89951 33.1067C2.76379 32.5433 2.86836 31.8995 3.21321 31.1751C3.54715 30.4736 3.9767 29.9844 4.50183 29.7076C5.02697 29.4308 5.60272 29.387 6.22907 29.5763C6.26479 29.5898 6.28933 29.6121 6.3027 29.643C6.31456 29.6697 6.313 29.6988 6.298 29.7303L5.71121 30.9629C5.68259 31.0231 5.62908 31.0432 5.55068 31.0235C5.26573 30.9581 5.02428 30.9784 4.82633 31.0843C4.62838 31.1903 4.46126 31.3864 4.32495 31.6727C4.19274 31.9505 4.14914 32.1896 4.19415 32.3901C4.24053 32.5878 4.37252 32.7385 4.59012 32.8421C4.78768 32.9361 4.97644 32.9417 5.1564 32.8588C5.33635 32.7758 5.52305 32.6013 5.71648 32.3352L6.17572 31.6582C6.59516 31.0501 7.01265 30.6711 7.42818 30.5212C7.84372 30.3713 8.32493 30.4266 8.8718 30.6869C9.45017 30.9622 9.80531 31.393 9.93721 31.9791C10.0691 32.5652 9.95992 33.2261 9.60961 33.962Z" fill="white"/>
<path d="M12.677 28.581C12.2178 29.2696 11.6611 29.6874 11.0068 29.8343C10.3542 29.9785 9.69806 29.8307 9.03843 29.391C8.38144 28.953 7.99358 28.4029 7.87484 27.7406C7.75611 27.0783 7.92366 26.4068 8.37748 25.7261C8.82251 25.0585 9.35769 24.6645 9.98302 24.544C10.6101 24.4209 11.2601 24.5836 11.9329 25.0322L12.1585 25.1826C12.2165 25.2213 12.2244 25.2723 12.1822 25.3356L10.2403 28.2485C10.5578 28.4297 10.8502 28.497 11.1176 28.4504C11.3841 28.3994 11.6097 28.2353 11.7944 27.9583C12.074 27.5388 12.0947 27.179 11.8564 26.8791C11.8159 26.8255 11.8133 26.7723 11.8485 26.7195L12.5793 25.6232C12.6004 25.5915 12.6229 25.5722 12.6466 25.5651C12.6695 25.5537 12.6919 25.5572 12.7139 25.5757C13.0886 25.9284 13.275 26.369 13.2733 26.8976C13.2733 27.4235 13.0745 27.9847 12.677 28.581ZM9.58724 27.8132L10.7403 26.0836C10.4421 25.9077 10.1677 25.8391 9.91706 25.8778C9.66552 25.9121 9.45708 26.0533 9.29173 26.3013C9.11055 26.5731 9.04591 26.8387 9.0978 27.0981C9.14969 27.3576 9.31284 27.5959 9.58724 27.8132Z" fill="white"/>
<path d="M14.6934 25.4131C14.6387 25.4704 14.5827 25.4717 14.5253 25.417L11.0745 22.1225C11.0172 22.0677 11.0159 22.0117 11.0706 21.9544L11.9509 21.0323C12.0034 20.9773 12.0584 20.9771 12.1157 21.0319L12.5458 21.4424L12.5753 21.4115C12.4357 20.8046 12.5969 20.2592 13.0589 19.7753C13.5319 19.2798 14.0517 19.1119 14.6184 19.2715L14.6512 19.2371C14.5576 18.5821 14.7647 17.9885 15.2727 17.4564C15.6647 17.0458 16.0945 16.862 16.562 16.905C17.0294 16.9435 17.5223 17.2102 18.0407 17.7051L20.0534 19.6266C20.1107 19.6814 20.1131 19.7363 20.0605 19.7913L19.1244 20.7718C19.0719 20.8269 19.0169 20.827 18.9596 20.7723L16.9469 18.8508C16.7015 18.6165 16.4743 18.4917 16.2653 18.4763C16.0564 18.461 15.8556 18.5542 15.6629 18.7561C15.2906 19.146 15.3442 19.5698 15.8235 20.0274L17.8362 21.949C17.8936 22.0037 17.8949 22.0597 17.8401 22.1171L16.904 23.0976C16.8514 23.1527 16.7965 23.1528 16.7392 23.0981L14.7265 21.1766C14.481 20.9423 14.255 20.8163 14.0482 20.7987C13.8414 20.781 13.6417 20.8731 13.449 21.075C13.2563 21.2768 13.1736 21.4828 13.2009 21.693C13.2259 21.901 13.36 22.1211 13.6031 22.3532L15.6158 24.2747C15.6732 24.3295 15.6766 24.3832 15.6263 24.436L14.6934 25.4131Z" fill="white"/>
<path d="M22.6544 17.9975C22.1288 18.38 21.5794 18.4955 21.0063 18.3439C20.4332 18.1923 19.9115 17.7935 19.4413 17.1473C18.9636 16.491 18.74 15.8712 18.7706 15.2881C18.7993 14.7025 19.0816 14.2146 19.6174 13.8246C19.8687 13.6418 20.1453 13.5287 20.4472 13.4855C20.7472 13.4397 21.0345 13.4679 21.3089 13.5702L21.3512 13.5394L21.0014 13.0586C20.9547 12.9945 20.9621 12.9401 21.0237 12.8953L22.1198 12.0976C22.1813 12.0528 22.2354 12.0624 22.2821 12.1265L24.5185 15.1994L24.8915 14.9279C24.9479 14.8869 24.9985 14.8971 25.0433 14.9587L25.5472 15.6509C25.5938 15.715 25.5889 15.7676 25.5325 15.8087L24.571 16.5084C24.1506 16.8144 23.8125 16.7918 23.5568 16.4406L23.5288 16.4021L23.4904 16.4301C23.5124 16.7082 23.4478 16.9886 23.2966 17.2712C23.1454 17.5539 22.9313 17.7959 22.6544 17.9975ZM20.7412 16.2013C21.0099 16.5705 21.2927 16.8 21.5895 16.8899C21.887 16.9754 22.1729 16.9183 22.4473 16.7186C22.7191 16.5208 22.8549 16.271 22.8548 15.969C22.8573 15.6653 22.7232 15.3275 22.4526 14.9557C22.1877 14.5916 21.908 14.3637 21.6138 14.2719C21.3202 14.1757 21.0401 14.2247 20.7735 14.4188C20.5017 14.6166 20.3626 14.8727 20.3562 15.1872C20.3479 15.4992 20.4762 15.8372 20.7412 16.2013Z" fill="white"/>
<path d="M26.5942 15.1937C26.524 15.2306 26.4705 15.2139 26.4336 15.1438L24.2138 10.9207C24.1769 10.8505 24.1935 10.797 24.2637 10.7601L25.3921 10.167C25.4595 10.1316 25.5116 10.149 25.5485 10.2191L25.8251 10.7454L25.863 10.7255C25.9353 10.0928 26.2718 9.61863 26.8725 9.30288C27.3889 9.0314 27.8654 8.99051 28.3019 9.18023C28.7412 9.36848 29.1312 9.7868 29.4721 10.4352L30.7535 12.873C30.7904 12.9432 30.7737 12.9967 30.7036 13.0336L29.5078 13.6622C29.4376 13.6991 29.3841 13.6824 29.3472 13.6122L28.0658 11.1744C27.902 10.8628 27.7207 10.6644 27.5218 10.5791C27.3229 10.4937 27.0943 10.519 26.8361 10.6547C26.5778 10.7904 26.4254 10.9673 26.3788 11.1853C26.3306 11.4004 26.3877 11.6624 26.55 11.9712L27.8315 14.409C27.8684 14.4792 27.8545 14.5312 27.79 14.5652L26.5942 15.1937Z" fill="white"/>
<path d="M33.7316 11.919C33.1184 12.135 32.559 12.0884 32.0533 11.779C31.5475 11.4697 31.1619 10.9382 30.8963 10.1845C30.6265 9.41883 30.5898 8.76103 30.786 8.21109C30.9812 7.65815 31.3914 7.27156 32.0164 7.05131C32.3096 6.94804 32.6069 6.91891 32.9086 6.96392C33.2092 7.00594 33.4763 7.11523 33.71 7.29178L33.7593 7.27439L33.5617 6.7136C33.5354 6.63883 33.5581 6.5888 33.6299 6.56351L34.9085 6.11299C34.9803 6.0877 35.0293 6.11244 35.0557 6.18721L36.3187 9.77178L36.7539 9.61845C36.8197 9.59527 36.8652 9.61957 36.8905 9.69135L37.1751 10.4989C37.2014 10.5737 37.1817 10.6226 37.1159 10.6458L35.9943 11.041C35.5038 11.2138 35.1863 11.0954 35.042 10.6856L35.0262 10.6408L34.9813 10.6566C34.9228 10.9294 34.7806 11.1795 34.5548 11.407C34.329 11.6345 34.0546 11.8052 33.7316 11.919ZM32.4127 9.6502C32.5645 10.0809 32.7697 10.3818 33.0283 10.5529C33.2889 10.72 33.5792 10.7471 33.8993 10.6344C34.2163 10.5227 34.418 10.3221 34.5043 10.0328C34.5937 9.74247 34.5619 9.38045 34.4091 8.94677C34.2595 8.52206 34.0568 8.22363 33.8011 8.05146C33.5474 7.87525 33.265 7.84194 32.954 7.95154C32.6369 8.06325 32.4303 8.26886 32.3341 8.56837C32.2369 8.86488 32.2631 9.2255 32.4127 9.6502Z" fill="white"/>
<path d="M42.5242 9.65169C41.8829 9.73717 41.3449 9.57696 40.9101 9.17104C40.4784 8.76471 40.2098 8.16549 40.1042 7.37338C39.9974 6.57184 40.0976 5.92023 40.4051 5.41857C40.7125 4.91691 41.1915 4.62271 41.8422 4.53597C42.1534 4.49449 42.452 4.52666 42.738 4.63249C43.0268 4.73476 43.2675 4.89622 43.46 5.11689L43.5119 5.10997L43.1681 2.5309C43.1576 2.45231 43.1869 2.40841 43.2561 2.39919L44.5999 2.22006C44.6753 2.21 44.7183 2.24426 44.7287 2.32285L45.6244 9.04165C45.6349 9.12023 45.6024 9.16455 45.527 9.17461L44.2586 9.34369C44.1832 9.35375 44.1403 9.31948 44.1298 9.2409L44.0531 8.66568L44.0154 8.6707C43.8991 8.92615 43.7071 9.14209 43.4395 9.31852C43.1719 9.49496 42.8668 9.60602 42.5242 9.65169ZM41.7073 7.15967C41.7676 7.61231 41.9069 7.94885 42.125 8.16931C42.3427 8.38662 42.6213 8.47264 42.9608 8.42739C43.2909 8.38339 43.5293 8.22843 43.6762 7.96251C43.8227 7.69345 43.8658 7.3326 43.8054 6.87997C43.7459 6.43362 43.6087 6.10001 43.3937 5.87913C43.1814 5.6547 42.9118 5.56427 42.5849 5.60785C42.2486 5.65269 42.0027 5.81183 41.8472 6.0853C41.6944 6.3552 41.6478 6.71332 41.7073 7.15967Z" fill="white"/>
<path d="M49.4155 9.17962C48.5879 9.17223 47.9336 8.93488 47.4525 8.46759C46.9747 8.00032 46.7393 7.37031 46.7464 6.57756C46.7534 5.78799 47.0016 5.1623 47.491 4.7005C47.9803 4.2387 48.634 4.01146 49.4521 4.01877C50.2544 4.02594 50.877 4.25824 51.3201 4.71569C51.7663 5.17316 51.9858 5.8062 51.9786 6.6148L51.9762 6.88592C51.9756 6.95568 51.9372 6.99022 51.8611 6.98954L48.3603 6.95826C48.3824 7.32315 48.4862 7.60473 48.6715 7.803C48.86 7.99813 49.1208 8.09719 49.4537 8.10016C49.9579 8.10466 50.2703 7.92511 50.3909 7.5615C50.4136 7.49827 50.4567 7.46695 50.5201 7.46751L51.8377 7.47929C51.8757 7.47963 51.9042 7.48781 51.9231 7.50383C51.9452 7.51671 51.9545 7.53741 51.9511 7.56592C51.8609 8.07251 51.5942 8.46971 51.1508 8.7575C50.7106 9.04532 50.1322 9.18603 49.4155 9.17962ZM48.3673 6.17344L50.4459 6.19201C50.43 5.84621 50.3372 5.57899 50.1677 5.39038C50.0013 5.19862 49.7691 5.1014 49.471 5.09874C49.1444 5.09582 48.8867 5.18707 48.698 5.37249C48.5092 5.5579 48.399 5.82489 48.3673 6.17344Z" fill="white"/>
<path d="M58.2928 10.1823C57.4713 10.0053 56.855 9.68115 56.444 9.20983C56.0361 8.73918 55.8616 8.1566 55.9204 7.46211C55.9291 7.3764 55.9769 7.3429 56.0637 7.3616L57.3936 7.64811C57.4525 7.6608 57.4849 7.6986 57.4908 7.7615C57.482 8.10346 57.5616 8.37364 57.7297 8.57205C57.901 8.77113 58.1679 8.90974 58.5306 8.98788C58.8437 9.05533 59.1033 9.03989 59.3094 8.94156C59.5155 8.84323 59.6446 8.67316 59.6966 8.43136C59.7427 8.21746 59.7093 8.04157 59.5962 7.90369C59.487 7.76337 59.2784 7.63247 58.9704 7.51098L58.2183 7.20783C57.5535 6.95107 57.0884 6.62542 56.823 6.2309C56.5584 5.83327 56.4861 5.35546 56.6063 4.79746C56.7426 4.16507 57.0677 3.7177 57.5816 3.45537C58.0986 3.19371 58.7492 3.14736 59.5335 3.31632C60.293 3.47995 60.8679 3.78545 61.258 4.23282C61.6482 4.6802 61.8233 5.23044 61.7831 5.88354C61.7782 5.92141 61.7622 5.9504 61.7352 5.97053C61.7119 5.98822 61.6832 5.99339 61.6491 5.98605L60.3146 5.69854C60.2495 5.68451 60.2175 5.63708 60.2187 5.55624C60.2168 5.26389 60.1416 5.03357 59.9929 4.86531C59.8443 4.69704 59.615 4.57951 59.305 4.51273C59.0043 4.44795 58.7615 4.46053 58.5767 4.55047C58.395 4.64107 58.2787 4.80417 58.228 5.03977C58.1819 5.25367 58.2199 5.43865 58.342 5.59471C58.4641 5.75076 58.6769 5.8923 58.9804 6.01932L59.7448 6.31052C60.4331 6.57883 60.898 6.89794 61.1394 7.26785C61.3809 7.63777 61.4378 8.11878 61.3103 8.71087C61.1754 9.33707 60.8379 9.78176 60.2978 10.045C59.7578 10.3081 59.0894 10.3539 58.2928 10.1823Z" fill="white"/>
<path d="M62.1485 11.1255C62.0733 11.1004 62.0482 11.0503 62.0733 10.9751L63.5815 6.44879C63.6065 6.37357 63.6567 6.3485 63.7319 6.37356L65.0135 6.80061C65.0827 6.82367 65.1048 6.8728 65.0797 6.94801L63.5715 11.4743C63.5464 11.5495 63.4993 11.5756 63.4301 11.5525L62.1485 11.1255ZM63.8566 5.47254L64.2912 4.16836C64.3133 4.10217 64.3604 4.08111 64.4326 4.10517L65.809 4.56379C65.8842 4.58886 65.9108 4.63448 65.8887 4.70067L65.4542 6.00485C65.4321 6.07103 65.3835 6.0916 65.3083 6.06653L63.9319 5.60791C63.8597 5.58385 63.8346 5.53872 63.8566 5.47254Z" fill="white"/>
<path d="M66.7471 12.9564C66.1268 12.6812 65.6931 12.3412 65.4459 11.9366C65.2 11.5291 65.1538 11.0784 65.3071 10.5844C65.3196 10.5483 65.3391 10.524 65.3655 10.5114C65.3932 10.496 65.4229 10.4953 65.4548 10.5095L66.5417 10.9918C66.6026 11.0189 66.6276 11.0681 66.6167 11.1396C66.5711 11.3518 66.594 11.5268 66.6856 11.6645C66.78 11.8036 66.9388 11.9226 67.1619 12.0217C67.3475 12.104 67.512 12.1319 67.6556 12.1054C67.8034 12.0774 67.9049 12.001 67.9602 11.8764C68.0181 11.7459 68.0185 11.6316 67.9615 11.5335C67.9057 11.4324 67.7827 11.3188 67.5923 11.1927L67.014 10.7955C66.5718 10.5021 66.2837 10.1973 66.1499 9.88123C66.0203 9.56351 66.0456 9.20176 66.2257 8.79597C66.4212 8.3554 66.7443 8.08074 67.195 7.97199C67.6486 7.86453 68.1711 7.94201 68.7624 8.20442C69.2986 8.4424 69.684 8.75048 69.9186 9.12868C70.1545 9.50398 70.2038 9.92832 70.0666 10.4017C70.0586 10.4432 70.0399 10.4697 70.0106 10.4809C69.9842 10.4935 69.9551 10.4927 69.9232 10.4786L68.8406 9.99811C68.7768 9.96982 68.7496 9.91783 68.7589 9.84216C68.7949 9.66731 68.7798 9.52532 68.7138 9.41621C68.649 9.3042 68.5282 9.20896 68.3514 9.13049C68.1717 9.05073 68.0179 9.02586 67.8901 9.05588C67.7652 9.08718 67.6732 9.16949 67.614 9.30282C67.5587 9.42746 67.5591 9.54385 67.6151 9.652C67.6754 9.75855 67.8102 9.88082 68.0196 10.0188L68.6085 10.4155C69.0566 10.7115 69.3372 11.0095 69.4503 11.3095C69.5664 11.6108 69.5344 11.9644 69.3543 12.3702C69.1395 12.8542 68.8085 13.1427 68.3613 13.2357C67.917 13.3299 67.379 13.2369 66.7471 12.9564Z" fill="white"/>
<path d="M71.5478 15.3704C71.11 15.1138 70.843 14.8011 70.7468 14.4323C70.6521 14.0607 70.7339 13.6547 70.992 13.2142L72.1729 11.1992L71.504 10.8072C71.4356 10.7671 71.4214 10.7129 71.4615 10.6445L71.8944 9.9058C71.9345 9.8374 71.9888 9.82325 72.0572 9.86333L72.7261 10.2554L73.4188 9.07347C73.4556 9.01055 73.5083 8.99913 73.5767 9.03921L74.7463 9.72467C74.8065 9.75994 74.8181 9.80904 74.7812 9.87197L74.0886 11.0539L75.0735 11.6311C75.1391 11.6696 75.1519 11.723 75.1118 11.7914L74.6789 12.5301C74.6613 12.5602 74.6373 12.5792 74.6069 12.5871C74.5765 12.5951 74.5477 12.591 74.5203 12.575L73.5354 11.9977L72.1067 14.4354L73.0835 15.0078C73.1491 15.0463 73.1627 15.0984 73.1242 15.164L72.6913 15.9027C72.6512 15.9711 72.5983 15.9861 72.5327 15.9476L71.5478 15.3704Z" fill="white"/>
<path d="M75.4641 18.1279C74.8056 17.6265 74.4236 17.0447 74.318 16.3824C74.2149 15.7221 74.4035 15.0765 74.8838 14.4457C75.3621 13.8175 75.9354 13.4649 76.6039 13.3879C77.2723 13.3109 77.9319 13.5202 78.5829 14.0158C79.2212 14.5018 79.5809 15.0606 79.662 15.6923C79.7456 16.3259 79.5424 16.9643 79.0526 17.6077L78.8884 17.8234C78.8461 17.879 78.7947 17.8837 78.7341 17.8376L75.9487 15.7168C75.7479 16.0224 75.6625 16.31 75.6922 16.5798C75.7264 16.8489 75.876 17.0844 76.1409 17.2861C76.5421 17.5915 76.8998 17.6347 77.2141 17.4156C77.2701 17.3786 77.3234 17.3793 77.3739 17.4177L78.4222 18.2158C78.4525 18.2389 78.4704 18.2625 78.4759 18.2866C78.4859 18.3102 78.481 18.3323 78.4612 18.3531C78.0857 18.7049 77.6342 18.8634 77.1068 18.8285C76.5819 18.7956 76.0343 18.562 75.4641 18.1279ZM76.4241 15.0924L78.078 16.3516C78.2722 16.065 78.3579 15.7954 78.335 15.5429C78.3165 15.2897 78.1887 15.0728 77.9515 14.8922C77.6916 14.6943 77.4306 14.6132 77.1684 14.6487C76.9062 14.6842 76.6581 14.8321 76.4241 15.0924Z" fill="white"/>
<path d="M78.4994 20.3391C78.4456 20.2808 78.4478 20.2248 78.5061 20.171L82.0104 16.9335C82.0686 16.8797 82.1246 16.8819 82.1784 16.9401L83.0435 17.8765C83.0951 17.9324 83.0918 17.9872 83.0336 18.041L82.5969 18.4445L82.6259 18.476C83.2403 18.3746 83.7745 18.5697 84.2286 19.0611C84.6934 19.5642 84.8284 20.0936 84.6336 20.6491L84.6659 20.6841C85.3255 20.6316 85.9049 20.8756 86.4041 21.416C86.7893 21.8329 86.9458 22.2733 86.8736 22.7372C86.8059 23.2013 86.5088 23.6765 85.9824 24.1629L83.9385 26.0511C83.8803 26.1049 83.8253 26.1039 83.7737 26.048L82.8538 25.0522C82.8021 24.9963 82.8054 24.9415 82.8636 24.8877L84.9075 22.9994C85.1568 22.7692 85.2956 22.5502 85.324 22.3427C85.3524 22.1351 85.2719 21.9288 85.0826 21.7238C84.7167 21.3279 84.2904 21.3548 83.8036 21.8045L81.7597 23.6928C81.7015 23.7466 81.6455 23.7444 81.5917 23.6862L80.6717 22.6904C80.6201 22.6345 80.6234 22.5797 80.6816 22.5259L82.7255 20.6376C82.9747 20.4073 83.1146 20.1896 83.1452 19.9843C83.1758 19.7791 83.0964 19.574 82.907 19.369C82.7176 19.164 82.5172 19.0686 82.3057 19.0827C82.0965 19.0946 81.8685 19.2146 81.6216 19.4427L79.5777 21.331C79.5195 21.3848 79.4656 21.3849 79.4161 21.3313L78.4994 20.3391Z" fill="white"/>
<path d="M85.4014 28.7491C85.0526 28.2006 84.9718 27.645 85.159 27.0825C85.3462 26.52 85.777 26.0244 86.4513 25.5956C87.1363 25.16 87.7689 24.9757 88.3489 25.0428C88.9316 25.1081 89.4008 25.4204 89.7564 25.9797C89.9232 26.2419 90.0187 26.5251 90.0429 26.8291C90.0698 27.1314 90.0236 27.4163 89.9044 27.6838L89.9325 27.728L90.4342 27.4089C90.5011 27.3664 90.555 27.3772 90.5958 27.4414L91.3232 28.5854C91.3641 28.6496 91.3511 28.703 91.2842 28.7455L88.0771 30.7849L88.3247 31.1743C88.3621 31.2331 88.3487 31.283 88.2845 31.3238L87.562 31.7833C87.4951 31.8258 87.443 31.8176 87.4055 31.7588L86.7674 30.7553C86.4884 30.3165 86.5321 29.9805 86.8987 29.7474L86.9388 29.7218L86.9133 29.6817C86.6344 29.6862 86.3586 29.6042 86.086 29.4356C85.8134 29.2669 85.5852 29.0381 85.4014 28.7491ZM87.314 26.9523C86.9287 27.1973 86.6819 27.4651 86.5736 27.7557C86.4696 28.0473 86.5087 28.3362 86.6908 28.6226C86.8711 28.9062 87.112 29.0574 87.4133 29.0763C87.7164 29.0978 88.0619 28.9851 88.4499 28.7384C88.8299 28.4968 89.0749 28.232 89.1849 27.9441C89.2993 27.6571 89.268 27.3745 89.091 27.0962C88.9106 26.8125 88.6637 26.6577 88.3502 26.6315C88.0394 26.6037 87.694 26.7106 87.314 26.9523Z" fill="white"/>
<path d="M88.6748 34.6582C88.3913 34.0416 88.2906 33.4998 88.3726 33.0328C88.4575 32.5645 88.7207 32.1957 89.1623 31.9264C89.1955 31.9076 89.2262 31.9022 89.2543 31.9102C89.2853 31.9169 89.3081 31.9361 89.3227 31.9678L89.8194 33.0483C89.8472 33.1088 89.8334 33.1623 89.7779 33.2087C89.6034 33.3378 89.505 33.4842 89.4826 33.6481C89.4615 33.8148 89.502 34.0091 89.604 34.231C89.6888 34.4154 89.7938 34.5451 89.919 34.6202C90.0485 34.6968 90.1751 34.7066 90.299 34.6496C90.4287 34.59 90.5046 34.5045 90.5267 34.3932C90.5516 34.2805 90.5344 34.1139 90.4749 33.8934L90.3035 33.2131C90.1656 32.7006 90.151 32.2816 90.2596 31.9559C90.3723 31.6319 90.6304 31.3771 91.0338 31.1917C91.4717 30.9903 91.8957 30.9978 92.3058 31.2142C92.7172 31.4334 93.058 31.8369 93.3282 32.4247C93.5733 32.9577 93.6588 33.4436 93.5848 33.8825C93.5138 34.32 93.2703 34.671 92.8544 34.9355C92.8209 34.9614 92.7894 34.9689 92.76 34.958C92.7319 34.95 92.7105 34.9301 92.696 34.8984L92.2012 33.8223C92.1721 33.7589 92.186 33.7019 92.243 33.6512C92.3856 33.5438 92.4682 33.4273 92.4907 33.3018C92.5162 33.1749 92.4885 33.0236 92.4077 32.8479C92.3256 32.6692 92.2266 32.5489 92.1109 32.487C91.9965 32.4279 91.873 32.4288 91.7405 32.4897C91.6166 32.5467 91.5399 32.6343 91.5105 32.7525C91.4853 32.8723 91.5056 33.0531 91.5715 33.2951L91.7512 33.9821C91.8917 34.5003 91.9053 34.9094 91.7918 35.2093C91.6798 35.5122 91.422 35.7563 91.0187 35.9417C90.5375 36.1629 90.0984 36.1606 89.7014 35.9348C89.3058 35.7118 88.9635 35.2863 88.6748 34.6582Z" fill="white"/>
<path d="M6.27653 81.1554C5.92924 80.6096 5.84828 80.0541 6.03363 79.4889C6.22068 78.9264 6.65131 78.4306 7.32552 78.0016C8.00775 77.5675 8.64108 77.3844 9.22552 77.4523C9.80996 77.5202 10.2784 77.831 10.6308 78.3848C10.7993 78.6497 10.8957 78.9341 10.92 79.2381C10.9487 79.5431 10.9035 79.8294 10.7843 80.0969L10.8124 80.1411L13.0075 78.7443C13.0744 78.7017 13.1266 78.7099 13.1641 78.7687L13.8918 79.9125C13.9327 79.9767 13.9197 80.03 13.8528 80.0726L8.13408 83.7114C8.06719 83.754 8.01332 83.7432 7.97247 83.679L7.28556 82.5994C7.2447 82.5352 7.25771 82.4818 7.3246 82.4393L7.8142 82.1277L7.79377 82.0956C7.5131 82.0976 7.23645 82.0143 6.96382 81.8457C6.69118 81.6771 6.46209 81.4471 6.27653 81.1554ZM8.19373 79.3661C7.80847 79.6112 7.56172 79.8791 7.45348 80.1697C7.34791 80.4587 7.38706 80.7476 7.57091 81.0366C7.74966 81.3175 7.99056 81.4686 8.2936 81.4901C8.59932 81.5098 8.94481 81.3971 9.33007 81.1519C9.70998 80.9102 9.9549 80.6453 10.0648 80.3574C10.1792 80.0704 10.1478 79.7878 9.97076 79.5095C9.7886 79.2233 9.54078 79.0671 9.22728 79.0411C8.91815 79.016 8.57364 79.1243 8.19373 79.3661Z" fill="white"/>
<path d="M10.5304 87.0393C9.99923 86.4046 9.75548 85.7526 9.79915 85.0834C9.84486 84.4166 10.1717 83.8288 10.7797 83.3201C11.3852 82.8133 12.0224 82.5964 12.6913 82.6693C13.3601 82.7422 13.9571 83.0923 14.4822 83.7198C14.9971 84.335 15.2241 84.9596 15.1633 85.5936C15.1046 86.2299 14.7651 86.8076 14.145 87.3265L13.9371 87.5005C13.8836 87.5453 13.8324 87.5385 13.7835 87.4802L11.5367 84.7954C11.2733 85.0489 11.1263 85.3104 11.0956 85.5801C11.0694 85.8502 11.1631 86.1129 11.3768 86.3682C11.7004 86.7549 12.0397 86.8762 12.3946 86.7321C12.4575 86.7084 12.5093 86.7209 12.55 86.7696L13.3956 87.78C13.42 87.8092 13.4323 87.8362 13.4323 87.8609C13.4368 87.8861 13.4271 87.9066 13.4032 87.9225C12.9592 88.1825 12.4838 88.237 11.9772 88.0863C11.4726 87.9379 10.9904 87.5889 10.5304 87.0393ZM12.1386 84.2917L13.4727 85.8858C13.7255 85.6493 13.8688 85.4054 13.9023 85.154C13.9404 84.903 13.8638 84.6632 13.6724 84.4346C13.4628 84.1841 13.2262 84.0472 12.9627 84.0238C12.6991 84.0004 12.4244 84.0897 12.1386 84.2917Z" fill="white"/>
<path d="M15.3736 91.9646C15.3141 91.9123 15.3105 91.8563 15.3629 91.7968L19.7098 86.8529C19.7622 86.7933 19.8181 86.7897 19.8777 86.8421L20.9243 87.7624C20.9767 87.8084 20.9767 87.8612 20.9244 87.9208L16.5774 92.8647C16.5251 92.9242 16.4727 92.931 16.4203 92.8849L15.3736 91.9646Z" fill="white"/>
<path d="M17.9218 94.18C17.8573 94.1338 17.8482 94.0785 17.8944 94.0141L20.6739 90.1364C20.7201 90.072 20.7754 90.0629 20.8398 90.1091L21.8759 90.8518C21.9378 90.8961 21.9456 90.9505 21.8994 91.0149L21.553 91.4982L21.5878 91.5231C22.1858 91.304 22.7605 91.3922 23.312 91.7875C23.7863 92.1275 24.0365 92.535 24.0626 93.0103C24.0913 93.4873 23.8922 94.0235 23.4655 94.6189L21.8609 96.8573C21.8148 96.9218 21.7594 96.9309 21.695 96.8847L20.5971 96.0977C20.5326 96.0515 20.5235 95.9962 20.5697 95.9318L22.1742 93.6933C22.3793 93.4072 22.4754 93.1562 22.4624 92.9401C22.4495 92.7241 22.3245 92.5311 22.0874 92.3611C21.8503 92.1911 21.6239 92.1342 21.4081 92.1902C21.1942 92.2437 20.9857 92.4122 20.7824 92.6957L19.1779 94.9341C19.1317 94.9986 19.079 95.0095 19.0197 94.967L17.9218 94.18Z" fill="white"/>
<path d="M23.7308 98.083C23.6616 98.0443 23.6463 97.9904 23.685 97.9212L25.4995 94.6741L24.8227 94.2958C24.7535 94.2572 24.7374 94.2046 24.7746 94.1382L25.1946 93.3866C25.2317 93.3202 25.2848 93.3063 25.354 93.345L26.0309 93.7232L26.2838 93.2706C26.5313 92.8277 26.8385 92.5543 27.2052 92.4505C27.572 92.3467 27.9769 92.4185 28.4198 92.666L29.4163 93.2229C29.4828 93.2601 29.4967 93.3132 29.458 93.3824L29.0403 94.1298C29.0016 94.1991 28.9491 94.2151 28.8826 94.178L27.8944 93.6257L27.4094 94.4935L28.406 95.0504C28.4364 95.0675 28.4546 95.0903 28.4603 95.1189C28.4689 95.1492 28.4654 95.1781 28.45 95.2058L28.03 95.9573C27.9928 96.0238 27.9411 96.0384 27.8746 96.0013L26.8781 95.4444L25.0635 98.6915C25.0249 98.7607 24.9751 98.7783 24.9142 98.7443L23.7308 98.083Z" fill="white"/>
<path d="M31.5928 101.157C30.9608 101.4 30.272 101.365 29.5266 101.052C28.7811 100.739 28.2742 100.271 28.0059 99.649C27.7405 99.0284 27.759 98.3585 28.0613 97.6393C28.3636 96.9202 28.8287 96.4398 29.4566 96.1981C30.0887 95.9547 30.7774 95.9896 31.5229 96.303C32.2683 96.6164 32.7752 97.084 33.0435 97.7059C33.3131 98.3249 33.2967 98.9939 32.9944 99.7131C32.6921 100.432 32.2249 100.913 31.5928 101.157ZM29.5434 98.2624C29.3591 98.7009 29.3017 99.0706 29.3712 99.3716C29.4449 99.6709 29.6411 99.8875 29.9597 100.021C30.2755 100.154 30.566 100.142 30.8314 99.9854C31.101 99.827 31.3279 99.5285 31.5123 99.09C31.6954 98.6544 31.7492 98.2849 31.6738 97.9815C31.6026 97.6764 31.4091 97.4574 31.0934 97.3247C30.7777 97.192 30.4859 97.2069 30.218 97.3695C29.9514 97.5292 29.7265 97.8268 29.5434 98.2624Z" fill="white"/>
<path d="M33.3775 102.43C33.3106 102.41 33.2884 102.362 33.311 102.286L34.2551 99.1027C34.3994 98.6163 34.6376 98.2817 34.9696 98.0991C35.3047 97.9173 35.7154 97.8986 36.2019 98.0428L37.7524 98.5028C37.8223 98.5235 37.846 98.5719 37.8234 98.6479L37.5407 99.601C37.5209 99.6679 37.476 99.6909 37.4061 99.6702L35.8647 99.213L34.8204 102.734C34.7979 102.81 34.7532 102.838 34.6863 102.818L33.3775 102.43Z" fill="white"/>
<path d="M37.8597 103.801C37.7813 103.789 37.7479 103.744 37.7594 103.666L38.4562 98.9458C38.4678 98.8673 38.5128 98.8339 38.5912 98.8455L39.8524 99.0317C39.9277 99.0428 39.9595 99.0876 39.9479 99.166L39.8611 99.7542L39.9034 99.7604C40.3182 99.296 40.8566 99.1126 41.5185 99.2103C42.1961 99.3104 42.6334 99.6378 42.8304 100.193L42.8774 100.2C43.3581 99.7448 43.9623 99.5711 44.6901 99.6786C45.2516 99.7615 45.6498 100.006 45.8847 100.413C46.1232 100.817 46.1901 101.373 46.0855 102.082L45.6791 104.835C45.6675 104.913 45.624 104.947 45.5488 104.936L44.2076 104.738C44.1324 104.727 44.1005 104.682 44.1121 104.603L44.5185 101.851C44.568 101.515 44.5387 101.257 44.4306 101.078C44.3225 100.898 44.1304 100.788 43.8543 100.748C43.321 100.669 43.0059 100.957 42.9091 101.613L42.5027 104.366C42.4912 104.444 42.4462 104.478 42.3677 104.466L41.0266 104.268C40.9513 104.257 40.9195 104.212 40.9311 104.134L41.3375 101.381C41.387 101.045 41.3593 100.788 41.2543 100.609C41.1493 100.43 40.9588 100.32 40.6827 100.279C40.4066 100.239 40.1907 100.29 40.0348 100.434C39.8795 100.574 39.7772 100.811 39.7281 101.143L39.3217 103.896C39.3101 103.975 39.2683 104.008 39.1961 103.998L37.8597 103.801Z" fill="white"/>
<path d="M49.1186 104.98C48.4687 104.992 47.9524 104.772 47.5697 104.319C47.1871 103.866 46.9884 103.241 46.9736 102.442C46.9586 101.63 47.1308 100.994 47.4902 100.534C47.8495 100.07 48.3605 99.8326 49.0232 99.8203C49.3339 99.8146 49.6253 99.8805 49.8975 100.018C50.1695 100.153 50.3887 100.341 50.5549 100.582L50.6072 100.581L50.5962 99.9863C50.5947 99.907 50.6321 99.8667 50.7082 99.8653L52.0636 99.8402C52.1397 99.8388 52.1784 99.8777 52.1799 99.957L52.2502 103.757L52.7115 103.748C52.7813 103.747 52.8168 103.784 52.8183 103.861L52.8341 104.717C52.8356 104.796 52.8014 104.836 52.7317 104.837L51.5427 104.859C51.0227 104.869 50.7587 104.657 50.7507 104.222L50.7498 104.175L50.7022 104.176C50.5608 104.416 50.3471 104.609 50.0612 104.754C49.7752 104.898 49.461 104.974 49.1186 104.98ZM48.5811 102.412C48.5895 102.868 48.6896 103.219 48.8812 103.462C49.076 103.703 49.343 103.82 49.6822 103.814C50.0183 103.808 50.2728 103.681 50.4459 103.433C50.6221 103.186 50.7059 102.832 50.6974 102.373C50.6891 101.922 50.5907 101.575 50.4023 101.331C50.2169 101.084 49.9594 100.964 49.6296 100.97C49.2935 100.976 49.0327 101.106 48.8471 101.36C48.6614 101.611 48.5728 101.962 48.5811 102.412Z" fill="white"/>
<path d="M56.1077 106.381C56.0324 106.392 55.9893 106.362 55.9784 106.29L55.9088 105.829C55.8979 105.756 55.9301 105.715 56.0053 105.703L56.5462 105.622C56.6936 105.599 56.8009 105.567 56.8683 105.525C56.9388 105.482 56.9672 105.415 56.9535 105.324C56.9392 105.23 56.895 105.171 56.8208 105.147C56.7471 105.126 56.6319 105.128 56.4751 105.151L56.2823 105.18C56.2478 105.186 56.2179 105.179 56.1926 105.16C56.1678 105.145 56.1531 105.121 56.1483 105.09L56.051 104.446C55.3599 104.457 54.788 104.269 54.335 103.882C53.8852 103.495 53.6074 102.952 53.5018 102.252C53.3852 101.481 53.5348 100.827 53.9507 100.289C54.3692 99.7481 54.9814 99.4166 55.7872 99.2948C56.477 99.1906 57.06 99.2708 57.5362 99.5356C58.0151 99.7968 58.3341 100.21 58.4935 100.776C58.5023 100.814 58.4976 100.846 58.4795 100.875C58.464 100.9 58.439 100.915 58.4045 100.92L57.1064 101.116C57.0374 101.126 56.9923 101.093 56.971 101.016C56.8842 100.76 56.7581 100.583 56.5927 100.486C56.4273 100.39 56.2145 100.361 55.9543 100.4C55.6094 100.452 55.3618 100.618 55.2116 100.897C55.0614 101.176 55.0213 101.548 55.0915 102.012C55.1621 102.479 55.3102 102.823 55.5357 103.042C55.7613 103.261 56.0465 103.345 56.3914 103.293C56.6579 103.252 56.859 103.161 56.9947 103.019C57.1329 102.873 57.2122 102.665 57.2325 102.396C57.2305 102.319 57.2624 102.276 57.3283 102.266L58.6311 102.069C58.6656 102.064 58.6952 102.069 58.72 102.084C58.7448 102.1 58.758 102.124 58.7596 102.155C58.7632 102.71 58.597 103.181 58.2611 103.568C57.9279 103.952 57.4492 104.212 56.8251 104.348L56.8649 104.611C57.1428 104.582 57.3642 104.626 57.5293 104.742C57.6944 104.858 57.7937 105.027 57.8274 105.25C57.9132 105.818 57.5814 106.158 56.832 106.271L56.1077 106.381Z" fill="white"/>
<path d="M62.1581 103.217C61.5336 103.398 60.9778 103.319 60.4906 102.981C60.0034 102.644 59.6488 102.091 59.4268 101.323C59.2013 100.543 59.2022 99.8846 59.4296 99.3468C59.6561 98.8059 60.0877 98.4435 60.7244 98.2593C61.0229 98.173 61.3215 98.1609 61.6201 98.2231C61.9178 98.2823 62.1782 98.4067 62.4014 98.5963L62.4517 98.5818L62.2865 98.0106C62.2645 97.9345 62.29 97.8858 62.3631 97.8647L63.6654 97.4881C63.7385 97.4669 63.7861 97.4944 63.8081 97.5706L64.8639 101.222L65.3072 101.093C65.3742 101.074 65.4183 101.101 65.4394 101.174L65.6773 101.996C65.6993 102.073 65.6768 102.12 65.6098 102.14L64.4674 102.47C63.9678 102.615 63.6577 102.478 63.537 102.061L63.5238 102.015L63.4781 102.028C63.404 102.297 63.2478 102.539 63.0093 102.753C62.7709 102.967 62.4871 103.122 62.1581 103.217ZM59.2042 97.9166C59.0948 97.4927 59.1026 97.1372 59.2276 96.8502C59.3516 96.5602 59.5782 96.3676 59.9072 96.2724C60.09 96.2196 60.3496 96.2155 60.686 96.2601C61.0224 96.3048 61.2424 96.3121 61.346 96.2822C61.5074 96.2355 61.5832 96.1096 61.5734 95.9044C61.5714 95.8291 61.5994 95.783 61.6573 95.7663L62.4341 95.5417C62.5072 95.5205 62.5548 95.548 62.5768 95.6242C62.6862 96.0481 62.6788 96.4051 62.5547 96.6951C62.4298 96.9822 62.2043 97.1728 61.8784 97.2671C61.6956 97.3199 61.4355 97.3225 61.0982 97.2748C60.7609 97.2271 60.539 97.2187 60.4324 97.2495C60.2709 97.2962 60.1951 97.4221 60.2049 97.6272C60.2086 97.7087 60.1831 97.7573 60.1283 97.7732L59.3515 97.9978C59.2753 98.0198 59.2262 97.9928 59.2042 97.9166ZM60.9713 100.877C61.0981 101.315 61.2858 101.627 61.5342 101.813C61.7848 101.995 62.0731 102.039 62.3991 101.944C62.722 101.851 62.9348 101.662 63.0376 101.378C63.1434 101.094 63.1324 100.73 63.0047 100.289C62.8796 99.856 62.6943 99.5465 62.4489 99.36C62.2057 99.1695 61.9257 99.1201 61.6089 99.2117C61.286 99.3051 61.0679 99.4986 60.9547 99.7921C60.8407 100.083 60.8462 100.444 60.9713 100.877Z" fill="white"/>
<path d="M70.6637 99.3034C70.4056 99.9296 69.9065 100.406 69.1663 100.731C68.4261 101.057 67.738 101.103 67.1021 100.87C66.469 100.636 65.9954 100.162 65.6813 99.4475C65.3672 98.7334 65.3384 98.0654 65.5948 97.4433C65.8529 96.8171 66.352 96.3412 67.0922 96.0156C67.8324 95.69 68.5205 95.6438 69.1565 95.8767C69.7912 96.1068 70.2656 96.5789 70.5796 97.293C70.8937 98.007 70.9217 98.6772 70.6637 99.3034ZM67.153 98.8002C67.3445 99.2356 67.5734 99.5316 67.8397 99.6881C68.1077 99.8405 68.3999 99.8471 68.7163 99.7079C69.0297 99.57 69.2209 99.3508 69.2896 99.0504C69.36 98.7457 69.2995 98.3757 69.108 97.9403C68.9177 97.5078 68.6865 97.2145 68.4144 97.0605C68.1439 96.9024 67.8519 96.8922 67.5384 97.0301C67.2249 97.168 67.0351 97.3901 66.9689 97.6964C66.9014 97.9997 66.9627 98.3677 67.153 98.8002Z" fill="white"/>
<path d="M75.0338 97.6657C74.9683 97.7104 74.9132 97.7 74.8686 97.6345L74.437 97.0019C74.4031 96.9521 74.3942 96.9025 74.4104 96.8531L75.2099 93.9988C75.3588 93.4404 75.4274 92.9924 75.4159 92.6548C75.4026 92.3146 75.3049 92.0108 75.1226 91.7436C74.8081 91.2826 74.4203 91.2093 73.9592 91.5238C73.6947 91.7043 73.5398 91.9078 73.4947 92.1343C73.4478 92.3582 73.507 92.625 73.6721 92.9346C73.7089 93.0054 73.6959 93.0623 73.633 93.1052L72.5052 93.8745C72.445 93.9156 72.3965 93.9007 72.3596 93.8298C72.0057 93.2153 71.9083 92.6195 72.0675 92.0426C72.2268 91.4657 72.6286 90.9574 73.273 90.5178C73.8965 90.0925 74.4923 89.9107 75.0602 89.9724C75.6282 90.0341 76.0927 90.3295 76.4536 90.8587C76.7235 91.2543 76.8727 91.6784 76.9012 92.1311C76.9324 92.582 76.8495 93.1779 76.6524 93.9188L76.3166 95.2245L76.3434 95.2638L78.5558 93.7547C78.6213 93.7101 78.6754 93.7192 78.7183 93.782L79.2893 94.619C79.3339 94.6845 79.3235 94.7396 79.258 94.7843L75.0338 97.6657Z" fill="white"/>
<path d="M82.6028 92.0336C81.8806 92.6864 81.1381 92.9621 80.3754 92.8607C79.615 92.7572 78.8489 92.2785 78.077 91.4245C77.3052 90.5705 76.906 89.76 76.8797 88.9931C76.8533 88.2262 77.2024 87.5152 77.927 86.8603C78.6492 86.2075 79.3905 85.9329 80.1509 86.0364C80.9113 86.1399 81.6774 86.6187 82.4493 87.4727C83.219 88.3243 83.6169 89.1358 83.6431 89.9072C83.6695 90.6742 83.3227 91.383 82.6028 92.0336ZM78.3724 88.8429C78.4536 89.2354 78.7622 89.7281 79.298 90.3209C79.8338 90.9137 80.294 91.2715 80.6784 91.3942C81.0608 91.5146 81.4237 91.4195 81.7672 91.1091C82.1036 90.805 82.2302 90.4533 82.1471 90.0539C82.064 89.6546 81.7577 89.162 81.2283 88.5762C80.6988 87.9904 80.2396 87.6361 79.8507 87.5132C79.4617 87.3902 79.0991 87.4808 78.7626 87.7849C78.4192 88.0953 78.2891 88.448 78.3724 88.8429Z" fill="white"/>
<path d="M85.6106 89.0666C85.5596 89.1272 85.5037 89.1321 85.4431 89.081L84.8571 88.5879C84.811 88.5491 84.7891 88.5037 84.7914 88.4518L84.7929 85.4876C84.786 84.9098 84.7315 84.4599 84.6295 84.1378C84.5251 83.8137 84.3492 83.5475 84.1017 83.3392C83.6747 82.9799 83.2815 83.0137 82.9221 83.4407C82.7159 83.6858 82.6215 83.9235 82.6391 84.1538C82.6543 84.382 82.783 84.623 83.0254 84.8767C83.0799 84.9351 83.0827 84.9933 83.0337 85.0516L82.1547 86.0961C82.1077 86.1519 82.057 86.1506 82.0025 86.0923C81.4961 85.5957 81.2419 85.0482 81.2399 84.4497C81.238 83.8512 81.4881 83.2536 81.9904 82.6567C82.4764 82.0792 83.0011 81.7437 83.5647 81.6502C84.1284 81.5567 84.6552 81.7162 85.1453 82.1287C85.5117 82.437 85.7696 82.8053 85.9189 83.2335C86.0704 83.6594 86.1509 84.2556 86.1606 85.0222L86.1888 86.3701L86.2252 86.4008L87.9496 84.3518C88.0006 84.2911 88.0552 84.2853 88.1135 84.3343L88.8887 84.9866C88.9493 85.0377 88.9541 85.0935 88.9031 85.1542L85.6106 89.0666Z" fill="white"/>
<path d="M91.3045 81.7296C90.87 82.4115 90.3773 82.8572 89.8265 83.0665C89.2775 83.2731 88.7 83.2322 88.0941 82.9439C88.0603 82.9261 88.04 82.9019 88.0332 82.8712C88.0264 82.8406 88.0332 82.8092 88.0537 82.7771L88.7797 81.6379C88.8172 81.579 88.8679 81.5644 88.9318 81.5938C89.4712 81.8097 89.9198 81.6368 90.2776 81.0752C90.4634 80.7837 90.5206 80.5081 90.4493 80.2483C90.3779 79.9885 90.1831 79.7572 89.8649 79.5544C89.2284 79.1488 88.7125 79.2562 88.3171 79.8766C88.0547 80.2884 87.9736 80.7049 88.0737 81.1259C88.0892 81.196 88.0802 81.2485 88.0466 81.2835L87.4541 81.9212C87.4084 81.9635 87.3561 81.9659 87.2972 81.9284L84.461 79.8559C84.4343 79.8388 84.4184 79.8137 84.4133 79.7803C84.4055 79.7453 84.4093 79.7158 84.4246 79.6917L86.6793 76.1537C86.7185 76.0922 86.7715 76.0827 86.8384 76.1253L87.6928 76.6698C87.7222 76.6885 87.7403 76.7132 87.7471 76.7439C87.7556 76.7719 87.7513 76.7992 87.7343 76.826L86.0804 79.4213L87.3008 80.3119L87.3264 80.2718C87.2893 80.0526 87.3042 79.8139 87.371 79.5557C87.4368 79.2931 87.5464 79.0414 87.6998 78.8007C88.0577 78.2391 88.5052 77.9057 89.0423 77.8005C89.5811 77.6926 90.1433 77.8253 90.7289 78.1985C91.3601 78.6007 91.7265 79.1144 91.8282 79.7395C91.929 80.3602 91.7545 81.0236 91.3045 81.7296Z" fill="white"/>
</svg>
