<svg width="180" height="49" viewBox="0 0 180 49" fill="none" xmlns="http://www.w3.org/2000/svg">
<g filter="url(#filter0_d_36_9023)">
<path d="M106.331 14.88C105.271 14.88 104.425 14.644 103.793 14.172C103.165 13.7 102.795 13.028 102.683 12.156C102.671 12.048 102.721 11.994 102.833 11.994H104.549C104.625 11.994 104.675 12.032 104.699 12.108C104.779 12.532 104.949 12.844 105.209 13.044C105.473 13.244 105.839 13.344 106.307 13.344C106.711 13.344 107.027 13.256 107.255 13.08C107.483 12.904 107.597 12.66 107.597 12.348C107.597 12.072 107.509 11.864 107.333 11.724C107.161 11.58 106.869 11.474 106.457 11.406L105.449 11.232C104.561 11.092 103.901 10.814 103.469 10.398C103.037 9.978 102.821 9.408 102.821 8.688C102.821 7.872 103.103 7.234 103.667 6.774C104.235 6.314 105.025 6.084 106.037 6.084C107.017 6.084 107.807 6.308 108.407 6.756C109.007 7.204 109.369 7.836 109.493 8.652C109.497 8.7 109.485 8.74 109.457 8.772C109.433 8.8 109.399 8.814 109.355 8.814H107.633C107.549 8.814 107.497 8.764 107.477 8.664C107.397 8.304 107.243 8.04 107.015 7.872C106.787 7.704 106.473 7.62 106.073 7.62C105.685 7.62 105.389 7.7 105.185 7.86C104.985 8.02 104.885 8.252 104.885 8.556C104.885 8.832 104.981 9.05 105.173 9.21C105.365 9.37 105.665 9.488 106.073 9.564L107.093 9.72C108.013 9.868 108.671 10.138 109.067 10.53C109.463 10.922 109.661 11.5 109.661 12.264C109.661 13.072 109.363 13.71 108.767 14.178C108.171 14.646 107.359 14.88 106.331 14.88ZM113.945 14.88C112.901 14.88 112.073 14.588 111.461 14.004C110.853 13.42 110.549 12.628 110.549 11.628C110.549 10.632 110.855 9.84 111.467 9.252C112.079 8.664 112.901 8.37 113.933 8.37C114.945 8.37 115.733 8.656 116.297 9.228C116.865 9.8 117.149 10.596 117.149 11.616V11.958C117.149 12.046 117.101 12.09 117.005 12.09H112.589C112.621 12.55 112.755 12.904 112.991 13.152C113.231 13.396 113.561 13.518 113.981 13.518C114.617 13.518 115.009 13.288 115.157 12.828C115.185 12.748 115.239 12.708 115.319 12.708H116.981C117.029 12.708 117.065 12.718 117.089 12.738C117.117 12.754 117.129 12.78 117.125 12.816C117.017 13.456 116.685 13.96 116.129 14.328C115.577 14.696 114.849 14.88 113.945 14.88ZM112.589 11.1H115.211C115.187 10.664 115.067 10.328 114.851 10.092C114.639 9.852 114.345 9.732 113.969 9.732C113.557 9.732 113.233 9.85 112.997 10.086C112.761 10.322 112.625 10.66 112.589 11.1ZM118.427 14.784C118.327 14.784 118.277 14.734 118.277 14.634V8.616C118.277 8.516 118.327 8.466 118.427 8.466H120.035C120.131 8.466 120.179 8.516 120.179 8.616V9.366H120.233C120.665 8.71 121.303 8.382 122.147 8.382C123.011 8.382 123.617 8.71 123.965 9.366H124.025C124.541 8.71 125.263 8.382 126.191 8.382C126.907 8.382 127.449 8.614 127.817 9.078C128.189 9.538 128.375 10.22 128.375 11.124V14.634C128.375 14.734 128.327 14.784 128.231 14.784H126.521C126.425 14.784 126.377 14.734 126.377 14.634V11.124C126.377 10.696 126.293 10.38 126.125 10.176C125.957 9.972 125.697 9.87 125.345 9.87C124.665 9.87 124.325 10.288 124.325 11.124V14.634C124.325 14.734 124.275 14.784 124.175 14.784H122.465C122.369 14.784 122.321 14.734 122.321 14.634V11.124C122.321 10.696 122.239 10.38 122.075 10.176C121.911 9.972 121.653 9.87 121.301 9.87C120.949 9.87 120.689 9.974 120.521 10.182C120.353 10.386 120.269 10.7 120.269 11.124V14.634C120.269 14.734 120.223 14.784 120.131 14.784H118.427ZM132.011 14.88C131.191 14.88 130.545 14.59 130.073 14.01C129.601 13.43 129.365 12.636 129.365 11.628C129.365 10.604 129.597 9.806 130.061 9.234C130.525 8.658 131.175 8.37 132.011 8.37C132.403 8.37 132.769 8.46 133.109 8.64C133.449 8.816 133.721 9.058 133.925 9.366H133.991V8.616C133.991 8.516 134.039 8.466 134.135 8.466H135.845C135.941 8.466 135.989 8.516 135.989 8.616V13.41H136.571C136.659 13.41 136.703 13.458 136.703 13.554V14.634C136.703 14.734 136.659 14.784 136.571 14.784H135.071C134.415 14.784 134.087 14.51 134.087 13.962V13.902H134.027C133.843 14.202 133.569 14.44 133.205 14.616C132.841 14.792 132.443 14.88 132.011 14.88ZM131.393 11.628C131.393 12.204 131.511 12.648 131.747 12.96C131.987 13.268 132.321 13.422 132.749 13.422C133.173 13.422 133.497 13.268 133.721 12.96C133.949 12.652 134.063 12.208 134.063 11.628C134.063 11.06 133.947 10.62 133.715 10.308C133.487 9.992 133.165 9.834 132.749 9.834C132.325 9.834 131.993 9.992 131.753 10.308C131.513 10.62 131.393 11.06 131.393 11.628ZM137.831 14.784C137.731 14.784 137.681 14.734 137.681 14.634V8.616C137.681 8.516 137.731 8.466 137.831 8.466H139.439C139.535 8.466 139.583 8.516 139.583 8.616V9.366H139.637C140.089 8.702 140.743 8.37 141.599 8.37C142.335 8.37 142.891 8.604 143.267 9.072C143.647 9.54 143.837 10.236 143.837 11.16V14.634C143.837 14.734 143.787 14.784 143.687 14.784H141.983C141.883 14.784 141.833 14.734 141.833 14.634V11.16C141.833 10.716 141.747 10.388 141.575 10.176C141.403 9.964 141.133 9.858 140.765 9.858C140.397 9.858 140.123 9.966 139.943 10.182C139.763 10.394 139.673 10.72 139.673 11.16V14.634C139.673 14.734 139.627 14.784 139.535 14.784H137.831ZM147.491 14.88C146.671 14.88 146.025 14.59 145.553 14.01C145.081 13.43 144.845 12.636 144.845 11.628C144.845 10.604 145.077 9.806 145.541 9.234C146.005 8.658 146.655 8.37 147.491 8.37C147.883 8.37 148.249 8.46 148.589 8.64C148.929 8.816 149.201 9.058 149.405 9.366H149.471V8.616C149.471 8.516 149.519 8.466 149.615 8.466H151.325C151.421 8.466 151.469 8.516 151.469 8.616V13.41H152.051C152.139 13.41 152.183 13.458 152.183 13.554V14.634C152.183 14.734 152.139 14.784 152.051 14.784H150.551C149.895 14.784 149.567 14.51 149.567 13.962V13.902H149.507C149.323 14.202 149.049 14.44 148.685 14.616C148.321 14.792 147.923 14.88 147.491 14.88ZM146.873 11.628C146.873 12.204 146.991 12.648 147.227 12.96C147.467 13.268 147.801 13.422 148.229 13.422C148.653 13.422 148.977 13.268 149.201 12.96C149.429 12.652 149.543 12.208 149.543 11.628C149.543 11.06 149.427 10.62 149.195 10.308C148.967 9.992 148.645 9.834 148.229 9.834C147.805 9.834 147.473 9.992 147.233 10.308C146.993 10.62 146.873 11.06 146.873 11.628ZM158.327 14.88C157.511 14.88 156.865 14.59 156.389 14.01C155.917 13.43 155.681 12.636 155.681 11.628C155.681 10.608 155.915 9.81 156.383 9.234C156.851 8.658 157.499 8.37 158.327 8.37C158.723 8.37 159.091 8.46 159.431 8.64C159.775 8.816 160.049 9.058 160.253 9.366H160.319V6.084C160.319 5.984 160.363 5.934 160.451 5.934H162.161C162.257 5.934 162.305 5.984 162.305 6.084V14.634C162.305 14.734 162.257 14.784 162.161 14.784H160.547C160.451 14.784 160.403 14.734 160.403 14.634V13.902H160.355C160.167 14.202 159.891 14.44 159.527 14.616C159.163 14.792 158.763 14.88 158.327 14.88ZM157.721 11.628C157.721 12.204 157.839 12.648 158.075 12.96C158.311 13.268 158.645 13.422 159.077 13.422C159.497 13.422 159.821 13.268 160.049 12.96C160.277 12.648 160.391 12.204 160.391 11.628C160.391 11.06 160.275 10.62 160.043 10.308C159.815 9.992 159.493 9.834 159.077 9.834C158.649 9.834 158.315 9.992 158.075 10.308C157.839 10.62 157.721 11.06 157.721 11.628ZM166.829 14.88C165.785 14.88 164.957 14.588 164.345 14.004C163.737 13.42 163.433 12.628 163.433 11.628C163.433 10.632 163.739 9.84 164.351 9.252C164.963 8.664 165.785 8.37 166.817 8.37C167.829 8.37 168.617 8.656 169.181 9.228C169.749 9.8 170.033 10.596 170.033 11.616V11.958C170.033 12.046 169.985 12.09 169.889 12.09H165.473C165.505 12.55 165.639 12.904 165.875 13.152C166.115 13.396 166.445 13.518 166.865 13.518C167.501 13.518 167.893 13.288 168.041 12.828C168.069 12.748 168.123 12.708 168.203 12.708H169.865C169.913 12.708 169.949 12.718 169.973 12.738C170.001 12.754 170.013 12.78 170.009 12.816C169.901 13.456 169.569 13.96 169.013 14.328C168.461 14.696 167.733 14.88 166.829 14.88ZM165.473 11.1H168.095C168.071 10.664 167.951 10.328 167.735 10.092C167.523 9.852 167.229 9.732 166.853 9.732C166.441 9.732 166.117 9.85 165.881 10.086C165.645 10.322 165.509 10.66 165.473 11.1ZM106.331 28.88C105.271 28.88 104.425 28.644 103.793 28.172C103.165 27.7 102.795 27.028 102.683 26.156C102.671 26.048 102.721 25.994 102.833 25.994H104.549C104.625 25.994 104.675 26.032 104.699 26.108C104.779 26.532 104.949 26.844 105.209 27.044C105.473 27.244 105.839 27.344 106.307 27.344C106.711 27.344 107.027 27.256 107.255 27.08C107.483 26.904 107.597 26.66 107.597 26.348C107.597 26.072 107.509 25.864 107.333 25.724C107.161 25.58 106.869 25.474 106.457 25.406L105.449 25.232C104.561 25.092 103.901 24.814 103.469 24.398C103.037 23.978 102.821 23.408 102.821 22.688C102.821 21.872 103.103 21.234 103.667 20.774C104.235 20.314 105.025 20.084 106.037 20.084C107.017 20.084 107.807 20.308 108.407 20.756C109.007 21.204 109.369 21.836 109.493 22.652C109.497 22.7 109.485 22.74 109.457 22.772C109.433 22.8 109.399 22.814 109.355 22.814H107.633C107.549 22.814 107.497 22.764 107.477 22.664C107.397 22.304 107.243 22.04 107.015 21.872C106.787 21.704 106.473 21.62 106.073 21.62C105.685 21.62 105.389 21.7 105.185 21.86C104.985 22.02 104.885 22.252 104.885 22.556C104.885 22.832 104.981 23.05 105.173 23.21C105.365 23.37 105.665 23.488 106.073 23.564L107.093 23.72C108.013 23.868 108.671 24.138 109.067 24.53C109.463 24.922 109.661 25.5 109.661 26.264C109.661 27.072 109.363 27.71 108.767 28.178C108.171 28.646 107.359 28.88 106.331 28.88ZM111.071 28.784C110.971 28.784 110.921 28.734 110.921 28.634V22.616C110.921 22.516 110.971 22.466 111.071 22.466H112.775C112.867 22.466 112.913 22.516 112.913 22.616V28.634C112.913 28.734 112.867 28.784 112.775 28.784H111.071ZM110.861 21.338V19.604C110.861 19.516 110.909 19.472 111.005 19.472H112.835C112.935 19.472 112.985 19.516 112.985 19.604V21.338C112.985 21.426 112.935 21.47 112.835 21.47H111.005C110.909 21.47 110.861 21.426 110.861 21.338ZM116.993 28.88C116.137 28.88 115.463 28.71 114.971 28.37C114.479 28.026 114.195 27.53 114.119 26.882C114.115 26.834 114.125 26.796 114.149 26.768C114.173 26.736 114.207 26.72 114.251 26.72H115.751C115.835 26.72 115.889 26.764 115.913 26.852C115.969 27.12 116.085 27.31 116.261 27.422C116.441 27.534 116.685 27.59 116.993 27.59C117.249 27.59 117.453 27.538 117.605 27.434C117.761 27.326 117.839 27.186 117.839 27.014C117.839 26.834 117.781 26.702 117.665 26.618C117.549 26.53 117.349 26.462 117.065 26.414L116.195 26.252C115.535 26.14 115.047 25.936 114.731 25.64C114.419 25.34 114.263 24.91 114.263 24.35C114.263 23.742 114.495 23.26 114.959 22.904C115.427 22.548 116.069 22.37 116.885 22.37C117.625 22.37 118.227 22.528 118.691 22.844C119.155 23.156 119.429 23.62 119.513 24.236C119.525 24.288 119.517 24.328 119.489 24.356C119.465 24.384 119.431 24.398 119.387 24.398H117.893C117.805 24.398 117.747 24.352 117.719 24.26C117.671 24.04 117.581 23.884 117.449 23.792C117.317 23.696 117.129 23.648 116.885 23.648C116.637 23.648 116.447 23.698 116.315 23.798C116.187 23.898 116.123 24.04 116.123 24.224C116.123 24.396 116.183 24.53 116.303 24.626C116.427 24.718 116.645 24.79 116.957 24.842L117.839 24.998C118.507 25.11 118.983 25.31 119.267 25.598C119.555 25.886 119.699 26.31 119.699 26.87C119.699 27.538 119.465 28.04 118.997 28.376C118.533 28.712 117.865 28.88 116.993 28.88ZM123.509 28.784C122.869 28.784 122.379 28.614 122.039 28.274C121.699 27.93 121.529 27.436 121.529 26.792V23.846H120.551C120.451 23.846 120.401 23.796 120.401 23.696V22.616C120.401 22.516 120.451 22.466 120.551 22.466H121.529V20.738C121.529 20.646 121.579 20.6 121.679 20.6H123.389C123.477 20.6 123.521 20.646 123.521 20.738V22.466H124.961C125.057 22.466 125.105 22.516 125.105 22.616V23.696C125.105 23.74 125.091 23.776 125.063 23.804C125.035 23.832 125.001 23.846 124.961 23.846H123.521V27.41H124.949C125.045 27.41 125.093 27.458 125.093 27.554V28.634C125.093 28.734 125.045 28.784 124.949 28.784H123.509ZM129.125 28.88C128.081 28.88 127.253 28.588 126.641 28.004C126.033 27.42 125.729 26.628 125.729 25.628C125.729 24.632 126.035 23.84 126.647 23.252C127.259 22.664 128.081 22.37 129.113 22.37C130.125 22.37 130.913 22.656 131.477 23.228C132.045 23.8 132.329 24.596 132.329 25.616V25.958C132.329 26.046 132.281 26.09 132.185 26.09H127.769C127.801 26.55 127.935 26.904 128.171 27.152C128.411 27.396 128.741 27.518 129.161 27.518C129.797 27.518 130.189 27.288 130.337 26.828C130.365 26.748 130.419 26.708 130.499 26.708H132.161C132.209 26.708 132.245 26.718 132.269 26.738C132.297 26.754 132.309 26.78 132.305 26.816C132.197 27.456 131.865 27.96 131.309 28.328C130.757 28.696 130.029 28.88 129.125 28.88ZM127.769 25.1H130.391C130.367 24.664 130.247 24.328 130.031 24.092C129.819 23.852 129.525 23.732 129.149 23.732C128.737 23.732 128.413 23.85 128.177 24.086C127.941 24.322 127.805 24.66 127.769 25.1ZM133.607 28.784C133.507 28.784 133.457 28.734 133.457 28.634V22.616C133.457 22.516 133.507 22.466 133.607 22.466H135.215C135.311 22.466 135.359 22.516 135.359 22.616V23.366H135.413C135.845 22.71 136.483 22.382 137.327 22.382C138.191 22.382 138.797 22.71 139.145 23.366H139.205C139.721 22.71 140.443 22.382 141.371 22.382C142.087 22.382 142.629 22.614 142.997 23.078C143.369 23.538 143.555 24.22 143.555 25.124V28.634C143.555 28.734 143.507 28.784 143.411 28.784H141.701C141.605 28.784 141.557 28.734 141.557 28.634V25.124C141.557 24.696 141.473 24.38 141.305 24.176C141.137 23.972 140.877 23.87 140.525 23.87C139.845 23.87 139.505 24.288 139.505 25.124V28.634C139.505 28.734 139.455 28.784 139.355 28.784H137.645C137.549 28.784 137.501 28.734 137.501 28.634V25.124C137.501 24.696 137.419 24.38 137.255 24.176C137.091 23.972 136.833 23.87 136.481 23.87C136.129 23.87 135.869 23.974 135.701 24.182C135.533 24.386 135.449 24.7 135.449 25.124V28.634C135.449 28.734 135.403 28.784 135.311 28.784H133.607ZM147.191 28.88C146.371 28.88 145.725 28.59 145.253 28.01C144.781 27.43 144.545 26.636 144.545 25.628C144.545 24.604 144.777 23.806 145.241 23.234C145.705 22.658 146.355 22.37 147.191 22.37C147.583 22.37 147.949 22.46 148.289 22.64C148.629 22.816 148.901 23.058 149.105 23.366H149.171V22.616C149.171 22.516 149.219 22.466 149.315 22.466H151.025C151.121 22.466 151.169 22.516 151.169 22.616V27.41H151.751C151.839 27.41 151.883 27.458 151.883 27.554V28.634C151.883 28.734 151.839 28.784 151.751 28.784H150.251C149.595 28.784 149.267 28.51 149.267 27.962V27.902H149.207C149.023 28.202 148.749 28.44 148.385 28.616C148.021 28.792 147.623 28.88 147.191 28.88ZM146.573 25.628C146.573 26.204 146.691 26.648 146.927 26.96C147.167 27.268 147.501 27.422 147.929 27.422C148.353 27.422 148.677 27.268 148.901 26.96C149.129 26.652 149.243 26.208 149.243 25.628C149.243 25.06 149.127 24.62 148.895 24.308C148.667 23.992 148.345 23.834 147.929 23.834C147.505 23.834 147.173 23.992 146.933 24.308C146.693 24.62 146.573 25.06 146.573 25.628ZM155.441 28.88C154.585 28.88 153.911 28.71 153.419 28.37C152.927 28.026 152.643 27.53 152.567 26.882C152.563 26.834 152.573 26.796 152.597 26.768C152.621 26.736 152.655 26.72 152.699 26.72H154.199C154.283 26.72 154.337 26.764 154.361 26.852C154.417 27.12 154.533 27.31 154.709 27.422C154.889 27.534 155.133 27.59 155.441 27.59C155.697 27.59 155.901 27.538 156.053 27.434C156.209 27.326 156.287 27.186 156.287 27.014C156.287 26.834 156.229 26.702 156.113 26.618C155.997 26.53 155.797 26.462 155.513 26.414L154.643 26.252C153.983 26.14 153.495 25.936 153.179 25.64C152.867 25.34 152.711 24.91 152.711 24.35C152.711 23.742 152.943 23.26 153.407 22.904C153.875 22.548 154.517 22.37 155.333 22.37C156.073 22.37 156.675 22.528 157.139 22.844C157.603 23.156 157.877 23.62 157.961 24.236C157.973 24.288 157.965 24.328 157.937 24.356C157.913 24.384 157.879 24.398 157.835 24.398H156.341C156.253 24.398 156.195 24.352 156.167 24.26C156.119 24.04 156.029 23.884 155.897 23.792C155.765 23.696 155.577 23.648 155.333 23.648C155.085 23.648 154.895 23.698 154.763 23.798C154.635 23.898 154.571 24.04 154.571 24.224C154.571 24.396 154.631 24.53 154.751 24.626C154.875 24.718 155.093 24.79 155.405 24.842L156.287 24.998C156.955 25.11 157.431 25.31 157.715 25.598C158.003 25.886 158.147 26.31 158.147 26.87C158.147 27.538 157.913 28.04 157.445 28.376C156.981 28.712 156.313 28.88 155.441 28.88ZM164.507 28.88C163.691 28.88 163.045 28.59 162.569 28.01C162.097 27.43 161.861 26.636 161.861 25.628C161.861 24.608 162.095 23.81 162.563 23.234C163.031 22.658 163.679 22.37 164.507 22.37C164.903 22.37 165.271 22.46 165.611 22.64C165.955 22.816 166.229 23.058 166.433 23.366H166.499V20.084C166.499 19.984 166.543 19.934 166.631 19.934H168.341C168.437 19.934 168.485 19.984 168.485 20.084V28.634C168.485 28.734 168.437 28.784 168.341 28.784H166.727C166.631 28.784 166.583 28.734 166.583 28.634V27.902H166.535C166.347 28.202 166.071 28.44 165.707 28.616C165.343 28.792 164.943 28.88 164.507 28.88ZM163.901 25.628C163.901 26.204 164.019 26.648 164.255 26.96C164.491 27.268 164.825 27.422 165.257 27.422C165.677 27.422 166.001 27.268 166.229 26.96C166.457 26.648 166.571 26.204 166.571 25.628C166.571 25.06 166.455 24.62 166.223 24.308C165.995 23.992 165.673 23.834 165.257 23.834C164.829 23.834 164.495 23.992 164.255 24.308C164.019 24.62 163.901 25.06 163.901 25.628ZM173.009 28.88C171.965 28.88 171.137 28.588 170.525 28.004C169.917 27.42 169.613 26.628 169.613 25.628C169.613 24.632 169.919 23.84 170.531 23.252C171.143 22.664 171.965 22.37 172.997 22.37C174.009 22.37 174.797 22.656 175.361 23.228C175.929 23.8 176.213 24.596 176.213 25.616V25.958C176.213 26.046 176.165 26.09 176.069 26.09H171.653C171.685 26.55 171.819 26.904 172.055 27.152C172.295 27.396 172.625 27.518 173.045 27.518C173.681 27.518 174.073 27.288 174.221 26.828C174.249 26.748 174.303 26.708 174.383 26.708H176.045C176.093 26.708 176.129 26.718 176.153 26.738C176.181 26.754 176.193 26.78 176.189 26.816C176.081 27.456 175.749 27.96 175.193 28.328C174.641 28.696 173.913 28.88 173.009 28.88ZM171.653 25.1H174.275C174.251 24.664 174.131 24.328 173.915 24.092C173.703 23.852 173.409 23.732 173.033 23.732C172.621 23.732 172.297 23.85 172.061 24.086C171.825 24.322 171.689 24.66 171.653 25.1ZM103.187 42.784C103.087 42.784 103.037 42.734 103.037 42.634V34.33C103.037 34.23 103.087 34.18 103.187 34.18H104.945C105.033 34.18 105.077 34.23 105.077 34.33V42.634C105.077 42.734 105.033 42.784 104.945 42.784H103.187ZM106.847 42.784C106.747 42.784 106.697 42.734 106.697 42.634V36.616C106.697 36.516 106.747 36.466 106.847 36.466H108.455C108.551 36.466 108.599 36.516 108.599 36.616V37.366H108.653C109.105 36.702 109.759 36.37 110.615 36.37C111.351 36.37 111.907 36.604 112.283 37.072C112.663 37.54 112.853 38.236 112.853 39.16V42.634C112.853 42.734 112.803 42.784 112.703 42.784H110.999C110.899 42.784 110.849 42.734 110.849 42.634V39.16C110.849 38.716 110.763 38.388 110.591 38.176C110.419 37.964 110.149 37.858 109.781 37.858C109.413 37.858 109.139 37.966 108.959 38.182C108.779 38.394 108.689 38.72 108.689 39.16V42.634C108.689 42.734 108.643 42.784 108.551 42.784H106.847ZM115.019 42.784C114.919 42.784 114.869 42.734 114.869 42.634V37.942H113.891C113.791 37.942 113.741 37.894 113.741 37.798V36.712C113.741 36.616 113.791 36.568 113.891 36.568H114.869V35.914C114.869 35.274 115.039 34.784 115.379 34.444C115.719 34.104 116.209 33.934 116.849 33.934H118.289C118.385 33.934 118.433 33.984 118.433 34.084V35.164C118.433 35.264 118.385 35.314 118.289 35.314H116.861V36.568H118.301C118.345 36.568 118.379 36.582 118.403 36.61C118.431 36.638 118.445 36.672 118.445 36.712V37.798C118.445 37.894 118.397 37.942 118.301 37.942H116.861V42.634C116.861 42.734 116.817 42.784 116.729 42.784H115.019ZM124.775 41.992C124.159 42.584 123.341 42.88 122.321 42.88C121.301 42.88 120.483 42.584 119.867 41.992C119.255 41.4 118.949 40.612 118.949 39.628C118.949 38.644 119.255 37.858 119.867 37.27C120.483 36.678 121.301 36.382 122.321 36.382C123.341 36.382 124.159 36.678 124.775 37.27C125.391 37.858 125.699 38.644 125.699 39.628C125.699 40.612 125.391 41.4 124.775 41.992ZM120.977 39.628C120.977 40.228 121.091 40.686 121.319 41.002C121.551 41.314 121.885 41.47 122.321 41.47C122.753 41.47 123.085 41.314 123.317 41.002C123.553 40.686 123.671 40.228 123.671 39.628C123.671 39.032 123.553 38.576 123.317 38.26C123.085 37.94 122.753 37.78 122.321 37.78C121.889 37.78 121.557 37.94 121.325 38.26C121.093 38.576 120.977 39.032 120.977 39.628ZM126.881 42.784C126.793 42.784 126.749 42.734 126.749 42.634V38.446C126.749 37.806 126.917 37.316 127.253 36.976C127.593 36.636 128.083 36.466 128.723 36.466H130.763C130.855 36.466 130.901 36.516 130.901 36.616V37.87C130.901 37.958 130.855 38.002 130.763 38.002H128.735V42.634C128.735 42.734 128.691 42.784 128.603 42.784H126.881ZM132.119 42.784C132.019 42.784 131.969 42.734 131.969 42.634V36.616C131.969 36.516 132.019 36.466 132.119 36.466H133.727C133.823 36.466 133.871 36.516 133.871 36.616V37.366H133.925C134.357 36.71 134.995 36.382 135.839 36.382C136.703 36.382 137.309 36.71 137.657 37.366H137.717C138.233 36.71 138.955 36.382 139.883 36.382C140.599 36.382 141.141 36.614 141.509 37.078C141.881 37.538 142.067 38.22 142.067 39.124V42.634C142.067 42.734 142.019 42.784 141.923 42.784H140.213C140.117 42.784 140.069 42.734 140.069 42.634V39.124C140.069 38.696 139.985 38.38 139.817 38.176C139.649 37.972 139.389 37.87 139.037 37.87C138.357 37.87 138.017 38.288 138.017 39.124V42.634C138.017 42.734 137.967 42.784 137.867 42.784H136.157C136.061 42.784 136.013 42.734 136.013 42.634V39.124C136.013 38.696 135.931 38.38 135.767 38.176C135.603 37.972 135.345 37.87 134.993 37.87C134.641 37.87 134.381 37.974 134.213 38.182C134.045 38.386 133.961 38.7 133.961 39.124V42.634C133.961 42.734 133.915 42.784 133.823 42.784H132.119ZM145.703 42.88C144.883 42.88 144.237 42.59 143.765 42.01C143.293 41.43 143.057 40.636 143.057 39.628C143.057 38.604 143.289 37.806 143.753 37.234C144.217 36.658 144.867 36.37 145.703 36.37C146.095 36.37 146.461 36.46 146.801 36.64C147.141 36.816 147.413 37.058 147.617 37.366H147.683V36.616C147.683 36.516 147.731 36.466 147.827 36.466H149.537C149.633 36.466 149.681 36.516 149.681 36.616V41.41H150.263C150.351 41.41 150.395 41.458 150.395 41.554V42.634C150.395 42.734 150.351 42.784 150.263 42.784H148.763C148.107 42.784 147.779 42.51 147.779 41.962V41.902H147.719C147.535 42.202 147.261 42.44 146.897 42.616C146.533 42.792 146.135 42.88 145.703 42.88ZM145.085 39.628C145.085 40.204 145.203 40.648 145.439 40.96C145.679 41.268 146.013 41.422 146.441 41.422C146.865 41.422 147.189 41.268 147.413 40.96C147.641 40.652 147.755 40.208 147.755 39.628C147.755 39.06 147.639 38.62 147.407 38.308C147.179 37.992 146.857 37.834 146.441 37.834C146.017 37.834 145.685 37.992 145.445 38.308C145.205 38.62 145.085 39.06 145.085 39.628ZM153.473 45.268C153.377 45.268 153.329 45.222 153.329 45.13V44.542C153.329 44.45 153.377 44.404 153.473 44.404H154.163C154.351 44.404 154.491 44.384 154.583 44.344C154.679 44.304 154.727 44.226 154.727 44.11C154.727 43.99 154.683 43.908 154.595 43.864C154.507 43.824 154.363 43.804 154.163 43.804H153.917C153.873 43.804 153.837 43.79 153.809 43.762C153.781 43.738 153.767 43.706 153.767 43.666V42.844C152.903 42.728 152.225 42.386 151.733 41.818C151.245 41.25 151.001 40.52 151.001 39.628C151.001 38.644 151.311 37.856 151.931 37.264C152.555 36.668 153.381 36.37 154.409 36.37C155.289 36.37 156.001 36.58 156.545 37C157.093 37.416 157.413 37.992 157.505 38.728C157.509 38.776 157.497 38.816 157.469 38.848C157.445 38.876 157.411 38.89 157.367 38.89H155.711C155.623 38.89 155.573 38.84 155.561 38.74C155.501 38.404 155.377 38.16 155.189 38.008C155.001 37.856 154.741 37.78 154.409 37.78C153.969 37.78 153.629 37.94 153.389 38.26C153.149 38.58 153.029 39.036 153.029 39.628C153.029 40.224 153.149 40.68 153.389 40.996C153.629 41.312 153.969 41.47 154.409 41.47C154.749 41.47 155.017 41.394 155.213 41.242C155.413 41.086 155.551 40.842 155.627 40.51C155.639 40.414 155.687 40.366 155.771 40.366H157.433C157.477 40.366 157.513 40.378 157.541 40.402C157.569 40.426 157.581 40.458 157.577 40.498C157.477 41.19 157.181 41.746 156.689 42.166C156.201 42.582 155.555 42.816 154.751 42.868V43.204C155.103 43.22 155.371 43.316 155.555 43.492C155.739 43.668 155.831 43.898 155.831 44.182C155.831 44.906 155.353 45.268 154.397 45.268H153.473ZM160.979 42.88C160.159 42.88 159.513 42.59 159.041 42.01C158.569 41.43 158.333 40.636 158.333 39.628C158.333 38.604 158.565 37.806 159.029 37.234C159.493 36.658 160.143 36.37 160.979 36.37C161.371 36.37 161.737 36.46 162.077 36.64C162.417 36.816 162.689 37.058 162.893 37.366H162.959V36.616C162.959 36.516 163.007 36.466 163.103 36.466H164.813C164.909 36.466 164.957 36.516 164.957 36.616V41.41H165.539C165.627 41.41 165.671 41.458 165.671 41.554V42.634C165.671 42.734 165.627 42.784 165.539 42.784H164.039C163.383 42.784 163.055 42.51 163.055 41.962V41.902H162.995C162.811 42.202 162.537 42.44 162.173 42.616C161.809 42.792 161.411 42.88 160.979 42.88ZM159.257 35.422C159.273 34.87 159.407 34.442 159.659 34.138C159.911 33.83 160.253 33.676 160.685 33.676C160.925 33.676 161.241 33.762 161.633 33.934C162.025 34.106 162.289 34.192 162.425 34.192C162.637 34.192 162.773 34.066 162.833 33.814C162.857 33.722 162.907 33.676 162.983 33.676H164.003C164.099 33.676 164.147 33.726 164.147 33.826C164.131 34.378 163.997 34.808 163.745 35.116C163.493 35.42 163.153 35.572 162.725 35.572C162.485 35.572 162.169 35.484 161.777 35.308C161.385 35.132 161.119 35.044 160.979 35.044C160.767 35.044 160.631 35.17 160.571 35.422C160.547 35.522 160.499 35.572 160.427 35.572H159.407C159.307 35.572 159.257 35.522 159.257 35.422ZM160.361 39.628C160.361 40.204 160.479 40.648 160.715 40.96C160.955 41.268 161.289 41.422 161.717 41.422C162.141 41.422 162.465 41.268 162.689 40.96C162.917 40.652 163.031 40.208 163.031 39.628C163.031 39.06 162.915 38.62 162.683 38.308C162.455 37.992 162.133 37.834 161.717 37.834C161.293 37.834 160.961 37.992 160.721 38.308C160.481 38.62 160.361 39.06 160.361 39.628ZM172.103 41.992C171.487 42.584 170.669 42.88 169.649 42.88C168.629 42.88 167.811 42.584 167.195 41.992C166.583 41.4 166.277 40.612 166.277 39.628C166.277 38.644 166.583 37.858 167.195 37.27C167.811 36.678 168.629 36.382 169.649 36.382C170.669 36.382 171.487 36.678 172.103 37.27C172.719 37.858 173.027 38.644 173.027 39.628C173.027 40.612 172.719 41.4 172.103 41.992ZM168.305 39.628C168.305 40.228 168.419 40.686 168.647 41.002C168.879 41.314 169.213 41.47 169.649 41.47C170.081 41.47 170.413 41.314 170.645 41.002C170.881 40.686 170.999 40.228 170.999 39.628C170.999 39.032 170.881 38.576 170.645 38.26C170.413 37.94 170.081 37.78 169.649 37.78C169.217 37.78 168.885 37.94 168.653 38.26C168.421 38.576 168.305 39.032 168.305 39.628Z" fill="white"/>
</g>
<g filter="url(#filter1_di_36_9023)">
<mask id="path-2-inside-1_36_9023" fill="white">
<path d="M16.3175 47.9434C14.225 47.9434 12.153 47.5312 10.2198 46.7305C8.28663 45.9297 6.53008 44.756 5.05047 43.2764L16.3175 32.0094L16.3175 47.9434Z"/>
</mask>
<path d="M16.3175 47.9434C14.225 47.9434 12.153 47.5312 10.2198 46.7305C8.28663 45.9297 6.53008 44.756 5.05047 43.2764L16.3175 32.0094L16.3175 47.9434Z" fill="url(#paint0_linear_36_9023)" stroke="#D0ACFF" stroke-width="0.192" mask="url(#path-2-inside-1_36_9023)"/>
<mask id="path-3-inside-2_36_9023" fill="white">
<path d="M16.3182 0.360087C18.4107 0.360088 20.4827 0.772232 22.4159 1.57299C24.3491 2.37375 26.1056 3.54744 27.5852 5.02704L16.3182 16.2941L16.3182 0.360087Z"/>
</mask>
<path d="M16.3182 0.360087C18.4107 0.360088 20.4827 0.772232 22.4159 1.57299C24.3491 2.37375 26.1056 3.54744 27.5852 5.02704L16.3182 16.2941L16.3182 0.360087Z" fill="url(#paint1_linear_36_9023)" stroke="#D0ACFF" stroke-width="0.192" mask="url(#path-3-inside-2_36_9023)"/>
<g filter="url(#filter2_i_36_9023)">
<path d="M16.3179 16.0758C18.4104 16.0758 20.4824 16.488 22.4156 17.2887C24.3488 18.0895 26.1054 19.2632 27.585 20.7428C29.0646 22.2224 30.2383 23.9789 31.039 25.9121C31.8398 27.8453 32.252 29.9174 32.252 32.0098C32.252 34.1023 31.8398 36.1742 31.039 38.1074C30.2383 40.0406 29.0646 41.7972 27.585 43.2768C26.1054 44.7564 24.3488 45.9301 22.4156 46.7308C20.4824 47.5316 18.4104 47.9438 16.3179 47.9438V32.2281C14.2255 32.2281 12.1535 31.8159 10.2203 31.0151C8.28715 30.2144 6.53058 29.0407 5.05097 27.5611C3.57136 26.0815 2.3977 24.3249 1.59694 22.3917C0.796185 20.4585 0.384003 18.3865 0.384003 16.294C0.384008 14.2016 0.796193 12.1296 1.59694 10.1965C2.3977 8.26325 3.57136 6.50668 5.05097 5.02708C6.53058 3.54747 8.28715 2.3738 10.2203 1.57304C12.1535 0.772297 14.2255 0.360113 16.3179 0.360107V16.0758Z" fill="url(#paint2_linear_36_9023)"/>
</g>
<path d="M16.4143 32.1316H16.3176C14.2379 32.1315 12.1785 31.7224 10.257 30.9265C8.3355 30.1306 6.58907 28.9636 5.11838 27.4929C3.64793 26.0224 2.48162 24.2765 1.68576 22.3552C0.88983 20.4337 0.479706 18.3736 0.479706 16.2937C0.479757 14.214 0.889881 12.1546 1.68576 10.2332C2.48169 8.31163 3.64771 6.56515 5.11838 5.09448C6.58905 3.62381 8.33553 2.4578 10.257 1.66187C12.149 0.878196 14.1747 0.469208 16.2219 0.456787V16.1716H16.3176C18.3975 16.1716 20.4576 16.5818 22.3791 17.3777C24.3004 18.1736 26.0463 19.3398 27.5168 20.8103C28.9875 22.281 30.1545 24.0274 30.9504 25.949C31.7463 27.8704 32.1554 29.9298 32.1555 32.0095C32.1555 34.0894 31.7463 36.1495 30.9504 38.071C30.1545 39.9925 28.9874 41.7381 27.5168 43.2087C26.0462 44.6794 24.3006 45.8464 22.3791 46.6423C20.4872 47.426 18.4614 47.833 16.4143 47.8455V32.1316Z" stroke="white" stroke-width="0.192"/>
</g>
<g filter="url(#filter3_di_36_9023)">
<mask id="path-6-inside-3_36_9023" fill="white">
<path d="M52.0294 47.9434C49.937 47.9434 47.865 47.5312 45.9318 46.7305C43.9986 45.9297 42.242 44.756 40.7624 43.2764L52.0294 32.0094L52.0294 47.9434Z"/>
</mask>
<path d="M52.0294 47.9434C49.937 47.9434 47.865 47.5312 45.9318 46.7305C43.9986 45.9297 42.242 44.756 40.7624 43.2764L52.0294 32.0094L52.0294 47.9434Z" fill="url(#paint3_linear_36_9023)" stroke="#D0ACFF" stroke-width="0.192" mask="url(#path-6-inside-3_36_9023)"/>
<mask id="path-7-inside-4_36_9023" fill="white">
<path d="M52.0302 0.360087C54.1226 0.360088 56.1946 0.772232 58.1278 1.57299C60.061 2.37375 61.8176 3.54744 63.2972 5.02704L52.0302 16.2941L52.0302 0.360087Z"/>
</mask>
<path d="M52.0302 0.360087C54.1226 0.360088 56.1946 0.772232 58.1278 1.57299C60.061 2.37375 61.8176 3.54744 63.2972 5.02704L52.0302 16.2941L52.0302 0.360087Z" fill="url(#paint4_linear_36_9023)" stroke="#D0ACFF" stroke-width="0.192" mask="url(#path-7-inside-4_36_9023)"/>
<g filter="url(#filter4_i_36_9023)">
<path d="M52.0299 16.0758C54.1224 16.0758 56.1944 16.488 58.1276 17.2887C60.0608 18.0895 61.8174 19.2632 63.297 20.7428C64.7766 22.2224 65.9503 23.9789 66.751 25.9121C67.5518 27.8453 67.9639 29.9174 67.9639 32.0098C67.9639 34.1023 67.5518 36.1742 66.751 38.1074C65.9503 40.0406 64.7766 41.7972 63.297 43.2768C61.8174 44.7564 60.0608 45.9301 58.1276 46.7308C56.1944 47.5316 54.1224 47.9438 52.0299 47.9438V32.2281C49.9375 32.2281 47.8655 31.8159 45.9323 31.0151C43.9991 30.2144 42.2426 29.0407 40.7629 27.5611C39.2833 26.0815 38.1097 24.3249 37.3089 22.3917C36.5082 20.4585 36.096 18.3865 36.096 16.294C36.096 14.2016 36.5082 12.1296 37.3089 10.1965C38.1097 8.26325 39.2833 6.50668 40.7629 5.02708C42.2426 3.54747 43.9991 2.3738 45.9323 1.57304C47.8655 0.772297 49.9375 0.360113 52.0299 0.360107V16.0758Z" fill="url(#paint5_linear_36_9023)"/>
</g>
<path d="M52.1263 32.1316H52.0296C49.9498 32.1315 47.8905 31.7224 45.969 30.9265C44.0475 30.1306 42.301 28.9636 40.8304 27.4929C39.3599 26.0224 38.1936 24.2765 37.3977 22.3552C36.6018 20.4337 36.1917 18.3736 36.1917 16.2937C36.1917 14.214 36.6019 12.1546 37.3977 10.2332C38.1937 8.31163 39.3597 6.56515 40.8304 5.09448C42.301 3.62381 44.0475 2.4578 45.969 1.66187C47.861 0.878196 49.8867 0.469208 51.9339 0.456787V16.1716H52.0296C54.1094 16.1716 56.1695 16.5818 58.0911 17.3777C60.0124 18.1736 61.7582 19.3398 63.2288 20.8103C64.6995 22.281 65.8665 24.0274 66.6624 25.949C67.4582 27.8704 67.8674 29.9298 67.8675 32.0095C67.8675 34.0894 67.4583 36.1495 66.6624 38.071C65.8665 39.9925 64.6994 41.7381 63.2288 43.2087C61.7581 44.6794 60.0126 45.8464 58.0911 46.6423C56.1992 47.426 54.1734 47.833 52.1263 47.8455V32.1316Z" stroke="white" stroke-width="0.192"/>
</g>
<g filter="url(#filter5_dii_36_9023)">
<rect x="74.1354" y="0.192017" width="14.016" height="48" rx="1.152" fill="url(#paint6_linear_36_9023)"/>
<rect x="74.2314" y="0.288017" width="13.824" height="47.808" rx="1.056" stroke="white" stroke-width="0.192"/>
</g>
<defs>
<filter id="filter0_d_36_9023" x="102.281" y="5.93402" width="74.316" height="40.102" filterUnits="userSpaceOnUse" color-interpolation-filters="sRGB">
<feFlood flood-opacity="0" result="BackgroundImageFix"/>
<feColorMatrix in="SourceAlpha" type="matrix" values="0 0 0 0 0 0 0 0 0 0 0 0 0 0 0 0 0 0 127 0" result="hardAlpha"/>
<feOffset dy="0.384"/>
<feGaussianBlur stdDeviation="0.192"/>
<feComposite in2="hardAlpha" operator="out"/>
<feColorMatrix type="matrix" values="0 0 0 0 0 0 0 0 0 0 0 0 0 0 0 0 0 0 0.25 0"/>
<feBlend mode="normal" in2="BackgroundImageFix" result="effect1_dropShadow_36_9023"/>
<feBlend mode="normal" in="SourceGraphic" in2="effect1_dropShadow_36_9023" result="shape"/>
</filter>
<filter id="filter1_di_36_9023" x="2.68221e-06" y="1.65999e-05" width="32.6634" height="48.768" filterUnits="userSpaceOnUse" color-interpolation-filters="sRGB">
<feFlood flood-opacity="0" result="BackgroundImageFix"/>
<feColorMatrix in="SourceAlpha" type="matrix" values="0 0 0 0 0 0 0 0 0 0 0 0 0 0 0 0 0 0 127 0" result="hardAlpha"/>
<feOffset dy="0.192"/>
<feGaussianBlur stdDeviation="0.192"/>
<feComposite in2="hardAlpha" operator="out"/>
<feColorMatrix type="matrix" values="0 0 0 0 0 0 0 0 0 0 0 0 0 0 0 0 0 0 0.25 0"/>
<feBlend mode="normal" in2="BackgroundImageFix" result="effect1_dropShadow_36_9023"/>
<feBlend mode="normal" in="SourceGraphic" in2="effect1_dropShadow_36_9023" result="shape"/>
<feColorMatrix in="SourceAlpha" type="matrix" values="0 0 0 0 0 0 0 0 0 0 0 0 0 0 0 0 0 0 127 0" result="hardAlpha"/>
<feOffset/>
<feGaussianBlur stdDeviation="0.192"/>
<feComposite in2="hardAlpha" operator="arithmetic" k2="-1" k3="1"/>
<feColorMatrix type="matrix" values="0 0 0 0 1 0 0 0 0 1 0 0 0 0 1 0 0 0 1 0"/>
<feBlend mode="normal" in2="shape" result="effect2_innerShadow_36_9023"/>
</filter>
<filter id="filter2_i_36_9023" x="0.384003" y="0.360107" width="31.868" height="47.5837" filterUnits="userSpaceOnUse" color-interpolation-filters="sRGB">
<feFlood flood-opacity="0" result="BackgroundImageFix"/>
<feBlend mode="normal" in="SourceGraphic" in2="BackgroundImageFix" result="shape"/>
<feColorMatrix in="SourceAlpha" type="matrix" values="0 0 0 0 0 0 0 0 0 0 0 0 0 0 0 0 0 0 127 0" result="hardAlpha"/>
<feOffset/>
<feGaussianBlur stdDeviation="2.304"/>
<feComposite in2="hardAlpha" operator="arithmetic" k2="-1" k3="1"/>
<feColorMatrix type="matrix" values="0 0 0 0 1 0 0 0 0 1 0 0 0 0 1 0 0 0 0.5 0"/>
<feBlend mode="normal" in2="shape" result="effect1_innerShadow_36_9023"/>
</filter>
<filter id="filter3_di_36_9023" x="35.712" y="1.65999e-05" width="32.6635" height="48.768" filterUnits="userSpaceOnUse" color-interpolation-filters="sRGB">
<feFlood flood-opacity="0" result="BackgroundImageFix"/>
<feColorMatrix in="SourceAlpha" type="matrix" values="0 0 0 0 0 0 0 0 0 0 0 0 0 0 0 0 0 0 127 0" result="hardAlpha"/>
<feOffset dy="0.192"/>
<feGaussianBlur stdDeviation="0.192"/>
<feComposite in2="hardAlpha" operator="out"/>
<feColorMatrix type="matrix" values="0 0 0 0 0 0 0 0 0 0 0 0 0 0 0 0 0 0 0.25 0"/>
<feBlend mode="normal" in2="BackgroundImageFix" result="effect1_dropShadow_36_9023"/>
<feBlend mode="normal" in="SourceGraphic" in2="effect1_dropShadow_36_9023" result="shape"/>
<feColorMatrix in="SourceAlpha" type="matrix" values="0 0 0 0 0 0 0 0 0 0 0 0 0 0 0 0 0 0 127 0" result="hardAlpha"/>
<feOffset/>
<feGaussianBlur stdDeviation="0.192"/>
<feComposite in2="hardAlpha" operator="arithmetic" k2="-1" k3="1"/>
<feColorMatrix type="matrix" values="0 0 0 0 1 0 0 0 0 1 0 0 0 0 1 0 0 0 1 0"/>
<feBlend mode="normal" in2="shape" result="effect2_innerShadow_36_9023"/>
</filter>
<filter id="filter4_i_36_9023" x="36.096" y="0.360107" width="31.868" height="47.5837" filterUnits="userSpaceOnUse" color-interpolation-filters="sRGB">
<feFlood flood-opacity="0" result="BackgroundImageFix"/>
<feBlend mode="normal" in="SourceGraphic" in2="BackgroundImageFix" result="shape"/>
<feColorMatrix in="SourceAlpha" type="matrix" values="0 0 0 0 0 0 0 0 0 0 0 0 0 0 0 0 0 0 127 0" result="hardAlpha"/>
<feOffset/>
<feGaussianBlur stdDeviation="2.304"/>
<feComposite in2="hardAlpha" operator="arithmetic" k2="-1" k3="1"/>
<feColorMatrix type="matrix" values="0 0 0 0 1 0 0 0 0 1 0 0 0 0 1 0 0 0 0.5 0"/>
<feBlend mode="normal" in2="shape" result="effect1_innerShadow_36_9023"/>
</filter>
<filter id="filter5_dii_36_9023" x="73.7514" y="1.65999e-05" width="14.784" height="48.768" filterUnits="userSpaceOnUse" color-interpolation-filters="sRGB">
<feFlood flood-opacity="0" result="BackgroundImageFix"/>
<feColorMatrix in="SourceAlpha" type="matrix" values="0 0 0 0 0 0 0 0 0 0 0 0 0 0 0 0 0 0 127 0" result="hardAlpha"/>
<feOffset dy="0.192"/>
<feGaussianBlur stdDeviation="0.192"/>
<feComposite in2="hardAlpha" operator="out"/>
<feColorMatrix type="matrix" values="0 0 0 0 0 0 0 0 0 0 0 0 0 0 0 0 0 0 0.5 0"/>
<feBlend mode="normal" in2="BackgroundImageFix" result="effect1_dropShadow_36_9023"/>
<feBlend mode="normal" in="SourceGraphic" in2="effect1_dropShadow_36_9023" result="shape"/>
<feColorMatrix in="SourceAlpha" type="matrix" values="0 0 0 0 0 0 0 0 0 0 0 0 0 0 0 0 0 0 127 0" result="hardAlpha"/>
<feOffset/>
<feGaussianBlur stdDeviation="2.304"/>
<feComposite in2="hardAlpha" operator="arithmetic" k2="-1" k3="1"/>
<feColorMatrix type="matrix" values="0 0 0 0 1 0 0 0 0 1 0 0 0 0 1 0 0 0 0.5 0"/>
<feBlend mode="normal" in2="shape" result="effect2_innerShadow_36_9023"/>
<feColorMatrix in="SourceAlpha" type="matrix" values="0 0 0 0 0 0 0 0 0 0 0 0 0 0 0 0 0 0 127 0" result="hardAlpha"/>
<feOffset/>
<feGaussianBlur stdDeviation="0.192"/>
<feComposite in2="hardAlpha" operator="arithmetic" k2="-1" k3="1"/>
<feColorMatrix type="matrix" values="0 0 0 0 1 0 0 0 0 1 0 0 0 0 1 0 0 0 1 0"/>
<feBlend mode="normal" in2="effect2_innerShadow_36_9023" result="effect3_innerShadow_36_9023"/>
</filter>
<linearGradient id="paint0_linear_36_9023" x1="5.05047" y1="20.7424" x2="27.5845" y2="43.2764" gradientUnits="userSpaceOnUse">
<stop offset="0.509616" stop-color="white"/>
<stop offset="1" stop-color="#DDC0FF"/>
</linearGradient>
<linearGradient id="paint1_linear_36_9023" x1="27.5852" y1="27.5611" x2="5.05116" y2="5.02704" gradientUnits="userSpaceOnUse">
<stop offset="0.509616" stop-color="white"/>
<stop offset="1" stop-color="#DDC0FF"/>
</linearGradient>
<linearGradient id="paint2_linear_36_9023" x1="16.318" y1="0.360107" x2="16.318" y2="47.9438" gradientUnits="userSpaceOnUse">
<stop stop-color="#D0ACFF"/>
<stop offset="0.403841" stop-color="#AF52FF"/>
<stop offset="1" stop-color="#9638FF"/>
</linearGradient>
<linearGradient id="paint3_linear_36_9023" x1="40.7624" y1="20.7424" x2="63.2965" y2="43.2764" gradientUnits="userSpaceOnUse">
<stop offset="0.509616" stop-color="white"/>
<stop offset="1" stop-color="#DDC0FF"/>
</linearGradient>
<linearGradient id="paint4_linear_36_9023" x1="63.2972" y1="27.5611" x2="40.7631" y2="5.02704" gradientUnits="userSpaceOnUse">
<stop offset="0.509616" stop-color="white"/>
<stop offset="1" stop-color="#DDC0FF"/>
</linearGradient>
<linearGradient id="paint5_linear_36_9023" x1="52.03" y1="0.360107" x2="52.03" y2="47.9438" gradientUnits="userSpaceOnUse">
<stop stop-color="#D0ACFF"/>
<stop offset="0.403841" stop-color="#AF52FF"/>
<stop offset="1" stop-color="#9638FF"/>
</linearGradient>
<linearGradient id="paint6_linear_36_9023" x1="81.1434" y1="0.192017" x2="81.1434" y2="48.192" gradientUnits="userSpaceOnUse">
<stop stop-color="#D0ACFF"/>
<stop offset="0.403841" stop-color="#AF52FF"/>
<stop offset="1" stop-color="#9638FF"/>
</linearGradient>
</defs>
</svg>
