<svg width="2087" height="500" viewBox="0 0 2087 500" fill="none" xmlns="http://www.w3.org/2000/svg">
<path d="M286.932 212.315C302.345 227.727 314.571 246.025 322.912 266.162C331.253 286.3 335.547 307.883 335.547 329.68C335.547 351.476 331.253 373.06 322.912 393.197C314.571 413.335 302.345 431.632 286.932 447.045C271.52 462.457 253.222 474.683 233.085 483.024C212.947 491.365 191.364 495.659 169.568 495.659C147.771 495.659 126.188 491.365 106.05 483.024C85.9127 474.683 67.6153 462.457 52.2027 447.045L169.568 329.68L286.932 212.315Z" fill="white"/>
<path d="M169.573 163.705C191.369 163.705 212.953 167.998 233.09 176.34C253.228 184.681 271.525 196.907 286.938 212.319C302.35 227.732 314.576 246.029 322.917 266.167C331.258 286.304 335.552 307.887 335.552 329.684C335.552 351.481 331.258 373.064 322.917 393.202C314.576 413.339 302.35 431.636 286.938 447.049C271.525 462.462 253.228 474.687 233.09 483.029C212.953 491.37 191.369 495.663 169.573 495.663L169.573 329.684L169.573 163.705Z" fill="#9638FF"/>
<path d="M52.2102 283.344C21.0831 252.217 3.59606 209.999 3.59603 165.979C3.59604 121.959 21.0831 79.7413 52.2101 48.6142C83.3372 17.4871 125.555 4.54171e-05 169.575 5.35093e-05C213.595 4.00223e-05 255.813 17.4871 286.94 48.6141L169.575 165.979L52.2102 283.344Z" fill="white"/>
<path d="M169.572 331.958C147.775 331.958 126.192 327.665 106.054 319.324C85.9169 310.982 67.6195 298.756 52.207 283.344C36.7944 267.931 24.5685 249.634 16.2273 229.496C7.88605 209.359 3.59286 187.776 3.59286 165.979C3.59286 144.182 7.88605 122.599 16.2273 102.462C24.5685 82.3241 36.7944 64.0267 52.207 48.6141C67.6196 33.2015 85.9169 20.9756 106.054 12.6344C126.192 4.29317 147.775 -1.90552e-06 169.572 0L169.572 165.979L169.572 331.958Z" fill="#9638FF"/>
<path d="M723.479 212.315C738.892 227.727 751.118 246.025 759.459 266.162C767.8 286.3 772.093 307.883 772.093 329.68C772.093 351.476 767.8 373.06 759.459 393.197C751.118 413.335 738.892 431.632 723.479 447.045C708.067 462.457 689.769 474.683 669.632 483.024C649.494 491.365 627.911 495.659 606.114 495.659C584.318 495.659 562.735 491.365 542.597 483.024C522.46 474.683 504.162 462.457 488.75 447.045L606.114 329.68L723.479 212.315Z" fill="white"/>
<path d="M606.12 163.705C627.916 163.705 649.499 167.998 669.637 176.34C689.774 184.681 708.072 196.907 723.484 212.319C738.897 227.732 751.123 246.029 759.464 266.167C767.805 286.304 772.099 307.887 772.099 329.684C772.099 351.481 767.805 373.064 759.464 393.202C751.123 413.339 738.897 431.636 723.484 447.049C708.072 462.462 689.774 474.687 669.637 483.029C649.499 491.37 627.916 495.663 606.12 495.663L606.12 329.684V163.705Z" fill="#9638FF"/>
<path d="M488.757 283.344C457.63 252.217 440.143 209.999 440.143 165.979C440.143 121.959 457.63 79.7413 488.757 48.6142C519.884 17.4871 562.101 4.54171e-05 606.122 5.35093e-05C650.142 4.00223e-05 692.36 17.4871 723.487 48.6141L606.122 165.979L488.757 283.344Z" fill="white"/>
<path d="M606.119 331.958C584.322 331.958 562.739 327.665 542.601 319.324C522.464 310.982 504.166 298.756 488.754 283.344C473.341 267.931 461.115 249.634 452.774 229.496C444.433 209.359 440.14 187.776 440.14 165.979C440.14 144.182 444.433 122.599 452.774 102.462C461.115 82.3241 473.341 64.0267 488.754 48.6141C504.166 33.2015 522.464 20.9756 542.601 12.6344C562.739 4.29317 584.322 -1.90552e-06 606.119 0L606.119 165.979V331.958Z" fill="#9638FF"/>
<rect x="876.688" width="145.516" height="495.663" fill="#9638FF"/>
<path d="M1219.42 139.137C1206.87 139.137 1196.85 136.342 1189.36 130.753C1181.93 125.163 1177.55 117.205 1176.22 106.879C1176.08 105.6 1176.67 104.961 1178 104.961H1198.32C1199.22 104.961 1199.81 105.411 1200.09 106.311C1201.04 111.332 1203.05 115.026 1206.13 117.395C1209.26 119.763 1213.59 120.947 1219.14 120.947C1223.92 120.947 1227.66 119.905 1230.36 117.821C1233.06 115.737 1234.41 112.847 1234.41 109.153C1234.41 105.884 1233.37 103.421 1231.29 101.763C1229.25 100.058 1225.79 98.8026 1220.91 97.9974L1208.98 95.9368C1198.46 94.2789 1190.64 90.9868 1185.53 86.0605C1180.41 81.0868 1177.85 74.3368 1177.85 65.8105C1177.85 56.1474 1181.19 48.5921 1187.87 43.1447C1194.6 37.6974 1203.95 34.9737 1215.94 34.9737C1227.54 34.9737 1236.9 37.6263 1244 42.9316C1251.11 48.2368 1255.4 55.7211 1256.86 65.3842C1256.91 65.9526 1256.77 66.4263 1256.44 66.8053C1256.15 67.1368 1255.75 67.3026 1255.23 67.3026H1234.84C1233.84 67.3026 1233.23 66.7105 1232.99 65.5263C1232.04 61.2632 1230.22 58.1368 1227.52 56.1474C1224.82 54.1579 1221.1 53.1632 1216.36 53.1632C1211.77 53.1632 1208.26 54.1105 1205.85 56.0053C1203.48 57.9 1202.3 60.6474 1202.3 64.2474C1202.3 67.5158 1203.43 70.0974 1205.71 71.9921C1207.98 73.8868 1211.53 75.2842 1216.36 76.1842L1228.44 78.0316C1239.34 79.7842 1247.13 82.9816 1251.82 87.6237C1256.51 92.2658 1258.85 99.1105 1258.85 108.158C1258.85 117.726 1255.33 125.282 1248.27 130.824C1241.21 136.366 1231.59 139.137 1219.42 139.137ZM1309.59 139.137C1297.22 139.137 1287.42 135.679 1280.17 128.763C1272.97 121.847 1269.37 112.468 1269.37 100.626C1269.37 88.8316 1272.99 79.4526 1280.24 72.4895C1287.49 65.5263 1297.22 62.0447 1309.44 62.0447C1321.43 62.0447 1330.76 65.4316 1337.44 72.2053C1344.16 78.9789 1347.53 88.4053 1347.53 100.484V104.534C1347.53 105.576 1346.96 106.097 1345.82 106.097H1293.53C1293.91 111.545 1295.49 115.737 1298.29 118.674C1301.13 121.563 1305.04 123.008 1310.01 123.008C1317.54 123.008 1322.19 120.284 1323.94 114.837C1324.27 113.889 1324.91 113.416 1325.86 113.416H1345.54C1346.11 113.416 1346.53 113.534 1346.82 113.771C1347.15 113.961 1347.29 114.268 1347.24 114.695C1345.96 122.274 1342.03 128.242 1335.45 132.6C1328.91 136.958 1320.29 139.137 1309.59 139.137ZM1293.53 94.3737H1324.58C1324.29 89.2105 1322.87 85.2316 1320.31 82.4368C1317.8 79.5947 1314.32 78.1737 1309.87 78.1737C1304.99 78.1737 1301.15 79.5711 1298.36 82.3658C1295.56 85.1605 1293.95 89.1632 1293.53 94.3737ZM1362.66 138C1361.48 138 1360.89 137.408 1360.89 136.224V64.9579C1360.89 63.7737 1361.48 63.1816 1362.66 63.1816H1381.7C1382.84 63.1816 1383.41 63.7737 1383.41 64.9579V73.8395H1384.05C1389.16 66.0711 1396.72 62.1868 1406.71 62.1868C1416.95 62.1868 1424.12 66.0711 1428.24 73.8395H1428.95C1435.06 66.0711 1443.61 62.1868 1454.6 62.1868C1463.08 62.1868 1469.5 64.9342 1473.86 70.4289C1478.26 75.8763 1480.47 83.9526 1480.47 94.6579V136.224C1480.47 137.408 1479.9 138 1478.76 138H1458.51C1457.38 138 1456.81 137.408 1456.81 136.224V94.6579C1456.81 89.5895 1455.81 85.8474 1453.82 83.4316C1451.83 81.0158 1448.75 79.8079 1444.59 79.8079C1436.53 79.8079 1432.51 84.7579 1432.51 94.6579V136.224C1432.51 137.408 1431.91 138 1430.73 138H1410.48C1409.34 138 1408.78 137.408 1408.78 136.224V94.6579C1408.78 89.5895 1407.8 85.8474 1405.86 83.4316C1403.92 81.0158 1400.86 79.8079 1396.7 79.8079C1392.53 79.8079 1389.45 81.0395 1387.46 83.5026C1385.47 85.9184 1384.48 89.6368 1384.48 94.6579V136.224C1384.48 137.408 1383.93 138 1382.84 138H1362.66ZM1523.53 139.137C1513.81 139.137 1506.16 135.703 1500.58 128.834C1494.99 121.966 1492.19 112.563 1492.19 100.626C1492.19 88.5 1494.94 79.05 1500.43 72.2763C1505.93 65.4553 1513.63 62.0447 1523.53 62.0447C1528.17 62.0447 1532.5 63.1105 1536.53 65.2421C1540.55 67.3263 1543.78 70.1921 1546.19 73.8395H1546.97V64.9579C1546.97 63.7737 1547.54 63.1816 1548.68 63.1816H1568.93C1570.06 63.1816 1570.63 63.7737 1570.63 64.9579V121.729H1577.53C1578.57 121.729 1579.09 122.297 1579.09 123.434V136.224C1579.09 137.408 1578.57 138 1577.53 138H1559.76C1551.99 138 1548.11 134.755 1548.11 128.266V127.555H1547.4C1545.22 131.108 1541.98 133.926 1537.66 136.011C1533.35 138.095 1528.64 139.137 1523.53 139.137ZM1516.21 100.626C1516.21 107.447 1517.6 112.705 1520.4 116.4C1523.24 120.047 1527.2 121.871 1532.26 121.871C1537.29 121.871 1541.12 120.047 1543.78 116.4C1546.48 112.753 1547.83 107.495 1547.83 100.626C1547.83 93.9 1546.45 88.6895 1543.7 84.9947C1541 81.2526 1537.19 79.3816 1532.26 79.3816C1527.24 79.3816 1523.31 81.2526 1520.47 84.9947C1517.63 88.6895 1516.21 93.9 1516.21 100.626ZM1592.45 138C1591.26 138 1590.67 137.408 1590.67 136.224V64.9579C1590.67 63.7737 1591.26 63.1816 1592.45 63.1816H1611.49C1612.63 63.1816 1613.19 63.7737 1613.19 64.9579V73.8395H1613.83C1619.19 65.9763 1626.93 62.0447 1637.07 62.0447C1645.78 62.0447 1652.37 64.8158 1656.82 70.3579C1661.32 75.9 1663.57 84.1421 1663.57 95.0842V136.224C1663.57 137.408 1662.98 138 1661.79 138H1641.61C1640.43 138 1639.84 137.408 1639.84 136.224V95.0842C1639.84 89.8263 1638.82 85.9421 1636.78 83.4316C1634.75 80.9211 1631.55 79.6658 1627.19 79.6658C1622.83 79.6658 1619.59 80.9447 1617.46 83.5026C1615.33 86.0132 1614.26 89.8737 1614.26 95.0842V136.224C1614.26 137.408 1613.71 138 1612.63 138H1592.45ZM1706.84 139.137C1697.13 139.137 1689.48 135.703 1683.89 128.834C1678.3 121.966 1675.51 112.563 1675.51 100.626C1675.51 88.5 1678.25 79.05 1683.75 72.2763C1689.24 65.4553 1696.94 62.0447 1706.84 62.0447C1711.48 62.0447 1715.82 63.1105 1719.84 65.2421C1723.87 67.3263 1727.09 70.1921 1729.51 73.8395H1730.29V64.9579C1730.29 63.7737 1730.86 63.1816 1731.99 63.1816H1752.24C1753.38 63.1816 1753.95 63.7737 1753.95 64.9579V121.729H1760.84C1761.88 121.729 1762.4 122.297 1762.4 123.434V136.224C1762.4 137.408 1761.88 138 1760.84 138H1743.08C1735.31 138 1731.43 134.755 1731.43 128.266V127.555H1730.71C1728.54 131.108 1725.29 133.926 1720.98 136.011C1716.67 138.095 1711.96 139.137 1706.84 139.137ZM1699.52 100.626C1699.52 107.447 1700.92 112.705 1703.71 116.4C1706.56 120.047 1710.51 121.871 1715.58 121.871C1720.6 121.871 1724.44 120.047 1727.09 116.4C1729.79 112.753 1731.14 107.495 1731.14 100.626C1731.14 93.9 1729.77 88.6895 1727.02 84.9947C1724.32 81.2526 1720.51 79.3816 1715.58 79.3816C1710.56 79.3816 1706.63 81.2526 1703.79 84.9947C1700.94 88.6895 1699.52 93.9 1699.52 100.626ZM1835.16 139.137C1825.5 139.137 1817.85 135.703 1812.21 128.834C1806.62 121.966 1803.83 112.563 1803.83 100.626C1803.83 88.5474 1806.6 79.0974 1812.14 72.2763C1817.68 65.4553 1825.36 62.0447 1835.16 62.0447C1839.85 62.0447 1844.21 63.1105 1848.24 65.2421C1852.31 67.3263 1855.55 70.1921 1857.97 73.8395H1858.75V34.9737C1858.75 33.7895 1859.27 33.1974 1860.31 33.1974H1880.56C1881.7 33.1974 1882.27 33.7895 1882.27 34.9737V136.224C1882.27 137.408 1881.7 138 1880.56 138H1861.45C1860.31 138 1859.75 137.408 1859.75 136.224V127.555H1859.18C1856.95 131.108 1853.68 133.926 1849.37 136.011C1845.06 138.095 1840.33 139.137 1835.16 139.137ZM1827.99 100.626C1827.99 107.447 1829.38 112.705 1832.18 116.4C1834.97 120.047 1838.93 121.871 1844.04 121.871C1849.02 121.871 1852.85 120.047 1855.55 116.4C1858.25 112.705 1859.6 107.447 1859.6 100.626C1859.6 93.9 1858.23 88.6895 1855.48 84.9947C1852.78 81.2526 1848.97 79.3816 1844.04 79.3816C1838.98 79.3816 1835.02 81.2526 1832.18 84.9947C1829.38 88.6895 1827.99 93.9 1827.99 100.626ZM1935.84 139.137C1923.48 139.137 1913.68 135.679 1906.43 128.763C1899.23 121.847 1895.63 112.468 1895.63 100.626C1895.63 88.8316 1899.25 79.4526 1906.5 72.4895C1913.75 65.5263 1923.48 62.0447 1935.7 62.0447C1947.69 62.0447 1957.02 65.4316 1963.7 72.2053C1970.42 78.9789 1973.79 88.4053 1973.79 100.484V104.534C1973.79 105.576 1973.22 106.097 1972.08 106.097H1919.79C1920.16 111.545 1921.75 115.737 1924.55 118.674C1927.39 121.563 1931.3 123.008 1936.27 123.008C1943.8 123.008 1948.44 120.284 1950.2 114.837C1950.53 113.889 1951.17 113.416 1952.11 113.416H1971.8C1972.36 113.416 1972.79 113.534 1973.08 113.771C1973.41 113.961 1973.55 114.268 1973.5 114.695C1972.22 122.274 1968.29 128.242 1961.71 132.6C1955.17 136.958 1946.55 139.137 1935.84 139.137ZM1919.79 94.3737H1950.84C1950.55 89.2105 1949.13 85.2316 1946.57 82.4368C1944.06 79.5947 1940.58 78.1737 1936.13 78.1737C1931.25 78.1737 1927.41 79.5711 1924.62 82.3658C1921.82 85.1605 1920.21 89.1632 1919.79 94.3737ZM1219.42 305.137C1206.87 305.137 1196.85 302.342 1189.36 296.753C1181.93 291.163 1177.55 283.205 1176.22 272.879C1176.08 271.6 1176.67 270.961 1178 270.961H1198.32C1199.22 270.961 1199.81 271.411 1200.09 272.311C1201.04 277.332 1203.05 281.026 1206.13 283.395C1209.26 285.763 1213.59 286.947 1219.14 286.947C1223.92 286.947 1227.66 285.905 1230.36 283.821C1233.06 281.737 1234.41 278.847 1234.41 275.153C1234.41 271.884 1233.37 269.421 1231.29 267.763C1229.25 266.058 1225.79 264.803 1220.91 263.997L1208.98 261.937C1198.46 260.279 1190.64 256.987 1185.53 252.061C1180.41 247.087 1177.85 240.337 1177.85 231.811C1177.85 222.147 1181.19 214.592 1187.87 209.145C1194.6 203.697 1203.95 200.974 1215.94 200.974C1227.54 200.974 1236.9 203.626 1244 208.932C1251.11 214.237 1255.4 221.721 1256.86 231.384C1256.91 231.953 1256.77 232.426 1256.44 232.805C1256.15 233.137 1255.75 233.303 1255.23 233.303H1234.84C1233.84 233.303 1233.23 232.711 1232.99 231.526C1232.04 227.263 1230.22 224.137 1227.52 222.147C1224.82 220.158 1221.1 219.163 1216.36 219.163C1211.77 219.163 1208.26 220.111 1205.85 222.005C1203.48 223.9 1202.3 226.647 1202.3 230.247C1202.3 233.516 1203.43 236.097 1205.71 237.992C1207.98 239.887 1211.53 241.284 1216.36 242.184L1228.44 244.032C1239.34 245.784 1247.13 248.982 1251.82 253.624C1256.51 258.266 1258.85 265.111 1258.85 274.158C1258.85 283.726 1255.33 291.282 1248.27 296.824C1241.21 302.366 1231.59 305.137 1219.42 305.137ZM1275.55 304C1274.37 304 1273.78 303.408 1273.78 302.224V230.958C1273.78 229.774 1274.37 229.182 1275.55 229.182H1295.73C1296.82 229.182 1297.36 229.774 1297.36 230.958V302.224C1297.36 303.408 1296.82 304 1295.73 304H1275.55ZM1273.06 215.824V195.289C1273.06 194.247 1273.63 193.726 1274.77 193.726H1296.44C1297.63 193.726 1298.22 194.247 1298.22 195.289V215.824C1298.22 216.866 1297.63 217.387 1296.44 217.387H1274.77C1273.63 217.387 1273.06 216.866 1273.06 215.824ZM1345.68 305.137C1335.54 305.137 1327.56 303.124 1321.74 299.097C1315.91 295.024 1312.55 289.15 1311.65 281.476C1311.6 280.908 1311.72 280.458 1312 280.126C1312.29 279.747 1312.69 279.558 1313.21 279.558H1330.97C1331.97 279.558 1332.61 280.079 1332.89 281.121C1333.55 284.295 1334.93 286.545 1337.01 287.871C1339.14 289.197 1342.03 289.861 1345.68 289.861C1348.71 289.861 1351.13 289.245 1352.93 288.013C1354.78 286.734 1355.7 285.076 1355.7 283.039C1355.7 280.908 1355.01 279.345 1353.64 278.35C1352.26 277.308 1349.9 276.503 1346.53 275.934L1336.23 274.016C1328.41 272.689 1322.64 270.274 1318.89 266.768C1315.2 263.216 1313.35 258.124 1313.35 251.492C1313.35 244.292 1316.1 238.584 1321.59 234.368C1327.14 230.153 1334.74 228.045 1344.4 228.045C1353.16 228.045 1360.29 229.916 1365.79 233.658C1371.28 237.353 1374.53 242.847 1375.52 250.142C1375.66 250.758 1375.57 251.232 1375.24 251.563C1374.95 251.895 1374.55 252.061 1374.03 252.061H1356.34C1355.3 252.061 1354.61 251.516 1354.28 250.426C1353.71 247.821 1352.64 245.974 1351.08 244.884C1349.52 243.747 1347.29 243.179 1344.4 243.179C1341.46 243.179 1339.21 243.771 1337.65 244.955C1336.14 246.139 1335.38 247.821 1335.38 250C1335.38 252.037 1336.09 253.624 1337.51 254.761C1338.98 255.85 1341.56 256.703 1345.25 257.318L1355.7 259.166C1363.61 260.492 1369.25 262.861 1372.61 266.271C1376.02 269.682 1377.73 274.703 1377.73 281.334C1377.73 289.245 1374.95 295.189 1369.41 299.168C1363.92 303.147 1356.01 305.137 1345.68 305.137ZM1422.84 304C1415.26 304 1409.46 301.987 1405.44 297.961C1401.41 293.887 1399.4 288.037 1399.4 280.411V245.524H1387.81C1386.63 245.524 1386.04 244.932 1386.04 243.747V230.958C1386.04 229.774 1386.63 229.182 1387.81 229.182H1399.4V208.718C1399.4 207.629 1399.99 207.084 1401.17 207.084H1421.42C1422.46 207.084 1422.99 207.629 1422.99 208.718V229.182H1440.04C1441.18 229.182 1441.74 229.774 1441.74 230.958V243.747C1441.74 244.268 1441.58 244.695 1441.25 245.026C1440.91 245.358 1440.51 245.524 1440.04 245.524H1422.99V287.729H1439.9C1441.03 287.729 1441.6 288.297 1441.6 289.434V302.224C1441.6 303.408 1441.03 304 1439.9 304H1422.84ZM1489.35 305.137C1476.99 305.137 1467.18 301.679 1459.93 294.763C1452.73 287.847 1449.13 278.468 1449.13 266.626C1449.13 254.832 1452.76 245.453 1460 238.489C1467.25 231.526 1476.99 228.045 1489.21 228.045C1501.19 228.045 1510.52 231.432 1517.2 238.205C1523.93 244.979 1527.29 254.405 1527.29 266.484V270.534C1527.29 271.576 1526.72 272.097 1525.59 272.097H1473.29C1473.67 277.545 1475.26 281.737 1478.05 284.674C1480.89 287.563 1484.8 289.008 1489.78 289.008C1497.31 289.008 1501.95 286.284 1503.7 280.837C1504.03 279.889 1504.67 279.416 1505.62 279.416H1525.3C1525.87 279.416 1526.3 279.534 1526.58 279.771C1526.91 279.961 1527.05 280.268 1527.01 280.695C1525.73 288.274 1521.8 294.242 1515.21 298.6C1508.68 302.958 1500.05 305.137 1489.35 305.137ZM1473.29 260.374H1504.34C1504.06 255.211 1502.64 251.232 1500.08 248.437C1497.57 245.595 1494.09 244.174 1489.63 244.174C1484.75 244.174 1480.92 245.571 1478.12 248.366C1475.33 251.161 1473.72 255.163 1473.29 260.374ZM1542.43 304C1541.24 304 1540.65 303.408 1540.65 302.224V230.958C1540.65 229.774 1541.24 229.182 1542.43 229.182H1561.47C1562.6 229.182 1563.17 229.774 1563.17 230.958V239.839H1563.81C1568.93 232.071 1576.48 228.187 1586.48 228.187C1596.71 228.187 1603.89 232.071 1608.01 239.839H1608.72C1614.83 232.071 1623.38 228.187 1634.37 228.187C1642.85 228.187 1649.26 230.934 1653.62 236.429C1658.03 241.876 1660.23 249.953 1660.23 260.658V302.224C1660.23 303.408 1659.66 304 1658.53 304H1638.28C1637.14 304 1636.57 303.408 1636.57 302.224V260.658C1636.57 255.589 1635.58 251.847 1633.59 249.432C1631.6 247.016 1628.52 245.808 1624.35 245.808C1616.3 245.808 1612.27 250.758 1612.27 260.658V302.224C1612.27 303.408 1611.68 304 1610.49 304H1590.24C1589.11 304 1588.54 303.408 1588.54 302.224V260.658C1588.54 255.589 1587.57 251.847 1585.63 249.432C1583.68 247.016 1580.63 245.808 1576.46 245.808C1572.29 245.808 1569.21 247.039 1567.22 249.503C1565.23 251.918 1564.24 255.637 1564.24 260.658V302.224C1564.24 303.408 1563.69 304 1562.6 304H1542.43ZM1703.29 305.137C1693.58 305.137 1685.93 301.703 1680.34 294.834C1674.75 287.966 1671.95 278.563 1671.95 266.626C1671.95 254.5 1674.7 245.05 1680.2 238.276C1685.69 231.455 1693.39 228.045 1703.29 228.045C1707.93 228.045 1712.26 229.111 1716.29 231.242C1720.32 233.326 1723.54 236.192 1725.95 239.839H1726.74V230.958C1726.74 229.774 1727.3 229.182 1728.44 229.182H1748.69C1749.83 229.182 1750.4 229.774 1750.4 230.958V287.729H1757.29C1758.33 287.729 1758.85 288.297 1758.85 289.434V302.224C1758.85 303.408 1758.33 304 1757.29 304H1739.53C1731.76 304 1727.87 300.755 1727.87 294.266V293.555H1727.16C1724.98 297.108 1721.74 299.926 1717.43 302.011C1713.12 304.095 1708.4 305.137 1703.29 305.137ZM1695.97 266.626C1695.97 273.447 1697.37 278.705 1700.16 282.4C1703 286.047 1706.96 287.871 1712.03 287.871C1717.05 287.871 1720.89 286.047 1723.54 282.4C1726.24 278.753 1727.59 273.495 1727.59 266.626C1727.59 259.9 1726.21 254.689 1723.47 250.995C1720.77 247.253 1716.95 245.382 1712.03 245.382C1707.01 245.382 1703.08 247.253 1700.23 250.995C1697.39 254.689 1695.97 259.9 1695.97 266.626ZM1800.99 305.137C1790.85 305.137 1782.87 303.124 1777.04 299.097C1771.21 295.024 1767.85 289.15 1766.95 281.476C1766.9 280.908 1767.02 280.458 1767.31 280.126C1767.59 279.747 1767.99 279.558 1768.51 279.558H1786.28C1787.27 279.558 1787.91 280.079 1788.2 281.121C1788.86 284.295 1790.23 286.545 1792.32 287.871C1794.45 289.197 1797.34 289.861 1800.99 289.861C1804.02 289.861 1806.43 289.245 1808.23 288.013C1810.08 286.734 1811 285.076 1811 283.039C1811 280.908 1810.32 279.345 1808.94 278.35C1807.57 277.308 1805.2 276.503 1801.84 275.934L1791.54 274.016C1783.72 272.689 1777.94 270.274 1774.2 266.768C1770.5 263.216 1768.66 258.124 1768.66 251.492C1768.66 244.292 1771.4 238.584 1776.9 234.368C1782.44 230.153 1790.04 228.045 1799.71 228.045C1808.47 228.045 1815.6 229.916 1821.09 233.658C1826.59 237.353 1829.83 242.847 1830.83 250.142C1830.97 250.758 1830.88 251.232 1830.54 251.563C1830.26 251.895 1829.86 252.061 1829.34 252.061H1811.64C1810.6 252.061 1809.91 251.516 1809.58 250.426C1809.01 247.821 1807.95 245.974 1806.39 244.884C1804.82 243.747 1802.6 243.179 1799.71 243.179C1796.77 243.179 1794.52 243.771 1792.96 244.955C1791.44 246.139 1790.68 247.821 1790.68 250C1790.68 252.037 1791.39 253.624 1792.81 254.761C1794.28 255.85 1796.86 256.703 1800.56 257.318L1811 259.166C1818.91 260.492 1824.55 262.861 1827.91 266.271C1831.33 269.682 1833.03 274.703 1833.03 281.334C1833.03 289.245 1830.26 295.189 1824.72 299.168C1819.22 303.147 1811.31 305.137 1800.99 305.137ZM1908.35 305.137C1898.68 305.137 1891.03 301.703 1885.4 294.834C1879.81 287.966 1877.01 278.563 1877.01 266.626C1877.01 254.547 1879.78 245.097 1885.33 238.276C1890.87 231.455 1898.54 228.045 1908.35 228.045C1913.04 228.045 1917.39 229.111 1921.42 231.242C1925.49 233.326 1928.74 236.192 1931.15 239.839H1931.94V200.974C1931.94 199.789 1932.46 199.197 1933.5 199.197H1953.75C1954.89 199.197 1955.45 199.789 1955.45 200.974V302.224C1955.45 303.408 1954.89 304 1953.75 304H1934.64C1933.5 304 1932.93 303.408 1932.93 302.224V293.555H1932.36C1930.14 297.108 1926.87 299.926 1922.56 302.011C1918.25 304.095 1913.51 305.137 1908.35 305.137ZM1901.17 266.626C1901.17 273.447 1902.57 278.705 1905.36 282.4C1908.16 286.047 1912.11 287.871 1917.23 287.871C1922.2 287.871 1926.04 286.047 1928.74 282.4C1931.44 278.705 1932.79 273.447 1932.79 266.626C1932.79 259.9 1931.41 254.689 1928.67 250.995C1925.97 247.253 1922.15 245.382 1917.23 245.382C1912.16 245.382 1908.2 247.253 1905.36 250.995C1902.57 254.689 1901.17 259.9 1901.17 266.626ZM2009.03 305.137C1996.66 305.137 1986.86 301.679 1979.61 294.763C1972.41 287.847 1968.81 278.468 1968.81 266.626C1968.81 254.832 1972.44 245.453 1979.68 238.489C1986.93 231.526 1996.66 228.045 2008.89 228.045C2020.87 228.045 2030.2 231.432 2036.88 238.205C2043.61 244.979 2046.97 254.405 2046.97 266.484V270.534C2046.97 271.576 2046.4 272.097 2045.26 272.097H1992.97C1993.35 277.545 1994.94 281.737 1997.73 284.674C2000.57 287.563 2004.48 289.008 2009.45 289.008C2016.99 289.008 2021.63 286.284 2023.38 280.837C2023.71 279.889 2024.35 279.416 2025.3 279.416H2044.98C2045.55 279.416 2045.98 279.534 2046.26 279.771C2046.59 279.961 2046.73 280.268 2046.69 280.695C2045.41 288.274 2041.48 294.242 2034.89 298.6C2028.35 302.958 2019.73 305.137 2009.03 305.137ZM1992.97 260.374H2024.02C2023.74 255.211 2022.31 251.232 2019.76 248.437C2017.25 245.595 2013.76 244.174 2009.31 244.174C2004.43 244.174 2000.6 245.571 1997.8 248.366C1995.01 251.161 1993.4 255.163 1992.97 260.374ZM1182.19 470C1181 470 1180.41 469.408 1180.41 468.224V369.887C1180.41 368.703 1181 368.111 1182.19 368.111H1203.01C1204.05 368.111 1204.57 368.703 1204.57 369.887V468.224C1204.57 469.408 1204.05 470 1203.01 470H1182.19ZM1225.53 470C1224.35 470 1223.75 469.408 1223.75 468.224V396.958C1223.75 395.774 1224.35 395.182 1225.53 395.182H1244.57C1245.71 395.182 1246.28 395.774 1246.28 396.958V405.839H1246.92C1252.27 397.976 1260.01 394.045 1270.15 394.045C1278.87 394.045 1285.45 396.816 1289.9 402.358C1294.4 407.9 1296.65 416.142 1296.65 427.084V468.224C1296.65 469.408 1296.06 470 1294.88 470H1274.7C1273.51 470 1272.92 469.408 1272.92 468.224V427.084C1272.92 421.826 1271.9 417.942 1269.87 415.432C1267.83 412.921 1264.63 411.666 1260.28 411.666C1255.92 411.666 1252.67 412.945 1250.54 415.503C1248.41 418.013 1247.34 421.874 1247.34 427.084V468.224C1247.34 469.408 1246.8 470 1245.71 470H1225.53ZM1322.3 470C1321.12 470 1320.53 469.408 1320.53 468.224V412.661H1308.95C1307.76 412.661 1307.17 412.092 1307.17 410.955V398.095C1307.17 396.958 1307.76 396.389 1308.95 396.389H1320.53V388.645C1320.53 381.066 1322.54 375.263 1326.57 371.237C1330.59 367.211 1336.4 365.197 1343.98 365.197H1361.03C1362.16 365.197 1362.73 365.789 1362.73 366.974V379.763C1362.73 380.947 1362.16 381.539 1361.03 381.539H1344.12V396.389H1361.17C1361.69 396.389 1362.09 396.555 1362.38 396.887C1362.71 397.218 1362.88 397.621 1362.88 398.095V410.955C1362.88 412.092 1362.31 412.661 1361.17 412.661H1344.12V468.224C1344.12 469.408 1343.6 470 1342.55 470H1322.3ZM1437.84 460.621C1430.54 467.632 1420.85 471.137 1408.78 471.137C1396.7 471.137 1387.01 467.632 1379.71 460.621C1372.47 453.611 1368.84 444.279 1368.84 432.626C1368.84 420.974 1372.47 411.666 1379.71 404.703C1387.01 397.692 1396.7 394.187 1408.78 394.187C1420.85 394.187 1430.54 397.692 1437.84 404.703C1445.13 411.666 1448.78 420.974 1448.78 432.626C1448.78 444.279 1445.13 453.611 1437.84 460.621ZM1392.86 432.626C1392.86 439.732 1394.21 445.155 1396.91 448.897C1399.66 452.592 1403.61 454.439 1408.78 454.439C1413.89 454.439 1417.82 452.592 1420.57 448.897C1423.36 445.155 1424.76 439.732 1424.76 432.626C1424.76 425.568 1423.36 420.168 1420.57 416.426C1417.82 412.637 1413.89 410.742 1408.78 410.742C1403.66 410.742 1399.73 412.637 1396.98 416.426C1394.23 420.168 1392.86 425.568 1392.86 432.626ZM1462.78 470C1461.73 470 1461.21 469.408 1461.21 468.224V418.629C1461.21 411.05 1463.2 405.247 1467.18 401.221C1471.21 397.195 1477.01 395.182 1484.59 395.182H1508.75C1509.84 395.182 1510.38 395.774 1510.38 396.958V411.808C1510.38 412.85 1509.84 413.371 1508.75 413.371H1484.73V468.224C1484.73 469.408 1484.21 470 1483.17 470H1462.78ZM1524.8 470C1523.62 470 1523.03 469.408 1523.03 468.224V396.958C1523.03 395.774 1523.62 395.182 1524.8 395.182H1543.85C1544.98 395.182 1545.55 395.774 1545.55 396.958V405.839H1546.19C1551.31 398.071 1558.86 394.187 1568.86 394.187C1579.09 394.187 1586.26 398.071 1590.39 405.839H1591.1C1597.21 398.071 1605.76 394.187 1616.75 394.187C1625.23 394.187 1631.64 396.934 1636 402.429C1640.41 407.876 1642.61 415.953 1642.61 426.658V468.224C1642.61 469.408 1642.04 470 1640.9 470H1620.65C1619.52 470 1618.95 469.408 1618.95 468.224V426.658C1618.95 421.589 1617.95 417.847 1615.96 415.432C1613.98 413.016 1610.9 411.808 1606.73 411.808C1598.68 411.808 1594.65 416.758 1594.65 426.658V468.224C1594.65 469.408 1594.06 470 1592.87 470H1572.62C1571.49 470 1570.92 469.408 1570.92 468.224V426.658C1570.92 421.589 1569.95 417.847 1568 415.432C1566.06 413.016 1563.01 411.808 1558.84 411.808C1554.67 411.808 1551.59 413.039 1549.6 415.503C1547.61 417.918 1546.62 421.637 1546.62 426.658V468.224C1546.62 469.408 1546.07 470 1544.98 470H1524.8ZM1685.67 471.137C1675.96 471.137 1668.31 467.703 1662.72 460.834C1657.13 453.966 1654.33 444.563 1654.33 432.626C1654.33 420.5 1657.08 411.05 1662.58 404.276C1668.07 397.455 1675.77 394.045 1685.67 394.045C1690.31 394.045 1694.64 395.111 1698.67 397.242C1702.7 399.326 1705.92 402.192 1708.33 405.839H1709.11V396.958C1709.11 395.774 1709.68 395.182 1710.82 395.182H1731.07C1732.21 395.182 1732.78 395.774 1732.78 396.958V453.729H1739.67C1740.71 453.729 1741.23 454.297 1741.23 455.434V468.224C1741.23 469.408 1740.71 470 1739.67 470H1721.9C1714.14 470 1710.25 466.755 1710.25 460.266V459.555H1709.54C1707.36 463.108 1704.12 465.926 1699.81 468.011C1695.5 470.095 1690.78 471.137 1685.67 471.137ZM1678.35 432.626C1678.35 439.447 1679.75 444.705 1682.54 448.4C1685.38 452.047 1689.34 453.871 1694.41 453.871C1699.43 453.871 1703.26 452.047 1705.92 448.4C1708.62 444.753 1709.97 439.495 1709.97 432.626C1709.97 425.9 1708.59 420.689 1705.85 416.995C1703.15 413.253 1699.33 411.382 1694.41 411.382C1689.39 411.382 1685.45 413.253 1682.61 416.995C1679.77 420.689 1678.35 425.9 1678.35 432.626ZM1777.68 499.416C1776.54 499.416 1775.98 498.871 1775.98 497.782V490.818C1775.98 489.729 1776.54 489.184 1777.68 489.184H1785.85C1788.08 489.184 1789.74 488.947 1790.83 488.474C1791.96 488 1792.53 487.076 1792.53 485.703C1792.53 484.282 1792.01 483.311 1790.97 482.789C1789.93 482.316 1788.22 482.079 1785.85 482.079H1782.94C1782.42 482.079 1781.99 481.913 1781.66 481.582C1781.33 481.297 1781.16 480.918 1781.16 480.445V470.711C1770.93 469.337 1762.9 465.287 1757.08 458.561C1751.3 451.834 1748.41 443.189 1748.41 432.626C1748.41 420.974 1752.08 411.642 1759.42 404.632C1766.81 397.574 1776.59 394.045 1788.76 394.045C1799.19 394.045 1807.62 396.532 1814.06 401.505C1820.55 406.432 1824.34 413.253 1825.43 421.968C1825.48 422.537 1825.33 423.011 1825 423.389C1824.72 423.721 1824.31 423.887 1823.79 423.887H1804.18C1803.14 423.887 1802.55 423.295 1802.41 422.111C1801.7 418.132 1800.23 415.242 1798 413.442C1795.78 411.642 1792.7 410.742 1788.76 410.742C1783.55 410.742 1779.53 412.637 1776.69 416.426C1773.84 420.216 1772.42 425.616 1772.42 432.626C1772.42 439.684 1773.84 445.084 1776.69 448.826C1779.53 452.568 1783.55 454.439 1788.76 454.439C1792.79 454.439 1795.96 453.539 1798.29 451.739C1800.65 449.892 1802.29 447.003 1803.19 443.071C1803.33 441.934 1803.9 441.366 1804.89 441.366H1824.58C1825.1 441.366 1825.52 441.508 1825.85 441.792C1826.19 442.076 1826.33 442.455 1826.28 442.929C1825.1 451.124 1821.59 457.708 1815.76 462.682C1809.99 467.608 1802.34 470.379 1792.81 470.995V474.974C1796.98 475.163 1800.16 476.3 1802.34 478.384C1804.51 480.468 1805.6 483.192 1805.6 486.555C1805.6 495.129 1799.94 499.416 1788.62 499.416H1777.68ZM1866.57 471.137C1856.86 471.137 1849.21 467.703 1843.62 460.834C1838.03 453.966 1835.23 444.563 1835.23 432.626C1835.23 420.5 1837.98 411.05 1843.48 404.276C1848.97 397.455 1856.67 394.045 1866.57 394.045C1871.21 394.045 1875.54 395.111 1879.57 397.242C1883.6 399.326 1886.82 402.192 1889.23 405.839H1890.01V396.958C1890.01 395.774 1890.58 395.182 1891.72 395.182H1911.97C1913.11 395.182 1913.68 395.774 1913.68 396.958V453.729H1920.57C1921.61 453.729 1922.13 454.297 1922.13 455.434V468.224C1922.13 469.408 1921.61 470 1920.57 470H1902.8C1895.04 470 1891.15 466.755 1891.15 460.266V459.555H1890.44C1888.26 463.108 1885.02 465.926 1880.71 468.011C1876.4 470.095 1871.68 471.137 1866.57 471.137ZM1846.18 382.818C1846.36 376.282 1847.95 371.213 1850.94 367.613C1853.92 363.966 1857.97 362.142 1863.09 362.142C1865.93 362.142 1869.67 363.161 1874.31 365.197C1878.95 367.234 1882.08 368.253 1883.69 368.253C1886.2 368.253 1887.81 366.761 1888.52 363.776C1888.81 362.687 1889.4 362.142 1890.3 362.142H1902.38C1903.51 362.142 1904.08 362.734 1904.08 363.918C1903.89 370.455 1902.31 375.547 1899.32 379.195C1896.34 382.795 1892.31 384.595 1887.24 384.595C1884.4 384.595 1880.66 383.553 1876.02 381.468C1871.38 379.384 1868.23 378.342 1866.57 378.342C1864.06 378.342 1862.45 379.834 1861.74 382.818C1861.45 384.003 1860.88 384.595 1860.03 384.595H1847.95C1846.77 384.595 1846.18 384.003 1846.18 382.818ZM1859.25 432.626C1859.25 439.447 1860.65 444.705 1863.44 448.4C1866.28 452.047 1870.24 453.871 1875.31 453.871C1880.33 453.871 1884.16 452.047 1886.82 448.4C1889.52 444.753 1890.87 439.495 1890.87 432.626C1890.87 425.9 1889.49 420.689 1886.75 416.995C1884.05 413.253 1880.23 411.382 1875.31 411.382C1870.29 411.382 1866.35 413.253 1863.51 416.995C1860.67 420.689 1859.25 425.9 1859.25 432.626ZM1998.3 460.621C1991 467.632 1981.32 471.137 1969.24 471.137C1957.16 471.137 1947.47 467.632 1940.18 460.621C1932.93 453.611 1929.31 444.279 1929.31 432.626C1929.31 420.974 1932.93 411.666 1940.18 404.703C1947.47 397.692 1957.16 394.187 1969.24 394.187C1981.32 394.187 1991 397.692 1998.3 404.703C2005.59 411.666 2009.24 420.974 2009.24 432.626C2009.24 444.279 2005.59 453.611 1998.3 460.621ZM1953.32 432.626C1953.32 439.732 1954.67 445.155 1957.37 448.897C1960.12 452.592 1964.08 454.439 1969.24 454.439C1974.35 454.439 1978.29 452.592 1981.03 448.897C1983.83 445.155 1985.23 439.732 1985.23 432.626C1985.23 425.568 1983.83 420.168 1981.03 416.426C1978.29 412.637 1974.35 410.742 1969.24 410.742C1964.12 410.742 1960.19 412.637 1957.44 416.426C1954.7 420.168 1953.32 425.568 1953.32 432.626Z" fill="white"/>
</svg>
