<svg width="244" height="228" viewBox="0 0 244 228" fill="none" xmlns="http://www.w3.org/2000/svg">
<path d="M103.584 207.853C102.757 207.657 102.042 207.269 101.44 206.688C100.838 206.107 100.404 205.414 100.139 204.607C99.8781 203.801 99.8161 202.981 99.9536 202.147C100.122 201.529 100.395 200.96 100.771 200.441C101.152 199.922 101.611 199.489 102.148 199.142C102.689 198.796 103.276 198.567 103.907 198.455C104.539 198.34 105.182 198.36 105.836 198.516C106.639 198.706 107.342 199.096 107.946 199.684C108.553 200.273 108.984 200.971 109.237 201.779C109.492 202.583 109.524 203.387 109.334 204.19C109.151 204.962 108.742 205.66 108.105 206.286L100.807 213.489L106.842 214.923L106.503 216.356L97.9701 214.329L106.849 205.579C107.429 205.003 107.794 204.4 107.943 203.77C108.069 203.239 108.039 202.703 107.853 202.162C107.67 201.622 107.368 201.155 106.945 200.764C106.527 200.369 106.056 200.109 105.533 199.985C104.985 199.856 104.419 199.889 103.834 200.086C103.25 200.284 102.735 200.597 102.291 201.026C101.849 201.455 101.547 201.942 101.385 202.487C101.273 203.099 101.334 203.704 101.567 204.302C101.799 204.899 102.153 205.422 102.629 205.872C103.106 206.321 103.633 206.641 104.212 206.831C104.335 206.83 104.455 206.844 104.572 206.872L103.584 207.853Z" fill="url(#paint0_linear_228_1847)"/>
<path d="M116.418 216.014C117.688 216.083 118.88 215.832 119.995 215.26C121.11 214.687 122.012 213.877 122.702 212.83C123.392 211.783 123.771 210.623 123.84 209.353C123.892 208.39 123.76 207.472 123.443 206.599C123.127 205.722 122.66 204.939 122.042 204.25C121.428 203.56 120.705 203.013 119.872 202.606C119.039 202.196 118.142 201.965 117.181 201.912C115.897 201.841 114.692 202.092 113.566 202.664C112.444 203.236 111.534 204.049 110.837 205.103C110.139 206.154 109.757 207.311 109.689 208.575C109.62 209.839 109.876 211.031 110.455 212.152C111.035 213.272 111.852 214.179 112.906 214.87C113.964 215.562 115.135 215.943 116.419 216.013L116.418 216.014ZM116.293 217.509C114.755 217.425 113.351 216.964 112.079 216.126C110.811 215.284 109.83 214.185 109.136 212.828C108.442 211.472 108.136 210.027 108.219 208.495C108.303 206.948 108.763 205.534 109.6 204.255C110.436 202.975 111.53 201.988 112.881 201.294C114.236 200.596 115.682 200.29 117.22 200.374C118.765 200.459 120.177 200.922 121.456 201.764C122.735 202.603 123.721 203.704 124.415 205.068C125.112 206.432 125.419 207.888 125.336 209.434C125.253 210.967 124.791 212.369 123.951 213.642C123.111 214.914 122.01 215.899 120.648 216.596C119.29 217.29 117.838 217.594 116.293 217.509L116.293 217.509Z" fill="url(#paint1_linear_228_1847)"/>
<path d="M129.881 209.352C129.038 209.457 128.232 209.343 127.466 209.01C126.699 208.677 126.051 208.179 125.522 207.515C124.996 206.851 124.651 206.104 124.489 205.274C124.431 204.636 124.488 204.008 124.66 203.389C124.835 202.77 125.113 202.203 125.496 201.69C125.882 201.177 126.351 200.757 126.903 200.432C127.455 200.102 128.065 199.896 128.731 199.813C129.55 199.711 130.344 199.83 131.115 200.17C131.89 200.51 132.537 201.014 133.056 201.682C133.575 202.347 133.886 203.089 133.988 203.908C134.087 204.695 133.947 205.493 133.568 206.302L129.247 215.605L135.4 214.838L135.582 216.299L126.883 217.384L132.146 206.078C132.489 205.336 132.62 204.643 132.539 204C132.471 203.459 132.256 202.967 131.893 202.525C131.534 202.082 131.088 201.751 130.555 201.532C130.026 201.308 129.495 201.23 128.961 201.296C128.402 201.366 127.884 201.596 127.405 201.985C126.927 202.375 126.554 202.848 126.287 203.406C126.023 203.963 125.91 204.525 125.949 205.092C126.058 205.705 126.326 206.251 126.752 206.729C127.178 207.207 127.693 207.574 128.296 207.829C128.899 208.083 129.504 208.198 130.113 208.174C130.228 208.13 130.345 208.101 130.464 208.086L129.881 209.352Z" fill="url(#paint2_linear_228_1847)"/>
<path d="M139.622 207.49C138.8 207.706 137.988 207.7 137.184 207.472C136.38 207.244 135.672 206.836 135.059 206.248C134.45 205.66 134.01 204.965 133.739 204.164C133.597 203.539 133.57 202.909 133.658 202.273C133.749 201.635 133.951 201.037 134.261 200.478C134.576 199.917 134.985 199.439 135.49 199.043C135.993 198.644 136.57 198.359 137.22 198.188C138.017 197.978 138.82 197.99 139.629 198.225C140.442 198.458 141.15 198.872 141.753 199.466C142.355 200.056 142.761 200.75 142.971 201.549C143.173 202.315 143.14 203.125 142.873 203.978L139.823 213.773L145.819 212.196L146.194 213.62L137.716 215.851L141.433 203.945C141.674 203.163 141.712 202.459 141.548 201.833C141.409 201.305 141.13 200.846 140.712 200.456C140.298 200.065 139.812 199.796 139.255 199.649C138.701 199.498 138.163 199.491 137.644 199.628C137.099 199.771 136.616 200.067 136.193 200.517C135.77 200.967 135.464 201.485 135.273 202.073C135.081 202.659 135.044 203.231 135.161 203.79C135.351 204.383 135.689 204.888 136.174 205.306C136.66 205.723 137.218 206.018 137.849 206.191C138.481 206.363 139.096 206.397 139.696 206.292C139.804 206.233 139.916 206.189 140.032 206.158L139.622 207.49Z" fill="url(#paint3_linear_228_1847)"/>
<path d="M198.907 110.823C198.907 131.342 190.768 151.021 176.281 165.531C161.793 180.04 142.144 188.191 121.656 188.191C101.167 188.191 81.5182 180.04 67.0308 165.531C52.5434 151.021 44.4044 131.342 44.4044 110.823C44.4044 100.663 46.4026 90.6021 50.2848 81.2153C54.167 71.8286 59.8573 63.2996 67.0308 56.1152C74.2042 48.9309 82.7203 43.232 92.0929 39.3439C101.465 35.4558 111.511 33.4546 121.656 33.4546C131.8 33.4546 141.846 35.4558 151.218 39.3439C160.591 43.232 169.107 48.9309 176.281 56.1152C183.454 63.2996 189.144 71.8286 193.026 81.2153C196.909 90.6021 198.907 100.663 198.907 110.823Z" stroke="#9638FF" stroke-width="0.310313" stroke-linecap="square"/>
<path d="M121.658 0.336914C64.0445 0.336914 16.7363 44.5962 11.7751 101.009H13.7035C18.6547 45.6403 65.0824 2.2578 121.658 2.2578C178.234 2.2578 224.661 45.6403 229.612 101.009H231.537C226.576 44.5962 179.272 0.336914 121.658 0.336914ZM11.7762 120.638C16.739 177.049 64.0458 221.309 121.658 221.309C179.271 221.309 226.574 177.049 231.537 120.638H229.612C224.659 176.005 178.233 219.389 121.658 219.389C65.0836 219.389 18.6565 176.005 13.7035 120.638H11.7762Z" fill="url(#paint4_linear_228_1847)"/>
<path d="M119.41 176.002L118.243 174.711V151.289V127.867H116.559C115.632 127.867 112.38 128.322 109.332 128.879C106.284 129.435 95.7005 131.213 85.8125 132.829L67.8343 135.768L64.1038 135.464L60.3732 135.16L58.5379 135.784C58.5379 135.784 56.8722 133.234 56.5541 132.317C56.2359 131.399 56.2955 127.575 58.672 123.319C60.1872 119.373 62.9574 117.283 66.0804 114.653L70.9314 110.568L65.36 110.19L59.7889 109.813L57.9951 108.126C57.9951 108.126 56.5033 107.149 56.2014 106.438C55.7632 103.566 57.3247 100.326 58.5568 98.2112C62.3401 91.2757 69.7786 86.4804 75.7075 81.265C83.875 74.0805 96.0424 63.4362 102.746 57.611C109.45 51.7857 116.076 45.9943 117.47 44.7412L120.006 42.4628L121.804 42.4451C122.792 42.4451 123.982 42.8099 124.448 43.276L125.294 44.1232V67.6361V91.1488H126.037C126.446 91.1488 137.312 89.377 150.184 87.2112C150.184 87.2112 171.526 83.1103 173.588 83.2734C175.649 83.4364 181.121 82.939 183.475 85.1225C185.081 86.1332 185.911 87.9945 186.278 89.7364C186.645 91.4783 187.084 95.7471 185.748 98.3318C185.179 99.434 182.975 100.83 180.176 103.363L175.087 107.969L178.399 108.466C184.067 108.533 186.1 111.841 186.933 114.235C187.767 116.629 186.448 121.297 184.551 124.371C182.654 127.445 123.686 177.292 121.78 177.292C121.118 177.292 120.05 176.711 119.409 176L119.41 176.002ZM152.612 145.952C168.802 131.821 182.603 119.3 183.282 118.129C183.961 116.957 184.516 115.197 184.516 114.217C184.684 108.132 173.777 109.677 172.883 109.726L165.128 110.112L170.063 105.788C172.777 103.41 177.14 99.3229 179.757 96.7047L184.516 91.9445V89.7821C184.516 87.0223 182.509 85.0156 179.091 84.3582C179.091 84.3582 177.77 83.9818 176.408 83.8421C175.046 83.7021 150.675 88.1201 150.675 88.1201C136.521 90.4731 124.656 92.2285 124.308 92.0209L123.674 91.6436L124.111 70.3907C124.351 58.7017 124.314 47.867 124.028 46.3136L123.508 43.4893H121.944H120.381L92.2178 68.0533C63.0245 93.5162 60.0448 96.3442 59.3069 99.2885C58.6523 100.919 59.0968 101.398 59.9998 102.778L61.1332 104.511L63.9826 105.279L66.832 106.047L72.4766 105.221C75.581 104.766 78.247 104.521 78.4011 104.675C78.5549 104.829 74.7708 108.361 69.9913 112.523C66.2967 115.985 61.7112 119.503 60.1003 122.627C58.4894 125.751 58.8927 125.137 59.3382 126.914L59.7772 128.666L62.197 129.679C65.9102 131.233 68.6378 130.983 93.568 126.808C106.322 124.672 117.409 122.924 118.205 122.924H119.654V146.814C119.654 159.953 119.865 170.915 120.124 171.174C120.382 171.433 121.175 171.645 121.885 171.645C122.595 171.645 136.422 160.083 152.612 145.952L152.612 145.952ZM124.364 164.123C123.767 163.526 123.843 152.658 124.473 148.283L124.94 145.044L141.636 130.459L158.331 115.874L167.318 114.412C169.734 114.528 181.996 111.831 181.996 115.652C181.996 117.336 176.516 119.563 150.674 141.988C138.459 152.588 127.65 162.012 126.654 162.932C125.658 163.851 124.626 164.387 124.363 164.123H124.364ZM130.421 158.486C131.673 157.354 142.466 147.898 154.407 137.471C166.348 127.045 176.005 118.402 175.868 118.265C175.732 118.128 172.066 118.626 167.723 119.372L159.828 120.729L142.561 135.379L125.294 150.03V156.288V162.546L126.72 161.545C127.505 160.995 129.17 159.618 130.421 158.486ZM124.453 130.34C124.571 125.485 124.889 121.509 125.158 121.505C125.426 121.504 130.247 120.71 135.869 119.747C141.492 118.784 146.792 117.992 147.648 117.989L149.204 117.971L145.745 121.212C143.842 122.994 141.995 124.273 141.642 124.055C141.091 123.714 131.858 125.003 126.88 126.116L125.294 126.471V132.167V137.863L133.079 131.007C137.361 127.236 141.596 123.857 141.783 124.045C142.155 124.417 125.515 139.153 124.723 139.155C124.455 139.155 124.334 135.184 124.453 130.329V130.34ZM63.9568 125.702C63.9568 123.875 66.0761 121.651 76.5647 112.47L87.7236 102.702L101.75 100.387C109.464 99.114 116.648 97.9048 117.715 97.7003L119.654 97.3287V107.839V118.349L95.154 122.421C81.6792 124.661 69.1475 126.485 67.3057 126.474L63.9568 126.457V125.702ZM93.7441 121.725L118.243 117.642V110.045V102.448H117.555C114.449 102.448 86.7318 107.603 85.867 108.342C85.2554 108.864 80.5512 112.865 75.4134 117.234C70.2755 121.602 66.0719 125.304 66.0719 125.462C66.0719 126.185 70.8813 125.535 93.7441 121.725V121.725ZM124.354 116.805C123.741 116.191 123.821 102.908 124.458 99.3094L124.952 96.524L148.917 92.4465C162.098 90.2041 174.389 88.3594 176.231 88.3475L178.214 89.3522L179.58 89.5887C181.338 89.893 176.915 94.1629 167.242 102.496C162.589 106.505 158.145 110.34 157.368 111.02L155.953 112.256L141.035 114.766C124.661 117.521 125.023 117.477 124.353 116.805L124.354 116.805ZM141.709 113.679L155.657 111.398L157.22 110.022C158.079 109.265 162.83 105.135 167.776 100.844C172.723 96.5536 176.688 92.9605 176.587 92.8597C176.405 92.677 144.186 97.847 131.815 100.044L125.294 101.202V108.934V116.665L126.527 116.313C127.206 116.119 134.038 114.934 141.709 113.679V113.679ZM64.2175 100.698C63.9973 100.123 64.4039 98.8719 65.1209 97.9168C66.736 95.765 118.183 50.9032 119.036 50.9032C119.376 50.9032 119.654 55.0139 119.654 60.0382V69.1731L103.576 83.2322C94.7334 90.9648 86.7226 97.7769 85.7741 98.3703C84.1323 99.3974 70.729 101.754 66.5784 101.746C65.4999 101.745 64.4375 101.272 64.2175 100.698V100.698ZM79.0323 99.1463L85.2952 98.03L101.769 83.6021L118.243 69.1743V62.51C118.243 58.8447 118.107 55.8459 117.94 55.8459C117.774 55.8459 112.906 59.897 107.123 64.8485C101.34 69.7999 89.738 79.6971 81.3404 86.8419C72.9426 93.987 66.0717 100.14 66.0717 100.514V101.196L69.4206 100.729C71.2624 100.472 75.5878 99.76 79.0323 99.1463V99.1463ZM94.9778 96.9621C94.9778 96.3736 117.872 76.1536 119.013 75.734L119.654 75.4988V84.3276V93.1564L117.715 93.5506C116.648 93.7674 111.81 94.5905 106.963 95.3798C102.116 96.1692 97.4366 96.9764 96.5641 97.1736C95.6916 97.3707 94.9778 97.2763 94.9778 96.9619V96.9621ZM110.079 93.964C114.313 93.1933 117.882 92.5625 118.01 92.5625C118.138 92.5625 118.243 90.0207 118.243 86.9139C118.243 83.807 118.064 81.265 117.846 81.265C117.514 81.265 105.449 91.3308 102.053 94.4415C100.737 95.6465 100.885 95.6377 110.079 93.964H110.079Z" fill="#9638FF"/>
<path d="M121.506 48.2045L119.996 48.2075C119.608 48.2076 119.233 48.3479 118.94 48.6025L108.539 57.6721C84.2244 78.8741 71.8224 89.701 65.3309 95.7252C62.0851 98.7373 60.314 100.54 59.2181 101.936C58.1222 103.331 57.7142 104.464 57.4669 105.414C57.4669 105.415 57.4669 105.416 57.4669 105.417L57.1196 106.761C57.0636 106.979 57.0535 107.206 57.0899 107.427C57.1264 107.649 57.2087 107.861 57.3315 108.049L58.4293 109.732L59.5271 111.415C59.7425 111.746 60.0713 111.986 60.4512 112.09L63.259 112.859L66.0696 113.632C66.2842 113.691 66.5087 113.705 66.7289 113.673L70.7845 113.083C72.3821 112.852 73.0003 112.799 74.0131 112.674C73.2277 113.408 72.52 114.075 71.5114 114.99C68.371 117.84 64.401 121.341 61.1223 124.11C60.117 124.959 59.4739 125.917 58.4529 128.054C57.856 129.304 57.5314 129.935 57.3345 130.657C57.1376 131.379 57.2587 132.159 57.3815 132.658C57.7098 133.991 57.7203 134.746 58.441 135.638C59.1618 136.53 59.9472 136.664 61.0398 137.1L63.0882 137.917C63.2801 137.993 63.4849 138.032 63.6915 138.032L67.2644 138.017C71.5195 137.999 72.9487 137.809 94.7325 134.226C103.558 132.774 109.245 131.853 112.874 131.296C116.089 130.803 117.304 130.68 117.862 130.642L117.883 149.415C117.894 159.382 117.927 166.268 117.998 170.717C118.033 172.941 118.077 174.553 118.133 175.657C118.161 176.209 118.191 176.63 118.23 176.972C118.25 177.142 118.271 177.288 118.31 177.461C118.349 177.634 118.186 177.78 118.798 178.392C119.107 178.701 119.227 178.715 119.354 178.775C119.482 178.836 119.593 178.879 119.708 178.92C119.938 179.001 120.18 179.07 120.44 179.126C120.762 179.195 121.306 179.246 121.815 179.117C122.323 178.988 122.743 178.756 123.219 178.445C124.17 177.823 125.439 176.792 127.804 174.867C141.75 163.512 174.399 134.877 182.184 127.146C183.086 126.25 183.648 125.678 184.1 125.065C184.551 124.451 184.828 123.813 185.053 123.149C185.413 122.088 185.598 120.968 185.589 119.88L185.577 118.512C185.575 118.27 185.519 118.032 185.412 117.814C185.306 117.597 185.152 117.406 184.962 117.257L183.158 115.836C182.665 115.448 182.319 115.116 181.775 114.781C181.23 114.446 180.522 114.216 179.756 114.138C178.223 113.982 176.147 114.156 171.377 114.4C170.461 114.447 169.796 114.476 168.996 114.512C173.245 110.787 176.604 107.673 181.068 103.288L185.115 99.3118C185.268 99.1611 185.39 98.9812 185.473 98.7828C185.555 98.5844 185.598 98.3714 185.598 98.1564L185.595 96.4497C185.589 94.4545 185.071 92.6344 183.767 91.3387C182.463 90.043 180.641 89.3681 178.281 88.8833L176.415 88.5002C176.221 88.46 176.022 88.4559 175.826 88.4881L158.286 91.3973C149.152 92.9115 141.496 94.146 135.803 95.0258C130.11 95.9056 126.282 96.4347 125.184 96.5172C125.099 96.5233 125.037 96.5188 124.952 96.5233C124.944 96.2577 124.932 96.1414 124.931 95.7392C124.928 94.0702 124.98 91.1723 125.09 86.3394C125.275 78.223 125.371 70.0005 125.376 63.5931C125.379 60.3894 125.357 57.642 125.314 55.5787C125.292 54.547 125.266 53.6874 125.231 53.0172C125.197 52.3471 125.187 51.9543 125.081 51.4698C124.967 50.9437 124.893 50.5522 124.79 50.1699C124.687 49.7876 124.567 49.3265 124.101 48.8612C123.635 48.3958 122.982 48.2463 122.591 48.2156C122.201 48.185 121.901 48.2036 121.505 48.2036L121.506 48.2045ZM117.583 59.8032C117.62 60.3752 117.66 60.9027 117.692 61.6454C117.786 63.8746 117.848 66.7476 117.848 69.5979V74.6471L111.641 80.0588C100.737 89.5651 94.1603 95.2758 90.165 98.6727C86.1696 102.07 84.5498 103.21 84.4171 103.274C84.3346 103.314 83.6137 103.563 82.6953 103.796C81.777 104.028 80.5942 104.29 79.2784 104.553C76.6476 105.08 73.4724 105.614 70.6698 105.977C70.6689 105.977 70.6683 105.977 70.6668 105.977C70.6658 105.977 70.6647 105.977 70.6637 105.977C69.5097 106.126 68.1929 106.224 67.1261 106.254C66.5927 106.269 66.1209 106.267 65.7782 106.251C65.4645 106.236 65.2688 106.175 65.4279 106.236C65.4234 106.177 65.4093 105.943 65.6281 105.514C65.8347 105.108 67.1048 103.732 74.3161 97.3134C83.956 88.7336 95.1447 78.9526 103.994 71.3218C108.419 67.5064 112.259 64.2287 115.025 61.9102C116.105 61.0052 116.864 60.3868 117.583 59.8027L117.583 59.8032ZM117.818 84.4035C117.846 85.7296 117.862 87.3731 117.862 90.5109V98.0655C117.076 98.2007 112.45 98.9872 106.614 99.9785C103.578 100.494 100.79 100.961 98.6852 101.305C100.679 99.4233 103.63 96.7002 108.718 92.2382C113.287 88.232 116.005 85.8748 117.621 84.5539C117.718 84.4748 117.729 84.4754 117.818 84.4036V84.4035ZM176.992 96.0464H177.61C177.601 96.0847 177.586 96.1984 177.584 96.2026C177.426 96.5814 176.4 97.961 173.867 100.37C171.334 102.78 167.326 106.319 161.194 111.604C159.413 113.138 157.745 114.546 156.502 115.568C155.881 116.079 155.365 116.497 155.004 116.777C154.87 116.881 154.787 116.943 154.704 117.004C154.554 117.031 154.273 117.085 153.677 117.189C152.933 117.319 151.919 117.491 150.725 117.693C148.337 118.099 145.22 118.622 142.055 119.149C135.724 120.203 129.119 121.285 127.928 121.454C126.398 121.672 125.742 121.751 125.361 121.782C125.327 121.61 125.293 121.493 125.261 121.189C125.16 120.218 125.104 118.62 125.097 116.311C125.088 113.35 125.233 110.098 125.45 107.557C125.558 106.286 125.686 105.187 125.812 104.423C125.846 104.218 125.874 104.119 125.906 103.969C126.087 103.931 126.253 103.892 126.462 103.857C127.258 103.727 135.444 102.35 144.748 100.783C165.952 97.2115 174.192 96.0464 176.992 96.0464V96.0464ZM117.862 105.263V113.917V123.188C117.161 123.32 115.338 123.644 112.244 124.16C108.723 124.748 104.126 125.503 99.3297 126.28C89.7366 127.833 79.3237 129.482 75.1138 130.094C71.693 130.591 67.9025 131.004 66.4051 131.063L65.3957 131.102C65.4148 131.066 65.3953 131.056 65.4192 131.013C65.6477 130.605 66.1727 129.922 67.1792 128.888C69.1922 126.821 73.0645 123.367 80.1171 117.18L87.9986 110.268L102.12 107.922C109.943 106.622 116.558 105.506 117.862 105.263H117.862ZM177.666 121.089C177.653 121.156 177.604 121.349 177.631 121.298C176.904 122.694 173.316 126.183 145.001 150.797C137.141 157.63 129.398 164.373 127.76 165.815C126.962 166.518 126.163 167.203 125.529 167.731C125.354 167.877 125.377 167.855 125.217 167.982C125.211 167.796 125.201 167.671 125.197 167.46C125.175 166.301 125.179 164.801 125.206 163.233C125.258 160.098 125.41 156.625 125.585 155.13C125.685 154.28 125.792 153.455 125.886 152.828C125.927 152.551 125.963 152.335 125.995 152.156C125.996 152.155 125.996 152.155 125.998 152.153C126.215 151.946 126.55 151.635 126.978 151.245C127.832 150.465 129.067 149.355 130.586 148.003C133.624 145.299 137.795 141.624 142.364 137.634L158.645 123.414L161.709 122.913C172.004 121.231 176.461 120.89 177.667 121.089L177.666 121.089ZM144.274 126.209C143.114 127.207 141.71 128.448 141.416 128.602C141.062 128.788 140.975 128.886 140.772 129.05C140.568 129.214 140.337 129.414 140.077 129.643C139.558 130.1 138.934 130.677 138.311 131.279C134.949 134.529 128.478 140.173 125.656 142.415C125.629 141.128 125.622 139.526 125.647 137.805C125.698 134.237 125.883 130.37 126.071 128.98L132.136 127.969C140.474 126.579 142.343 126.394 144.274 126.209H144.274ZM126.083 128.761L126.08 128.788C126.08 128.785 126.079 128.77 126.08 128.767C126.081 128.765 126.082 128.763 126.083 128.761V128.761Z" fill="url(#paint5_linear_228_1847)"/>
<path d="M121.658 26.5259C78.4508 26.5259 42.8439 59.1461 38.0433 101.133H39.1692C43.9607 59.7543 79.0547 27.6425 121.658 27.6425C164.261 27.6425 199.355 59.7543 204.146 101.133H205.268C200.468 59.1461 164.865 26.5259 121.658 26.5259ZM38.0433 120.513C42.8453 162.499 78.4518 195.12 121.658 195.12C164.864 195.12 200.467 162.368 205.268 120.382H204.146C199.353 161.759 164.259 194.002 121.658 194.002C79.056 194.002 43.9623 161.89 39.1692 120.513H38.0433Z" fill="url(#paint6_linear_228_1847)"/>
<path d="M243.268 120.081H204.146" stroke="#DADADA" stroke-width="0.376148"/>
<path d="M243.292 101.238H204.146" stroke="#DADADA" stroke-width="0.385552"/>
<path d="M47.5594 110.823C47.5594 111.661 47.227 112.465 46.6353 113.057C46.0436 113.65 45.2411 113.983 44.4043 113.983C43.5675 113.983 42.7651 113.65 42.1734 113.057C41.5817 112.465 41.2493 111.661 41.2493 110.823C41.2493 110.408 41.3309 109.997 41.4894 109.614C41.648 109.23 41.8804 108.882 42.1733 108.589C42.4663 108.295 42.8142 108.062 43.1969 107.904C43.5797 107.745 43.99 107.663 44.4043 107.663C44.8186 107.663 45.2289 107.745 45.6117 107.904C45.9945 108.062 46.3423 108.295 46.6353 108.589C46.9283 108.882 47.1606 109.23 47.3192 109.614C47.4778 109.997 47.5594 110.408 47.5594 110.823V110.823Z" fill="#DADADA"/>
<path d="M202.062 110.823C202.062 111.238 201.98 111.649 201.822 112.032C201.663 112.416 201.431 112.764 201.138 113.057C200.845 113.351 200.497 113.583 200.114 113.742C199.731 113.901 199.321 113.983 198.907 113.983C198.07 113.983 197.268 113.65 196.676 113.057C196.084 112.465 195.752 111.661 195.752 110.823C195.752 110.408 195.833 109.997 195.992 109.614C196.151 109.23 196.383 108.882 196.676 108.589C196.969 108.295 197.317 108.062 197.699 107.904C198.082 107.745 198.493 107.663 198.907 107.663C199.321 107.663 199.731 107.745 200.114 107.904C200.497 108.062 200.845 108.295 201.138 108.589C201.431 108.882 201.663 109.23 201.822 109.614C201.98 109.997 202.062 110.408 202.062 110.823V110.823Z" fill="#D9D9D9"/>
<path d="M39.171 120.143H0.0488281" stroke="#DADADA" stroke-width="0.376148"/>
<path d="M39.2492 101.3H0.103394" stroke="#DADADA" stroke-width="0.385552"/>
<path d="M121.701 23.0574C76.7165 23.0574 39.601 57.2379 34.6029 100.952H35.7752C40.7639 57.8715 77.3453 24.22 121.701 24.22C166.057 24.22 202.551 57.8715 207.54 100.952H208.709C203.711 57.2379 166.686 23.0574 121.701 23.0574ZM34.5157 120.432C39.5153 164.145 76.7176 198.588 121.701 198.588C166.685 198.588 203.797 164.057 208.796 120.344H207.627C202.637 163.424 166.056 197.425 121.701 197.425C77.3465 197.425 40.6783 163.511 35.688 120.432H34.5157Z" fill="#9638FF"/>
<path d="M73.5307 22.4804L79.1289 26.5279C79.8502 27.0474 80.3665 27.5985 80.6775 28.1813C81.1116 28.9948 81.1245 29.7951 80.7163 30.5825C80.3083 31.3698 79.6079 32.0292 78.6152 32.5605L76.8555 33.5025L76.1817 32.2403L77.9788 31.2783C79.3169 30.5621 79.7573 29.7754 79.3001 28.9183C79.0206 28.3947 78.4797 27.8569 77.677 27.3049L72.1345 23.2275C71.7125 22.9164 71.305 22.4453 70.9121 21.8141C70.5182 21.0233 70.3822 20.2547 70.504 19.5083C70.6258 18.762 71.0803 18.1781 71.8676 17.7567L73.5529 16.8547L74.2289 18.1217L72.9601 18.7467C72.5182 18.9832 72.2121 19.3132 72.0421 19.7368C71.8751 20.1587 71.8894 20.6018 72.0846 21.066C72.2252 21.2993 72.3991 21.5168 72.6067 21.7182C72.8125 21.9166 73.0187 22.0967 73.2252 22.2587C73.4347 22.419 73.5362 22.4929 73.5296 22.4804H73.5307Z" fill="url(#paint7_linear_228_1847)"/>
<path d="M81.4037 17.3885L83.9761 16.2813L85.0386 17.3875L81.97 18.7082L85.7195 27.4451L88.3305 26.3212L88.8947 27.6361L85.0094 29.3084L80.6963 19.2567L80.0203 19.5476L79.0356 18.4078L80.13 17.9369L78.5895 14.3477L82.4748 12.6753L83.0225 13.9513L80.4111 15.0753L81.4037 17.3885Z" fill="url(#paint8_linear_228_1847)"/>
<path d="M92.7274 14.8845L93.4971 8.89941L101.165 23.5988L99.7352 24.0273L94.3237 13.5706L93.5044 17.4845L90.5462 14.7026L92.0685 26.3249L90.6589 26.7473L88.5533 10.3811L92.7274 14.8845Z" fill="url(#paint9_linear_228_1847)"/>
<path d="M103.542 8.53082L103.881 10.5003L106.379 10.0697L106.041 8.10032C106 7.86001 105.846 7.6964 105.581 7.60949C105.315 7.52258 105.012 7.50842 104.671 7.56711C104.32 7.62757 104.034 7.74318 103.812 7.91404C103.591 8.08485 103.501 8.29041 103.542 8.53071V8.53082ZM105.976 22.6983L104.563 22.9418L102.711 12.1595L101.985 12.2844L101.294 10.946L102.467 10.7437L102.129 8.77428C102.041 8.25885 102.099 7.80949 102.306 7.42613C102.512 7.04277 102.804 6.74317 103.183 6.52741C103.564 6.31102 103.976 6.16478 104.417 6.08869C105.144 5.96345 105.8 6.03153 106.386 6.2928C106.974 6.54998 107.336 7.07033 107.47 7.85393L109.904 22.0214L108.475 22.2677L106.623 11.4854L104.124 11.9159L105.976 22.6983Z" fill="url(#paint10_linear_228_1847)"/>
<path d="M112.941 21.6805L111.517 21.7975L110.182 5.48352L114.804 7.45493L114.62 5.20438L116.044 5.0874L117.372 21.3169L115.948 21.4338L114.935 9.05563L111.799 7.72283L112.941 21.6805Z" fill="url(#paint11_linear_228_1847)"/>
<path d="M121.807 6.84246L121.789 8.84079L124.324 8.85679L124.342 6.85846C124.342 6.61464 124.219 6.42649 123.975 6.29412C123.729 6.16176 123.433 6.09453 123.087 6.09228C122.731 6.08992 122.428 6.15328 122.18 6.28245C121.933 6.41157 121.808 6.59809 121.807 6.84192V6.84246ZM121.713 21.2178L120.278 21.2089L120.349 10.2685L119.613 10.2631L119.167 8.82371L120.359 8.83074L120.376 6.83241C120.376 6.30942 120.513 5.87739 120.787 5.53637C121.057 5.19535 121.398 4.95204 121.808 4.8063C122.222 4.66058 122.653 4.5892 123.101 4.59213C123.838 4.59685 124.472 4.77943 125.002 5.13993C125.536 5.49681 125.801 6.07277 125.796 6.86787L125.702 21.2432L124.252 21.2343L124.323 10.2938L121.788 10.2779L121.713 21.2178Z" fill="url(#paint12_linear_228_1847)"/>
<path d="M135.488 20.6928C136.454 20.8604 137.357 20.8506 138.197 20.6634C139.04 20.4769 139.794 20.1389 140.46 19.6494C141.127 19.1565 141.683 18.5401 142.127 17.8003C142.572 17.057 142.881 16.22 143.056 15.2892C143.121 14.9419 143.177 14.4814 143.224 13.9076C143.316 10.3004 141.713 8.18653 138.415 7.56573C138.363 7.55628 138.282 7.54471 138.173 7.53113C138.065 7.51779 137.981 7.50568 137.922 7.4947L135.488 20.6928ZM136.823 5.8313L139.018 6.24461C139.763 6.38495 140.482 6.62266 141.173 6.95771C141.867 7.29342 142.499 7.76632 143.066 8.37656C143.634 8.98681 144.076 9.78016 144.391 10.7565C144.708 11.7294 144.822 12.8817 144.733 14.2135C144.702 14.7073 144.639 15.2042 144.545 15.7043C144.305 16.9859 143.883 18.0859 143.28 19.0043C142.676 19.9228 141.964 20.6463 141.143 21.175C140.326 21.7043 139.471 22.0538 138.577 22.2236C137.684 22.3934 136.829 22.4016 136.014 22.2482L133.819 21.835L136.823 5.8313Z" fill="url(#paint13_linear_228_1847)"/>
<path d="M150.64 12.8813L153.325 13.6772L153.434 15.2081L150.232 14.2588L147.537 23.3772L150.262 24.1851L149.857 25.5575L145.802 24.3554L148.902 13.8646L148.197 13.6555L148.167 12.1487L149.309 12.4872L150.416 8.74121L154.471 9.9433L154.077 11.2749L151.352 10.467L150.64 12.8813Z" fill="url(#paint14_linear_228_1847)"/>
<path d="M164.684 19.2714L164.751 26.1862C164.763 27.0759 164.626 27.819 164.34 28.4155C163.944 29.248 163.309 29.7333 162.434 29.8714C161.559 30.0094 160.613 29.8359 159.597 29.3507L157.796 28.4904L158.411 27.1986L160.251 28.0771C161.62 28.7312 162.514 28.6196 162.931 27.7424C163.186 27.2066 163.298 26.4513 163.265 25.4766L163.248 18.5892C163.247 18.0644 163.384 17.4564 163.659 16.7652C164.061 15.9785 164.598 15.4128 165.27 15.0683C165.942 14.7238 166.681 14.744 167.487 15.1288L169.212 15.9524L168.594 17.249L167.339 16.5968C166.887 16.3808 166.44 16.3298 165.999 16.444C165.561 16.5598 165.213 16.8342 164.956 17.2673C164.852 17.519 164.781 17.7883 164.742 18.0751C164.704 18.3587 164.681 18.6319 164.674 18.8944C164.674 19.1584 164.674 19.2841 164.674 19.2714H164.684Z" fill="url(#paint15_linear_228_1847)"/>
<path d="M166.181 32.7047L164.97 32.0284L172.888 17.8059L174.099 18.4823L166.181 32.7047Z" fill="url(#paint16_linear_228_1847)"/>
<path d="M69.6516 27.4057C69.913 27.8206 69.9991 28.3225 69.891 28.801C69.7829 29.2796 69.4894 29.6955 69.0751 29.9573C68.6608 30.2191 68.1596 30.3053 67.6818 30.197C67.204 30.0888 66.7888 29.7948 66.5274 29.3799C66.3979 29.1745 66.3102 28.9455 66.2691 28.7061C66.228 28.4666 66.2344 28.2215 66.288 27.9845C66.3415 27.7476 66.4411 27.5235 66.5811 27.3251C66.7211 27.1267 66.8987 26.9579 67.1039 26.8283C67.309 26.6987 67.5376 26.6108 67.7767 26.5696C68.0158 26.5285 68.2606 26.5349 68.4972 26.5885C68.7337 26.6421 68.9575 26.7419 69.1555 26.8821C69.3536 27.0223 69.5222 27.2002 69.6516 27.4057V27.4057Z" fill="url(#paint17_linear_228_1847)"/>
<path d="M176.73 29.3707C176.6 29.5757 176.431 29.7531 176.232 29.8927C176.034 30.0322 175.81 30.1312 175.573 30.1841C175.336 30.2369 175.091 30.2425 174.852 30.2006C174.613 30.1587 174.385 30.07 174.18 29.9397C173.976 29.8094 173.799 29.64 173.659 29.4412C173.52 29.2423 173.421 29.0179 173.368 28.7808C173.315 28.5437 173.31 28.2985 173.352 28.0592C173.394 27.8199 173.482 27.5912 173.612 27.3862C173.742 27.1812 173.911 27.0038 174.11 26.8643C174.309 26.7247 174.533 26.6257 174.769 26.5729C175.006 26.52 175.251 26.5144 175.49 26.5563C175.729 26.5983 175.957 26.6869 176.162 26.8172C176.367 26.9475 176.544 27.1169 176.683 27.3158C176.822 27.5146 176.921 27.739 176.974 27.9761C177.027 28.2132 177.032 28.4584 176.99 28.6977C176.949 28.937 176.86 29.1657 176.73 29.3707V29.3707Z" fill="url(#paint18_linear_228_1847)"/>
<path d="M92.8241 205.102C92.7193 205.321 92.5724 205.517 92.3918 205.679C92.2112 205.841 92.0005 205.966 91.7717 206.047C91.5429 206.128 91.3004 206.162 91.0582 206.149C90.816 206.136 90.5788 206.075 90.36 205.97C90.1413 205.865 89.9454 205.718 89.7834 205.537C89.6215 205.356 89.4967 205.145 89.4162 204.916C89.3356 204.687 89.301 204.444 89.3141 204.202C89.3273 203.959 89.3881 203.721 89.4929 203.502C89.5978 203.283 89.7447 203.087 89.9253 202.925C90.1058 202.763 90.3165 202.638 90.5454 202.557C90.7742 202.476 91.0166 202.442 91.2588 202.455C91.501 202.468 91.7383 202.529 91.957 202.634C92.1757 202.739 92.3716 202.886 92.5336 203.067C92.6955 203.248 92.8204 203.459 92.9009 203.688C92.9814 203.917 93.0161 204.16 93.0029 204.402C92.9897 204.645 92.929 204.883 92.8241 205.102V205.102Z" fill="url(#paint19_linear_228_1847)"/>
<path opacity="0.491259" d="M153.906 203.826C153.971 204.06 153.989 204.304 153.959 204.545C153.93 204.787 153.853 205.019 153.734 205.231C153.614 205.442 153.454 205.628 153.263 205.778C153.072 205.927 152.853 206.037 152.619 206.102C152.386 206.167 152.141 206.185 151.901 206.156C151.66 206.126 151.427 206.049 151.216 205.929C151.005 205.81 150.82 205.65 150.67 205.458C150.521 205.267 150.411 205.048 150.346 204.814C150.281 204.579 150.263 204.335 150.293 204.094C150.323 203.853 150.399 203.62 150.519 203.408C150.638 203.197 150.798 203.011 150.989 202.862C151.181 202.712 151.399 202.602 151.633 202.537C151.867 202.472 152.111 202.454 152.352 202.484C152.592 202.513 152.825 202.59 153.036 202.71C153.247 202.829 153.433 202.99 153.582 203.181C153.731 203.372 153.841 203.592 153.906 203.826V203.826Z" fill="url(#paint20_linear_228_1847)"/>
<defs>
<linearGradient id="paint0_linear_228_1847" x1="146.157" y1="213.79" x2="100.361" y2="199.724" gradientUnits="userSpaceOnUse">
<stop stop-color="#DCDCDC"/>
<stop offset="0.23706" stop-color="#A9A9A9"/>
<stop offset="0.493821" stop-color="#9C9C9C"/>
<stop offset="0.621199" stop-color="#ACACAC"/>
<stop offset="1" stop-color="#DCDCDC"/>
</linearGradient>
<linearGradient id="paint1_linear_228_1847" x1="146.149" y1="213.785" x2="100.358" y2="199.722" gradientUnits="userSpaceOnUse">
<stop stop-color="#DCDCDC"/>
<stop offset="0.23706" stop-color="#A9A9A9"/>
<stop offset="0.493821" stop-color="#9C9C9C"/>
<stop offset="0.621199" stop-color="#ACACAC"/>
<stop offset="1" stop-color="#DCDCDC"/>
</linearGradient>
<linearGradient id="paint2_linear_228_1847" x1="146.147" y1="213.78" x2="100.354" y2="199.716" gradientUnits="userSpaceOnUse">
<stop stop-color="#DCDCDC"/>
<stop offset="0.23706" stop-color="#A9A9A9"/>
<stop offset="0.493821" stop-color="#9C9C9C"/>
<stop offset="0.621199" stop-color="#ACACAC"/>
<stop offset="1" stop-color="#DCDCDC"/>
</linearGradient>
<linearGradient id="paint3_linear_228_1847" x1="146.145" y1="213.777" x2="100.353" y2="199.713" gradientUnits="userSpaceOnUse">
<stop stop-color="#DCDCDC"/>
<stop offset="0.23706" stop-color="#A9A9A9"/>
<stop offset="0.493821" stop-color="#9C9C9C"/>
<stop offset="0.621199" stop-color="#ACACAC"/>
<stop offset="1" stop-color="#DCDCDC"/>
</linearGradient>
<linearGradient id="paint4_linear_228_1847" x1="12.0281" y1="110.823" x2="231.287" y2="110.823" gradientUnits="userSpaceOnUse">
<stop stop-color="#DCDCDC"/>
<stop offset="0.127144" stop-color="#A9A9A9"/>
<stop offset="0.27916" stop-color="#9C9C9C"/>
<stop offset="0.731233" stop-color="#ACACAC"/>
<stop offset="1" stop-color="#DCDCDC"/>
</linearGradient>
<linearGradient id="paint5_linear_228_1847" x1="76.8291" y1="163.751" x2="174.936" y2="57.6298" gradientUnits="userSpaceOnUse">
<stop stop-color="#D3D3D3"/>
<stop offset="0.21979" stop-color="#DBDBDB"/>
<stop offset="0.494979" stop-color="#A6A6A6"/>
<stop offset="0.67109" stop-color="#E5E5E5"/>
<stop offset="1" stop-color="#CDCDCD"/>
</linearGradient>
<linearGradient id="paint6_linear_228_1847" x1="37.4869" y1="110.822" x2="205.827" y2="110.822" gradientUnits="userSpaceOnUse">
<stop stop-color="#DCDCDC"/>
<stop offset="0.23706" stop-color="#A9A9A9"/>
<stop offset="0.493821" stop-color="#9C9C9C"/>
<stop offset="0.621199" stop-color="#ACACAC"/>
<stop offset="1" stop-color="#DCDCDC"/>
</linearGradient>
<linearGradient id="paint7_linear_228_1847" x1="69.2121" y1="19.035" x2="174.1" y2="19.035" gradientUnits="userSpaceOnUse">
<stop stop-color="#EAEAEA"/>
<stop offset="0.23706" stop-color="#BFBFBF"/>
<stop offset="0.483615" stop-color="#919191"/>
<stop offset="0.748338" stop-color="#C1C1C1"/>
<stop offset="1" stop-color="#E6E6E6"/>
</linearGradient>
<linearGradient id="paint8_linear_228_1847" x1="69.2122" y1="19.035" x2="174.099" y2="19.035" gradientUnits="userSpaceOnUse">
<stop stop-color="#EAEAEA"/>
<stop offset="0.23706" stop-color="#BFBFBF"/>
<stop offset="0.483615" stop-color="#919191"/>
<stop offset="0.748338" stop-color="#C1C1C1"/>
<stop offset="1" stop-color="#E6E6E6"/>
</linearGradient>
<linearGradient id="paint9_linear_228_1847" x1="69.2116" y1="19.035" x2="174.101" y2="19.035" gradientUnits="userSpaceOnUse">
<stop stop-color="#EAEAEA"/>
<stop offset="0.23706" stop-color="#BFBFBF"/>
<stop offset="0.483615" stop-color="#919191"/>
<stop offset="0.748338" stop-color="#C1C1C1"/>
<stop offset="1" stop-color="#E6E6E6"/>
</linearGradient>
<linearGradient id="paint10_linear_228_1847" x1="69.2118" y1="19.035" x2="174.1" y2="19.035" gradientUnits="userSpaceOnUse">
<stop stop-color="#EAEAEA"/>
<stop offset="0.23706" stop-color="#BFBFBF"/>
<stop offset="0.483615" stop-color="#919191"/>
<stop offset="0.748338" stop-color="#C1C1C1"/>
<stop offset="1" stop-color="#E6E6E6"/>
</linearGradient>
<linearGradient id="paint11_linear_228_1847" x1="69.2127" y1="19.035" x2="174.098" y2="19.035" gradientUnits="userSpaceOnUse">
<stop stop-color="#EAEAEA"/>
<stop offset="0.23706" stop-color="#BFBFBF"/>
<stop offset="0.483615" stop-color="#919191"/>
<stop offset="0.748338" stop-color="#C1C1C1"/>
<stop offset="1" stop-color="#E6E6E6"/>
</linearGradient>
<linearGradient id="paint12_linear_228_1847" x1="69.2117" y1="19.0349" x2="174.099" y2="19.0349" gradientUnits="userSpaceOnUse">
<stop stop-color="#EAEAEA"/>
<stop offset="0.23706" stop-color="#BFBFBF"/>
<stop offset="0.483615" stop-color="#919191"/>
<stop offset="0.748338" stop-color="#C1C1C1"/>
<stop offset="1" stop-color="#E6E6E6"/>
</linearGradient>
<linearGradient id="paint13_linear_228_1847" x1="69.2119" y1="19.0349" x2="174.1" y2="19.0349" gradientUnits="userSpaceOnUse">
<stop stop-color="#EAEAEA"/>
<stop offset="0.23706" stop-color="#BFBFBF"/>
<stop offset="0.483615" stop-color="#919191"/>
<stop offset="0.748338" stop-color="#C1C1C1"/>
<stop offset="1" stop-color="#E6E6E6"/>
</linearGradient>
<linearGradient id="paint14_linear_228_1847" x1="69.2121" y1="19.0349" x2="174.1" y2="19.0349" gradientUnits="userSpaceOnUse">
<stop stop-color="#EAEAEA"/>
<stop offset="0.23706" stop-color="#BFBFBF"/>
<stop offset="0.483615" stop-color="#919191"/>
<stop offset="0.748338" stop-color="#C1C1C1"/>
<stop offset="1" stop-color="#E6E6E6"/>
</linearGradient>
<linearGradient id="paint15_linear_228_1847" x1="69.2123" y1="19.035" x2="174.1" y2="19.035" gradientUnits="userSpaceOnUse">
<stop stop-color="#EAEAEA"/>
<stop offset="0.23706" stop-color="#BFBFBF"/>
<stop offset="0.483615" stop-color="#919191"/>
<stop offset="0.748338" stop-color="#C1C1C1"/>
<stop offset="1" stop-color="#E6E6E6"/>
</linearGradient>
<linearGradient id="paint16_linear_228_1847" x1="69.2111" y1="19.035" x2="174.099" y2="19.035" gradientUnits="userSpaceOnUse">
<stop stop-color="#EAEAEA"/>
<stop offset="0.23706" stop-color="#BFBFBF"/>
<stop offset="0.483615" stop-color="#919191"/>
<stop offset="0.748338" stop-color="#C1C1C1"/>
<stop offset="1" stop-color="#E6E6E6"/>
</linearGradient>
<linearGradient id="paint17_linear_228_1847" x1="66.5273" y1="29.3798" x2="69.6543" y2="27.4099" gradientUnits="userSpaceOnUse">
<stop stop-color="#CBCBCB"/>
<stop offset="0.127144" stop-color="#C0C0C0"/>
<stop offset="0.344613" stop-color="#A8A8A8"/>
<stop offset="0.68291" stop-color="#B1B1B1"/>
<stop offset="1" stop-color="#D4D4D4"/>
</linearGradient>
<linearGradient id="paint18_linear_228_1847" x1="173.612" y1="27.3864" x2="176.733" y2="29.3666" gradientUnits="userSpaceOnUse">
<stop stop-color="#CBCBCB"/>
<stop offset="0.127144" stop-color="#C0C0C0"/>
<stop offset="0.344613" stop-color="#A8A8A8"/>
<stop offset="0.68291" stop-color="#B1B1B1"/>
<stop offset="1" stop-color="#D4D4D4"/>
</linearGradient>
<linearGradient id="paint19_linear_228_1847" x1="89.4928" y1="203.502" x2="92.8259" y2="205.098" gradientUnits="userSpaceOnUse">
<stop stop-color="#CBCBCB"/>
<stop offset="0.127144" stop-color="#C0C0C0"/>
<stop offset="0.344613" stop-color="#A8A8A8"/>
<stop offset="0.68291" stop-color="#B1B1B1"/>
<stop offset="1" stop-color="#D4D4D4"/>
</linearGradient>
<linearGradient id="paint20_linear_228_1847" x1="150.346" y1="204.814" x2="153.907" y2="203.829" gradientUnits="userSpaceOnUse">
<stop stop-color="#CBCBCB"/>
<stop offset="0.127144" stop-color="#C0C0C0"/>
<stop offset="0.344613" stop-color="#A8A8A8"/>
<stop offset="0.68291" stop-color="#B1B1B1"/>
<stop offset="1" stop-color="#D4D4D4"/>
</linearGradient>
</defs>
</svg>
