<svg width="81" height="90" viewBox="0 0 81 90" fill="none" xmlns="http://www.w3.org/2000/svg">
<g id="Frame 103">
<g id="Group">
<path id="Vector" d="M53.318 60.5957L78.3678 30.2514C81.3159 26.68 81.166 21.6877 78.0327 19.1015L77.0744 18.3107C73.9411 15.724 69.0109 16.5226 66.0627 20.094L63.6747 22.9865C63.4271 22.3735 63.0437 21.8216 62.5142 21.3844L62.0219 20.9781C60.119 19.4073 57.1249 19.8918 55.3348 22.0609L49.119 29.5901C48.7668 29.3424 48.4083 29.1085 48.044 28.8872L49.8018 26.7577C51.0351 25.2636 50.9726 23.175 49.6616 22.0931L49.4868 21.9486C48.1758 20.8667 46.1132 21.2003 44.8799 22.6944L41.7862 26.4416C40.5451 26.1872 39.2776 26.047 37.9969 26.0192L42.3367 20.7622C44.1272 18.593 44.0359 15.5618 42.133 13.991L41.6406 13.5847C39.7377 12.0139 36.7436 12.4989 34.9535 14.6675L18.2814 34.8642C17.9263 35.294 17.6489 35.7585 17.4413 36.2381C9.15407 46.735 9.71624 61.1242 18.8167 68.6368C28.0593 76.2666 42.6014 73.9118 51.2979 63.3773C52.0393 62.4791 52.7095 61.5482 53.318 60.5957Z" fill="white"/>
<path id="Vector_2" d="M55.7488 17.7337C57.5119 17.7337 58.9412 16.3044 58.9412 14.5413C58.9412 12.7782 57.5119 11.3489 55.7488 11.3489C53.9857 11.3489 52.5564 12.7782 52.5564 14.5413C52.5564 16.3044 53.9857 17.7337 55.7488 17.7337Z" fill="white"/>
<path id="Vector_3" d="M67.2984 4.28714C65.5058 6.45881 65.7788 9.64424 67.9082 11.402C70.0377 13.1598 73.2171 12.8243 75.0098 10.6526C76.8024 8.48095 76.5294 5.2955 74.3999 3.53772C72.2705 1.77995 69.091 2.11548 67.2984 4.28714Z" fill="white"/>
</g>
<path id="Vector_4" d="M2.70409 57.8186C0.89299 57.2848 1.0825 54.6116 2.32018 53.1859L31.5137 19.6243C32.7519 18.1985 35.514 17.5719 36.3214 19.3117C36.4616 19.613 36.4435 20.6143 36.4435 20.6143L36.5251 85.0467C36.5251 85.0467 36.7639 86.9716 36.8508 87.1631C37.6309 88.8829 39.7541 88.2357 40.9917 86.81L70.1321 53.2484C71.3702 51.8226 71.7122 49.1519 69.9011 48.618C69.5098 48.5028 68.1764 48.6557 68.1764 48.6557L4.07805 57.8108C4.07805 57.8108 3.04111 57.9178 2.70409 57.8186Z" fill="#390078" stroke="#390078" stroke-width="1.95373" stroke-miterlimit="10"/>
<path id="Vector_5" d="M2.70385 48.5381C0.892746 48.0043 1.08225 45.3311 2.31994 43.9053L31.5135 10.3437C32.7517 8.91801 35.5138 8.29135 36.3211 10.0311C36.4613 10.3325 36.4433 11.3338 36.4433 11.3338L36.5248 75.7662C36.5248 75.7662 36.7637 77.6911 36.8506 77.8826C37.6306 79.6024 39.7538 78.9552 40.9915 77.5295L70.1318 43.9679C71.37 42.5421 71.7119 39.8714 69.9008 39.3375C69.5096 39.2223 68.1762 39.3751 68.1762 39.3751L4.0778 48.5303C4.0778 48.5303 3.04087 48.6373 2.70385 48.5381Z" fill="#9638FF" stroke="#9638FF" stroke-width="1.95373" stroke-miterlimit="10"/>
</g>
</svg>
