<svg width="256" height="256" viewBox="0 0 256 256" fill="none" xmlns="http://www.w3.org/2000/svg">
<g filter="url(#filter0_di_416_8008)">
<path d="M144.086 154.706L177.872 113.778C181.848 108.961 181.646 102.228 177.42 98.7395L176.128 97.673C171.901 94.184 165.252 95.2612 161.275 100.078L158.054 103.979C157.72 103.153 157.203 102.408 156.489 101.819L155.825 101.271C153.259 99.1519 149.22 99.8054 146.806 102.731L138.422 112.886C137.947 112.552 137.464 112.237 136.972 111.938L139.343 109.066C141.007 107.051 140.922 104.234 139.154 102.775L138.918 102.58C137.15 101.12 134.368 101.57 132.704 103.586L128.532 108.64C126.858 108.297 125.148 108.107 123.421 108.07L129.274 100.979C131.689 98.0537 131.566 93.9653 128.999 91.8467L128.335 91.2986C125.769 89.1799 121.73 89.8341 119.316 92.7591L96.8291 120C96.3502 120.58 95.976 121.206 95.696 121.853C84.5184 136.011 85.2767 155.419 97.5511 165.551C110.017 175.842 129.631 172.666 141.361 158.458C142.361 157.246 143.265 155.99 144.086 154.706Z" fill="#D0ACFF"/>
<path d="M147.364 96.8945C149.742 96.8945 151.67 94.9667 151.67 92.5887C151.67 90.2106 149.742 88.2829 147.364 88.2829C144.986 88.2829 143.058 90.2106 143.058 92.5887C143.058 94.9667 144.986 96.8945 147.364 96.8945Z" fill="#D0ACFF"/>
<path d="M162.941 78.7582C160.524 81.6873 160.892 85.9837 163.764 88.3546C166.636 90.7254 170.924 90.2729 173.342 87.3438C175.76 84.4147 175.392 80.1182 172.52 77.7474C169.648 75.3765 165.359 75.8291 162.941 78.7582Z" fill="#D0ACFF"/>
</g>
<g filter="url(#filter1_di_416_8008)">
<path d="M117.974 96.3248C119.562 96.1279 121.477 96.5741 122.356 98.4681C122.495 98.7659 122.547 99.1001 122.573 99.2959C122.604 99.5322 122.621 99.7808 122.63 99.9941C122.64 100.211 122.643 100.411 122.644 100.556C122.644 100.628 122.644 100.689 122.644 100.731C122.644 100.75 122.644 100.766 122.643 100.778L122.697 143.187L163.94 137.297L163.958 137.294L163.976 137.292L164.126 138.601C163.982 137.347 163.976 137.294 163.976 137.292H163.977L163.977 137.292C163.978 137.292 163.978 137.292 163.979 137.292C163.98 137.292 163.982 137.291 163.984 137.291C163.988 137.291 163.994 137.29 164.002 137.289C164.017 137.287 164.038 137.285 164.065 137.282C164.119 137.276 164.197 137.269 164.29 137.26C164.476 137.242 164.733 137.22 165.009 137.202C165.283 137.185 165.592 137.172 165.88 137.175C166.125 137.178 166.5 137.191 166.825 137.286C168.821 137.875 169.492 139.668 169.468 141.242C169.444 142.791 168.792 144.47 167.759 145.66L128.455 190.926C127.468 192.063 126.074 192.964 124.644 193.193C123.913 193.31 123.12 193.256 122.383 192.899C121.631 192.535 121.05 191.909 120.675 191.083C120.59 190.895 120.547 190.678 120.533 190.612C120.508 190.491 120.482 190.348 120.457 190.201C120.408 189.904 120.355 189.542 120.306 189.197C120.258 188.851 120.214 188.513 120.181 188.263C120.165 188.138 120.152 188.034 120.143 187.962C120.138 187.925 120.134 187.897 120.132 187.877C120.131 187.867 120.13 187.86 120.129 187.855C120.129 187.852 120.129 187.85 120.128 187.849C120.128 187.848 120.128 187.848 120.128 187.847V187.847L120.118 187.767V187.686L120.066 146.225L77.8583 152.254L77.8328 152.257L77.8073 152.26L77.8069 152.26H77.8049C77.8038 152.26 77.8023 152.26 77.8006 152.26C77.7971 152.261 77.792 152.261 77.7859 152.262C77.7736 152.263 77.7563 152.265 77.7347 152.267C77.6912 152.271 77.6297 152.277 77.5551 152.283C77.4066 152.295 77.2015 152.31 76.9786 152.321C76.7586 152.331 76.5051 152.338 76.2645 152.332C76.058 152.326 75.7371 152.309 75.4469 152.224L75.4465 152.224C73.4897 151.647 72.7428 149.901 72.7008 148.322C72.6593 146.765 73.2528 145.061 74.3062 143.848L74.3071 143.846L113.683 98.5794C114.742 97.3595 116.394 96.5209 117.974 96.3248Z" fill="url(#paint0_linear_416_8008)"/>
<path d="M163.976 137.292L163.958 137.294L163.94 137.297L122.697 143.187L122.643 100.778C122.644 100.766 122.644 100.75 122.644 100.731C122.644 100.689 122.644 100.628 122.644 100.556C122.643 100.411 122.64 100.211 122.63 99.9941C122.621 99.7808 122.604 99.5322 122.573 99.2959C122.547 99.1001 122.495 98.7659 122.356 98.4681C121.477 96.5741 119.562 96.1279 117.974 96.3248C116.394 96.5209 114.742 97.3595 113.683 98.5794L74.3071 143.846L74.3062 143.848C73.2528 145.061 72.6593 146.765 72.7008 148.322C72.7428 149.901 73.4897 151.647 75.4465 152.224L75.4469 152.224C75.7371 152.309 76.058 152.326 76.2645 152.332C76.5051 152.338 76.7586 152.331 76.9786 152.321C77.2015 152.31 77.4066 152.295 77.5551 152.283C77.6297 152.277 77.6912 152.271 77.7347 152.267C77.7563 152.265 77.7736 152.263 77.7859 152.262C77.792 152.261 77.7971 152.261 77.8006 152.26C77.8023 152.26 77.8038 152.26 77.8049 152.26H77.8069L77.8073 152.26M163.976 137.292L164.126 138.601C163.982 137.347 163.976 137.294 163.976 137.292ZM163.976 137.292H163.977L163.977 137.292C163.978 137.292 163.978 137.292 163.979 137.292C163.98 137.292 163.982 137.291 163.984 137.291C163.988 137.291 163.994 137.29 164.002 137.289C164.017 137.287 164.038 137.285 164.065 137.282C164.119 137.276 164.197 137.269 164.29 137.26C164.476 137.242 164.733 137.22 165.009 137.202C165.283 137.185 165.592 137.172 165.88 137.175C166.125 137.178 166.5 137.191 166.825 137.286C168.821 137.875 169.492 139.668 169.468 141.242C169.444 142.791 168.792 144.47 167.759 145.66L128.455 190.926C127.468 192.063 126.074 192.964 124.644 193.193C123.913 193.31 123.12 193.256 122.383 192.899C121.631 192.535 121.05 191.909 120.675 191.083C120.59 190.895 120.547 190.678 120.533 190.612C120.508 190.491 120.482 190.348 120.457 190.201C120.408 189.904 120.355 189.542 120.306 189.197C120.258 188.851 120.214 188.513 120.181 188.263C120.165 188.138 120.152 188.034 120.143 187.962C120.138 187.925 120.134 187.897 120.132 187.877C120.131 187.867 120.13 187.86 120.129 187.855C120.129 187.852 120.129 187.85 120.128 187.849C120.128 187.848 120.128 187.848 120.128 187.847V187.847M120.128 187.847L121.436 187.684M120.128 187.847L120.118 187.767V187.686L120.066 146.225L77.8583 152.254L77.8328 152.257L77.8073 152.26M77.8073 152.26L77.672 150.949" stroke="white" stroke-width="0.228996" stroke-miterlimit="10"/>
</g>
<g filter="url(#filter2_dii_416_8008)">
<path d="M117.974 83.8078C119.562 83.6109 121.477 84.0572 122.356 85.9511C122.495 86.2489 122.547 86.5832 122.573 86.779C122.604 87.0152 122.621 87.2638 122.63 87.4771C122.64 87.6939 122.643 87.894 122.644 88.0387C122.644 88.1115 122.644 88.1716 122.644 88.2142C122.644 88.2333 122.644 88.2491 122.643 88.2609L122.697 130.67L163.94 124.78L163.958 124.777L163.976 124.775L164.126 126.084C163.981 124.822 163.976 124.777 163.976 124.775H163.977L163.977 124.775C163.977 124.775 163.978 124.775 163.979 124.775C163.98 124.775 163.982 124.774 163.984 124.774C163.988 124.774 163.994 124.773 164.002 124.772C164.017 124.771 164.038 124.768 164.065 124.765C164.119 124.759 164.197 124.752 164.29 124.743C164.476 124.725 164.733 124.703 165.009 124.685C165.283 124.668 165.592 124.655 165.88 124.658C166.125 124.661 166.5 124.674 166.825 124.77C168.821 125.358 169.492 127.151 169.468 128.725C169.444 130.274 168.792 131.953 167.759 133.143L128.455 178.409C127.468 179.546 126.074 180.447 124.644 180.676C123.913 180.793 123.12 180.739 122.383 180.382C121.631 180.018 121.05 179.392 120.675 178.566C120.59 178.378 120.547 178.161 120.533 178.095C120.508 177.974 120.482 177.831 120.457 177.684C120.408 177.387 120.355 177.025 120.306 176.68C120.258 176.334 120.214 175.996 120.181 175.746C120.165 175.621 120.152 175.517 120.143 175.445C120.138 175.408 120.134 175.38 120.132 175.36C120.131 175.351 120.13 175.343 120.129 175.338C120.129 175.335 120.129 175.333 120.128 175.332C120.128 175.331 120.128 175.331 120.128 175.33V175.33L120.118 175.25V175.169L120.066 133.708L77.8583 139.737L77.8328 139.74L77.8073 139.743L77.8069 139.743H77.8049C77.8038 139.743 77.8023 139.743 77.8006 139.743C77.7971 139.744 77.792 139.744 77.7859 139.745C77.7736 139.746 77.7563 139.748 77.7347 139.75C77.6912 139.754 77.6297 139.76 77.5551 139.766C77.4066 139.778 77.2015 139.793 76.9786 139.804C76.7586 139.814 76.5051 139.821 76.2645 139.815C76.0579 139.809 75.7371 139.792 75.4469 139.707L75.4465 139.707C73.4896 139.13 72.7428 137.384 72.7008 135.805C72.6594 134.248 73.2528 132.544 74.3062 131.331L74.3071 131.329L113.683 86.0625C114.742 84.8426 116.394 84.0039 117.974 83.8078Z" fill="url(#paint1_linear_416_8008)"/>
<path d="M163.976 124.775L163.958 124.777L163.94 124.78L122.697 130.67L122.643 88.2609C122.644 88.2491 122.644 88.2333 122.644 88.2142C122.644 88.1716 122.644 88.1115 122.644 88.0387C122.643 87.894 122.64 87.6939 122.63 87.4771C122.621 87.2638 122.604 87.0152 122.573 86.779C122.547 86.5832 122.495 86.2489 122.356 85.9511C121.477 84.0572 119.562 83.6109 117.974 83.8078C116.394 84.0039 114.742 84.8426 113.683 86.0625L74.3071 131.329L74.3062 131.331C73.2528 132.544 72.6594 134.248 72.7008 135.805C72.7428 137.384 73.4896 139.13 75.4465 139.707L75.4469 139.707C75.7371 139.792 76.0579 139.809 76.2645 139.815C76.5051 139.821 76.7586 139.814 76.9786 139.804C77.2015 139.793 77.4066 139.778 77.5551 139.766C77.6297 139.76 77.6912 139.754 77.7347 139.75C77.7563 139.748 77.7736 139.746 77.7859 139.745C77.792 139.744 77.7971 139.744 77.8006 139.743C77.8023 139.743 77.8038 139.743 77.8049 139.743H77.8069L77.8073 139.743M163.976 124.775L164.126 126.084C163.981 124.822 163.976 124.777 163.976 124.775ZM163.976 124.775H163.977L163.977 124.775C163.977 124.775 163.978 124.775 163.979 124.775C163.98 124.775 163.982 124.774 163.984 124.774C163.988 124.774 163.994 124.773 164.002 124.772C164.017 124.771 164.038 124.768 164.065 124.765C164.119 124.759 164.197 124.752 164.29 124.743C164.476 124.725 164.733 124.703 165.009 124.685C165.283 124.668 165.592 124.655 165.88 124.658C166.125 124.661 166.5 124.674 166.825 124.77C168.821 125.358 169.492 127.151 169.468 128.725C169.444 130.274 168.792 131.953 167.759 133.143L128.455 178.409C127.468 179.546 126.074 180.447 124.644 180.676C123.913 180.793 123.12 180.739 122.383 180.382C121.631 180.018 121.05 179.392 120.675 178.566C120.59 178.378 120.547 178.161 120.533 178.095C120.508 177.974 120.482 177.831 120.457 177.684C120.408 177.387 120.355 177.025 120.306 176.68C120.258 176.334 120.214 175.996 120.181 175.746C120.165 175.621 120.152 175.517 120.143 175.445C120.138 175.408 120.134 175.38 120.132 175.36C120.131 175.351 120.13 175.343 120.129 175.338C120.129 175.335 120.129 175.333 120.128 175.332C120.128 175.331 120.128 175.331 120.128 175.33V175.33M120.128 175.33L121.436 175.167M120.128 175.33L120.118 175.25V175.169L120.066 133.708L77.8583 139.737L77.8328 139.74L77.8073 139.743M77.8073 139.743L77.672 138.432" stroke="white" stroke-width="0.228996" stroke-miterlimit="10"/>
</g>
<path d="M143.056 228.787C144.752 228.51 146.19 228.691 147.371 229.33C148.558 229.96 149.356 230.97 149.764 232.36C149.787 232.451 149.776 232.532 149.733 232.602C149.695 232.664 149.634 232.702 149.549 232.715L146.357 233.236C146.187 233.263 146.075 233.182 146.021 232.994C145.799 232.365 145.484 231.933 145.074 231.699C144.663 231.465 144.138 231.4 143.498 231.505C142.65 231.643 142.045 232.058 141.683 232.75C141.321 233.442 141.232 234.359 141.418 235.5C141.605 236.649 141.98 237.491 142.542 238.024C143.104 238.558 143.809 238.756 144.657 238.618C145.312 238.511 145.805 238.28 146.135 237.926C146.472 237.562 146.661 237.049 146.703 236.385C146.697 236.196 146.774 236.088 146.936 236.062L150.14 235.54C150.225 235.526 150.298 235.538 150.359 235.576C150.421 235.613 150.454 235.671 150.459 235.749C150.483 237.115 150.087 238.279 149.271 239.244C148.461 240.199 147.289 240.853 145.755 241.205L145.861 241.853C146.544 241.774 147.091 241.874 147.501 242.156C147.911 242.437 148.161 242.852 148.25 243.399C148.477 244.795 147.669 245.643 145.827 245.943L144.045 246.233C143.86 246.263 143.753 246.19 143.724 246.012L143.54 244.879C143.511 244.702 143.589 244.598 143.774 244.568L145.104 244.351C145.467 244.292 145.73 244.209 145.895 244.103C146.067 243.996 146.135 243.831 146.099 243.607C146.061 243.376 145.951 243.232 145.767 243.174C145.585 243.125 145.301 243.132 144.916 243.195L144.442 243.272C144.357 243.285 144.283 243.27 144.22 243.225C144.159 243.187 144.122 243.13 144.109 243.053L143.851 241.468C142.149 241.516 140.735 241.07 139.608 240.129C138.489 239.187 137.789 237.857 137.509 236.137C137.2 234.24 137.55 232.624 138.559 231.288C139.575 229.943 141.074 229.109 143.056 228.787Z" fill="white"/>
<path fill-rule="evenodd" clip-rule="evenodd" d="M126.789 230.077C127.554 230.064 128.272 230.228 128.942 230.569C129.611 230.902 130.15 231.365 130.558 231.96L130.687 231.958L130.663 230.494C130.66 230.299 130.752 230.199 130.94 230.196L134.279 230.142C134.467 230.138 134.562 230.235 134.565 230.43L134.718 239.792L135.855 239.773C136.027 239.771 136.114 239.863 136.117 240.05L136.152 242.159C136.155 242.355 136.071 242.454 135.899 242.456L132.97 242.505C131.689 242.526 131.039 242.001 131.022 240.931L131.02 240.813L130.903 240.815C130.553 241.407 130.025 241.881 129.32 242.236C128.615 242.591 127.841 242.776 126.997 242.79C125.396 242.816 124.125 242.27 123.184 241.153C122.244 240.035 121.758 238.492 121.726 236.524C121.693 234.524 122.121 232.958 123.008 231.826C123.896 230.686 125.156 230.103 126.789 230.077ZM128.277 232.912C127.449 232.926 126.806 233.245 126.347 233.87C125.888 234.486 125.668 235.349 125.686 236.459C125.705 237.584 125.949 238.447 126.42 239.049C126.899 239.643 127.556 239.933 128.391 239.919C129.219 239.905 129.847 239.594 130.275 238.986C130.71 238.377 130.919 237.506 130.9 236.373C130.882 235.264 130.642 234.409 130.179 233.807C129.723 233.197 129.089 232.899 128.277 232.912Z" fill="white"/>
<path d="M101.018 227.218C101.051 227.025 101.163 226.945 101.356 226.978L104.452 227.503C104.637 227.534 104.713 227.646 104.681 227.839L104.436 229.283L104.54 229.301C105.586 228.179 106.922 227.755 108.547 228.031C110.21 228.313 111.27 229.142 111.726 230.519L111.842 230.539C113.049 229.444 114.547 229.048 116.334 229.351C117.713 229.585 118.681 230.209 119.238 231.222C119.804 232.23 119.939 233.604 119.644 235.344L118.498 242.103C118.466 242.296 118.357 242.377 118.172 242.345L114.879 241.787C114.694 241.756 114.618 241.644 114.651 241.451L115.797 234.692C115.936 233.868 115.878 233.232 115.621 232.784C115.364 232.337 114.897 232.055 114.219 231.94C112.91 231.718 112.118 232.412 111.845 234.022L110.699 240.781C110.667 240.974 110.554 241.054 110.361 241.021L107.069 240.463C106.884 240.431 106.808 240.319 106.84 240.127L107.986 233.368C108.126 232.544 108.072 231.908 107.822 231.462C107.573 231.015 107.11 230.735 106.432 230.62C105.754 230.505 105.219 230.62 104.828 230.966C104.438 231.304 104.173 231.881 104.035 232.698L102.889 239.457C102.856 239.649 102.751 239.731 102.574 239.701L99.2931 239.144C99.1005 239.112 99.0204 238.999 99.0531 238.806L101.018 227.218Z" fill="white"/>
<path fill-rule="evenodd" clip-rule="evenodd" d="M162.077 223.93C162.256 223.873 162.375 223.937 162.434 224.123L165.281 233.044L166.364 232.698C166.527 232.646 166.638 232.709 166.695 232.888L167.336 234.897C167.395 235.083 167.343 235.202 167.18 235.255L164.389 236.145C163.168 236.535 162.395 236.22 162.069 235.2L162.034 235.089L161.922 235.124C161.758 235.792 161.389 236.397 160.817 236.941C160.244 237.484 159.556 237.884 158.752 238.141C157.226 238.628 155.852 238.472 154.629 237.673C153.407 236.874 152.496 235.537 151.898 233.661C151.29 231.756 151.247 230.133 151.771 228.793C152.292 227.446 153.331 226.524 154.886 226.028C155.616 225.795 156.35 225.745 157.09 225.878C157.827 226.004 158.477 226.293 159.039 226.745L159.162 226.705L158.717 225.31C158.657 225.124 158.717 225.002 158.895 224.945L162.077 223.93ZM159.208 228.622C158.596 228.169 157.903 228.067 157.129 228.314C156.34 228.565 155.816 229.057 155.557 229.787C155.296 230.51 155.334 231.4 155.671 232.457C156.013 233.529 156.496 234.285 157.12 234.725C157.75 235.156 158.463 235.244 159.259 234.99C160.048 234.738 160.56 234.259 160.794 233.553C161.035 232.845 160.983 231.951 160.639 230.872C160.302 229.815 159.825 229.065 159.208 228.622Z" fill="white"/>
<path d="M92.6136 225.295C93.4562 224.881 94.4694 224.875 95.6527 225.277L99.4247 226.561C99.5948 226.619 99.6482 226.74 99.5853 226.925L98.7963 229.244C98.7409 229.406 98.6282 229.459 98.4581 229.401L94.7084 228.125L91.7938 236.689C91.7309 236.874 91.6181 236.939 91.4554 236.884L88.2714 235.8C88.1087 235.745 88.0588 235.625 88.1217 235.44L90.757 227.696C91.1596 226.513 91.7785 225.713 92.6136 225.295Z" fill="white"/>
<path fill-rule="evenodd" clip-rule="evenodd" d="M79.632 219.949C81.218 219.431 82.9082 219.604 84.7023 220.47C86.4964 221.336 87.6839 222.552 88.2648 224.116C88.8491 225.673 88.7235 227.317 87.8881 229.048C87.0526 230.779 85.8419 231.903 84.2557 232.422C82.6696 232.94 80.9795 232.766 79.1854 231.9C77.3913 231.034 76.2038 229.819 75.6229 228.255C75.0491 226.694 75.1799 225.048 76.0153 223.317C76.8507 221.587 78.0563 220.464 79.632 219.949ZM83.5153 222.93C82.7554 222.563 82.0356 222.562 81.3558 222.928C80.6795 223.287 80.0884 223.991 79.5824 225.039C79.073 226.094 78.8847 226.997 79.0175 227.746C79.1606 228.492 79.6156 229.05 80.3825 229.42C81.1423 229.787 81.8589 229.794 82.5319 229.443C83.2152 229.087 83.8115 228.381 84.3209 227.326C84.8269 226.278 85.0066 225.375 84.8597 224.619C84.7233 223.86 84.2751 223.296 83.5153 222.93Z" fill="white"/>
<path fill-rule="evenodd" clip-rule="evenodd" d="M170.011 220.137C171.798 219.256 173.487 219.069 175.077 219.575C176.664 220.074 177.882 221.185 178.731 222.909C179.58 224.633 179.72 226.28 179.152 227.849C178.583 229.417 177.405 230.642 175.618 231.522C173.831 232.402 172.142 232.59 170.552 232.084C168.969 231.575 167.753 230.458 166.904 228.734C166.055 227.01 165.913 225.369 166.477 223.81C167.046 222.241 168.224 221.017 170.011 220.137ZM173.377 222.568C172.694 222.207 171.974 222.213 171.217 222.586C170.46 222.959 170.017 223.526 169.886 224.287C169.753 225.04 169.943 225.94 170.457 226.984C170.975 228.035 171.57 228.739 172.242 229.096C172.918 229.443 173.638 229.428 174.401 229.051C175.158 228.679 175.606 228.119 175.743 227.372C175.884 226.615 175.695 225.71 175.177 224.659C174.663 223.615 174.063 222.918 173.377 222.568Z" fill="white"/>
<path d="M75.3629 210.989C76.2805 210.789 77.2652 211.027 78.317 211.703L80.6837 213.222C80.8415 213.323 80.8676 213.456 80.7621 213.621L79.6222 215.396C79.5167 215.56 79.3852 215.591 79.2274 215.49L76.8805 213.983L75.557 216.044L77.9237 217.564C77.996 217.61 78.0371 217.669 78.047 217.74C78.0635 217.816 78.0506 217.887 78.0084 217.952L76.8624 219.737C76.7611 219.895 76.6315 219.923 76.4738 219.822L74.1071 218.302L69.1556 226.014C69.0501 226.178 68.925 226.214 68.7804 226.121L65.9701 224.316C65.8057 224.211 65.7762 224.076 65.8817 223.911L70.8334 216.2L69.226 215.168C69.0616 215.063 69.0302 214.931 69.1315 214.773L70.2775 212.988C70.3788 212.831 70.5116 212.804 70.6759 212.91L72.2833 213.942L72.9735 212.867C73.6489 211.815 74.4454 211.189 75.3629 210.989Z" fill="white"/>
<path d="M183.712 206.335C185.184 205.199 186.623 204.666 188.029 204.735C189.435 204.805 190.62 205.465 191.584 206.714C192.305 207.648 192.733 208.669 192.868 209.778C193.01 210.883 192.892 212.36 192.515 214.211L191.878 217.471L191.949 217.564L197.172 213.533C197.327 213.413 197.461 213.428 197.576 213.576L199.101 215.552C199.22 215.707 199.203 215.844 199.048 215.963L189.075 223.66C188.92 223.779 188.784 223.762 188.664 223.607L187.512 222.114C187.421 221.996 187.392 221.875 187.424 221.751L188.978 214.616C189.264 213.221 189.368 212.11 189.291 211.281C189.209 210.446 188.925 209.713 188.438 209.082C187.598 207.994 186.634 207.87 185.545 208.71C184.92 209.192 184.569 209.715 184.491 210.278C184.408 210.836 184.592 211.483 185.043 212.221C185.144 212.39 185.12 212.532 184.971 212.646L182.309 214.701C182.167 214.811 182.045 214.781 181.944 214.612C180.985 213.152 180.659 211.701 180.968 210.259C181.276 208.817 182.191 207.509 183.712 206.335Z" fill="white"/>
<path d="M60.1256 204.391C60.2501 204.24 60.3877 204.227 60.5382 204.351L62.9579 206.353C63.1024 206.473 63.1124 206.608 62.9879 206.758L62.0541 207.887L62.1354 207.954C63.6423 207.518 65.0398 207.832 66.328 208.898C67.4356 209.814 67.981 210.859 67.9642 212.031C67.9534 213.209 67.3727 214.492 66.2223 215.883L61.8971 221.111C61.7726 221.261 61.6352 221.275 61.4847 221.15L58.9205 219.028C58.7701 218.904 58.757 218.767 58.8815 218.616L63.2067 213.388C63.7594 212.72 64.0382 212.119 64.0433 211.586C64.0484 211.053 63.7741 210.557 63.2203 210.099C62.6666 209.641 62.1197 209.462 61.58 209.563C61.0451 209.658 60.5037 210.037 59.9559 210.699L55.631 215.927C55.5065 216.077 55.3749 216.095 55.2365 215.981L52.6722 213.859C52.5218 213.735 52.5087 213.597 52.6332 213.447L60.1256 204.391Z" fill="white"/>
<path fill-rule="evenodd" clip-rule="evenodd" d="M194.222 196.816C195.881 195.084 197.654 194.277 199.541 194.397C201.428 194.516 203.395 195.557 205.443 197.519C207.485 199.475 208.607 201.398 208.808 203.289C209.009 205.169 208.283 206.972 206.629 208.699C204.97 210.431 203.195 211.24 201.302 211.126C199.416 211.007 197.448 209.966 195.4 208.005C193.352 206.043 192.228 204.122 192.027 202.242C191.826 200.362 192.558 198.554 194.222 196.816ZM199.065 198.079C198.087 197.846 197.212 198.133 196.44 198.939C195.651 199.763 195.393 200.653 195.668 201.608C195.937 202.558 196.783 203.714 198.205 205.076C199.626 206.438 200.821 207.236 201.787 207.469C202.748 207.697 203.623 207.399 204.412 206.575C205.184 205.768 205.433 204.882 205.158 203.915C204.883 202.948 204.043 201.792 202.639 200.447C201.234 199.101 200.042 198.312 199.065 198.079Z" fill="white"/>
<path d="M58.538 196.551C58.6779 196.415 58.8158 196.417 58.952 196.557L61.347 199.018C61.4668 199.141 61.4567 199.27 61.3168 199.407L49.6942 210.719C49.5543 210.855 49.4242 210.862 49.3043 210.738L46.9095 208.278C46.7734 208.138 46.7752 208 46.9152 207.863L58.538 196.551Z" fill="white"/>
<path d="M206.677 183.387C208.041 183.038 209.368 183.319 210.658 184.227C211.622 184.907 212.333 185.756 212.79 186.776C213.251 187.789 213.575 189.236 213.761 191.116L214.114 194.418L214.21 194.486L218.01 189.092C218.123 188.933 218.256 188.907 218.409 189.015L220.449 190.452C220.609 190.565 220.633 190.701 220.52 190.861L213.265 201.159C213.152 201.319 213.016 201.342 212.856 201.23L211.314 200.143C211.193 200.058 211.129 199.951 211.124 199.823L210.502 192.547C210.363 191.13 210.134 190.037 209.816 189.268C209.491 188.495 209.003 187.878 208.351 187.419C207.227 186.627 206.269 186.793 205.477 187.917C205.023 188.562 204.842 189.166 204.933 189.727C205.019 190.285 205.386 190.849 206.034 191.42C206.18 191.552 206.199 191.695 206.091 191.848L204.154 194.597C204.051 194.744 203.926 194.752 203.78 194.62C202.432 193.508 201.693 192.218 201.561 190.749C201.43 189.281 201.918 187.761 203.025 186.19C204.096 184.67 205.313 183.735 206.677 183.387Z" fill="white"/>
<path fill-rule="evenodd" clip-rule="evenodd" d="M38.2357 186.831C39.8296 185.716 41.4398 185.319 43.066 185.64C44.6922 185.961 46.0831 186.947 47.2386 188.598C48.3719 190.218 48.7966 191.799 48.5128 193.342C48.2335 194.891 47.2776 196.237 45.6454 197.379L45.0983 197.762C44.9574 197.861 44.8332 197.833 44.7257 197.68L39.7809 190.613C39.0806 191.179 38.664 191.79 38.5314 192.445C38.4097 193.103 38.584 193.768 39.0543 194.44C39.7665 195.457 40.5736 195.827 41.4755 195.549C41.6348 195.504 41.7592 195.546 41.8488 195.674L43.7098 198.333C43.7636 198.41 43.788 198.479 43.7828 198.54C43.7886 198.602 43.7604 198.651 43.6984 198.685C42.5533 199.229 41.3749 199.262 40.1635 198.784C38.9564 198.313 37.8469 197.354 36.8346 195.907C35.6656 194.236 35.2055 192.584 35.4547 190.951C35.7084 189.324 36.6355 187.951 38.2357 186.831ZM43.4447 189.022C42.8028 188.909 42.1095 189.069 41.3651 189.504L44.3011 193.7C44.9719 193.174 45.3753 192.605 45.5111 191.996C45.6578 191.388 45.5205 190.783 45.0995 190.181C44.6382 189.522 44.0866 189.135 43.4447 189.022Z" fill="white"/>
<path fill-rule="evenodd" clip-rule="evenodd" d="M31.2001 173.117C32.98 172.223 34.5779 171.931 35.9935 172.243C37.4092 172.554 38.4802 173.432 39.2064 174.877C39.5537 175.568 39.7194 176.29 39.7035 177.041C39.6981 177.795 39.5161 178.486 39.1576 179.112L39.2155 179.227L44.9428 176.349C45.1172 176.261 45.2432 176.294 45.3204 176.447L46.8202 179.431C46.9044 179.599 46.8593 179.726 46.6849 179.814L31.7643 187.314C31.5898 187.401 31.4603 187.361 31.3761 187.194L29.9606 184.377C29.8764 184.21 29.9216 184.082 30.0961 183.994L31.3734 183.352L31.3312 183.268C30.6428 183.204 29.9854 182.931 29.359 182.45C28.7326 181.969 28.2282 181.348 27.8458 180.587C27.1301 179.163 27.0696 177.782 27.6642 176.442C28.2623 175.11 29.441 174.001 31.2001 173.117ZM35.6034 176.137C34.8519 175.999 33.9806 176.179 32.9894 176.677C31.9842 177.183 31.3127 177.778 30.9752 178.464C30.6448 179.146 30.6691 179.863 31.048 180.617C31.4164 181.35 31.9692 181.781 32.7067 181.908C33.4511 182.033 34.326 181.842 35.3312 181.337C36.3224 180.839 36.9885 180.25 37.3295 179.572C37.6809 178.897 37.6743 178.196 37.3095 177.47C36.9341 176.723 36.3653 176.279 35.6034 176.137Z" fill="white"/>
<path fill-rule="evenodd" clip-rule="evenodd" d="M211.661 171.894C211.742 171.891 211.806 171.937 211.855 172.031L215.01 177.674L215.104 177.643C215.123 177.066 215.266 176.513 215.533 175.983C216.306 174.447 217.396 173.448 218.802 172.984C220.2 172.516 221.671 172.67 223.213 173.447C224.867 174.279 225.885 175.461 226.269 176.993C226.656 178.517 226.37 180.232 225.411 182.137C224.444 184.056 223.234 185.314 221.779 185.911C220.324 186.507 218.769 186.389 217.115 185.557C215.497 184.742 214.11 183.274 212.956 181.153L209.853 175.642C209.791 175.505 209.79 175.378 209.849 175.259L211.478 172.025C211.523 171.934 211.585 171.891 211.661 171.894ZM221.442 176.964C220.619 176.549 219.87 176.447 219.195 176.658C218.52 176.87 217.979 177.38 217.571 178.189C217.167 178.992 217.079 179.731 217.308 180.405C217.537 181.08 218.063 181.625 218.886 182.04C219.709 182.455 220.455 182.555 221.123 182.34C221.784 182.122 222.32 181.604 222.731 180.788C223.139 179.978 223.233 179.243 223.015 178.582C222.79 177.918 222.266 177.378 221.442 176.964Z" fill="white"/>
<path d="M222.459 85.3996C223.547 84.924 224.591 84.9621 225.591 85.5141C226.594 86.0732 227.415 87.083 228.053 88.5434C228.632 89.8677 228.82 91.0686 228.617 92.1462C228.422 93.2206 227.806 94.0741 226.769 94.7062C226.685 94.7683 226.607 94.7852 226.536 94.757C226.467 94.736 226.415 94.6861 226.38 94.6074L225.212 91.9335C225.143 91.7761 225.18 91.6364 225.323 91.5143C225.679 91.2564 225.888 90.9732 225.949 90.665C226.018 90.3537 225.957 89.9796 225.766 89.5429C225.572 89.0991 225.334 88.7983 225.051 88.6403C224.772 88.4895 224.468 88.4859 224.139 88.6298C223.831 88.7643 223.638 88.9765 223.56 89.2663C223.493 89.5602 223.534 90.0067 223.685 90.6056L224.096 92.3063C224.418 93.5894 224.432 94.5977 224.139 95.3312C223.849 96.0719 223.203 96.6613 222.201 97.0993C221.005 97.6218 219.924 97.5957 218.956 97.0209C217.992 96.4533 217.169 95.3891 216.487 93.8285C215.817 92.2966 215.594 90.9574 215.818 89.811C216.049 88.6614 216.714 87.7651 217.815 87.1222C217.897 87.0776 217.973 87.0658 218.042 87.0868C218.118 87.1048 218.173 87.1532 218.208 87.2319L219.381 89.9164C219.447 90.0667 219.41 90.1977 219.271 90.3095C218.836 90.6193 218.586 90.9755 218.524 91.3781C218.464 91.7878 218.554 92.2683 218.795 92.8195C218.996 93.2777 219.248 93.6022 219.553 93.7929C219.869 93.9876 220.18 94.0175 220.488 93.883C220.81 93.7422 221.001 93.5352 221.061 93.2619C221.127 92.9855 221.093 92.5742 220.956 92.0285L220.566 90.3449C220.25 89.0761 220.233 88.0431 220.516 87.246C220.809 86.453 221.456 85.8376 222.459 85.3996Z" fill="white"/>
<path d="M25.6725 81.853C26.9542 81.1486 28.3705 81.0162 29.9215 81.4557C30.0101 81.4875 30.0716 81.5412 30.1058 81.6169C30.1361 81.6821 30.1333 81.7538 30.0978 81.832L28.7052 84.8935C28.6373 85.0428 28.5061 85.0948 28.3121 85.0495C27.6075 84.9006 27.0137 84.9607 26.5306 85.2302C26.0476 85.4996 25.6442 85.99 25.3207 86.7011C25.0069 87.3909 24.9097 87.9817 25.0292 88.4738C25.1519 88.9588 25.4834 89.3241 26.0238 89.57C26.5144 89.7932 26.9796 89.799 27.4193 89.5871C27.8591 89.3752 28.3116 88.9372 28.7767 88.2734L29.879 86.5861C30.8862 85.0703 31.8985 84.119 32.9157 83.7321C33.9328 83.3452 35.1204 83.4606 36.4786 84.0785C37.9151 84.7321 38.8084 85.7779 39.1583 87.216C39.5082 88.6541 39.2674 90.2869 38.4359 92.1144C37.5786 93.9988 36.4749 95.3119 35.1246 96.0536C33.7776 96.7883 32.2835 96.9026 30.6427 96.3964C30.4411 96.3304 30.3856 96.1978 30.4762 95.9987L31.8641 92.9482C31.9256 92.8131 32.0336 92.7548 32.1881 92.7736C33.0066 92.9743 33.6987 92.9244 34.2645 92.624C34.8336 92.3164 35.3074 91.7467 35.6859 90.9147C36.0127 90.1965 36.1118 89.5635 35.9833 89.0158C35.8548 88.4681 35.5133 88.0682 34.9586 87.8158C34.468 87.5926 34.0271 87.5808 33.6359 87.7804C33.2408 87.9698 32.8161 88.4031 32.3619 89.0805L31.2374 90.7319C30.2703 92.1973 29.2422 93.1458 28.1532 93.5773C27.0571 94.0056 25.869 93.9285 24.589 93.3461C23.1384 92.6861 22.2323 91.6688 21.8707 90.2941C21.5124 88.9123 21.7424 87.3218 22.5609 85.5226C23.3536 83.7804 24.3908 82.5573 25.6725 81.853Z" fill="white"/>
<path fill-rule="evenodd" clip-rule="evenodd" d="M211.842 72.4936C213.546 71.4467 215.112 71.0169 216.538 71.2043C217.971 71.3876 219.115 72.1749 219.969 73.5661C220.37 74.2184 220.594 74.9195 220.642 75.6694C220.697 76.4151 220.573 77.1151 220.269 77.7695L220.336 77.8793L221.584 77.1125C221.751 77.0102 221.883 77.0391 221.981 77.1989L223.729 80.0446C223.827 80.2044 223.793 80.3354 223.627 80.4377L215.649 85.3388L216.244 86.3073C216.334 86.4537 216.299 86.5761 216.139 86.6742L214.342 87.7785C214.176 87.8807 214.047 87.8585 213.957 87.7121L212.424 85.2158C211.753 84.1241 211.874 83.2982 212.786 82.738L212.886 82.6767L212.824 82.5768C212.137 82.5773 211.461 82.3645 210.796 81.9387C210.131 81.5128 209.577 80.9405 209.136 80.2216C208.297 78.857 208.12 77.4855 208.602 76.1071C209.085 74.7287 210.165 73.5241 211.842 72.4936ZM216.48 75.1181C215.716 75.0377 214.861 75.2877 213.916 75.8683C212.957 76.4572 212.339 77.1076 212.061 77.8193C211.794 78.5336 211.879 79.2469 212.317 79.9592C212.75 80.6647 213.337 81.0465 214.079 81.1044C214.825 81.169 215.68 80.9047 216.645 80.3117C217.591 79.731 218.204 79.0882 218.486 78.3832C218.779 77.6807 218.713 76.9832 218.287 76.2909C217.854 75.5853 217.252 75.1944 216.48 75.1181Z" fill="white"/>
<path fill-rule="evenodd" clip-rule="evenodd" d="M38.4584 69.8132C39.9989 69.488 41.6057 69.8661 43.2787 70.9477L43.8397 71.3102C43.9841 71.4035 44.0052 71.529 43.9034 71.6865L39.2211 78.9299C40.0095 79.3651 40.7323 79.5205 41.3893 79.3964C42.0439 79.2615 42.5939 78.8496 43.0392 78.1608C43.7136 77.1176 43.752 76.2307 43.1544 75.5002C43.0529 75.3694 43.0447 75.2385 43.1295 75.1074L44.8917 72.3813C44.9426 72.3025 44.9973 72.2539 45.0555 72.2358C45.1114 72.2069 45.1668 72.2148 45.2216 72.2595C46.1568 73.1152 46.6313 74.1941 46.6454 75.4963C46.6637 76.7919 46.1938 78.1812 45.2352 79.664C44.1282 81.3764 42.7712 82.4249 41.1644 82.8095C39.5619 83.1875 37.9404 82.8464 36.3002 81.7861C34.6665 80.73 33.6919 79.3882 33.3763 77.7609C33.0608 76.1336 33.4503 74.4737 34.5446 72.7809C35.6176 71.121 36.9221 70.1318 38.4584 69.8132ZM40.3773 73.5793C39.6368 73.1564 38.9585 72.997 38.3424 73.101C37.724 73.1943 37.2152 73.5492 36.8165 74.1659C36.3797 74.8417 36.2297 75.4983 36.3666 76.1357C36.5034 76.773 36.9138 77.3545 37.5973 77.8801L40.3773 73.5793Z" fill="white"/>
<path d="M201.581 52.1379C201.725 52.0068 201.863 52.0136 201.995 52.1584L204.102 54.4867C204.228 54.6257 204.219 54.7607 204.074 54.8918L202.988 55.8749L203.059 55.9531C204.575 55.7187 205.886 56.2127 206.992 57.4347C208.125 58.6857 208.444 59.9931 207.951 61.3569L208.029 61.4438C209.655 61.3311 211.077 61.9465 212.293 63.2902C213.232 64.3269 213.606 65.4158 213.417 66.5568C213.238 67.6984 212.494 68.8619 211.185 70.0468L206.103 74.6476C205.958 74.7786 205.823 74.7747 205.697 74.6357L203.456 72.1596C203.33 72.0206 203.339 71.8856 203.484 71.7546L208.567 67.1537C209.186 66.5928 209.534 66.0569 209.609 65.5463C209.684 65.0357 209.491 64.5254 209.03 64.0158C208.138 63.0312 207.087 63.0867 205.877 64.1825L200.795 68.7834C200.65 68.9144 200.512 68.9076 200.381 68.7629L198.139 66.2868C198.013 66.1478 198.023 66.0128 198.168 65.8818L203.25 61.2809C203.87 60.7199 204.22 60.1869 204.3 59.6821C204.381 59.1772 204.19 58.6698 203.729 58.1601C203.267 57.6504 202.776 57.4105 202.255 57.4399C201.739 57.4641 201.174 57.754 200.56 58.3097L195.478 62.9106C195.333 63.0417 195.201 63.0404 195.08 62.9072L192.846 60.4399C192.715 60.2951 192.722 60.1571 192.867 60.0261L201.581 52.1379Z" fill="white"/>
<path d="M50.8773 53.381C51.8342 52.3614 52.889 51.8995 54.0416 51.9955C55.194 52.0805 56.414 52.727 57.7015 53.9352L62.7006 58.6264C62.843 58.76 62.8499 58.8954 62.7216 59.0322L60.4362 61.4675C60.3079 61.6042 60.1726 61.6057 60.0302 61.4721L55.0311 56.7809C54.4216 56.2089 53.8592 55.9061 53.3441 55.8727C52.8291 55.8394 52.3363 56.0734 51.8658 56.5746C50.957 57.5431 51.0978 58.5862 52.2885 59.7035L57.2875 64.3947C57.4299 64.5284 57.4343 64.6663 57.3007 64.8088L55.0153 67.2441C54.887 67.3808 54.7517 67.3824 54.6093 67.2487L49.6102 62.5575C49.0007 61.9855 48.441 61.6801 47.9313 61.641C47.4215 61.602 46.9313 61.8331 46.4608 62.3344C45.9904 62.8357 45.7912 63.345 45.8629 63.8622C45.9289 64.3741 46.2637 64.9135 46.8676 65.4802L51.8666 70.1713C52.009 70.305 52.0188 70.4373 51.8959 70.5683L49.6185 72.9953C49.4849 73.1377 49.3466 73.1419 49.2042 73.0082L40.6334 64.9653C40.491 64.8316 40.4866 64.6936 40.6202 64.5512L42.7694 62.2609C42.8977 62.1243 43.033 62.1226 43.1754 62.2563L44.2435 63.2587L44.3158 63.1818C43.9589 61.6898 44.3443 60.3428 45.4723 59.1408C46.627 57.9103 47.9042 57.4855 49.3036 57.8666L49.3837 57.7812C49.139 56.1695 49.637 54.7027 50.8773 53.381Z" fill="white"/>
<path fill-rule="evenodd" clip-rule="evenodd" d="M189.426 43.8608C191.074 43.6797 192.696 44.2039 194.294 45.4333C195.86 46.6388 196.739 48.0201 196.931 49.5773C197.128 51.1393 196.62 52.7098 195.404 54.2885L194.997 54.8178C194.892 54.954 194.765 54.9649 194.617 54.8505L187.782 49.5898C187.283 50.3398 187.069 51.0474 187.139 51.7123C187.22 52.3759 187.585 52.9579 188.235 53.4582C189.22 54.2158 190.1 54.3268 190.877 53.7912C191.016 53.7007 191.147 53.7032 191.271 53.7985L193.843 55.7785C193.918 55.8357 193.962 55.894 193.975 55.9535C193.999 56.0116 193.987 56.0662 193.938 56.1171C193.008 56.979 191.894 57.3637 190.595 57.2709C189.302 57.1829 187.956 56.6003 186.557 55.5234C184.941 54.2797 184.008 52.8414 183.756 51.2084C183.511 49.5803 183.984 47.9923 185.175 46.4445C186.361 44.903 187.778 44.0418 189.426 43.8608ZM192.727 47.5842C192.089 47.0934 191.447 46.8899 190.801 46.9741C190.154 47.0582 189.541 47.4194 188.961 48.0575L193.019 51.1811C193.502 50.4777 193.716 49.8147 193.663 49.1921C193.621 48.5681 193.309 48.0321 192.727 47.5842Z" fill="white"/>
<path fill-rule="evenodd" clip-rule="evenodd" d="M66.6461 40.6193C66.7974 40.5085 66.9308 40.5318 67.0463 40.6894L72.5802 48.2424L73.4972 47.5705C73.6358 47.4689 73.7606 47.4937 73.8715 47.6449L75.118 49.3464C75.2335 49.5039 75.2218 49.6335 75.0831 49.735L72.7201 51.4667C71.6866 52.224 70.8534 52.1709 70.2208 51.3075L70.1515 51.2131L70.057 51.2822C70.1134 51.9672 69.9566 52.6587 69.5863 53.3561C69.216 54.0536 68.6905 54.6517 68.0099 55.1503C66.718 56.0969 65.3654 56.3857 63.9523 56.0168C62.5391 55.6478 61.2506 54.6693 60.087 53.0812C58.905 51.4679 58.3493 49.9428 58.42 48.506C58.4862 47.0629 59.1779 45.8588 60.495 44.8937C61.1126 44.4412 61.7931 44.1606 62.5365 44.0517C63.2753 43.9365 63.9833 44.0038 64.6603 44.2536L64.7643 44.1774L63.8983 42.9958C63.7829 42.8383 63.8009 42.704 63.952 42.5932L66.6461 40.6193ZM65.4169 45.9802C64.6929 45.7455 64.0032 45.8682 63.3478 46.3483C62.6798 46.8377 62.3389 47.47 62.3256 48.2448C62.3076 49.0134 62.6265 49.8453 63.2821 50.7402C63.947 51.6476 64.6456 52.211 65.3776 52.4301C66.1112 52.6383 66.8151 52.4952 67.4894 52.0012C68.1574 51.5117 68.4903 50.8951 68.4877 50.1513C68.4913 49.4029 68.1583 48.5718 67.4889 47.6581C66.8333 46.7633 66.1425 46.2039 65.4169 45.9802Z" fill="white"/>
<path d="M182.846 33.8342C182.938 33.6797 183.068 33.6524 183.236 33.7521L186.108 35.4572C186.255 35.5449 186.283 35.666 186.192 35.8205L184.468 38.7226L186.887 40.1584C187.048 40.2541 187.079 40.386 186.979 40.5539L185.902 42.3676C185.858 42.4415 185.799 42.4881 185.724 42.5073C185.649 42.5264 185.578 42.5159 185.511 42.476L183.092 41.0402L179.539 47.0256L181.937 48.4494C182.098 48.5451 182.131 48.6737 182.035 48.8349L180.958 50.6486C180.858 50.8165 180.728 50.8527 180.567 50.757L178.148 49.321C177.074 48.6828 176.42 47.9087 176.188 46.9987C175.96 46.082 176.167 45.0829 176.809 44.0014L179.747 39.0539L178.105 38.0785C177.937 37.9788 177.903 37.8451 178.002 37.6772L179.079 35.8635C179.179 35.6955 179.313 35.6614 179.481 35.7612L181.123 36.7363L182.846 33.8342Z" fill="white"/>
<path d="M77.3597 34.3185C78.6319 33.6493 79.8058 33.5483 80.8812 34.0153C81.9636 34.4787 82.9251 35.509 83.7653 37.1061L86.9242 43.111C87.0151 43.2838 86.9742 43.4158 86.8014 43.5068L83.8558 45.0561C83.683 45.147 83.551 45.1061 83.4601 44.9333L80.3012 38.9284C79.8974 38.1609 79.4504 37.6721 78.9603 37.4621C78.4703 37.2521 77.9072 37.3145 77.2711 37.6491C76.6351 37.9837 76.2596 38.4195 76.1449 38.9565C76.0265 39.4866 76.1674 40.132 76.5675 40.8925L79.7267 46.8974C79.8176 47.0702 79.7834 47.1985 79.6244 47.2822L76.6791 48.8317C76.5062 48.9226 76.3743 48.8817 76.2833 48.7089L70.8109 38.3066C70.72 38.1337 70.7611 38.0017 70.934 37.9108L73.7133 36.4487C73.8792 36.3614 74.0078 36.4042 74.0988 36.5771L74.7806 37.8735L74.8739 37.8244C75.0514 36.2656 75.8801 35.0969 77.3597 34.3185Z" fill="white"/>
<path d="M168.402 31.5492C169.522 31.2912 170.808 31.4896 172.26 32.1447C173.578 32.7388 174.523 33.5037 175.095 34.4389C175.671 35.3669 175.786 36.4129 175.441 37.5771C175.421 37.6793 175.374 37.7443 175.302 37.7717C175.237 37.8022 175.165 37.7996 175.087 37.7643L172.427 36.5649C172.27 36.4942 172.204 36.3658 172.228 36.1796C172.319 35.7494 172.284 35.3993 172.123 35.1296C171.965 34.8527 171.669 34.6162 171.234 34.4203C170.793 34.2212 170.414 34.1576 170.099 34.2297C169.791 34.3049 169.563 34.5064 169.415 34.8339C169.277 35.1402 169.276 35.427 169.413 35.6943C169.56 35.9576 169.89 36.2609 170.404 36.6039L171.849 37.5898C172.948 38.3255 173.635 39.0638 173.91 39.8046C174.191 40.5486 174.107 41.4191 173.658 42.4162C173.121 43.6055 172.302 44.3116 171.199 44.5341C170.103 44.7598 168.778 44.5225 167.226 43.8224C165.702 43.1352 164.638 42.2913 164.035 41.2909C163.435 40.2834 163.328 39.1722 163.713 37.9574C163.744 37.8688 163.793 37.8091 163.858 37.7785C163.926 37.7409 164 37.7398 164.078 37.7751L166.749 38.9794C166.898 39.0469 166.959 39.1685 166.931 39.3444C166.816 39.8665 166.87 40.2979 167.093 40.6386C167.324 40.9825 167.713 41.2783 168.262 41.5256C168.717 41.7311 169.122 41.8023 169.476 41.7392C169.841 41.6722 170.092 41.4855 170.23 41.1794C170.375 40.8589 170.377 40.5771 170.238 40.3344C170.102 40.0846 169.801 39.8029 169.334 39.4894L167.915 38.5026C166.83 37.7733 166.125 37.0182 165.8 36.2375C165.485 35.4528 165.553 34.5619 166.002 33.5649C166.49 32.4824 167.291 31.8106 168.402 31.5492Z" fill="white"/>
<path fill-rule="evenodd" clip-rule="evenodd" d="M96.1649 26.986C96.3419 26.9243 96.4627 26.9857 96.527 27.1701L99.6085 36.0119L100.682 35.6376C100.844 35.5811 100.956 35.6415 101.018 35.8185L101.712 37.8102C101.777 37.9947 101.727 38.1152 101.565 38.1718L98.7987 39.1359C97.5889 39.5576 96.8077 39.2632 96.4554 38.2526L96.4169 38.1418L96.3063 38.1803C96.1598 38.8519 95.8073 39.467 95.2491 40.0256C94.6909 40.5841 94.0134 41.0023 93.2167 41.28C91.7044 41.807 90.3267 41.6875 89.0834 40.9213C87.84 40.155 86.8944 38.8422 86.2465 36.9831C85.5883 35.0945 85.503 33.4737 85.9911 32.1205C86.4766 30.76 87.4903 29.811 89.0321 29.2736C89.7551 29.0216 90.4881 28.9522 91.2308 29.0656C91.971 29.1717 92.6283 29.4431 93.2025 29.8801L93.3241 29.8378L92.8419 28.4545C92.7777 28.2701 92.8341 28.1471 93.0111 28.0854L96.1649 26.986ZM93.4205 31.7526C92.7969 31.3164 92.1016 31.2318 91.3344 31.4992C90.5524 31.7717 90.0416 32.2766 89.8021 33.0136C89.56 33.7433 89.6216 34.632 89.9867 35.6796C90.3569 36.7419 90.8599 37.4849 91.4957 37.9086C92.1363 38.3224 92.8514 38.3917 93.6407 38.1166C94.4227 37.8441 94.9212 37.3518 95.1364 36.6398C95.3589 35.9252 95.2838 35.033 94.911 33.9633C94.5459 32.9157 94.049 32.1789 93.4205 31.7526Z" fill="white"/>
<path d="M160.548 27.9933C160.611 27.8084 160.735 27.7474 160.92 27.8102L164.071 28.8813C164.241 28.9391 164.294 29.0604 164.232 29.2453L160.449 40.374C160.386 40.5589 160.27 40.6225 160.099 40.5646L156.949 39.4936C156.764 39.4307 156.703 39.3067 156.766 39.1218L160.548 27.9933Z" fill="white"/>
<path d="M146.694 21.0449C147.971 20.4058 149.574 20.2986 151.505 20.7233C153.374 21.1347 154.787 21.8935 155.743 22.9999C156.7 24.1063 157.125 25.4639 157.019 27.0724C157.006 27.1656 156.967 27.2368 156.9 27.2861C156.842 27.3294 156.772 27.3419 156.688 27.3234L153.403 26.6008C153.243 26.5655 153.165 26.4483 153.169 26.2492C153.167 25.5289 152.984 24.9605 152.62 24.5444C152.255 24.1282 151.692 23.8363 150.929 23.6684C150.188 23.5055 149.59 23.5338 149.134 23.7533C148.685 23.9746 148.397 24.3754 148.27 24.9553C148.154 25.4817 148.246 25.9377 148.545 26.3234C148.844 26.7092 149.366 27.0604 150.113 27.3766L151.993 28.1022C153.686 28.7707 154.827 29.5619 155.418 30.4758C156.009 31.3897 156.144 32.5754 155.823 34.0326C155.484 35.5739 154.648 36.666 153.315 37.3085C151.982 37.9511 150.334 38.0564 148.373 37.6249C146.352 37.18 144.837 36.3747 143.829 35.2092C142.83 34.0452 142.406 32.6082 142.558 30.8979C142.581 30.6868 142.699 30.6048 142.912 30.6518L146.186 31.372C146.331 31.4039 146.41 31.4975 146.424 31.6525C146.399 32.4949 146.592 33.1614 147.004 33.652C147.423 34.1443 148.08 34.4886 148.972 34.685C149.743 34.8546 150.383 34.8193 150.891 34.5793C151.4 34.3393 151.72 33.9217 151.851 33.3266C151.967 32.8002 151.886 32.3665 151.609 32.0256C151.342 31.6787 150.829 31.3538 150.072 31.0512L148.222 30.2963C146.587 29.6566 145.445 28.8493 144.796 27.8744C144.148 26.892 143.975 25.7139 144.277 24.3405C144.62 22.7841 145.425 21.6856 146.694 21.0449Z" fill="white"/>
<path fill-rule="evenodd" clip-rule="evenodd" d="M117.96 17.986C118.146 17.962 118.251 18.047 118.276 18.2407L120.411 34.8029C120.436 34.9965 120.356 35.1053 120.17 35.1293L117.043 35.5324C116.857 35.5564 116.752 35.4715 116.727 35.2778L116.544 33.8598L116.451 33.8718C116.162 34.4998 115.687 35.0298 115.026 35.4616C114.364 35.8934 113.612 36.164 112.767 36.2729C111.186 36.4767 109.862 36.0761 108.796 35.0715C107.736 34.0658 107.081 32.5868 106.829 30.6342C106.575 28.6584 106.828 27.0541 107.591 25.8215C108.354 24.5888 109.537 23.8691 111.141 23.6623C111.908 23.5634 112.644 23.6459 113.347 23.9096C114.057 24.1646 114.649 24.5651 115.121 25.1108L115.249 25.0942L114.429 18.7367C114.404 18.5431 114.477 18.435 114.647 18.413L117.96 17.986ZM114.949 26.988C114.429 26.4328 113.765 26.2071 112.96 26.311C112.131 26.4178 111.523 26.8074 111.137 27.4794C110.758 28.1427 110.639 29.0244 110.781 30.1247C110.925 31.2404 111.264 32.0709 111.799 32.6164C112.333 33.1541 113.019 33.369 113.856 33.2612C114.669 33.1563 115.258 32.777 115.623 32.1235C115.987 31.4622 116.097 30.5736 115.953 29.4579C115.811 28.3577 115.476 27.5344 114.949 26.988Z" fill="white"/>
<path fill-rule="evenodd" clip-rule="evenodd" d="M128.836 22.5248C130.812 22.5543 132.343 23.1357 133.428 24.2692C134.52 25.4028 135.052 26.9657 135.022 28.9577L135.012 29.6254C135.01 29.7973 134.914 29.8819 134.727 29.8791L126.103 29.7504C126.152 30.6497 126.403 31.3449 126.857 31.8361C127.319 32.3196 127.959 32.5675 128.78 32.5798C130.022 32.5983 130.794 32.1605 131.097 31.2665C131.154 31.1111 131.26 31.0345 131.416 31.0368L134.662 31.0854C134.756 31.0868 134.826 31.1071 134.872 31.1469C134.926 31.179 134.949 31.2303 134.94 31.3005C134.71 32.5471 134.047 33.5216 132.951 34.2241C131.862 34.9266 130.435 35.2648 128.67 35.2385C126.631 35.208 125.022 34.6138 123.844 33.4555C122.674 32.2973 122.103 30.7416 122.132 28.7887C122.161 26.8437 122.782 25.3059 123.995 24.1755C125.207 23.045 126.821 22.4948 128.836 22.5248ZM128.867 25.1857C128.062 25.1737 127.426 25.3946 126.958 25.8486C126.49 26.3026 126.215 26.9588 126.132 27.8171L131.252 27.8935C131.218 27.0413 130.993 26.3817 130.578 25.9145C130.171 25.4396 129.601 25.1967 128.867 25.1857Z" fill="white"/>
<path d="M162.33 22.3857C162.385 22.223 162.502 22.1718 162.679 22.2321L166.064 23.3823C166.248 23.4451 166.313 23.5579 166.258 23.7206L165.168 26.9272C165.113 27.0899 164.993 27.1399 164.808 27.0771L161.424 25.9269C161.246 25.8666 161.185 25.7549 161.24 25.5922L162.33 22.3857Z" fill="white"/>
<defs>
<filter id="filter0_di_416_8008" x="86.8018" y="75.7275" width="94.925" height="97.3651" filterUnits="userSpaceOnUse" color-interpolation-filters="sRGB">
<feFlood flood-opacity="0" result="BackgroundImageFix"/>
<feColorMatrix in="SourceAlpha" type="matrix" values="0 0 0 0 0 0 0 0 0 0 0 0 0 0 0 0 0 0 127 0" result="hardAlpha"/>
<feOffset dy="0.5"/>
<feGaussianBlur stdDeviation="0.5"/>
<feComposite in2="hardAlpha" operator="out"/>
<feColorMatrix type="matrix" values="0 0 0 0 0 0 0 0 0 0 0 0 0 0 0 0 0 0 0.25 0"/>
<feBlend mode="normal" in2="BackgroundImageFix" result="effect1_dropShadow_416_8008"/>
<feBlend mode="normal" in="SourceGraphic" in2="effect1_dropShadow_416_8008" result="shape"/>
<feColorMatrix in="SourceAlpha" type="matrix" values="0 0 0 0 0 0 0 0 0 0 0 0 0 0 0 0 0 0 127 0" result="hardAlpha"/>
<feOffset/>
<feGaussianBlur stdDeviation="0.5"/>
<feComposite in2="hardAlpha" operator="arithmetic" k2="-1" k3="1"/>
<feColorMatrix type="matrix" values="0 0 0 0 1 0 0 0 0 1 0 0 0 0 1 0 0 0 1 0"/>
<feBlend mode="normal" in2="shape" result="effect2_innerShadow_416_8008"/>
</filter>
<filter id="filter1_di_416_8008" x="71.5842" y="95.6677" width="98.9988" height="99.1952" filterUnits="userSpaceOnUse" color-interpolation-filters="sRGB">
<feFlood flood-opacity="0" result="BackgroundImageFix"/>
<feColorMatrix in="SourceAlpha" type="matrix" values="0 0 0 0 0 0 0 0 0 0 0 0 0 0 0 0 0 0 127 0" result="hardAlpha"/>
<feOffset dy="0.5"/>
<feGaussianBlur stdDeviation="0.5"/>
<feComposite in2="hardAlpha" operator="out"/>
<feColorMatrix type="matrix" values="0 0 0 0 0 0 0 0 0 0 0 0 0 0 0 0 0 0 0.25 0"/>
<feBlend mode="normal" in2="BackgroundImageFix" result="effect1_dropShadow_416_8008"/>
<feBlend mode="normal" in="SourceGraphic" in2="effect1_dropShadow_416_8008" result="shape"/>
<feColorMatrix in="SourceAlpha" type="matrix" values="0 0 0 0 0 0 0 0 0 0 0 0 0 0 0 0 0 0 127 0" result="hardAlpha"/>
<feOffset/>
<feGaussianBlur stdDeviation="0.5"/>
<feComposite in2="hardAlpha" operator="arithmetic" k2="-1" k3="1"/>
<feColorMatrix type="matrix" values="0 0 0 0 1 0 0 0 0 1 0 0 0 0 1 0 0 0 1 0"/>
<feBlend mode="normal" in2="shape" result="effect2_innerShadow_416_8008"/>
</filter>
<filter id="filter2_dii_416_8008" x="71.5842" y="83.1508" width="98.9988" height="99.1952" filterUnits="userSpaceOnUse" color-interpolation-filters="sRGB">
<feFlood flood-opacity="0" result="BackgroundImageFix"/>
<feColorMatrix in="SourceAlpha" type="matrix" values="0 0 0 0 0 0 0 0 0 0 0 0 0 0 0 0 0 0 127 0" result="hardAlpha"/>
<feOffset dy="0.5"/>
<feGaussianBlur stdDeviation="0.5"/>
<feComposite in2="hardAlpha" operator="out"/>
<feColorMatrix type="matrix" values="0 0 0 0 0 0 0 0 0 0 0 0 0 0 0 0 0 0 0.5 0"/>
<feBlend mode="normal" in2="BackgroundImageFix" result="effect1_dropShadow_416_8008"/>
<feBlend mode="normal" in="SourceGraphic" in2="effect1_dropShadow_416_8008" result="shape"/>
<feColorMatrix in="SourceAlpha" type="matrix" values="0 0 0 0 0 0 0 0 0 0 0 0 0 0 0 0 0 0 127 0" result="hardAlpha"/>
<feOffset/>
<feGaussianBlur stdDeviation="6"/>
<feComposite in2="hardAlpha" operator="arithmetic" k2="-1" k3="1"/>
<feColorMatrix type="matrix" values="0 0 0 0 1 0 0 0 0 1 0 0 0 0 1 0 0 0 0.5 0"/>
<feBlend mode="normal" in2="shape" result="effect2_innerShadow_416_8008"/>
<feColorMatrix in="SourceAlpha" type="matrix" values="0 0 0 0 0 0 0 0 0 0 0 0 0 0 0 0 0 0 127 0" result="hardAlpha"/>
<feOffset/>
<feGaussianBlur stdDeviation="0.5"/>
<feComposite in2="hardAlpha" operator="arithmetic" k2="-1" k3="1"/>
<feColorMatrix type="matrix" values="0 0 0 0 1 0 0 0 0 1 0 0 0 0 1 0 0 0 1 0"/>
<feBlend mode="normal" in2="effect2_innerShadow_416_8008" result="effect3_innerShadow_416_8008"/>
</filter>
<linearGradient id="paint0_linear_416_8008" x1="121.084" y1="96.2821" x2="121.084" y2="193.248" gradientUnits="userSpaceOnUse">
<stop offset="0.509616" stop-color="white"/>
<stop offset="1" stop-color="#DDC0FF"/>
</linearGradient>
<linearGradient id="paint1_linear_416_8008" x1="121.084" y1="83.7651" x2="121.084" y2="180.731" gradientUnits="userSpaceOnUse">
<stop stop-color="#D0ACFF"/>
<stop offset="0.403841" stop-color="#AF52FF"/>
<stop offset="1" stop-color="#9638FF"/>
</linearGradient>
</defs>
</svg>
