<svg width="222" height="248" viewBox="0 0 222 248" fill="none" xmlns="http://www.w3.org/2000/svg">
<path d="M110.731 21.1237L108.366 18.3184L108.344 18.3372L108.322 18.3564L110.731 21.1237ZM94.1081 35.5973L96.5176 38.3647L96.5176 38.3647L94.1081 35.5973ZM25.0518 96.3229L22.5578 93.6313L22.5578 93.6313L25.0518 96.3229ZM15.282 106.234L18.1663 108.502L18.1663 108.502L15.282 106.234ZM12.4833 111.784L8.93257 110.859L8.92196 110.899L8.91228 110.94L12.4833 111.784ZM33.7679 124.023L34.2619 127.659L34.2774 127.657L34.2929 127.654L33.7679 124.023ZM38.928 123.369L41.4313 126.052L49.7009 118.336L38.4764 119.727L38.928 123.369ZM34.9297 127.066L37.3936 129.785L37.3936 129.785L34.9297 127.066ZM18.3254 141.62L20.6633 144.448L20.6771 144.436L20.6908 144.425L18.3254 141.62ZM28.1421 163.812L28.1266 160.142L27.9598 160.143L27.7936 160.159L28.1421 163.812ZM72.0425 157.762L71.4479 154.142L71.4479 154.142L72.0425 157.762ZM101.037 153.087L100.481 149.46L100.481 149.46L101.037 153.087ZM109.01 152.043L112.679 152.039L112.675 148.112L108.758 148.382L109.01 152.043ZM109.043 182.001L112.712 181.997L112.712 181.997L109.043 182.001ZM109.226 215.995L112.895 215.937L112.895 215.937L109.226 215.995ZM109.442 223.879L113.107 223.694L113.107 223.693L109.442 223.879ZM109.597 225.976L105.952 226.4L105.953 226.401L109.597 225.976ZM109.724 226.757L113.303 225.949L113.303 225.949L109.724 226.757ZM110.505 228.244L107.912 230.84L107.912 230.84L110.505 228.244ZM111.394 228.855L109.814 232.167L109.814 232.167L111.394 228.855ZM111.959 229.086L113.182 225.626L113.181 225.626L111.959 229.086ZM113.13 229.415L112.357 233.002L112.36 233.003L113.13 229.415ZM115.326 229.4L114.428 225.843L114.424 225.844L115.326 229.4ZM117.57 228.328L119.578 231.399L119.578 231.399L117.57 228.328ZM124.899 222.617L122.584 219.77L122.584 219.77L124.899 222.617ZM211.811 146.464L209.227 143.858L209.227 143.858L211.811 146.464ZM214.873 143.143L217.827 145.319L217.827 145.319L214.873 143.143ZM216.397 140.085L219.871 141.265L219.871 141.265L216.397 140.085ZM217.253 134.869L213.598 134.541L213.582 134.72L213.584 134.9L217.253 134.869ZM207.93 125.706L208.33 122.058L208.315 122.057L208.301 122.055L207.93 125.706ZM194.539 126.124L194.351 122.46L194.351 122.46L194.539 126.124ZM190.733 126.303L188.317 123.542L180.431 130.444L190.9 129.969L190.733 126.303ZM210.028 108.391L207.573 105.664L207.515 105.717L207.459 105.772L210.028 108.391ZM216.496 102.046L213.772 99.5876L213.772 99.5876L216.496 102.046ZM214.342 89.3222L216.976 86.767L216.794 86.5802L216.588 86.4208L214.342 89.3222ZM173.617 89.4157L174.216 93.0359L174.216 93.0358L173.617 89.4157ZM137.685 95.2061L138.244 98.8325L138.244 98.8325L137.685 95.2061ZM120.713 97.5862L120.439 93.9271L120.434 93.9274L120.713 97.5862ZM120.342 97.5966L116.674 97.7049L116.786 101.493L120.568 101.259L120.342 97.5966ZM120.309 96.3454L116.639 96.3512L116.639 96.3526L120.309 96.3454ZM120.563 81.3451L124.231 81.4286L124.231 81.4286L120.563 81.3451ZM121.019 45.0462L117.35 45.0432L117.35 45.0433L121.019 45.0462ZM120.92 32.2566L117.252 32.3338L117.252 32.334L120.92 32.2566ZM120.789 28.169L124.453 27.9809L124.453 27.9809L120.789 28.169ZM120.549 25.6995L124.134 24.9182L124.134 24.9179L120.549 25.6995ZM120.083 23.6252L123.627 22.6732L123.627 22.6725L120.083 23.6252ZM118.982 21.5367L121.573 18.9381L121.307 18.6727L120.992 18.4668L118.982 21.5367ZM108.986 62.6862L111.396 65.4538L112.656 64.3568V62.6862H108.986ZM99.0659 71.3223L101.475 74.09L101.475 74.0899L99.0659 71.3223ZM64.7424 101.027L62.3677 98.2293L62.3677 98.2293L64.7424 101.027ZM55.5559 108.369L57.1464 111.676L57.1465 111.676L55.5559 108.369ZM52.8041 109.202L53.7019 112.76L53.702 112.76L52.8041 109.202ZM47.3431 110.411L46.6242 106.812L46.6241 106.812L47.3431 110.411ZM33.5845 112.683V116.352H33.8205L34.0545 116.322L33.5845 112.683ZM33.5761 112.683V109.013H33.3402L33.1062 109.043L33.5761 112.683ZM28.0254 116.793L31.6934 116.689L31.4868 109.354L27.8189 109.457L28.0254 116.793ZM39.4135 98.858L36.976 96.1152L36.976 96.1152L39.4135 98.858ZM86.8465 57.3802L89.2406 60.1609L89.2406 60.1609L86.8465 57.3802ZM104.476 42.3611L106.831 45.175L106.831 45.175L104.476 42.3611ZM108.939 78.2557L112.608 78.1793L112.453 70.7219L106.64 75.3962L108.939 78.2557ZM109.01 100.058L109.63 103.674L112.679 103.151V100.058H109.01ZM91.0318 103.11L90.4183 99.4927L90.4183 99.4927L91.0318 103.11ZM78.3598 105.227L75.8432 102.557L67.1223 110.776L78.9498 108.849L78.3598 105.227ZM94.395 90.7583L91.9778 87.9975L91.9778 87.9976L94.395 90.7583ZM108.624 78.4956L106.306 75.6514L106.304 75.6527L108.624 78.4956ZM198.518 103.736L201.045 106.397L201.045 106.397L198.518 103.736ZM178.264 121.662L175.87 118.881L175.87 118.881L178.264 121.662ZM170.766 127.989L168.437 125.153L168.437 125.153L170.766 127.989ZM168.371 129.917L166.123 127.017L166.122 127.018L168.371 129.917ZM167.892 130.279L168.555 133.888L169.383 133.736L170.061 133.239L167.892 130.279ZM166.25 130.576L166.879 134.191L166.88 134.191L166.25 130.576ZM161.532 131.38L160.919 127.762L160.919 127.762L161.532 131.38ZM147.675 133.704L148.277 137.323L148.277 137.323L147.675 133.704ZM125.097 137.382L124.581 133.749L124.581 133.749L125.097 137.382ZM121.298 137.904L117.629 137.883L117.605 142.081L121.768 141.543L121.298 137.904ZM121.461 109.479L120.86 105.859L117.809 106.366L117.791 109.458L121.461 109.479ZM151.979 104.395L152.587 108.013L152.587 108.013L151.979 104.395ZM109.01 111.544H112.679V107.13L108.339 107.937L109.01 111.544ZM109.01 140.148L109.69 143.754L112.679 143.189V140.148H109.01ZM100.03 141.7L100.633 145.32L100.633 145.32L100.03 141.7ZM79.3899 145.082L78.8043 141.46L78.8043 141.46L79.3899 145.082ZM40.6872 151.169L40.1602 147.537L40.1601 147.537L40.6872 151.169ZM26.9076 156.383L30.5744 156.244L30.2964 148.911L26.6297 149.05L26.9076 156.383ZM28.0057 149.245L30.6324 151.807L30.6324 151.807L28.0057 149.245ZM48.6835 130.562L46.2662 127.801L46.266 127.801L48.6835 130.562ZM61.2803 119.531L60.6797 115.911L59.649 116.082L58.863 116.771L61.2803 119.531ZM83.8491 115.787L84.4496 119.407L84.4498 119.407L83.8491 115.787ZM152.383 184.208L154.789 186.979L154.789 186.979L152.383 184.208ZM127.23 210.948L130.004 208.547L125.202 202.998L122.427 205.399L127.23 210.948ZM121.349 187.488L118.848 184.804L117.678 185.894L117.68 187.493L121.349 187.488ZM148.168 163.202L145.757 160.436L145.756 160.437L148.168 163.202ZM174.19 140.511L173.598 136.889L172.566 137.058L171.778 137.745L174.19 140.511ZM179.086 139.711L178.496 136.089L178.495 136.09L179.086 139.711ZM151.222 144.969L153.646 147.724L162.154 140.235L150.871 141.317L151.222 144.969ZM121.305 170.831L117.636 170.792L117.551 178.871L123.69 173.619L121.305 170.831ZM121.428 149.401L120.861 145.776L117.769 146.259L117.758 149.389L121.428 149.401ZM131.823 147.777L132.389 151.403L132.407 151.4L132.425 151.397L131.823 147.777ZM7.78059 163.959C6.95601 162.108 4.78687 161.276 2.93568 162.101C1.08449 162.925 0.252252 165.094 1.07683 166.946L7.78059 163.959ZM21.2443 175.477L21.2083 171.808L21.2082 171.808L21.2443 175.477ZM39.464 177.942C41.4685 177.644 42.8517 175.777 42.5535 173.773C42.2553 171.768 40.3886 170.385 38.3841 170.683L39.464 177.942ZM50.1879 169.193C48.2007 169.591 46.912 171.524 47.3094 173.511C47.7069 175.498 49.64 176.787 51.6272 176.389L50.1879 169.193ZM63.8584 173.943C65.8456 173.546 67.1344 171.613 66.7369 169.625C66.3395 167.638 64.4064 166.349 62.4192 166.747L63.8584 173.943ZM118.261 8.92533C119.824 10.2154 122.137 9.9943 123.427 8.43144C124.717 6.86859 124.496 4.55582 122.933 3.26573L118.261 8.92533ZM103.916 7.87997L101.67 4.97824L101.67 4.97824L103.916 7.87997ZM87.9095 16.9252C86.4925 18.374 86.5184 20.6972 87.9672 22.1141C89.416 23.5311 91.7392 23.5052 93.1561 22.0564L87.9095 16.9252ZM83.5169 31.9222C84.9422 30.4816 84.9298 28.1583 83.4892 26.733C82.0486 25.3077 79.7253 25.3201 78.3 26.7608L83.5169 31.9222ZM79.5824 35.864C81.1649 34.598 81.4214 32.2889 80.1555 30.7064C78.8895 29.124 76.5804 28.8674 74.9979 30.1334L79.5824 35.864ZM122.621 236.033C121.071 237.339 120.873 239.654 122.179 241.204C123.484 242.754 125.799 242.952 127.349 241.646L122.621 236.033ZM159.966 214.174C161.516 212.869 161.714 210.554 160.409 209.004C159.103 207.454 156.788 207.256 155.238 208.561L159.966 214.174ZM130.778 241.204C129.234 242.517 129.047 244.833 130.359 246.377C131.672 247.921 133.988 248.108 135.532 246.796L130.778 241.204ZM149.268 235.117C150.812 233.805 151 231.489 149.687 229.945C148.374 228.401 146.059 228.213 144.515 229.526L149.268 235.117ZM152.551 222.167C151.023 223.498 150.862 225.815 152.193 227.344C153.524 228.872 155.842 229.032 157.37 227.701L152.551 222.167ZM161.949 223.714C163.477 222.383 163.637 220.066 162.307 218.537C160.976 217.009 158.658 216.849 157.13 218.18L161.949 223.714ZM121.309 206.667L117.639 206.644L121.309 206.667ZM26.9232 110.996L24.1711 108.569L26.9232 110.996ZM201.397 100.774L198.661 98.3281L201.397 100.774ZM199.525 97.3955L199.958 101.039L199.525 97.3955ZM200.751 140.715L203.317 143.338L200.751 140.715ZM199.116 137.151L199.426 140.807L199.116 137.151ZM26.0664 151.447L28.9661 153.695L26.0664 151.447ZM108.737 41.9379L112.403 41.7833L112.403 41.783L108.737 41.9379ZM106.282 40.8608L103.948 38.0294L106.282 40.8608ZM108.322 18.3564L91.6985 32.8299L96.5176 38.3647L113.141 23.8911L108.322 18.3564ZM91.6986 32.8299C52.8683 66.6383 32.9865 83.9681 22.5578 93.6313L27.5458 99.0144C37.8671 89.4507 57.6278 72.225 96.5176 38.3647L91.6986 32.8299ZM22.5578 93.6313C17.3734 98.4352 14.3473 101.486 12.3977 103.965L18.1663 108.502C19.7197 106.527 22.3552 103.824 27.5458 99.0144L22.5578 93.6313ZM12.3978 103.965C10.2693 106.672 9.42564 108.967 8.93257 110.859L16.034 112.71C16.3311 111.57 16.7918 110.25 18.1663 108.502L12.3978 103.965ZM8.91228 110.94C8.00448 114.781 8.82678 118.152 10.9192 120.801C12.8807 123.284 15.7316 124.855 18.4833 125.86C23.9609 127.861 30.5507 128.163 34.2619 127.659L33.274 120.387C30.6013 120.75 25.23 120.512 21.0018 118.967C18.9006 118.199 17.4626 117.245 16.678 116.252C16.0242 115.424 15.6433 114.367 16.0543 112.628L8.91228 110.94ZM34.2929 127.654C36.8011 127.292 37.6698 127.222 39.3795 127.01L38.4764 119.727C36.9488 119.917 35.8414 120.015 33.2429 120.391L34.2929 127.654ZM36.4247 120.686C35.1594 121.867 34.0529 122.909 32.4659 124.347L37.3936 129.785C39.0305 128.302 40.1861 127.214 41.4313 126.052L36.4247 120.686ZM32.4659 124.347C27.4717 128.872 21.1601 134.43 15.96 138.814L20.6908 144.425C25.9712 139.972 32.3496 134.356 37.3936 129.785L32.4659 124.347ZM15.9874 138.791C9.44746 144.198 5.25945 151.662 7.3224 158.354C9.54341 165.558 17.7142 168.492 28.4905 167.464L27.7936 160.159C17.7929 161.113 14.9041 158.036 14.3354 156.192C13.6087 153.834 14.9009 149.211 20.6633 144.448L15.9874 138.791ZM28.1575 167.481C35.3257 167.451 37.9737 167.076 72.6372 161.383L71.4479 154.142C36.4801 159.884 34.5597 160.115 28.1266 160.142L28.1575 167.481ZM72.6372 161.383C86.7448 159.066 95.8159 157.599 101.592 156.714L100.481 149.46C94.6594 150.352 85.5502 151.826 71.4479 154.142L72.6372 161.383ZM101.592 156.714C106.709 155.93 108.527 155.754 109.261 155.703L108.758 148.382C107.706 148.454 105.641 148.669 100.481 149.46L101.592 156.714ZM105.34 152.047L105.373 182.005L112.712 181.997L112.679 152.039L105.34 152.047ZM105.373 182.005C105.39 197.91 105.444 208.924 105.557 216.053L112.895 215.937C112.782 208.868 112.729 197.904 112.712 181.997L105.373 182.005ZM105.557 216.053C105.614 219.612 105.685 222.236 105.778 224.064L113.107 223.693C113.021 221.997 112.951 219.477 112.895 215.937L105.557 216.053ZM105.778 224.063C105.823 224.967 105.875 225.735 105.952 226.4L113.242 225.553C113.193 225.129 113.15 224.552 113.107 223.694L105.778 224.063ZM105.953 226.401C105.991 226.733 106.042 227.109 106.145 227.566L113.303 225.949C113.282 225.853 113.267 225.764 113.242 225.552L105.953 226.401ZM106.145 227.566C106.08 227.276 106.069 227.045 106.067 226.941C106.067 226.925 106.066 226.754 106.066 226.953C106.064 227.216 106.079 227.706 106.259 228.301C106.587 229.383 107.277 230.206 107.912 230.84L113.098 225.647C112.953 225.503 112.941 225.471 112.988 225.537C113.04 225.613 113.179 225.83 113.283 226.174C113.335 226.347 113.369 226.518 113.387 226.68C113.404 226.835 113.404 226.953 113.404 226.985C113.404 226.986 113.404 227.008 113.405 226.96C113.405 226.932 113.406 226.863 113.404 226.779C113.4 226.606 113.384 226.307 113.303 225.949L106.145 227.566ZM107.912 230.84C108.304 231.232 108.72 231.581 109.203 231.864C109.445 232.005 109.65 232.099 109.787 232.158C109.996 232.248 109.842 232.18 109.814 232.167L112.974 225.543C112.874 225.496 112.79 225.46 112.746 225.441C112.726 225.433 112.702 225.423 112.697 225.421C112.687 225.417 112.687 225.416 112.69 225.418C112.699 225.422 112.73 225.435 112.772 225.456C112.815 225.477 112.863 225.502 112.913 225.532C113.015 225.592 113.087 225.645 113.123 225.674C113.155 225.699 113.148 225.697 113.098 225.647L107.912 230.84ZM109.814 232.167C110.172 232.338 110.477 232.454 110.736 232.545L113.181 225.626C113.121 225.605 113.084 225.591 113.055 225.579C113.028 225.568 113.003 225.557 112.974 225.543L109.814 232.167ZM110.735 232.545C111.258 232.73 111.796 232.881 112.357 233.002L113.903 225.828C113.632 225.769 113.395 225.701 113.182 225.626L110.735 232.545ZM112.36 233.003C113.212 233.185 114.689 233.348 116.229 232.957L114.424 225.844C114.426 225.843 114.405 225.848 114.36 225.853C114.316 225.857 114.261 225.859 114.196 225.858C114.057 225.855 113.942 225.836 113.9 225.827L112.36 233.003ZM116.225 232.958C117.624 232.604 118.697 231.975 119.578 231.399L115.562 225.256C114.923 225.674 114.654 225.785 114.428 225.843L116.225 232.958ZM119.578 231.399C121.299 230.274 123.515 228.471 127.213 225.465L122.584 219.77C118.723 222.909 116.88 224.395 115.562 225.256L119.578 231.399ZM127.213 225.465C149.542 207.312 201.829 161.529 214.394 149.069L209.227 143.858C196.909 156.073 144.832 201.683 122.584 219.77L127.213 225.465ZM214.394 149.069C215.795 147.68 216.907 146.568 217.827 145.319L211.919 140.966C211.396 141.676 210.709 142.388 209.227 143.858L214.394 149.069ZM217.827 145.319C218.855 143.923 219.446 142.518 219.871 141.265L212.922 138.906C212.629 139.771 212.333 140.403 211.918 140.966L217.827 145.319ZM219.871 141.265C220.572 139.2 220.941 137.003 220.922 134.837L213.584 134.9C213.595 136.206 213.37 137.586 212.922 138.906L219.871 141.265ZM220.908 135.196C221.27 131.151 218.847 127.906 216.541 125.914C214.195 123.887 211.087 122.36 208.33 122.058L207.531 129.353C208.492 129.458 210.254 130.181 211.744 131.468C213.274 132.789 213.654 133.923 213.598 134.541L220.908 135.196ZM208.301 122.055C205.483 121.769 201.692 122.084 194.351 122.46L194.726 129.789C202.633 129.384 205.479 129.145 207.559 129.356L208.301 122.055ZM194.351 122.46C192.902 122.534 191.853 122.579 190.567 122.638L190.9 129.969C192.171 129.911 193.25 129.865 194.726 129.789L194.351 122.46ZM193.15 129.064C199.997 123.072 205.415 118.055 212.597 111.011L207.459 105.772C200.371 112.723 195.054 117.645 188.317 123.542L193.15 129.064ZM210.028 108.391C212.483 111.119 212.483 111.119 212.483 111.118C212.483 111.118 212.483 111.118 212.484 111.118C212.484 111.118 212.484 111.118 212.484 111.117C212.485 111.117 212.486 111.116 212.487 111.115C212.49 111.112 212.493 111.109 212.498 111.105C212.506 111.098 212.519 111.087 212.534 111.072C212.566 111.043 212.612 111.002 212.671 110.948C212.789 110.841 212.958 110.686 213.169 110.493C213.59 110.105 214.177 109.56 214.846 108.925C216.166 107.67 217.865 106.006 219.22 104.504L213.772 99.5876C212.609 100.876 211.073 102.385 209.79 103.605C209.156 104.208 208.599 104.725 208.2 105.092C208.001 105.275 207.843 105.42 207.734 105.518C207.68 105.567 207.639 105.605 207.612 105.629C207.598 105.642 207.588 105.651 207.582 105.657C207.578 105.659 207.576 105.662 207.575 105.663C207.574 105.663 207.574 105.664 207.573 105.664C207.573 105.664 207.573 105.664 207.573 105.664C207.573 105.664 207.573 105.664 207.573 105.664C207.573 105.664 207.573 105.664 210.028 108.391ZM219.22 104.504C220.593 102.983 221.069 101.085 221.199 99.5114C221.332 97.8966 221.136 96.2267 220.797 94.7148C220.153 91.8409 218.773 88.6191 216.976 86.767L211.709 91.8774C212.187 92.3702 213.142 94.115 213.636 96.3191C213.866 97.3462 213.94 98.2431 213.885 98.9093C213.827 99.6161 213.658 99.7133 213.772 99.5876L219.22 104.504ZM216.588 86.4208C214.112 84.5034 210.748 83.6047 207.412 83.1692C203.982 82.7214 200.079 82.7045 196.116 82.9171C188.188 83.3423 179.525 84.718 173.017 85.7957L174.216 93.0358C180.744 91.9548 189.037 90.646 196.509 90.2453C200.247 90.0448 203.654 90.0796 206.462 90.4462C209.364 90.825 211.165 91.5033 212.096 92.2237L216.588 86.4208ZM173.018 85.7956C158.426 88.2108 146.205 90.1784 137.125 91.5796L138.244 98.8325C147.361 97.4256 159.611 95.4533 174.216 93.0359L173.018 85.7956ZM137.125 91.5796C127.964 92.9934 122.015 93.8087 120.439 93.9271L120.988 101.245C122.921 101.1 129.209 100.227 138.244 98.8325L137.125 91.5796ZM120.434 93.9274C120.508 93.9218 120.563 93.9226 120.511 93.9228C120.473 93.923 120.307 93.9224 120.115 93.9342L120.568 101.259C120.512 101.262 120.463 101.262 120.543 101.261C120.609 101.261 120.782 101.261 120.993 101.245L120.434 93.9274ZM124.009 97.4883C123.993 96.9228 123.979 96.9206 123.978 96.3383L116.639 96.3526C116.641 97.0537 116.666 97.4225 116.674 97.7049L124.009 97.4883ZM123.978 96.3397C123.974 93.7293 124.055 89.152 124.231 81.4286L116.894 81.2616C116.719 88.963 116.635 93.6344 116.639 96.3512L123.978 96.3397ZM124.231 81.4286C124.526 68.4523 124.68 55.3036 124.688 45.049L117.35 45.0433C117.342 55.2387 117.189 68.3333 116.894 81.2616L124.231 81.4286ZM124.688 45.0491C124.692 39.9232 124.659 35.5094 124.589 32.1792L117.252 32.334C117.32 35.5893 117.354 39.9441 117.35 45.0432L124.688 45.0491ZM124.589 32.1794C124.554 30.5202 124.511 29.1054 124.453 27.9809L117.124 28.3571C117.176 29.3715 117.217 30.7003 117.252 32.3338L124.589 32.1794ZM124.453 27.9809C124.404 27.0344 124.381 26.0537 124.134 24.9182L116.963 26.4809C117.053 26.8917 117.063 27.1648 117.124 28.3571L124.453 27.9809ZM124.134 24.9179C123.979 24.2066 123.821 23.3961 123.627 22.6732L116.539 24.5772C116.673 25.0746 116.753 25.5135 116.964 26.4811L124.134 24.9179ZM123.627 22.6725C123.443 21.9898 123.056 20.4166 121.573 18.9381L116.392 24.1354C116.417 24.1606 116.422 24.1701 116.418 24.164C116.414 24.1579 116.412 24.1533 116.414 24.1576C116.417 24.1642 116.428 24.1899 116.448 24.2536C116.472 24.3289 116.494 24.4085 116.539 24.5779L123.627 22.6725ZM120.992 18.4668C119.414 17.4334 117.115 16.8653 115.183 16.6934C114.15 16.6014 113.014 16.6019 111.91 16.7857C110.858 16.9609 109.506 17.3571 108.366 18.3184L113.096 23.9291C112.831 24.1528 112.73 24.089 113.116 24.0247C113.451 23.9689 113.94 23.9504 114.533 24.0032C115.115 24.055 115.695 24.1664 116.184 24.3077C116.426 24.3775 116.623 24.4481 116.771 24.5106C116.926 24.5761 116.984 24.6146 116.972 24.6066L120.992 18.4668ZM105.071 42.0925C105.218 45.5941 105.317 50.1272 105.317 54.6287H112.656C112.656 50.0331 112.555 45.3965 112.403 41.7833L105.071 42.0925ZM105.317 54.6287V62.6862H112.656V54.6287H105.317ZM106.577 59.9186L96.6566 68.5548L101.475 74.0899L111.396 65.4538L106.577 59.9186ZM96.6567 68.5547C79.2245 83.7296 68.7323 92.8264 62.3677 98.2293L67.1171 103.824C73.5236 98.3854 84.0535 89.2557 101.475 74.09L96.6567 68.5547ZM62.3677 98.2293C59.2053 100.914 57.0028 102.69 55.5808 103.796C54.869 104.35 54.3605 104.73 54.0305 104.969C53.8641 105.09 53.754 105.167 53.6926 105.208C53.53 105.318 53.7009 105.19 53.9653 105.062L57.1465 111.676C57.4639 111.523 57.7622 111.315 57.8067 111.285C57.9524 111.187 58.1292 111.062 58.3352 110.913C58.7498 110.613 59.3274 110.18 60.0875 109.588C61.6093 108.404 63.894 106.56 67.1171 103.824L62.3677 98.2293ZM53.9653 105.062C54.1131 104.991 54.2219 104.953 54.1667 104.974C54.1566 104.978 54.1252 104.989 54.0692 105.009C53.9593 105.047 53.7921 105.103 53.5772 105.171C53.1473 105.307 52.5616 105.479 51.9063 105.644L53.702 112.76C54.5144 112.555 55.2386 112.342 55.7847 112.17C56.188 112.043 56.7926 111.846 57.1464 111.676L53.9653 105.062ZM51.9063 105.644C50.5168 105.995 48.69 106.4 46.6242 106.812L48.062 114.009C50.2022 113.581 52.156 113.15 53.7019 112.76L51.9063 105.644ZM46.6241 106.812C42.4941 107.638 37.5026 108.477 33.1144 109.043L34.0545 116.322C38.6248 115.731 43.7828 114.864 48.062 114.009L46.6241 106.812ZM33.5845 109.013H33.5761V116.352H33.5845V109.013ZM33.1062 109.043C31.3901 109.265 29.4081 109.412 27.8185 109.457L28.0259 116.793C29.8462 116.741 32.0732 116.576 34.0461 116.322L33.1062 109.043ZM29.6753 113.423C31.4421 111.419 35.0576 107.638 41.851 101.601L36.976 96.1152C30.0221 102.295 26.1826 106.288 24.1711 108.569L29.6753 113.423ZM41.851 101.601C57.242 87.923 75.1097 72.3271 89.2406 60.1609L84.4524 54.5995C70.2954 66.788 52.3987 82.4093 36.976 96.1152L41.851 101.601ZM89.2406 60.1609C96.3074 54.0768 102.429 48.8589 106.831 45.175L102.121 39.5471C97.6812 43.263 91.5296 48.5063 84.4524 54.5995L89.2406 60.1609ZM106.831 45.175C107.495 44.6196 108.081 44.1332 108.616 43.6922L103.948 38.0294C103.399 38.4819 102.799 38.98 102.121 39.5471L106.831 45.175ZM105.271 78.332C105.314 80.4118 105.34 83.006 105.34 88.0019H112.679C112.679 82.9832 112.652 80.3319 112.608 78.1793L105.271 78.332ZM105.34 88.0019V100.058H112.679V88.0019H105.34ZM108.389 96.4411C107.136 96.6561 99.7489 97.9104 90.4183 99.4927L91.6453 106.728C100.97 105.147 108.368 103.891 109.63 103.674L108.389 96.4411ZM90.4183 99.4927C85.5701 100.315 81.1232 101.059 77.7698 101.605L78.9498 108.849C82.326 108.299 86.7909 107.551 91.6453 106.728L90.4183 99.4927ZM80.8764 107.897C84.0264 104.929 88.7096 100.613 96.8122 93.519L91.9778 87.9976C83.8153 95.1444 79.0652 99.5202 75.8432 102.557L80.8764 107.897ZM96.8122 93.519C104.13 87.1121 108.421 83.3975 110.944 81.3385L106.304 75.6527C103.661 77.8095 99.2636 81.6185 91.9778 87.9975L96.8122 93.519ZM110.942 81.3398C110.952 81.3321 110.948 81.3356 110.935 81.3454C110.922 81.3553 110.912 81.3622 110.926 81.3521C110.938 81.3434 110.989 81.3072 111.046 81.2647C111.107 81.2187 111.17 81.1701 111.239 81.1152L106.64 75.3962C106.637 75.3986 106.644 75.3928 106.657 75.3829C106.666 75.3765 106.676 75.3694 106.646 75.3906C106.619 75.4104 106.566 75.4479 106.502 75.4966C106.438 75.5453 106.374 75.596 106.306 75.6514L110.942 81.3398ZM198.661 98.3281C197.923 99.1541 197.034 100.085 195.991 101.075L201.045 106.397C202.242 105.259 203.27 104.184 204.132 103.22L198.661 98.3281ZM195.991 101.075C192.017 104.85 185.676 110.442 175.87 118.881L180.657 124.443C190.453 116.013 196.922 110.312 201.045 106.397L195.991 101.075ZM175.87 118.881C173.039 121.317 170.396 123.544 168.437 125.153L173.095 130.824C175.108 129.17 177.796 126.905 180.657 124.443L175.87 118.881ZM168.437 125.153C167.449 125.965 166.656 126.604 166.123 127.017L170.62 132.817C171.238 132.337 172.096 131.644 173.095 130.824L168.437 125.153ZM166.122 127.018C165.939 127.16 165.833 127.239 165.722 127.32L170.061 133.239C170.214 133.127 170.375 133.007 170.621 132.816L166.122 127.018ZM167.229 126.67C166.974 126.717 166.551 126.798 165.62 126.961L166.88 134.191C167.855 134.021 168.331 133.929 168.555 133.888L167.229 126.67ZM165.621 126.961C164.443 127.166 162.833 127.438 160.919 127.762L162.145 134.998C164.049 134.675 165.681 134.399 166.879 134.191L165.621 126.961ZM160.919 127.762C157.106 128.409 152.129 129.244 147.073 130.084L148.277 137.323C153.338 136.482 158.323 135.646 162.145 134.998L160.919 127.762ZM147.073 130.084C136.926 131.771 126.429 133.487 124.581 133.749L125.613 141.015C127.571 140.737 138.188 139 148.277 137.323L147.073 130.084ZM124.581 133.749C123.367 133.922 122.425 134.051 121.789 134.137C121.471 134.18 121.229 134.212 121.067 134.234C120.987 134.244 120.926 134.252 120.886 134.257C120.866 134.26 120.851 134.262 120.841 134.263C120.837 134.264 120.833 134.264 120.831 134.265C120.83 134.265 120.829 134.265 120.829 134.265C120.828 134.265 120.828 134.265 120.828 134.265C120.828 134.265 120.828 134.265 120.828 134.265C120.828 134.265 120.828 134.265 120.828 134.265C120.828 134.265 120.828 134.265 121.298 137.904C121.768 141.543 121.768 141.543 121.768 141.543C121.768 141.543 121.768 141.543 121.768 141.543C121.769 141.543 121.769 141.543 121.769 141.543C121.769 141.543 121.769 141.543 121.77 141.543C121.771 141.543 121.772 141.543 121.773 141.543C121.777 141.542 121.781 141.542 121.787 141.541C121.798 141.539 121.815 141.537 121.836 141.534C121.88 141.529 121.944 141.52 122.029 141.509C122.197 141.487 122.447 141.454 122.773 141.41C123.424 141.321 124.382 141.19 125.613 141.015L124.581 133.749ZM124.968 137.925L125.13 109.5L117.791 109.458L117.629 137.883L124.968 137.925ZM121.461 109.479C122.062 113.099 122.062 113.099 122.062 113.099C122.062 113.099 122.062 113.099 122.063 113.099C122.063 113.099 122.064 113.099 122.066 113.098C122.068 113.098 122.072 113.097 122.078 113.096C122.088 113.095 122.104 113.092 122.125 113.089C122.167 113.082 122.229 113.071 122.311 113.058C122.474 113.031 122.714 112.991 123.023 112.939C123.641 112.837 124.533 112.689 125.63 112.506C127.824 112.142 130.839 111.641 134.12 111.095C140.682 110.004 148.314 108.732 152.587 108.013L151.37 100.776C147.105 101.493 139.479 102.764 132.916 103.856C129.635 104.402 126.621 104.903 124.427 105.267C123.33 105.449 122.438 105.597 121.821 105.7C121.512 105.751 121.272 105.791 121.109 105.818C121.027 105.832 120.965 105.842 120.923 105.849C120.902 105.852 120.886 105.855 120.876 105.857C120.871 105.858 120.867 105.858 120.864 105.859C120.863 105.859 120.862 105.859 120.861 105.859C120.861 105.859 120.86 105.859 120.86 105.859C120.86 105.859 120.86 105.859 121.461 109.479ZM152.587 108.013C176.211 104.04 192.385 101.941 199.958 101.039L199.091 93.7518C191.407 94.6665 175.116 96.7824 151.37 100.776L152.587 108.013ZM108.329 136.542C107.249 136.746 104.366 137.258 99.427 138.081L100.633 145.32C105.583 144.495 108.53 143.973 109.69 143.754L108.329 136.542ZM99.427 138.081C93.8058 139.017 86.4657 140.221 78.8043 141.46L79.9756 148.704C87.6461 147.464 94.9981 146.259 100.633 145.32L99.427 138.081ZM78.8043 141.46C63.4675 143.939 46.8544 146.566 40.1602 147.537L41.2142 154.8C47.9768 153.819 64.6484 151.182 79.9756 148.704L78.8043 141.46ZM40.1601 147.537C34.7156 148.328 28.8153 148.963 26.624 149.05L26.9133 156.383C29.5082 156.28 35.7241 155.597 41.2142 154.8L40.1601 147.537ZM28.9661 153.695C29.3445 153.207 29.8882 152.57 30.6324 151.807L25.379 146.683C24.4589 147.626 23.7301 148.472 23.1667 149.198L28.9661 153.695ZM30.6324 151.807C33.7237 148.638 39.7778 143.239 51.1011 133.322L46.266 127.801C35.0458 137.628 28.7221 143.255 25.379 146.683L30.6324 151.807ZM51.1009 133.322L63.6976 122.292L58.863 116.771L46.2662 127.801L51.1009 133.322ZM61.8808 123.151L84.4496 119.407L83.2485 112.167L60.6797 115.911L61.8808 123.151ZM84.4498 119.407C96.9298 117.336 107.551 115.548 109.681 115.152L108.339 107.937C106.299 108.316 95.7764 110.088 83.2483 112.167L84.4498 119.407ZM198.186 138.091C192.635 143.52 179.476 155.833 149.978 181.437L154.789 186.979C184.33 161.337 197.615 148.915 203.317 143.338L198.186 138.091ZM149.978 181.437C137.421 192.336 125.035 203.107 122.406 205.418L127.251 210.93C129.858 208.638 142.222 197.887 154.789 186.979L149.978 181.437ZM124.978 206.69C125.004 202.466 125.015 197.663 125.018 193.92C125.02 192.048 125.02 190.439 125.02 189.299C125.02 188.728 125.019 188.275 125.019 187.964C125.019 187.809 125.019 187.689 125.019 187.608C125.019 187.567 125.019 187.536 125.019 187.516C125.019 187.505 125.019 187.498 125.019 187.492C125.019 187.49 125.019 187.488 125.019 187.486C125.019 187.486 125.019 187.485 125.019 187.485C125.019 187.485 125.019 187.485 125.019 187.484C125.019 187.484 125.019 187.484 121.349 187.488C117.68 187.493 117.68 187.493 117.68 187.493C117.68 187.493 117.68 187.493 117.68 187.493C117.68 187.493 117.68 187.494 117.68 187.494C117.68 187.496 117.68 187.498 117.68 187.5C117.68 187.505 117.68 187.513 117.68 187.523C117.68 187.544 117.68 187.574 117.68 187.615C117.68 187.695 117.68 187.814 117.68 187.969C117.681 188.279 117.681 188.731 117.681 189.301C117.681 190.439 117.681 192.044 117.679 193.913C117.676 197.652 117.666 202.439 117.639 206.644L124.978 206.69ZM123.851 190.173C132.978 181.669 142.206 173.273 150.581 165.967L145.756 160.437C137.302 167.812 128.012 176.266 118.848 184.804L123.851 190.173ZM150.58 165.967L176.601 143.276L171.778 137.745L145.757 160.436L150.58 165.967ZM174.781 144.132L179.678 143.332L178.495 136.09L173.598 136.889L174.781 144.132ZM179.677 143.332C188.541 141.886 195.212 141.164 199.426 140.807L198.806 133.495C194.413 133.867 187.554 134.612 178.496 136.089L179.677 143.332ZM148.797 142.215C139.251 150.617 129.089 159.343 118.92 168.042L123.69 173.619C133.862 164.917 144.057 156.163 153.646 147.724L148.797 142.215ZM124.974 170.869C125.012 167.287 125.043 161.92 125.064 157.456C125.075 155.222 125.083 153.212 125.088 151.76C125.091 151.034 125.093 150.447 125.095 150.042C125.096 149.84 125.096 149.683 125.097 149.576C125.097 149.523 125.097 149.482 125.097 149.455C125.097 149.441 125.097 149.431 125.097 149.424C125.097 149.42 125.097 149.418 125.097 149.416C125.097 149.415 125.097 149.415 125.097 149.414C125.097 149.414 125.097 149.414 125.097 149.414C125.097 149.413 125.097 149.413 121.428 149.401C117.758 149.389 117.758 149.389 117.758 149.389C117.758 149.389 117.758 149.389 117.758 149.39C117.758 149.39 117.758 149.391 117.758 149.392C117.758 149.393 117.758 149.396 117.758 149.399C117.758 149.406 117.758 149.416 117.758 149.43C117.758 149.457 117.758 149.498 117.758 149.551C117.757 149.657 117.757 149.814 117.756 150.016C117.755 150.42 117.753 151.006 117.75 151.731C117.744 153.182 117.736 155.19 117.725 157.421C117.704 161.886 117.673 167.233 117.636 170.792L124.974 170.869ZM121.994 153.027L132.389 151.403L131.257 144.152L120.861 145.776L121.994 153.027ZM132.425 151.397C145.707 149.187 148.602 148.906 151.572 148.622L150.871 141.317C147.668 141.624 144.589 141.933 131.221 144.158L132.425 151.397ZM4.42871 165.452C1.07683 166.946 1.07759 166.947 1.07837 166.949C1.07865 166.95 1.07945 166.951 1.08002 166.953C1.08115 166.955 1.08236 166.958 1.08365 166.961C1.08622 166.966 1.08909 166.973 1.09226 166.98C1.09859 166.994 1.10614 167.01 1.1149 167.029C1.13242 167.067 1.15483 167.114 1.18224 167.17C1.23705 167.283 1.31201 167.432 1.40805 167.613C1.59989 167.973 1.87747 168.461 2.2486 169.033C2.98777 170.172 4.11694 171.676 5.70449 173.176C8.91908 176.216 14.0025 179.218 21.2804 179.146L21.2082 171.808C16.1896 171.857 12.8652 169.847 10.7461 167.844C9.66684 166.823 8.89772 165.798 8.40529 165.039C8.16063 164.662 7.98909 164.358 7.88576 164.164C7.83422 164.067 7.80008 163.998 7.78268 163.962C7.774 163.945 7.76953 163.935 7.7692 163.934C7.76904 163.934 7.76991 163.936 7.77181 163.94C7.77276 163.942 7.77397 163.945 7.77543 163.948C7.77616 163.95 7.77696 163.951 7.77782 163.953C7.77825 163.954 7.77894 163.956 7.77916 163.956C7.77987 163.958 7.78059 163.959 4.42871 165.452ZM21.2804 179.146C26.6691 179.093 31.1876 178.796 34.3689 178.511C35.9602 178.368 37.2191 178.228 38.0872 178.123C38.5213 178.07 38.858 178.026 39.0898 177.995C39.2057 177.979 39.2955 177.966 39.3581 177.958C39.3895 177.953 39.414 177.95 39.4317 177.947C39.4405 177.946 39.4477 177.945 39.4531 177.944C39.4557 177.943 39.458 177.943 39.4598 177.943C39.4607 177.943 39.4615 177.943 39.4622 177.942C39.4626 177.942 39.463 177.942 39.4632 177.942C39.4636 177.942 39.464 177.942 38.9241 174.313C38.3841 170.683 38.3845 170.683 38.3848 170.683C38.3848 170.683 38.3851 170.683 38.3852 170.683C38.3855 170.683 38.3856 170.683 38.3857 170.683C38.3858 170.683 38.3854 170.683 38.3847 170.683C38.3831 170.684 38.3798 170.684 38.3749 170.685C38.3649 170.686 38.3482 170.689 38.3247 170.692C38.2778 170.699 38.2041 170.709 38.1046 170.722C37.9054 170.749 37.6027 170.789 37.2037 170.837C36.4056 170.934 35.223 171.066 33.7134 171.201C30.6927 171.472 26.3714 171.757 21.2083 171.808L21.2804 179.146ZM51.6272 176.389L63.8584 173.943L62.4192 166.747L50.1879 169.193L51.6272 176.389ZM120.597 6.09553C122.933 3.26573 122.931 3.26419 122.929 3.26263C122.929 3.26208 122.927 3.26049 122.925 3.25939C122.923 3.25719 122.92 3.25489 122.917 3.25251C122.911 3.24775 122.905 3.24263 122.898 3.23716C122.885 3.22623 122.869 3.21391 122.852 3.20028C122.817 3.17303 122.776 3.14052 122.726 3.10338C122.628 3.02915 122.5 2.93614 122.343 2.82956C122.03 2.61681 121.6 2.3474 121.059 2.06469C119.982 1.50102 118.44 0.869478 116.509 0.546231C112.516 -0.122414 107.318 0.607242 101.67 4.97824L106.162 10.7817C110.239 7.62594 113.381 7.46338 115.297 7.7842C116.322 7.95569 117.126 8.2893 117.657 8.56711C117.921 8.70513 118.11 8.82554 118.215 8.89742C118.268 8.93315 118.299 8.95616 118.307 8.96237C118.311 8.96546 118.31 8.96427 118.302 8.95829C118.298 8.9553 118.293 8.9511 118.286 8.94563C118.283 8.9429 118.279 8.93984 118.275 8.93646C118.273 8.93477 118.271 8.933 118.268 8.93114C118.267 8.93022 118.265 8.92876 118.265 8.9283C118.263 8.92682 118.261 8.92533 120.597 6.09553ZM101.67 4.97824C97.4087 8.2767 93.988 11.2439 91.6257 13.3935C90.4439 14.4687 89.5255 15.3409 88.8973 15.9494C88.5833 16.2536 88.3416 16.4921 88.1759 16.6572C88.093 16.7398 88.0291 16.804 87.9846 16.849C87.9623 16.8715 87.9449 16.8891 87.9323 16.9019C87.9261 16.9082 87.921 16.9134 87.9172 16.9173C87.9153 16.9192 87.9137 16.9208 87.9124 16.9221C87.9118 16.9228 87.9112 16.9234 87.9107 16.9239C87.9105 16.9241 87.9101 16.9245 87.91 16.9246C87.9097 16.9249 87.9095 16.9252 90.5328 19.4908C93.1561 22.0564 93.1559 22.0566 93.1557 22.0568C93.1556 22.0569 93.1554 22.0571 93.1553 22.0572C93.1552 22.0574 93.1551 22.0575 93.155 22.0575C93.155 22.0576 93.1552 22.0573 93.1558 22.0568C93.1568 22.0556 93.1592 22.0533 93.1627 22.0497C93.1697 22.0426 93.1816 22.0305 93.1983 22.0137C93.2316 21.98 93.2841 21.9273 93.3553 21.8563C93.4977 21.7145 93.7149 21.5 94.0036 21.2204C94.581 20.661 95.4437 19.8415 96.5647 18.8214C98.8079 16.7803 102.079 13.9421 106.162 10.7817L101.67 4.97824ZM78.3 26.7608C76.4909 28.5894 75.5863 29.5037 75.134 29.9608C74.9079 30.1894 74.7948 30.3037 74.7382 30.3608C74.71 30.3894 74.6958 30.4037 74.6888 30.4108C74.6852 30.4144 74.6835 30.4162 74.6826 30.4171C74.6821 30.4175 74.6819 30.4177 74.6818 30.4178C74.6818 30.4179 74.6817 30.4179 74.6817 30.4179C74.6817 30.418 74.6817 30.418 74.6817 30.418C74.6817 30.418 74.6817 30.418 74.6817 30.418C74.6817 30.418 74.6816 30.418 74.6816 30.418C74.5626 35.4532 79.5824 35.864 77.2902 32.9987C74.9979 30.1334 80.0177 30.5442 79.8987 35.5793C79.8987 35.5793 79.8987 35.5793 79.8987 35.5794C79.8987 35.5794 79.8987 35.5794 79.8987 35.5794C79.8987 35.5794 79.8987 35.5794 79.8987 35.5794C79.8987 35.5794 79.8987 35.5793 79.8988 35.5793C79.8989 35.5792 79.8991 35.579 79.8995 35.5785C79.9004 35.5776 79.9022 35.5758 79.9057 35.5723C79.9128 35.5651 79.9269 35.5508 79.9552 35.5223C80.0117 35.4651 80.1248 35.3508 80.3509 35.1223C80.8032 34.6651 81.7078 33.7508 83.5169 31.9222L78.3 26.7608ZM127.349 241.646L159.966 214.174L155.238 208.561L122.621 236.033L127.349 241.646ZM135.532 246.796L149.268 235.117L144.515 229.526L130.778 241.204L135.532 246.796ZM157.37 227.701L161.949 223.714L157.13 218.18L152.551 222.167L157.37 227.701ZM105.34 111.544V140.148H112.679V111.544H105.34ZM122.427 205.399C122.906 204.985 123.532 204.959 123.979 205.147C124.457 205.348 124.983 205.913 124.978 206.69L117.639 206.644C117.606 211.986 123.8 213.916 127.23 210.948L122.427 205.399ZM27.8189 109.457C28.6449 109.434 29.5647 109.918 30.0016 110.849C30.4389 111.781 30.2237 112.801 29.6753 113.423L24.1711 108.569C22.834 110.085 22.5222 112.186 23.3583 113.967C24.1938 115.747 26.0074 116.849 28.0254 116.793L27.8189 109.457ZM204.132 103.22C205.839 101.311 206.096 98.7044 204.928 96.627C203.789 94.5988 201.518 93.4629 199.091 93.7518L199.958 101.039C199.556 101.087 198.901 100.881 198.531 100.222C198.357 99.9132 198.273 99.5389 198.316 99.1553C198.362 98.759 198.528 98.4768 198.661 98.3281L204.132 103.22ZM203.317 143.338C205.129 141.565 205.638 138.981 204.627 136.779C203.617 134.579 201.329 133.281 198.806 133.495L199.426 140.807C199.013 140.842 198.3 140.585 197.958 139.842C197.616 139.096 197.887 138.383 198.186 138.091L203.317 143.338ZM26.6297 149.05C27.6455 149.011 28.6512 149.549 29.1867 150.499C29.7483 151.496 29.6822 152.772 28.9661 153.695L23.1667 149.198C22.0174 150.68 21.9493 152.605 22.7937 154.103C23.6121 155.555 25.1854 156.448 26.9076 156.383L26.6297 149.05ZM112.403 41.783C112.219 37.437 107.175 35.3698 103.948 38.0294L108.616 43.6922C107.297 44.7796 105.15 43.9694 105.071 42.0928L112.403 41.783Z" fill="#63358D"/>
</svg>
