<svg width="437" height="427" viewBox="0 0 437 427" fill="none" xmlns="http://www.w3.org/2000/svg">
<g style="mix-blend-mode:color" filter="url(#filter0_b_189_546)">
<ellipse cx="210" cy="209.999" rx="210" ry="209.999" fill="#8A45C6" fill-opacity="0.08"/>
</g>
<path d="M181.11 369.954C179.742 369.631 178.561 368.989 177.566 368.029C176.571 367.07 175.854 365.924 175.417 364.59C174.985 363.259 174.882 361.903 175.109 360.524C175.388 359.503 175.839 358.563 176.461 357.704C177.089 356.847 177.848 356.131 178.736 355.558C179.631 354.986 180.599 354.608 181.643 354.423C182.687 354.233 183.75 354.266 184.831 354.523C186.157 354.838 187.32 355.481 188.318 356.454C189.322 357.427 190.033 358.581 190.452 359.916C190.873 361.245 190.926 362.573 190.612 363.901C190.31 365.176 189.633 366.331 188.58 367.366L176.52 379.269L186.494 381.638L185.933 384.007L171.831 380.657L186.505 366.196C187.464 365.244 188.067 364.248 188.313 363.207C188.521 362.33 188.471 361.444 188.164 360.549C187.863 359.656 187.363 358.886 186.664 358.238C185.973 357.586 185.195 357.157 184.33 356.952C183.424 356.737 182.489 356.793 181.523 357.119C180.557 357.445 179.707 357.963 178.972 358.671C178.242 359.381 177.743 360.186 177.475 361.086C177.291 362.098 177.391 363.098 177.775 364.085C178.159 365.072 178.744 365.937 179.532 366.68C180.319 367.423 181.191 367.951 182.147 368.265C182.351 368.264 182.549 368.287 182.742 368.333L181.11 369.954Z" fill="url(#paint0_linear_189_546)"/>
<path d="M202.319 383.441C204.417 383.556 206.387 383.141 208.23 382.195C210.073 381.249 211.564 379.91 212.704 378.179C213.844 376.448 214.471 374.533 214.585 372.432C214.671 370.842 214.452 369.325 213.929 367.882C213.406 366.433 212.634 365.138 211.614 363.999C210.599 362.86 209.404 361.954 208.027 361.283C206.651 360.605 205.169 360.223 203.58 360.135C201.458 360.019 199.466 360.433 197.606 361.378C195.751 362.323 194.247 363.667 193.095 365.41C191.942 367.146 191.31 369.059 191.197 371.147C191.084 373.235 191.507 375.206 192.465 377.058C193.422 378.911 194.773 380.408 196.514 381.551C198.262 382.695 200.198 383.324 202.32 383.44L202.319 383.441ZM202.113 385.912C199.571 385.773 197.25 385.011 195.148 383.626C193.053 382.235 191.431 380.418 190.284 378.176C189.137 375.934 188.632 373.547 188.769 371.015C188.907 368.458 189.668 366.122 191.05 364.007C192.433 361.892 194.241 360.261 196.474 359.114C198.713 357.961 201.103 357.454 203.645 357.594C206.198 357.734 208.532 358.5 210.645 359.891C212.759 361.278 214.389 363.098 215.535 365.352C216.688 367.606 217.195 370.011 217.057 372.568C216.92 375.1 216.157 377.418 214.769 379.521C213.381 381.623 211.561 383.251 209.31 384.403C207.065 385.55 204.666 386.053 202.112 385.912L202.113 385.912Z" fill="url(#paint1_linear_189_546)"/>
<path d="M224.569 372.432C223.175 372.606 221.844 372.418 220.577 371.867C219.31 371.317 218.24 370.494 217.364 369.397C216.495 368.3 215.926 367.065 215.658 365.693C215.562 364.639 215.656 363.601 215.94 362.578C216.229 361.554 216.69 360.619 217.322 359.771C217.96 358.922 218.735 358.228 219.648 357.69C220.56 357.147 221.567 356.806 222.669 356.669C224.021 356.5 225.334 356.697 226.608 357.258C227.889 357.82 228.958 358.653 229.816 359.757C230.673 360.856 231.187 362.082 231.357 363.436C231.519 364.736 231.288 366.055 230.663 367.393L223.521 382.767L233.689 381.499L233.991 383.914L219.614 385.708L228.312 367.023C228.878 365.795 229.095 364.651 228.961 363.589C228.85 362.694 228.494 361.881 227.894 361.151C227.3 360.419 226.564 359.872 225.684 359.509C224.809 359.139 223.93 359.01 223.048 359.12C222.125 359.235 221.268 359.615 220.477 360.258C219.686 360.902 219.07 361.685 218.629 362.606C218.193 363.526 218.007 364.455 218.07 365.393C218.251 366.406 218.694 367.308 219.398 368.098C220.102 368.889 220.952 369.494 221.949 369.915C222.945 370.336 223.946 370.526 224.951 370.486C225.142 370.414 225.336 370.366 225.532 370.341L224.569 372.432Z" fill="url(#paint2_linear_189_546)"/>
<path d="M240.669 369.355C239.31 369.712 237.967 369.702 236.639 369.325C235.31 368.947 234.139 368.273 233.127 367.302C232.12 366.33 231.393 365.182 230.945 363.858C230.711 362.825 230.666 361.783 230.811 360.732C230.962 359.679 231.295 358.69 231.809 357.766C232.329 356.84 233.005 356.049 233.839 355.395C234.671 354.735 235.624 354.264 236.698 353.981C238.015 353.634 239.343 353.655 240.68 354.043C242.024 354.428 243.193 355.112 244.19 356.094C245.185 357.069 245.856 358.216 246.203 359.535C246.537 360.803 246.483 362.141 246.04 363.55L240.999 379.738L250.909 377.131L251.529 379.486L237.517 383.172L243.661 363.495C244.06 362.203 244.123 361.04 243.85 360.005C243.621 359.134 243.161 358.375 242.47 357.73C241.785 357.084 240.982 356.639 240.061 356.397C239.145 356.147 238.258 356.135 237.398 356.361C236.499 356.597 235.699 357.087 235.001 357.83C234.303 358.573 233.796 359.431 233.48 360.403C233.164 361.371 233.102 362.316 233.295 363.239C233.609 364.219 234.167 365.054 234.97 365.745C235.772 366.435 236.695 366.922 237.738 367.207C238.781 367.493 239.799 367.548 240.79 367.374C240.969 367.278 241.154 367.204 241.346 367.153L240.669 369.355Z" fill="url(#paint3_linear_189_546)"/>
<path d="M338.646 209.597C338.646 243.508 325.195 276.031 301.252 300.01C277.309 323.989 244.836 337.461 210.975 337.461C177.115 337.461 144.641 323.989 120.699 300.01C96.7557 276.031 83.3047 243.508 83.3047 209.597C83.3047 192.805 86.6069 176.178 93.023 160.665C99.439 145.152 108.843 131.056 120.698 119.183C132.554 107.31 146.628 97.8913 162.118 91.4655C177.608 85.0397 194.209 81.7324 210.975 81.7324C227.741 81.7324 244.343 85.0397 259.833 91.4655C275.322 97.8913 289.397 107.31 301.252 119.183C313.107 131.056 322.511 145.152 328.927 160.665C335.344 176.178 338.646 192.805 338.646 209.597Z" stroke="#9638FF" stroke-width="0.512844" stroke-linecap="square"/>
<path d="M210.98 27C115.764 27 37.579 100.146 29.3799 193.377H32.5668C40.7495 101.872 117.479 30.1746 210.98 30.1746C304.481 30.1746 381.209 101.872 389.392 193.377H392.572C384.374 100.146 306.196 27 210.98 27ZM29.3817 225.817C37.5834 319.047 115.766 392.193 210.98 392.193C306.194 392.193 384.371 319.047 392.572 225.817H389.392C381.206 317.321 304.479 389.02 210.98 389.02C117.481 389.02 40.7524 317.321 32.5668 225.817H29.3817Z" fill="url(#paint4_linear_189_546)"/>
<path d="M207.265 317.315L205.336 315.181V276.473V237.764H202.552C201.021 237.764 195.646 238.516 190.609 239.436C185.572 240.355 168.08 243.293 151.739 245.964L122.027 250.821L115.861 250.319L109.696 249.817L106.663 250.849C106.663 250.849 103.91 246.634 103.384 245.118C102.858 243.602 102.957 237.281 106.884 230.247C109.389 223.727 113.967 220.273 119.128 215.926L127.145 209.174L117.938 208.55L108.73 207.927L105.766 205.138C105.766 205.138 103.3 203.524 102.801 202.349C102.077 197.603 104.658 192.248 106.694 188.753C112.947 177.291 125.24 169.366 135.038 160.746C148.537 148.873 168.645 131.281 179.724 121.654C190.803 112.027 201.754 102.455 204.058 100.385L208.249 96.6192L211.22 96.5898C212.854 96.5898 214.821 97.1929 215.59 97.9631L216.988 99.3632V138.222V177.081H218.216C218.892 177.081 236.851 174.153 258.124 170.573C258.124 170.573 293.395 163.796 296.802 164.066C300.209 164.335 309.253 163.513 313.142 167.121C315.797 168.792 317.169 171.868 317.775 174.747C318.382 177.625 319.106 184.68 316.898 188.952C315.958 190.774 312.315 193.081 307.69 197.267L299.279 204.879L304.753 205.701C314.121 205.812 317.48 211.278 318.858 215.235C320.236 219.192 318.055 226.905 314.92 231.986C311.785 237.066 214.332 319.446 211.182 319.446C210.086 319.446 208.323 318.486 207.262 317.312L207.265 317.315ZM262.135 267.652C288.892 244.298 311.702 223.606 312.823 221.67C313.945 219.734 314.862 216.825 314.862 215.205C315.14 205.148 297.115 207.702 295.637 207.783L282.82 208.421L290.976 201.275C295.462 197.345 302.672 190.59 306.998 186.263L314.862 178.396V174.822C314.862 170.261 311.546 166.945 305.897 165.858C305.897 165.858 303.713 165.236 301.463 165.005C299.213 164.774 258.934 172.075 258.934 172.075C235.543 175.964 215.934 178.865 215.359 178.522L214.312 177.899L215.034 142.775C215.431 123.457 215.368 105.551 214.896 102.983L214.036 98.3156H211.452H208.869L162.325 138.912C114.078 180.993 109.153 185.667 107.934 190.533C106.852 193.228 107.587 194.019 109.079 196.301L110.952 199.164L115.661 200.433L120.37 201.703L129.699 200.337C134.829 199.586 139.235 199.18 139.49 199.435C139.744 199.69 133.49 205.527 125.592 212.406C119.486 218.127 111.907 223.941 109.245 229.104C106.583 234.267 107.249 233.252 107.986 236.189L108.711 239.085L112.71 240.758C118.847 243.326 123.355 242.914 164.556 236.013C185.634 232.484 203.957 229.596 205.273 229.596H207.667V269.077C207.667 290.791 208.017 308.908 208.444 309.336C208.871 309.764 210.181 310.114 211.354 310.114C212.527 310.114 235.379 291.006 262.136 267.652L262.135 267.652ZM215.451 297.683C214.466 296.696 214.591 278.735 215.632 271.504L216.404 266.152L243.996 242.048L271.588 217.944L286.44 215.527C290.433 215.72 310.698 211.261 310.698 217.577C310.698 220.36 301.641 224.041 258.933 261.102C238.746 278.619 220.882 294.195 219.236 295.714C217.589 297.234 215.885 298.12 215.449 297.683H215.451ZM225.463 288.368C227.53 286.497 245.368 270.868 265.102 253.637C284.836 236.405 300.797 222.121 300.571 221.895C300.346 221.669 294.287 222.491 287.11 223.724L274.062 225.966L245.525 250.179L216.988 274.392V284.734V295.076L219.345 293.423C220.642 292.513 223.394 290.239 225.463 288.368ZM215.598 241.85C215.794 233.826 216.319 227.257 216.763 227.25C217.207 227.249 225.173 225.936 234.466 224.344C243.758 222.752 252.518 221.444 253.932 221.438L256.504 221.409L250.787 226.765C247.642 229.711 244.591 231.825 244.006 231.463C243.096 230.9 227.836 233.031 219.61 234.87L216.988 235.456V244.87V254.284L229.855 242.953C236.932 236.721 243.93 231.137 244.24 231.447C244.854 232.062 217.354 256.416 216.044 256.419C215.602 256.42 215.401 249.856 215.598 241.832V241.85ZM115.619 234.187C115.619 231.167 119.121 227.491 136.455 212.318L154.897 196.175L178.078 192.349C190.827 190.245 202.7 188.246 204.463 187.908L207.667 187.294V204.664V222.034L167.177 228.764C144.908 232.466 124.197 235.48 121.153 235.462L115.619 235.433V234.187ZM164.847 227.613L205.336 220.865V208.31V195.754H204.199C199.066 195.754 153.258 204.275 151.829 205.495C150.818 206.359 143.044 212.971 134.552 220.191C126.061 227.409 119.114 233.529 119.114 233.789C119.114 234.984 127.062 233.909 164.847 227.613V227.613ZM215.434 219.482C214.422 218.468 214.554 196.515 215.607 190.568L216.423 185.964L256.03 179.226C277.813 175.52 298.127 172.471 301.17 172.451L304.448 174.112L306.705 174.503C309.611 175.006 302.302 182.062 286.315 195.835C278.624 202.459 271.281 208.798 269.996 209.922L267.658 211.963L243.003 216.112C215.942 220.665 216.541 220.592 215.433 219.482L215.434 219.482ZM244.118 214.316L267.169 210.547L269.751 208.272C271.172 207.021 279.022 200.195 287.198 193.104C295.373 186.013 301.925 180.075 301.759 179.909C301.458 179.606 248.211 188.151 227.766 191.782L216.988 193.696V206.473V219.25L219.027 218.669C220.149 218.348 231.439 216.39 244.118 214.316V214.316ZM116.049 192.862C115.685 191.913 116.357 189.845 117.542 188.266C120.212 184.71 205.237 110.568 206.646 110.568C207.208 110.568 207.667 117.362 207.667 125.665V140.762L181.096 163.997C166.482 176.777 153.243 188.035 151.675 189.016C148.962 190.713 126.811 194.608 119.951 194.594C118.169 194.592 116.413 193.811 116.049 192.862V192.862ZM140.533 190.298L150.884 188.453L178.11 164.609L205.336 140.764V129.751C205.336 123.693 205.111 118.737 204.835 118.737C204.561 118.737 196.515 125.432 186.958 133.615C177.401 141.798 158.226 158.155 144.348 169.963C130.469 181.772 119.114 191.94 119.114 192.559V193.686L124.648 192.914C127.692 192.49 134.841 191.312 140.533 190.298V190.298ZM166.886 186.688C166.886 185.716 204.723 152.299 206.609 151.605L207.667 151.217V165.808V180.399L204.463 181.05C202.7 181.409 194.704 182.769 186.694 184.073C178.683 185.378 170.949 186.712 169.508 187.038C168.066 187.364 166.886 187.208 166.886 186.688V186.688ZM191.843 181.733C198.841 180.46 204.739 179.417 204.951 179.417C205.161 179.417 205.336 175.217 205.336 170.082C205.336 164.947 205.041 160.746 204.679 160.746C204.131 160.746 184.192 177.382 178.579 182.523C176.404 184.514 176.649 184.5 191.843 181.733H191.843Z" fill="#9638FF"/>
<path d="M210.728 106.108L208.233 106.113C207.591 106.114 206.972 106.345 206.487 106.766L189.298 121.755C149.114 156.795 128.618 174.688 117.889 184.644C112.525 189.622 109.598 192.602 107.787 194.908C105.976 197.215 105.301 199.087 104.893 200.656C104.893 200.658 104.893 200.66 104.893 200.661L104.319 202.883C104.226 203.242 104.21 203.618 104.27 203.984C104.33 204.351 104.466 204.701 104.669 205.011L106.483 207.793L108.298 210.575C108.654 211.121 109.197 211.517 109.825 211.69L114.465 212.962L119.11 214.238C119.465 214.336 119.836 214.359 120.2 214.306L126.902 213.332C129.543 212.949 130.564 212.862 132.238 212.655C130.94 213.867 129.771 214.971 128.104 216.483C122.914 221.193 116.353 226.979 110.934 231.555C109.272 232.958 108.21 234.541 106.522 238.073C105.536 240.138 104.999 241.181 104.674 242.375C104.349 243.568 104.549 244.858 104.752 245.682C105.294 247.885 105.312 249.133 106.503 250.607C107.694 252.081 108.992 252.303 110.798 253.023L114.183 254.373C114.5 254.499 114.839 254.564 115.18 254.563L121.085 254.538C128.117 254.508 130.479 254.195 166.48 248.273C181.066 245.874 190.466 244.351 196.462 243.431C201.775 242.616 203.783 242.413 204.706 242.35L204.741 273.375C204.758 289.848 204.814 301.228 204.93 308.58C204.989 312.257 205.062 314.92 205.154 316.745C205.2 317.657 205.249 318.354 205.314 318.917C205.347 319.199 205.381 319.44 205.446 319.726C205.51 320.012 205.241 320.253 206.253 321.265C206.763 321.775 206.962 321.798 207.172 321.899C207.383 321.999 207.566 322.07 207.756 322.137C208.136 322.272 208.537 322.386 208.967 322.478C209.499 322.593 210.398 322.677 211.239 322.463C212.079 322.251 212.773 321.867 213.559 321.353C215.13 320.324 217.228 318.621 221.137 315.439C244.184 296.673 298.143 249.349 311.009 236.572C312.499 235.092 313.429 234.147 314.175 233.133C314.921 232.119 315.379 231.063 315.751 229.966C316.345 228.214 316.651 226.361 316.636 224.564L316.616 222.304C316.613 221.904 316.52 221.51 316.344 221.15C316.168 220.791 315.913 220.476 315.6 220.229L312.618 217.881C311.803 217.239 311.232 216.69 310.332 216.137C309.432 215.583 308.262 215.204 306.995 215.075C304.463 214.817 301.031 215.104 293.148 215.508C291.635 215.586 290.535 215.633 289.213 215.693C296.236 209.537 301.787 204.39 309.165 197.143L315.853 190.572C316.106 190.323 316.307 190.025 316.444 189.698C316.581 189.37 316.651 189.018 316.65 188.662L316.645 185.842C316.635 182.544 315.78 179.536 313.625 177.395C311.47 175.253 308.458 174.138 304.558 173.337L301.475 172.704C301.154 172.637 300.824 172.631 300.502 172.684L271.513 177.492C256.417 179.994 243.765 182.034 234.356 183.488C224.948 184.942 218.622 185.817 216.807 185.953C216.666 185.963 216.563 185.956 216.423 185.963C216.411 185.524 216.39 185.332 216.389 184.668C216.384 181.909 216.47 177.12 216.652 169.133C216.956 155.719 217.115 142.13 217.123 131.541C217.128 126.246 217.093 121.705 217.021 118.295C216.985 116.59 216.942 115.17 216.885 114.062C216.828 112.955 216.811 112.306 216.637 111.505C216.448 110.635 216.325 109.988 216.155 109.357C215.986 108.725 215.788 107.963 215.017 107.194C214.247 106.425 213.168 106.177 212.522 106.127C211.876 106.076 211.38 106.107 210.727 106.107L210.728 106.108ZM204.245 125.277C204.306 126.223 204.373 127.094 204.425 128.322C204.58 132.006 204.682 136.754 204.682 141.465V149.809L194.424 158.753C176.404 174.464 165.535 183.902 158.932 189.516C152.329 195.129 149.652 197.014 149.432 197.12C149.296 197.185 148.105 197.598 146.587 197.982C145.069 198.365 143.115 198.799 140.94 199.234C136.592 200.104 131.345 200.988 126.713 201.587C126.711 201.587 126.71 201.587 126.708 201.587C126.706 201.587 126.704 201.587 126.703 201.587C124.796 201.833 122.619 201.995 120.856 202.045C119.975 202.07 119.195 202.067 118.629 202.04C118.11 202.015 117.787 201.914 118.05 202.015C118.042 201.918 118.019 201.531 118.381 200.821C118.722 200.151 120.821 197.877 132.739 187.269C148.67 173.089 167.162 156.925 181.787 144.314C189.1 138.008 195.446 132.591 200.018 128.759C201.802 127.264 203.056 126.242 204.244 125.276L204.245 125.277ZM204.634 165.933C204.679 168.125 204.707 170.841 204.707 176.027V188.512C203.407 188.736 195.762 190.035 186.116 191.674C181.1 192.526 176.492 193.298 173.013 193.866C176.307 190.756 181.185 186.256 189.594 178.881C197.145 172.261 201.637 168.365 204.308 166.182C204.468 166.051 204.486 166.052 204.634 165.933V165.933ZM302.429 185.175H303.45C303.435 185.239 303.409 185.426 303.406 185.433C303.145 186.059 301.45 188.339 297.263 192.321C293.077 196.304 286.454 202.152 276.319 210.886C273.376 213.422 270.62 215.748 268.566 217.438C267.539 218.283 266.685 218.973 266.09 219.435C265.868 219.608 265.73 219.71 265.594 219.81C265.346 219.856 264.882 219.945 263.896 220.117C262.667 220.332 260.992 220.615 259.018 220.95C255.07 221.621 249.919 222.486 244.688 223.357C234.226 225.099 223.31 226.886 221.341 227.166C218.813 227.526 217.73 227.656 217.1 227.707C217.044 227.423 216.987 227.23 216.935 226.728C216.767 225.123 216.675 222.482 216.662 218.666C216.647 213.773 216.888 208.398 217.246 204.198C217.425 202.098 217.636 200.281 217.844 199.02C217.9 198.68 217.948 198.516 218 198.269C218.298 198.205 218.574 198.141 218.919 198.084C220.235 197.868 233.763 195.593 249.139 193.003C284.183 187.101 297.8 185.175 302.429 185.175V185.175ZM204.707 200.408V214.71V230.03C203.548 230.249 200.534 230.785 195.421 231.638C189.601 232.609 182.005 233.857 174.078 235.141C158.224 237.708 141.015 240.433 134.057 241.444C128.404 242.266 122.139 242.949 119.665 243.047L117.996 243.11C118.028 243.05 117.996 243.034 118.035 242.964C118.413 242.29 119.281 241.16 120.944 239.452C124.271 236.036 130.67 230.326 142.326 220.103L155.352 208.679L178.689 204.802C191.619 202.653 202.551 200.809 204.706 200.408H204.707ZM303.543 226.562C303.52 226.674 303.44 226.992 303.484 226.908C302.283 229.215 296.352 234.981 249.557 275.66C236.568 286.952 223.772 298.096 221.064 300.48C219.745 301.641 218.424 302.773 217.377 303.646C217.087 303.888 217.126 303.851 216.862 304.06C216.852 303.753 216.834 303.546 216.828 303.198C216.792 301.282 216.799 298.803 216.843 296.213C216.928 291.031 217.18 285.292 217.47 282.821C217.635 281.415 217.812 280.052 217.966 279.017C218.034 278.559 218.094 278.202 218.146 277.906C218.149 277.904 218.149 277.904 218.151 277.901C218.51 277.559 219.065 277.045 219.771 276.401C221.184 275.111 223.224 273.277 225.734 271.042C230.754 266.573 237.648 260.5 245.2 253.905L272.107 230.405L277.171 229.577C294.184 226.798 301.55 226.233 303.543 226.562L303.543 226.562ZM248.356 235.024C246.439 236.674 244.119 238.725 243.633 238.979C243.047 239.286 242.904 239.449 242.568 239.72C242.232 239.991 241.849 240.321 241.42 240.699C240.562 241.454 239.531 242.407 238.502 243.402C232.946 248.774 222.251 258.101 217.586 261.806C217.542 259.68 217.531 257.032 217.572 254.187C217.657 248.291 217.963 241.9 218.272 239.603L228.297 237.932C242.076 235.636 245.164 235.33 248.356 235.024H248.356ZM218.292 239.242L218.287 239.286C218.287 239.281 218.286 239.257 218.287 239.252C218.288 239.249 218.29 239.245 218.292 239.242V239.242Z" fill="url(#paint5_linear_189_546)"/>
<path d="M210.979 70.2812C139.572 70.2812 80.7257 124.192 72.792 193.581H74.6527C82.5715 125.197 140.57 72.1267 210.979 72.1267C281.387 72.1267 339.386 125.197 347.305 193.581H349.16C341.226 124.192 282.386 70.2812 210.979 70.2812ZM72.792 225.611C80.728 294.999 139.574 348.911 210.979 348.911C282.384 348.911 341.224 294.783 349.16 225.395H347.305C339.383 293.777 281.385 347.064 210.979 347.064C140.572 347.064 82.5741 293.994 74.6527 225.611H72.792Z" fill="url(#paint6_linear_189_546)"/>
<path d="M411.961 224.896H347.305" stroke="#DADADA" stroke-width="0.621648"/>
<path d="M412 193.756H347.305" stroke="#DADADA" stroke-width="0.637189"/>
<path d="M88.5193 209.597C88.5193 210.982 87.97 212.31 86.9921 213.29C86.0143 214.269 84.688 214.819 83.3051 214.819C81.9222 214.819 80.5959 214.269 79.6181 213.29C78.6402 212.31 78.0908 210.982 78.0908 209.597C78.0908 208.911 78.2257 208.232 78.4877 207.599C78.7498 206.965 79.1338 206.389 79.618 205.905C80.1022 205.42 80.6771 205.035 81.3097 204.773C81.9423 204.51 82.6203 204.375 83.3051 204.375C83.9898 204.375 84.6679 204.51 85.3005 204.773C85.9331 205.035 86.5079 205.42 86.9921 205.905C87.4763 206.389 87.8604 206.965 88.1224 207.599C88.3844 208.232 88.5193 208.911 88.5193 209.597V209.597Z" fill="#DADADA"/>
<path d="M343.86 209.597C343.86 210.283 343.725 210.962 343.463 211.596C343.201 212.229 342.817 212.805 342.333 213.29C341.849 213.775 341.274 214.159 340.641 214.422C340.009 214.684 339.331 214.819 338.646 214.819C337.263 214.819 335.937 214.269 334.959 213.29C333.981 212.31 333.432 210.982 333.432 209.597C333.432 208.911 333.567 208.232 333.829 207.599C334.091 206.965 334.475 206.389 334.959 205.905C335.443 205.42 336.018 205.035 336.65 204.773C337.283 204.51 337.961 204.375 338.646 204.375C339.331 204.375 340.009 204.51 340.641 204.773C341.274 205.035 341.849 205.42 342.333 205.905C342.817 206.389 343.201 206.965 343.463 207.599C343.725 208.232 343.86 208.911 343.86 209.597V209.597Z" fill="#D9D9D9"/>
<path d="M74.6559 225H10" stroke="#DADADA" stroke-width="0.621648"/>
<path d="M74.7849 193.857H10.0898" stroke="#DADADA" stroke-width="0.637189"/>
<path d="M211.051 64.5488C136.707 64.5488 75.3672 121.038 67.107 193.283H69.0444C77.2891 122.085 137.746 66.4703 211.051 66.4703C284.357 66.4703 344.67 122.085 352.914 193.283H354.846C346.586 121.038 285.396 64.5488 211.051 64.5488ZM66.9629 225.476C75.2254 297.719 136.709 354.643 211.051 354.643C285.394 354.643 346.728 297.575 354.99 225.332H353.058C344.811 296.527 284.355 352.72 211.051 352.72C137.748 352.72 77.1476 296.672 68.9002 225.476H66.9629Z" fill="#9638FF"/>
<path d="M131.441 63.5962L140.692 70.2853C141.885 71.1438 142.738 72.0547 143.252 73.0179C143.969 74.3623 143.991 75.685 143.316 76.9862C142.642 78.2875 141.484 79.3771 139.844 80.2552L136.935 81.812L135.822 79.726L138.792 78.1362C141.003 76.9525 141.731 75.6524 140.975 74.2359C140.514 73.3706 139.62 72.4818 138.293 71.5694L129.133 64.8308C128.436 64.3168 127.762 63.5382 127.113 62.495C126.462 61.1881 126.237 59.9178 126.439 58.6843C126.64 57.4508 127.391 56.4859 128.692 55.7895L131.477 54.2988L132.594 56.3927L130.498 57.4256C129.767 57.8165 129.261 58.3618 128.98 59.0619C128.704 59.7592 128.728 60.4914 129.051 61.2586C129.283 61.6442 129.57 62.0036 129.913 62.3366C130.254 62.6644 130.594 62.9621 130.936 63.2297C131.282 63.4947 131.45 63.6168 131.439 63.5962H131.441Z" fill="url(#paint7_linear_189_546)"/>
<path d="M144.452 55.182L148.703 53.3522L150.459 55.1804L145.388 57.363L151.584 71.8022L155.899 69.9447L156.832 72.1177L150.411 74.8816L143.282 58.2694L142.165 58.7502L140.538 56.8665L142.347 56.0882L139.801 50.1565L146.222 47.3926L147.127 49.5014L142.811 51.3589L144.452 55.182Z" fill="url(#paint8_linear_189_546)"/>
<path d="M163.166 51.0436L164.438 41.1523L177.111 65.4455L174.748 66.1537L165.804 48.8722L164.45 55.3407L159.561 50.7431L162.077 69.9509L159.747 70.6489L156.268 43.601L163.166 51.0436Z" fill="url(#paint9_linear_189_546)"/>
<path d="M181.04 40.5429L181.599 43.7977L185.728 43.0861L185.169 39.8314C185.101 39.4342 184.847 39.1638 184.408 39.0202C183.969 38.8766 183.469 38.8532 182.905 38.9502C182.325 39.0501 181.851 39.2412 181.486 39.5235C181.12 39.8058 180.972 40.1455 181.04 40.5427V40.5429ZM185.062 63.9569L182.726 64.3595L179.665 46.5398L178.466 46.7463L177.323 44.5344L179.263 44.2001L178.704 40.9452C178.558 40.0934 178.655 39.3507 178.996 38.7172C179.337 38.0836 179.82 37.5885 180.445 37.2319C181.076 36.8743 181.756 36.6326 182.486 36.5068C183.687 36.2998 184.771 36.4124 185.739 36.8442C186.712 37.2692 187.309 38.1292 187.531 39.4242L191.554 62.8383L189.192 63.2453L186.131 45.4258L182.001 46.1373L185.062 63.9569Z" fill="url(#paint10_linear_189_546)"/>
<path d="M196.574 62.2745L194.22 62.4678L192.014 35.5062L199.652 38.7643L199.348 35.0449L201.702 34.8516L203.897 61.6734L201.543 61.8668L199.869 41.4097L194.686 39.2071L196.574 62.2745Z" fill="url(#paint11_linear_189_546)"/>
<path d="M211.225 37.7524L211.196 41.055L215.385 41.0814L215.414 37.7788C215.414 37.3759 215.212 37.0649 214.808 36.8462C214.401 36.6274 213.912 36.5163 213.341 36.5126C212.752 36.5087 212.252 36.6134 211.843 36.8269C211.433 37.0403 211.227 37.3485 211.225 37.7515V37.7524ZM211.07 61.5101L208.699 61.4954L208.816 43.4145L207.6 43.4056L206.863 41.0267L208.832 41.0384L208.861 37.7358C208.861 36.8715 209.087 36.1575 209.54 35.5939C209.987 35.0303 210.549 34.6282 211.227 34.3873C211.911 34.1465 212.623 34.0285 213.364 34.0333C214.582 34.0412 215.63 34.3429 216.507 34.9387C217.389 35.5285 217.826 36.4804 217.818 37.7944L217.663 61.552L215.266 61.5374L215.383 43.4563L211.193 43.4301L211.07 61.5101Z" fill="url(#paint12_linear_189_546)"/>
<path d="M233.835 60.6432C235.432 60.9201 236.924 60.9039 238.312 60.5946C239.705 60.2863 240.952 59.7277 242.053 58.9188C243.155 58.1042 244.073 57.0855 244.807 55.8628C245.542 54.6344 246.054 53.251 246.342 51.7128C246.449 51.1388 246.542 50.3777 246.62 49.4295C246.772 43.4681 244.123 39.9744 238.672 38.9485C238.586 38.9329 238.453 38.9137 238.273 38.8913C238.094 38.8692 237.955 38.8492 237.857 38.8311L233.835 60.6432ZM236.041 36.082L239.669 36.7651C240.901 36.997 242.088 37.3899 243.23 37.9436C244.378 38.4984 245.421 39.28 246.359 40.2885C247.297 41.297 248.027 42.6082 248.549 44.2218C249.072 45.8296 249.261 47.7341 249.115 49.935C249.062 50.7512 248.959 51.5724 248.804 52.3989C248.406 54.5169 247.709 56.3348 246.712 57.8527C245.715 59.3705 244.538 60.5664 243.182 61.4401C241.831 62.3149 240.417 62.8924 238.94 63.173C237.464 63.4536 236.052 63.4672 234.705 63.2137L231.077 62.5309L236.041 36.082Z" fill="url(#paint13_linear_189_546)"/>
<path d="M258.876 47.7329L263.314 49.0483L263.495 51.5783L258.202 50.0093L253.748 65.0791L258.252 66.4143L257.582 68.6823L250.881 66.6957L256.005 49.3579L254.839 49.0123L254.789 46.522L256.676 47.0814L258.506 40.8906L265.208 42.8773L264.557 45.078L260.053 43.7428L258.876 47.7329Z" fill="url(#paint14_linear_189_546)"/>
<path d="M282.086 58.293L282.198 69.7209C282.217 71.1913 281.991 72.4195 281.519 73.4053C280.863 74.7811 279.813 75.5831 278.367 75.8113C276.921 76.0395 275.359 75.7527 273.68 74.9508L270.703 73.5291L271.72 71.3941L274.759 72.846C277.023 73.927 278.5 73.7425 279.19 72.2929C279.611 71.4073 279.795 70.159 279.742 68.5483L279.713 57.1656C279.712 56.2983 279.938 55.2934 280.392 54.1512C281.056 52.8509 281.944 51.9162 283.055 51.3468C284.166 50.7774 285.387 50.8107 286.719 51.4467L289.569 52.8078L288.549 54.9508L286.475 53.8728C285.727 53.5159 284.989 53.4316 284.259 53.6204C283.535 53.8116 282.961 54.2652 282.536 54.981C282.364 55.3969 282.246 55.842 282.182 56.316C282.119 56.7848 282.082 57.2361 282.07 57.67C282.07 58.1064 282.07 58.3141 282.07 58.293H282.086Z" fill="url(#paint15_linear_189_546)"/>
<path d="M284.561 80.4939L282.56 79.3761L295.645 55.8711L297.647 56.9889L284.561 80.4939Z" fill="url(#paint16_linear_189_546)"/>
<path d="M125.031 71.7349C125.463 72.4206 125.605 73.2502 125.426 74.041C125.248 74.8318 124.762 75.5192 124.078 75.9518C123.393 76.3845 122.565 76.5271 121.775 76.3481C120.986 76.1692 120.299 75.6834 119.867 74.9977C119.653 74.6581 119.508 74.2797 119.44 73.884C119.372 73.4883 119.383 73.0832 119.472 72.6916C119.56 72.3 119.725 71.9297 119.956 71.6018C120.187 71.2739 120.481 70.9949 120.82 70.7807C121.159 70.5665 121.537 70.4212 121.932 70.3532C122.327 70.2852 122.732 70.2959 123.123 70.3845C123.514 70.4731 123.883 70.6379 124.211 70.8696C124.538 71.1013 124.817 71.3954 125.031 71.7349V71.7349Z" fill="url(#paint17_linear_189_546)"/>
<path d="M301.995 74.983C301.78 75.3218 301.5 75.615 301.172 75.8456C300.844 76.0763 300.474 76.2399 300.082 76.3272C299.691 76.4145 299.287 76.4238 298.892 76.3545C298.497 76.2852 298.119 76.1387 297.781 75.9234C297.443 75.708 297.15 75.4281 296.92 75.0994C296.69 74.7708 296.526 74.4 296.439 74.0081C296.352 73.6162 296.342 73.211 296.412 72.8155C296.481 72.4201 296.627 72.0421 296.842 71.7033C297.057 71.3644 297.337 71.0713 297.665 70.8407C297.993 70.61 298.363 70.4464 298.755 70.3591C299.146 70.2718 299.55 70.2625 299.945 70.3318C300.34 70.4011 300.718 70.5476 301.056 70.7629C301.394 70.9782 301.687 71.2582 301.917 71.5869C302.147 71.9155 302.311 72.2863 302.398 72.6782C302.485 73.0701 302.495 73.4753 302.425 73.8708C302.356 74.2662 302.21 74.6442 301.995 74.983V74.983Z" fill="url(#paint18_linear_189_546)"/>
<path d="M163.326 365.408C163.153 365.77 162.91 366.094 162.612 366.362C162.313 366.63 161.965 366.837 161.587 366.97C161.209 367.103 160.808 367.161 160.408 367.139C160.008 367.117 159.616 367.017 159.254 366.843C158.893 366.669 158.569 366.426 158.301 366.127C158.034 365.829 157.827 365.48 157.694 365.101C157.561 364.722 157.504 364.321 157.526 363.92C157.547 363.519 157.648 363.127 157.821 362.765C157.994 362.403 158.237 362.078 158.536 361.81C158.834 361.542 159.182 361.336 159.56 361.202C159.939 361.069 160.339 361.012 160.739 361.034C161.14 361.055 161.532 361.156 161.893 361.329C162.255 361.503 162.579 361.746 162.846 362.045C163.114 362.344 163.32 362.693 163.453 363.071C163.586 363.45 163.644 363.851 163.622 364.252C163.6 364.653 163.5 365.046 163.326 365.408V365.408Z" fill="url(#paint19_linear_189_546)"/>
<path opacity="0.491259" d="M264.275 363.3C264.382 363.687 264.412 364.091 264.363 364.49C264.314 364.888 264.187 365.273 263.99 365.622C263.792 365.972 263.528 366.279 263.212 366.526C262.896 366.773 262.534 366.955 262.148 367.063C261.762 367.17 261.358 367.2 260.96 367.151C260.562 367.102 260.178 366.975 259.829 366.777C259.48 366.579 259.174 366.314 258.927 365.998C258.68 365.682 258.498 365.32 258.391 364.933C258.284 364.546 258.254 364.141 258.303 363.743C258.352 363.345 258.479 362.96 258.676 362.61C258.874 362.261 259.138 361.954 259.454 361.707C259.77 361.46 260.132 361.277 260.518 361.17C260.904 361.063 261.308 361.033 261.706 361.082C262.104 361.131 262.488 361.258 262.837 361.456C263.186 361.653 263.492 361.918 263.739 362.235C263.986 362.551 264.168 362.913 264.275 363.3V363.3Z" fill="url(#paint20_linear_189_546)"/>
<path d="M360.971 404.969L355.314 402.399L349.657 404.969L352.227 399.312L349.657 393.656L355.314 396.226L360.971 393.656L358.4 399.312L360.971 404.969Z" fill="#350F63"/>
<path d="M355.429 427L352.389 401.5L328 399.5L352.389 397L355.429 372L358.889 397L382.857 399.5L358.889 401.5L355.429 427Z" fill="#471384"/>
<path d="M355.5 404L354.272 400.728L351 399.5L354.272 398.272L355.5 395L356.728 398.272L360 399.5L356.728 400.728L355.5 404Z" fill="#893DE3" fill-opacity="0.5"/>
<path d="M414.971 82.9694L409.314 80.399L403.657 82.9694L406.227 77.3125L403.657 71.6556L409.314 74.226L414.971 71.6556L412.4 77.3125L414.971 82.9694Z" fill="#350F63"/>
<path d="M409.429 105L406.389 79.5L382 77.5L406.389 75L409.429 50L412.889 75L436.857 77.5L412.889 79.5L409.429 105Z" fill="#471384"/>
<path d="M409.5 82L408.272 78.7277L405 77.5L408.272 76.2723L409.5 73L410.728 76.2723L414 77.5L410.728 78.7277L409.5 82Z" fill="#893DE3" fill-opacity="0.5"/>
<path d="M395.44 103.987L392.869 102.819L390.298 103.987L391.466 101.416L390.298 98.8447L392.869 100.013L395.44 98.8447L394.272 101.416L395.44 103.987Z" fill="#350F63"/>
<path d="M392.922 114L391.54 102.409L380.454 101.5L391.54 100.364L392.922 89L394.494 100.364L405.389 101.5L394.494 102.409L392.922 114Z" fill="#471384"/>
<path d="M392.954 103.546L392.396 102.059L390.908 101.501L392.396 100.943L392.954 99.4551L393.512 100.943L394.999 101.501L393.512 102.059L392.954 103.546Z" fill="#893DE3" fill-opacity="0.5"/>
<path d="M33.9706 32.9694L28.3137 30.399L22.6569 32.9694L25.2272 27.3125L22.6569 21.6556L28.3137 24.226L33.9706 21.6556L31.4002 27.3125L33.9706 32.9694Z" fill="#350F63"/>
<path d="M28.4286 55L25.3887 29.5L1 27.5L25.3887 25L28.4286 0L31.8887 25L55.8571 27.5L31.8887 29.5L28.4286 55Z" fill="#471384"/>
<path d="M28.5 32L27.2723 28.7277L24 27.5L27.2723 26.2723L28.5 23L29.7277 26.2723L33 27.5L29.7277 28.7277L28.5 32Z" fill="#893DE3" fill-opacity="0.5"/>
<defs>
<filter id="filter0_b_189_546" x="-77298.7" y="-77298.7" width="155017" height="155017" filterUnits="userSpaceOnUse" color-interpolation-filters="sRGB">
<feFlood flood-opacity="0" result="BackgroundImageFix"/>
<feGaussianBlur in="BackgroundImage" stdDeviation="38649.3"/>
<feComposite in2="SourceAlpha" operator="in" result="effect1_backgroundBlur_189_546"/>
<feBlend mode="normal" in="SourceGraphic" in2="effect1_backgroundBlur_189_546" result="shape"/>
</filter>
<linearGradient id="paint0_linear_189_546" x1="251.468" y1="379.766" x2="175.782" y2="356.52" gradientUnits="userSpaceOnUse">
<stop stop-color="#DCDCDC"/>
<stop offset="0.23706" stop-color="#A9A9A9"/>
<stop offset="0.493821" stop-color="#9C9C9C"/>
<stop offset="0.621199" stop-color="#ACACAC"/>
<stop offset="1" stop-color="#DCDCDC"/>
</linearGradient>
<linearGradient id="paint1_linear_189_546" x1="251.453" y1="379.757" x2="175.777" y2="356.515" gradientUnits="userSpaceOnUse">
<stop stop-color="#DCDCDC"/>
<stop offset="0.23706" stop-color="#A9A9A9"/>
<stop offset="0.493821" stop-color="#9C9C9C"/>
<stop offset="0.621199" stop-color="#ACACAC"/>
<stop offset="1" stop-color="#DCDCDC"/>
</linearGradient>
<linearGradient id="paint2_linear_189_546" x1="251.451" y1="379.752" x2="175.77" y2="356.508" gradientUnits="userSpaceOnUse">
<stop stop-color="#DCDCDC"/>
<stop offset="0.23706" stop-color="#A9A9A9"/>
<stop offset="0.493821" stop-color="#9C9C9C"/>
<stop offset="0.621199" stop-color="#ACACAC"/>
<stop offset="1" stop-color="#DCDCDC"/>
</linearGradient>
<linearGradient id="paint3_linear_189_546" x1="251.448" y1="379.744" x2="175.769" y2="356.502" gradientUnits="userSpaceOnUse">
<stop stop-color="#DCDCDC"/>
<stop offset="0.23706" stop-color="#A9A9A9"/>
<stop offset="0.493821" stop-color="#9C9C9C"/>
<stop offset="0.621199" stop-color="#ACACAC"/>
<stop offset="1" stop-color="#DCDCDC"/>
</linearGradient>
<linearGradient id="paint4_linear_189_546" x1="29.798" y1="209.596" x2="392.16" y2="209.596" gradientUnits="userSpaceOnUse">
<stop stop-color="#DCDCDC"/>
<stop offset="0.127144" stop-color="#A9A9A9"/>
<stop offset="0.27916" stop-color="#9C9C9C"/>
<stop offset="0.731233" stop-color="#ACACAC"/>
<stop offset="1" stop-color="#DCDCDC"/>
</linearGradient>
<linearGradient id="paint5_linear_189_546" x1="136.892" y1="297.068" x2="299.03" y2="121.685" gradientUnits="userSpaceOnUse">
<stop stop-color="#D3D3D3"/>
<stop offset="0.21979" stop-color="#DBDBDB"/>
<stop offset="0.494979" stop-color="#A6A6A6"/>
<stop offset="0.67109" stop-color="#E5E5E5"/>
<stop offset="1" stop-color="#CDCDCD"/>
</linearGradient>
<linearGradient id="paint6_linear_189_546" x1="71.8724" y1="209.595" x2="350.083" y2="209.595" gradientUnits="userSpaceOnUse">
<stop stop-color="#DCDCDC"/>
<stop offset="0.23706" stop-color="#A9A9A9"/>
<stop offset="0.493821" stop-color="#9C9C9C"/>
<stop offset="0.621199" stop-color="#ACACAC"/>
<stop offset="1" stop-color="#DCDCDC"/>
</linearGradient>
<linearGradient id="paint7_linear_189_546" x1="124.303" y1="57.9021" x2="297.647" y2="57.9021" gradientUnits="userSpaceOnUse">
<stop stop-color="#EAEAEA"/>
<stop offset="0.23706" stop-color="#BFBFBF"/>
<stop offset="0.483615" stop-color="#919191"/>
<stop offset="0.748338" stop-color="#C1C1C1"/>
<stop offset="1" stop-color="#E6E6E6"/>
</linearGradient>
<linearGradient id="paint8_linear_189_546" x1="124.303" y1="57.9031" x2="297.647" y2="57.9031" gradientUnits="userSpaceOnUse">
<stop stop-color="#EAEAEA"/>
<stop offset="0.23706" stop-color="#BFBFBF"/>
<stop offset="0.483615" stop-color="#919191"/>
<stop offset="0.748338" stop-color="#C1C1C1"/>
<stop offset="1" stop-color="#E6E6E6"/>
</linearGradient>
<linearGradient id="paint9_linear_189_546" x1="124.302" y1="57.9031" x2="297.649" y2="57.9031" gradientUnits="userSpaceOnUse">
<stop stop-color="#EAEAEA"/>
<stop offset="0.23706" stop-color="#BFBFBF"/>
<stop offset="0.483615" stop-color="#919191"/>
<stop offset="0.748338" stop-color="#C1C1C1"/>
<stop offset="1" stop-color="#E6E6E6"/>
</linearGradient>
<linearGradient id="paint10_linear_189_546" x1="124.303" y1="57.9028" x2="297.648" y2="57.9028" gradientUnits="userSpaceOnUse">
<stop stop-color="#EAEAEA"/>
<stop offset="0.23706" stop-color="#BFBFBF"/>
<stop offset="0.483615" stop-color="#919191"/>
<stop offset="0.748338" stop-color="#C1C1C1"/>
<stop offset="1" stop-color="#E6E6E6"/>
</linearGradient>
<linearGradient id="paint11_linear_189_546" x1="124.305" y1="57.9023" x2="297.646" y2="57.9023" gradientUnits="userSpaceOnUse">
<stop stop-color="#EAEAEA"/>
<stop offset="0.23706" stop-color="#BFBFBF"/>
<stop offset="0.483615" stop-color="#919191"/>
<stop offset="0.748338" stop-color="#C1C1C1"/>
<stop offset="1" stop-color="#E6E6E6"/>
</linearGradient>
<linearGradient id="paint12_linear_189_546" x1="124.303" y1="57.9024" x2="297.648" y2="57.9024" gradientUnits="userSpaceOnUse">
<stop stop-color="#EAEAEA"/>
<stop offset="0.23706" stop-color="#BFBFBF"/>
<stop offset="0.483615" stop-color="#919191"/>
<stop offset="0.748338" stop-color="#C1C1C1"/>
<stop offset="1" stop-color="#E6E6E6"/>
</linearGradient>
<linearGradient id="paint13_linear_189_546" x1="124.303" y1="57.9032" x2="297.647" y2="57.9032" gradientUnits="userSpaceOnUse">
<stop stop-color="#EAEAEA"/>
<stop offset="0.23706" stop-color="#BFBFBF"/>
<stop offset="0.483615" stop-color="#919191"/>
<stop offset="0.748338" stop-color="#C1C1C1"/>
<stop offset="1" stop-color="#E6E6E6"/>
</linearGradient>
<linearGradient id="paint14_linear_189_546" x1="124.303" y1="57.9027" x2="297.647" y2="57.9027" gradientUnits="userSpaceOnUse">
<stop stop-color="#EAEAEA"/>
<stop offset="0.23706" stop-color="#BFBFBF"/>
<stop offset="0.483615" stop-color="#919191"/>
<stop offset="0.748338" stop-color="#C1C1C1"/>
<stop offset="1" stop-color="#E6E6E6"/>
</linearGradient>
<linearGradient id="paint15_linear_189_546" x1="124.303" y1="57.9024" x2="297.647" y2="57.9024" gradientUnits="userSpaceOnUse">
<stop stop-color="#EAEAEA"/>
<stop offset="0.23706" stop-color="#BFBFBF"/>
<stop offset="0.483615" stop-color="#919191"/>
<stop offset="0.748338" stop-color="#C1C1C1"/>
<stop offset="1" stop-color="#E6E6E6"/>
</linearGradient>
<linearGradient id="paint16_linear_189_546" x1="124.302" y1="57.9024" x2="297.647" y2="57.9024" gradientUnits="userSpaceOnUse">
<stop stop-color="#EAEAEA"/>
<stop offset="0.23706" stop-color="#BFBFBF"/>
<stop offset="0.483615" stop-color="#919191"/>
<stop offset="0.748338" stop-color="#C1C1C1"/>
<stop offset="1" stop-color="#E6E6E6"/>
</linearGradient>
<linearGradient id="paint17_linear_189_546" x1="119.867" y1="74.9976" x2="125.035" y2="71.7418" gradientUnits="userSpaceOnUse">
<stop stop-color="#CBCBCB"/>
<stop offset="0.127144" stop-color="#C0C0C0"/>
<stop offset="0.344613" stop-color="#A8A8A8"/>
<stop offset="0.68291" stop-color="#B1B1B1"/>
<stop offset="1" stop-color="#D4D4D4"/>
</linearGradient>
<linearGradient id="paint18_linear_189_546" x1="296.843" y1="71.7036" x2="302" y2="74.9763" gradientUnits="userSpaceOnUse">
<stop stop-color="#CBCBCB"/>
<stop offset="0.127144" stop-color="#C0C0C0"/>
<stop offset="0.344613" stop-color="#A8A8A8"/>
<stop offset="0.68291" stop-color="#B1B1B1"/>
<stop offset="1" stop-color="#D4D4D4"/>
</linearGradient>
<linearGradient id="paint19_linear_189_546" x1="157.821" y1="362.765" x2="163.329" y2="365.401" gradientUnits="userSpaceOnUse">
<stop stop-color="#CBCBCB"/>
<stop offset="0.127144" stop-color="#C0C0C0"/>
<stop offset="0.344613" stop-color="#A8A8A8"/>
<stop offset="0.68291" stop-color="#B1B1B1"/>
<stop offset="1" stop-color="#D4D4D4"/>
</linearGradient>
<linearGradient id="paint20_linear_189_546" x1="258.391" y1="364.933" x2="264.276" y2="363.305" gradientUnits="userSpaceOnUse">
<stop stop-color="#CBCBCB"/>
<stop offset="0.127144" stop-color="#C0C0C0"/>
<stop offset="0.344613" stop-color="#A8A8A8"/>
<stop offset="0.68291" stop-color="#B1B1B1"/>
<stop offset="1" stop-color="#D4D4D4"/>
</linearGradient>
</defs>
</svg>
