<svg width="198" height="48" viewBox="0 0 198 48" fill="none" xmlns="http://www.w3.org/2000/svg">
<g clip-path="url(#clip0_2494_5200)">
<path d="M22.6683 10.6866L28.105 5.25774C27.4965 4.68106 27.1147 4.34698 26.8642 4.14414C26.6136 3.94529 26.2278 3.65495 26.0091 3.49984C25.7903 3.34474 25.3608 3.07031 25.0546 2.88339C24.7483 2.70044 24.2392 2.42204 23.9211 2.26693C23.6029 2.11182 23.0938 1.88512 22.7876 1.76581C22.4813 1.64649 22.0319 1.48343 21.7933 1.40786C21.5547 1.32832 21.141 1.21298 20.8786 1.14537C20.6161 1.08174 20.2144 0.990264 19.9837 0.942538C19.753 0.898789 19.2996 0.823223 18.9695 0.779475C18.5244 0.717003 18.1138 0.696696 17.2673 0.684686V16.1472C17.2831 16.0998 19.7009 13.6539 22.6683 10.6866Z" fill="white"/>
<path d="M16.9213 32.1353C16.9213 32.1512 14.535 34.5017 11.6198 37.3573C9.89586 39.0506 8.32118 40.5947 7.29868 41.5973L7.29666 41.5993L7.29242 41.6034C6.59179 42.2904 6.15196 42.7217 6.10345 42.7702L5.8847 42.985C6.4415 43.5219 6.79945 43.8361 7.03807 44.0349C7.28068 44.2338 7.68237 44.54 7.93293 44.715C8.18349 44.894 8.61303 45.1724 8.88745 45.3355C9.16187 45.5025 9.65504 45.769 9.98116 45.936C10.3113 46.0991 10.872 46.3496 11.234 46.4928C11.5959 46.636 12.1606 46.8349 12.4868 46.9303C12.8169 47.0297 13.3339 47.165 13.6401 47.2286C13.9464 47.2962 14.4475 47.3877 14.7537 47.4314C15.06 47.4752 15.581 47.5309 15.9071 47.5587C16.1696 47.5787 16.5366 47.5905 16.9213 47.5896V32.1353Z" fill="white"/>
<path d="M15.3503 0.747658C15.1117 0.771521 14.6623 0.831178 14.356 0.886858C14.0498 0.938561 13.5487 1.04197 13.2424 1.11753C12.9362 1.1931 12.4152 1.34423 12.0891 1.45161C11.759 1.559 11.2698 1.74194 10.9953 1.85728C10.7209 1.97262 10.2516 2.18739 9.94935 2.33852C9.65106 2.48965 9.17778 2.74816 8.89938 2.9152C8.617 3.08224 8.21929 3.33678 8.01248 3.47996C7.80566 3.62711 7.41193 3.92142 7.1375 4.14017C6.86308 4.35891 6.34605 4.82821 5.98413 5.18218C5.62221 5.53614 5.15291 6.03727 4.93814 6.29976C4.72337 6.55827 4.38929 6.99178 4.19441 7.2662C3.99953 7.54063 3.70125 7.998 3.53023 8.28038C3.35921 8.56275 3.11263 9.01217 2.98138 9.27466C2.84616 9.53716 2.6473 9.96669 2.53594 10.2292C2.42458 10.4917 2.24163 10.9769 2.13027 11.303C2.01494 11.6331 1.84392 12.2217 1.74847 12.6155C1.64904 13.0092 1.53768 13.5541 1.49393 13.8285C1.45018 14.1029 1.39052 14.5126 1.36268 14.7432C1.33087 15.0097 1.31098 15.6182 1.31496 16.4136C1.31496 17.3602 1.33087 17.7937 1.38257 18.1835C1.42234 18.4659 1.48597 18.8994 1.52972 19.138C1.57347 19.3766 1.66892 19.826 1.74449 20.1323C1.82006 20.4385 1.95528 20.9237 2.04675 21.2061C2.13823 21.4885 2.30527 21.9459 2.41265 22.2203C2.52003 22.4947 2.73082 22.968 2.88195 23.2742C3.03309 23.5805 3.24785 23.9901 3.35921 24.189C3.47455 24.3878 3.68534 24.7259 3.82454 24.9446C3.96772 25.1634 4.23021 25.5412 4.40918 25.7798C4.58815 26.0185 4.86655 26.3685 5.02564 26.5554C5.18472 26.7423 5.53869 27.1241 5.81709 27.4065C6.09549 27.6889 6.50116 28.0746 6.7199 28.2616C6.93865 28.4525 7.29659 28.7388 7.51533 28.9059C7.73408 29.0689 8.05622 29.3036 8.23122 29.4189C8.40621 29.5382 8.7562 29.757 9.00676 29.9081C9.25732 30.0553 9.73458 30.3098 10.0607 30.4689C10.3908 30.632 10.88 30.8507 11.1544 30.9621C11.4288 31.0694 11.8743 31.2325 12.1487 31.32C12.4231 31.4115 12.8964 31.5467 13.2027 31.6223C13.5089 31.6978 13.9583 31.7973 14.1969 31.841C14.4356 31.8848 14.877 31.9484 15.1713 31.9842C15.4657 32.02 15.9827 32.0597 16.3168 32.0757C16.6508 32.0916 16.9213 32.1154 16.9213 32.1353V47.5896C17.0728 47.5893 17.227 47.5871 17.3787 47.5826C17.8599 47.5706 18.4883 47.5309 18.7707 47.4951C19.053 47.4632 19.4945 47.3996 19.7451 47.3559C19.9956 47.3081 20.461 47.2087 20.7791 47.1331C21.0973 47.0536 21.6263 46.9025 21.9524 46.7951C22.2825 46.6837 22.7637 46.5048 23.0262 46.3934C23.2887 46.286 23.7381 46.0792 24.0205 45.936C24.3029 45.7968 24.7085 45.5781 24.9154 45.4588C25.1222 45.3355 25.5278 45.077 25.8102 44.8861C26.0966 44.6952 26.5699 44.3452 26.8642 44.1105C27.1585 43.8719 27.7153 43.3668 28.0971 42.981C28.4829 42.5992 28.988 42.0424 29.2266 41.7481C29.4612 41.4538 29.8112 40.9805 30.0021 40.6941C30.193 40.4078 30.4476 40.018 30.5629 39.8192C30.6782 39.6203 30.893 39.2186 31.0402 38.9243C31.1873 38.63 31.3941 38.1885 31.4975 37.9499C31.6009 37.7113 31.7799 37.2261 31.8953 36.8761C32.0146 36.5261 32.1737 35.9812 32.2532 35.663C32.3288 35.3449 32.4282 34.8875 32.4719 34.6489C32.5157 34.4102 32.5793 33.9767 32.6191 33.6944C32.6708 33.3006 32.6867 32.8751 32.6867 31.9046C32.6907 30.8944 32.6748 30.5166 32.6191 30.0752C32.5793 29.7689 32.5117 29.3195 32.468 29.0809C32.4242 28.8422 32.3248 28.3928 32.2492 28.0866C32.1737 27.7803 32.0265 27.2792 31.9271 26.973C31.8276 26.6667 31.6606 26.2094 31.5572 25.9588C31.4498 25.7082 31.2868 25.3304 31.1913 25.1236C31.0919 24.9168 30.8851 24.5111 30.726 24.2287C30.5669 23.9464 30.3004 23.5049 30.1374 23.2543C29.9703 23.0038 29.6999 22.618 29.5328 22.3993C29.3698 22.1805 29.0755 21.8226 28.8885 21.6038C28.6976 21.3851 28.3039 20.9715 28.0096 20.6851C27.7193 20.3987 27.3454 20.0488 27.1823 19.9096C27.0193 19.7664 26.7051 19.5158 26.4863 19.3528C26.2676 19.1857 25.8818 18.9153 25.6312 18.7522C25.3807 18.5852 24.9949 18.3505 24.7762 18.2232C24.5574 18.096 24.2273 17.917 24.0404 17.8255C23.8535 17.7301 23.4518 17.5471 23.1455 17.4159C22.8393 17.2846 22.3223 17.0898 21.9922 16.9784C21.666 16.867 21.1013 16.704 20.7394 16.6165C20.3774 16.525 19.7968 16.4097 19.4468 16.358C19.0968 16.3023 18.6036 16.2387 18.3531 16.2148C18.1025 16.1949 17.7605 16.175 17.5974 16.175C17.4343 16.175 17.2832 16.1631 17.2673 16.1472V0.684686C17.2515 0.684462 17.2356 0.684241 17.2196 0.684023C16.5832 0.676069 16.0026 0.680046 15.927 0.688L15.8981 0.69105C15.7978 0.701625 15.5645 0.726243 15.3503 0.747658Z" fill="#9638FF"/>
<path d="M63.6683 10.6866L69.105 5.25774C68.4965 4.68106 68.1147 4.34698 67.8642 4.14414C67.6136 3.94529 67.2278 3.65495 67.0091 3.49984C66.7903 3.34474 66.3608 3.07031 66.0546 2.88339C65.7483 2.70044 65.2392 2.42204 64.9211 2.26693C64.6029 2.11182 64.0938 1.88512 63.7876 1.76581C63.4813 1.64649 63.0319 1.48343 62.7933 1.40786C62.5547 1.32832 62.141 1.21298 61.8786 1.14537C61.6161 1.08174 61.2144 0.990264 60.9837 0.942538C60.753 0.898789 60.2996 0.823223 59.9695 0.779475C59.5244 0.717003 59.1138 0.696696 58.2673 0.684686V16.1472C58.2831 16.0998 60.7009 13.6539 63.6683 10.6866Z" fill="white"/>
<path d="M57.9213 32.1353C57.9213 32.1512 55.535 34.5017 52.6198 37.3573C50.8959 39.0506 49.3212 40.5947 48.2987 41.5973L48.2967 41.5993L48.2924 41.6034C47.5918 42.2904 47.152 42.7217 47.1034 42.7702L46.8847 42.985C47.4415 43.5219 47.7994 43.8361 48.0381 44.0349C48.2807 44.2338 48.6824 44.54 48.9329 44.715C49.1835 44.894 49.613 45.1724 49.8874 45.3355C50.1619 45.5025 50.655 45.769 50.9812 45.936C51.3113 46.0991 51.872 46.3496 52.234 46.4928C52.5959 46.636 53.1606 46.8349 53.4868 46.9303C53.8169 47.0297 54.3339 47.165 54.6401 47.2286C54.9464 47.2962 55.4475 47.3877 55.7537 47.4314C56.06 47.4752 56.581 47.5309 56.9071 47.5587C57.1696 47.5787 57.5366 47.5905 57.9213 47.5896V32.1353Z" fill="white"/>
<path d="M56.3503 0.747658C56.1117 0.771521 55.6623 0.831178 55.356 0.886858C55.0498 0.938561 54.5487 1.04197 54.2424 1.11753C53.9362 1.1931 53.4152 1.34423 53.0891 1.45161C52.759 1.559 52.2698 1.74194 51.9953 1.85728C51.7209 1.97262 51.2516 2.18739 50.9493 2.33852C50.6511 2.48965 50.1778 2.74816 49.8994 2.9152C49.617 3.08224 49.2193 3.33678 49.0125 3.47996C48.8057 3.62711 48.4119 3.92142 48.1375 4.14017C47.8631 4.35891 47.3461 4.82821 46.9841 5.18218C46.6222 5.53614 46.1529 6.03727 45.9381 6.29976C45.7234 6.55827 45.3893 6.99178 45.1944 7.2662C44.9995 7.54063 44.7012 7.998 44.5302 8.28038C44.3592 8.56276 44.1126 9.01217 43.9814 9.27466C43.8462 9.53716 43.6473 9.96669 43.5359 10.2292C43.4246 10.4917 43.2416 10.9769 43.1303 11.303C43.0149 11.6331 42.8439 12.2217 42.7485 12.6155C42.649 13.0092 42.5377 13.5541 42.4939 13.8285C42.4502 14.1029 42.3905 14.5126 42.3627 14.7432C42.3309 15.0097 42.311 15.6182 42.315 16.4136C42.315 17.3602 42.3309 17.7937 42.3826 18.1835C42.4223 18.4659 42.486 18.8994 42.5297 19.138C42.5735 19.3766 42.6689 19.826 42.7445 20.1323C42.8201 20.4385 42.9553 20.9237 43.0468 21.2061C43.1382 21.4885 43.3053 21.9459 43.4127 22.2203C43.52 22.4947 43.7308 22.968 43.882 23.2742C44.0331 23.5805 44.2479 23.9901 44.3592 24.189C44.4745 24.3878 44.6853 24.7259 44.8245 24.9446C44.9677 25.1634 45.2302 25.5412 45.4092 25.7798C45.5882 26.0185 45.8666 26.3685 46.0256 26.5554C46.1847 26.7423 46.5387 27.1241 46.8171 27.4065C47.0955 27.6889 47.5012 28.0746 47.7199 28.2616C47.9386 28.4525 48.2966 28.7388 48.5153 28.9059C48.7341 29.0689 49.0562 29.3036 49.2312 29.4189C49.4062 29.5382 49.7562 29.757 50.0068 29.9081C50.2573 30.0553 50.7346 30.3098 51.0607 30.4689C51.3908 30.632 51.88 30.8507 52.1544 30.9621C52.4288 31.0694 52.8743 31.2325 53.1487 31.32C53.4231 31.4115 53.8964 31.5467 54.2027 31.6223C54.5089 31.6978 54.9583 31.7973 55.1969 31.841C55.4356 31.8848 55.877 31.9484 56.1713 31.9842C56.4657 32.02 56.9827 32.0597 57.3168 32.0757C57.6508 32.0916 57.9213 32.1154 57.9213 32.1353V47.5896C58.0728 47.5893 58.227 47.5871 58.3787 47.5826C58.8599 47.5706 59.4883 47.5309 59.7707 47.4951C60.053 47.4632 60.4945 47.3996 60.7451 47.3559C60.9956 47.3081 61.461 47.2087 61.7791 47.1331C62.0973 47.0536 62.6263 46.9025 62.9524 46.7951C63.2825 46.6837 63.7637 46.5048 64.0262 46.3934C64.2887 46.286 64.7381 46.0792 65.0205 45.936C65.3029 45.7968 65.7085 45.5781 65.9154 45.4588C66.1222 45.3355 66.5278 45.077 66.8102 44.8861C67.0966 44.6952 67.5699 44.3452 67.8642 44.1105C68.1585 43.8719 68.7153 43.3668 69.0971 42.981C69.4829 42.5992 69.988 42.0424 70.2266 41.7481C70.4612 41.4538 70.8112 40.9805 71.0021 40.6941C71.193 40.4078 71.4476 40.018 71.5629 39.8192C71.6782 39.6203 71.893 39.2186 72.0402 38.9243C72.1873 38.63 72.3941 38.1885 72.4975 37.9499C72.6009 37.7113 72.7799 37.2261 72.8953 36.8761C73.0146 36.5261 73.1737 35.9812 73.2532 35.663C73.3288 35.3449 73.4282 34.8875 73.4719 34.6489C73.5157 34.4102 73.5793 33.9767 73.6191 33.6944C73.6708 33.3006 73.6867 32.8751 73.6867 31.9046C73.6907 30.8944 73.6748 30.5166 73.6191 30.0752C73.5793 29.7689 73.5117 29.3195 73.468 29.0809C73.4242 28.8422 73.3248 28.3928 73.2492 28.0866C73.1737 27.7803 73.0265 27.2792 72.9271 26.973C72.8276 26.6667 72.6606 26.2094 72.5572 25.9588C72.4498 25.7082 72.2868 25.3304 72.1913 25.1236C72.0919 24.9168 71.8851 24.5111 71.726 24.2287C71.5669 23.9464 71.3004 23.5049 71.1374 23.2543C70.9703 23.0038 70.6999 22.618 70.5328 22.3993C70.3698 22.1805 70.0755 21.8226 69.8885 21.6038C69.6976 21.3851 69.3039 20.9715 69.0096 20.6851C68.7192 20.3987 68.3454 20.0488 68.1823 19.9096C68.0193 19.7664 67.7051 19.5158 67.4863 19.3528C67.2676 19.1857 66.8818 18.9153 66.6312 18.7522C66.3807 18.5852 65.9949 18.3505 65.7762 18.2232C65.5574 18.096 65.2273 17.917 65.0404 17.8255C64.8535 17.7301 64.4518 17.5471 64.1455 17.4159C63.8393 17.2846 63.3223 17.0898 62.9922 16.9784C62.666 16.867 62.1013 16.704 61.7394 16.6165C61.3774 16.525 60.7968 16.4097 60.4468 16.358C60.0968 16.3023 59.6036 16.2387 59.3531 16.2148C59.1025 16.1949 58.7605 16.175 58.5974 16.175C58.4343 16.175 58.2832 16.1631 58.2673 16.1472V0.684686C58.2515 0.684462 58.2356 0.684241 58.2196 0.684023C57.5832 0.676069 57.0026 0.680046 56.927 0.688L56.8981 0.69105C56.7978 0.701625 56.5645 0.726243 56.3503 0.747658Z" fill="#9638FF"/>
<path d="M97.3087 0.435547H83.5371V47.3449H97.3087V0.435547Z" fill="#9638FF"/>
<path d="M115.974 13.6057C113.592 13.6057 112.133 12.504 111.885 10.5485C111.87 10.4245 111.94 10.3694 112.049 10.3694H113.977C114.06 10.3694 114.115 10.4107 114.143 10.4934C114.322 11.4436 114.9 11.8843 115.947 11.8843C116.856 11.8843 117.393 11.4711 117.393 10.7688C117.393 10.1491 117.035 9.85988 116.112 9.70837L114.983 9.51559C113 9.19883 112.036 8.27619 112.036 6.66485C112.036 4.83329 113.371 3.74532 115.644 3.74532C117.847 3.74532 119.238 4.79194 119.514 6.62359C119.528 6.73375 119.459 6.80255 119.362 6.80255H117.434C117.352 6.80255 117.283 6.77501 117.255 6.63731C117.077 5.82483 116.581 5.46672 115.685 5.46672C114.818 5.46672 114.349 5.82483 114.349 6.51333C114.349 7.13313 114.776 7.47743 115.685 7.64267L116.829 7.82163C118.894 8.15221 119.707 8.96469 119.707 10.6724C119.707 12.4902 118.275 13.6057 115.974 13.6057ZM124.504 13.6057C122.163 13.6057 120.703 12.2011 120.703 9.95623C120.703 7.72529 122.177 6.30683 124.491 6.30683C126.763 6.30683 128.098 7.65639 128.098 9.9425V10.3281C128.098 10.4245 128.043 10.4796 127.934 10.4796H122.99C123.058 11.4987 123.595 12.0771 124.546 12.0771C125.262 12.0771 125.716 11.7879 125.868 11.3059C125.908 11.1957 125.964 11.1682 126.047 11.1682H127.905C128.016 11.1682 128.085 11.2094 128.071 11.2921C127.837 12.7106 126.556 13.6057 124.504 13.6057ZM122.99 9.36407H125.923C125.868 8.38635 125.372 7.83545 124.531 7.83545C123.609 7.83545 123.072 8.37253 122.99 9.36407ZM129.525 13.4956C129.416 13.4956 129.361 13.4405 129.361 13.3303V6.58223C129.361 6.47207 129.416 6.41699 129.525 6.41699H131.329C131.426 6.41699 131.495 6.47207 131.495 6.58223V7.42235H131.55C132.032 6.69239 132.748 6.32056 133.698 6.32056C134.663 6.32056 135.337 6.67867 135.737 7.42235H135.806C136.384 6.69239 137.21 6.32056 138.229 6.32056C139.827 6.32056 140.681 7.35345 140.681 9.39161V13.3303C140.681 13.4405 140.612 13.4956 140.515 13.4956H138.601C138.491 13.4956 138.436 13.4405 138.436 13.3303V9.39161C138.436 8.42761 138.064 7.98697 137.279 7.98697C136.508 7.98697 136.136 8.44143 136.136 9.39161V13.3303C136.136 13.4405 136.081 13.4956 135.97 13.4956H134.057C133.96 13.4956 133.891 13.4405 133.891 13.3303V9.39161C133.891 8.42761 133.533 7.98697 132.748 7.98697C131.963 7.98697 131.591 8.44143 131.591 9.39161V13.3303C131.591 13.4405 131.537 13.4956 131.44 13.4956H129.525ZM144.752 13.6057C142.907 13.6057 141.791 12.2148 141.791 9.95623C141.791 7.67021 142.879 6.30683 144.752 6.30683C145.633 6.30683 146.445 6.73375 146.9 7.42235H146.968V6.58223C146.968 6.47207 147.024 6.41699 147.134 6.41699H149.049C149.145 6.41699 149.213 6.47207 149.213 6.58223V11.9531H149.861C149.957 11.9531 150.012 12.0082 150.012 12.1184V13.3303C150.012 13.4405 149.957 13.4956 149.861 13.4956H148.181C147.437 13.4956 147.079 13.1788 147.079 12.5728V12.504H147.01C146.597 13.1788 145.715 13.6057 144.752 13.6057ZM144.063 9.95623C144.063 11.2508 144.628 11.9669 145.578 11.9669C146.528 11.9669 147.052 11.2508 147.052 9.95623C147.052 8.67547 146.514 7.94561 145.578 7.94561C144.628 7.94561 144.063 8.67547 144.063 9.95623ZM151.273 13.4956C151.162 13.4956 151.107 13.4405 151.107 13.3303V6.58223C151.107 6.47207 151.162 6.41699 151.273 6.41699H153.077C153.173 6.41699 153.241 6.47207 153.241 6.58223V7.42235H153.297C153.793 6.69239 154.55 6.30683 155.5 6.30683C157.139 6.30683 158.006 7.35345 158.006 9.43297V13.3303C158.006 13.4405 157.938 13.4956 157.842 13.4956H155.927C155.831 13.4956 155.761 13.4405 155.761 13.3303V9.43297C155.761 8.44143 155.39 7.97315 154.563 7.97315C153.737 7.97315 153.338 8.44143 153.338 9.43297V13.3303C153.338 13.4405 153.283 13.4956 153.186 13.4956H151.273ZM162.1 13.6057C160.255 13.6057 159.14 12.2148 159.14 9.95623C159.14 7.67021 160.227 6.30683 162.1 6.30683C162.982 6.30683 163.794 6.73375 164.249 7.42235H164.318V6.58223C164.318 6.47207 164.373 6.41699 164.483 6.41699H166.397C166.494 6.41699 166.563 6.47207 166.563 6.58223V11.9531H167.21C167.307 11.9531 167.361 12.0082 167.361 12.1184V13.3303C167.361 13.4405 167.307 13.4956 167.21 13.4956H165.53C164.786 13.4956 164.428 13.1788 164.428 12.5728V12.504H164.359C163.946 13.1788 163.065 13.6057 162.1 13.6057ZM161.412 9.95623C161.412 11.2508 161.976 11.9669 162.927 11.9669C163.877 11.9669 164.4 11.2508 164.4 9.95623C164.4 8.67547 163.864 7.94561 162.927 7.94561C161.976 7.94561 161.412 8.67547 161.412 9.95623ZM174.245 13.6057C172.413 13.6057 171.283 12.2148 171.283 9.95623C171.283 7.67021 172.386 6.30683 174.245 6.30683C175.14 6.30683 175.952 6.73375 176.407 7.42235H176.475V3.74532C176.475 3.63516 176.531 3.58008 176.627 3.58008H178.541C178.651 3.58008 178.707 3.63516 178.707 3.74532V13.3303C178.707 13.4405 178.651 13.4956 178.541 13.4956H176.737C176.641 13.4956 176.572 13.4405 176.572 13.3303V12.504H176.517C176.09 13.1788 175.222 13.6057 174.245 13.6057ZM173.57 9.95623C173.57 11.2508 174.121 11.9669 175.085 11.9669C176.021 11.9669 176.558 11.2508 176.558 9.95623C176.558 8.67547 176.021 7.94561 175.085 7.94561C174.121 7.94561 173.57 8.67547 173.57 9.95623ZM183.773 13.6057C181.431 13.6057 179.972 12.2011 179.972 9.95623C179.972 7.72529 181.446 6.30683 183.759 6.30683C186.031 6.30683 187.367 7.65639 187.367 9.9425V10.3281C187.367 10.4245 187.312 10.4796 187.202 10.4796H182.258C182.327 11.4987 182.864 12.0771 183.814 12.0771C184.53 12.0771 184.985 11.7879 185.137 11.3059C185.177 11.1957 185.232 11.1682 185.315 11.1682H187.174C187.285 11.1682 187.353 11.2094 187.34 11.2921C187.105 12.7106 185.825 13.6057 183.773 13.6057ZM182.258 9.36407H185.192C185.137 8.38635 184.641 7.83545 183.8 7.83545C182.878 7.83545 182.341 8.37253 182.258 9.36407ZM115.974 29.3159C113.592 29.3159 112.133 28.2142 111.885 26.2586C111.87 26.1347 111.94 26.0796 112.049 26.0796H113.977C114.06 26.0796 114.115 26.1209 114.143 26.2036C114.322 27.1537 114.9 27.5945 115.947 27.5945C116.856 27.5945 117.393 27.1813 117.393 26.479C117.393 25.8593 117.035 25.57 116.112 25.4185L114.983 25.2257C113 24.909 112.036 23.9863 112.036 22.375C112.036 20.5435 113.371 19.4555 115.644 19.4555C117.847 19.4555 119.238 20.5021 119.514 22.3338C119.528 22.4439 119.459 22.5127 119.362 22.5127H117.434C117.352 22.5127 117.283 22.4852 117.255 22.3475C117.077 21.535 116.581 21.1769 115.685 21.1769C114.818 21.1769 114.349 21.535 114.349 22.2235C114.349 22.8433 114.776 23.1876 115.685 23.3528L116.829 23.5318C118.894 23.8624 119.707 24.6749 119.707 26.3825C119.707 28.2004 118.275 29.3159 115.974 29.3159ZM121.281 29.2057C121.172 29.2057 121.116 29.1506 121.116 29.0405V22.2924C121.116 22.1822 121.172 22.1272 121.281 22.1272H123.196C123.293 22.1272 123.347 22.1822 123.347 22.2924V29.0405C123.347 29.1506 123.293 29.2057 123.196 29.2057H121.281ZM121.048 20.8601V18.9184C121.048 18.822 121.116 18.7669 121.212 18.7669H123.265C123.361 18.7669 123.43 18.822 123.43 18.9184V20.8601C123.43 20.9566 123.361 21.0116 123.265 21.0116H121.212C121.116 21.0116 121.048 20.9566 121.048 20.8601ZM127.922 29.3159C126.008 29.3159 124.864 28.5309 124.7 27.0711C124.686 26.961 124.755 26.8921 124.851 26.8921H126.531C126.641 26.8921 126.682 26.9471 126.71 27.0436C126.848 27.6633 127.261 27.8699 127.922 27.8699C128.501 27.8699 128.872 27.6082 128.872 27.2226C128.872 26.8095 128.624 26.658 128.005 26.5478L127.027 26.3688C125.581 26.1208 124.864 25.515 124.864 24.2342C124.864 22.8846 125.953 22.017 127.798 22.017C129.409 22.017 130.552 22.6918 130.745 24.1102C130.773 24.2342 130.704 24.2893 130.607 24.2893H128.927C128.817 24.2893 128.762 24.2342 128.734 24.1378C128.625 23.6421 128.335 23.4492 127.798 23.4492C127.233 23.4492 126.944 23.6833 126.944 24.0965C126.944 24.4821 127.164 24.6611 127.881 24.785L128.872 24.9641C130.373 25.2119 130.952 25.8042 130.952 27.0574C130.952 28.5722 129.85 29.3159 127.922 29.3159ZM135.226 29.2057C133.794 29.2057 133.008 28.4208 133.008 26.9747V23.6696H131.907C131.797 23.6696 131.741 23.6007 131.741 23.5043V22.2924C131.741 22.1822 131.797 22.1272 131.907 22.1272H133.008V20.1853C133.008 20.089 133.063 20.0338 133.174 20.0338H135.087C135.184 20.0338 135.239 20.089 135.239 20.1853V22.1272H136.851C136.947 22.1272 137.016 22.1822 137.016 22.2924V23.5043C137.016 23.6007 136.947 23.6696 136.851 23.6696H135.239V27.6633H136.836C136.947 27.6633 137.002 27.7184 137.002 27.8285V29.0405C137.002 29.1506 136.947 29.2057 136.836 29.2057H135.226ZM141.53 29.3159C139.189 29.3159 137.729 27.9112 137.729 25.6664C137.729 23.4355 139.202 22.017 141.516 22.017C143.789 22.017 145.125 23.3666 145.125 25.6527V26.0382C145.125 26.1347 145.069 26.1897 144.959 26.1897H140.015C140.084 27.2088 140.621 27.7873 141.571 27.7873C142.288 27.7873 142.742 27.498 142.893 27.016C142.935 26.9059 142.99 26.8783 143.072 26.8783H144.932C145.042 26.8783 145.111 26.9196 145.097 27.0022C144.863 28.4208 143.582 29.3159 141.53 29.3159ZM140.015 25.0742H142.949C142.893 24.0965 142.397 23.5456 141.558 23.5456C140.635 23.5456 140.098 24.0827 140.015 25.0742ZM146.552 29.2057C146.441 29.2057 146.386 29.1506 146.386 29.0405V22.2924C146.386 22.1822 146.441 22.1272 146.552 22.1272H148.356C148.452 22.1272 148.522 22.1822 148.522 22.2924V23.1325H148.576C149.058 22.4026 149.775 22.0307 150.725 22.0307C151.688 22.0307 152.363 22.3888 152.762 23.1325H152.831C153.41 22.4026 154.236 22.0307 155.255 22.0307C156.853 22.0307 157.706 23.0636 157.706 25.1018V29.0405C157.706 29.1506 157.638 29.2057 157.542 29.2057H155.627C155.517 29.2057 155.462 29.1506 155.462 29.0405V25.1018C155.462 24.1378 155.09 23.6971 154.305 23.6971C153.534 23.6971 153.162 24.1516 153.162 25.1018V29.0405C153.162 29.1506 153.107 29.2057 152.997 29.2057H151.082C150.986 29.2057 150.918 29.1506 150.918 29.0405V25.1018C150.918 24.1378 150.559 23.6971 149.775 23.6971C148.989 23.6971 148.617 24.1516 148.617 25.1018V29.0405C148.617 29.1506 148.562 29.2057 148.466 29.2057H146.552ZM161.778 29.3159C159.932 29.3159 158.817 27.925 158.817 25.6664C158.817 23.3804 159.905 22.017 161.778 22.017C162.659 22.017 163.472 22.4439 163.926 23.1325H163.995V22.2924C163.995 22.1822 164.05 22.1272 164.161 22.1272H166.074C166.171 22.1272 166.24 22.1822 166.24 22.2924V27.6633H166.887C166.984 27.6633 167.039 27.7184 167.039 27.8285V29.0405C167.039 29.1506 166.984 29.2057 166.887 29.2057H165.207C164.464 29.2057 164.105 28.889 164.105 28.283V28.2142H164.037C163.623 28.889 162.742 29.3159 161.778 29.3159ZM161.09 25.6664C161.09 26.961 161.654 27.6771 162.604 27.6771C163.554 27.6771 164.077 26.961 164.077 25.6664C164.077 24.3856 163.541 23.6558 162.604 23.6558C161.654 23.6558 161.09 24.3856 161.09 25.6664ZM171.025 29.3159C169.111 29.3159 167.968 28.5309 167.802 27.0711C167.789 26.961 167.857 26.8921 167.954 26.8921H169.635C169.744 26.8921 169.786 26.9471 169.814 27.0436C169.951 27.6633 170.364 27.8699 171.025 27.8699C171.603 27.8699 171.975 27.6082 171.975 27.2226C171.975 26.8095 171.727 26.658 171.108 26.5478L170.13 26.3688C168.684 26.1208 167.968 25.515 167.968 24.2342C167.968 22.8846 169.055 22.017 170.901 22.017C172.513 22.017 173.656 22.6918 173.848 24.1102C173.876 24.2342 173.807 24.2893 173.711 24.2893H172.031C171.92 24.2893 171.865 24.2342 171.838 24.1378C171.727 23.6421 171.438 23.4492 170.901 23.4492C170.337 23.4492 170.047 23.6833 170.047 24.0965C170.047 24.4821 170.268 24.6611 170.984 24.785L171.975 24.9641C173.477 25.2119 174.055 25.8042 174.055 27.0574C174.055 28.5722 172.954 29.3159 171.025 29.3159ZM181.184 29.3159C179.352 29.3159 178.223 27.925 178.223 25.6664C178.223 23.3804 179.325 22.017 181.184 22.017C182.079 22.017 182.892 22.4439 183.346 23.1325H183.415V19.4555C183.415 19.3453 183.47 19.2902 183.567 19.2902H185.481C185.591 19.2902 185.646 19.3453 185.646 19.4555V29.0405C185.646 29.1506 185.591 29.2057 185.481 29.2057H183.676C183.581 29.2057 183.512 29.1506 183.512 29.0405V28.2142H183.457C183.03 28.889 182.162 29.3159 181.184 29.3159ZM180.51 25.6664C180.51 26.961 181.06 27.6771 182.024 27.6771C182.961 27.6771 183.497 26.961 183.497 25.6664C183.497 24.3856 182.961 23.6558 182.024 23.6558C181.06 23.6558 180.51 24.3856 180.51 25.6664ZM190.713 29.3159C188.371 29.3159 186.911 27.9112 186.911 25.6664C186.911 23.4355 188.385 22.017 190.699 22.017C192.971 22.017 194.307 23.3666 194.307 25.6527V26.0382C194.307 26.1347 194.251 26.1897 194.142 26.1897H189.198C189.267 27.2088 189.803 27.7873 190.753 27.7873C191.47 27.7873 191.924 27.498 192.076 27.016C192.117 26.9059 192.172 26.8783 192.254 26.8783H194.114C194.224 26.8783 194.293 26.9196 194.279 27.0022C194.045 28.4208 192.765 29.3159 190.713 29.3159ZM189.198 25.0742H192.13C192.076 24.0965 191.58 23.5456 190.74 23.5456C189.817 23.5456 189.28 24.0827 189.198 25.0742ZM112.449 44.9159C112.339 44.9159 112.284 44.8608 112.284 44.7506V35.441C112.284 35.3309 112.339 35.2758 112.449 35.2758H114.418C114.515 35.2758 114.57 35.3309 114.57 35.441V44.7506C114.57 44.8608 114.515 44.9159 114.418 44.9159H112.449ZM116.548 44.9159C116.438 44.9159 116.382 44.8608 116.382 44.7506V38.0026C116.382 37.8924 116.438 37.8373 116.548 37.8373H118.351C118.448 37.8373 118.517 37.8924 118.517 38.0026V38.8427H118.572C119.068 38.1127 119.825 37.7272 120.775 37.7272C122.414 37.7272 123.282 38.7738 123.282 40.8533V44.7506C123.282 44.8608 123.213 44.9159 123.116 44.9159H121.202C121.106 44.9159 121.037 44.8608 121.037 44.7506V40.8533C121.037 39.8618 120.665 39.3935 119.839 39.3935C119.013 39.3935 118.614 39.8618 118.614 40.8533V44.7506C118.614 44.8608 118.559 44.9159 118.462 44.9159H116.548ZM125.71 44.9159C125.599 44.9159 125.544 44.8608 125.544 44.7506V39.4899H124.442C124.333 39.4899 124.278 39.4348 124.278 39.3247V38.1127C124.278 38.0164 124.333 37.9475 124.442 37.9475H125.544V37.2176C125.544 35.7853 126.329 35.0004 127.761 35.0004H129.373C129.483 35.0004 129.538 35.0555 129.538 35.1656V36.3775C129.538 36.4877 129.483 36.5427 129.373 36.5427H127.776V37.9475H129.386C129.483 37.9475 129.552 38.0164 129.552 38.1127V39.3247C129.552 39.4348 129.483 39.4899 129.386 39.4899H127.776V44.7506C127.776 44.8608 127.72 44.9159 127.624 44.9159H125.71ZM133.904 45.026C131.618 45.026 130.131 43.58 130.131 41.3766C130.131 39.1732 131.618 37.7409 133.904 37.7409C136.19 37.7409 137.691 39.1732 137.691 41.3766C137.691 43.58 136.19 45.026 133.904 45.026ZM132.403 41.3766C132.403 42.7262 132.926 43.4423 133.904 43.4423C134.868 43.4423 135.419 42.7262 135.419 41.3766C135.419 40.0407 134.868 39.3109 133.904 39.3109C132.94 39.3109 132.403 40.0407 132.403 41.3766ZM139.018 44.9159C138.921 44.9159 138.866 44.8608 138.866 44.7506V40.0545C138.866 38.6223 139.651 37.8373 141.084 37.8373H143.369C143.466 37.8373 143.521 37.8924 143.521 38.0026V39.4073C143.521 39.5036 143.466 39.5587 143.369 39.5587H141.097V44.7506C141.097 44.8608 141.042 44.9159 140.946 44.9159H139.018ZM144.885 44.9159C144.774 44.9159 144.719 44.8608 144.719 44.7506V38.0026C144.719 37.8924 144.774 37.8373 144.885 37.8373H146.688C146.785 37.8373 146.853 37.8924 146.853 38.0026V38.8427H146.909C147.391 38.1127 148.107 37.7409 149.057 37.7409C150.021 37.7409 150.695 38.099 151.095 38.8427H151.164C151.742 38.1127 152.568 37.7409 153.588 37.7409C155.185 37.7409 156.039 38.7738 156.039 40.8119V44.7506C156.039 44.8608 155.971 44.9159 155.874 44.9159H153.959C153.85 44.9159 153.794 44.8608 153.794 44.7506V40.8119C153.794 39.8479 153.423 39.4073 152.637 39.4073C151.866 39.4073 151.494 39.8618 151.494 40.8119V44.7506C151.494 44.8608 151.439 44.9159 151.329 44.9159H149.415C149.318 44.9159 149.249 44.8608 149.249 44.7506V40.8119C149.249 39.8479 148.892 39.4073 148.107 39.4073C147.321 39.4073 146.95 39.8618 146.95 40.8119V44.7506C146.95 44.8608 146.895 44.9159 146.798 44.9159H144.885ZM160.11 45.026C158.265 45.026 157.149 43.6351 157.149 41.3766C157.149 39.0905 158.237 37.7272 160.11 37.7272C160.991 37.7272 161.804 38.1541 162.258 38.8427H162.328V38.0026C162.328 37.8924 162.382 37.8373 162.492 37.8373H164.407C164.503 37.8373 164.572 37.8924 164.572 38.0026V43.3735H165.22C165.316 43.3735 165.371 43.4285 165.371 43.5387V44.7506C165.371 44.8608 165.316 44.9159 165.22 44.9159H163.539C162.796 44.9159 162.437 44.5991 162.437 43.9931V43.9243H162.369C161.956 44.5991 161.075 45.026 160.11 45.026ZM159.421 41.3766C159.421 42.6711 159.986 43.3873 160.936 43.3873C161.887 43.3873 162.41 42.6711 162.41 41.3766C162.41 40.0958 161.873 39.3659 160.936 39.3659C159.986 39.3659 159.421 40.0958 159.421 41.3766ZM169.757 45.0536C169.013 45.0536 168.38 44.9205 167.856 44.6542C167.333 44.3788 166.934 43.9564 166.658 43.3873C166.383 42.818 166.246 42.0882 166.246 41.1976C166.246 40.2795 166.401 39.5312 166.713 38.9528C167.025 38.3744 167.457 37.9475 168.008 37.6721C168.568 37.3966 169.211 37.2589 169.936 37.2589C170.45 37.2589 170.895 37.3094 171.272 37.4104C171.657 37.5114 171.992 37.6307 172.277 37.7684L171.671 39.3522C171.35 39.2236 171.047 39.1181 170.762 39.0355C170.486 38.9528 170.211 38.9115 169.936 38.9115C169.578 38.9115 169.28 38.9987 169.041 39.1732C168.802 39.3384 168.623 39.5909 168.504 39.9306C168.394 40.2611 168.338 40.6789 168.338 41.1838C168.338 41.6796 168.398 42.0927 168.518 42.4233C168.646 42.7446 168.829 42.9879 169.069 43.1531C169.307 43.3092 169.596 43.3873 169.936 43.3873C170.367 43.3873 170.749 43.3322 171.079 43.222C171.409 43.1026 171.731 42.942 172.043 42.74V44.489C171.731 44.6909 171.401 44.8333 171.051 44.9159C170.712 45.0077 170.28 45.0536 169.757 45.0536ZM171.23 46.596C171.23 46.9357 171.166 47.2249 171.038 47.4636C170.909 47.7115 170.694 47.8997 170.391 48.0283C170.087 48.1568 169.674 48.2211 169.151 48.2211C168.949 48.2211 168.766 48.2073 168.6 48.1797C168.444 48.1522 168.302 48.1201 168.173 48.0834V46.954C168.302 46.9908 168.458 47.0229 168.642 47.0505C168.834 47.078 169 47.0917 169.137 47.0917C169.266 47.0917 169.376 47.0597 169.468 46.9954C169.568 46.9403 169.62 46.8347 169.62 46.6786C169.62 46.5134 169.536 46.3665 169.372 46.238C169.206 46.1094 168.917 46.013 168.504 45.9488L169.027 44.9159H170.322L170.143 45.329C170.326 45.3842 170.501 45.4668 170.666 45.5769C170.831 45.6963 170.964 45.8386 171.066 46.0039C171.175 46.1691 171.23 46.3665 171.23 46.596ZM176.858 37.2452C177.868 37.2452 178.64 37.4655 179.172 37.9061C179.714 38.3377 179.984 39.0033 179.984 39.903V44.9159H178.553L178.153 43.8968H178.098C177.887 44.163 177.667 44.3833 177.437 44.5579C177.216 44.7323 176.96 44.8562 176.665 44.9297C176.382 45.0123 176.028 45.0536 175.605 45.0536C175.164 45.0536 174.765 44.971 174.407 44.8057C174.058 44.6313 173.783 44.3696 173.581 44.0207C173.379 43.6627 173.278 43.2128 173.278 42.6711C173.278 41.8724 173.558 41.2848 174.118 40.9084C174.678 40.5227 175.518 40.3116 176.638 40.2749L177.947 40.2336V39.903C177.947 39.5083 177.841 39.2191 177.63 39.0355C177.428 38.8519 177.143 38.76 176.776 38.76C176.409 38.76 176.05 38.815 175.702 38.9253C175.353 39.0263 175.004 39.1548 174.655 39.3109L173.98 37.9199C174.385 37.7088 174.829 37.5436 175.316 37.4241C175.812 37.3048 176.326 37.2452 176.858 37.2452ZM177.148 41.4593C176.487 41.4776 176.028 41.597 175.77 41.8173C175.514 42.0376 175.385 42.3268 175.385 42.6849C175.385 42.9971 175.477 43.222 175.66 43.3597C175.844 43.4882 176.082 43.5525 176.377 43.5525C176.817 43.5525 177.189 43.424 177.492 43.1668C177.795 42.9006 177.947 42.5288 177.947 42.0514V41.4317L177.148 41.4593ZM174.077 36.5841C174.104 36.2261 174.169 35.9185 174.269 35.6614C174.38 35.3951 174.517 35.1794 174.683 35.0141C174.848 34.8397 175.032 34.7112 175.234 34.6286C175.445 34.5459 175.67 34.5046 175.908 34.5046C176.092 34.5046 176.271 34.5413 176.446 34.6147C176.629 34.679 176.804 34.7616 176.968 34.8626C177.143 34.9545 177.313 35.0371 177.478 35.1106C177.643 35.1748 177.809 35.2069 177.974 35.2069C178.112 35.2069 178.245 35.1473 178.374 35.0279C178.502 34.9086 178.594 34.7295 178.649 34.4909H179.654C179.599 35.1977 179.397 35.7211 179.048 36.0607C178.699 36.4005 178.29 36.5703 177.823 36.5703C177.639 36.5703 177.459 36.5382 177.285 36.4739C177.111 36.4005 176.937 36.3179 176.762 36.2261C176.588 36.125 176.417 36.0424 176.253 35.9781C176.087 35.9047 175.922 35.868 175.757 35.868C175.619 35.868 175.486 35.9277 175.358 36.047C175.229 36.1664 175.137 36.3454 175.082 36.5841H174.077ZM185.211 45.026C182.925 45.026 181.438 43.58 181.438 41.3766C181.438 39.1732 182.925 37.7409 185.211 37.7409C187.497 37.7409 188.999 39.1732 188.999 41.3766C188.999 43.58 187.497 45.026 185.211 45.026ZM183.71 41.3766C183.71 42.7262 184.234 43.4423 185.211 43.4423C186.175 43.4423 186.726 42.7262 186.726 41.3766C186.726 40.0407 186.175 39.3109 185.211 39.3109C184.247 39.3109 183.71 40.0407 183.71 41.3766Z" fill="white"/>
</g>
<defs>
<clipPath id="clip0_2494_5200">
<rect width="198" height="48" fill="white"/>
</clipPath>
</defs>
</svg>
