<svg width="1912" height="1912" viewBox="0 0 1912 1912" fill="none" xmlns="http://www.w3.org/2000/svg">
<path d="M1074.56 1127.77L1314.64 836.937C1342.9 802.708 1341.46 754.86 1311.43 730.073L1302.25 722.494C1272.22 697.702 1224.97 705.356 1196.71 739.585L1173.82 767.308C1171.45 761.433 1167.77 756.143 1162.7 751.953L1157.98 748.058C1139.74 733.003 1111.05 737.647 1093.89 758.437L1034.32 830.599C1030.94 828.225 1027.5 825.983 1024.01 823.862L1040.86 803.452C1052.68 789.132 1052.08 769.115 1039.52 758.746L1037.84 757.36C1025.28 746.991 1005.51 750.188 993.687 764.508L964.036 800.423C952.14 797.984 939.993 796.641 927.718 796.374L969.311 745.989C986.473 725.2 985.597 696.148 967.359 681.093L962.64 677.198C944.402 662.143 915.706 666.791 898.549 687.576L738.758 881.147C735.355 885.267 732.696 889.718 730.706 894.315C651.279 994.921 656.667 1132.83 743.889 1204.83C832.473 1277.96 971.849 1255.39 1055.2 1154.43C1062.3 1145.82 1068.73 1136.89 1074.56 1127.77Z" fill="white"/>
<path d="M1097.86 716.962C1114.76 716.962 1128.46 703.264 1128.46 686.365C1128.46 669.467 1114.76 655.769 1097.86 655.769C1080.96 655.769 1067.26 669.467 1067.26 686.365C1067.26 703.264 1080.96 716.962 1097.86 716.962Z" fill="white"/>
<path d="M1208.55 588.087C1191.37 608.9 1193.98 639.431 1214.39 656.278C1234.8 673.125 1265.28 669.909 1282.46 649.095C1299.64 628.281 1297.02 597.751 1276.61 580.904C1256.2 564.057 1225.73 567.273 1208.55 588.087Z" fill="white"/>
<path d="M589.461 1101.15C572.103 1096.03 573.919 1070.41 585.781 1056.75L865.582 735.081C877.449 721.416 903.921 715.41 911.66 732.085C913.003 734.973 912.83 744.57 912.83 744.57L913.612 1362.11C913.612 1362.11 915.901 1380.56 916.734 1382.39C924.21 1398.88 944.559 1392.67 956.422 1379.01L1235.71 1057.34C1247.58 1043.68 1250.86 1018.08 1233.5 1012.97C1229.75 1011.86 1216.97 1013.33 1216.97 1013.33L602.629 1101.07C602.629 1101.07 592.691 1102.1 589.461 1101.15Z" fill="#3E0672" stroke="#3E0672" stroke-width="18.7251" stroke-miterlimit="10"/>
<path d="M589.461 1012.2C572.103 1007.09 573.919 981.465 585.781 967.8L865.582 646.135C877.449 632.471 903.921 626.465 911.66 643.139C913.003 646.028 912.83 655.624 912.83 655.624L913.612 1273.16C913.612 1273.16 915.901 1291.61 916.734 1293.45C924.21 1309.93 944.559 1303.73 956.422 1290.06L1235.71 968.4C1247.58 954.735 1250.86 929.138 1233.5 924.021C1229.75 922.916 1216.97 924.381 1216.97 924.381L602.629 1012.13C602.629 1012.13 592.691 1013.15 589.461 1012.2Z" fill="#9638FF" stroke="#9638FF" stroke-width="18.7251" stroke-miterlimit="10"/>
<path d="M370.823 651.568C365.428 662.902 358.598 670.746 350.334 675.101C342.091 679.413 333.022 679.949 323.128 676.708C321.913 676.287 321.59 675.477 322.16 674.28L330.894 655.931C331.281 655.119 331.942 654.778 332.877 654.908C337.818 656.211 342.019 655.981 345.481 654.219C348.963 652.414 351.895 649.01 354.278 644.006C356.334 639.686 357.001 635.86 356.28 632.526C355.559 629.192 353.53 626.731 350.194 625.143C347.243 623.738 344.571 623.62 342.178 624.79C339.763 625.896 337.144 628.478 334.319 632.537L327.328 642.43C321.311 651.212 314.979 656.854 308.332 659.355C301.642 661.837 294.448 661.245 286.75 657.58C278.025 653.426 272.639 647.164 270.591 638.792C268.564 630.377 270.126 620.759 275.277 609.939C280.265 599.46 286.681 592.153 294.526 588.018C302.37 583.883 310.97 583.23 320.326 586.057C320.86 586.259 321.226 586.591 321.426 587.053C321.603 587.452 321.58 587.887 321.356 588.357L312.591 606.77C312.163 607.668 311.364 607.969 310.193 607.674C305.936 606.697 302.33 607 299.373 608.583C296.416 610.165 293.92 613.095 291.883 617.372C289.909 621.521 289.257 625.093 289.93 628.089C290.622 631.041 292.594 633.292 295.844 634.839C298.796 636.244 301.615 636.327 304.303 635.089C306.991 633.85 309.78 631.243 312.669 627.267L319.529 617.155C325.795 608.072 332.031 602.41 338.238 600.172C344.445 597.933 351.633 598.758 359.802 602.647C368.441 606.759 373.746 613.193 375.717 621.948C377.687 630.703 376.056 640.576 370.823 651.568Z" fill="white"/>
<path d="M416.39 571.635C409.532 581.922 401.216 588.162 391.441 590.356C381.693 592.511 371.892 590.303 362.039 583.735C352.225 577.192 346.432 568.974 344.658 559.082C342.885 549.189 345.387 539.159 352.166 528.99C358.814 519.019 366.808 513.133 376.149 511.333C385.516 509.494 395.225 511.924 405.275 518.625L408.645 520.871C409.512 521.449 409.63 522.211 409 523.157L379.992 566.669C384.734 569.375 389.103 570.38 393.097 569.684C397.077 568.922 400.447 566.472 403.206 562.333C407.384 556.067 407.693 550.693 404.132 546.214C403.528 545.412 403.488 544.617 404.014 543.829L414.931 527.453C415.247 526.98 415.582 526.691 415.936 526.586C416.278 526.415 416.613 526.468 416.941 526.744C422.538 532.012 425.323 538.594 425.297 546.489C425.297 554.346 422.328 562.728 416.39 571.635ZM370.237 560.166L387.461 534.331C383.007 531.703 378.908 530.678 375.164 531.256C371.406 531.769 368.293 533.877 365.823 537.582C363.117 541.642 362.151 545.609 362.926 549.485C363.701 553.36 366.138 556.921 370.237 560.166Z" fill="white"/>
<path d="M446.123 524.798C445.306 525.654 444.469 525.674 443.612 524.856L392.065 475.644C391.209 474.827 391.189 473.99 392.007 473.133L405.156 459.36C405.941 458.538 406.762 458.535 407.619 459.353L414.043 465.486L414.484 465.024C412.398 455.959 414.806 447.812 421.707 440.583C428.773 433.182 436.538 430.674 445.002 433.057L445.493 432.543C444.094 422.759 447.188 413.893 454.777 405.944C460.632 399.811 467.051 397.066 474.035 397.708C481.017 398.284 488.379 402.267 496.122 409.66L526.187 438.362C527.044 439.18 527.079 440 526.294 440.822L512.311 455.469C511.526 456.291 510.705 456.294 509.849 455.476L479.784 426.773C476.118 423.274 472.725 421.409 469.603 421.18C466.482 420.951 463.482 422.344 460.604 425.359C455.043 431.183 455.843 437.513 463.004 444.35L493.069 473.052C493.925 473.87 493.945 474.707 493.127 475.564L479.144 490.21C478.359 491.033 477.538 491.035 476.681 490.217L446.617 461.515C442.951 458.015 439.573 456.133 436.485 455.87C433.397 455.606 430.413 456.982 427.535 459.997C424.656 463.012 423.421 466.09 423.829 469.229C424.202 472.337 426.205 475.624 429.837 479.091L459.901 507.794C460.758 508.611 460.81 509.414 460.058 510.202L446.123 524.798Z" fill="white"/>
<path d="M564.559 414.447C556.708 420.161 548.502 421.886 539.941 419.622C531.38 417.358 523.587 411.4 516.563 401.748C509.427 391.944 506.088 382.686 506.545 373.976C506.973 365.228 511.19 357.941 519.195 352.115C522.948 349.384 527.079 347.695 531.589 347.049C536.071 346.365 540.362 346.787 544.461 348.314L545.093 347.854L539.867 340.673C539.17 339.716 539.281 338.902 540.2 338.233L556.573 326.317C557.492 325.648 558.3 325.793 558.997 326.75L592.404 372.652L597.977 368.596C598.819 367.983 599.575 368.136 600.244 369.055L607.77 379.396C608.467 380.353 608.394 381.139 607.551 381.752L593.189 392.204C586.908 396.776 581.858 396.438 578.039 391.191L577.621 390.616L577.047 391.035C577.376 395.189 576.411 399.377 574.152 403.599C571.893 407.821 568.695 411.437 564.559 414.447ZM535.981 387.616C539.994 393.131 544.218 396.56 548.652 397.903C553.096 399.18 557.367 398.327 561.465 395.344C565.525 392.39 567.554 388.657 567.553 384.147C567.589 379.61 565.587 374.564 561.545 369.011C557.587 363.572 553.41 360.168 549.015 358.797C544.63 357.36 540.446 358.091 536.463 360.99C532.403 363.945 530.325 367.771 530.229 372.469C530.105 377.129 532.023 382.178 535.981 387.616Z" fill="white"/>
<path d="M622.972 372.839C621.924 373.39 621.124 373.142 620.573 372.093L587.414 309.011C586.863 307.963 587.112 307.164 588.16 306.613L605.016 297.753C606.022 297.224 606.801 297.483 607.352 298.532L611.484 306.393L612.05 306.096C613.129 296.645 618.155 289.562 627.128 284.845C634.843 280.79 641.961 280.179 648.48 283.013C655.042 285.825 660.869 292.074 665.96 301.759L685.101 338.174C685.652 339.223 685.404 340.022 684.355 340.573L666.494 349.962C665.446 350.513 664.646 350.264 664.095 349.216L644.954 312.801C642.507 308.147 639.799 305.183 636.827 303.908C633.856 302.634 630.442 303.01 626.585 305.038C622.727 307.065 620.45 309.707 619.754 312.963C619.035 316.177 619.888 320.09 622.312 324.702L641.453 361.118C642.004 362.166 641.798 362.943 640.833 363.45L622.972 372.839Z" fill="white"/>
<path d="M729.112 324.13C719.954 327.357 711.597 326.66 704.043 322.04C696.489 317.419 690.728 309.48 686.761 298.221C682.731 286.784 682.182 276.958 685.113 268.744C688.029 260.484 694.155 254.71 703.493 251.42C707.871 249.877 712.313 249.442 716.819 250.114C721.309 250.742 725.299 252.374 728.79 255.012L729.527 254.752L726.576 246.375C726.182 245.258 726.521 244.511 727.594 244.133L746.693 237.403C747.765 237.026 748.498 237.395 748.891 238.512L767.758 292.057L774.258 289.766C775.241 289.42 775.921 289.783 776.299 290.855L780.549 302.918C780.943 304.035 780.648 304.766 779.665 305.112L762.912 311.016C755.585 313.597 750.843 311.828 748.687 305.707L748.45 305.037L747.78 305.273C746.906 309.348 744.782 313.084 741.409 316.483C738.036 319.881 733.937 322.43 729.112 324.13ZM709.412 290.24C711.679 296.674 714.744 301.169 718.608 303.725C722.5 306.22 726.837 306.626 731.617 304.941C736.353 303.273 739.366 300.278 740.655 295.956C741.99 291.619 741.516 286.211 739.233 279.733C736.998 273.389 733.971 268.931 730.152 266.359C726.362 263.727 722.143 263.23 717.497 264.867C712.761 266.535 709.675 269.607 708.238 274.081C706.785 278.51 707.177 283.896 709.412 290.24Z" fill="white"/>
<path d="M859.738 290.434C850.16 291.711 842.123 289.318 835.628 283.254C829.18 277.185 825.167 268.234 823.59 256.402C821.994 244.429 823.492 234.695 828.084 227.202C832.676 219.708 839.832 215.314 849.551 214.018C854.2 213.398 858.66 213.879 862.933 215.46C867.246 216.987 870.841 219.399 873.718 222.695L874.493 222.592L869.357 184.067C869.2 182.893 869.639 182.238 870.672 182.1L890.744 179.424C891.871 179.274 892.512 179.786 892.669 180.959L906.048 281.322C906.205 282.495 905.719 283.157 904.593 283.308L885.647 285.833C884.52 285.983 883.879 285.472 883.722 284.298L882.577 275.705L882.013 275.78C880.276 279.596 877.408 282.822 873.411 285.457C869.414 288.093 864.856 289.752 859.738 290.434ZM847.536 253.209C848.437 259.971 850.517 264.998 853.776 268.291C857.028 271.537 861.19 272.822 866.261 272.146C871.191 271.489 874.753 269.174 876.947 265.202C879.135 261.183 879.779 255.793 878.877 249.031C877.988 242.364 875.938 237.381 872.727 234.081C869.556 230.729 865.529 229.378 860.646 230.029C855.622 230.699 851.949 233.076 849.626 237.161C847.344 241.193 846.647 246.542 847.536 253.209Z" fill="white"/>
<path d="M962.176 283.413C949.813 283.303 940.039 279.758 932.854 272.777C925.716 265.797 922.2 256.387 922.306 244.545C922.411 232.751 926.118 223.405 933.428 216.507C940.737 209.608 950.502 206.214 962.722 206.323C974.706 206.43 984.007 209.9 990.625 216.733C997.291 223.567 1000.57 233.023 1000.46 245.101L1000.43 249.151C1000.42 250.193 999.843 250.709 998.706 250.699L946.414 250.232C946.744 255.682 948.293 259.888 951.062 262.85C953.878 265.765 957.773 267.244 962.746 267.289C970.277 267.356 974.944 264.674 976.745 259.243C977.085 258.298 977.729 257.83 978.676 257.839L998.357 258.015C998.925 258.02 999.35 258.142 999.632 258.381C999.962 258.574 1000.1 258.883 1000.05 259.309C998.704 266.876 994.719 272.809 988.096 277.108C981.521 281.407 972.881 283.509 962.176 283.413ZM946.518 238.509L977.567 238.786C977.329 233.62 975.944 229.629 973.411 226.812C970.926 223.947 967.457 222.495 963.005 222.455C958.126 222.412 954.277 223.775 951.457 226.544C948.637 229.314 946.991 233.302 946.518 238.509Z" fill="white"/>
<path d="M1094.06 298.31C1081.79 295.667 1072.58 290.825 1066.45 283.784C1060.35 276.754 1057.75 268.052 1058.62 257.678C1058.75 256.398 1059.47 255.897 1060.76 256.177L1080.63 260.456C1081.51 260.646 1081.99 261.21 1082.08 262.15C1081.95 267.258 1083.14 271.294 1085.65 274.258C1088.21 277.231 1092.2 279.302 1097.61 280.469C1102.29 281.477 1106.17 281.246 1109.25 279.777C1112.33 278.308 1114.25 275.768 1115.03 272.156C1115.72 268.961 1115.22 266.334 1113.53 264.274C1111.9 262.178 1108.78 260.223 1104.18 258.408L1092.95 253.88C1083.02 250.044 1076.07 245.18 1072.11 239.287C1068.15 233.347 1067.07 226.21 1068.87 217.875C1070.91 208.428 1075.76 201.746 1083.44 197.827C1091.16 193.919 1100.88 193.226 1112.59 195.75C1123.94 198.194 1132.53 202.758 1138.35 209.44C1144.18 216.123 1146.8 224.342 1146.2 234.098C1146.12 234.664 1145.89 235.097 1145.48 235.397C1145.13 235.662 1144.71 235.739 1144.2 235.629L1124.26 231.335C1123.29 231.125 1122.81 230.417 1122.83 229.209C1122.8 224.842 1121.68 221.402 1119.46 218.888C1117.24 216.375 1113.81 214.619 1109.18 213.622C1104.69 212.654 1101.06 212.842 1098.3 214.185C1095.59 215.539 1093.85 217.975 1093.09 221.494C1092.4 224.689 1092.97 227.452 1094.8 229.784C1096.62 232.115 1099.8 234.229 1104.33 236.126L1115.75 240.476C1126.03 244.484 1132.98 249.251 1136.58 254.776C1140.19 260.302 1141.04 267.487 1139.13 276.331C1137.12 285.685 1132.08 292.328 1124.01 296.259C1115.95 300.19 1105.96 300.874 1094.06 298.31Z" fill="white"/>
<path d="M1151.28 312.296C1150.16 311.922 1149.78 311.173 1150.16 310.049L1172.68 242.438C1173.06 241.315 1173.81 240.94 1174.93 241.315L1194.08 247.694C1195.11 248.038 1195.44 248.772 1195.06 249.896L1172.54 317.507C1172.16 318.63 1171.46 319.02 1170.42 318.675L1151.28 312.296ZM1176.79 227.856L1183.29 208.374C1183.62 207.386 1184.32 207.071 1185.4 207.43L1205.96 214.281C1207.08 214.656 1207.48 215.337 1207.15 216.326L1200.66 235.807C1200.33 236.796 1199.6 237.103 1198.48 236.728L1177.92 229.878C1176.84 229.518 1176.47 228.844 1176.79 227.856Z" fill="white"/>
<path d="M1219.65 339.522C1210.39 335.41 1203.91 330.332 1200.22 324.289C1196.54 318.202 1195.85 311.469 1198.14 304.09C1198.33 303.551 1198.62 303.188 1199.01 303C1199.43 302.769 1199.87 302.759 1200.35 302.97L1216.58 310.176C1217.49 310.58 1217.87 311.315 1217.7 312.383C1217.02 315.553 1217.37 318.167 1218.73 320.224C1220.14 322.301 1222.52 324.08 1225.85 325.559C1228.62 326.789 1231.08 327.206 1233.22 326.81C1235.43 326.391 1236.95 325.25 1237.77 323.388C1238.64 321.44 1238.64 319.733 1237.79 318.266C1236.96 316.757 1235.12 315.06 1232.28 313.176L1223.64 307.243C1217.03 302.86 1212.73 298.308 1210.73 293.586C1208.8 288.84 1209.17 283.437 1211.86 277.375C1214.78 270.794 1219.61 266.691 1226.34 265.067C1233.12 263.462 1240.92 264.619 1249.76 268.539C1257.77 272.094 1263.52 276.696 1267.03 282.345C1270.55 287.951 1271.29 294.29 1269.24 301.361C1269.12 301.981 1268.84 302.376 1268.4 302.544C1268.01 302.732 1267.57 302.72 1267.1 302.509L1250.92 295.332C1249.97 294.909 1249.56 294.133 1249.7 293.003C1250.24 290.391 1250.02 288.27 1249.03 286.64C1248.06 284.967 1246.26 283.544 1243.62 282.372C1240.93 281.181 1238.64 280.809 1236.73 281.257C1234.86 281.725 1233.49 282.955 1232.6 284.946C1231.78 286.808 1231.78 288.547 1232.62 290.162C1233.52 291.754 1235.53 293.58 1238.66 295.642L1247.46 301.567C1254.15 305.988 1258.34 310.44 1260.03 314.921C1261.77 319.422 1261.29 324.703 1258.6 330.765C1255.39 337.995 1250.44 342.305 1243.76 343.694C1237.13 345.101 1229.09 343.711 1219.65 339.522Z" fill="white"/>
<path d="M1291.01 375.398C1284.47 371.566 1280.48 366.895 1279.04 361.385C1277.63 355.835 1278.85 349.77 1282.71 343.19L1300.35 313.092L1290.35 307.236C1289.33 306.637 1289.12 305.827 1289.72 304.805L1296.19 293.771C1296.78 292.749 1297.59 292.538 1298.62 293.137L1308.61 298.993L1318.96 281.338C1319.51 280.398 1320.29 280.227 1321.31 280.826L1338.78 291.065C1339.68 291.592 1339.86 292.326 1339.31 293.265L1328.96 310.92L1343.67 319.542C1344.65 320.117 1344.84 320.915 1344.25 321.937L1337.78 332.971C1337.52 333.421 1337.16 333.705 1336.7 333.823C1336.25 333.942 1335.82 333.881 1335.41 333.642L1320.7 325.019L1299.36 361.432L1313.95 369.982C1314.93 370.557 1315.13 371.335 1314.56 372.316L1308.09 383.35C1307.49 384.372 1306.7 384.595 1305.72 384.02L1291.01 375.398Z" fill="white"/>
<path d="M1349.15 416.35C1339.31 408.861 1333.61 400.17 1332.03 390.278C1330.49 380.414 1333.31 370.771 1340.48 361.348C1347.63 351.964 1356.19 346.697 1366.17 345.547C1376.16 344.397 1386.01 347.523 1395.74 354.927C1405.27 362.186 1410.64 370.534 1411.86 379.969C1413.1 389.433 1410.07 398.97 1402.75 408.581L1400.3 411.803C1399.67 412.632 1398.9 412.703 1398 412.014L1356.39 380.335C1353.39 384.899 1352.11 389.196 1352.56 393.225C1353.07 397.246 1355.3 400.763 1359.26 403.776C1365.25 408.338 1370.6 408.983 1375.29 405.711C1376.13 405.158 1376.92 405.168 1377.68 405.742L1393.34 417.665C1393.79 418.009 1394.06 418.361 1394.14 418.722C1394.29 419.074 1394.21 419.405 1393.92 419.715C1388.31 424.97 1381.57 427.338 1373.69 426.816C1365.85 426.324 1357.67 422.835 1349.15 416.35ZM1363.49 371.008L1388.19 389.817C1391.1 385.536 1392.38 381.51 1392.03 377.737C1391.76 373.955 1389.85 370.715 1386.31 368.018C1382.42 365.062 1378.52 363.85 1374.61 364.38C1370.69 364.911 1366.98 367.12 1363.49 371.008Z" fill="white"/>
<path d="M1394.03 448.962C1393.23 448.092 1393.26 447.255 1394.13 446.451L1446.48 398.091C1447.35 397.287 1448.18 397.32 1448.99 398.19L1461.91 412.177C1462.68 413.012 1462.63 413.831 1461.76 414.635L1455.24 420.662L1455.67 421.132C1464.85 419.618 1472.83 422.531 1479.61 429.873C1486.55 437.388 1488.57 445.295 1485.66 453.593L1486.14 454.115C1496 453.332 1504.65 456.976 1512.11 465.048C1517.86 471.276 1520.2 477.855 1519.12 484.784C1518.11 491.717 1513.67 498.815 1505.81 506.08L1475.28 534.286C1474.41 535.089 1473.59 535.074 1472.82 534.239L1459.07 519.365C1458.3 518.53 1458.35 517.71 1459.22 516.907L1489.75 488.701C1493.48 485.261 1495.55 481.991 1495.97 478.89C1496.4 475.79 1495.2 472.709 1492.37 469.647C1486.9 463.732 1480.53 464.134 1473.26 470.852L1442.73 499.058C1441.86 499.862 1441.03 499.829 1440.22 498.959L1426.48 484.085C1425.71 483.25 1425.76 482.431 1426.63 481.627L1457.16 453.421C1460.88 449.981 1462.97 446.729 1463.43 443.663C1463.88 440.597 1462.7 437.533 1459.87 434.471C1457.04 431.41 1454.05 429.984 1450.89 430.194C1447.76 430.372 1444.36 432.165 1440.67 435.572L1410.14 463.778C1409.27 464.582 1408.46 464.584 1407.72 463.783L1394.03 448.962Z" fill="white"/>
<path d="M1496.74 574.082C1491.53 565.888 1490.32 557.59 1493.12 549.188C1495.92 540.785 1502.35 533.382 1512.42 526.976C1522.66 520.469 1532.1 517.717 1540.77 518.718C1549.47 519.695 1556.48 524.36 1561.79 532.714C1564.29 536.631 1565.71 540.86 1566.07 545.402C1566.48 549.918 1565.79 554.173 1564 558.169L1564.42 558.829L1571.92 554.063C1572.92 553.427 1573.72 553.589 1574.33 554.549L1585.2 571.636C1585.81 572.595 1585.61 573.393 1584.61 574.028L1536.71 604.492L1540.41 610.308C1540.97 611.187 1540.77 611.932 1539.81 612.542L1529.02 619.405C1528.02 620.04 1527.24 619.918 1526.68 619.039L1517.15 604.05C1512.98 597.495 1513.63 592.476 1519.11 588.994L1519.71 588.612L1519.33 588.013C1515.16 588.08 1511.04 586.855 1506.97 584.336C1502.9 581.817 1499.49 578.399 1496.74 574.082ZM1525.31 547.242C1519.56 550.902 1515.87 554.902 1514.25 559.243C1512.7 563.599 1513.28 567.915 1516 572.192C1518.7 576.429 1522.29 578.688 1526.79 578.969C1531.32 579.29 1536.48 577.608 1542.28 573.922C1547.95 570.313 1551.61 566.358 1553.26 562.057C1554.97 557.77 1554.5 553.549 1551.85 549.392C1549.16 545.155 1545.47 542.841 1540.79 542.451C1536.15 542.035 1530.99 543.632 1525.31 547.242Z" fill="white"/>
<path d="M1545.4 661.925C1541.17 652.714 1539.67 644.621 1540.89 637.646C1542.16 630.651 1546.09 625.142 1552.69 621.119C1553.18 620.838 1553.64 620.758 1554.06 620.878C1554.52 620.977 1554.87 621.264 1555.08 621.738L1562.5 637.877C1562.92 638.781 1562.71 639.579 1561.88 640.273C1559.28 642.201 1557.81 644.389 1557.47 646.837C1557.16 649.327 1557.76 652.23 1559.28 655.544C1560.55 658.298 1562.12 660.236 1563.99 661.357C1565.92 662.501 1567.82 662.648 1569.67 661.797C1571.6 660.907 1572.74 659.63 1573.07 657.966C1573.44 656.283 1573.18 653.795 1572.29 650.501L1569.73 640.339C1567.67 632.684 1567.46 626.424 1569.08 621.56C1570.76 616.719 1574.62 612.914 1580.64 610.144C1587.18 607.136 1593.52 607.248 1599.64 610.48C1605.79 613.755 1610.88 619.782 1614.92 628.562C1618.58 636.524 1619.85 643.783 1618.75 650.338C1617.69 656.874 1614.05 662.117 1607.84 666.068C1607.34 666.454 1606.87 666.566 1606.43 666.403C1606.01 666.283 1605.69 665.987 1605.47 665.513L1598.08 649.439C1597.65 648.492 1597.85 647.64 1598.71 646.884C1600.84 645.279 1602.07 643.539 1602.41 641.664C1602.79 639.769 1602.37 637.508 1601.16 634.883C1599.94 632.215 1598.46 630.418 1596.73 629.492C1595.02 628.609 1593.18 628.623 1591.2 629.533C1589.35 630.384 1588.2 631.693 1587.76 633.459C1587.39 635.248 1587.69 637.95 1588.67 641.564L1591.36 651.825C1593.46 659.567 1593.66 665.678 1591.97 670.158C1590.29 674.681 1586.44 678.328 1580.42 681.098C1573.23 684.402 1566.67 684.367 1560.74 680.994C1554.83 677.663 1549.72 671.307 1545.4 661.925Z" fill="white"/>
<path d="M314.812 1356.9C309.625 1348.75 308.415 1340.45 311.184 1332.01C313.978 1323.6 320.411 1316.2 330.482 1309.79C340.673 1303.31 350.133 1300.57 358.863 1301.58C367.593 1302.6 374.59 1307.24 379.854 1315.51C382.371 1319.47 383.812 1323.72 384.175 1328.26C384.603 1332.82 383.927 1337.09 382.147 1341.09L382.567 1341.75L415.357 1320.88C416.356 1320.25 417.135 1320.37 417.695 1321.25L428.566 1338.33C429.176 1339.29 428.982 1340.09 427.983 1340.73L342.56 1395.08C341.56 1395.72 340.756 1395.55 340.145 1394.6L329.885 1378.47C329.274 1377.51 329.469 1376.71 330.468 1376.08L337.781 1371.42L337.476 1370.94C333.284 1370.97 329.151 1369.73 325.079 1367.21C321.006 1364.69 317.584 1361.26 314.812 1356.9ZM343.451 1330.17C337.696 1333.83 334.01 1337.84 332.393 1342.18C330.816 1346.49 331.401 1350.81 334.147 1355.12C336.817 1359.32 340.416 1361.58 344.942 1361.9C349.509 1362.19 354.67 1360.51 360.425 1356.85C366.1 1353.24 369.758 1349.28 371.4 1344.98C373.108 1340.69 372.64 1336.47 369.995 1332.31C367.274 1328.04 363.572 1325.71 358.889 1325.32C354.272 1324.94 349.125 1326.56 343.451 1330.17Z" fill="white"/>
<path d="M378.628 1445.17C370.694 1435.68 367.053 1425.95 367.705 1415.95C368.388 1405.99 373.27 1397.21 382.352 1389.61C391.397 1382.04 400.915 1378.8 410.906 1379.89C420.897 1380.98 429.815 1386.21 437.658 1395.58C445.349 1404.77 448.741 1414.1 447.832 1423.57C446.955 1433.07 441.884 1441.7 432.621 1449.46L429.515 1452.06C428.716 1452.72 427.952 1452.62 427.222 1451.75L393.66 1411.65C389.726 1415.43 387.529 1419.34 387.071 1423.37C386.679 1427.4 388.079 1431.33 391.271 1435.14C396.105 1440.92 401.173 1442.73 406.475 1440.58C407.414 1440.22 408.188 1440.41 408.796 1441.14L421.427 1456.23C421.792 1456.67 421.975 1457.07 421.976 1457.44C422.043 1457.81 421.898 1458.12 421.541 1458.36C414.908 1462.24 407.808 1463.06 400.24 1460.8C392.703 1458.59 385.499 1453.38 378.628 1445.17ZM402.651 1404.12L422.578 1427.93C426.355 1424.4 428.495 1420.76 428.996 1417C429.565 1413.25 428.42 1409.67 425.562 1406.26C422.431 1402.52 418.897 1400.47 414.96 1400.12C411.023 1399.77 406.92 1401.11 402.651 1404.12Z" fill="white"/>
<path d="M451.354 1519.13C450.464 1518.34 450.411 1517.51 451.192 1516.62L516.125 1442.77C516.907 1441.88 517.743 1441.83 518.632 1442.61L534.267 1456.35C535.049 1457.04 535.05 1457.83 534.268 1458.72L469.335 1532.57C468.553 1533.46 467.771 1533.56 466.988 1532.87L451.354 1519.13Z" fill="white"/>
<path d="M489.693 1552.44C488.73 1551.75 488.594 1550.92 489.284 1549.96L530.803 1492.04C531.493 1491.07 532.319 1490.94 533.282 1491.63L548.758 1502.72C549.682 1503.38 549.8 1504.2 549.11 1505.16L543.935 1512.38L544.455 1512.75C553.386 1509.48 561.972 1510.79 570.21 1516.7C577.294 1521.78 581.031 1527.87 581.421 1534.96C581.85 1542.09 578.877 1550.1 572.502 1558.99L548.534 1592.43C547.845 1593.39 547.018 1593.53 546.056 1592.84L529.655 1581.08C528.693 1580.39 528.556 1579.57 529.246 1578.6L553.214 1545.17C556.277 1540.89 557.712 1537.14 557.52 1533.92C557.327 1530.69 555.459 1527.81 551.917 1525.27C548.375 1522.73 544.993 1521.88 541.77 1522.72C538.575 1523.51 535.46 1526.03 532.424 1530.27L508.457 1563.7C507.767 1564.66 506.979 1564.83 506.094 1564.19L489.693 1552.44Z" fill="white"/>
<path d="M576.803 1610.95C575.769 1610.38 575.541 1609.57 576.119 1608.54L603.223 1560.03L593.113 1554.38C592.079 1553.81 591.84 1553.02 592.394 1552.03L598.668 1540.8C599.223 1539.81 600.017 1539.6 601.05 1540.18L611.161 1545.83L614.939 1539.07C618.636 1532.45 623.224 1528.37 628.703 1526.82C634.181 1525.27 640.229 1526.34 646.845 1530.04L661.731 1538.36C662.723 1538.91 662.931 1539.71 662.353 1540.74L656.114 1551.9C655.536 1552.94 654.751 1553.18 653.759 1552.62L638.997 1544.37L631.753 1557.34L646.639 1565.66C647.094 1565.91 647.364 1566.25 647.451 1566.68C647.578 1567.13 647.527 1567.56 647.296 1567.98L641.022 1579.2C640.467 1580.19 639.694 1580.41 638.702 1579.86L623.816 1571.54L596.711 1620.04C596.133 1621.08 595.389 1621.34 594.48 1620.83L576.803 1610.95Z" fill="white"/>
<path d="M694.599 1657.04C685.158 1660.68 674.87 1660.16 663.735 1655.48C652.6 1650.8 645.028 1643.81 641.02 1634.52C637.056 1625.25 637.331 1615.24 641.847 1604.5C646.363 1593.76 653.31 1586.58 662.69 1582.97C672.131 1579.34 682.42 1579.86 693.555 1584.54C704.69 1589.22 712.261 1596.21 716.269 1605.5C720.296 1614.74 720.051 1624.74 715.535 1635.48C711.02 1646.22 704.041 1653.41 694.599 1657.04ZM663.986 1613.81C661.233 1620.36 660.376 1625.88 661.414 1630.38C662.515 1634.85 665.446 1638.08 670.205 1640.08C674.921 1642.07 679.262 1641.89 683.226 1639.55C687.253 1637.18 690.643 1632.72 693.396 1626.17C696.131 1619.66 696.936 1614.14 695.809 1609.61C694.745 1605.05 691.855 1601.78 687.139 1599.8C682.423 1597.82 678.064 1598.04 674.063 1600.47C670.08 1602.86 666.721 1607.3 663.986 1613.81Z" fill="white"/>
<path d="M721.625 1676.19C720.626 1675.89 720.295 1675.17 720.632 1674.04L734.736 1626.49C736.891 1619.22 740.448 1614.23 745.408 1611.5C750.413 1608.78 756.549 1608.5 763.815 1610.66L786.975 1617.53C788.02 1617.84 788.373 1618.56 788.037 1619.7L783.814 1633.93C783.517 1634.93 782.847 1635.28 781.802 1634.97L758.778 1628.14L743.179 1680.73C742.843 1681.86 742.175 1682.28 741.176 1681.98L721.625 1676.19Z" fill="white"/>
<path d="M789.071 1696.77C787.9 1696.6 787.4 1695.93 787.573 1694.76L797.982 1624.26C798.155 1623.08 798.827 1622.58 799.998 1622.76L818.836 1625.54C819.961 1625.71 820.437 1626.37 820.264 1627.55L818.967 1636.33L819.599 1636.43C825.795 1629.49 833.836 1626.75 843.724 1628.21C853.846 1629.7 860.378 1634.59 863.32 1642.88L864.023 1642.98C871.203 1636.19 880.228 1633.6 891.1 1635.2C899.488 1636.44 905.436 1640.1 908.945 1646.17C912.507 1652.2 913.507 1660.51 911.943 1671.1L905.873 1712.22C905.7 1713.39 905.051 1713.9 903.926 1713.73L883.893 1710.77C882.769 1710.61 882.293 1709.94 882.466 1708.77L888.537 1667.65C889.277 1662.63 888.839 1658.79 887.224 1656.1C885.609 1653.42 882.739 1651.78 878.615 1651.17C870.649 1649.99 865.943 1654.3 864.497 1664.1L858.426 1705.22C858.253 1706.39 857.581 1706.89 856.41 1706.72L836.377 1703.76C835.252 1703.59 834.776 1702.92 834.949 1701.75L841.02 1660.63C841.76 1655.62 841.346 1651.77 839.778 1649.1C838.209 1646.43 835.363 1644.79 831.239 1644.18C827.116 1643.57 823.89 1644.34 821.562 1646.48C819.241 1648.58 817.714 1652.12 816.981 1657.08L810.91 1698.2C810.737 1699.37 810.112 1699.88 809.034 1699.72L789.071 1696.77Z" fill="white"/>
<path d="M957.837 1714.44C948.128 1714.61 940.416 1711.32 934.701 1704.56C928.985 1697.79 926.017 1688.45 925.796 1676.51C925.572 1664.39 928.144 1654.89 933.513 1648.01C938.88 1641.09 946.513 1637.54 956.412 1637.36C961.053 1637.27 965.406 1638.26 969.471 1640.31C973.535 1642.32 976.809 1645.13 979.292 1648.73L980.073 1648.72L979.909 1639.84C979.887 1638.65 980.444 1638.05 981.581 1638.03L1001.83 1637.65C1002.96 1637.63 1003.54 1638.21 1003.57 1639.4L1004.62 1696.16L1011.51 1696.03C1012.55 1696.01 1013.08 1696.57 1013.1 1697.71L1013.34 1710.5C1013.36 1711.68 1012.85 1712.28 1011.81 1712.3L994.047 1712.63C986.28 1712.77 982.336 1709.6 982.216 1703.11L982.203 1702.4L981.493 1702.41C979.38 1706.01 976.188 1708.88 971.917 1711.05C967.645 1713.21 962.952 1714.34 957.837 1714.44ZM949.808 1676.07C949.934 1682.89 951.428 1688.12 954.291 1691.76C957.2 1695.35 961.188 1697.1 966.256 1697.01C971.276 1696.92 975.079 1695.02 977.663 1691.33C980.295 1687.63 981.548 1682.35 981.421 1675.48C981.297 1668.76 979.827 1663.57 977.012 1659.93C974.243 1656.24 970.396 1654.44 965.47 1654.53C960.45 1654.62 956.554 1656.56 953.781 1660.36C951.008 1664.11 949.684 1669.34 949.808 1676.07Z" fill="white"/>
<path d="M1062.7 1735.31C1061.58 1735.48 1060.94 1735.03 1060.77 1733.95L1059.73 1727.07C1059.57 1725.99 1060.05 1725.36 1061.17 1725.2L1069.25 1723.97C1071.45 1723.64 1073.06 1723.16 1074.06 1722.53C1075.12 1721.89 1075.54 1720.89 1075.34 1719.53C1075.12 1718.13 1074.46 1717.25 1073.36 1716.89C1072.25 1716.57 1070.53 1716.59 1068.19 1716.95L1065.31 1717.38C1064.8 1717.46 1064.35 1717.36 1063.97 1717.08C1063.6 1716.85 1063.38 1716.5 1063.31 1716.03L1061.86 1706.41C1051.53 1706.58 1042.99 1703.77 1036.22 1697.99C1029.5 1692.21 1025.36 1684.09 1023.78 1673.65C1022.04 1662.13 1024.27 1652.35 1030.48 1644.32C1036.73 1636.24 1045.88 1631.29 1057.92 1629.47C1068.22 1627.91 1076.93 1629.11 1084.04 1633.06C1091.19 1636.97 1095.96 1643.14 1098.34 1651.6C1098.47 1652.15 1098.4 1652.64 1098.13 1653.07C1097.9 1653.44 1097.53 1653.66 1097.01 1653.74L1077.62 1656.67C1076.59 1656.83 1075.92 1656.33 1075.6 1655.18C1074.3 1651.35 1072.42 1648.71 1069.95 1647.27C1067.48 1645.82 1064.3 1645.39 1060.41 1645.98C1055.26 1646.76 1051.56 1649.23 1049.32 1653.4C1047.07 1657.57 1046.48 1663.13 1047.52 1670.06C1048.58 1677.04 1050.79 1682.16 1054.16 1685.44C1057.53 1688.71 1061.79 1689.96 1066.94 1689.18C1070.92 1688.58 1073.93 1687.22 1075.95 1685.09C1078.02 1682.91 1079.2 1679.81 1079.5 1675.79C1079.47 1674.64 1079.95 1674 1080.94 1673.85L1100.4 1670.91C1100.91 1670.83 1101.35 1670.9 1101.72 1671.14C1102.09 1671.37 1102.29 1671.72 1102.32 1672.2C1102.37 1680.48 1099.89 1687.51 1094.87 1693.3C1089.89 1699.03 1082.74 1702.92 1073.42 1704.95L1074.01 1708.88C1078.16 1708.45 1081.47 1709.1 1083.94 1710.83C1086.4 1712.57 1087.89 1715.1 1088.39 1718.42C1089.67 1726.9 1084.72 1731.98 1073.52 1733.68L1062.7 1735.31Z" fill="white"/>
<path d="M1153.54 1687.96C1144.21 1690.66 1135.91 1689.48 1128.63 1684.44C1121.35 1679.39 1116.06 1671.13 1112.74 1659.67C1109.37 1648.02 1109.39 1638.18 1112.78 1630.14C1116.17 1622.07 1122.61 1616.65 1132.12 1613.9C1136.58 1612.61 1141.04 1612.43 1145.5 1613.36C1149.95 1614.24 1153.84 1616.1 1157.17 1618.93L1157.92 1618.72L1155.46 1610.19C1155.13 1609.05 1155.51 1608.32 1156.6 1608L1176.05 1602.38C1177.15 1602.06 1177.86 1602.47 1178.19 1603.61L1193.96 1658.15L1200.58 1656.23C1201.58 1655.94 1202.24 1656.35 1202.55 1657.44L1206.11 1669.72C1206.43 1670.86 1206.1 1671.57 1205.1 1671.86L1188.03 1676.8C1180.57 1678.96 1175.94 1676.92 1174.14 1670.69L1173.94 1670L1173.26 1670.2C1172.15 1674.22 1169.82 1677.83 1166.25 1681.03C1162.69 1684.23 1158.45 1686.54 1153.54 1687.96ZM1109.41 1608.78C1107.78 1602.45 1107.9 1597.14 1109.76 1592.85C1111.62 1588.52 1115 1585.64 1119.92 1584.22C1122.65 1583.43 1126.52 1583.37 1131.55 1584.04C1136.57 1584.7 1139.86 1584.81 1141.41 1584.37C1143.82 1583.67 1144.95 1581.79 1144.8 1578.72C1144.78 1577.6 1145.19 1576.91 1146.06 1576.66L1157.66 1573.31C1158.75 1572.99 1159.46 1573.4 1159.79 1574.54C1161.43 1580.87 1161.32 1586.2 1159.46 1590.54C1157.6 1594.82 1154.23 1597.67 1149.36 1599.08C1146.63 1599.87 1142.75 1599.91 1137.71 1599.19C1132.67 1598.48 1129.35 1598.36 1127.76 1598.82C1125.35 1599.51 1124.22 1601.39 1124.36 1604.46C1124.42 1605.67 1124.04 1606.4 1123.22 1606.64L1111.61 1609.99C1110.48 1610.32 1109.74 1609.92 1109.41 1608.78ZM1135.81 1653C1137.71 1659.55 1140.51 1664.21 1144.22 1666.98C1147.96 1669.7 1152.27 1670.35 1157.14 1668.94C1161.96 1667.55 1165.14 1664.73 1166.68 1660.49C1168.26 1656.24 1168.09 1650.81 1166.18 1644.21C1164.32 1637.75 1161.55 1633.13 1157.88 1630.34C1154.25 1627.5 1150.07 1626.76 1145.33 1628.13C1140.51 1629.52 1137.25 1632.41 1135.56 1636.8C1133.86 1641.13 1133.94 1646.53 1135.81 1653Z" fill="white"/>
<path d="M1281.03 1629.33C1277.18 1638.69 1269.72 1645.8 1258.67 1650.66C1247.61 1655.52 1237.33 1656.21 1227.83 1652.73C1218.38 1649.24 1211.3 1642.15 1206.61 1631.49C1201.92 1620.82 1201.49 1610.84 1205.32 1601.55C1209.17 1592.19 1216.63 1585.09 1227.69 1580.22C1238.74 1575.36 1249.02 1574.67 1258.52 1578.15C1268 1581.58 1275.09 1588.64 1279.78 1599.3C1284.47 1609.97 1284.89 1619.98 1281.03 1629.33ZM1228.59 1621.82C1231.45 1628.32 1234.87 1632.74 1238.85 1635.08C1242.85 1637.36 1247.22 1637.45 1251.94 1635.38C1256.63 1633.32 1259.48 1630.04 1260.51 1625.55C1261.56 1621 1260.66 1615.48 1257.8 1608.97C1254.95 1602.51 1251.5 1598.13 1247.44 1595.83C1243.4 1593.47 1239.03 1593.32 1234.35 1595.38C1229.67 1597.44 1226.83 1600.75 1225.84 1605.33C1224.84 1609.86 1225.75 1615.36 1228.59 1621.82Z" fill="white"/>
<path d="M1346.89 1604.55C1345.91 1605.22 1345.09 1605.07 1344.42 1604.09L1337.97 1594.64C1337.46 1593.89 1337.33 1593.15 1337.57 1592.41L1349.52 1549.78C1351.74 1541.44 1352.77 1534.75 1352.59 1529.7C1352.4 1524.62 1350.94 1520.08 1348.21 1516.09C1343.51 1509.2 1337.72 1508.11 1330.83 1512.81C1326.88 1515.5 1324.57 1518.54 1323.9 1521.93C1323.2 1525.27 1324.08 1529.26 1326.55 1533.88C1327.1 1534.94 1326.9 1535.79 1325.96 1536.43L1309.12 1547.92C1308.22 1548.54 1307.49 1548.31 1306.94 1547.25C1301.65 1538.07 1300.2 1529.18 1302.58 1520.56C1304.96 1511.94 1310.96 1504.35 1320.58 1497.78C1329.9 1491.43 1338.8 1488.71 1347.28 1489.63C1355.77 1490.56 1362.7 1494.97 1368.09 1502.87C1372.13 1508.78 1374.35 1515.12 1374.78 1521.88C1375.25 1528.61 1374.01 1537.52 1371.06 1548.58L1366.05 1568.09L1366.45 1568.68L1399.5 1546.13C1400.47 1545.47 1401.28 1545.6 1401.92 1546.54L1410.45 1559.04C1411.12 1560.02 1410.96 1560.84 1409.99 1561.51L1346.89 1604.55Z" fill="white"/>
<path d="M1460.33 1520.12C1449.54 1529.87 1438.45 1533.99 1427.06 1532.48C1415.7 1530.93 1404.26 1523.78 1392.73 1511.02C1381.2 1498.27 1375.23 1486.16 1374.84 1474.71C1374.45 1463.25 1379.66 1452.63 1390.48 1442.85C1401.27 1433.1 1412.35 1428.99 1423.7 1430.54C1435.06 1432.09 1446.51 1439.24 1458.04 1451.99C1469.53 1464.72 1475.48 1476.84 1475.87 1488.36C1476.26 1499.82 1471.08 1510.4 1460.33 1520.12ZM1397.14 1472.46C1398.35 1478.32 1402.96 1485.68 1410.96 1494.54C1418.97 1503.4 1425.84 1508.74 1431.58 1510.57C1437.3 1512.37 1442.72 1510.95 1447.85 1506.31C1452.87 1501.77 1454.76 1496.52 1453.52 1490.55C1452.28 1484.59 1447.71 1477.23 1439.8 1468.48C1431.89 1459.73 1425.03 1454.44 1419.22 1452.6C1413.41 1450.76 1407.99 1452.12 1402.97 1456.66C1397.84 1461.3 1395.89 1466.56 1397.14 1472.46Z" fill="white"/>
<path d="M1505.6 1475.46C1504.83 1476.36 1504 1476.43 1503.09 1475.67L1494.34 1468.31C1493.65 1467.73 1493.32 1467.05 1493.36 1466.27L1493.38 1421.99C1493.28 1413.36 1492.46 1406.64 1490.94 1401.83C1489.38 1396.99 1486.75 1393.01 1483.06 1389.9C1476.68 1384.54 1470.8 1385.04 1465.44 1391.42C1462.36 1395.08 1460.95 1398.63 1461.21 1402.07C1461.44 1405.48 1463.36 1409.08 1466.98 1412.87C1467.79 1413.74 1467.84 1414.61 1467.1 1415.48L1453.97 1431.08C1453.27 1431.92 1452.51 1431.9 1451.7 1431.03C1444.14 1423.61 1440.34 1415.43 1440.31 1406.49C1440.28 1397.55 1444.02 1388.62 1451.52 1379.71C1458.78 1371.08 1466.62 1366.07 1475.04 1364.67C1483.45 1363.28 1491.32 1365.66 1498.65 1371.82C1504.12 1376.43 1507.97 1381.93 1510.2 1388.32C1512.46 1394.69 1513.67 1403.59 1513.81 1415.04L1514.23 1435.18L1514.78 1435.63L1540.53 1405.03C1541.3 1404.12 1542.11 1404.03 1542.98 1404.77L1554.56 1414.51C1555.47 1415.27 1555.54 1416.11 1554.78 1417.01L1505.6 1475.46Z" fill="white"/>
<path d="M1590.93 1365.48C1584.44 1375.67 1577.08 1382.32 1568.85 1385.45C1560.65 1388.54 1552.02 1387.93 1542.97 1383.62C1542.47 1383.35 1542.16 1382.99 1542.06 1382.53C1541.96 1382.07 1542.06 1381.61 1542.37 1381.13L1553.21 1364.11C1553.77 1363.23 1554.53 1363.01 1555.49 1363.45C1563.54 1366.68 1570.24 1364.09 1575.59 1355.7C1578.36 1351.35 1579.22 1347.23 1578.15 1343.35C1577.09 1339.47 1574.18 1336.02 1569.42 1332.99C1559.92 1326.93 1552.21 1328.53 1546.3 1337.8C1542.38 1343.95 1541.17 1350.17 1542.67 1356.46C1542.9 1357.51 1542.76 1358.29 1542.26 1358.82L1533.41 1368.34C1532.73 1368.97 1531.95 1369.01 1531.07 1368.45L1488.7 1337.49C1488.3 1337.24 1488.06 1336.86 1487.99 1336.36C1487.87 1335.84 1487.93 1335.4 1488.16 1335.04L1521.84 1282.19C1522.42 1281.27 1523.22 1281.13 1524.21 1281.77L1536.98 1289.9C1537.42 1290.18 1537.69 1290.55 1537.79 1291.01C1537.92 1291.42 1537.85 1291.83 1537.6 1292.23L1512.89 1331L1531.12 1344.3L1531.5 1343.7C1530.95 1340.43 1531.17 1336.86 1532.17 1333.01C1533.15 1329.08 1534.79 1325.32 1537.08 1321.73C1542.43 1313.34 1549.11 1308.36 1557.13 1306.79C1565.18 1305.18 1573.58 1307.16 1582.33 1312.73C1591.76 1318.74 1597.23 1326.41 1598.75 1335.75C1600.26 1345.02 1597.65 1354.93 1590.93 1365.48Z" fill="white"/>
</svg>
