<?xml version="1.0" encoding="UTF-8" standalone="no"?>
<svg
   width="400"
   height="312.75"
   viewBox="0 0 400 312.75"
   fill="none"
   version="1.1"
   id="svg26"
   sodipodi:docname="logo footer.svg"
   inkscape:version="1.4.3 (0d15f75, 2025-12-25)"
   xmlns:inkscape="http://www.inkscape.org/namespaces/inkscape"
   xmlns:sodipodi="http://sodipodi.sourceforge.net/DTD/sodipodi-0.dtd"
   xmlns="http://www.w3.org/2000/svg"
   xmlns:svg="http://www.w3.org/2000/svg">
  <sodipodi:namedview
     id="namedview26"
     pagecolor="#ffffff"
     bordercolor="#000000"
     borderopacity="0.25"
     inkscape:showpageshadow="true"
     inkscape:pageopacity="0.0"
     inkscape:pagecheckerboard="true"
     inkscape:deskcolor="#d1d1d1"
     showborder="true"
     borderlayer="true"
     inkscape:zoom="1.3360927"
     inkscape:cx="-19.459727"
     inkscape:cy="114.88724"
     inkscape:window-width="1920"
     inkscape:window-height="1009"
     inkscape:window-x="-8"
     inkscape:window-y="-8"
     inkscape:window-maximized="1"
     inkscape:current-layer="svg26" />
  <g
     id="g26"
     transform="translate(101.30603,70.963489)">
    <g
       filter="url(#filter0_di_101_217)"
       id="g3"
       transform="matrix(2.3774428,0,0,2.3774428,-120.29339,-97.983014)">
      <path
         d="m 104.088,73.4179 26.546,-32.1571 c 3.124,-3.7847 2.965,-9.0752 -0.355,-11.816 l -1.016,-0.838 c -3.32,-2.7413 -8.545,-1.895 -11.669,1.8898 l -2.531,3.0653 c -0.262,-0.6496 -0.668,-1.2345 -1.23,-1.6978 l -0.521,-0.4306 c -2.017,-1.6647 -5.19,-1.1512 -7.087,1.1475 l -6.5871,7.979 c -0.3732,-0.2624 -0.7531,-0.5104 -1.1392,-0.7449 l 1.8633,-2.2567 c 1.307,-1.5834 1.24,-3.7967 -0.149,-4.9432 l -0.185,-0.1532 c -1.3896,-1.1465 -3.5754,-0.793 -4.8824,0.7904 l -3.2785,3.9711 c -1.3153,-0.2697 -2.6585,-0.4183 -4.0157,-0.4478 l 4.599,-5.571 c 1.8976,-2.2987 1.8008,-5.511 -0.2159,-7.1756 l -0.5217,-0.4307 c -2.0166,-1.6646 -5.1896,-1.1506 -7.0866,1.1475 L 66.9581,46.1491 c -0.3763,0.4555 -0.6703,0.9478 -0.8903,1.4561 -8.7823,11.1239 -8.1866,26.3728 1.4576,34.3341 9.7947,8.0856 25.2055,5.5902 34.4216,-5.5736 0.786,-0.9519 1.496,-1.9385 2.141,-2.9478 z"
         fill="#ffffff"
         id="path1" />
      <path
         d="m 106.664,27.9951 c 1.868,0 3.383,-1.5146 3.383,-3.3831 0,-1.8684 -1.515,-3.3831 -3.383,-3.3831 -1.869,0 -3.383,1.5147 -3.383,3.3831 0,1.8685 1.514,3.3831 3.383,3.3831 z"
         fill="#ffffff"
         id="path2" />
      <path
         d="m 118.903,13.7453 c -1.9,2.3014 -1.61,5.6772 0.646,7.54 2.257,1.8628 5.626,1.5072 7.526,-0.7942 1.9,-2.3014 1.61,-5.6772 -0.646,-7.54 -2.257,-1.8628 -5.626,-1.5072 -7.526,0.7942 z"
         fill="#ffffff"
         id="path3" />
    </g>
    <g
       filter="url(#filter1_di_101_217)"
       id="g5"
       transform="matrix(2.3774428,0,0,2.3774428,-120.29339,-97.983014)">
      <path
         d="m 83.5721,27.5475 c 1.2472,-0.1547 2.7522,0.196 3.4428,1.684 0.1086,0.234 0.1497,0.4967 0.17,0.6505 0.0246,0.1856 0.0378,0.381 0.0454,0.5485 0.0077,0.1704 0.0101,0.3276 0.0107,0.4412 3e-4,0.0573 1e-4,0.1045 -2e-4,0.138 -10e-5,0.015 -2e-4,0.0274 -3e-4,0.0367 l 0.042,33.3214 32.4045,-4.6283 0.015,-0.0021 0.014,-0.0016 0.118,1.0284 c -0.113,-0.9852 -0.118,-1.0267 -0.118,-1.0284 v 0 l 0.001,-2e-4 c 0,0 0.001,1e-4 0.001,0 10e-4,-10e-5 0.002,-3e-4 0.004,-5e-4 0.003,-4e-4 0.008,-9e-4 0.014,-0.0016 0.012,-0.0013 0.029,-0.0032 0.05,-0.0054 0.043,-0.0046 0.103,-0.0108 0.177,-0.0178 0.146,-0.014 0.348,-0.0314 0.565,-0.045 0.215,-0.0133 0.458,-0.0238 0.684,-0.0214 0.192,0.002 0.487,0.0124 0.742,0.0875 1.568,0.4623 2.096,1.8709 2.077,3.1077 -0.019,1.2176 -0.531,2.5363 -1.343,3.4711 L 91.8067,101.876 c -0.7754,0.894 -1.8706,1.602 -2.9944,1.781 -0.5746,0.092 -1.1977,0.05 -1.7767,-0.23 -0.5905,-0.286 -1.0471,-0.778 -1.3415,-1.427 -0.0671,-0.148 -0.101,-0.319 -0.1118,-0.37 -0.0199,-0.096 -0.0401,-0.208 -0.0594,-0.323 -0.0389,-0.234 -0.0808,-0.518 -0.1186,-0.789 -0.038,-0.272 -0.0729,-0.5374 -0.0984,-0.7339 -0.0127,-0.0983 -0.0232,-0.1798 -0.0304,-0.2368 -0.0036,-0.0285 -0.0063,-0.0511 -0.0082,-0.0664 -0.001,-0.0077 -0.0018,-0.0136 -0.0023,-0.0176 -3e-4,-0.002 -4e-4,-0.0037 -5e-4,-0.0048 -1e-4,-5e-4 -2e-4,-9e-4 -2e-4,-0.0012 v -3e-4 l -0.0079,-0.0629 v -0.0635 l -0.0413,-32.5762 -33.1626,4.7367 -0.02,0.003 -0.02,0.0019 -4e-4,2e-4 h -0.0016 c -8e-4,1e-4 -0.002,2e-4 -0.0033,4e-4 -0.0028,2e-4 -0.0068,7e-4 -0.0116,0.0012 -0.0096,9e-4 -0.0232,0.0023 -0.0402,0.0039 -0.0341,0.0032 -0.0825,0.0076 -0.1411,0.0124 -0.1167,0.0097 -0.2779,0.0216 -0.453,0.0299 -0.1728,0.0082 -0.372,0.0136 -0.561,0.0084 -0.1623,-0.0044 -0.4144,-0.0176 -0.6424,-0.0847 l -4e-4,-10e-5 c -1.5375,-0.4532 -2.1243,-1.8247 -2.1573,-3.0658 -0.0325,-1.2232 0.4337,-2.5619 1.2614,-3.5153 l 7e-4,-9e-4 30.9376,-35.5666 c 0.8327,-0.9585 2.1303,-1.6174 3.3722,-1.7715 z"
         fill="url(#paint0_linear_101_217)"
         id="path4"
         style="fill:url(#paint0_linear_101_217)" />
      <path
         d="m 119.716,59.7358 -0.014,0.0016 -0.015,0.0021 -32.4045,4.6283 -0.042,-33.3214 c 1e-4,-0.0093 2e-4,-0.0217 3e-4,-0.0367 3e-4,-0.0335 5e-4,-0.0807 2e-4,-0.138 -6e-4,-0.1136 -0.003,-0.2708 -0.0107,-0.4412 -0.0076,-0.1675 -0.0208,-0.3629 -0.0454,-0.5485 -0.0203,-0.1538 -0.0614,-0.4165 -0.17,-0.6505 -0.6906,-1.488 -2.1956,-1.8387 -3.4428,-1.684 -1.2419,0.1541 -2.5395,0.813 -3.3722,1.7715 l -30.9376,35.5666 -7e-4,9e-4 c -0.8277,0.9534 -1.2939,2.2921 -1.2614,3.5153 0.033,1.2411 0.6198,2.6126 2.1573,3.0658 l 4e-4,10e-5 c 0.228,0.0671 0.4801,0.0803 0.6424,0.0847 0.189,0.0052 0.3882,-2e-4 0.561,-0.0084 0.1751,-0.0083 0.3363,-0.0202 0.453,-0.0299 0.0586,-0.0048 0.107,-0.0092 0.1411,-0.0124 0.017,-0.0016 0.0306,-0.003 0.0402,-0.0039 0.0048,-5e-4 0.0088,-0.001 0.0116,-0.0012 0.0013,-2e-4 0.0025,-3e-4 0.0033,-4e-4 h 0.0016 l 4e-4,-2e-4 m 67.7035,-11.7602 0.118,1.0284 c -0.113,-0.9852 -0.118,-1.0266 -0.118,-1.0284 z m 0,0 v 0 l 0.001,-2e-4 c 0,0 0.001,1e-4 0.001,0 10e-4,-10e-5 0.002,-3e-4 0.004,-5e-4 0.003,-4e-4 0.008,-9e-4 0.014,-0.0016 0.012,-0.0013 0.029,-0.0032 0.05,-0.0054 0.043,-0.0046 0.103,-0.0108 0.177,-0.0178 0.146,-0.014 0.348,-0.0314 0.565,-0.045 0.215,-0.0133 0.458,-0.0238 0.684,-0.0214 0.192,0.002 0.487,0.0124 0.742,0.0875 1.568,0.4623 2.096,1.8709 2.077,3.1077 -0.019,1.2176 -0.531,2.5363 -1.343,3.4711 L 91.8067,101.876 c -0.7754,0.894 -1.8706,1.602 -2.9944,1.781 -0.5746,0.092 -1.1977,0.05 -1.7767,-0.23 -0.5905,-0.286 -1.0471,-0.778 -1.3415,-1.427 -0.0671,-0.148 -0.101,-0.319 -0.1118,-0.37 -0.0199,-0.096 -0.0401,-0.208 -0.0594,-0.323 -0.0389,-0.234 -0.0808,-0.518 -0.1186,-0.789 -0.038,-0.272 -0.0729,-0.5374 -0.0984,-0.7339 -0.0127,-0.0983 -0.0232,-0.1798 -0.0304,-0.2368 -0.0036,-0.0285 -0.0063,-0.0511 -0.0082,-0.0664 -0.001,-0.0077 -0.0018,-0.0136 -0.0023,-0.0176 -3e-4,-0.002 -4e-4,-0.0037 -5e-4,-0.0048 -1e-4,-5e-4 -2e-4,-9e-4 -2e-4,-0.0012 v -3e-4 m 0,0 1.0272,-0.1276 m -1.0272,0.1276 -0.0079,-0.0629 v -0.0635 l -0.0413,-32.5762 -33.1626,4.7367 -0.02,0.003 -0.02,0.0019 m 0,0 -0.1063,-1.0296"
         stroke="#9638ff"
         stroke-width="0.179924"
         stroke-miterlimit="10"
         id="path5" />
    </g>
    <g
       filter="url(#filter2_dii_101_217)"
       id="g7"
       transform="matrix(2.3774428,0,0,2.3774428,-120.29339,-97.983014)">
      <path
         d="m 83.5721,17.7129 c 1.2472,-0.1548 2.7522,0.1959 3.4428,1.6839 0.1086,0.234 0.1497,0.4967 0.17,0.6505 0.0246,0.1856 0.0378,0.381 0.0454,0.5486 0.0077,0.1703 0.0101,0.3275 0.0107,0.4412 3e-4,0.0571 1e-4,0.1044 -2e-4,0.1379 -10e-5,0.015 -2e-4,0.0274 -3e-4,0.0367 l 0.042,33.3214 32.4045,-4.6283 0.015,-0.0021 0.014,-0.0016 0.118,1.0284 c -0.114,-0.9913 -0.118,-1.0271 -0.118,-1.0284 v 0 l 0.001,-2e-4 c 0,0 0,1e-4 0.001,0 10e-4,-1e-4 0.002,-3e-4 0.004,-5e-4 0.003,-4e-4 0.008,-9e-4 0.014,-0.0016 0.012,-0.0013 0.029,-0.0032 0.05,-0.0054 0.043,-0.0045 0.103,-0.0107 0.177,-0.0178 0.146,-0.014 0.348,-0.0314 0.565,-0.0449 0.215,-0.0134 0.458,-0.0238 0.684,-0.0215 0.192,0.002 0.487,0.0124 0.742,0.0875 1.568,0.4623 2.096,1.871 2.077,3.1078 -0.019,1.2175 -0.531,2.5363 -1.343,3.471 L 91.8067,92.0418 c -0.7754,0.8932 -1.8706,1.6015 -2.9944,1.7809 -0.5747,0.0918 -1.1977,0.0497 -1.7767,-0.2307 -0.5905,-0.286 -1.0471,-0.7778 -1.3415,-1.4269 -0.0671,-0.1479 -0.101,-0.3185 -0.1118,-0.3702 -0.0199,-0.0952 -0.0401,-0.2073 -0.0594,-0.323 -0.0389,-0.2333 -0.0808,-0.518 -0.1186,-0.7887 -0.038,-0.2722 -0.0729,-0.5373 -0.0984,-0.7338 -0.0127,-0.0983 -0.0232,-0.1798 -0.0304,-0.2368 -0.0036,-0.0285 -0.0063,-0.0511 -0.0082,-0.0664 -0.001,-0.0076 -0.0018,-0.0136 -0.0023,-0.0176 -3e-4,-0.002 -4e-4,-0.0037 -5e-4,-0.0047 -1e-4,-5e-4 -2e-4,-0.001 -2e-4,-0.0013 v -3e-4 l -0.0079,-0.0629 v -0.0635 l -0.0413,-32.5762 -33.1626,4.7367 -0.02,0.003 -0.02,0.002 -4e-4,10e-5 h -0.0016 c -8e-4,1e-4 -0.002,2e-4 -0.0033,4e-4 -0.0028,3e-4 -0.0068,7e-4 -0.0116,0.0012 -0.0096,10e-4 -0.0232,0.0023 -0.0402,0.0039 -0.0341,0.0032 -0.0825,0.0076 -0.1411,0.0124 -0.1167,0.0097 -0.2779,0.0216 -0.453,0.0299 -0.1728,0.0082 -0.372,0.0136 -0.561,0.0085 -0.1623,-0.0044 -0.4144,-0.0177 -0.6424,-0.0847 l -4e-4,-2e-4 c -1.5375,-0.4532 -2.1243,-1.8247 -2.1573,-3.0657 -0.0325,-1.2233 0.4338,-2.562 1.2614,-3.5154 l 7e-4,-9e-4 30.9376,-35.5666 c 0.8327,-0.9584 2.1303,-1.6173 3.3722,-1.7714 z"
         fill="url(#paint1_linear_101_217)"
         id="path6"
         style="fill:url(#paint1_linear_101_217)" />
      <path
         d="m 119.716,49.9011 -0.014,0.0016 -0.015,0.0021 -32.4045,4.6283 -0.042,-33.3214 c 1e-4,-0.0093 2e-4,-0.0217 3e-4,-0.0367 3e-4,-0.0335 5e-4,-0.0808 2e-4,-0.1379 -6e-4,-0.1137 -0.003,-0.2709 -0.0107,-0.4412 -0.0076,-0.1676 -0.0208,-0.363 -0.0454,-0.5486 -0.0203,-0.1538 -0.0614,-0.4165 -0.17,-0.6505 -0.6906,-1.488 -2.1956,-1.8387 -3.4428,-1.6839 -1.2419,0.1541 -2.5395,0.813 -3.3722,1.7714 l -30.9376,35.5666 -7e-4,9e-4 c -0.8276,0.9534 -1.2939,2.2921 -1.2614,3.5154 0.033,1.241 0.6198,2.6125 2.1573,3.0657 l 4e-4,2e-4 c 0.228,0.067 0.4801,0.0803 0.6424,0.0847 0.189,0.0051 0.3882,-3e-4 0.561,-0.0085 0.1751,-0.0083 0.3363,-0.0202 0.453,-0.0299 0.0586,-0.0048 0.107,-0.0092 0.1411,-0.0124 0.017,-0.0016 0.0306,-0.0029 0.0402,-0.0039 0.0048,-5e-4 0.0088,-9e-4 0.0116,-0.0012 0.0013,-2e-4 0.0025,-3e-4 0.0033,-4e-4 h 0.0016 l 4e-4,-2e-4 m 67.7035,-11.7602 0.118,1.0284 c -0.114,-0.9913 -0.118,-1.0271 -0.118,-1.0284 z m 0,0 v 0 l 0.001,-2e-4 c 0,0 0,1e-4 0.001,0 10e-4,-1e-4 0.002,-3e-4 0.004,-5e-4 0.003,-4e-4 0.008,-9e-4 0.014,-0.0016 0.012,-0.0013 0.029,-0.0032 0.05,-0.0054 0.043,-0.0045 0.103,-0.0107 0.177,-0.0178 0.146,-0.014 0.348,-0.0314 0.565,-0.0449 0.215,-0.0134 0.458,-0.0238 0.684,-0.0215 0.192,0.002 0.487,0.0124 0.742,0.0875 1.568,0.4623 2.096,1.871 2.077,3.1078 -0.019,1.2175 -0.531,2.5363 -1.343,3.471 L 91.8067,92.0418 c -0.7754,0.8932 -1.8706,1.6015 -2.9944,1.7809 -0.5747,0.0918 -1.1977,0.0497 -1.7767,-0.2307 -0.5905,-0.286 -1.0471,-0.7778 -1.3415,-1.4269 -0.0671,-0.1479 -0.101,-0.3185 -0.1118,-0.3702 -0.0199,-0.0952 -0.0401,-0.2073 -0.0594,-0.323 -0.0389,-0.2333 -0.0808,-0.518 -0.1186,-0.7887 -0.038,-0.2722 -0.0729,-0.5373 -0.0984,-0.7338 -0.0127,-0.0983 -0.0232,-0.1798 -0.0304,-0.2368 -0.0036,-0.0285 -0.0063,-0.0511 -0.0082,-0.0664 -0.001,-0.0076 -0.0018,-0.0136 -0.0023,-0.0176 -3e-4,-0.002 -4e-4,-0.0037 -5e-4,-0.0047 -1e-4,-5e-4 -2e-4,-0.001 -2e-4,-0.0013 v -3e-4 m 0,0 1.0272,-0.1276 m -1.0272,0.1276 -0.0079,-0.0629 v -0.0635 l -0.0413,-32.5762 -33.1626,4.7367 -0.02,0.003 -0.02,0.0019 m 0,0 -0.1063,-1.0296"
         stroke="#d0acff"
         stroke-width="0.179924"
         stroke-miterlimit="10"
         id="path7" />
    </g>
    <path
       d="m 13.470336,192.52147 c -2.87124,0 -5.1628496,-0.63953 -6.8746096,-1.91622 -1.70106,-1.27907 -2.70339,-3.10019 -3.00676,-5.46099 -0.0326,-0.29242 0.10295,-0.43982 0.40631,-0.43982 h 4.64814 c 0.20588,0 0.34116,0.1046 0.4063,0.30906 0.21659,1.14831 0.6771,1.99468 1.3812996,2.53674 0.71513,0.53967 1.70653,0.8107 2.97418,0.8107 1.09434,0 1.95021,-0.23774 2.56787,-0.71323 0.61766,-0.47787 0.92626,-1.13879 0.92626,-1.98279 0,-0.74889 -0.23822,-1.31235 -0.7149,-1.69036 -0.46598,-0.3899 -1.25696,-0.67757 -2.37293,-0.86301 l -2.73025,-0.47073 c -2.4052596,-0.37802 -4.1930996,-1.13167 -5.3632796,-2.25857 -1.17017,-1.1388 -1.75526,-2.68176 -1.75526,-4.63126 0,-2.21102 0.76387,-3.93943 2.29162,-5.18521 1.53844,-1.24578 3.67838,-1.86867 6.4195696,-1.86867 2.65441,0 4.79435,0.60625 6.41957,1.81875 1.62522,1.21487 2.60568,2.92663 2.94161,5.13765 0.0109,0.12838 -0.0216,0.23775 -0.0975,0.32333 -0.0651,0.0761 -0.15715,0.11412 -0.27626,0.11412 h -4.6643 c -0.22752,0 -0.3685,-0.13551 -0.42271,-0.40654 -0.21659,-0.97475 -0.63383,-1.69036 -1.25125,-2.14445 -0.61766,-0.4541 -1.46807,-0.68233 -2.55171,-0.68233 -1.05083,0 -1.85274,0.21635 -2.40526,0.64904 -0.5418196,0.43507 -0.8126096,1.06272 -0.8126096,1.88531 0,0.7489 0.2601,1.3385 0.7800396,1.7712 0.52019,0.43507 1.3328,0.75365 2.43783,0.96048 l 2.76283,0.42081 c 2.49203,0.40179 4.2744,1.13404 5.3471,2.19438 1.07247,1.06272 1.60882,2.62708 1.60882,4.69783 0,2.18725 -0.80714,3.91565 -2.42143,5.1852 -1.61452,1.26718 -3.81389,1.89958 -6.59835,1.89958 z m 20.62384,0 c -2.82797,0 -5.07061,-0.78931 -6.7284,-2.37269 -1.64685,-1.581 -2.4704,-3.72545 -2.4704,-6.43574 0,-2.69839 0.82901,-4.84285 2.48657,-6.43573 1.65779,-1.59289 3.88426,-2.38933 6.67966,-2.38933 2.74119,0 4.87566,0.77504 6.4034,2.32513 1.53845,1.5501 2.30779,3.70406 2.30779,6.46903 v 0.92482 c 0,0.23775 -0.13005,0.35899 -0.39014,0.35899 h -11.96139 c 0.0865,1.24578 0.44957,2.20389 1.08887,2.87671 0.64999,0.66093 1.54391,0.99139 2.68152,0.99139 1.72269,0 2.78446,-0.62289 3.18529,-1.87104 0.0758,-0.21635 0.22229,-0.32334 0.43888,-0.32334 h 4.50193 c 0.1298,0 0.22752,0.0262 0.29242,0.0808 0.0758,0.0428 0.10841,0.11411 0.0975,0.21159 -0.29243,1.73316 -1.19182,3.09781 -2.69769,4.09396 -1.49541,0.99852 -3.46726,1.49541 -5.91579,1.49541 z m -3.67291,-10.23727 h 7.10213 c -0.0651,-1.18159 -0.39013,-2.09215 -0.97522,-2.73168 -0.57416,-0.64904 -1.3706,-0.97475 -2.3891,-0.97475 -1.11597,0 -1.99348,0.32095 -2.63278,0.95811 -0.63929,0.63953 -1.00756,1.55484 -1.10503,2.74832 z m 15.81308,9.97813 c -0.27079,0 -0.4063,-0.13552 -0.4063,-0.40655 v -16.29974 c 0,-0.27103 0.13551,-0.40655 0.4063,-0.40655 h 4.35548 c 0.26009,0 0.39014,0.13552 0.39014,0.40655 v 2.03033 h 0.14621 c 1.17018,-1.77595 2.89834,-2.66511 5.18449,-2.66511 2.34035,0 3.98174,0.88916 4.9244,2.66511 h 0.16238 c 1.3977,-1.77595 3.35338,-2.66511 5.86705,-2.66511 1.93952,0 3.40759,0.62764 4.40445,1.88531 1.00756,1.24578 1.51134,3.09305 1.51134,5.54182 v 9.50739 c 0,0.27103 -0.13005,0.40655 -0.39014,0.40655 h -4.63173 c -0.26009,0 -0.39014,-0.13552 -0.39014,-0.40655 v -9.50739 c 0,-1.16019 -0.22752,-2.01607 -0.68256,-2.56764 -0.45505,-0.55156 -1.15925,-0.82973 -2.1126,-0.82973 -1.84204,0 -2.76306,1.13404 -2.76306,3.39737 v 9.50739 c 0,0.27103 -0.13528,0.40655 -0.40631,0.40655 h -4.63173 c -0.26009,0 -0.39014,-0.13552 -0.39014,-0.40655 v -9.50739 c 0,-1.16019 -0.22205,-2.01607 -0.66616,-2.56764 -0.44434,-0.55156 -1.14307,-0.82973 -2.09667,-0.82973 -0.95335,0 -1.65755,0.28292 -2.11259,0.84637 -0.45505,0.55157 -0.68257,1.4027 -0.68257,2.551 v 9.50739 c 0,0.27103 -0.12481,0.40655 -0.37397,0.40655 z m 36.79473,0.25914 c -2.22124,0 -3.97104,-0.78456 -5.24939,-2.35605 -1.27859,-1.57149 -1.91788,-3.7207 -1.91788,-6.45238 0,-2.7721 0.62859,-4.93557 1.88531,-6.48328 1.25672,-1.56198 3.01745,-2.34178 5.28196,-2.34178 1.06177,0 2.05316,0.24487 2.97419,0.73225 0.92078,0.47549 1.65755,1.13166 2.21007,1.96614 h 0.17878 v -2.03033 c 0,-0.27103 0.13005,-0.40655 0.39014,-0.40655 h 4.63173 c 0.26009,0 0.39014,0.13552 0.39014,0.40655 v 12.98559 h 1.57648 c 0.23846,0 0.35757,0.12838 0.35757,0.3899 v 2.92425 c 0,0.27103 -0.11911,0.40655 -0.35757,0.40655 h -4.06305 c -1.7769,0 -2.66535,-0.74177 -2.66535,-2.22767 V 189.873 h -0.16238 c -0.49855,0.81308 -1.24078,1.45737 -2.22671,1.93524 -0.98593,0.47548 -2.06386,0.71323 -3.23404,0.71323 z m -1.67395,-8.80843 c 0,1.55961 0.31953,2.76259 0.95882,3.60896 0.64999,0.83448 1.55485,1.25054 2.71409,1.25054 1.14854,0 2.02606,-0.41606 2.63278,-1.25054 0.61766,-0.83448 0.92649,-2.03747 0.92649,-3.60896 0,-1.5382 -0.3143,-2.7293 -0.94266,-3.57567 -0.61766,-0.85588 -1.4897,-1.28382 -2.61661,-1.28382 -1.14854,0 -2.04769,0.42794 -2.69792,1.28382 -0.65,0.84637 -0.97499,2.03747 -0.97499,3.57567 z m 17.4383,8.54929 c -0.27079,0 -0.4063,-0.13552 -0.4063,-0.40655 v -16.29974 c 0,-0.27103 0.13551,-0.40655 0.4063,-0.40655 h 4.355724 c 0.25985,0 0.3899,0.13552 0.3899,0.40655 v 2.03033 h 0.14645 c 1.22414,-1.79734 2.99557,-2.69839 5.31429,-2.69839 1.99349,0 3.4996,0.63477 4.5181,1.90195 1.02919,1.26718 1.54391,3.15249 1.54391,5.65594 v 9.40991 c 0,0.27103 -0.13552,0.40655 -0.40631,0.40655 h -4.61556 c -0.2708,0 -0.40631,-0.13552 -0.40631,-0.40655 v -9.40991 c 0,-1.20299 -0.23299,-2.09215 -0.69873,-2.66512 -0.46598,-0.57534 -1.19728,-0.86063 -2.19414,-0.86063 -0.99686,0 -1.73886,0.29242 -2.22648,0.87727 -0.48761,0.57297 -0.7313,1.45738 -0.7313,2.64848 v 9.40991 c 0,0.27103 -0.12458,0.40655 -0.37397,0.40655 z m 26.165424,0.25914 c -2.22053,0 -3.97033,-0.78456 -5.24939,-2.35605 -1.27906,-1.57149 -1.91622,-3.7207 -1.91622,-6.45238 0,-2.7721 0.62765,-4.93557 1.88531,-6.48328 1.25529,-1.56198 3.01698,-2.34178 5.2803,-2.34178 1.06272,0 2.05411,0.24487 2.97419,0.73225 0.92244,0.47549 1.65945,1.13166 2.21102,1.96614 h 0.17831 v -2.03033 c 0,-0.27103 0.13075,-0.40655 0.3899,-0.40655 h 4.63363 c 0.25914,0 0.3899,0.13552 0.3899,0.40655 v 12.98559 h 1.57625 c 0.23774,0 0.35661,0.12838 0.35661,0.3899 v 2.92425 c 0,0.27103 -0.11887,0.40655 -0.35661,0.40655 H 133.249 c -1.77833,0 -2.66512,-0.74177 -2.66512,-2.22767 V 189.873 h -0.16404 c -0.49689,0.81308 -1.24102,1.45737 -2.22529,1.93524 -0.98663,0.47548 -2.06599,0.71323 -3.2357,0.71323 z m -1.67372,-8.80843 c 0,1.55961 0.32096,2.76259 0.95811,3.60896 0.65142,0.83448 1.55485,1.25054 2.71504,1.25054 1.14831,0 2.02558,-0.41606 2.63421,-1.25054 0.61576,-0.83448 0.92483,-2.03747 0.92483,-3.60896 0,-1.5382 -0.31383,-2.7293 -0.94147,-3.57567 -0.61814,-0.85588 -1.49066,-1.28382 -2.61757,-1.28382 -1.1483,0 -2.04697,0.42794 -2.69839,1.28382 -0.64905,0.84637 -0.97476,2.03747 -0.97476,3.57567 z m 31.02563,8.80843 c -2.21102,0 -3.96082,-0.78456 -5.24939,-2.35605 -1.27907,-1.57149 -1.9186,-3.7207 -1.9186,-6.45238 0,-2.76259 0.63478,-4.92368 1.90196,-6.48328 1.26717,-1.56198 3.0241,-2.34178 5.26603,-2.34178 1.07223,0 2.07076,0.24487 2.99083,0.73225 0.93195,0.47549 1.67372,1.13166 2.22528,1.96614 h 0.18069 v -8.88926 c 0,-0.27102 0.11887,-0.40654 0.35661,-0.40654 h 4.63126 c 0.26152,0 0.3899,0.13552 0.3899,0.40654 v 23.15867 c 0,0.27103 -0.12838,0.40655 -0.3899,0.40655 h -4.37211 c -0.25915,0 -0.38991,-0.13552 -0.38991,-0.40655 V 189.873 h -0.12838 c -0.51115,0.81308 -1.25766,1.45737 -2.2443,1.93524 -0.98426,0.47548 -2.06838,0.71323 -3.24997,0.71323 z m -1.64043,-8.80843 c 0,1.55961 0.31857,2.76259 0.95811,3.60896 0.63953,0.83448 1.54296,1.25054 2.71504,1.25054 1.13641,0 2.01369,-0.41606 2.63183,-1.25054 0.61813,-0.84637 0.9272,-2.04935 0.9272,-3.60896 0,-1.5382 -0.31382,-2.7293 -0.94385,-3.57567 -0.61813,-0.85588 -1.48828,-1.28382 -2.61518,-1.28382 -1.1602,0 -2.066,0.42794 -2.71504,1.28382 -0.63954,0.84637 -0.95811,2.03747 -0.95811,3.57567 z m 24.67072,8.80843 c -2.82916,0 -5.07108,-0.78931 -6.72816,-2.37269 -1.64757,-1.581 -2.47254,-3.72545 -2.47254,-6.43574 0,-2.69839 0.82972,-4.84285 2.4868,-6.43573 1.65946,-1.59289 3.88474,-2.38933 6.68062,-2.38933 2.74119,0 4.87613,0.77504 6.40245,2.32513 1.53821,1.5501 2.3085,3.70406 2.3085,6.46903 v 0.92482 c 0,0.23775 -0.13076,0.35899 -0.3899,0.35899 H 173.6679 c 0.0856,1.24578 0.44934,2.20389 1.08887,2.87671 0.64904,0.66093 1.54296,0.99139 2.68176,0.99139 1.72126,0 2.78398,-0.62289 3.18339,-1.87104 0.0761,-0.21635 0.22348,-0.32334 0.43983,-0.32334 h 4.50288 c 0.12838,0 0.22585,0.0262 0.29242,0.0808 0.0761,0.0428 0.10699,0.11411 0.0975,0.21159 -0.29243,1.73316 -1.19348,3.09781 -2.6984,4.09396 -1.49541,0.99852 -3.46631,1.49541 -5.91508,1.49541 z M 173.6679,182.2842 h 7.10142 c -0.0642,-1.18159 -0.3899,-2.09215 -0.97475,-2.73168 -0.57534,-0.64904 -1.37178,-0.97475 -2.38933,-0.97475 -1.11502,0 -1.99467,0.32095 -2.63183,0.95811 -0.63953,0.63953 -1.00803,1.55484 -1.10551,2.74832 z m -265.055866,53.03124 c -2.870999,0 -5.162664,-0.63953 -6.874542,-1.91622 -1.70106,-1.27907 -2.703272,-3.10019 -3.006632,-5.46099 -0.0325,-0.29242 0.10292,-0.43982 0.4063,-0.43982 h 4.64819 c 0.205649,0 0.341163,0.1046 0.406305,0.30906 0.216585,1.14831 0.677096,1.99468 1.381294,2.53673 0.715135,0.53968 1.706529,0.81071 2.974181,0.81071 1.094337,0 1.950217,-0.23774 2.567876,-0.71323 0.617422,-0.47787 0.926252,-1.13879 0.926252,-1.98279 0,-0.74889 -0.23822,-1.31235 -0.715135,-1.69036 -0.465741,-0.3899 -1.256716,-0.67757 -2.372688,-0.86301 l -2.730255,-0.47073 c -2.405497,-0.37802 -4.193167,-1.13167 -5.363297,-2.25857 -1.170153,-1.1388 -1.755223,-2.68176 -1.755223,-4.63126 0,-2.21103 0.76383,-3.93943 2.291527,-5.18521 1.538538,-1.24578 3.67845,-1.86867 6.419642,-1.86867 2.654415,0 4.794351,0.60625 6.419333,1.81875 1.62522,1.21487 2.605915,2.92663 2.94161,5.13765 0.01094,0.12838 -0.02163,0.23775 -0.09747,0.32333 -0.0649,0.0761 -0.157149,0.11412 -0.276259,0.11412 h -4.664305 c -0.227521,0 -0.368266,-0.13551 -0.422472,-0.40654 -0.216585,-0.97475 -0.633826,-1.69036 -1.251485,-2.14446 -0.617422,-0.45409 -1.468071,-0.68232 -2.551472,-0.68232 -1.051067,0 -1.852741,0.21635 -2.405259,0.64904 -0.541819,0.43507 -0.81261,1.06272 -0.81261,1.88531 0,0.7489 0.259855,1.3385 0.780039,1.7712 0.519947,0.43507 1.332557,0.75365 2.43783,0.96048 l 2.762826,0.42081 c 2.491798,0.40179 4.274167,1.13404 5.346869,2.19438 1.072702,1.06272 1.608815,2.62708 1.608815,4.69783 0,2.18725 -0.807141,3.91565 -2.421425,5.1852 -1.614284,1.26718 -3.813656,1.89958 -6.598355,1.89958 z m 12.839142,-0.25914 c -0.27079,0 -0.406305,-0.13552 -0.406305,-0.40655 v -16.29974 c 0,-0.27103 0.135515,-0.40655 0.406305,-0.40655 h 4.615568 c 0.249156,0 0.373734,0.13552 0.373734,0.40655 v 16.29974 c 0,0.27103 -0.124578,0.40655 -0.373734,0.40655 z m -0.568922,-20.16785 v -4.69783 c 0,-0.23774 0.130046,-0.35661 0.390139,-0.35661 h 4.956968 c 0.27079,0 0.406305,0.11887 0.406305,0.35661 v 4.69783 c 0,0.23774 -0.135515,0.35662 -0.406305,0.35662 h -4.956968 c -0.260093,0 -0.390139,-0.11888 -0.390139,-0.35662 z m 16.609766,20.42699 c -2.31872,0 -4.144358,-0.45885 -5.477152,-1.3813 -1.332557,-0.93195 -2.101897,-2.27521 -2.307784,-4.02976 -0.0107,-0.13076 0.0164,-0.23299 0.08131,-0.30907 0.06514,-0.0856 0.157149,-0.13076 0.276258,-0.13076 h 4.06305 c 0.227521,0 0.373734,0.12125 0.438876,0.35899 0.151681,0.72513 0.465979,1.24103 0.942656,1.54297 0.487614,0.30431 1.148305,0.45646 1.982787,0.45646 0.693263,0 1.24578,-0.14264 1.657553,-0.42318 0.42271,-0.29243 0.633827,-0.67282 0.633827,-1.1388 0,-0.48737 -0.157149,-0.84399 -0.471209,-1.07222 -0.314298,-0.23775 -0.85588,-0.42319 -1.62522,-0.55157 l -2.356522,-0.43983 c -1.787837,-0.30193 -3.109695,-0.85588 -3.965574,-1.65707 -0.845181,-0.81309 -1.267653,-1.97804 -1.267653,-3.49484 0,-1.64757 0.628359,-2.95279 1.885312,-3.91565 1.267653,-0.96524 3.006515,-1.44787 5.216823,-1.44787 2.004422,0 3.63511,0.42794 4.891826,1.28382 1.256954,0.84637 1.998954,2.10166 2.226713,3.77063 0.03233,0.14264 0.0107,0.24963 -0.06514,0.32571 -0.0649,0.0761 -0.157149,0.11412 -0.276259,0.11412 h -4.046883 c -0.238219,0 -0.395368,-0.12601 -0.471209,-0.37326 -0.130046,-0.59674 -0.373734,-1.01993 -0.731301,-1.26956 -0.357568,-0.25914 -0.866816,-0.3899 -1.527745,-0.3899 -0.671627,0 -1.186344,0.13552 -1.543911,0.40654 -0.346631,0.27103 -0.520185,0.65618 -0.520185,1.15544 0,0.46598 0.162617,0.82735 0.487614,1.08887 0.335933,0.24725 0.926489,0.4422 1.771432,0.58485 l 2.389093,0.42081 c 1.809471,0.30431 3.098759,0.84637 3.868099,1.62617 0.780039,0.7798 1.170177,1.92811 1.170177,3.44491 0,1.80924 -0.633826,3.16914 -1.901478,4.0797 -1.256954,0.91056 -3.066426,1.36465 -5.428178,1.36465 z m 17.64966,-0.25914 c -1.733631,0 -3.06072,-0.46123 -3.981741,-1.3813 -0.921022,-0.93196 -1.381532,-2.27046 -1.381532,-4.0155 v -7.9787 h -2.648947 c -0.271028,0 -0.406305,-0.13551 -0.406305,-0.40654 v -2.92425 c 0,-0.27103 0.135277,-0.40655 0.406305,-0.40655 h 2.648947 v -4.68118 c 0,-0.24963 0.135514,-0.37326 0.406305,-0.37326 h 4.631972 c 0.238219,0 0.357567,0.12363 0.357567,0.37326 v 4.68118 h 3.900432 c 0.260093,0 0.389901,0.13552 0.389901,0.40655 v 2.92425 c 0,0.11887 -0.0378,0.21635 -0.113642,0.29243 -0.07584,0.0761 -0.167847,0.11411 -0.276259,0.11411 h -3.900432 v 9.6548 h 3.867862 c 0.260092,0 0.390138,0.12838 0.390138,0.3899 v 2.92425 c 0,0.27103 -0.130046,0.40655 -0.390138,0.40655 z m 15.21183,0.25914 c -2.827731,0 -5.07061,-0.78931 -6.728401,-2.37269 -1.646855,-1.581 -2.470163,-3.72545 -2.470163,-6.43574 0,-2.6984 0.828776,-4.84285 2.486567,-6.43574 1.657553,-1.59288 3.884266,-2.38933 6.679663,-2.38933 2.740954,0 4.875422,0.77505 6.403167,2.32514 1.538443,1.5501 2.307784,3.70406 2.307784,6.46903 v 0.92482 c 0,0.23775 -0.130046,0.35899 -0.389901,0.35899 h -11.961628 c 0.08678,1.24578 0.449575,2.20389 1.088869,2.87671 0.649993,0.66093 1.543911,0.99139 2.681518,0.99139 1.722933,0 2.784699,-0.62289 3.185535,-1.87104 0.07584,-0.21635 0.222054,-0.32334 0.438876,-0.32334 h 4.501688 c 0.130046,0 0.227521,0.0262 0.292663,0.0808 0.07584,0.0428 0.108174,0.11411 0.09748,0.21159 -0.292664,1.73316 -1.191812,3.09781 -2.697922,4.09396 -1.495174,0.99852 -3.467025,1.49541 -5.915791,1.49541 z m -3.672912,-10.23727 h 7.102135 c -0.0649,-1.18159 -0.390138,-2.09215 -0.974989,-2.73168 -0.57439,-0.64904 -1.370596,-0.97475 -2.389092,-0.97475 -1.115972,0 -1.993724,0.32095 -2.633018,0.95811 -0.639057,0.63953 -1.00756,1.55484 -1.105036,2.74832 z m 15.813323,9.97813 c -0.271028,0 -0.406305,-0.13552 -0.406305,-0.40655 v -16.29974 c 0,-0.27103 0.135277,-0.40655 0.406305,-0.40655 h 4.355475 c 0.260093,0 0.390139,0.13552 0.390139,0.40655 v 2.03033 h 0.146212 c 1.170178,-1.77595 2.8983414,-2.66511 5.1844894,-2.66511 2.34012,0 3.98174,0.88916 4.92416,2.66511 h 0.16262 c 1.39769999,-1.77595 3.35338,-2.66511 5.86705,-2.66511 1.93928,0 3.40735,0.62764 4.40421,1.88531 1.00756,1.24578 1.51158,3.09305 1.51158,5.54182 v 9.50739 c 0,0.27103 -0.13004,0.40655 -0.39014,0.40655 h -4.63197 c -0.25985,0 -0.3899,-0.13552 -0.3899,-0.40655 v -9.50739 c 0,-1.16019 -0.22752,-2.01607 -0.68256,-2.56764 -0.45505,-0.55156 -1.15948,-0.82973 -2.11284,-0.82973 -1.84180001,0 -2.76282,1.13404 -2.76282,3.39737 v 9.50739 c 0,0.27103 -0.13552,0.40655 -0.40631,0.40655 h -4.63173 c -0.26009,0 -0.39014,-0.13552 -0.39014,-0.40655 v -9.50739 c 0,-1.16019 -0.22205,-2.01607 -0.6664,-2.56764 -0.4441,-0.55156 -1.14307,-0.82973 -2.096426,-0.82973 -0.9535934,0 -1.6577914,0.28292 -2.1128344,0.84637 -0.455042,0.55157 -0.682563,1.4027 -0.682563,2.551 v 9.50739 c 0,0.27103 -0.124578,0.40655 -0.373734,0.40655 z m 36.794495,0.25914 c -2.22101,0 -3.97081,-0.78456 -5.2494,-2.35605 -1.27835,-1.57149 -1.91764,-3.7207 -1.91764,-6.45238 0,-2.7721 0.62836,-4.93557 1.88531,-6.48328 1.25672,-1.56198 3.01745,-2.34179 5.28173,-2.34179 1.06176,0 2.05316,0.24488 2.97418,0.73226 0.92102,0.47549 1.65779,1.13166 2.21031,1.96614 h 0.17878 v -2.03033 c 0,-0.27103 0.13005,-0.40655 0.39014,-0.40655 h 4.63173 c 0.2601,0 0.39014,0.13552 0.39014,0.40655 v 12.98559 h 1.57625 c 0.23845,0 0.35756,0.12838 0.35756,0.3899 v 2.92425 c 0,0.27103 -0.11911,0.40655 -0.35756,0.40655 h -4.06282 c -1.7769,0 -2.66535,-0.74177 -2.66535,-2.22767 v -0.16166 h -0.16261 c -0.49832,0.81308 -1.24055,1.45737 -2.22648,1.93523 -0.98592,0.47549 -2.06409,0.71324 -3.23427,0.71324 z m -1.67396,-8.80843 c 0,1.5596 0.31977,2.76259 0.95906,3.60896 0.64999,0.83448 1.55461,1.25054 2.71409,1.25054 1.1483,0 2.02606,-0.41606 2.63278,-1.25054 0.61742,-0.83448 0.92625,-2.03747 0.92625,-3.60896 0,-1.5382 -0.31406,-2.7293 -0.94265,-3.57567 -0.61743,-0.85588 -1.48971,-1.28382 -2.61638,-1.28382 -1.14854,0 -2.04793,0.42794 -2.69792,1.28382 -0.65,0.84637 -0.97523,2.03747 -0.97523,3.57567 z m 24.02049,8.80843 c -2.31848,0 -4.14412,-0.45885 -5.47691,-1.3813 -1.33256,-0.93195 -2.1019,-2.27521 -2.30779,-4.02976 -0.0107,-0.13076 0.0164,-0.23299 0.0813,-0.30907 0.0651,-0.0856 0.15715,-0.13076 0.27626,-0.13076 h 4.06305 c 0.22752,0 0.37374,0.12125 0.43888,0.35899 0.15168,0.72513 0.46574,1.24103 0.94265,1.54297 0.48738,0.30431 1.14831,0.45646 1.98255,0.45646 0.6935,0 1.24602,-0.14264 1.65779,-0.42318 0.42248,-0.29243 0.63383,-0.67282 0.63383,-1.1388 0,-0.48737 -0.15715,-0.84399 -0.47121,-1.07222 -0.3143,-0.23775 -0.85612,-0.42319 -1.62522,-0.55157 l -2.35652,-0.43983 c -1.78784,-0.30193 -3.10969,-0.85588 -3.96557,-1.65707 -0.84519,-0.81309 -1.26766,-1.97804 -1.26766,-3.49484 0,-1.64757 0.62836,-2.95279 1.88532,-3.91565 1.26765,-0.96524 3.00651,-1.44787 5.21682,-1.44787 2.00442,0 3.63511,0.42794 4.89182,1.28382 1.25696,0.84637 1.99896,2.10166 2.22648,3.77063 0.0326,0.14264 0.0109,0.24963 -0.0649,0.32571 -0.0649,0.0761 -0.15715,0.11412 -0.27626,0.11412 h -4.04689 c -0.23822,0 -0.39537,-0.12601 -0.47121,-0.37326 -0.13004,-0.59674 -0.37373,-1.01993 -0.7313,-1.26956 -0.35756,-0.25914 -0.86681,-0.3899 -1.52774,-0.3899 -0.67187,0 -1.18635,0.13552 -1.54391,0.40654 -0.34663,0.27103 -0.52019,0.65618 -0.52019,1.15544 0,0.46598 0.16262,0.82735 0.48762,1.08887 0.33593,0.24725 0.92649,0.4422 1.77143,0.58485 l 2.38909,0.42081 c 1.80947,0.30431 3.09876,0.84637 3.8681,1.62617 0.78004,0.7798 1.17018,1.92811 1.17018,3.44491 0,1.80924 -0.63383,3.16914 -1.90148,4.0797 -1.25696,0.91056 -3.06643,1.36465 -5.42842,1.36465 z m 24.55685,0 c -2.21007,0 -3.95987,-0.78456 -5.2494,-2.35605 -1.27835,-1.57149 -1.91764,-3.7207 -1.91764,-6.45238 0,-2.76259 0.63382,-4.92368 1.90148,-6.48328 1.26765,-1.56198 3.02292,-2.34179 5.26556,-2.34179 1.0727,0 2.06956,0.24488 2.99058,0.73226 0.93172,0.47549 1.67396,1.13166 2.22648,1.96614 h 0.17878 v -8.88926 c 0,-0.27102 0.11911,-0.40654 0.35757,-0.40654 h 4.63173 c 0.2601,0 0.39014,0.13552 0.39014,0.40654 v 23.15867 c 0,0.27103 -0.13004,0.40655 -0.39014,0.40655 h -4.37188 c -0.25985,0 -0.3899,-0.13552 -0.3899,-0.40655 v -1.98278 h -0.13004 c -0.50925,0.81308 -1.25696,1.45737 -2.24288,1.93523 -0.98593,0.47549 -2.06933,0.71324 -3.25044,0.71324 z m -1.64139,-8.80843 c 0,1.5596 0.31977,2.76259 0.95882,3.60896 0.6393,0.83448 1.54415,1.25054 2.71409,1.25054 1.13785,0 2.01536,-0.41606 2.63302,-1.25054 0.61742,-0.84637 0.92625,-2.04936 0.92625,-3.60896 0,-1.5382 -0.3143,-2.7293 -0.94265,-3.57567 -0.61743,-0.85588 -1.48971,-1.28382 -2.61662,-1.28382 -1.15924,0 -2.06386,0.42794 -2.71409,1.28382 -0.63905,0.84637 -0.95882,2.03747 -0.95882,3.57567 z m 24.67072,8.80843 c -2.82796,0 -5.07061,-0.78931 -6.7284,-2.37269 -1.64685,-1.581 -2.4704,-3.72545 -2.4704,-6.43574 0,-2.6984 0.82902,-4.84285 2.48657,-6.43574 1.65779,-1.59288 3.88427,-2.38933 6.67966,-2.38933 2.7412,0 4.87566,0.77505 6.40341,2.32514 1.53844,1.5501 2.30778,3.70406 2.30778,6.46903 v 0.92482 c 0,0.23775 -0.13004,0.35899 -0.39014,0.35899 h -11.96162 c 0.0868,1.24578 0.44981,2.20389 1.0891,2.87671 0.64999,0.66093 1.54391,0.99139 2.68152,0.99139 1.72269,0 2.78446,-0.62289 3.1853,-1.87104 0.0758,-0.21635 0.22229,-0.32334 0.43887,-0.32334 h 4.50193 c 0.12981,0 0.22752,0.0262 0.29242,0.0808 0.0759,0.0428 0.10842,0.11411 0.0975,0.21159 -0.29243,1.73316 -1.19181,3.09781 -2.69768,4.09396 -1.49542,0.99852 -3.46727,1.49541 -5.9158,1.49541 z m -3.67314,-10.23727 h 7.10237 c -0.0651,-1.18159 -0.39014,-2.09215 -0.97523,-2.73168 -0.57415,-0.64904 -1.37059,-0.97475 -2.38909,-0.97475 -1.11597,0 -1.99349,0.32095 -2.63278,0.95811 -0.6393,0.63953 -1.00756,1.55484 -1.10527,2.74832 z m 24.004324,9.97813 c -0.27079,0 -0.4063,-0.13552 -0.4063,-0.40655 v -22.49298 c 0,-0.27103 0.13551,-0.40654 0.4063,-0.40654 h 4.76202 c 0.23822,0 0.35733,0.13551 0.35733,0.40654 v 22.49298 c 0,0.27103 -0.11911,0.40655 -0.35733,0.40655 z m 9.91465,0 c -0.27103,0 -0.40654,-0.13552 -0.40654,-0.40655 v -16.29974 c 0,-0.27103 0.13551,-0.40655 0.40654,-0.40655 h 4.35548 c 0.25914,0 0.3899,0.13552 0.3899,0.40655 v 2.03033 h 0.14502 c 1.22438,-1.79734 2.99796,-2.6984 5.31596,-2.6984 1.9923,0 3.4996,0.63478 4.51714,1.90196 1.02944,1.26718 1.54534,3.15249 1.54534,5.65594 v 9.40991 c 0,0.27103 -0.13551,0.40655 -0.40654,0.40655 h -4.61699 c -0.27103,0 -0.40655,-0.13552 -0.40655,-0.40655 v -9.40991 c 0,-1.20299 -0.23299,-2.09215 -0.69897,-2.66512 -0.4636,-0.57534 -1.19585,-0.86063 -2.192,-0.86063 -0.99852,0 -1.74029,0.29242 -2.22766,0.87727 -0.48738,0.57297 -0.73225,1.45738 -0.73225,2.64848 v 9.40991 c 0,0.27103 -0.12363,0.40655 -0.37326,0.40655 z m 22.13399,0 c -0.27102,0 -0.40416,-0.13552 -0.40416,-0.40655 v -12.70981 h -2.65085 c -0.27103,0 -0.40654,-0.12838 -0.40654,-0.3899 v -2.94089 c 0,-0.25914 0.13551,-0.3899 0.40654,-0.3899 h 2.65085 v -1.7712 c 0,-1.73315 0.45884,-3.06214 1.38129,-3.98221 0.92007,-0.92007 2.24669,-1.3813 3.97984,-1.3813 h 3.90139 c 0.25914,0 0.3899,0.13552 0.3899,0.40654 v 2.92426 c 0,0.27103 -0.13076,0.40654 -0.3899,0.40654 h -3.8681 v 3.39737 h 3.90138 c 0.11887,0 0.21159,0.038 0.27578,0.11411 0.0761,0.0761 0.11412,0.16643 0.11412,0.27579 v 2.94089 c 0,0.26152 -0.13076,0.3899 -0.3899,0.3899 h -3.90138 v 12.70981 c 0,0.27103 -0.11888,0.40655 -0.35662,0.40655 z m 26.42766,-2.14446 c -1.66897,1.6024 -3.88474,2.4036 -6.64733,2.4036 -2.76259,0 -4.97837,-0.8012 -6.64733,-2.4036 -1.65708,-1.60477 -2.48681,-3.73971 -2.48681,-6.40483 0,-2.66511 0.82973,-4.79292 2.48681,-6.38581 1.66896,-1.60477 3.88474,-2.40597 6.64733,-2.40597 2.76259,0 4.97836,0.8012 6.64733,2.40597 1.66658,1.59289 2.50107,3.7207 2.50107,6.38581 0,2.66512 -0.83449,4.80006 -2.50107,6.40483 z m -10.28957,-6.40483 c 0,1.62617 0.30906,2.8672 0.9272,3.72308 0.62764,0.84399 1.53345,1.26717 2.71504,1.26717 1.1697,0 2.06837,-0.42318 2.69602,-1.26717 0.63953,-0.85588 0.96048,-2.09691 0.96048,-3.72308 0,-1.61428 -0.32095,-2.84817 -0.96048,-3.70405 -0.62765,-0.86777 -1.52632,-1.30046 -2.69602,-1.30046 -1.1697,0 -2.07076,0.43269 -2.6984,1.30046 -0.62765,0.85588 -0.94384,2.08977 -0.94384,3.70405 z m 15.99305,8.54929 c -0.23774,0 -0.35661,-0.13552 -0.35661,-0.40655 v -11.34278 c 0,-1.73553 0.45409,-3.06214 1.36465,-3.98221 0.92007,-0.92245 2.24906,-1.3813 3.98221,-1.3813 h 5.52518 c 0.24963,0 0.37326,0.13552 0.37326,0.40655 v 3.39498 c 0,0.24013 -0.12363,0.359 -0.37326,0.359 h -5.49427 v 12.54576 c 0,0.27103 -0.11887,0.40655 -0.35661,0.40655 z m 14.18858,0 c -0.27103,0 -0.40654,-0.13552 -0.40654,-0.40655 v -16.29974 c 0,-0.27103 0.13551,-0.40655 0.40654,-0.40655 h 4.35548 c 0.25914,0 0.3899,0.13552 0.3899,0.40655 v 2.03033 h 0.14502 c 1.17208,-1.77595 2.90048,-2.66511 5.1852,-2.66511 2.33941,0 3.98222,0.88916 4.92369,2.66511 h 0.16404 c 1.39794,-1.77595 3.3522,-2.66511 5.86753,-2.66511 1.93762,0 3.40688,0.62764 4.40302,1.88531 1.00804,1.24578 1.51206,3.09305 1.51206,5.54182 v 9.50739 c 0,0.27103 -0.13076,0.40655 -0.3899,0.40655 h -4.63364 c -0.25914,0 -0.3899,-0.13552 -0.3899,-0.40655 v -9.50739 c 0,-1.16019 -0.22586,-2.01607 -0.68233,-2.56764 -0.45409,-0.55156 -1.15781,-0.82973 -2.11117,-0.82973 -1.84251,0 -2.76258,1.13404 -2.76258,3.39737 v 9.50739 c 0,0.27103 -0.13552,0.40655 -0.40655,0.40655 h -4.63363 c -0.25914,0 -0.3899,-0.13552 -0.3899,-0.40655 v -9.50739 c 0,-1.16019 -0.22111,-2.01607 -0.66569,-2.56764 -0.44458,-0.55156 -1.14355,-0.82973 -2.0969,-0.82973 -0.95336,0 -1.65708,0.28292 -2.11117,0.84637 -0.45647,0.55157 -0.6847,1.4027 -0.6847,2.551 v 9.50739 c 0,0.27103 -0.12363,0.40655 -0.37326,0.40655 z m 36.79331,0.25914 c -2.22054,0 -3.97033,-0.78456 -5.2494,-2.35605 -1.27669,-1.57149 -1.91622,-3.7207 -1.91622,-6.45238 0,-2.7721 0.62765,-4.93557 1.88531,-6.48328 1.25529,-1.56198 3.01698,-2.34179 5.28031,-2.34179 1.06271,0 2.05411,0.24488 2.97418,0.73226 0.92244,0.47549 1.65945,1.13166 2.21102,1.96614 h 0.17831 v -2.03033 c 0,-0.27103 0.13076,-0.40655 0.3899,-0.40655 h 4.63363 c 0.25914,0 0.3899,0.13552 0.3899,0.40655 v 12.98559 h 1.57625 c 0.23774,0 0.35661,0.12838 0.35661,0.3899 v 2.92425 c 0,0.27103 -0.11887,0.40655 -0.35661,0.40655 h -4.06305 c -1.77833,0 -2.66512,-0.74177 -2.66512,-2.22767 v -0.16166 h -0.16404 c -0.49688,0.81308 -1.24102,1.45737 -2.22529,1.93523 -0.98663,0.47549 -2.06362,0.71324 -3.23569,0.71324 z m -1.67372,-8.80843 c 0,1.5596 0.32095,2.76259 0.96048,3.60896 0.64904,0.83448 1.55485,1.25054 2.71266,1.25054 1.14831,0 2.02559,-0.41606 2.63421,-1.25054 0.61576,-0.83448 0.92483,-2.03747 0.92483,-3.60896 0,-1.5382 -0.31383,-2.7293 -0.94147,-3.57567 -0.61814,-0.85588 -1.49066,-1.28382 -2.61757,-1.28382 -1.1483,0 -2.04697,0.42794 -2.69839,1.28382 -0.64904,0.84637 -0.97475,2.03747 -0.97475,3.57567 z m 22.72122,15.27745 c -0.25915,0 -0.3899,-0.12363 -0.3899,-0.37326 v -1.59289 c 0,-0.24963 0.13075,-0.37325 0.3899,-0.37325 h 1.86867 c 0.50877,0 0.88916,-0.0547 1.13879,-0.16405 0.25914,-0.10698 0.3899,-0.31858 0.3899,-0.6324 0,-0.32571 -0.11887,-0.54681 -0.35899,-0.66806 -0.23775,-0.10698 -0.62765,-0.16167 -1.1697,-0.16167 h -0.66569 c -0.11887,0 -0.21635,-0.038 -0.29242,-0.11411 -0.0761,-0.0642 -0.11412,-0.15216 -0.11412,-0.25914 v -2.22767 c -2.3394,-0.31382 -4.17717,-1.24102 -5.50854,-2.77923 -1.32185,-1.5382 -1.98278,-3.51386 -1.98278,-5.93172 0,-2.66511 0.83923,-4.80005 2.51771,-6.40245 1.69036,-1.61428 3.92753,-2.42262 6.71152,-2.42262 2.38457,0 4.31268,0.57059 5.7867,1.70701 1.48352,1.12691 2.35129,2.68651 2.60092,4.68118 0.01,0.13076 -0.0214,0.23775 -0.0975,0.32571 -0.0666,0.0737 -0.15691,0.11174 -0.27816,0.11174 h -4.48386 c -0.24012,0 -0.37563,-0.13551 -0.40654,-0.40416 -0.16404,-0.91056 -0.49926,-1.57149 -1.00803,-1.98279 -0.50878,-0.41367 -1.2125,-0.61813 -2.11355,-0.61813 -1.1911,0 -2.11117,0.43269 -2.76259,1.30046 -0.64904,0.86539 -0.97475,2.10166 -0.97475,3.70405 0,1.61429 0.32571,2.85056 0.97475,3.70644 0.65142,0.85587 1.57149,1.28381 2.76259,1.28381 0.92245,0 1.64757,-0.20683 2.17774,-0.61813 0.54205,-0.42319 0.91531,-1.08411 1.12215,-1.98279 0.0333,-0.25914 0.16167,-0.3899 0.3899,-0.3899 h 4.50288 c 0.11887,0 0.21634,0.0333 0.29242,0.0975 0.0761,0.0642 0.10699,0.15215 0.0975,0.25914 -0.27103,1.8758 -1.07223,3.38072 -2.40597,4.51952 -1.32186,1.1269 -3.07166,1.7593 -5.2494,1.90195 v 0.90818 c 0.95336,0.0452 1.67848,0.30432 2.17774,0.78218 0.49926,0.47549 0.74652,1.09838 0.74652,1.86867 0,1.96139 -1.29333,2.9409 -3.88237,2.9409 z m 20.33189,-6.46902 c -2.22291,0 -3.97271,-0.78456 -5.2494,-2.35605 -1.27906,-1.57149 -1.91859,-3.7207 -1.91859,-6.45238 0,-2.7721 0.62764,-4.93557 1.88531,-6.48328 1.25767,-1.56198 3.01697,-2.34179 5.28268,-2.34179 1.06034,0 2.05173,0.24488 2.97418,0.73226 0.92007,0.47549 1.65707,1.13166 2.20864,1.96614 h 0.18069 v -2.03033 c 0,-0.27103 0.12838,-0.40655 0.3899,-0.40655 h 4.63126 c 0.25914,0 0.3899,0.13552 0.3899,0.40655 v 12.98559 h 1.57624 c 0.23775,0 0.35662,0.12838 0.35662,0.3899 v 2.92425 c 0,0.27103 -0.11887,0.40655 -0.35662,0.40655 h -4.06305 c -1.77595,0 -2.66511,-0.74177 -2.66511,-2.22767 v -0.16166 h -0.16167 c -0.49926,0.81308 -1.24102,1.45737 -2.22766,1.93523 -0.98664,0.47549 -2.06362,0.71324 -3.23332,0.71324 z m -4.66455,-20.20113 c 0.0428,-1.49541 0.40655,-2.65323 1.08887,-3.4782 0.68233,-0.83448 1.60953,-1.25054 2.77923,-1.25054 0.64904,0 1.50492,0.23299 2.56764,0.69897 1.06034,0.46598 1.77595,0.69897 2.14445,0.69897 0.57535,0 0.94385,-0.34235 1.10552,-1.02468 0.0642,-0.24963 0.1997,-0.37326 0.40654,-0.37326 h 2.76259 c 0.25914,0 0.3899,0.13552 0.3899,0.40655 -0.0428,1.49541 -0.40655,2.66035 -1.08887,3.49484 -0.68233,0.82259 -1.6024,1.23389 -2.76259,1.23389 -0.64904,0 -1.5073,-0.23774 -2.56764,-0.71561 -1.06272,-0.47549 -1.78308,-0.71323 -2.16109,-0.71323 -0.57534,0 -0.94385,0.33997 -1.10551,1.0223 -0.0666,0.27103 -0.19495,0.40654 -0.38991,0.40654 h -2.76258 c -0.27103,0 -0.40655,-0.13551 -0.40655,-0.40654 z m 2.99083,11.3927 c 0,1.5596 0.31857,2.76259 0.95811,3.60896 0.64904,0.83448 1.55484,1.25054 2.71266,1.25054 1.15068,0 2.02796,-0.41606 2.6342,-1.25054 0.61814,-0.83448 0.92721,-2.03747 0.92721,-3.60896 0,-1.5382 -0.3162,-2.7293 -0.94385,-3.57567 -0.61813,-0.85588 -1.49065,-1.28382 -2.61756,-1.28382 -1.14831,0 -2.04698,0.42794 -2.69602,1.28382 -0.65142,0.84637 -0.97475,2.03747 -0.97475,3.57567 z m 31.80543,6.40483 c -1.66897,1.6024 -3.88475,2.4036 -6.64733,2.4036 -2.76259,0 -4.97837,-0.8012 -6.64733,-2.4036 -1.65946,-1.60477 -2.48681,-3.73971 -2.48681,-6.40483 0,-2.66511 0.82735,-4.79292 2.48681,-6.38581 1.66896,-1.60477 3.88474,-2.40597 6.64733,-2.40597 2.76258,0 4.97836,0.8012 6.64733,2.40597 1.66658,1.59289 2.50107,3.7207 2.50107,6.38581 0,2.66512 -0.83449,4.80006 -2.50107,6.40483 z m -10.28958,-6.40483 c 0,1.62617 0.30907,2.8672 0.92721,3.72308 0.62764,0.84399 1.53345,1.26717 2.71504,1.26717 1.1697,0 2.06837,-0.42318 2.69602,-1.26717 0.63953,-0.85588 0.96048,-2.09691 0.96048,-3.72308 0,-1.61428 -0.32095,-2.84817 -0.96048,-3.70405 -0.62765,-0.86777 -1.52632,-1.30046 -2.69602,-1.30046 -1.17208,0 -2.07076,0.43269 -2.6984,1.30046 -0.62765,0.85588 -0.94385,2.08977 -0.94385,3.70405 z"
       fill="#ffffff"
       id="path8"
       style="stroke-width:2.37744" />
  </g>
  <defs
     id="defs26">
    <filter
       id="filter0_di_101_217"
       x="59.079498"
       y="11.3641"
       width="74.583298"
       height="76.500397"
       filterUnits="userSpaceOnUse"
       color-interpolation-filters="sRGB">
      <feFlood
         flood-opacity="0"
         result="BackgroundImageFix"
         id="feFlood8" />
      <feColorMatrix
         in="SourceAlpha"
         type="matrix"
         values="0 0 0 0 0 0 0 0 0 0 0 0 0 0 0 0 0 0 127 0"
         result="hardAlpha"
         id="feColorMatrix8" />
      <feOffset
         dy="0.392853"
         id="feOffset8" />
      <feGaussianBlur
         stdDeviation="0.392853"
         id="feGaussianBlur8" />
      <feComposite
         in2="hardAlpha"
         operator="out"
         id="feComposite8" />
      <feColorMatrix
         type="matrix"
         values="0 0 0 0 0 0 0 0 0 0 0 0 0 0 0 0 0 0 0.25 0"
         id="feColorMatrix9" />
      <feBlend
         mode="normal"
         in2="BackgroundImageFix"
         result="effect1_dropShadow_101_217"
         id="feBlend9" />
      <feBlend
         mode="normal"
         in="SourceGraphic"
         in2="effect1_dropShadow_101_217"
         result="shape"
         id="feBlend10" />
      <feColorMatrix
         in="SourceAlpha"
         type="matrix"
         values="0 0 0 0 0 0 0 0 0 0 0 0 0 0 0 0 0 0 127 0"
         result="hardAlpha"
         id="feColorMatrix10" />
      <feOffset
         id="feOffset10" />
      <feGaussianBlur
         stdDeviation="0.392853"
         id="feGaussianBlur10" />
      <feComposite
         in2="hardAlpha"
         operator="arithmetic"
         k2="-1"
         k3="1"
         id="feComposite10"
         k1="0"
         k4="0" />
      <feColorMatrix
         type="matrix"
         values="0 0 0 0 1 0 0 0 0 1 0 0 0 0 1 0 0 0 1 0"
         id="feColorMatrix11" />
      <feBlend
         mode="normal"
         in2="shape"
         result="effect2_innerShadow_101_217"
         id="feBlend11" />
    </filter>
    <filter
       id="filter1_di_101_217"
       x="47.122898"
       y="27.0313"
       width="77.783997"
       height="77.938202"
       filterUnits="userSpaceOnUse"
       color-interpolation-filters="sRGB">
      <feFlood
         flood-opacity="0"
         result="BackgroundImageFix"
         id="feFlood11" />
      <feColorMatrix
         in="SourceAlpha"
         type="matrix"
         values="0 0 0 0 0 0 0 0 0 0 0 0 0 0 0 0 0 0 127 0"
         result="hardAlpha"
         id="feColorMatrix12" />
      <feOffset
         dy="0.392853"
         id="feOffset12" />
      <feGaussianBlur
         stdDeviation="0.392853"
         id="feGaussianBlur12" />
      <feComposite
         in2="hardAlpha"
         operator="out"
         id="feComposite12" />
      <feColorMatrix
         type="matrix"
         values="0 0 0 0 0 0 0 0 0 0 0 0 0 0 0 0 0 0 0.25 0"
         id="feColorMatrix13" />
      <feBlend
         mode="normal"
         in2="BackgroundImageFix"
         result="effect1_dropShadow_101_217"
         id="feBlend13" />
      <feBlend
         mode="normal"
         in="SourceGraphic"
         in2="effect1_dropShadow_101_217"
         result="shape"
         id="feBlend14" />
      <feColorMatrix
         in="SourceAlpha"
         type="matrix"
         values="0 0 0 0 0 0 0 0 0 0 0 0 0 0 0 0 0 0 127 0"
         result="hardAlpha"
         id="feColorMatrix14" />
      <feOffset
         id="feOffset14" />
      <feGaussianBlur
         stdDeviation="0.392853"
         id="feGaussianBlur14" />
      <feComposite
         in2="hardAlpha"
         operator="arithmetic"
         k2="-1"
         k3="1"
         id="feComposite14"
         k1="0"
         k4="0" />
      <feColorMatrix
         type="matrix"
         values="0 0 0 0 1 0 0 0 0 1 0 0 0 0 1 0 0 0 1 0"
         id="feColorMatrix15" />
      <feBlend
         mode="normal"
         in2="shape"
         result="effect2_innerShadow_101_217"
         id="feBlend15" />
    </filter>
    <filter
       id="filter2_dii_101_217"
       x="47.122898"
       y="17.1966"
       width="77.783997"
       height="77.938301"
       filterUnits="userSpaceOnUse"
       color-interpolation-filters="sRGB">
      <feFlood
         flood-opacity="0"
         result="BackgroundImageFix"
         id="feFlood15" />
      <feColorMatrix
         in="SourceAlpha"
         type="matrix"
         values="0 0 0 0 0 0 0 0 0 0 0 0 0 0 0 0 0 0 127 0"
         result="hardAlpha"
         id="feColorMatrix16" />
      <feOffset
         dy="0.392853"
         id="feOffset16" />
      <feGaussianBlur
         stdDeviation="0.392853"
         id="feGaussianBlur16" />
      <feComposite
         in2="hardAlpha"
         operator="out"
         id="feComposite16" />
      <feColorMatrix
         type="matrix"
         values="0 0 0 0 0 0 0 0 0 0 0 0 0 0 0 0 0 0 0.5 0"
         id="feColorMatrix17" />
      <feBlend
         mode="normal"
         in2="BackgroundImageFix"
         result="effect1_dropShadow_101_217"
         id="feBlend17" />
      <feBlend
         mode="normal"
         in="SourceGraphic"
         in2="effect1_dropShadow_101_217"
         result="shape"
         id="feBlend18" />
      <feColorMatrix
         in="SourceAlpha"
         type="matrix"
         values="0 0 0 0 0 0 0 0 0 0 0 0 0 0 0 0 0 0 127 0"
         result="hardAlpha"
         id="feColorMatrix18" />
      <feOffset
         id="feOffset18" />
      <feGaussianBlur
         stdDeviation="4.71424"
         id="feGaussianBlur18" />
      <feComposite
         in2="hardAlpha"
         operator="arithmetic"
         k2="-1"
         k3="1"
         id="feComposite18"
         k1="0"
         k4="0" />
      <feColorMatrix
         type="matrix"
         values="0 0 0 0 1 0 0 0 0 1 0 0 0 0 1 0 0 0 0.5 0"
         id="feColorMatrix19" />
      <feBlend
         mode="normal"
         in2="shape"
         result="effect2_innerShadow_101_217"
         id="feBlend19" />
      <feColorMatrix
         in="SourceAlpha"
         type="matrix"
         values="0 0 0 0 0 0 0 0 0 0 0 0 0 0 0 0 0 0 127 0"
         result="hardAlpha"
         id="feColorMatrix20" />
      <feOffset
         id="feOffset20" />
      <feGaussianBlur
         stdDeviation="0.392853"
         id="feGaussianBlur20" />
      <feComposite
         in2="hardAlpha"
         operator="arithmetic"
         k2="-1"
         k3="1"
         id="feComposite20"
         k1="0"
         k4="0" />
      <feColorMatrix
         type="matrix"
         values="0 0 0 0 1 0 0 0 0 1 0 0 0 0 1 0 0 0 1 0"
         id="feColorMatrix21" />
      <feBlend
         mode="normal"
         in2="effect2_innerShadow_101_217"
         result="effect3_innerShadow_101_217"
         id="feBlend21" />
    </filter>
    <linearGradient
       id="paint0_linear_101_217"
       x1="86.014999"
       y1="27.514"
       x2="86.014999"
       y2="103.701"
       gradientUnits="userSpaceOnUse">
      <stop
         stop-color="#9638FF"
         id="stop21" />
      <stop
         offset="0.403841"
         stop-color="#6618BB"
         id="stop22" />
      <stop
         offset="1"
         stop-color="#3E0672"
         id="stop23" />
    </linearGradient>
    <linearGradient
       id="paint1_linear_101_217"
       x1="86.014999"
       y1="17.6793"
       x2="86.014999"
       y2="93.866402"
       gradientUnits="userSpaceOnUse">
      <stop
         stop-color="#D0ACFF"
         id="stop24" />
      <stop
         offset="0.403841"
         stop-color="#AF52FF"
         id="stop25" />
      <stop
         offset="1"
         stop-color="#9638FF"
         id="stop26" />
    </linearGradient>
  </defs>
</svg>
