<svg width="187" height="46" viewBox="0 0 187 46" fill="none" xmlns="http://www.w3.org/2000/svg">
<g clip-path="url(#clip0_76_1413)">
<path d="M25.4011 19.334C26.7684 20.7012 27.8529 22.3244 28.5929 24.1108C29.3328 25.8971 29.7136 27.8118 29.7136 29.7454C29.7136 31.6789 29.3328 33.5936 28.5929 35.38C27.8529 37.1664 26.7684 38.7895 25.4011 40.1568C24.0339 41.524 22.4107 42.6086 20.6243 43.3485C18.8379 44.0885 16.9233 44.4693 14.9897 44.4693C13.0562 44.4693 11.1415 44.0885 9.35514 43.3485C7.56876 42.6086 5.94561 41.524 4.57836 40.1568L14.9897 29.7454L25.4011 19.334Z" fill="white"/>
<path d="M14.9905 15.0219C16.9241 15.0219 18.8387 15.4027 20.6251 16.1426C22.4115 16.8826 24.0346 17.9671 25.4019 19.3344C26.7691 20.7016 27.8537 22.3248 28.5936 24.1112C29.3336 25.8976 29.7144 27.8122 29.7144 29.7458C29.7144 31.6794 29.3336 33.594 28.5936 35.3804C27.8537 37.1668 26.7691 38.7899 25.4019 40.1572C24.0346 41.5244 22.4115 42.609 20.6251 43.3489C18.8387 44.0889 16.9241 44.4697 14.9905 44.4697L14.9905 29.7458V15.0219Z" fill="#9638FF"/>
<path d="M4.57984 25.6355C1.81858 22.8742 0.267313 19.1292 0.267313 15.2241C0.267312 11.3191 1.81858 7.574 4.57984 4.81273C7.34111 2.05145 11.0862 0.500184 14.9912 0.500184C18.8962 0.500183 22.6413 2.05145 25.4026 4.81272L14.9912 15.2241L4.57984 25.6355Z" fill="white"/>
<path d="M14.99 29.9481C13.0564 29.9481 11.1418 29.5673 9.35537 28.8273C7.56898 28.0874 5.94583 27.0028 4.57859 25.6356C3.21135 24.2683 2.12679 22.6452 1.38685 20.8588C0.6469 19.0724 0.266056 17.1578 0.266056 15.2242C0.266056 13.2906 0.646902 11.376 1.38685 9.58957C2.12679 7.80318 3.21135 6.18003 4.57859 4.81278C5.94583 3.44554 7.56898 2.36098 9.35537 1.62104C11.1418 0.88109 13.0564 0.500244 14.99 0.500244L14.99 15.2242V29.9481Z" fill="#9638FF"/>
<path d="M64.1267 19.3342C65.4939 20.7015 66.5785 22.3246 67.3184 24.111C68.0584 25.8974 68.4392 27.812 68.4392 29.7456C68.4392 31.6792 68.0584 33.5938 67.3184 35.3802C66.5785 37.1666 65.4939 38.7898 64.1267 40.157C62.7595 41.5242 61.1363 42.6088 59.3499 43.3488C57.5635 44.0887 55.6489 44.4695 53.7153 44.4695C51.7818 44.4695 49.8671 44.0887 48.0807 43.3488C46.2943 42.6088 44.6712 41.5242 43.304 40.157L53.7153 29.7456L64.1267 19.3342Z" fill="white"/>
<path d="M53.7146 15.0223C55.6482 15.0223 57.5628 15.4032 59.3492 16.1431C61.1356 16.8831 62.7588 17.9676 64.126 19.3349C65.4932 20.7021 66.5778 22.3253 67.3177 24.1117C68.0577 25.8981 68.4385 27.8127 68.4385 29.7463C68.4385 31.6799 68.0577 33.5945 67.3177 35.3809C66.5778 37.1673 65.4932 38.7904 64.126 40.1577C62.7588 41.5249 61.1356 42.6095 59.3492 43.3494C57.5628 44.0894 55.6482 44.4702 53.7146 44.4702L53.7146 29.7463V15.0223Z" fill="#9638FF"/>
<path d="M43.304 25.6355C40.5427 22.8742 38.9914 19.1292 38.9914 15.2241C38.9914 11.3191 40.5427 7.574 43.304 4.81273C46.0652 2.05145 49.8103 0.500184 53.7153 0.500184C57.6204 0.500183 61.3654 2.05145 64.1267 4.81272L53.7153 15.2241L43.304 25.6355Z" fill="white"/>
<path d="M53.7155 29.9484C51.782 29.9484 49.8673 29.5675 48.081 28.8276C46.2946 28.0876 44.6714 27.0031 43.3042 25.6358C41.9369 24.2686 40.8524 22.6454 40.1124 20.859C39.3725 19.0726 38.9916 17.158 38.9916 15.2244C38.9916 13.2908 39.3725 11.3762 40.1124 9.58982C40.8524 7.80343 41.9369 6.18027 43.3042 4.81303C44.6714 3.44579 46.2946 2.36123 48.081 1.62128C49.8673 0.881334 51.782 0.500488 53.7155 0.500488L53.7155 15.2244V29.9484Z" fill="#9638FF"/>
<rect x="77.7158" y="0.5" width="12.9086" height="43.9701" fill="#9638FF"/>
</g>
<path d="M109.856 12.1027C107.636 12.1027 106.275 11.076 106.044 9.25367C106.032 9.13817 106.096 9.08683 106.198 9.08683H107.995C108.072 9.08683 108.123 9.12533 108.149 9.20233C108.316 10.0878 108.855 10.4985 109.83 10.4985C110.677 10.4985 111.178 10.1135 111.178 9.459C111.178 8.8815 110.844 8.612 109.984 8.47083L108.932 8.29117C107.084 7.996 106.186 7.13617 106.186 5.63467C106.186 3.92783 107.43 2.914 109.548 2.914C111.601 2.914 112.897 3.88933 113.154 5.59617C113.167 5.69883 113.103 5.763 113.013 5.763H111.216C111.139 5.763 111.075 5.73733 111.049 5.609C110.883 4.85183 110.421 4.51817 109.586 4.51817C108.778 4.51817 108.342 4.85183 108.342 5.4935C108.342 6.071 108.739 6.39183 109.586 6.54583L110.652 6.71267C112.577 7.02067 113.334 7.77783 113.334 9.36917C113.334 11.0632 111.999 12.1027 109.856 12.1027ZM117.804 12.1027C115.623 12.1027 114.262 10.7937 114.262 8.70183C114.262 6.62283 115.636 5.301 117.792 5.301C119.909 5.301 121.154 6.55867 121.154 8.689V9.04833C121.154 9.13817 121.103 9.1895 121 9.1895H116.393C116.457 10.1392 116.957 10.6782 117.843 10.6782C118.51 10.6782 118.934 10.4087 119.075 9.9595C119.113 9.85683 119.165 9.83117 119.242 9.83117H120.974C121.077 9.83117 121.141 9.86967 121.128 9.94667C120.91 11.2685 119.717 12.1027 117.804 12.1027ZM116.393 8.15H119.126C119.075 7.23883 118.613 6.7255 117.83 6.7255C116.97 6.7255 116.47 7.226 116.393 8.15ZM122.484 12C122.381 12 122.33 11.9487 122.33 11.846V5.55767C122.33 5.455 122.381 5.40367 122.484 5.40367H124.165C124.255 5.40367 124.319 5.455 124.319 5.55767V6.3405H124.37C124.82 5.66033 125.487 5.31383 126.372 5.31383C127.271 5.31383 127.9 5.6475 128.272 6.3405H128.336C128.875 5.66033 129.645 5.31383 130.595 5.31383C132.083 5.31383 132.879 6.27633 132.879 8.17567V11.846C132.879 11.9487 132.815 12 132.725 12H130.941C130.838 12 130.787 11.9487 130.787 11.846V8.17567C130.787 7.27733 130.441 6.86667 129.709 6.86667C128.99 6.86667 128.644 7.29017 128.644 8.17567V11.846C128.644 11.9487 128.593 12 128.49 12H126.706C126.616 12 126.552 11.9487 126.552 11.846V8.17567C126.552 7.27733 126.218 6.86667 125.487 6.86667C124.755 6.86667 124.409 7.29017 124.409 8.17567V11.846C124.409 11.9487 124.358 12 124.268 12H122.484ZM136.673 12.1027C134.953 12.1027 133.913 10.8065 133.913 8.70183C133.913 6.5715 134.927 5.301 136.673 5.301C137.494 5.301 138.251 5.69883 138.675 6.3405H138.739V5.55767C138.739 5.455 138.79 5.40367 138.893 5.40367H140.677C140.766 5.40367 140.831 5.455 140.831 5.55767V10.5627H141.434C141.524 10.5627 141.575 10.614 141.575 10.7167V11.846C141.575 11.9487 141.524 12 141.434 12H139.868C139.175 12 138.841 11.7048 138.841 11.1402V11.076H138.777C138.392 11.7048 137.571 12.1027 136.673 12.1027ZM136.031 8.70183C136.031 9.90817 136.557 10.5755 137.443 10.5755C138.328 10.5755 138.816 9.90817 138.816 8.70183C138.816 7.50833 138.315 6.82817 137.443 6.82817C136.557 6.82817 136.031 7.50833 136.031 8.70183ZM142.749 12C142.646 12 142.595 11.9487 142.595 11.846V5.55767C142.595 5.455 142.646 5.40367 142.749 5.40367H144.43C144.52 5.40367 144.584 5.455 144.584 5.55767V6.3405H144.636C145.098 5.66033 145.803 5.301 146.689 5.301C148.216 5.301 149.025 6.27633 149.025 8.21417V11.846C149.025 11.9487 148.96 12 148.871 12H147.087C146.997 12 146.933 11.9487 146.933 11.846V8.21417C146.933 7.29017 146.586 6.85383 145.816 6.85383C145.046 6.85383 144.674 7.29017 144.674 8.21417V11.846C144.674 11.9487 144.623 12 144.533 12H142.749ZM152.84 12.1027C151.12 12.1027 150.08 10.8065 150.08 8.70183C150.08 6.5715 151.094 5.301 152.84 5.301C153.661 5.301 154.418 5.69883 154.842 6.3405H154.906V5.55767C154.906 5.455 154.957 5.40367 155.06 5.40367H156.844C156.933 5.40367 156.998 5.455 156.998 5.55767V10.5627H157.601C157.691 10.5627 157.742 10.614 157.742 10.7167V11.846C157.742 11.9487 157.691 12 157.601 12H156.035C155.342 12 155.008 11.7048 155.008 11.1402V11.076H154.944C154.559 11.7048 153.738 12.1027 152.84 12.1027ZM152.198 8.70183C152.198 9.90817 152.724 10.5755 153.61 10.5755C154.495 10.5755 154.983 9.90817 154.983 8.70183C154.983 7.50833 154.482 6.82817 153.61 6.82817C152.724 6.82817 152.198 7.50833 152.198 8.70183ZM164.156 12.1027C162.449 12.1027 161.397 10.8065 161.397 8.70183C161.397 6.5715 162.424 5.301 164.156 5.301C164.99 5.301 165.748 5.69883 166.171 6.3405H166.235V2.914C166.235 2.81133 166.287 2.76 166.376 2.76H168.16C168.263 2.76 168.314 2.81133 168.314 2.914V11.846C168.314 11.9487 168.263 12 168.16 12H166.479C166.389 12 166.325 11.9487 166.325 11.846V11.076H166.274C165.876 11.7048 165.067 12.1027 164.156 12.1027ZM163.527 8.70183C163.527 9.90817 164.041 10.5755 164.939 10.5755C165.812 10.5755 166.312 9.90817 166.312 8.70183C166.312 7.50833 165.812 6.82817 164.939 6.82817C164.041 6.82817 163.527 7.50833 163.527 8.70183ZM173.035 12.1027C170.854 12.1027 169.493 10.7937 169.493 8.70183C169.493 6.62283 170.867 5.301 173.023 5.301C175.14 5.301 176.385 6.55867 176.385 8.689V9.04833C176.385 9.13817 176.334 9.1895 176.231 9.1895H171.624C171.688 10.1392 172.188 10.6782 173.074 10.6782C173.741 10.6782 174.165 10.4087 174.306 9.9595C174.344 9.85683 174.396 9.83117 174.473 9.83117H176.205C176.308 9.83117 176.372 9.86967 176.359 9.94667C176.141 11.2685 174.948 12.1027 173.035 12.1027ZM171.624 8.15H174.357C174.306 7.23883 173.844 6.7255 173.061 6.7255C172.201 6.7255 171.701 7.226 171.624 8.15ZM109.856 27.1027C107.636 27.1027 106.275 26.076 106.044 24.2537C106.032 24.1382 106.096 24.0868 106.198 24.0868H107.995C108.072 24.0868 108.123 24.1253 108.149 24.2023C108.316 25.0878 108.855 25.4985 109.83 25.4985C110.677 25.4985 111.178 25.1135 111.178 24.459C111.178 23.8815 110.844 23.612 109.984 23.4708L108.932 23.2912C107.084 22.996 106.186 22.1362 106.186 20.6347C106.186 18.9278 107.43 17.914 109.548 17.914C111.601 17.914 112.897 18.8893 113.154 20.5962C113.167 20.6988 113.103 20.763 113.013 20.763H111.216C111.139 20.763 111.075 20.7373 111.049 20.609C110.883 19.8518 110.421 19.5182 109.586 19.5182C108.778 19.5182 108.342 19.8518 108.342 20.4935C108.342 21.071 108.739 21.3918 109.586 21.5458L110.652 21.7127C112.577 22.0207 113.334 22.7778 113.334 24.3692C113.334 26.0632 111.999 27.1027 109.856 27.1027ZM114.801 27C114.699 27 114.647 26.9487 114.647 26.846V20.5577C114.647 20.455 114.699 20.4037 114.801 20.4037H116.585C116.675 20.4037 116.726 20.455 116.726 20.5577V26.846C116.726 26.9487 116.675 27 116.585 27H114.801ZM114.583 19.223V17.4135C114.583 17.3237 114.647 17.2723 114.737 17.2723H116.649C116.739 17.2723 116.803 17.3237 116.803 17.4135V19.223C116.803 19.3128 116.739 19.3642 116.649 19.3642H114.737C114.647 19.3642 114.583 19.3128 114.583 19.223ZM120.989 27.1027C119.206 27.1027 118.14 26.3712 117.986 25.0108C117.974 24.9082 118.038 24.844 118.128 24.844H119.693C119.796 24.844 119.834 24.8953 119.86 24.9852C119.988 25.5627 120.373 25.7552 120.989 25.7552C121.528 25.7552 121.875 25.5113 121.875 25.152C121.875 24.767 121.644 24.6258 121.066 24.5232L120.155 24.3563C118.808 24.1253 118.14 23.5607 118.14 22.3672C118.14 21.1095 119.154 20.301 120.874 20.301C122.375 20.301 123.441 20.9298 123.62 22.2517C123.646 22.3672 123.582 22.4185 123.492 22.4185H121.926C121.824 22.4185 121.772 22.3672 121.747 22.2773C121.644 21.8153 121.374 21.6357 120.874 21.6357C120.348 21.6357 120.078 21.8538 120.078 22.2388C120.078 22.5982 120.284 22.765 120.951 22.8805L121.875 23.0473C123.274 23.2783 123.813 23.8302 123.813 24.998C123.813 26.4097 122.786 27.1027 120.989 27.1027ZM127.795 27C126.461 27 125.729 26.2685 125.729 24.921V21.841H124.703C124.6 21.841 124.549 21.7768 124.549 21.687V20.5577C124.549 20.455 124.6 20.4037 124.703 20.4037H125.729V18.5942C125.729 18.5043 125.781 18.453 125.883 18.453H127.667C127.757 18.453 127.808 18.5043 127.808 18.5942V20.4037H129.31C129.4 20.4037 129.464 20.455 129.464 20.5577V21.687C129.464 21.7768 129.4 21.841 129.31 21.841H127.808V25.5627H129.297C129.4 25.5627 129.451 25.614 129.451 25.7167V26.846C129.451 26.9487 129.4 27 129.297 27H127.795ZM133.671 27.1027C131.489 27.1027 130.129 25.7937 130.129 23.7018C130.129 21.6228 131.502 20.301 133.658 20.301C135.775 20.301 137.02 21.5587 137.02 23.689V24.0483C137.02 24.1382 136.969 24.1895 136.866 24.1895H132.259C132.323 25.1392 132.824 25.6782 133.709 25.6782C134.376 25.6782 134.8 25.4087 134.941 24.9595C134.98 24.8568 135.031 24.8312 135.108 24.8312H136.84C136.943 24.8312 137.007 24.8697 136.994 24.9467C136.776 26.2685 135.583 27.1027 133.671 27.1027ZM132.259 23.15H134.992C134.941 22.2388 134.479 21.7255 133.696 21.7255C132.836 21.7255 132.336 22.226 132.259 23.15ZM138.35 27C138.247 27 138.196 26.9487 138.196 26.846V20.5577C138.196 20.455 138.247 20.4037 138.35 20.4037H140.031C140.121 20.4037 140.185 20.455 140.185 20.5577V21.3405H140.237C140.686 20.6603 141.353 20.3138 142.239 20.3138C143.137 20.3138 143.766 20.6475 144.138 21.3405H144.202C144.741 20.6603 145.511 20.3138 146.461 20.3138C147.949 20.3138 148.745 21.2763 148.745 23.1757V26.846C148.745 26.9487 148.681 27 148.591 27H146.807C146.705 27 146.653 26.9487 146.653 26.846V23.1757C146.653 22.2773 146.307 21.8667 145.575 21.8667C144.857 21.8667 144.51 22.2902 144.51 23.1757V26.846C144.51 26.9487 144.459 27 144.356 27H142.572C142.482 27 142.418 26.9487 142.418 26.846V23.1757C142.418 22.2773 142.085 21.8667 141.353 21.8667C140.622 21.8667 140.275 22.2902 140.275 23.1757V26.846C140.275 26.9487 140.224 27 140.134 27H138.35ZM152.539 27.1027C150.819 27.1027 149.78 25.8065 149.78 23.7018C149.78 21.5715 150.794 20.301 152.539 20.301C153.36 20.301 154.117 20.6988 154.541 21.3405H154.605V20.5577C154.605 20.455 154.656 20.4037 154.759 20.4037H156.543C156.633 20.4037 156.697 20.455 156.697 20.5577V25.5627H157.3C157.39 25.5627 157.441 25.614 157.441 25.7167V26.846C157.441 26.9487 157.39 27 157.3 27H155.734C155.041 27 154.708 26.7048 154.708 26.1402V26.076H154.644C154.259 26.7048 153.437 27.1027 152.539 27.1027ZM151.897 23.7018C151.897 24.9082 152.423 25.5755 153.309 25.5755C154.194 25.5755 154.682 24.9082 154.682 23.7018C154.682 22.5083 154.182 21.8282 153.309 21.8282C152.423 21.8282 151.897 22.5083 151.897 23.7018ZM161.156 27.1027C159.372 27.1027 158.307 26.3712 158.153 25.0108C158.14 24.9082 158.205 24.844 158.294 24.844H159.86C159.963 24.844 160.001 24.8953 160.027 24.9852C160.155 25.5627 160.54 25.7552 161.156 25.7552C161.695 25.7552 162.042 25.5113 162.042 25.152C162.042 24.767 161.811 24.6258 161.233 24.5232L160.322 24.3563C158.975 24.1253 158.307 23.5607 158.307 22.3672C158.307 21.1095 159.321 20.301 161.041 20.301C162.542 20.301 163.607 20.9298 163.787 22.2517C163.813 22.3672 163.749 22.4185 163.659 22.4185H162.093C161.99 22.4185 161.939 22.3672 161.913 22.2773C161.811 21.8153 161.541 21.6357 161.041 21.6357C160.515 21.6357 160.245 21.8538 160.245 22.2388C160.245 22.5982 160.45 22.765 161.118 22.8805L162.042 23.0473C163.441 23.2783 163.98 23.8302 163.98 24.998C163.98 26.4097 162.953 27.1027 161.156 27.1027ZM170.623 27.1027C168.916 27.1027 167.864 25.8065 167.864 23.7018C167.864 21.5715 168.891 20.301 170.623 20.301C171.457 20.301 172.214 20.6988 172.638 21.3405H172.702V17.914C172.702 17.8113 172.753 17.76 172.843 17.76H174.627C174.73 17.76 174.781 17.8113 174.781 17.914V26.846C174.781 26.9487 174.73 27 174.627 27H172.946C172.856 27 172.792 26.9487 172.792 26.846V26.076H172.741C172.343 26.7048 171.534 27.1027 170.623 27.1027ZM169.994 23.7018C169.994 24.9082 170.508 25.5755 171.406 25.5755C172.279 25.5755 172.779 24.9082 172.779 23.7018C172.779 22.5083 172.279 21.8282 171.406 21.8282C170.508 21.8282 169.994 22.5083 169.994 23.7018ZM179.502 27.1027C177.321 27.1027 175.96 25.7937 175.96 23.7018C175.96 21.6228 177.333 20.301 179.489 20.301C181.607 20.301 182.852 21.5587 182.852 23.689V24.0483C182.852 24.1382 182.8 24.1895 182.698 24.1895H178.091C178.155 25.1392 178.655 25.6782 179.541 25.6782C180.208 25.6782 180.632 25.4087 180.773 24.9595C180.811 24.8568 180.863 24.8312 180.94 24.8312H182.672C182.775 24.8312 182.839 24.8697 182.826 24.9467C182.608 26.2685 181.414 27.1027 179.502 27.1027ZM178.091 23.15H180.824C180.773 22.2388 180.311 21.7255 179.528 21.7255C178.668 21.7255 178.168 22.226 178.091 23.15ZM106.571 42C106.468 42 106.417 41.9487 106.417 41.846V33.1707C106.417 33.068 106.468 33.0167 106.571 33.0167H108.406C108.496 33.0167 108.547 33.068 108.547 33.1707V41.846C108.547 41.9487 108.496 42 108.406 42H106.571ZM110.39 42C110.287 42 110.236 41.9487 110.236 41.846V35.5577C110.236 35.455 110.287 35.4037 110.39 35.4037H112.071C112.161 35.4037 112.225 35.455 112.225 35.5577V36.3405H112.276C112.738 35.6603 113.444 35.301 114.33 35.301C115.857 35.301 116.665 36.2763 116.665 38.2142V41.846C116.665 41.9487 116.601 42 116.511 42H114.728C114.638 42 114.574 41.9487 114.574 41.846V38.2142C114.574 37.2902 114.227 36.8538 113.457 36.8538C112.687 36.8538 112.315 37.2902 112.315 38.2142V41.846C112.315 41.9487 112.264 42 112.174 42H110.39ZM118.928 42C118.825 42 118.774 41.9487 118.774 41.846V36.9437H117.747C117.644 36.9437 117.593 36.8923 117.593 36.7897V35.6603C117.593 35.5705 117.644 35.5063 117.747 35.5063H118.774V34.8262C118.774 33.4915 119.505 32.76 120.84 32.76H122.341C122.444 32.76 122.495 32.8113 122.495 32.914V34.0433C122.495 34.146 122.444 34.1973 122.341 34.1973H120.853V35.5063H122.354C122.444 35.5063 122.508 35.5705 122.508 35.6603V36.7897C122.508 36.8923 122.444 36.9437 122.354 36.9437H120.853V41.846C120.853 41.9487 120.801 42 120.712 42H118.928ZM126.564 42.1027C124.434 42.1027 123.048 40.7552 123.048 38.7018C123.048 36.6485 124.434 35.3138 126.564 35.3138C128.694 35.3138 130.093 36.6485 130.093 38.7018C130.093 40.7552 128.694 42.1027 126.564 42.1027ZM125.165 38.7018C125.165 39.9595 125.653 40.6268 126.564 40.6268C127.462 40.6268 127.976 39.9595 127.976 38.7018C127.976 37.457 127.462 36.7768 126.564 36.7768C125.666 36.7768 125.165 37.457 125.165 38.7018ZM131.329 42C131.24 42 131.188 41.9487 131.188 41.846V37.4698C131.188 36.1352 131.92 35.4037 133.254 35.4037H135.385C135.475 35.4037 135.526 35.455 135.526 35.5577V36.8667C135.526 36.9565 135.475 37.0078 135.385 37.0078H133.267V41.846C133.267 41.9487 133.216 42 133.126 42H131.329ZM136.796 42C136.693 42 136.642 41.9487 136.642 41.846V35.5577C136.642 35.455 136.693 35.4037 136.796 35.4037H138.477C138.567 35.4037 138.631 35.455 138.631 35.5577V36.3405H138.683C139.132 35.6603 139.799 35.3138 140.685 35.3138C141.583 35.3138 142.212 35.6475 142.584 36.3405H142.648C143.187 35.6603 143.957 35.3138 144.907 35.3138C146.395 35.3138 147.191 36.2763 147.191 38.1757V41.846C147.191 41.9487 147.127 42 147.037 42H145.253C145.151 42 145.099 41.9487 145.099 41.846V38.1757C145.099 37.2773 144.753 36.8667 144.021 36.8667C143.303 36.8667 142.956 37.2902 142.956 38.1757V41.846C142.956 41.9487 142.905 42 142.802 42H141.018C140.928 42 140.864 41.9487 140.864 41.846V38.1757C140.864 37.2773 140.531 36.8667 139.799 36.8667C139.068 36.8667 138.721 37.2902 138.721 38.1757V41.846C138.721 41.9487 138.67 42 138.58 42H136.796ZM150.985 42.1027C149.265 42.1027 148.226 40.8065 148.226 38.7018C148.226 36.5715 149.239 35.301 150.985 35.301C151.806 35.301 152.563 35.6988 152.987 36.3405H153.051V35.5577C153.051 35.455 153.102 35.4037 153.205 35.4037H154.989C155.079 35.4037 155.143 35.455 155.143 35.5577V40.5627H155.746C155.836 40.5627 155.887 40.614 155.887 40.7167V41.846C155.887 41.9487 155.836 42 155.746 42H154.18C153.487 42 153.154 41.7048 153.154 41.1402V41.076H153.089C152.704 41.7048 151.883 42.1027 150.985 42.1027ZM150.343 38.7018C150.343 39.9082 150.869 40.5755 151.755 40.5755C152.64 40.5755 153.128 39.9082 153.128 38.7018C153.128 37.5083 152.627 36.8282 151.755 36.8282C150.869 36.8282 150.343 37.5083 150.343 38.7018ZM159.974 42.1283C159.281 42.1283 158.691 42.0043 158.203 41.7562C157.716 41.4995 157.344 41.1059 157.087 40.5755C156.83 40.0451 156.702 39.3649 156.702 38.535C156.702 37.6794 156.847 36.9822 157.138 36.4432C157.429 35.9042 157.831 35.5063 158.345 35.2497C158.866 34.993 159.465 34.8647 160.141 34.8647C160.62 34.8647 161.035 34.9117 161.386 35.0058C161.745 35.0999 162.058 35.2112 162.323 35.3395L161.758 36.8153C161.459 36.6956 161.176 36.5972 160.911 36.5202C160.655 36.4432 160.398 36.4047 160.141 36.4047C159.808 36.4047 159.529 36.4859 159.307 36.6485C159.085 36.8025 158.918 37.0378 158.807 37.3543C158.704 37.6623 158.653 38.0516 158.653 38.5222C158.653 38.9842 158.708 39.3692 158.819 39.6772C158.939 39.9766 159.11 40.2033 159.333 40.3573C159.555 40.5028 159.825 40.5755 160.141 40.5755C160.543 40.5755 160.898 40.5242 161.206 40.4215C161.514 40.3103 161.814 40.1606 162.105 39.9723V41.6022C161.814 41.7904 161.506 41.923 161.181 42C160.864 42.0856 160.462 42.1283 159.974 42.1283ZM161.348 43.5657C161.348 43.8822 161.288 44.1517 161.168 44.3742C161.048 44.6052 160.847 44.7806 160.565 44.9003C160.282 45.0201 159.897 45.08 159.41 45.08C159.221 45.08 159.05 45.0672 158.896 45.0415C158.751 45.0158 158.618 44.9859 158.499 44.9517V43.8993C158.618 43.9336 158.764 43.9635 158.935 43.9892C159.115 44.0148 159.269 44.0277 159.397 44.0277C159.517 44.0277 159.619 43.9977 159.705 43.9378C159.799 43.8865 159.846 43.7881 159.846 43.6427C159.846 43.4887 159.769 43.3518 159.615 43.232C159.461 43.1122 159.192 43.0224 158.807 42.9625L159.294 42H160.501L160.334 42.385C160.505 42.4363 160.667 42.5133 160.821 42.616C160.975 42.7272 161.099 42.8598 161.194 43.0138C161.296 43.1678 161.348 43.3518 161.348 43.5657ZM166.592 34.8518C167.533 34.8518 168.252 35.0572 168.748 35.4678C169.253 35.8699 169.505 36.4902 169.505 37.3287V42H168.171L167.798 41.0503H167.747C167.55 41.2984 167.345 41.5038 167.131 41.6663C166.926 41.8289 166.686 41.9444 166.412 42.0128C166.147 42.0898 165.818 42.1283 165.424 42.1283C165.014 42.1283 164.641 42.0513 164.308 41.8973C163.983 41.7348 163.726 41.4909 163.538 41.1658C163.35 40.8322 163.255 40.4129 163.255 39.9082C163.255 39.1638 163.516 38.6163 164.038 38.2655C164.56 37.9062 165.343 37.7094 166.387 37.6752L167.606 37.6367V37.3287C167.606 36.9608 167.508 36.6913 167.311 36.5202C167.123 36.3491 166.857 36.2635 166.515 36.2635C166.173 36.2635 165.839 36.3148 165.514 36.4175C165.189 36.5116 164.864 36.6314 164.539 36.7768L163.91 35.4807C164.286 35.2839 164.701 35.1299 165.155 35.0187C165.617 34.9074 166.096 34.8518 166.592 34.8518ZM166.862 38.7788C166.246 38.7959 165.818 38.9072 165.578 39.1125C165.339 39.3178 165.219 39.5873 165.219 39.921C165.219 40.2119 165.305 40.4215 165.476 40.5498C165.647 40.6696 165.869 40.7295 166.143 40.7295C166.554 40.7295 166.9 40.6097 167.182 40.3702C167.465 40.1221 167.606 39.7756 167.606 39.3307V38.7532L166.862 38.7788ZM164 34.2358C164.025 33.9022 164.085 33.6156 164.179 33.376C164.282 33.1279 164.41 32.9268 164.564 32.7728C164.718 32.6103 164.89 32.4905 165.078 32.4135C165.275 32.3365 165.484 32.298 165.707 32.298C165.878 32.298 166.045 32.3322 166.207 32.4007C166.378 32.4606 166.541 32.5376 166.695 32.6317C166.857 32.7172 167.016 32.7942 167.17 32.8627C167.324 32.9226 167.478 32.9525 167.632 32.9525C167.76 32.9525 167.884 32.8969 168.004 32.7857C168.124 32.6744 168.209 32.5076 168.26 32.2852H169.197C169.146 32.9439 168.958 33.4316 168.633 33.7482C168.308 34.0647 167.927 34.223 167.49 34.223C167.319 34.223 167.153 34.1931 166.99 34.1332C166.827 34.0647 166.665 33.9877 166.502 33.9022C166.34 33.8081 166.181 33.7311 166.027 33.6712C165.873 33.6027 165.719 33.5685 165.565 33.5685C165.437 33.5685 165.313 33.6241 165.193 33.7353C165.074 33.8466 164.988 34.0134 164.937 34.2358H164ZM174.376 42.1027C172.245 42.1027 170.859 40.7552 170.859 38.7018C170.859 36.6485 172.245 35.3138 174.376 35.3138C176.506 35.3138 177.905 36.6485 177.905 38.7018C177.905 40.7552 176.506 42.1027 174.376 42.1027ZM172.977 38.7018C172.977 39.9595 173.465 40.6268 174.376 40.6268C175.274 40.6268 175.787 39.9595 175.787 38.7018C175.787 37.457 175.274 36.7768 174.376 36.7768C173.477 36.7768 172.977 37.457 172.977 38.7018Z" fill="white"/>
<defs>
<clipPath id="clip0_76_1413">
<rect width="90.8385" height="44" fill="white" transform="translate(0 0.5)"/>
</clipPath>
</defs>
</svg>
