<svg xmlns="http://www.w3.org/2000/svg" fill="none" viewBox="294.89 292 2043.54 504.92"><path d="M578.227 504.315C593.64 519.728 605.866 538.025 614.207 558.162C622.548 578.3 626.841 599.883 626.841 621.68C626.841 643.476 622.548 665.06 614.207 685.197C605.866 705.335 593.64 723.632 578.227 739.045C562.815 754.457 544.517 766.683 524.38 775.024C504.242 783.366 482.659 787.659 460.862 787.659C439.066 787.659 417.483 783.366 397.345 775.024C377.208 766.683 358.91 754.457 343.498 739.045L460.863 621.68L578.227 504.315Z" fill="white"></path><path d="M460.868 455.705C482.664 455.705 504.248 459.998 524.385 468.34C544.523 476.681 562.82 488.907 578.232 504.319C593.645 519.732 605.871 538.029 614.212 558.167C622.553 578.304 626.847 599.887 626.847 621.684C626.847 643.481 622.553 665.064 614.212 685.202C605.871 705.339 593.645 723.636 578.232 739.049C562.82 754.462 544.523 766.687 524.385 775.029C504.248 783.37 482.664 787.663 460.868 787.663L460.868 621.684V455.705Z" fill="#9638FF"></path><path d="M343.505 575.344C312.378 544.217 294.891 501.999 294.891 457.979C294.891 413.959 312.378 371.741 343.505 340.614C374.632 309.487 416.85 292 460.87 292C504.89 292 547.108 309.487 578.235 340.614L460.87 457.979L343.505 575.344Z" fill="white"></path><path d="M460.867 623.958C439.07 623.958 417.487 619.665 397.349 611.324C377.212 602.982 358.914 590.756 343.502 575.344C328.089 559.931 315.863 541.634 307.522 521.496C299.181 501.359 294.888 479.776 294.888 457.979C294.888 436.182 299.181 414.599 307.522 394.462C315.863 374.324 328.089 356.027 343.502 340.614C358.914 325.202 377.212 312.976 397.349 304.635C417.487 296.293 439.07 292 460.867 292L460.867 457.979V623.958Z" fill="#9638FF"></path><path d="M1014.77 504.315C1030.19 519.728 1042.41 538.025 1050.75 558.162C1059.1 578.3 1063.39 599.883 1063.39 621.68C1063.39 643.476 1059.1 665.06 1050.75 685.197C1042.41 705.335 1030.19 723.632 1014.77 739.045C999.362 754.457 981.064 766.683 960.927 775.024C940.789 783.366 919.206 787.659 897.409 787.659C875.613 787.659 854.029 783.366 833.892 775.024C813.754 766.683 795.457 754.457 780.045 739.045L897.409 621.68L1014.77 504.315Z" fill="white"></path><path d="M897.415 455.705C919.211 455.705 940.794 459.998 960.932 468.34C981.069 476.681 999.367 488.907 1014.78 504.319C1030.19 519.732 1042.42 538.029 1050.76 558.167C1059.1 578.304 1063.39 599.887 1063.39 621.684C1063.39 643.481 1059.1 665.064 1050.76 685.202C1042.42 705.339 1030.19 723.636 1014.78 739.049C999.367 754.462 981.069 766.687 960.932 775.029C940.794 783.37 919.211 787.663 897.414 787.663L897.415 621.684V455.705Z" fill="#9638FF"></path><path d="M780.052 575.344C748.925 544.217 731.438 501.999 731.438 457.979C731.438 413.959 748.925 371.741 780.052 340.614C811.179 309.487 853.396 292 897.417 292C941.437 292 983.655 309.487 1014.78 340.614L897.417 457.979L780.052 575.344Z" fill="white"></path><path d="M897.414 623.958C875.617 623.958 854.034 619.665 833.896 611.324C813.759 602.982 795.461 590.756 780.049 575.344C764.636 559.931 752.41 541.634 744.069 521.496C735.728 501.359 731.435 479.776 731.435 457.979C731.435 436.182 735.728 414.599 744.069 394.462C752.41 374.324 764.636 356.027 780.049 340.614C795.461 325.202 813.759 312.976 833.896 304.635C854.034 296.293 875.617 292 897.414 292L897.414 457.979V623.958Z" fill="#9638FF"></path><rect x="1167.98" y="292" width="145.516" height="495.663" fill="#9638FF"></rect><path d="M1510.73 431.164C1485.56 431.164 1470.14 419.523 1467.52 398.86C1467.37 397.55 1468.1 396.968 1469.26 396.968H1489.63C1490.51 396.968 1491.09 397.404 1491.38 398.278C1493.27 408.318 1499.38 412.975 1510.44 412.975C1520.05 412.975 1525.72 408.609 1525.72 401.188C1525.72 394.64 1521.94 391.584 1512.19 389.983L1500.26 387.946C1479.3 384.599 1469.12 374.85 1469.12 357.824C1469.12 338.471 1483.23 326.975 1507.24 326.975C1530.52 326.975 1545.22 338.034 1548.13 357.388C1548.28 358.552 1547.55 359.279 1546.53 359.279H1526.16C1525.29 359.279 1524.56 358.988 1524.27 357.533C1522.38 348.948 1517.14 345.164 1507.68 345.164C1498.51 345.164 1493.56 348.948 1493.56 356.223C1493.56 362.772 1498.07 366.41 1507.68 368.156L1519.76 370.047C1541.58 373.54 1550.17 382.125 1550.17 400.169C1550.17 419.377 1535.04 431.164 1510.73 431.164ZM1600.86 431.164C1576.12 431.164 1560.7 416.322 1560.7 392.602C1560.7 369.029 1576.27 354.041 1600.72 354.041C1624.73 354.041 1638.84 368.301 1638.84 392.457V396.531C1638.84 397.55 1638.26 398.132 1637.1 398.132H1584.86C1585.58 408.9 1591.26 415.012 1601.3 415.012C1608.87 415.012 1613.67 411.956 1615.27 406.863C1615.7 405.699 1616.29 405.408 1617.16 405.408H1636.8C1637.97 405.408 1638.7 405.844 1638.55 406.717C1636.08 421.706 1622.54 431.164 1600.86 431.164ZM1584.86 386.345H1615.85C1615.27 376.014 1610.03 370.193 1601.15 370.193C1591.4 370.193 1585.73 375.868 1584.86 386.345ZM1653.92 430C1652.76 430 1652.18 429.418 1652.18 428.254V356.951C1652.18 355.787 1652.76 355.205 1653.92 355.205H1672.98C1674 355.205 1674.73 355.787 1674.73 356.951V365.828H1675.31C1680.41 358.115 1687.97 354.186 1698.01 354.186C1708.2 354.186 1715.33 357.97 1719.55 365.828H1720.28C1726.39 358.115 1735.12 354.186 1745.89 354.186C1762.77 354.186 1771.79 365.1 1771.79 386.636V428.254C1771.79 429.418 1771.06 430 1770.04 430H1749.82C1748.65 430 1748.07 429.418 1748.07 428.254V386.636C1748.07 376.45 1744.14 371.794 1735.85 371.794C1727.7 371.794 1723.77 376.596 1723.77 386.636V428.254C1723.77 429.418 1723.19 430 1722.02 430H1701.8C1700.78 430 1700.05 429.418 1700.05 428.254V386.636C1700.05 376.45 1696.27 371.794 1687.97 371.794C1679.68 371.794 1675.75 376.596 1675.75 386.636V428.254C1675.75 429.418 1675.17 430 1674.15 430H1653.92ZM1814.81 431.164C1795.31 431.164 1783.52 416.467 1783.52 392.602C1783.52 368.447 1795.02 354.041 1814.81 354.041C1824.12 354.041 1832.7 358.552 1837.51 365.828H1838.23V356.951C1838.23 355.787 1838.82 355.205 1839.98 355.205H1860.21C1861.23 355.205 1861.95 355.787 1861.95 356.951V413.702H1868.79C1869.81 413.702 1870.39 414.284 1870.39 415.448V428.254C1870.39 429.418 1869.81 430 1868.79 430H1851.04C1843.18 430 1839.4 426.653 1839.4 420.25V419.523H1838.67C1834.31 426.653 1824.99 431.164 1814.81 431.164ZM1807.53 392.602C1807.53 406.281 1813.5 413.848 1823.54 413.848C1833.58 413.848 1839.11 406.281 1839.11 392.602C1839.11 379.069 1833.43 371.357 1823.54 371.357C1813.5 371.357 1807.53 379.069 1807.53 392.602ZM1883.71 430C1882.54 430 1881.96 429.418 1881.96 428.254V356.951C1881.96 355.787 1882.54 355.205 1883.71 355.205H1902.77C1903.79 355.205 1904.51 355.787 1904.51 356.951V365.828H1905.1C1910.34 358.115 1918.34 354.041 1928.38 354.041C1945.7 354.041 1954.86 365.1 1954.86 387.073V428.254C1954.86 429.418 1954.14 430 1953.12 430H1932.89C1931.87 430 1931.14 429.418 1931.14 428.254V387.073C1931.14 376.596 1927.22 371.648 1918.48 371.648C1909.75 371.648 1905.53 376.596 1905.53 387.073V428.254C1905.53 429.418 1904.95 430 1903.93 430H1883.71ZM1998.12 431.164C1978.62 431.164 1966.84 416.467 1966.84 392.602C1966.84 368.447 1978.33 354.041 1998.12 354.041C2007.44 354.041 2016.02 358.552 2020.82 365.828H2021.55V356.951C2021.55 355.787 2022.13 355.205 2023.3 355.205H2043.52C2044.54 355.205 2045.27 355.787 2045.27 356.951V413.702H2052.11C2053.13 413.702 2053.71 414.284 2053.71 415.448V428.254C2053.71 429.418 2053.13 430 2052.11 430H2034.36C2026.5 430 2022.71 426.653 2022.71 420.25V419.523H2021.99C2017.62 426.653 2008.31 431.164 1998.12 431.164ZM1990.85 392.602C1990.85 406.281 1996.81 413.848 2006.85 413.848C2016.89 413.848 2022.42 406.281 2022.42 392.602C2022.42 379.069 2016.75 371.357 2006.85 371.357C1996.81 371.357 1990.85 379.069 1990.85 392.602ZM2126.44 431.164C2107.09 431.164 2095.15 416.467 2095.15 392.602C2095.15 368.447 2106.8 354.041 2126.44 354.041C2135.9 354.041 2144.48 358.552 2149.29 365.828H2150.01V326.975C2150.01 325.811 2150.6 325.229 2151.61 325.229H2171.84C2173 325.229 2173.59 325.811 2173.59 326.975V428.254C2173.59 429.418 2173 430 2171.84 430H2152.78C2151.76 430 2151.03 429.418 2151.03 428.254V419.523H2150.45C2145.94 426.653 2136.77 431.164 2126.44 431.164ZM2119.31 392.602C2119.31 406.281 2125.13 413.848 2135.32 413.848C2145.21 413.848 2150.89 406.281 2150.89 392.602C2150.89 379.069 2145.21 371.357 2135.32 371.357C2125.13 371.357 2119.31 379.069 2119.31 392.602ZM2227.12 431.164C2202.38 431.164 2186.96 416.322 2186.96 392.602C2186.96 369.029 2202.53 354.041 2226.97 354.041C2250.98 354.041 2265.1 368.301 2265.1 392.457V396.531C2265.1 397.55 2264.52 398.132 2263.35 398.132H2211.11C2211.84 408.9 2217.52 415.012 2227.56 415.012C2235.12 415.012 2239.93 411.956 2241.53 406.863C2241.96 405.699 2242.54 405.408 2243.42 405.408H2263.06C2264.23 405.408 2264.95 405.844 2264.81 406.717C2262.33 421.706 2248.8 431.164 2227.12 431.164ZM2211.11 386.345H2242.11C2241.53 376.014 2236.29 370.193 2227.41 370.193C2217.66 370.193 2211.99 375.868 2211.11 386.345ZM1510.73 597.164C1485.56 597.164 1470.14 585.523 1467.52 564.86C1467.37 563.55 1468.1 562.968 1469.26 562.968H1489.63C1490.51 562.968 1491.09 563.404 1491.38 564.278C1493.27 574.318 1499.38 578.975 1510.44 578.975C1520.05 578.975 1525.72 574.609 1525.72 567.188C1525.72 560.64 1521.94 557.584 1512.19 555.983L1500.26 553.946C1479.3 550.599 1469.12 540.85 1469.12 523.824C1469.12 504.471 1483.23 492.975 1507.24 492.975C1530.52 492.975 1545.22 504.034 1548.13 523.388C1548.28 524.552 1547.55 525.279 1546.53 525.279H1526.16C1525.29 525.279 1524.56 524.988 1524.27 523.533C1522.38 514.948 1517.14 511.164 1507.68 511.164C1498.51 511.164 1493.56 514.948 1493.56 522.223C1493.56 528.772 1498.07 532.41 1507.68 534.156L1519.76 536.047C1541.58 539.54 1550.17 548.125 1550.17 566.169C1550.17 585.377 1535.04 597.164 1510.73 597.164ZM1566.81 596C1565.65 596 1565.06 595.418 1565.06 594.254V522.951C1565.06 521.787 1565.65 521.205 1566.81 521.205H1587.04C1588.06 521.205 1588.64 521.787 1588.64 522.951V594.254C1588.64 595.418 1588.06 596 1587.04 596H1566.81ZM1564.34 507.817V487.3C1564.34 486.281 1565.06 485.699 1566.08 485.699H1587.77C1588.78 485.699 1589.51 486.281 1589.51 487.3V507.817C1589.51 508.836 1588.78 509.418 1587.77 509.418H1566.08C1565.06 509.418 1564.34 508.836 1564.34 507.817ZM1636.98 597.164C1616.75 597.164 1604.67 588.87 1602.93 573.445C1602.78 572.281 1603.51 571.553 1604.53 571.553H1622.28C1623.44 571.553 1623.88 572.135 1624.17 573.154C1625.63 579.702 1629.99 581.885 1636.98 581.885C1643.09 581.885 1647.02 579.12 1647.02 575.046C1647.02 570.68 1644.4 569.08 1637.85 567.915L1627.52 566.024C1612.24 563.404 1604.67 557.002 1604.67 543.469C1604.67 529.208 1616.17 520.041 1635.67 520.041C1652.69 520.041 1664.77 527.171 1666.81 542.159C1667.1 543.469 1666.37 544.051 1665.35 544.051H1647.6C1646.43 544.051 1645.85 543.469 1645.56 542.45C1644.4 537.212 1641.34 535.174 1635.67 535.174C1629.7 535.174 1626.64 537.648 1626.64 542.014C1626.64 546.088 1628.97 547.98 1636.54 549.289L1647.02 551.181C1662.88 553.8 1668.99 560.058 1668.99 573.3C1668.99 589.306 1657.35 597.164 1636.98 597.164ZM1714.15 596C1699.02 596 1690.72 587.706 1690.72 572.426V537.503H1679.08C1677.92 537.503 1677.33 536.775 1677.33 535.756V522.951C1677.33 521.787 1677.92 521.205 1679.08 521.205H1690.72V500.687C1690.72 499.669 1691.3 499.086 1692.47 499.086H1712.69C1713.71 499.086 1714.29 499.669 1714.29 500.687V521.205H1731.32C1732.34 521.205 1733.07 521.787 1733.07 522.951V535.756C1733.07 536.775 1732.34 537.503 1731.32 537.503H1714.29V579.702H1731.17C1732.34 579.702 1732.92 580.284 1732.92 581.448V594.254C1732.92 595.418 1732.34 596 1731.17 596H1714.15ZM1780.77 597.164C1756.03 597.164 1740.6 582.322 1740.6 558.602C1740.6 535.029 1756.17 520.041 1780.62 520.041C1804.63 520.041 1818.75 534.301 1818.75 558.457V562.531C1818.75 563.55 1818.16 564.132 1817 564.132H1764.76C1765.49 574.9 1771.16 581.012 1781.2 581.012C1788.77 581.012 1793.57 577.956 1795.17 572.863C1795.61 571.699 1796.19 571.408 1797.06 571.408H1816.71C1817.87 571.408 1818.6 571.844 1818.46 572.717C1815.98 587.706 1802.45 597.164 1780.77 597.164ZM1764.76 552.345H1795.76C1795.17 542.014 1789.93 536.193 1781.06 536.193C1771.31 536.193 1765.63 541.868 1764.76 552.345ZM1833.83 596C1832.66 596 1832.08 595.418 1832.08 594.254V522.951C1832.08 521.787 1832.66 521.205 1833.83 521.205H1852.89C1853.91 521.205 1854.64 521.787 1854.64 522.951V531.828H1855.22C1860.31 524.115 1867.88 520.186 1877.92 520.186C1888.1 520.186 1895.23 523.97 1899.45 531.828H1900.18C1906.29 524.115 1915.02 520.186 1925.79 520.186C1942.67 520.186 1951.69 531.1 1951.69 552.636V594.254C1951.69 595.418 1950.97 596 1949.95 596H1929.72C1928.56 596 1927.98 595.418 1927.98 594.254V552.636C1927.98 542.45 1924.05 537.794 1915.75 537.794C1907.6 537.794 1903.67 542.596 1903.67 552.636V594.254C1903.67 595.418 1903.09 596 1901.93 596H1881.7C1880.68 596 1879.96 595.418 1879.96 594.254V552.636C1879.96 542.45 1876.17 537.794 1867.88 537.794C1859.58 537.794 1855.65 542.596 1855.65 552.636V594.254C1855.65 595.418 1855.07 596 1854.05 596H1833.83ZM1994.71 597.164C1975.21 597.164 1963.43 582.467 1963.43 558.602C1963.43 534.447 1974.92 520.041 1994.71 520.041C2004.02 520.041 2012.61 524.552 2017.41 531.828H2018.14V522.951C2018.14 521.787 2018.72 521.205 2019.89 521.205H2040.11C2041.13 521.205 2041.86 521.787 2041.86 522.951V579.702H2048.7C2049.72 579.702 2050.3 580.284 2050.3 581.448V594.254C2050.3 595.418 2049.72 596 2048.7 596H2030.95C2023.09 596 2019.3 592.653 2019.3 586.25V585.523H2018.58C2014.21 592.653 2004.9 597.164 1994.71 597.164ZM1987.44 558.602C1987.44 572.281 1993.4 579.848 2003.44 579.848C2013.48 579.848 2019.01 572.281 2019.01 558.602C2019.01 545.069 2013.34 537.357 2003.44 537.357C1993.4 537.357 1987.44 545.069 1987.44 558.602ZM2092.42 597.164C2072.2 597.164 2060.12 588.87 2058.37 573.445C2058.23 572.281 2058.95 571.553 2059.97 571.553H2077.73C2078.89 571.553 2079.33 572.135 2079.62 573.154C2081.07 579.702 2085.44 581.885 2092.42 581.885C2098.53 581.885 2102.46 579.12 2102.46 575.046C2102.46 570.68 2099.84 569.08 2093.3 567.915L2082.96 566.024C2067.69 563.404 2060.12 557.002 2060.12 543.469C2060.12 529.208 2071.61 520.041 2091.11 520.041C2108.14 520.041 2120.22 527.171 2122.25 542.159C2122.55 543.469 2121.82 544.051 2120.8 544.051H2103.05C2101.88 544.051 2101.3 543.469 2101.01 542.45C2099.84 537.212 2096.79 535.174 2091.11 535.174C2085.15 535.174 2082.09 537.648 2082.09 542.014C2082.09 546.088 2084.42 547.98 2091.99 549.289L2102.46 551.181C2118.33 553.8 2124.44 560.058 2124.44 573.3C2124.44 589.306 2112.8 597.164 2092.42 597.164ZM2199.77 597.164C2180.41 597.164 2168.48 582.467 2168.48 558.602C2168.48 534.447 2180.12 520.041 2199.77 520.041C2209.22 520.041 2217.81 524.552 2222.61 531.828H2223.34V492.975C2223.34 491.811 2223.92 491.229 2224.94 491.229H2245.17C2246.33 491.229 2246.91 491.811 2246.91 492.975V594.254C2246.91 595.418 2246.33 596 2245.17 596H2226.1C2225.09 596 2224.36 595.418 2224.36 594.254V585.523H2223.78C2219.27 592.653 2210.1 597.164 2199.77 597.164ZM2192.64 558.602C2192.64 572.281 2198.46 579.848 2208.64 579.848C2218.54 579.848 2224.21 572.281 2224.21 558.602C2224.21 545.069 2218.54 537.357 2208.64 537.357C2198.46 537.357 2192.64 545.069 2192.64 558.602ZM2300.45 597.164C2275.71 597.164 2260.28 582.322 2260.28 558.602C2260.28 535.029 2275.85 520.041 2300.3 520.041C2324.31 520.041 2338.43 534.301 2338.43 558.457V562.531C2338.43 563.55 2337.84 564.132 2336.68 564.132H2284.44C2285.17 574.9 2290.84 581.012 2300.88 581.012C2308.45 581.012 2313.25 577.956 2314.85 572.863C2315.29 571.699 2315.87 571.408 2316.74 571.408H2336.39C2337.55 571.408 2338.28 571.844 2338.13 572.717C2335.66 587.706 2322.13 597.164 2300.45 597.164ZM2284.44 552.345H2315.43C2314.85 542.014 2309.61 536.193 2300.74 536.193C2290.99 536.193 2285.31 541.868 2284.44 552.345ZM1473.48 762C1472.32 762 1471.74 761.418 1471.74 760.254V661.885C1471.74 660.721 1472.32 660.139 1473.48 660.139H1494.29C1495.31 660.139 1495.89 660.721 1495.89 661.885V760.254C1495.89 761.418 1495.31 762 1494.29 762H1473.48ZM1516.79 762C1515.63 762 1515.04 761.418 1515.04 760.254V688.951C1515.04 687.787 1515.63 687.205 1516.79 687.205H1535.85C1536.87 687.205 1537.6 687.787 1537.6 688.951V697.828H1538.18C1543.42 690.115 1551.42 686.041 1561.46 686.041C1578.78 686.041 1587.95 697.1 1587.95 719.073V760.254C1587.95 761.418 1587.22 762 1586.2 762H1565.97C1564.96 762 1564.23 761.418 1564.23 760.254V719.073C1564.23 708.596 1560.3 703.648 1551.57 703.648C1542.84 703.648 1538.62 708.596 1538.62 719.073V760.254C1538.62 761.418 1538.04 762 1537.02 762H1516.79ZM1613.6 762C1612.43 762 1611.85 761.418 1611.85 760.254V704.667H1600.21C1599.05 704.667 1598.47 704.085 1598.47 702.921V690.115C1598.47 689.097 1599.05 688.369 1600.21 688.369H1611.85V680.657C1611.85 665.523 1620.15 657.229 1635.28 657.229H1652.31C1653.47 657.229 1654.05 657.811 1654.05 658.975V671.78C1654.05 672.944 1653.47 673.526 1652.31 673.526H1635.43V688.369H1652.45C1653.47 688.369 1654.2 689.097 1654.2 690.115V702.921C1654.2 704.085 1653.47 704.667 1652.45 704.667H1635.43V760.254C1635.43 761.418 1634.84 762 1633.83 762H1613.6ZM1700.19 763.164C1676.03 763.164 1660.32 747.885 1660.32 724.602C1660.32 701.32 1676.03 686.186 1700.19 686.186C1724.34 686.186 1740.2 701.32 1740.2 724.602C1740.2 747.885 1724.34 763.164 1700.19 763.164ZM1684.33 724.602C1684.33 738.863 1689.85 746.43 1700.19 746.43C1710.37 746.43 1716.19 738.863 1716.19 724.602C1716.19 710.487 1710.37 702.775 1700.19 702.775C1690 702.775 1684.33 710.487 1684.33 724.602ZM1754.22 762C1753.2 762 1752.62 761.418 1752.62 760.254V710.633C1752.62 695.499 1760.91 687.205 1776.05 687.205H1800.2C1801.22 687.205 1801.8 687.787 1801.8 688.951V703.794C1801.8 704.812 1801.22 705.394 1800.2 705.394H1776.19V760.254C1776.19 761.418 1775.61 762 1774.59 762H1754.22ZM1816.21 762C1815.04 762 1814.46 761.418 1814.46 760.254V688.951C1814.46 687.787 1815.04 687.205 1816.21 687.205H1835.27C1836.29 687.205 1837.01 687.787 1837.01 688.951V697.828H1837.6C1842.69 690.115 1850.26 686.186 1860.3 686.186C1870.48 686.186 1877.61 689.97 1881.83 697.828H1882.56C1888.67 690.115 1897.4 686.186 1908.17 686.186C1925.05 686.186 1934.07 697.1 1934.07 718.636V760.254C1934.07 761.418 1933.35 762 1932.33 762H1912.1C1910.94 762 1910.35 761.418 1910.35 760.254V718.636C1910.35 708.45 1906.43 703.794 1898.13 703.794C1889.98 703.794 1886.05 708.596 1886.05 718.636V760.254C1886.05 761.418 1885.47 762 1884.31 762H1864.08C1863.06 762 1862.33 761.418 1862.33 760.254V718.636C1862.33 708.45 1858.55 703.794 1850.26 703.794C1841.96 703.794 1838.03 708.596 1838.03 718.636V760.254C1838.03 761.418 1837.45 762 1836.43 762H1816.21ZM1977.09 763.164C1957.59 763.164 1945.8 748.467 1945.8 724.602C1945.8 700.447 1957.3 686.041 1977.09 686.041C1986.4 686.041 1994.99 690.552 1999.79 697.828H2000.52V688.951C2000.52 687.787 2001.1 687.205 2002.26 687.205H2022.49C2023.51 687.205 2024.24 687.787 2024.24 688.951V745.702H2031.08C2032.1 745.702 2032.68 746.284 2032.68 747.448V760.254C2032.68 761.418 2032.1 762 2031.08 762H2013.32C2005.47 762 2001.68 758.653 2001.68 752.25V751.523H2000.96C1996.59 758.653 1987.28 763.164 1977.09 763.164ZM1969.81 724.602C1969.81 738.281 1975.78 745.848 1985.82 745.848C1995.86 745.848 2001.39 738.281 2001.39 724.602C2001.39 711.069 1995.72 703.357 1985.82 703.357C1975.78 703.357 1969.81 711.069 1969.81 724.602ZM2079.02 763.455C2071.16 763.455 2064.47 762.049 2058.94 759.235C2053.41 756.325 2049.19 751.862 2046.28 745.848C2043.37 739.833 2041.92 732.121 2041.92 722.711C2041.92 713.01 2043.56 705.103 2046.86 698.992C2050.16 692.88 2054.72 688.369 2060.54 685.459C2066.46 682.548 2073.25 681.093 2080.91 681.093C2086.35 681.093 2091.05 681.627 2095.03 682.694C2099.1 683.761 2102.64 685.022 2105.65 686.477L2099.25 703.212C2095.85 701.853 2092.65 700.738 2089.64 699.865C2086.73 698.992 2083.82 698.555 2080.91 698.555C2077.13 698.555 2073.98 699.477 2071.46 701.32C2068.93 703.066 2067.04 705.734 2065.78 709.323C2064.62 712.816 2064.03 717.23 2064.03 722.565C2064.03 727.804 2064.66 732.169 2065.93 735.662C2067.28 739.057 2069.22 741.628 2071.75 743.374C2074.27 745.023 2077.32 745.848 2080.91 745.848C2085.47 745.848 2089.5 745.266 2092.99 744.102C2096.48 742.84 2099.88 741.143 2103.18 739.009V757.489C2099.88 759.623 2096.39 761.127 2092.7 762C2089.11 762.97 2084.55 763.455 2079.02 763.455ZM2094.59 779.753C2094.59 783.342 2093.91 786.398 2092.56 788.92C2091.2 791.54 2088.92 793.528 2085.72 794.887C2082.51 796.245 2078.15 796.924 2072.62 796.924C2070.49 796.924 2068.55 796.778 2066.8 796.487C2065.15 796.196 2063.65 795.857 2062.29 795.469V783.536C2063.65 783.924 2065.3 784.264 2067.24 784.555C2069.27 784.846 2071.02 784.991 2072.47 784.991C2073.83 784.991 2075 784.652 2075.97 783.973C2077.03 783.391 2077.57 782.275 2077.57 780.626C2077.57 778.88 2076.69 777.328 2074.95 775.97C2073.2 774.611 2070.15 773.593 2065.78 772.914L2071.31 762H2084.99L2083.1 766.365C2085.04 766.948 2086.88 767.821 2088.63 768.985C2090.37 770.246 2091.78 771.75 2092.85 773.496C2094.01 775.242 2094.59 777.328 2094.59 779.753ZM2154.06 680.948C2164.73 680.948 2172.88 683.276 2178.51 687.932C2184.23 692.492 2187.09 699.525 2187.09 709.032V762H2171.96L2167.74 751.232H2167.16C2164.93 754.045 2162.6 756.373 2160.17 758.217C2157.84 760.06 2155.13 761.369 2152.02 762.146C2149.02 763.019 2145.28 763.455 2140.82 763.455C2136.16 763.455 2131.94 762.582 2128.16 760.836C2124.47 758.993 2121.56 756.228 2119.43 752.541C2117.29 748.758 2116.23 744.005 2116.23 738.281C2116.23 729.841 2119.19 723.632 2125.1 719.655C2131.02 715.58 2139.9 713.349 2151.73 712.961L2165.56 712.525V709.032C2165.56 704.861 2164.44 701.805 2162.21 699.865C2160.08 697.925 2157.07 696.954 2153.19 696.954C2149.31 696.954 2145.52 697.536 2141.84 698.701C2138.15 699.768 2134.46 701.126 2130.78 702.775L2123.65 688.078C2127.92 685.847 2132.62 684.101 2137.76 682.839C2143 681.578 2148.43 680.948 2154.06 680.948ZM2157.12 725.476C2150.13 725.67 2145.28 726.931 2142.56 729.259C2139.85 731.587 2138.49 734.643 2138.49 738.426C2138.49 741.725 2139.46 744.102 2141.4 745.557C2143.34 746.915 2145.86 747.594 2148.97 747.594C2153.62 747.594 2157.55 746.236 2160.75 743.519C2163.96 740.706 2165.56 736.777 2165.56 731.733V725.185L2157.12 725.476ZM2124.67 673.963C2124.96 670.18 2125.64 666.93 2126.7 664.213C2127.87 661.4 2129.32 659.12 2131.07 657.374C2132.82 655.531 2134.76 654.173 2136.89 653.3C2139.12 652.427 2141.5 651.99 2144.02 651.99C2145.96 651.99 2147.85 652.378 2149.7 653.154C2151.64 653.833 2153.48 654.706 2155.22 655.773C2157.07 656.744 2158.86 657.617 2160.61 658.393C2162.35 659.072 2164.1 659.411 2165.85 659.411C2167.3 659.411 2168.71 658.781 2170.07 657.52C2171.43 656.259 2172.4 654.367 2172.98 651.845H2183.6C2183.02 659.314 2180.88 664.844 2177.2 668.433C2173.51 672.023 2169.19 673.817 2164.25 673.817C2162.31 673.817 2160.41 673.478 2158.57 672.799C2156.73 672.023 2154.89 671.15 2153.04 670.18C2151.2 669.112 2149.4 668.239 2147.66 667.56C2145.91 666.784 2144.17 666.396 2142.42 666.396C2140.96 666.396 2139.56 667.027 2138.2 668.288C2136.84 669.549 2135.87 671.441 2135.29 673.963H2124.67ZM2242.32 763.164C2218.16 763.164 2202.45 747.885 2202.45 724.602C2202.45 701.32 2218.16 686.186 2242.32 686.186C2266.47 686.186 2282.34 701.32 2282.34 724.602C2282.34 747.885 2266.47 763.164 2242.32 763.164ZM2226.46 724.602C2226.46 738.863 2231.99 746.43 2242.32 746.43C2252.5 746.43 2258.32 738.863 2258.32 724.602C2258.32 710.487 2252.5 702.775 2242.32 702.775C2232.13 702.775 2226.46 710.487 2226.46 724.602Z" fill="white"></path></svg>