<svg width="294" height="301" viewBox="0 0 294 301" fill="none" xmlns="http://www.w3.org/2000/svg">
<path d="M144.383 10.7219L142.933 9.00173L142.919 9.01327L142.905 9.02502L144.383 10.7219ZM121.571 30.584L123.048 32.281L123.048 32.281L121.571 30.584ZM26.8046 113.918L25.2753 112.268L25.2753 112.268L26.8046 113.918ZM13.3975 127.519L15.1661 128.91L15.1661 128.91L13.3975 127.519ZM9.55673 135.136L7.37949 134.568L7.30673 134.847V135.136H9.55673ZM9.55673 135.142L11.7464 135.659L11.8067 135.404V135.142H9.55673ZM38.7658 151.931L39.0686 154.16L39.0782 154.159L39.0877 154.158L38.7658 151.931ZM45.8469 151.034L47.3819 152.679L52.4527 147.947L45.57 148.801L45.8469 151.034ZM40.3601 156.107L41.8709 157.775L41.8709 157.775L40.3601 156.107ZM17.5739 176.079L19.0075 177.813L19.0159 177.806L19.0243 177.799L17.5739 176.079ZM31.0454 206.533L31.0359 204.283L30.9336 204.284L30.8317 204.294L31.0454 206.533ZM91.2901 198.232L90.9255 196.012L90.9255 196.012L91.2901 198.232ZM131.079 191.816L130.738 189.592L130.738 189.592L131.079 191.816ZM142.02 190.383L144.27 190.381L144.268 187.973L141.866 188.138L142.02 190.383ZM142.065 231.495L144.315 231.493L144.315 231.492L142.065 231.495ZM142.317 278.145L144.567 278.11L144.567 278.11L142.317 278.145ZM142.614 288.964L144.861 288.851L144.861 288.85L142.614 288.964ZM142.827 291.843L140.592 292.102L140.592 292.103L142.827 291.843ZM143.001 292.914L145.196 292.419L145.196 292.419L143.001 292.914ZM144.072 294.954L142.483 296.546L142.483 296.546L144.072 294.954ZM145.292 295.793L144.323 297.824L144.324 297.824L145.292 295.793ZM146.067 296.11L146.817 293.988L146.817 293.988L146.067 296.11ZM147.674 296.561L147.2 298.761L147.202 298.761L147.674 296.561ZM150.689 296.541L150.138 294.36L150.136 294.361L150.689 296.541ZM153.768 295.07L154.999 296.953L154.999 296.953L153.768 295.07ZM163.825 287.233L162.405 285.487L162.405 285.487L163.825 287.233ZM283.094 182.727L281.51 181.129L281.51 181.129L283.094 182.727ZM287.297 178.169L289.108 179.504L289.108 179.504L287.297 178.169ZM289.388 173.974L291.519 174.697L291.519 174.697L289.388 173.974ZM290.563 166.815L288.322 166.614L288.312 166.724L288.313 166.834L290.563 166.815ZM277.77 154.241L278.014 152.004L278.006 152.003L277.997 152.002L277.77 154.241ZM259.392 154.815L259.277 152.568L259.277 152.568L259.392 154.815ZM254.17 155.061L252.688 153.368L247.853 157.599L254.272 157.308L254.17 155.061ZM280.649 130.48L279.143 128.808L279.107 128.84L279.073 128.873L280.649 130.48ZM289.524 121.772L287.854 120.265L287.854 120.265L289.524 121.772ZM286.569 104.311L288.183 102.744L288.072 102.63L287.946 102.532L286.569 104.311ZM230.681 104.44L231.048 106.659L231.049 106.659L230.681 104.44ZM181.371 112.386L181.714 114.609L181.714 114.609L181.371 112.386ZM158.081 115.652L157.913 113.408L157.91 113.408L158.081 115.652ZM157.571 115.666L155.322 115.733L155.391 118.055L157.71 117.912L157.571 115.666ZM157.526 113.949L155.276 113.953L155.276 113.954L157.526 113.949ZM157.875 93.3641L160.124 93.4153L160.124 93.4153L157.875 93.3641ZM158.501 43.5508L156.251 43.549L156.251 43.5491L158.501 43.5508ZM158.365 25.9997L156.116 26.047L156.116 26.0471L158.365 25.9997ZM158.185 20.3902L160.432 20.2749L160.432 20.2749L158.185 20.3902ZM157.855 17.0013L160.054 16.5222L160.054 16.5221L157.855 17.0013ZM157.216 14.1547L159.389 13.5709L159.389 13.5705L157.216 14.1547ZM155.706 11.2887L157.294 9.69521L157.131 9.5325L156.938 9.40626L155.706 11.2887ZM141.407 35.251L143.652 35.1047L143.369 30.7618L139.99 33.5037L141.407 35.251ZM141.646 39.2854L143.894 39.1905L143.894 39.1904L141.646 39.2854ZM141.988 67.7584L143.466 69.4554L144.238 68.7828V67.7584H141.988ZM128.374 79.6098L129.852 81.3069L129.852 81.3069L128.374 79.6098ZM81.2722 120.373L79.816 118.658L79.816 118.658L81.2722 120.373ZM68.6655 130.45L69.6408 132.477L69.6408 132.477L68.6655 130.45ZM64.8892 131.592L65.4398 133.774L65.4398 133.774L64.8892 131.592ZM57.395 133.251L56.9542 131.045L56.9542 131.045L57.395 133.251ZM38.514 136.369L38.8009 138.6L38.8022 138.6L38.514 136.369ZM38.5083 136.369V138.619H38.6183L38.7278 138.608L38.5083 136.369ZM38.5026 136.369V134.119H38.3579L38.2144 134.137L38.5026 136.369ZM30.7436 136.976L30.8069 139.225L30.8072 139.225L30.7436 136.976ZM27.7872 136.97L27.6787 139.217L27.681 139.217L27.7872 136.97ZM27.019 136.937L26.2153 139.038L29.5805 140.325L29.2601 136.736L27.019 136.937ZM27.458 135.355L25.4538 134.333L25.4536 134.333L27.458 135.355ZM46.5132 117.397L45.0186 115.715L45.0186 115.715L46.5132 117.397ZM111.606 60.4769L113.074 62.1821L113.074 62.182L111.606 60.4769ZM135.799 39.8661L137.243 41.5916L137.243 41.5916L135.799 39.8661ZM141.924 89.1245L144.173 89.0777L144.078 84.5049L140.514 87.3711L141.924 89.1245ZM142.02 119.043L142.401 121.261L144.27 120.94V119.043H142.02ZM117.349 123.233L116.973 121.014L116.973 121.014L117.349 123.233ZM99.9594 126.138L98.4162 124.5L93.0687 129.54L100.321 128.358L99.9594 126.138ZM121.965 106.282L120.482 104.589L120.482 104.589L121.965 106.282ZM141.491 89.4537L140.069 87.7097L140.069 87.7105L141.491 89.4537ZM273.064 114.622L275.252 115.145L275.915 112.372H273.064V114.622ZM273.006 114.964L275.082 115.831L275.087 115.82L275.091 115.809L273.006 114.964ZM264.853 124.091L266.403 125.723L266.403 125.723L264.853 124.091ZM237.058 148.691L235.59 146.986L235.59 146.986L237.058 148.691ZM226.768 157.373L225.34 155.635L225.34 155.635L226.768 157.373ZM223.483 160.02L222.104 158.242L222.103 158.242L223.483 160.02ZM222.824 160.517L223.231 162.73L223.739 162.637L224.155 162.332L222.824 160.517ZM220.572 160.924L220.957 163.14L220.958 163.14L220.572 160.924ZM214.097 162.027L213.721 159.809L213.721 159.809L214.097 162.027ZM195.081 165.216L195.45 167.436L195.45 167.436L195.081 165.216ZM164.097 170.264L163.78 168.036L163.78 168.036L164.097 170.264ZM158.884 170.981L156.634 170.968L156.619 173.542L159.172 173.212L158.884 170.981ZM159.107 131.973L158.739 129.753L156.868 130.064L156.857 131.96L159.107 131.973ZM200.987 124.995L201.36 127.214L201.36 127.214L200.987 124.995ZM142.02 134.807H144.27V132.1L141.609 132.595L142.02 134.807ZM142.02 174.06L142.438 176.271L144.27 175.925V174.06H142.02ZM129.698 176.19L130.068 178.409L130.068 178.409L129.698 176.19ZM101.373 180.831L101.014 178.61L101.014 178.61L101.373 180.831ZM48.2611 189.184L47.9379 186.957L47.9379 186.957L48.2611 189.184ZM29.1606 191.307L29.2459 193.556L29.2493 193.556L29.1606 191.307ZM26.9465 191.391L24.9561 190.342L23.1403 193.787L27.0318 193.64L26.9465 191.391ZM26.9981 191.198L28.9601 192.299L28.9604 192.299L26.9981 191.198ZM30.8582 186.544L32.4689 188.115L32.4689 188.115L30.8582 186.544ZM59.2345 160.904L57.7523 159.212L57.7521 159.212L59.2345 160.904ZM76.5211 145.767L76.1528 143.548L75.5208 143.652L75.0388 144.075L76.5211 145.767ZM107.492 140.629L107.861 142.849L107.861 142.849L107.492 140.629ZM273.187 169.464L275.392 169.908L275.853 167.622L273.552 167.243L273.187 169.464ZM273.109 169.922L275.104 170.963L271.116 168.878L273.109 169.922ZM201.542 234.524L203.017 236.223L203.017 236.223L201.542 234.524ZM163.729 267.412L165.201 269.113L165.208 269.108L165.214 269.102L163.729 267.412ZM158.838 272.156L156.588 272.129L156.53 276.855L160.235 273.92L158.838 272.156ZM158.954 239.025L157.42 237.379L156.703 238.048L156.704 239.028L158.954 239.025ZM195.758 205.696L194.279 204.001L194.279 204.001L195.758 205.696ZM231.467 174.557L231.105 172.337L230.472 172.44L229.988 172.862L231.467 174.557ZM238.187 173.46L237.825 171.239L237.824 171.239L238.187 173.46ZM199.948 180.676L201.434 182.365L206.652 177.773L199.733 178.436L199.948 180.676ZM158.893 216.166L156.643 216.142L156.591 221.096L160.356 217.875L158.893 216.166ZM159.062 186.758L158.714 184.535L156.818 184.831L156.812 186.751L159.062 186.758ZM173.327 184.53L173.674 186.753L173.686 186.751L173.697 186.749L173.327 184.53ZM160.049 186.266L162.288 186.487L162.623 183.09L159.369 184.121L160.049 186.266ZM160.044 186.324L157.804 186.104L162.264 186.691L160.044 186.324ZM160.044 186.279L162.269 186.608L162.671 183.894L159.931 184.032L160.044 186.279ZM158.905 186.629L159.029 188.876L159.313 188.86L159.585 188.774L158.905 186.629ZM5.18979 199.065C4.90424 197.855 3.69235 197.106 2.48297 197.392C1.27358 197.677 0.524662 198.889 0.810212 200.099L5.18979 199.065ZM22.7191 211.463L22.697 209.213L22.697 209.213L22.7191 211.463ZM47.3122 212.091C48.5413 211.908 49.3895 210.764 49.2066 209.534C49.0238 208.305 47.8792 207.457 46.65 207.64L47.3122 212.091ZM55.9484 206.14C54.7183 206.316 53.8635 207.456 54.0392 208.686C54.215 209.916 55.3546 210.771 56.5848 210.595L55.9484 206.14ZM64.7118 205.654C63.7645 204.85 62.3446 204.966 61.5404 205.913C60.7362 206.861 60.8522 208.28 61.7995 209.085L64.7118 205.654ZM157.629 7.6109C158.588 8.40196 160.006 8.26638 160.797 7.30806C161.588 6.34974 161.452 4.93159 160.494 4.14052L157.629 7.6109ZM136.17 8.32451L134.793 6.54522L134.793 6.54522L136.17 8.32451ZM116.195 22.6849C115.327 23.5733 115.342 24.9978 116.231 25.8667C117.119 26.7355 118.544 26.7197 119.413 25.8313L116.195 22.6849ZM112.91 32.6448C113.784 31.7614 113.776 30.3368 112.893 29.4628C112.01 28.5889 110.585 28.5965 109.711 29.4798L112.91 32.6448ZM106.537 33.8393C105.299 33.7332 104.209 34.6508 104.103 35.8889C103.997 37.127 104.915 38.2167 106.153 38.3229L106.537 33.8393ZM156.92 296.696C155.969 297.496 155.848 298.916 156.648 299.866C157.449 300.817 158.868 300.938 159.819 300.138L156.92 296.696ZM204.579 262.437C205.53 261.637 205.651 260.217 204.851 259.267C204.05 258.316 202.631 258.195 201.68 258.995L204.579 262.437ZM181.551 283.641C180.605 284.446 180.49 285.866 181.295 286.813C182.099 287.76 183.519 287.875 184.466 287.07L181.551 283.641ZM203.316 271.044C204.263 270.239 204.378 268.819 203.573 267.872C202.768 266.925 201.348 266.81 200.402 267.615L203.316 271.044ZM204.741 264.209C203.804 265.025 203.706 266.446 204.522 267.383C205.338 268.32 206.759 268.418 207.696 267.602L204.741 264.209ZM213.98 262.131C214.917 261.315 215.015 259.893 214.199 258.956C213.383 258.019 211.962 257.921 211.024 258.737L213.98 262.131ZM142.905 9.02502L120.093 28.8871L123.048 32.281L145.86 12.4189L142.905 9.02502ZM120.093 28.8871C66.7838 75.3024 39.5459 99.0446 25.2753 112.268L28.3338 115.569C42.5386 102.406 69.7022 78.728 123.048 32.281L120.093 28.8871ZM25.2753 112.268C18.1584 118.862 14.1539 122.917 11.6289 126.128L15.1661 128.91C17.4482 126.008 21.2131 122.167 28.3338 115.569L25.2753 112.268ZM11.6289 126.128C8.99413 129.478 7.98178 132.258 7.37949 134.568L11.734 135.703C12.2161 133.854 12.9937 131.672 15.1661 128.91L11.6289 126.128ZM7.30673 135.136V135.142H11.8067V135.136H7.30673ZM7.36705 134.624C6.30986 139.097 7.27074 142.845 9.59626 145.788C11.8415 148.63 15.2177 150.55 18.7469 151.839C25.7897 154.411 34.3702 154.799 39.0686 154.16L38.4629 149.701C34.4006 150.253 26.5669 149.904 20.2905 147.612C17.1601 146.469 14.6505 144.926 13.1272 142.998C11.6842 141.172 10.9939 138.843 11.7464 135.659L7.36705 134.624ZM39.0877 154.158C42.5639 153.655 43.8466 153.549 46.1238 153.267L45.57 148.801C43.4045 149.069 41.9754 149.194 38.4438 149.704L39.0877 154.158ZM44.3119 149.389C42.5832 151.002 41.0461 152.45 38.8493 154.44L41.8709 157.775C44.0983 155.756 45.6655 154.28 47.3819 152.679L44.3119 149.389ZM38.8493 154.44C31.9768 160.667 23.2901 168.316 16.1235 174.359L19.0243 177.799C26.2402 171.715 34.9679 164.03 41.8709 157.775L38.8493 154.44ZM16.1403 174.345C7.46055 181.52 2.81247 190.685 5.1363 198.223C7.55705 206.075 16.765 210.156 31.259 208.773L30.8317 204.294C16.8133 205.631 10.8441 201.463 9.43658 196.897C7.9321 192.017 10.8045 184.595 19.0075 177.813L16.1403 174.345ZM31.0548 208.783C40.6128 208.743 43.9704 208.284 91.6548 200.453L90.9255 196.012C43.0545 203.874 40.143 204.245 31.0359 204.283L31.0548 208.783ZM91.6548 200.453C111.013 197.273 123.476 195.257 131.42 194.04L130.738 189.592C122.766 190.813 110.28 192.833 90.9255 196.012L91.6548 200.453ZM131.42 194.04C138.458 192.962 141.047 192.705 142.175 192.628L141.866 188.138C140.543 188.229 137.803 188.51 130.738 189.592L131.42 194.04ZM139.77 190.385L139.815 231.497L144.315 231.492L144.27 190.381L139.77 190.385ZM139.815 231.497C139.838 253.324 139.912 268.42 140.068 278.181L144.567 278.11C144.412 268.386 144.338 253.321 144.315 231.493L139.815 231.497ZM140.067 278.181C140.145 283.058 140.242 286.619 140.367 289.078L144.861 288.85C144.741 286.473 144.644 282.975 144.567 278.11L140.067 278.181ZM140.367 289.077C140.429 290.3 140.496 291.281 140.592 292.102L145.062 291.583C144.984 290.91 144.921 290.046 144.861 288.851L140.367 289.077ZM140.592 292.103C140.64 292.513 140.696 292.92 140.806 293.41L145.196 292.419C145.135 292.15 145.101 291.92 145.062 291.582L140.592 292.103ZM140.806 293.41C140.754 293.181 140.767 292.899 140.766 293.195C140.765 293.414 140.777 293.78 140.912 294.226C141.162 295.052 141.721 295.786 142.483 296.546L145.662 293.362C145.388 293.088 145.254 292.919 145.195 292.835C145.141 292.757 145.179 292.792 145.219 292.922C145.238 292.987 145.252 293.055 145.259 293.12C145.266 293.182 145.266 293.224 145.266 293.214C145.266 293.201 145.266 293.2 145.266 293.157C145.267 293.126 145.267 293.071 145.266 293.006C145.263 292.873 145.251 292.665 145.196 292.419L140.806 293.41ZM142.483 296.546C142.91 296.973 143.295 297.285 143.694 297.518C143.893 297.635 144.064 297.713 144.189 297.767C144.232 297.786 144.305 297.817 144.312 297.819C144.336 297.829 144.334 297.829 144.323 297.824L146.261 293.763C146.181 293.724 146.11 293.694 146.063 293.674C145.999 293.647 146 293.648 145.969 293.634C145.945 293.624 145.955 293.628 145.969 293.636C145.996 293.652 145.911 293.611 145.662 293.362L142.483 296.546ZM144.324 297.824C144.698 298.003 145.019 298.126 145.317 298.231L146.817 293.988C146.61 293.915 146.447 293.851 146.261 293.763L144.324 297.824ZM145.317 298.231C145.916 298.443 146.541 298.619 147.2 298.761L148.148 294.362C147.666 294.258 147.227 294.133 146.817 293.988L145.317 298.231ZM147.202 298.761C148.115 298.957 149.681 299.118 151.242 298.722L150.136 294.361C149.466 294.53 148.645 294.469 148.147 294.362L147.202 298.761ZM151.24 298.723C152.715 298.35 153.882 297.683 154.999 296.953L152.537 293.186C151.568 293.82 150.894 294.169 150.138 294.36L151.24 298.723ZM154.999 296.953C157.208 295.509 160.107 293.155 165.244 288.979L162.405 285.487C157.169 289.745 154.499 291.904 152.537 293.186L154.999 296.953ZM165.244 288.979C195.855 264.093 267.529 201.33 284.679 184.324L281.51 181.129C264.512 197.985 192.967 260.641 162.405 285.487L165.244 288.979ZM284.679 184.324C286.632 182.387 287.996 181.013 289.108 179.504L285.485 176.835C284.617 178.013 283.513 179.142 281.51 181.129L284.679 184.324ZM289.108 179.504C290.286 177.905 290.985 176.269 291.519 174.697L287.258 173.25C286.804 174.585 286.287 175.746 285.485 176.835L289.108 179.504ZM291.519 174.697C292.385 172.146 292.835 169.441 292.813 166.796L288.313 166.834C288.331 168.952 287.968 171.156 287.258 173.25L291.519 174.697ZM292.804 167.016C293.185 162.765 290.635 159.114 287.765 156.634C284.87 154.134 281.116 152.343 278.014 152.004L277.525 156.477C279.525 156.696 282.454 157.993 284.824 160.04C287.218 162.108 288.514 164.465 288.322 166.614L292.804 167.016ZM277.997 152.002C274.41 151.637 269.566 152.041 259.277 152.568L259.507 157.062C270.143 156.518 274.407 156.16 277.542 156.479L277.997 152.002ZM259.277 152.568C257.278 152.67 255.827 152.733 254.068 152.813L254.272 157.308C256.022 157.229 257.491 157.165 259.507 157.062L259.277 152.568ZM255.652 156.754C265.006 148.566 272.403 141.718 282.224 132.086L279.073 128.873C269.311 138.448 261.976 145.238 252.688 153.368L255.652 156.754ZM280.649 130.48C282.154 132.152 282.154 132.152 282.154 132.152C282.154 132.152 282.154 132.152 282.154 132.152C282.155 132.152 282.155 132.151 282.155 132.151C282.156 132.15 282.157 132.149 282.159 132.148C282.162 132.145 282.166 132.141 282.171 132.136C282.182 132.126 282.199 132.112 282.219 132.093C282.261 132.055 282.323 131.999 282.402 131.928C282.56 131.784 282.788 131.575 283.073 131.314C283.642 130.79 284.436 130.052 285.34 129.193C287.139 127.484 289.408 125.259 291.195 123.279L287.854 120.265C286.185 122.114 284.016 124.244 282.24 125.931C281.358 126.77 280.581 127.491 280.026 128.002C279.748 128.257 279.527 128.46 279.375 128.598C279.299 128.667 279.24 128.72 279.201 128.755C279.181 128.773 279.167 128.786 279.157 128.795C279.152 128.8 279.149 128.803 279.146 128.805C279.145 128.806 279.144 128.807 279.144 128.807C279.144 128.807 279.143 128.807 279.143 128.808C279.143 128.808 279.143 128.808 279.143 128.808C279.143 128.808 279.143 128.808 280.649 130.48ZM291.195 123.279C292.514 121.817 293.051 119.896 293.202 118.065C293.354 116.209 293.132 114.211 292.709 112.32C291.882 108.631 290.149 104.77 288.183 102.744L284.954 105.878C286.111 107.07 287.583 110.025 288.318 113.304C288.675 114.898 288.822 116.422 288.717 117.696C288.61 118.995 288.262 119.812 287.854 120.265L291.195 123.279ZM287.946 102.532C285.134 100.355 281.111 99.2056 276.698 98.6294C272.227 98.0458 267.059 98.0158 261.706 98.3029C250.999 98.8771 239.252 100.74 230.313 102.22L231.049 106.659C239.999 105.177 251.52 103.356 261.947 102.796C267.161 102.517 272.026 102.558 276.116 103.092C280.263 103.633 283.327 104.647 285.191 106.09L287.946 102.532ZM230.314 102.22C210.285 105.535 193.502 108.237 181.028 110.162L181.714 114.609C194.211 112.681 211.011 109.976 231.048 106.659L230.314 102.22ZM181.028 110.162C168.503 112.095 160.212 113.236 157.913 113.408L158.25 117.896C160.767 117.707 169.267 116.53 181.714 114.609L181.028 110.162ZM157.91 113.408C157.903 113.409 157.892 113.41 157.816 113.41C157.748 113.41 157.601 113.41 157.432 113.421L157.71 117.912C157.727 117.911 157.742 117.91 157.835 117.91C157.921 117.91 158.072 117.909 158.252 117.895L157.91 113.408ZM159.82 115.6C159.801 114.931 159.778 114.789 159.776 113.945L155.276 113.954C155.278 114.871 155.308 115.238 155.322 115.733L159.82 115.6ZM159.776 113.946C159.77 110.323 159.883 104.006 160.124 93.4153L155.625 93.3129C155.384 103.89 155.27 110.265 155.276 113.953L159.776 113.946ZM160.124 93.4153C160.529 75.6261 160.74 57.6025 160.751 43.5526L156.251 43.5491C156.24 57.5628 156.029 75.5532 155.625 93.3129L160.124 93.4153ZM160.751 43.5527C160.756 36.5285 160.711 30.4938 160.615 25.9522L156.116 26.0471C156.211 30.5428 156.256 36.5413 156.251 43.549L160.751 43.5527ZM160.615 25.9523C160.567 23.6851 160.509 21.7762 160.432 20.2749L155.937 20.5056C156.011 21.9394 156.068 23.7955 156.116 26.047L160.615 25.9523ZM160.432 20.2749C160.36 18.8827 160.333 17.8055 160.054 16.5222L155.657 17.4804C155.84 18.3193 155.858 18.9626 155.937 20.5056L160.432 20.2749ZM160.054 16.5221C159.82 15.4485 159.633 14.4774 159.389 13.5709L155.043 14.7385C155.25 15.5066 155.389 16.2499 155.657 17.4806L160.054 16.5221ZM159.389 13.5705C159.152 12.6888 158.769 11.1655 157.294 9.69521L154.117 12.8821C154.687 13.45 154.83 13.9461 155.044 14.7389L159.389 13.5705ZM156.938 9.40626C155.308 8.33857 152.664 7.63189 150.245 7.41661C148.995 7.30533 147.681 7.31281 146.458 7.51641C145.267 7.71479 143.964 8.13238 142.933 9.00173L145.833 12.4422C146.003 12.2994 146.415 12.0856 147.198 11.9553C147.949 11.8302 148.866 11.8116 149.847 11.8989C151.89 12.0807 153.707 12.6695 154.473 13.1711L156.938 9.40626ZM139.162 35.3973C139.245 36.6724 139.331 37.7876 139.398 39.3804L143.894 39.1904C143.824 37.5303 143.733 36.3351 143.652 35.1047L139.162 35.3973ZM139.398 39.3802C139.602 44.2277 139.738 50.4879 139.738 56.701H144.238C144.238 50.4302 144.101 44.1066 143.894 39.1905L139.398 39.3802ZM139.738 56.701V67.7584H144.238V56.701H139.738ZM140.511 66.0614L126.897 77.9128L129.852 81.3069L143.466 69.4554L140.511 66.0614ZM126.897 77.9128C102.979 98.7339 88.5661 111.23 79.816 118.658L82.7283 122.089C91.5041 114.639 105.94 102.122 129.852 81.3069L126.897 77.9128ZM79.816 118.658C75.4532 122.362 72.3995 124.825 70.4102 126.373C69.4151 127.147 68.691 127.689 68.206 128.04C67.9627 128.216 67.7863 128.34 67.67 128.418C67.4917 128.539 67.5482 128.49 67.6901 128.422L69.6408 132.477C69.8556 132.374 70.0868 132.216 70.1927 132.145C70.3607 132.031 70.578 131.878 70.8456 131.684C71.3825 131.296 72.1489 130.722 73.1737 129.924C75.2242 128.329 78.3283 125.824 82.7283 122.089L79.816 118.658ZM67.6902 128.422C67.783 128.377 67.7818 128.385 67.5419 128.469C67.361 128.532 67.105 128.617 66.788 128.717C66.154 128.917 65.2976 129.168 64.3387 129.41L65.4398 133.774C66.4951 133.507 67.4363 133.231 68.1416 133.009C68.7593 132.814 69.3737 132.606 69.6408 132.477L67.6902 128.422ZM64.3387 129.41C62.3725 129.907 59.8173 130.473 56.9542 131.045L57.8358 135.457C60.7446 134.876 63.3777 134.294 65.4398 133.774L64.3387 129.41ZM56.9542 131.045C51.2298 132.188 44.3168 133.351 38.2258 134.137L38.8022 138.6C45.0049 137.799 52.0201 136.619 57.8358 135.457L56.9542 131.045ZM38.2271 134.137C38.2867 134.129 38.3469 134.124 38.4073 134.121C38.4678 134.118 38.5225 134.118 38.5702 134.12C38.6166 134.121 38.6538 134.123 38.6753 134.125C38.6859 134.125 38.6941 134.126 38.6975 134.126C38.6984 134.127 38.6992 134.127 38.6997 134.127C38.7002 134.127 38.7005 134.127 38.7006 134.127C38.701 134.127 38.6997 134.127 38.6984 134.127C38.6849 134.125 38.621 134.12 38.5393 134.119C38.4986 134.118 38.4566 134.119 38.4133 134.121C38.3703 134.123 38.3288 134.126 38.2887 134.129L38.7278 138.608C38.6885 138.612 38.6476 138.615 38.6052 138.617C38.5626 138.618 38.5211 138.619 38.4809 138.618C38.4003 138.617 38.3372 138.612 38.3245 138.611C38.3233 138.611 38.3222 138.611 38.3227 138.611C38.3228 138.611 38.3242 138.611 38.3261 138.611C38.3297 138.611 38.3381 138.612 38.3489 138.613C38.3707 138.614 38.4083 138.617 38.4552 138.618C38.5033 138.619 38.5584 138.619 38.6193 138.616C38.6802 138.613 38.7408 138.608 38.8009 138.6L38.2271 134.137ZM38.5083 134.119H38.5026V138.619H38.5083V134.119ZM38.2144 134.137C35.7619 134.454 32.949 134.662 30.68 134.726L30.8072 139.225C33.2177 139.156 36.1808 138.937 38.7907 138.6L38.2144 134.137ZM30.6803 134.726C29.5429 134.758 28.5688 134.754 27.8934 134.722L27.681 139.217C28.509 139.256 29.6046 139.258 30.8069 139.225L30.6803 134.726ZM27.8957 134.722C27.6675 134.711 27.4843 134.684 27.3245 134.662C27.2978 134.658 27.2166 134.647 27.1366 134.639C27.1099 134.637 26.9888 134.625 26.8393 134.629C26.7805 134.631 26.5794 134.637 26.3327 134.701C26.2099 134.733 25.9642 134.807 25.6931 134.978C25.4152 135.154 24.9759 135.522 24.7602 136.17C24.5364 136.843 24.6786 137.437 24.8412 137.8C24.9908 138.135 25.1867 138.353 25.2851 138.454C25.4827 138.657 25.6736 138.774 25.7248 138.805C25.8614 138.889 25.9808 138.941 26.0075 138.953C26.09 138.99 26.1737 139.022 26.2153 139.038L27.8228 134.835C27.7772 134.818 27.7979 134.825 27.8398 134.843C27.8461 134.846 27.9508 134.891 28.0779 134.969C28.1245 134.998 28.312 135.112 28.5075 135.313C28.6048 135.413 28.8001 135.63 28.9492 135.964C29.1114 136.326 29.2536 136.919 29.03 137.591C28.8146 138.239 28.3757 138.606 28.0987 138.781C27.8285 138.952 27.5841 139.026 27.4627 139.057C27.219 139.12 27.0221 139.126 26.9687 139.128C26.8301 139.132 26.7246 139.121 26.7181 139.12C26.6785 139.116 26.6559 139.112 26.704 139.119C26.8436 139.139 27.2189 139.195 27.6787 139.217L27.8957 134.722ZM29.2601 136.736C29.2632 136.771 29.2652 136.814 29.2636 136.855C29.2623 136.89 29.2591 136.9 29.2624 136.882C29.269 136.849 29.3064 136.683 29.4624 136.377L25.4536 134.333C24.7841 135.646 24.7283 136.581 24.778 137.137L29.2601 136.736ZM29.4623 136.378C29.4266 136.447 29.5023 136.284 30.0647 135.667C30.5877 135.094 31.4318 134.234 32.7828 132.937C35.4804 130.347 40.1045 126.103 48.0079 119.079L45.0186 115.715C37.1056 122.748 32.4286 127.039 29.6661 129.691C28.2869 131.015 27.3611 131.954 26.7401 132.635C26.1584 133.272 25.716 133.819 25.4538 134.333L29.4623 136.378ZM48.0079 119.079C69.141 100.298 93.672 78.8863 113.074 62.1821L110.138 58.7718C90.7199 75.4898 66.1711 96.9174 45.0186 115.715L48.0079 119.079ZM113.074 62.182C122.775 53.8293 131.188 46.6591 137.243 41.5916L134.355 38.1406C128.276 43.2278 119.846 50.4135 110.138 58.7718L113.074 62.182ZM137.243 41.5916C139.599 39.6201 141.252 38.274 142.825 36.9983L139.99 33.5037C138.409 34.7861 136.736 36.1483 134.355 38.1406L137.243 41.5916ZM139.674 89.1713C139.734 92.053 139.77 95.6348 139.77 102.499H144.27C144.27 95.6208 144.234 92.004 144.173 89.0777L139.674 89.1713ZM139.77 102.499V119.043H144.27V102.499H139.77ZM141.64 116.826C139.917 117.122 129.775 118.843 116.973 121.014L117.725 125.451C130.524 123.281 140.673 121.558 142.401 121.261L141.64 116.826ZM116.973 121.014C110.317 122.143 104.208 123.166 99.5976 123.917L100.321 128.358C104.946 127.605 111.066 126.58 117.725 125.451L116.973 121.014ZM101.503 127.775C105.853 123.675 112.305 117.73 123.447 107.975L120.482 104.589C109.304 114.377 102.811 120.359 98.4162 124.5L101.503 127.775ZM123.447 107.975C133.477 99.1931 139.406 94.0597 142.914 91.197L140.069 87.7105C136.487 90.6332 130.493 95.8245 120.482 104.589L123.447 107.975ZM142.913 91.1978C142.973 91.1486 142.993 91.1342 143.026 91.111C143.091 91.0642 143.186 90.9963 143.333 90.8779L140.514 87.3711C140.465 87.4101 140.45 87.4203 140.401 87.4555C140.319 87.5144 140.221 87.5859 140.069 87.7097L142.913 91.1978ZM271.708 116.872H273.064V112.372H271.708V116.872ZM270.876 114.099C270.868 114.129 270.863 114.155 270.858 114.176C270.854 114.197 270.85 114.217 270.847 114.234C270.84 114.268 270.834 114.299 270.83 114.326C270.825 114.353 270.821 114.38 270.817 114.404C270.813 114.428 270.809 114.452 270.806 114.473C270.803 114.494 270.799 114.514 270.797 114.53C270.794 114.548 270.792 114.56 270.791 114.57C270.79 114.575 270.79 114.578 270.789 114.579C270.789 114.581 270.789 114.578 270.79 114.573C270.791 114.57 270.792 114.565 270.793 114.558C270.794 114.552 270.796 114.541 270.799 114.526C270.8 114.518 270.802 114.508 270.805 114.496C270.807 114.485 270.811 114.468 270.816 114.447C270.818 114.437 270.822 114.424 270.825 114.409C270.829 114.394 270.834 114.375 270.84 114.354C270.846 114.332 270.855 114.303 270.866 114.268C270.872 114.25 270.879 114.229 270.888 114.205C270.896 114.181 270.907 114.152 270.92 114.119L275.091 115.809C275.137 115.695 275.163 115.603 275.172 115.573C275.184 115.531 275.192 115.497 275.196 115.478C275.206 115.438 275.212 115.407 275.215 115.393C275.221 115.363 275.225 115.338 275.227 115.327C275.231 115.304 275.234 115.28 275.237 115.266C275.239 115.25 275.242 115.232 275.244 115.217C275.247 115.201 275.249 115.185 275.252 115.169C275.257 115.136 275.261 115.11 275.264 115.093C275.27 115.061 275.265 115.091 275.252 115.145L270.876 114.099ZM270.93 114.096C270.947 114.054 270.87 114.225 270.54 114.685C270.24 115.103 269.794 115.672 269.174 116.397C267.935 117.844 266.039 119.862 263.304 122.46L266.403 125.723C269.223 123.044 271.231 120.913 272.592 119.323C273.272 118.529 273.801 117.858 274.194 117.311C274.557 116.806 274.891 116.289 275.082 115.831L270.93 114.096ZM263.304 122.46C257.793 127.694 249.043 135.409 235.59 146.986L238.525 150.397C251.972 138.825 260.801 131.043 266.403 125.723L263.304 122.46ZM235.59 146.986C231.694 150.339 228.05 153.409 225.34 155.635L228.196 159.112C230.939 156.859 234.611 153.766 238.525 150.397L235.59 146.986ZM225.34 155.635C223.981 156.752 222.868 157.649 222.104 158.242L224.861 161.798C225.678 161.165 226.83 160.234 228.196 159.112L225.34 155.635ZM222.103 158.242C221.828 158.456 221.662 158.579 221.494 158.702L224.155 162.332C224.348 162.19 224.548 162.041 224.862 161.797L222.103 158.242ZM222.418 158.304C222.079 158.366 221.48 158.481 220.185 158.707L220.958 163.14C222.279 162.91 222.912 162.789 223.231 162.73L222.418 158.304ZM220.186 158.707C218.561 158.99 216.344 159.365 213.721 159.809L214.473 164.246C217.089 163.802 219.32 163.425 220.957 163.14L220.186 158.707ZM213.721 159.809C208.485 160.697 201.652 161.843 194.712 162.997L195.45 167.436C202.394 166.281 209.232 165.134 214.473 164.246L213.721 159.809ZM194.712 162.997C180.809 165.308 166.358 167.67 163.78 168.036L164.413 172.492C167.059 172.116 181.583 169.741 195.45 167.436L194.712 162.997ZM163.78 168.036C162.108 168.274 160.81 168.452 159.931 168.571C159.491 168.631 159.156 168.675 158.932 168.705C158.82 168.72 158.735 168.731 158.679 168.738C158.651 168.742 158.63 168.745 158.616 168.746C158.609 168.747 158.604 168.748 158.6 168.748C158.599 168.749 158.597 168.749 158.597 168.749C158.596 168.749 158.596 168.749 158.596 168.749C158.596 168.749 158.596 168.749 158.596 168.749C158.596 168.749 158.596 168.749 158.596 168.749C158.596 168.749 158.596 168.749 158.884 170.981C159.172 173.212 159.172 173.212 159.172 173.212C159.172 173.212 159.172 173.212 159.172 173.212C159.172 173.212 159.173 173.212 159.173 173.212C159.173 173.212 159.173 173.212 159.174 173.212C159.175 173.212 159.176 173.211 159.178 173.211C159.182 173.211 159.188 173.21 159.195 173.209C159.21 173.207 159.233 173.204 159.262 173.2C159.32 173.193 159.407 173.181 159.521 173.166C159.75 173.136 160.09 173.091 160.534 173.031C161.422 172.911 162.73 172.731 164.413 172.492L163.78 168.036ZM161.134 170.993L161.357 131.986L156.857 131.96L156.634 170.968L161.134 170.993ZM159.107 131.973C159.475 134.193 159.476 134.192 159.476 134.192C159.476 134.192 159.476 134.192 159.477 134.192C159.478 134.192 159.479 134.192 159.481 134.192C159.485 134.191 159.49 134.19 159.497 134.189C159.512 134.186 159.534 134.183 159.562 134.178C159.62 134.169 159.705 134.154 159.817 134.136C160.041 134.099 160.371 134.044 160.795 133.973C161.642 133.833 162.866 133.629 164.372 133.379C167.383 132.879 171.519 132.192 176.022 131.443C185.027 129.944 195.499 128.2 201.36 127.214L200.614 122.776C194.758 123.761 184.29 125.505 175.284 127.004C170.781 127.753 166.645 128.44 163.634 128.94C162.129 129.19 160.905 129.394 160.057 129.534C159.634 129.605 159.304 129.659 159.08 129.697C158.968 129.715 158.883 129.729 158.825 129.739C158.797 129.744 158.775 129.747 158.76 129.75C158.753 129.751 158.748 129.752 158.744 129.752C158.742 129.753 158.741 129.753 158.74 129.753C158.739 129.753 158.739 129.753 158.739 129.753C158.739 129.753 158.739 129.753 159.107 131.973ZM201.36 127.214C224.611 123.304 240.735 120.714 251.808 119.102C262.94 117.482 268.829 116.872 271.708 116.872V112.372C268.445 112.372 262.227 113.038 251.16 114.649C240.035 116.268 223.871 118.865 200.614 122.776L201.36 127.214ZM141.603 171.849C140.09 172.134 136.11 172.84 129.328 173.97L130.068 178.409C136.856 177.278 140.875 176.565 142.438 176.271L141.603 171.849ZM129.328 173.97C121.609 175.257 111.531 176.909 101.014 178.61L101.732 183.052C112.255 181.351 122.34 179.697 130.068 178.409L129.328 173.97ZM101.014 178.61C79.9708 182.012 57.1504 185.62 47.9379 186.957L48.5842 191.41C57.8386 190.067 80.6949 186.453 101.732 183.052L101.014 178.61ZM47.9379 186.957C40.4491 188.044 32.2322 188.934 29.0719 189.059L29.2493 193.556C32.6571 193.421 41.0674 192.501 48.5843 191.41L47.9379 186.957ZM29.0754 189.059L26.8613 189.143L27.0318 193.64L29.2459 193.556L29.0754 189.059ZM28.937 192.44C28.9889 192.342 29.0384 192.232 29.081 192.111C29.1242 191.988 29.1555 191.868 29.1772 191.75C29.1986 191.635 29.2077 191.539 29.2121 191.474C29.2142 191.443 29.2154 191.418 29.2159 191.405C29.2162 191.399 29.2164 191.394 29.2165 191.392C29.2166 191.389 29.2165 191.391 29.2164 191.393C29.2161 191.401 29.214 191.456 29.2061 191.527C29.1977 191.603 29.1833 191.694 29.1585 191.795C29.1338 191.895 29.1025 191.989 29.0667 192.077C29.0314 192.164 28.9943 192.238 28.9601 192.299L25.0361 190.096C24.9388 190.27 24.8486 190.477 24.7892 190.718C24.7301 190.957 24.7226 191.152 24.7203 191.206C24.7201 191.212 24.7199 191.217 24.7199 191.217C24.7198 191.219 24.7199 191.217 24.72 191.214C24.7202 191.208 24.721 191.19 24.7227 191.165C24.7262 191.114 24.7339 191.032 24.7525 190.931C24.7715 190.828 24.7989 190.723 24.8362 190.617C24.873 190.513 24.9146 190.421 24.9561 190.342L28.937 192.44ZM28.9604 192.299C29.3136 191.669 30.297 190.341 32.4689 188.115L29.2475 184.973C27.0043 187.272 25.6848 188.94 25.0358 190.097L28.9604 192.299ZM32.4689 188.115C36.8067 183.668 45.2171 176.172 60.7169 162.597L57.7521 159.212C42.3155 172.731 33.7397 180.367 29.2475 184.973L32.4689 188.115ZM60.7168 162.597L78.0033 147.46L75.0388 144.075L57.7523 159.212L60.7168 162.597ZM76.8893 147.987L107.861 142.849L107.124 138.409L76.1528 143.548L76.8893 147.987ZM107.861 142.849C125.005 140.003 139.543 137.556 142.432 137.019L141.609 132.595C138.776 133.121 124.298 135.559 107.124 138.409L107.861 142.849ZM270.981 169.019C270.981 169.016 270.98 169.022 270.975 169.044C270.971 169.064 270.966 169.087 270.959 169.118C270.946 169.173 270.928 169.255 270.912 169.331C270.906 169.36 270.866 169.544 270.85 169.733C270.846 169.778 270.833 169.936 270.851 170.134C270.859 170.223 270.883 170.45 270.983 170.72C271.06 170.927 271.36 171.651 272.22 172.014C273.188 172.422 273.998 172.032 274.3 171.841C274.606 171.648 274.789 171.427 274.851 171.35C274.996 171.17 275.081 171.007 275.102 170.966L271.116 168.878C271.13 168.851 271.209 168.697 271.349 168.524C271.409 168.449 271.59 168.231 271.894 168.038C272.193 167.849 273.002 167.46 273.969 167.867C274.828 168.23 275.127 168.952 275.203 169.157C275.302 169.425 275.326 169.648 275.333 169.734C275.35 169.925 275.337 170.072 275.335 170.104C275.323 170.24 275.3 170.33 275.317 170.249C275.324 170.216 275.334 170.171 275.348 170.108C275.359 170.062 275.378 169.977 275.392 169.908L270.981 169.019ZM271.114 168.881C270.877 169.336 270.285 170.191 268.374 172.157C266.492 174.094 263.46 176.981 258.502 181.49C248.594 190.501 231.12 205.87 200.067 232.825L203.017 236.223C234.066 209.273 251.578 193.87 261.53 184.82C266.501 180.298 269.618 177.334 271.601 175.293C273.554 173.283 274.544 172.036 275.104 170.963L271.114 168.881ZM200.067 232.825C182.832 247.785 165.843 262.558 162.243 265.722L165.214 269.102C168.8 265.949 185.776 251.189 203.017 236.223L200.067 232.825ZM162.256 265.711C161.263 266.57 160.346 267.536 159.558 268.356C158.73 269.219 158.063 269.9 157.441 270.393L160.235 273.92C161.139 273.204 162.018 272.291 162.804 271.473C163.631 270.612 164.397 269.81 165.201 269.113L162.256 265.711ZM161.088 272.184C161.158 266.473 161.187 258.18 161.199 251.321C161.205 247.891 161.206 244.816 161.206 242.6C161.206 241.491 161.205 240.597 161.205 239.98C161.205 239.672 161.205 239.432 161.204 239.27C161.204 239.189 161.204 239.127 161.204 239.086C161.204 239.065 161.204 239.049 161.204 239.039C161.204 239.034 161.204 239.03 161.204 239.027C161.204 239.026 161.204 239.025 161.204 239.024C161.204 239.024 161.204 239.023 161.204 239.023C161.204 239.023 161.204 239.023 158.954 239.025C156.704 239.028 156.704 239.028 156.704 239.028C156.704 239.028 156.704 239.029 156.704 239.029C156.704 239.03 156.704 239.031 156.704 239.032C156.704 239.034 156.704 239.038 156.704 239.044C156.704 239.054 156.704 239.07 156.704 239.09C156.704 239.132 156.704 239.193 156.704 239.274C156.705 239.436 156.705 239.675 156.705 239.983C156.705 240.599 156.706 241.492 156.706 242.6C156.706 244.815 156.705 247.886 156.699 251.314C156.687 258.172 156.658 266.444 156.588 272.129L161.088 272.184ZM160.488 240.672C173.027 228.989 185.714 217.445 197.237 207.392L194.279 204.001C182.708 214.096 169.982 225.675 157.42 237.379L160.488 240.672ZM197.237 207.392L232.946 176.253L229.988 172.862L194.279 204.001L197.237 207.392ZM231.83 176.778L238.55 175.681L237.824 171.239L231.105 172.337L231.83 176.778ZM238.549 175.681C249.817 173.842 257.86 172.742 263.399 172.155C266.169 171.861 268.293 171.698 269.868 171.635C271.486 171.569 272.4 171.614 272.821 171.684L273.552 167.243C272.651 167.095 271.35 167.071 269.686 167.138C267.979 167.207 265.751 167.38 262.925 167.68C257.269 168.279 249.135 169.394 237.825 171.239L238.549 175.681ZM198.461 178.987C185.345 190.531 171.387 202.517 157.431 214.456L160.356 217.875C174.313 205.935 188.292 193.932 201.434 182.365L198.461 178.987ZM161.143 216.189C161.195 211.283 161.237 203.925 161.266 197.798C161.281 194.734 161.292 191.976 161.3 189.984C161.304 188.988 161.307 188.183 161.309 187.628C161.31 187.35 161.31 187.135 161.311 186.988C161.311 186.915 161.311 186.86 161.312 186.822C161.312 186.804 161.312 186.789 161.312 186.78C161.312 186.775 161.312 186.772 161.312 186.769C161.312 186.768 161.312 186.767 161.312 186.766C161.312 186.766 161.312 186.766 161.312 186.766C161.312 186.766 161.312 186.766 159.062 186.758C156.812 186.751 156.812 186.751 156.812 186.751C156.812 186.751 156.812 186.751 156.812 186.752C156.812 186.752 156.812 186.753 156.812 186.754C156.812 186.757 156.812 186.76 156.812 186.765C156.812 186.774 156.812 186.788 156.812 186.807C156.811 186.844 156.811 186.9 156.811 186.973C156.81 187.119 156.81 187.334 156.809 187.612C156.807 188.167 156.804 188.971 156.8 189.966C156.792 191.957 156.781 194.714 156.766 197.777C156.737 203.904 156.695 211.25 156.643 216.142L161.143 216.189ZM159.409 188.981L173.674 186.753L172.98 182.307L158.714 184.535L159.409 188.981ZM173.697 186.749C191.956 183.711 195.999 183.315 200.163 182.916L199.733 178.436C195.426 178.849 191.271 179.263 172.958 182.31L173.697 186.749ZM157.81 186.046L157.804 186.104L162.283 186.545L162.288 186.487L157.81 186.046ZM162.264 186.691C162.273 186.635 162.278 186.589 162.281 186.558C162.285 186.525 162.287 186.497 162.288 186.476C162.291 186.435 162.292 186.402 162.293 186.382C162.294 186.361 162.294 186.343 162.294 186.33C162.294 186.317 162.294 186.306 162.294 186.298C162.294 186.282 162.293 186.268 162.293 186.262C162.293 186.255 162.293 186.248 162.293 186.247C162.293 186.244 162.293 186.246 162.293 186.248C162.293 186.251 162.293 186.26 162.293 186.273C162.293 186.279 162.293 186.288 162.293 186.299C162.293 186.31 162.293 186.326 162.292 186.345C162.292 186.363 162.291 186.392 162.289 186.428C162.287 186.446 162.286 186.47 162.283 186.498C162.28 186.525 162.276 186.563 162.269 186.608L157.818 185.95C157.814 185.973 157.812 185.994 157.809 186.012C157.807 186.03 157.806 186.047 157.804 186.061C157.801 186.09 157.799 186.114 157.798 186.133C157.797 186.153 157.796 186.17 157.795 186.183C157.795 186.197 157.794 186.21 157.794 186.22C157.794 186.241 157.793 186.258 157.793 186.271C157.793 186.284 157.793 186.295 157.793 186.303C157.793 186.312 157.793 186.32 157.794 186.326C157.794 186.332 157.794 186.337 157.794 186.341C157.794 186.345 157.794 186.349 157.794 186.351C157.794 186.354 157.794 186.356 157.794 186.357C157.794 186.358 157.794 186.358 157.794 186.359C157.794 186.359 157.794 186.359 157.794 186.359C157.794 186.359 157.794 186.359 157.794 186.359C157.794 186.358 157.794 186.358 157.794 186.357C157.794 186.355 157.794 186.352 157.794 186.349C157.794 186.345 157.794 186.34 157.794 186.334C157.794 186.327 157.794 186.318 157.794 186.307C157.794 186.301 157.794 186.294 157.794 186.287C157.794 186.279 157.794 186.27 157.795 186.259C157.795 186.249 157.795 186.237 157.796 186.222C157.797 186.208 157.797 186.19 157.799 186.169C157.8 186.159 157.801 186.147 157.802 186.134C157.803 186.121 157.804 186.106 157.806 186.089C157.808 186.073 157.81 186.054 157.813 186.033C157.815 186.011 157.819 185.986 157.824 185.958L162.264 186.691ZM159.931 184.032C159.2 184.069 158.562 184.121 158.056 184.178C157.623 184.227 157.102 184.299 156.725 184.417C156.676 184.433 156.331 184.534 155.989 184.787C155.86 184.882 155.28 185.318 155.11 186.169C154.886 187.29 155.526 188.06 155.897 188.363C156.224 188.631 156.544 188.739 156.649 188.773C156.794 188.82 156.918 188.845 156.994 188.859C157.149 188.886 157.292 188.898 157.39 188.904C157.772 188.928 158.333 188.914 159.029 188.876L158.78 184.382C158.097 184.42 157.764 184.419 157.668 184.413C157.647 184.411 157.696 184.413 157.782 184.428C157.825 184.436 157.921 184.454 158.044 184.495C158.126 184.521 158.431 184.622 158.747 184.881C159.108 185.176 159.745 185.938 159.523 187.05C159.355 187.892 158.781 188.318 158.666 188.404C158.474 188.545 158.307 188.62 158.245 188.647C158.166 188.681 158.105 188.701 158.077 188.71C157.983 188.739 158.092 188.703 158.563 188.65C158.961 188.604 159.503 188.559 160.156 188.526L159.931 184.032ZM159.585 188.774L160.729 188.411L159.369 184.121L158.225 184.484L159.585 188.774ZM3 199.582C0.810212 200.099 0.810559 200.1 0.810919 200.102C0.811054 200.102 0.811426 200.104 0.811697 200.105C0.812241 200.107 0.812832 200.11 0.813472 200.112C0.814751 200.118 0.816227 200.124 0.817903 200.13C0.821255 200.144 0.825412 200.16 0.830419 200.18C0.840432 200.219 0.853855 200.269 0.871052 200.329C0.905434 200.451 0.954991 200.615 1.02268 200.817C1.1579 201.218 1.36641 201.77 1.67232 202.42C2.28316 203.717 3.29106 205.428 4.89459 207.128C8.15806 210.589 13.6953 213.802 22.7413 213.713L22.697 209.213C14.8684 209.29 10.546 206.562 8.16858 204.041C6.95165 202.75 6.19376 201.459 5.74392 200.503C5.5195 200.026 5.37394 199.638 5.28769 199.381C5.24464 199.253 5.2166 199.159 5.20108 199.104C5.19332 199.077 5.18871 199.059 5.18693 199.053C5.18604 199.049 5.18586 199.048 5.18635 199.05C5.18659 199.051 5.18701 199.053 5.18758 199.055C5.18787 199.057 5.1882 199.058 5.18856 199.059C5.18875 199.06 5.18906 199.062 5.18915 199.062C5.18946 199.063 5.18979 199.065 3 199.582ZM22.7412 213.713C30.0506 213.641 36.1765 213.238 40.4812 212.852C42.634 212.659 44.3326 212.47 45.4973 212.329C46.0798 212.258 46.5288 212.199 46.8346 212.158C46.9875 212.137 47.1045 212.121 47.1846 212.109C47.2246 212.104 47.2553 212.099 47.2766 212.096C47.2873 212.095 47.2956 212.093 47.3015 212.093C47.3045 212.092 47.3069 212.092 47.3086 212.092C47.3095 212.091 47.3103 212.091 47.3109 212.091C47.3112 212.091 47.3115 212.091 47.3116 212.091C47.3119 212.091 47.3122 212.091 46.9811 209.865C46.65 207.64 46.6502 207.64 46.6504 207.64C46.6504 207.64 46.6505 207.64 46.6505 207.64C46.6505 207.64 46.6503 207.64 46.65 207.64C46.6494 207.64 46.6482 207.64 46.6464 207.641C46.6428 207.641 46.6369 207.642 46.6286 207.643C46.612 207.646 46.5861 207.649 46.5509 207.654C46.4806 207.664 46.3733 207.679 46.2305 207.699C45.9447 207.737 45.5165 207.793 44.9556 207.861C43.8338 207.997 42.182 208.181 40.0793 208.37C35.8731 208.747 29.868 209.143 22.697 209.213L22.7412 213.713ZM56.5848 210.595C60.0793 210.096 61.8266 209.846 62.7002 209.722C63.137 209.659 63.3554 209.628 63.4647 209.612C63.5193 209.605 63.5466 209.601 63.5603 209.599C63.5671 209.598 63.5706 209.597 63.5723 209.597C63.5732 209.597 63.5737 209.597 63.574 209.597C63.5742 209.597 63.5744 209.597 63.5747 209.597C63.5748 209.597 63.5751 209.597 63.5756 209.596C63.5758 209.596 63.5765 209.596 63.5774 209.596C63.5784 209.596 63.5802 209.596 63.5811 209.596C65.4184 207.99 64.7118 205.654 63.2556 207.369C61.7995 209.085 61.0929 206.749 62.9302 205.143C62.9311 205.143 62.9329 205.143 62.9338 205.143C62.9348 205.142 62.9355 205.142 62.9356 205.142C62.9361 205.142 62.9365 205.142 62.9365 205.142C62.9367 205.142 62.9369 205.142 62.9368 205.142C62.9367 205.142 62.9363 205.142 62.9355 205.142C62.9339 205.142 62.9305 205.143 62.9237 205.144C62.9101 205.146 62.8828 205.15 62.8282 205.158C62.719 205.173 62.5006 205.204 62.0638 205.267C61.1902 205.392 59.4429 205.641 55.9484 206.14L56.5848 210.595ZM159.062 5.87571C160.494 4.14052 160.493 4.13956 160.492 4.13857C160.491 4.1382 160.49 4.13718 160.489 4.13644C160.487 4.13495 160.485 4.13335 160.483 4.13163C160.479 4.12818 160.474 4.12425 160.469 4.11987C160.458 4.11109 160.444 4.10045 160.429 4.08806C160.397 4.06328 160.356 4.03145 160.306 3.99341C160.205 3.91736 160.066 3.81629 159.891 3.69692C159.54 3.45843 159.041 3.14527 158.405 2.81222C157.134 2.1472 155.297 1.39361 152.992 1.00762C148.3 0.222052 141.947 1.00812 134.793 6.54522L137.547 10.1038C143.738 5.31188 148.831 4.87354 152.249 5.44583C153.998 5.73877 155.382 6.30967 156.318 6.79941C156.785 7.04374 157.136 7.26553 157.36 7.41764C157.471 7.49357 157.551 7.55171 157.596 7.58606C157.619 7.60321 157.633 7.61437 157.639 7.61878C157.642 7.62098 157.642 7.62149 157.641 7.62021C157.64 7.61957 157.638 7.61848 157.637 7.61694C157.636 7.61616 157.635 7.61527 157.633 7.61427C157.633 7.61376 157.632 7.61292 157.631 7.61267C157.63 7.6118 157.629 7.6109 159.062 5.87571ZM134.793 6.54522C129.012 11.0193 124.375 15.0422 121.178 17.951C119.58 19.4056 118.341 20.5825 117.498 21.3989C117.076 21.8071 116.754 22.1252 116.536 22.343C116.426 22.4519 116.343 22.5357 116.286 22.5931C116.258 22.6218 116.236 22.6439 116.221 22.6593C116.213 22.6669 116.207 22.6729 116.203 22.6772C116.201 22.6793 116.199 22.6811 116.198 22.6823C116.197 22.683 116.197 22.6835 116.196 22.6839C116.196 22.6842 116.196 22.6844 116.196 22.6845C116.196 22.6847 116.195 22.6849 117.804 24.2581C119.413 25.8313 119.412 25.8314 119.412 25.8315C119.412 25.8315 119.412 25.8316 119.412 25.8316C119.412 25.8316 119.412 25.8315 119.413 25.8313C119.413 25.8308 119.414 25.83 119.415 25.8287C119.418 25.8261 119.422 25.8218 119.428 25.8158C119.44 25.8039 119.458 25.7852 119.483 25.76C119.533 25.7095 119.609 25.6327 119.711 25.531C119.916 25.3275 120.223 25.0241 120.629 24.631C121.44 23.8447 122.646 22.7001 124.207 21.2793C127.331 18.4371 131.876 14.4932 137.547 10.1038L134.793 6.54522ZM109.711 29.4798C107.228 31.9892 105.987 33.2439 105.366 33.8713C105.056 34.185 104.901 34.3418 104.823 34.4202C104.784 34.4594 104.765 34.479 104.755 34.4888C104.751 34.4937 104.748 34.4961 104.747 34.4973C104.746 34.4979 104.746 34.4982 104.746 34.4983C104.746 34.4984 104.746 34.4983 104.746 34.4982C104.746 34.4982 104.746 34.4981 104.746 34.4979C104.746 34.4978 104.747 34.4975 104.747 34.4971C104.747 34.4968 104.748 34.496 104.749 34.4957C105.57 33.9688 106.537 33.8393 106.345 36.0811C106.153 38.3229 107.12 38.1934 107.942 37.6665C107.942 37.6661 107.943 37.6654 107.943 37.665C107.944 37.6646 107.944 37.6643 107.944 37.6643C107.944 37.6641 107.944 37.6639 107.944 37.6639C107.944 37.6638 107.944 37.6637 107.945 37.6636C107.945 37.6634 107.945 37.663 107.946 37.6624C107.947 37.6612 107.949 37.6587 107.954 37.6538C107.964 37.644 107.983 37.6244 108.022 37.5851C108.1 37.5067 108.255 37.3499 108.565 37.0362C109.186 36.4089 110.427 35.1542 112.91 32.6448L109.711 29.4798ZM159.819 300.138L204.579 262.437L201.68 258.995L156.92 296.696L159.819 300.138ZM184.466 287.07L203.316 271.044L200.402 267.615L181.551 283.641L184.466 287.07ZM207.696 267.602L213.98 262.131L211.024 258.737L204.741 264.209L207.696 267.602ZM139.77 134.807V174.06H144.27V134.807H139.77Z" fill="#63358D"/>
</svg>
