<svg width="176" height="144" viewBox="0 0 176 144" fill="none" xmlns="http://www.w3.org/2000/svg">
<g filter="url(#filter0_di_593_7535)">
<path d="M99.1357 69.9955L124.852 38.8433C127.879 35.1768 127.725 30.0517 124.508 27.3966L123.525 26.5847C120.308 23.9291 115.246 24.749 112.22 28.4155L109.768 31.385C109.514 30.7557 109.12 30.189 108.577 29.7403L108.071 29.3231C106.118 27.7105 103.044 28.2079 101.206 30.4347L94.8249 38.1644C94.4633 37.9101 94.0953 37.67 93.7212 37.4428L95.5259 35.2566C96.792 33.7227 96.7278 31.5785 95.382 30.4678L95.2025 30.3194C93.8566 29.2087 91.739 29.5512 90.4729 31.0851L87.2968 34.9321C86.0227 34.6709 84.7215 34.527 83.4067 34.4984L87.862 29.1014C89.7002 26.8746 89.6064 23.7627 87.6528 22.15L87.1474 21.7328C85.1938 20.1202 82.12 20.6182 80.2822 22.8445L63.1663 43.5789C62.8017 44.0201 62.5169 44.497 62.3038 44.9894C53.7959 55.7658 54.3731 70.538 63.7158 78.2506C73.2045 86.0835 88.1337 83.6661 97.0618 72.8512C97.823 71.929 98.5109 70.9733 99.1357 69.9955Z" fill="white"/>
<path d="M101.631 25.9922C103.441 25.9922 104.909 24.5249 104.909 22.7148C104.909 20.9048 103.441 19.4374 101.631 19.4374C99.8212 19.4374 98.3538 20.9048 98.3538 22.7148C98.3538 24.5249 99.8212 25.9922 101.631 25.9922Z" fill="white"/>
<path d="M113.488 12.1877C111.647 14.4172 111.928 17.6874 114.114 19.492C116.3 21.2966 119.564 20.9522 121.405 18.7227C123.245 16.4932 122.965 13.2229 120.778 11.4183C118.592 9.61373 115.328 9.95819 113.488 12.1877Z" fill="white"/>
</g>
<g filter="url(#filter1_di_593_7535)">
<path d="M79.2611 25.5586C80.4693 25.4087 81.9273 25.7484 82.5963 27.19C82.7015 27.4167 82.7414 27.6711 82.7611 27.8201C82.7848 27.9999 82.7977 28.1892 82.805 28.3515C82.8124 28.5166 82.8148 28.6688 82.8154 28.7789C82.8156 28.8344 82.8155 28.8801 82.8152 28.9125C82.8151 28.9271 82.815 28.9391 82.8149 28.9481L82.8555 61.2282L114.248 56.7446L114.262 56.7425L114.275 56.741L114.39 57.7373C114.28 56.7829 114.275 56.7427 114.275 56.741H114.276L114.276 56.7408C114.277 56.7408 114.277 56.7409 114.277 56.7408C114.278 56.7407 114.28 56.7405 114.281 56.7403C114.285 56.7399 114.289 56.7394 114.295 56.7388C114.306 56.7375 114.323 56.7357 114.343 56.7335C114.385 56.7291 114.443 56.7231 114.514 56.7163C114.656 56.7028 114.852 56.6858 115.062 56.6727C115.27 56.6598 115.506 56.6497 115.725 56.652C115.911 56.6539 116.197 56.664 116.444 56.7367C117.963 57.1846 118.474 58.5492 118.456 59.7473C118.438 60.9268 117.941 62.2044 117.155 63.11L87.2384 97.5647C86.4873 98.43 85.4262 99.1162 84.3376 99.29C83.7809 99.3789 83.1773 99.3382 82.6164 99.0666C82.0443 98.7895 81.602 98.313 81.3168 97.6842C81.2518 97.5409 81.219 97.3757 81.2085 97.3256C81.1892 97.2334 81.1697 97.1248 81.151 97.0127C81.1133 96.7867 81.0727 96.5109 81.0361 96.2486C80.9993 95.9849 80.9654 95.7281 80.9408 95.5378C80.9284 95.4426 80.9183 95.3636 80.9113 95.3084C80.9078 95.2807 80.9052 95.2589 80.9033 95.244C80.9024 95.2366 80.9016 95.2309 80.9011 95.227C80.9009 95.225 80.9007 95.2234 80.9006 95.2224C80.9005 95.2219 80.9005 95.2215 80.9004 95.2212V95.2209L80.8928 95.1599V95.0985L80.8528 63.5403L48.7266 68.1289L48.7072 68.1318L48.6877 68.1337L48.6874 68.1339H48.6859C48.6851 68.134 48.6839 68.1341 48.6826 68.1342C48.6799 68.1345 48.6761 68.135 48.6714 68.1354C48.6621 68.1363 48.6489 68.1376 48.6324 68.1392C48.5994 68.1423 48.5525 68.1465 48.4957 68.1512C48.3828 68.1606 48.2266 68.1721 48.0569 68.1802C47.8895 68.1882 47.6966 68.1933 47.5134 68.1884C47.3562 68.1841 47.112 68.1713 46.8911 68.1063L46.8908 68.1061C45.4013 67.6671 44.8329 66.3385 44.8009 65.1362C44.7693 63.9512 45.221 62.6543 46.0228 61.7307L46.0235 61.7298L75.9943 27.2747C76.801 26.3462 78.058 25.7079 79.2611 25.5586Z" fill="url(#paint0_linear_593_7535)"/>
<path d="M114.275 56.741L114.262 56.7425L114.248 56.7446L82.8555 61.2282L82.8149 28.9481C82.815 28.9391 82.8151 28.9271 82.8152 28.9125C82.8155 28.8801 82.8156 28.8344 82.8154 28.7789C82.8148 28.6688 82.8124 28.5166 82.805 28.3515C82.7977 28.1892 82.7848 27.9999 82.7611 27.8201C82.7414 27.6711 82.7015 27.4167 82.5963 27.19C81.9273 25.7484 80.4693 25.4087 79.2611 25.5586C78.058 25.7079 76.801 26.3462 75.9943 27.2747L46.0235 61.7298L46.0228 61.7307C45.221 62.6543 44.7693 63.9512 44.8009 65.1362C44.8329 66.3385 45.4013 67.6671 46.8908 68.1061L46.8911 68.1063C47.112 68.1713 47.3562 68.1841 47.5134 68.1884C47.6966 68.1933 47.8895 68.1882 48.0569 68.1802C48.2266 68.1721 48.3828 68.1606 48.4957 68.1512C48.5525 68.1465 48.5994 68.1423 48.6324 68.1392C48.6489 68.1376 48.6621 68.1363 48.6714 68.1354C48.6761 68.135 48.6799 68.1345 48.6826 68.1342C48.6839 68.1341 48.6851 68.134 48.6859 68.1339H48.6874L48.6877 68.1337M114.275 56.741L114.39 57.7373C114.28 56.7829 114.275 56.7427 114.275 56.741ZM114.275 56.741H114.276L114.276 56.7408C114.277 56.7408 114.277 56.7409 114.277 56.7408C114.278 56.7407 114.28 56.7405 114.281 56.7403C114.285 56.7399 114.289 56.7394 114.295 56.7388C114.306 56.7375 114.323 56.7357 114.343 56.7335C114.385 56.7291 114.443 56.7231 114.514 56.7163C114.656 56.7028 114.852 56.6858 115.062 56.6727C115.27 56.6598 115.506 56.6497 115.725 56.652C115.911 56.6539 116.197 56.664 116.444 56.7367C117.963 57.1846 118.474 58.5492 118.456 59.7473C118.438 60.9268 117.941 62.2044 117.155 63.11L87.2384 97.5647C86.4873 98.43 85.4262 99.1162 84.3376 99.29C83.7809 99.3789 83.1773 99.3382 82.6164 99.0666C82.0443 98.7895 81.602 98.313 81.3168 97.6842C81.2518 97.5409 81.219 97.3757 81.2085 97.3256C81.1892 97.2334 81.1697 97.1248 81.151 97.0127C81.1133 96.7867 81.0727 96.5109 81.0361 96.2486C80.9993 95.9849 80.9654 95.7281 80.9408 95.5378C80.9284 95.4426 80.9183 95.3636 80.9113 95.3084C80.9078 95.2807 80.9052 95.2589 80.9033 95.244C80.9024 95.2366 80.9016 95.2309 80.9011 95.227C80.9009 95.225 80.9007 95.2234 80.9006 95.2224C80.9005 95.2219 80.9005 95.2215 80.9004 95.2212V95.2209M80.9004 95.2209L81.8955 95.0973M80.9004 95.2209L80.8928 95.1599V95.0985L80.8528 63.5403L48.7266 68.1289L48.7072 68.1318L48.6877 68.1337M48.6877 68.1337L48.5848 67.1362" stroke="#9638FF" stroke-width="0.174301" stroke-miterlimit="10"/>
</g>
<g filter="url(#filter2_dii_593_7535)">
<path d="M79.2611 16.0313C80.4693 15.8814 81.9273 16.2211 82.5963 17.6626C82.7015 17.8893 82.7414 18.1437 82.7611 18.2928C82.7848 18.4726 82.7977 18.6618 82.805 18.8242C82.8124 18.9892 82.8148 19.1415 82.8154 19.2516C82.8156 19.307 82.8155 19.3527 82.8152 19.3852C82.8151 19.3998 82.815 19.4118 82.8149 19.4208L82.8555 51.7009L114.248 47.2172L114.262 47.2152L114.275 47.2136L114.39 48.2099C114.279 47.2495 114.275 47.2149 114.275 47.2136H114.276L114.276 47.2135C114.276 47.2135 114.277 47.2135 114.277 47.2135C114.278 47.2134 114.28 47.2131 114.281 47.213C114.285 47.2126 114.289 47.2121 114.295 47.2114C114.306 47.2102 114.323 47.2083 114.343 47.2062C114.385 47.2018 114.443 47.1958 114.514 47.189C114.656 47.1754 114.852 47.1585 115.062 47.1454C115.27 47.1324 115.506 47.1223 115.725 47.1246C115.911 47.1266 116.197 47.1366 116.444 47.2094C117.963 47.6573 118.474 49.0219 118.456 50.22C118.438 51.3995 117.941 52.677 117.155 53.5826L87.2384 88.0374C86.4873 88.9027 85.4262 89.5888 84.3376 89.7627C83.7809 89.8516 83.1773 89.8108 82.6164 89.5392C82.0443 89.2622 81.602 88.7857 81.3168 88.1569C81.2518 88.0136 81.219 87.8483 81.2085 87.7982C81.1892 87.706 81.1697 87.5975 81.151 87.4854C81.1133 87.2594 81.0727 86.9835 81.0361 86.7213C80.9993 86.4576 80.9654 86.2008 80.9408 86.0105C80.9284 85.9152 80.9183 85.8363 80.9113 85.781C80.9078 85.7534 80.9052 85.7316 80.9033 85.7167C80.9024 85.7093 80.9016 85.7036 80.9011 85.6996C80.9009 85.6977 80.9007 85.6961 80.9006 85.6951C80.9005 85.6946 80.9005 85.6941 80.9004 85.6939V85.6935L80.8928 85.6326V85.5711L80.8528 54.0129L48.7266 58.6016L48.7071 58.6045L48.6877 58.6064L48.6874 58.6065H48.6859C48.685 58.6066 48.6839 58.6067 48.6826 58.6069C48.6799 58.6072 48.6761 58.6076 48.6714 58.6081C48.6621 58.609 48.6489 58.6103 48.6324 58.6118C48.5994 58.6149 48.5525 58.6192 48.4957 58.6239C48.3828 58.6333 48.2266 58.6448 48.0569 58.6528C47.8895 58.6608 47.6966 58.666 47.5134 58.661C47.3562 58.6568 47.112 58.6439 46.8911 58.579L46.8908 58.5788C45.4013 58.1398 44.8329 56.8111 44.8009 55.6089C44.7693 54.4239 45.2211 53.127 46.0228 52.2034L46.0235 52.2025L75.9943 17.7474C76.801 16.8189 78.058 16.1805 79.2611 16.0313Z" fill="url(#paint1_linear_593_7535)"/>
<path d="M114.275 47.2136L114.262 47.2152L114.248 47.2172L82.8555 51.7009L82.8149 19.4208C82.815 19.4118 82.8151 19.3998 82.8152 19.3852C82.8155 19.3527 82.8156 19.307 82.8154 19.2516C82.8148 19.1415 82.8124 18.9892 82.805 18.8242C82.7977 18.6618 82.7848 18.4726 82.7611 18.2928C82.7414 18.1437 82.7015 17.8893 82.5963 17.6626C81.9273 16.2211 80.4693 15.8814 79.2611 16.0313C78.058 16.1805 76.801 16.8189 75.9943 17.7474L46.0235 52.2025L46.0228 52.2034C45.2211 53.127 44.7693 54.4239 44.8009 55.6089C44.8329 56.8111 45.4013 58.1398 46.8908 58.5788L46.8911 58.579C47.112 58.6439 47.3562 58.6568 47.5134 58.661C47.6966 58.666 47.8895 58.6608 48.0569 58.6528C48.2266 58.6448 48.3828 58.6333 48.4957 58.6239C48.5525 58.6192 48.5994 58.6149 48.6324 58.6118C48.6489 58.6103 48.6621 58.609 48.6714 58.6081C48.6761 58.6076 48.6799 58.6072 48.6826 58.6069C48.6839 58.6067 48.685 58.6066 48.6859 58.6065H48.6874L48.6877 58.6064M114.275 47.2136L114.39 48.2099C114.279 47.2495 114.275 47.2149 114.275 47.2136ZM114.275 47.2136H114.276L114.276 47.2135C114.276 47.2135 114.277 47.2135 114.277 47.2135C114.278 47.2134 114.28 47.2131 114.281 47.213C114.285 47.2126 114.289 47.2121 114.295 47.2114C114.306 47.2102 114.323 47.2083 114.343 47.2062C114.385 47.2018 114.443 47.1958 114.514 47.189C114.656 47.1754 114.852 47.1585 115.062 47.1454C115.27 47.1324 115.506 47.1223 115.725 47.1246C115.911 47.1266 116.197 47.1366 116.444 47.2094C117.963 47.6573 118.474 49.0219 118.456 50.22C118.438 51.3995 117.941 52.677 117.155 53.5826L87.2384 88.0374C86.4873 88.9027 85.4262 89.5888 84.3376 89.7627C83.7809 89.8516 83.1773 89.8108 82.6164 89.5392C82.0443 89.2622 81.602 88.7857 81.3168 88.1569C81.2518 88.0136 81.219 87.8483 81.2085 87.7982C81.1892 87.706 81.1697 87.5975 81.151 87.4854C81.1133 87.2594 81.0727 86.9835 81.0361 86.7213C80.9993 86.4576 80.9654 86.2008 80.9408 86.0105C80.9284 85.9152 80.9183 85.8363 80.9113 85.781C80.9078 85.7534 80.9052 85.7316 80.9033 85.7167C80.9024 85.7093 80.9016 85.7036 80.9011 85.6996C80.9009 85.6977 80.9007 85.6961 80.9006 85.6951C80.9005 85.6946 80.9005 85.6941 80.9004 85.6939V85.6935M80.9004 85.6935L81.8955 85.5699M80.9004 85.6935L80.8928 85.6326V85.5711L80.8528 54.0129L48.7266 58.6016L48.7071 58.6045L48.6877 58.6064M48.6877 58.6064L48.5848 57.6089" stroke="#D0ACFF" stroke-width="0.174301" stroke-miterlimit="10"/>
</g>
<path d="M52.2637 119.192C51.056 119.192 50.0921 118.923 49.3721 118.386C48.6566 117.848 48.235 117.082 48.1074 116.089C48.0937 115.966 48.1507 115.904 48.2783 115.904H50.2334C50.32 115.904 50.3769 115.948 50.4043 116.034C50.4954 116.517 50.6891 116.873 50.9853 117.101C51.2861 117.328 51.7031 117.442 52.2363 117.442C52.6966 117.442 53.0566 117.342 53.3164 117.142C53.5762 116.941 53.706 116.663 53.706 116.308C53.706 115.993 53.6058 115.756 53.4053 115.597C53.2093 115.433 52.8766 115.312 52.4072 115.234L51.2588 115.036C50.2471 114.877 49.4951 114.56 49.0029 114.086C48.5107 113.607 48.2646 112.958 48.2646 112.138C48.2646 111.208 48.5859 110.481 49.2285 109.957C49.8756 109.433 50.7757 109.171 51.9287 109.171C53.0452 109.171 53.9453 109.426 54.6289 109.936C55.3125 110.447 55.7249 111.167 55.8662 112.097C55.8708 112.151 55.8571 112.197 55.8252 112.233C55.7978 112.265 55.7591 112.281 55.709 112.281H53.7471C53.6514 112.281 53.5921 112.224 53.5693 112.11C53.4782 111.7 53.3027 111.399 53.043 111.208C52.7832 111.017 52.4255 110.921 51.9697 110.921C51.5277 110.921 51.1904 111.012 50.958 111.194C50.7301 111.377 50.6162 111.641 50.6162 111.987C50.6162 112.302 50.7256 112.55 50.9443 112.732C51.1631 112.915 51.5049 113.049 51.9697 113.136L53.1318 113.313C54.18 113.482 54.9297 113.79 55.3809 114.236C55.832 114.683 56.0576 115.341 56.0576 116.212C56.0576 117.132 55.7181 117.859 55.0391 118.393C54.36 118.926 53.4349 119.192 52.2637 119.192ZM60.9385 119.192C59.749 119.192 58.8057 118.86 58.1084 118.194C57.4157 117.529 57.0693 116.627 57.0693 115.487C57.0693 114.352 57.418 113.45 58.1152 112.78C58.8125 112.11 59.749 111.775 60.9248 111.775C62.0778 111.775 62.9756 112.101 63.6182 112.753C64.2653 113.405 64.5889 114.311 64.5889 115.474V115.863C64.5889 115.963 64.5342 116.014 64.4248 116.014H59.3936C59.43 116.538 59.5827 116.941 59.8516 117.224C60.125 117.502 60.501 117.641 60.9795 117.641C61.7041 117.641 62.1507 117.379 62.3193 116.854C62.3512 116.763 62.4128 116.718 62.5039 116.718H64.3975C64.4521 116.718 64.4932 116.729 64.5205 116.752C64.5524 116.77 64.5661 116.8 64.5615 116.841C64.4385 117.57 64.0602 118.144 63.4268 118.563C62.7978 118.983 61.9684 119.192 60.9385 119.192ZM59.3936 114.886H62.3809C62.3535 114.389 62.2168 114.006 61.9707 113.737C61.7292 113.464 61.3942 113.327 60.9658 113.327C60.4964 113.327 60.1273 113.462 59.8584 113.73C59.5895 113.999 59.4346 114.384 59.3936 114.886ZM66.0449 119.083C65.931 119.083 65.874 119.026 65.874 118.912V112.056C65.874 111.942 65.931 111.885 66.0449 111.885H67.8769C67.9863 111.885 68.041 111.942 68.041 112.056V112.91H68.1025C68.5947 112.163 69.3216 111.789 70.2832 111.789C71.2676 111.789 71.958 112.163 72.3545 112.91H72.4228C73.0107 112.163 73.8333 111.789 74.8906 111.789C75.7064 111.789 76.3239 112.053 76.7432 112.582C77.167 113.106 77.3789 113.883 77.3789 114.913V118.912C77.3789 119.026 77.3242 119.083 77.2148 119.083H75.2666C75.1572 119.083 75.1025 119.026 75.1025 118.912V114.913C75.1025 114.425 75.0068 114.065 74.8154 113.833C74.624 113.601 74.3278 113.484 73.9268 113.484C73.152 113.484 72.7646 113.961 72.7646 114.913V118.912C72.7646 119.026 72.7077 119.083 72.5937 119.083H70.6455C70.5361 119.083 70.4814 119.026 70.4814 118.912V114.913C70.4814 114.425 70.388 114.065 70.2012 113.833C70.0143 113.601 69.7204 113.484 69.3193 113.484C68.9183 113.484 68.6221 113.603 68.4307 113.84C68.2393 114.072 68.1436 114.43 68.1436 114.913V118.912C68.1436 119.026 68.0911 119.083 67.9863 119.083H66.0449ZM81.5215 119.192C80.5872 119.192 79.8512 118.862 79.3135 118.201C78.7757 117.54 78.5068 116.636 78.5068 115.487C78.5068 114.321 78.7712 113.411 79.2998 112.76C79.8284 112.103 80.569 111.775 81.5215 111.775C81.9681 111.775 82.3851 111.878 82.7725 112.083C83.1598 112.283 83.4697 112.559 83.7021 112.91H83.7773V112.056C83.7773 111.942 83.832 111.885 83.9414 111.885H85.8896C85.999 111.885 86.0537 111.942 86.0537 112.056V117.518H86.7168C86.8171 117.518 86.8672 117.572 86.8672 117.682V118.912C86.8672 119.026 86.8171 119.083 86.7168 119.083H85.0078C84.2604 119.083 83.8867 118.771 83.8867 118.146V118.078H83.8184C83.6087 118.42 83.2965 118.691 82.8818 118.892C82.4671 119.092 82.0137 119.192 81.5215 119.192ZM80.8174 115.487C80.8174 116.143 80.9518 116.649 81.2207 117.005C81.4941 117.356 81.8747 117.531 82.3623 117.531C82.8454 117.531 83.2145 117.356 83.4697 117.005C83.7295 116.654 83.8594 116.148 83.8594 115.487C83.8594 114.84 83.7272 114.339 83.4629 113.983C83.2031 113.623 82.8363 113.443 82.3623 113.443C81.8792 113.443 81.501 113.623 81.2275 113.983C80.9541 114.339 80.8174 114.84 80.8174 115.487ZM88.1523 119.083C88.0384 119.083 87.9814 119.026 87.9814 118.912V112.056C87.9814 111.942 88.0384 111.885 88.1523 111.885H89.9844C90.0937 111.885 90.1484 111.942 90.1484 112.056V112.91H90.21C90.7249 112.154 91.47 111.775 92.4453 111.775C93.2838 111.775 93.9173 112.042 94.3457 112.575C94.7786 113.108 94.9951 113.901 94.9951 114.954V118.912C94.9951 119.026 94.9381 119.083 94.8242 119.083H92.8828C92.7689 119.083 92.7119 119.026 92.7119 118.912V114.954C92.7119 114.448 92.6139 114.074 92.418 113.833C92.222 113.591 91.9144 113.471 91.4951 113.471C91.0758 113.471 90.7637 113.594 90.5586 113.84C90.3535 114.081 90.251 114.453 90.251 114.954V118.912C90.251 119.026 90.1986 119.083 90.0937 119.083H88.1523ZM99.1582 119.192C98.224 119.192 97.488 118.862 96.9502 118.201C96.4124 117.54 96.1436 116.636 96.1436 115.487C96.1436 114.321 96.4079 113.411 96.9365 112.76C97.4652 112.103 98.2057 111.775 99.1582 111.775C99.6048 111.775 100.022 111.878 100.409 112.083C100.797 112.283 101.107 112.559 101.339 112.91H101.414V112.056C101.414 111.942 101.469 111.885 101.578 111.885H103.527C103.636 111.885 103.691 111.942 103.691 112.056V117.518H104.354C104.454 117.518 104.504 117.572 104.504 117.682V118.912C104.504 119.026 104.454 119.083 104.354 119.083H102.645C101.897 119.083 101.524 118.771 101.524 118.146V118.078H101.455C101.246 118.42 100.933 118.691 100.519 118.892C100.104 119.092 99.6504 119.192 99.1582 119.192ZM98.4541 115.487C98.4541 116.143 98.5885 116.649 98.8574 117.005C99.1309 117.356 99.5114 117.531 99.999 117.531C100.482 117.531 100.851 117.356 101.107 117.005C101.366 116.654 101.496 116.148 101.496 115.487C101.496 114.84 101.364 114.339 101.1 113.983C100.84 113.623 100.473 113.443 99.999 113.443C99.5159 113.443 99.1377 113.623 98.8643 113.983C98.5908 114.339 98.4541 114.84 98.4541 115.487ZM111.504 119.192C110.574 119.192 109.838 118.862 109.296 118.201C108.758 117.54 108.489 116.636 108.489 115.487C108.489 114.325 108.756 113.416 109.289 112.76C109.822 112.103 110.561 111.775 111.504 111.775C111.955 111.775 112.375 111.878 112.762 112.083C113.154 112.283 113.466 112.559 113.698 112.91H113.774V109.171C113.774 109.057 113.824 109 113.924 109H115.872C115.982 109 116.036 109.057 116.036 109.171V118.912C116.036 119.026 115.982 119.083 115.872 119.083H114.033C113.924 119.083 113.869 119.026 113.869 118.912V118.078H113.815C113.6 118.42 113.286 118.691 112.871 118.892C112.457 119.092 112.001 119.192 111.504 119.192ZM110.814 115.487C110.814 116.143 110.948 116.649 111.217 117.005C111.486 117.356 111.866 117.531 112.359 117.531C112.837 117.531 113.206 117.356 113.466 117.005C113.726 116.649 113.856 116.143 113.856 115.487C113.856 114.84 113.724 114.339 113.459 113.983C113.199 113.623 112.833 113.443 112.359 113.443C111.871 113.443 111.49 113.623 111.217 113.983C110.948 114.339 110.814 114.84 110.814 115.487ZM121.191 119.192C120.001 119.192 119.058 118.86 118.361 118.194C117.668 117.529 117.321 116.627 117.321 115.487C117.321 114.352 117.67 113.45 118.367 112.78C119.065 112.11 120.001 111.775 121.177 111.775C122.33 111.775 123.228 112.101 123.87 112.753C124.517 113.405 124.841 114.311 124.841 115.474V115.863C124.841 115.963 124.786 116.014 124.677 116.014H119.646C119.682 116.538 119.835 116.941 120.104 117.224C120.377 117.502 120.753 117.641 121.232 117.641C121.956 117.641 122.403 117.379 122.571 116.854C122.603 116.763 122.665 116.718 122.756 116.718H124.65C124.704 116.718 124.745 116.729 124.773 116.752C124.805 116.77 124.818 116.8 124.814 116.841C124.691 117.57 124.312 118.144 123.679 118.563C123.05 118.983 122.221 119.192 121.191 119.192ZM119.646 114.886H122.633C122.606 114.389 122.469 114.006 122.223 113.737C121.981 113.464 121.646 113.327 121.218 113.327C120.749 113.327 120.379 113.462 120.111 113.73C119.842 113.999 119.687 114.384 119.646 114.886ZM8.15823 137.192C6.95055 137.192 5.98668 136.923 5.26663 136.386C4.55113 135.848 4.12958 135.082 4.00198 134.089C3.98831 133.966 4.04527 133.904 4.17288 133.904H6.12795C6.21454 133.904 6.27151 133.948 6.29885 134.034C6.39 134.517 6.58368 134.873 6.87991 135.101C7.18069 135.328 7.59768 135.442 8.13088 135.442C8.59117 135.442 8.9512 135.342 9.21096 135.142C9.47073 134.941 9.60061 134.663 9.60061 134.308C9.60061 133.993 9.50035 133.756 9.29983 133.597C9.10387 133.433 8.77118 133.312 8.30178 133.234L7.15335 133.036C6.14163 132.877 5.38967 132.56 4.89749 132.086C4.4053 131.607 4.15921 130.958 4.15921 130.138C4.15921 129.208 4.48049 128.481 5.12307 127.957C5.77021 127.433 6.67027 127.171 7.82327 127.171C8.9398 127.171 9.83987 127.426 10.5234 127.936C11.207 128.447 11.6195 129.167 11.7607 130.097C11.7653 130.151 11.7516 130.197 11.7197 130.233C11.6924 130.265 11.6536 130.281 11.6035 130.281H9.64163C9.54592 130.281 9.48668 130.224 9.46389 130.11C9.37275 129.7 9.19729 129.399 8.93753 129.208C8.67776 129.017 8.32001 128.921 7.86428 128.921C7.42223 128.921 7.08499 129.012 6.85256 129.194C6.6247 129.377 6.51077 129.641 6.51077 129.987C6.51077 130.302 6.62014 130.55 6.83889 130.732C7.05764 130.915 7.39944 131.049 7.86428 131.136L9.02639 131.313C10.0745 131.482 10.8242 131.79 11.2754 132.236C11.7266 132.683 11.9521 133.341 11.9521 134.212C11.9521 135.132 11.6126 135.859 10.9336 136.393C10.2546 136.926 9.32945 137.192 8.15823 137.192ZM13.5586 137.083C13.4447 137.083 13.3877 137.026 13.3877 136.912V130.056C13.3877 129.942 13.4447 129.885 13.5586 129.885H15.5C15.6048 129.885 15.6572 129.942 15.6572 130.056V136.912C15.6572 137.026 15.6048 137.083 15.5 137.083H13.5586ZM13.3193 128.6V126.624C13.3193 126.524 13.374 126.474 13.4834 126.474H15.5684C15.6823 126.474 15.7393 126.524 15.7393 126.624V128.6C15.7393 128.7 15.6823 128.75 15.5684 128.75H13.4834C13.374 128.75 13.3193 128.7 13.3193 128.6ZM20.3057 137.192C19.3304 137.192 18.5625 136.999 18.0019 136.611C17.4414 136.219 17.1178 135.654 17.0312 134.916C17.0267 134.861 17.0381 134.818 17.0654 134.786C17.0928 134.75 17.1315 134.731 17.1816 134.731H18.8906C18.9863 134.731 19.0478 134.782 19.0752 134.882C19.139 135.187 19.2712 135.404 19.4717 135.531C19.6768 135.659 19.9547 135.723 20.3057 135.723C20.5973 135.723 20.8297 135.663 21.0029 135.545C21.1807 135.422 21.2695 135.262 21.2695 135.066C21.2695 134.861 21.2034 134.711 21.0713 134.615C20.9391 134.515 20.7113 134.437 20.3877 134.383L19.3965 134.198C18.6445 134.071 18.0885 133.838 17.7285 133.501C17.373 133.159 17.1953 132.669 17.1953 132.031C17.1953 131.338 17.4596 130.789 17.9883 130.384C18.5215 129.978 19.2529 129.775 20.1826 129.775C21.0257 129.775 21.7116 129.955 22.2402 130.315C22.7689 130.671 23.081 131.199 23.1768 131.901C23.1904 131.961 23.1813 132.006 23.1494 132.038C23.1221 132.07 23.0833 132.086 23.0332 132.086H21.331C21.2308 132.086 21.1647 132.033 21.1328 131.929C21.0781 131.678 20.9756 131.5 20.8252 131.395C20.6748 131.286 20.4606 131.231 20.1826 131.231C19.9001 131.231 19.6836 131.288 19.5332 131.402C19.3874 131.516 19.3144 131.678 19.3144 131.888C19.3144 132.084 19.3828 132.236 19.5195 132.346C19.6608 132.45 19.9092 132.532 20.2646 132.592L21.2695 132.769C22.0306 132.897 22.5729 133.125 22.8965 133.453C23.2246 133.781 23.3887 134.264 23.3887 134.902C23.3887 135.663 23.1221 136.235 22.5889 136.618C22.0602 137.001 21.2991 137.192 20.3057 137.192ZM27.7295 137.083C27.0003 137.083 26.4421 136.889 26.0547 136.502C25.6673 136.11 25.4736 135.547 25.4736 134.813V131.457H24.3594C24.2454 131.457 24.1885 131.4 24.1885 131.286V130.056C24.1885 129.942 24.2454 129.885 24.3594 129.885H25.4736V127.916C25.4736 127.811 25.5306 127.759 25.6445 127.759H27.5928C27.693 127.759 27.7432 127.811 27.7432 127.916V129.885H29.3838C29.4932 129.885 29.5478 129.942 29.5478 130.056V131.286C29.5478 131.336 29.5319 131.377 29.5 131.409C29.4681 131.441 29.4294 131.457 29.3838 131.457H27.7432V135.518H29.3701C29.4795 135.518 29.5342 135.572 29.5342 135.682V136.912C29.5342 137.026 29.4795 137.083 29.3701 137.083H27.7295ZM34.1279 137.192C32.9385 137.192 31.9951 136.86 31.2978 136.194C30.6051 135.529 30.2588 134.627 30.2588 133.487C30.2588 132.352 30.6074 131.45 31.3047 130.78C32.0019 130.11 32.9385 129.775 34.1143 129.775C35.2672 129.775 36.165 130.101 36.8076 130.753C37.4547 131.405 37.7783 132.311 37.7783 133.474V133.863C37.7783 133.963 37.7236 134.014 37.6143 134.014H32.583C32.6195 134.538 32.7721 134.941 33.041 135.224C33.3144 135.502 33.6904 135.641 34.1689 135.641C34.8936 135.641 35.3402 135.379 35.5088 134.854C35.5407 134.763 35.6022 134.718 35.6934 134.718H37.5869C37.6416 134.718 37.6826 134.729 37.71 134.752C37.7419 134.77 37.7555 134.8 37.751 134.841C37.6279 135.57 37.2497 136.144 36.6162 136.563C35.9873 136.983 35.1579 137.192 34.1279 137.192ZM32.583 132.886H35.5703C35.543 132.389 35.4062 132.006 35.1602 131.737C34.9186 131.464 34.5837 131.327 34.1553 131.327C33.6859 131.327 33.3167 131.462 33.0478 131.73C32.779 131.999 32.624 132.384 32.583 132.886ZM39.2344 137.083C39.1204 137.083 39.0635 137.026 39.0635 136.912V130.056C39.0635 129.942 39.1204 129.885 39.2344 129.885H41.0664C41.1758 129.885 41.2305 129.942 41.2305 130.056V130.91H41.292C41.7842 130.163 42.5111 129.789 43.4727 129.789C44.457 129.789 45.1475 130.163 45.5439 130.91H45.6123C46.2002 130.163 47.0228 129.789 48.0801 129.789C48.8958 129.789 49.5133 130.053 49.9326 130.582C50.3564 131.106 50.5684 131.883 50.5684 132.913V136.912C50.5684 137.026 50.5137 137.083 50.4043 137.083H48.456C48.3467 137.083 48.292 137.026 48.292 136.912V132.913C48.292 132.425 48.1963 132.065 48.0049 131.833C47.8135 131.601 47.5172 131.484 47.1162 131.484C46.3415 131.484 45.9541 131.961 45.9541 132.913V136.912C45.9541 137.026 45.8971 137.083 45.7832 137.083H43.835C43.7256 137.083 43.6709 137.026 43.6709 136.912V132.913C43.6709 132.425 43.5775 132.065 43.3906 131.833C43.2038 131.601 42.9098 131.484 42.5088 131.484C42.1077 131.484 41.8115 131.603 41.6201 131.84C41.4287 132.072 41.333 132.43 41.333 132.913V136.912C41.333 137.026 41.2806 137.083 41.1758 137.083H39.2344ZM54.7109 137.192C53.7767 137.192 53.0407 136.862 52.5029 136.201C51.9652 135.54 51.6963 134.636 51.6963 133.487C51.6963 132.321 51.9606 131.411 52.4893 130.76C53.0179 130.103 53.7585 129.775 54.7109 129.775C55.1575 129.775 55.5745 129.878 55.9619 130.083C56.3493 130.283 56.6592 130.559 56.8916 130.91H56.9668V130.056C56.9668 129.942 57.0215 129.885 57.1309 129.885H59.0791C59.1885 129.885 59.2432 129.942 59.2432 130.056V135.518H59.9062C60.0065 135.518 60.0566 135.572 60.0566 135.682V136.912C60.0566 137.026 60.0065 137.083 59.9062 137.083H58.1973C57.4499 137.083 57.0762 136.771 57.0762 136.146V136.078H57.0078C56.7982 136.42 56.486 136.691 56.0713 136.892C55.6566 137.092 55.2031 137.192 54.7109 137.192ZM54.0068 133.487C54.0068 134.143 54.1413 134.649 54.4102 135.005C54.6836 135.356 55.0641 135.531 55.5518 135.531C56.0348 135.531 56.404 135.356 56.6592 135.005C56.9189 134.654 57.0488 134.148 57.0488 133.487C57.0488 132.84 56.9167 132.339 56.6523 131.983C56.3926 131.623 56.0257 131.443 55.5518 131.443C55.0687 131.443 54.6904 131.623 54.417 131.983C54.1436 132.339 54.0068 132.84 54.0068 133.487ZM64.1103 137.192C63.1351 137.192 62.3672 136.999 61.8066 136.611C61.2461 136.219 60.9225 135.654 60.8359 134.916C60.8314 134.861 60.8428 134.818 60.8701 134.786C60.8975 134.75 60.9362 134.731 60.9863 134.731H62.6953C62.791 134.731 62.8525 134.782 62.8799 134.882C62.9437 135.187 63.0758 135.404 63.2764 135.531C63.4814 135.659 63.7594 135.723 64.1103 135.723C64.402 135.723 64.6344 135.663 64.8076 135.545C64.9853 135.422 65.0742 135.262 65.0742 135.066C65.0742 134.861 65.0081 134.711 64.876 134.615C64.7438 134.515 64.5159 134.437 64.1924 134.383L63.2012 134.198C62.4492 134.071 61.8932 133.838 61.5332 133.501C61.1777 133.159 61 132.669 61 132.031C61 131.338 61.2643 130.789 61.793 130.384C62.3262 129.978 63.0576 129.775 63.9873 129.775C64.8304 129.775 65.5163 129.955 66.0449 130.315C66.5736 130.671 66.8857 131.199 66.9814 131.901C66.9951 131.961 66.986 132.006 66.9541 132.038C66.9268 132.07 66.888 132.086 66.8379 132.086H65.1357C65.0355 132.086 64.9694 132.033 64.9375 131.929C64.8828 131.678 64.7803 131.5 64.6299 131.395C64.4795 131.286 64.2653 131.231 63.9873 131.231C63.7047 131.231 63.4883 131.288 63.3379 131.402C63.1921 131.516 63.1191 131.678 63.1191 131.888C63.1191 132.084 63.1875 132.236 63.3242 132.346C63.4655 132.45 63.7139 132.532 64.0693 132.592L65.0742 132.769C65.8353 132.897 66.3776 133.125 66.7012 133.453C67.0293 133.781 67.1934 134.264 67.1934 134.902C67.1934 135.663 66.9268 136.235 66.3936 136.618C65.8649 137.001 65.1038 137.192 64.1103 137.192ZM74.4394 137.192C73.5098 137.192 72.7738 136.862 72.2314 136.201C71.6937 135.54 71.4248 134.636 71.4248 133.487C71.4248 132.325 71.6914 131.416 72.2246 130.76C72.7578 130.103 73.4961 129.775 74.4394 129.775C74.8906 129.775 75.3099 129.878 75.6973 130.083C76.0892 130.283 76.4014 130.559 76.6338 130.91H76.709V127.171C76.709 127.057 76.7591 127 76.8594 127H78.8076C78.917 127 78.9717 127.057 78.9717 127.171V136.912C78.9717 137.026 78.917 137.083 78.8076 137.083H76.9687C76.8594 137.083 76.8047 137.026 76.8047 136.912V136.078H76.75C76.5358 136.42 76.2213 136.691 75.8066 136.892C75.3919 137.092 74.9362 137.192 74.4394 137.192ZM73.749 133.487C73.749 134.143 73.8835 134.649 74.1523 135.005C74.4212 135.356 74.8018 135.531 75.2939 135.531C75.7725 135.531 76.1416 135.356 76.4014 135.005C76.6611 134.649 76.791 134.143 76.791 133.487C76.791 132.84 76.6588 132.339 76.3945 131.983C76.1348 131.623 75.7679 131.443 75.2939 131.443C74.8063 131.443 74.4258 131.623 74.1523 131.983C73.8835 132.339 73.749 132.84 73.749 133.487ZM84.126 137.192C82.9365 137.192 81.9932 136.86 81.2959 136.194C80.6032 135.529 80.2568 134.627 80.2568 133.487C80.2568 132.352 80.6055 131.45 81.3027 130.78C82 130.11 82.9365 129.775 84.1123 129.775C85.2653 129.775 86.1631 130.101 86.8057 130.753C87.4528 131.405 87.7764 132.311 87.7764 133.474V133.863C87.7764 133.963 87.7217 134.014 87.6123 134.014H82.581C82.6175 134.538 82.7702 134.941 83.0391 135.224C83.3125 135.502 83.6885 135.641 84.167 135.641C84.8916 135.641 85.3382 135.379 85.5068 134.854C85.5387 134.763 85.6003 134.718 85.6914 134.718H87.585C87.6396 134.718 87.6807 134.729 87.708 134.752C87.7399 134.77 87.7536 134.8 87.749 134.841C87.626 135.57 87.2477 136.144 86.6143 136.563C85.9853 136.983 85.1559 137.192 84.126 137.192ZM82.581 132.886H85.5684C85.541 132.389 85.4043 132.006 85.1582 131.737C84.9167 131.464 84.5817 131.327 84.1533 131.327C83.6839 131.327 83.3148 131.462 83.0459 131.73C82.777 131.999 82.6221 132.384 82.581 132.886ZM92.6777 137.083C92.5638 137.083 92.5068 137.026 92.5068 136.912V127.451C92.5068 127.337 92.5638 127.28 92.6777 127.28H94.6807C94.7809 127.28 94.831 127.337 94.831 127.451V136.912C94.831 137.026 94.7809 137.083 94.6807 137.083H92.6777ZM96.8477 137.083C96.7337 137.083 96.6768 137.026 96.6768 136.912V130.056C96.6768 129.942 96.7337 129.885 96.8477 129.885H98.6797C98.7891 129.885 98.8437 129.942 98.8437 130.056V130.91H98.9053C99.4202 130.154 100.166 129.775 101.141 129.775C101.979 129.775 102.613 130.042 103.041 130.575C103.474 131.108 103.691 131.901 103.691 132.954V136.912C103.691 137.026 103.634 137.083 103.52 137.083H101.578C101.464 137.083 101.407 137.026 101.407 136.912V132.954C101.407 132.448 101.309 132.074 101.113 131.833C100.918 131.591 100.61 131.471 100.191 131.471C99.7712 131.471 99.459 131.594 99.2539 131.84C99.0488 132.081 98.9463 132.453 98.9463 132.954V136.912C98.9463 137.026 98.8939 137.083 98.7891 137.083H96.8477ZM106.158 137.083C106.044 137.083 105.988 137.026 105.988 136.912V131.566H104.873C104.759 131.566 104.702 131.512 104.702 131.402V130.165C104.702 130.056 104.759 130.001 104.873 130.001H105.988V129.256C105.988 128.527 106.181 127.968 106.569 127.581C106.956 127.194 107.514 127 108.243 127H109.884C109.993 127 110.048 127.057 110.048 127.171V128.401C110.048 128.515 109.993 128.572 109.884 128.572H108.257V130.001H109.898C109.948 130.001 109.987 130.017 110.014 130.049C110.046 130.081 110.062 130.119 110.062 130.165V131.402C110.062 131.512 110.007 131.566 109.898 131.566H108.257V136.912C108.257 137.026 108.207 137.083 108.107 137.083H106.158ZM117.274 136.181C116.572 136.855 115.64 137.192 114.478 137.192C113.316 137.192 112.384 136.855 111.682 136.181C110.985 135.506 110.636 134.608 110.636 133.487C110.636 132.366 110.985 131.471 111.682 130.801C112.384 130.126 113.316 129.789 114.478 129.789C115.64 129.789 116.572 130.126 117.274 130.801C117.975 131.471 118.326 132.366 118.326 133.487C118.326 134.608 117.975 135.506 117.274 136.181ZM112.946 133.487C112.946 134.171 113.076 134.693 113.336 135.053C113.6 135.408 113.981 135.586 114.478 135.586C114.97 135.586 115.348 135.408 115.612 135.053C115.881 134.693 116.016 134.171 116.016 133.487C116.016 132.808 115.881 132.289 115.612 131.929C115.348 131.564 114.97 131.382 114.478 131.382C113.986 131.382 113.607 131.564 113.343 131.929C113.079 132.289 112.946 132.808 112.946 133.487ZM119.673 137.083C119.573 137.083 119.523 137.026 119.523 136.912V132.141C119.523 131.411 119.714 130.853 120.097 130.466C120.484 130.078 121.043 129.885 121.772 129.885H124.096C124.201 129.885 124.253 129.942 124.253 130.056V131.484C124.253 131.585 124.201 131.635 124.096 131.635H121.785V136.912C121.785 137.026 121.735 137.083 121.635 137.083H119.673ZM125.641 137.083C125.527 137.083 125.47 137.026 125.47 136.912V130.056C125.47 129.942 125.527 129.885 125.641 129.885H127.473C127.582 129.885 127.637 129.942 127.637 130.056V130.91H127.698C128.191 130.163 128.918 129.789 129.879 129.789C130.863 129.789 131.554 130.163 131.95 130.91H132.019C132.607 130.163 133.429 129.789 134.487 129.789C135.302 129.789 135.92 130.053 136.339 130.582C136.763 131.106 136.975 131.883 136.975 132.913V136.912C136.975 137.026 136.92 137.083 136.811 137.083H134.862C134.753 137.083 134.698 137.026 134.698 136.912V132.913C134.698 132.425 134.603 132.065 134.411 131.833C134.22 131.601 133.924 131.484 133.523 131.484C132.748 131.484 132.361 131.961 132.361 132.913V136.912C132.361 137.026 132.304 137.083 132.19 137.083H130.241C130.132 137.083 130.077 137.026 130.077 136.912V132.913C130.077 132.425 129.984 132.065 129.797 131.833C129.61 131.601 129.316 131.484 128.915 131.484C128.514 131.484 128.218 131.603 128.027 131.84C127.835 132.072 127.739 132.43 127.739 132.913V136.912C127.739 137.026 127.687 137.083 127.582 137.083H125.641ZM141.117 137.192C140.183 137.192 139.447 136.862 138.909 136.201C138.372 135.54 138.103 134.636 138.103 133.487C138.103 132.321 138.367 131.411 138.896 130.76C139.424 130.103 140.165 129.775 141.117 129.775C141.564 129.775 141.981 129.878 142.368 130.083C142.756 130.283 143.066 130.559 143.298 130.91H143.373V130.056C143.373 129.942 143.428 129.885 143.537 129.885H145.486C145.595 129.885 145.65 129.942 145.65 130.056V135.518H146.313C146.413 135.518 146.463 135.572 146.463 135.682V136.912C146.463 137.026 146.413 137.083 146.313 137.083H144.604C143.856 137.083 143.483 136.771 143.483 136.146V136.078H143.414C143.205 136.42 142.892 136.691 142.478 136.892C142.063 137.092 141.61 137.192 141.117 137.192ZM140.413 133.487C140.413 134.143 140.548 134.649 140.817 135.005C141.09 135.356 141.471 135.531 141.958 135.531C142.441 135.531 142.81 135.356 143.066 135.005C143.325 134.654 143.455 134.148 143.455 133.487C143.455 132.84 143.323 132.339 143.059 131.983C142.799 131.623 142.432 131.443 141.958 131.443C141.475 131.443 141.097 131.623 140.823 131.983C140.55 132.339 140.413 132.84 140.413 133.487ZM149.97 139.913C149.861 139.913 149.806 139.861 149.806 139.756V139.086C149.806 138.981 149.861 138.929 149.97 138.929H150.756C150.97 138.929 151.13 138.906 151.235 138.86C151.344 138.815 151.399 138.726 151.399 138.594C151.399 138.457 151.349 138.364 151.248 138.313C151.148 138.268 150.984 138.245 150.756 138.245H150.476C150.426 138.245 150.385 138.229 150.353 138.197C150.321 138.17 150.305 138.133 150.305 138.088V137.151C149.321 137.019 148.548 136.629 147.988 135.982C147.432 135.335 147.154 134.504 147.154 133.487C147.154 132.366 147.507 131.468 148.213 130.794C148.924 130.115 149.865 129.775 151.036 129.775C152.039 129.775 152.85 130.015 153.47 130.493C154.094 130.967 154.459 131.623 154.564 132.462C154.568 132.517 154.555 132.562 154.523 132.599C154.495 132.63 154.457 132.646 154.406 132.646H152.52C152.419 132.646 152.362 132.589 152.349 132.476C152.28 132.093 152.139 131.815 151.925 131.642C151.711 131.468 151.415 131.382 151.036 131.382C150.535 131.382 150.148 131.564 149.874 131.929C149.601 132.293 149.464 132.813 149.464 133.487C149.464 134.166 149.601 134.686 149.874 135.046C150.148 135.406 150.535 135.586 151.036 135.586C151.424 135.586 151.729 135.499 151.952 135.326C152.18 135.148 152.337 134.87 152.424 134.492C152.438 134.383 152.492 134.328 152.588 134.328H154.482C154.532 134.328 154.573 134.342 154.605 134.369C154.637 134.396 154.65 134.433 154.646 134.478C154.532 135.267 154.195 135.9 153.634 136.379C153.078 136.853 152.342 137.119 151.426 137.179V137.561C151.827 137.58 152.132 137.689 152.342 137.89C152.552 138.09 152.656 138.352 152.656 138.676C152.656 139.501 152.112 139.913 151.023 139.913H149.97ZM158.522 137.192C157.587 137.192 156.851 136.862 156.314 136.201C155.776 135.54 155.507 134.636 155.507 133.487C155.507 132.321 155.771 131.411 156.3 130.76C156.829 130.103 157.569 129.775 158.522 129.775C158.968 129.775 159.385 129.878 159.773 130.083C160.16 130.283 160.47 130.559 160.702 130.91H160.778V130.056C160.778 129.942 160.832 129.885 160.942 129.885H162.89C162.999 129.885 163.054 129.942 163.054 130.056V135.518H163.717C163.817 135.518 163.867 135.572 163.867 135.682V136.912C163.867 137.026 163.817 137.083 163.717 137.083H162.008C161.261 137.083 160.887 136.771 160.887 136.146V136.078H160.819C160.609 136.42 160.297 136.691 159.882 136.892C159.467 137.092 159.014 137.192 158.522 137.192ZM156.56 128.695C156.578 128.066 156.731 127.579 157.018 127.232C157.305 126.881 157.695 126.706 158.187 126.706C158.46 126.706 158.82 126.804 159.267 127C159.713 127.196 160.014 127.294 160.169 127.294C160.411 127.294 160.566 127.15 160.634 126.863C160.661 126.758 160.718 126.706 160.805 126.706H161.967C162.076 126.706 162.131 126.763 162.131 126.877C162.113 127.506 161.96 127.996 161.673 128.347C161.386 128.693 160.999 128.866 160.511 128.866C160.238 128.866 159.877 128.766 159.431 128.565C158.984 128.365 158.681 128.265 158.522 128.265C158.28 128.265 158.125 128.408 158.057 128.695C158.029 128.809 157.975 128.866 157.893 128.866H156.731C156.617 128.866 156.56 128.809 156.56 128.695ZM157.818 133.487C157.818 134.143 157.952 134.649 158.221 135.005C158.494 135.356 158.875 135.531 159.362 135.531C159.846 135.531 160.215 135.356 160.47 135.005C160.73 134.654 160.86 134.148 160.86 133.487C160.86 132.84 160.727 132.339 160.463 131.983C160.203 131.623 159.836 131.443 159.362 131.443C158.879 131.443 158.501 131.623 158.228 131.983C157.954 132.339 157.818 132.84 157.818 133.487ZM171.196 136.181C170.494 136.855 169.562 137.192 168.4 137.192C167.238 137.192 166.306 136.855 165.604 136.181C164.906 135.506 164.558 134.608 164.558 133.487C164.558 132.366 164.906 131.471 165.604 130.801C166.306 130.126 167.238 129.789 168.4 129.789C169.562 129.789 170.494 130.126 171.196 130.801C171.897 131.471 172.248 132.366 172.248 133.487C172.248 134.608 171.897 135.506 171.196 136.181ZM166.868 133.487C166.868 134.171 166.998 134.693 167.258 135.053C167.522 135.408 167.903 135.586 168.4 135.586C168.892 135.586 169.27 135.408 169.534 135.053C169.803 134.693 169.938 134.171 169.938 133.487C169.938 132.808 169.803 132.289 169.534 131.929C169.27 131.564 168.892 131.382 168.4 131.382C167.907 131.382 167.529 131.564 167.265 131.929C167.001 132.289 166.868 132.808 166.868 133.487Z" fill="white"/>
<defs>
<filter id="filter0_di_593_7535" x="55.5339" y="9.8809" width="72.2525" height="74.1097" filterUnits="userSpaceOnUse" color-interpolation-filters="sRGB">
<feFlood flood-opacity="0" result="BackgroundImageFix"/>
<feColorMatrix in="SourceAlpha" type="matrix" values="0 0 0 0 0 0 0 0 0 0 0 0 0 0 0 0 0 0 127 0" result="hardAlpha"/>
<feOffset dy="0.380577"/>
<feGaussianBlur stdDeviation="0.380577"/>
<feComposite in2="hardAlpha" operator="out"/>
<feColorMatrix type="matrix" values="0 0 0 0 0 0 0 0 0 0 0 0 0 0 0 0 0 0 0.25 0"/>
<feBlend mode="normal" in2="BackgroundImageFix" result="effect1_dropShadow_593_7535"/>
<feBlend mode="normal" in="SourceGraphic" in2="effect1_dropShadow_593_7535" result="shape"/>
<feColorMatrix in="SourceAlpha" type="matrix" values="0 0 0 0 0 0 0 0 0 0 0 0 0 0 0 0 0 0 127 0" result="hardAlpha"/>
<feOffset/>
<feGaussianBlur stdDeviation="0.380577"/>
<feComposite in2="hardAlpha" operator="arithmetic" k2="-1" k3="1"/>
<feColorMatrix type="matrix" values="0 0 0 0 1 0 0 0 0 1 0 0 0 0 1 0 0 0 1 0"/>
<feBlend mode="normal" in2="shape" result="effect2_innerShadow_593_7535"/>
</filter>
<filter id="filter1_di_593_7535" x="43.951" y="25.0585" width="75.3532" height="75.5027" filterUnits="userSpaceOnUse" color-interpolation-filters="sRGB">
<feFlood flood-opacity="0" result="BackgroundImageFix"/>
<feColorMatrix in="SourceAlpha" type="matrix" values="0 0 0 0 0 0 0 0 0 0 0 0 0 0 0 0 0 0 127 0" result="hardAlpha"/>
<feOffset dy="0.380577"/>
<feGaussianBlur stdDeviation="0.380577"/>
<feComposite in2="hardAlpha" operator="out"/>
<feColorMatrix type="matrix" values="0 0 0 0 0 0 0 0 0 0 0 0 0 0 0 0 0 0 0.25 0"/>
<feBlend mode="normal" in2="BackgroundImageFix" result="effect1_dropShadow_593_7535"/>
<feBlend mode="normal" in="SourceGraphic" in2="effect1_dropShadow_593_7535" result="shape"/>
<feColorMatrix in="SourceAlpha" type="matrix" values="0 0 0 0 0 0 0 0 0 0 0 0 0 0 0 0 0 0 127 0" result="hardAlpha"/>
<feOffset/>
<feGaussianBlur stdDeviation="0.380577"/>
<feComposite in2="hardAlpha" operator="arithmetic" k2="-1" k3="1"/>
<feColorMatrix type="matrix" values="0 0 0 0 1 0 0 0 0 1 0 0 0 0 1 0 0 0 1 0"/>
<feBlend mode="normal" in2="shape" result="effect2_innerShadow_593_7535"/>
</filter>
<filter id="filter2_dii_593_7535" x="43.951" y="15.5312" width="75.3532" height="75.5027" filterUnits="userSpaceOnUse" color-interpolation-filters="sRGB">
<feFlood flood-opacity="0" result="BackgroundImageFix"/>
<feColorMatrix in="SourceAlpha" type="matrix" values="0 0 0 0 0 0 0 0 0 0 0 0 0 0 0 0 0 0 127 0" result="hardAlpha"/>
<feOffset dy="0.380577"/>
<feGaussianBlur stdDeviation="0.380577"/>
<feComposite in2="hardAlpha" operator="out"/>
<feColorMatrix type="matrix" values="0 0 0 0 0 0 0 0 0 0 0 0 0 0 0 0 0 0 0.5 0"/>
<feBlend mode="normal" in2="BackgroundImageFix" result="effect1_dropShadow_593_7535"/>
<feBlend mode="normal" in="SourceGraphic" in2="effect1_dropShadow_593_7535" result="shape"/>
<feColorMatrix in="SourceAlpha" type="matrix" values="0 0 0 0 0 0 0 0 0 0 0 0 0 0 0 0 0 0 127 0" result="hardAlpha"/>
<feOffset/>
<feGaussianBlur stdDeviation="4.56692"/>
<feComposite in2="hardAlpha" operator="arithmetic" k2="-1" k3="1"/>
<feColorMatrix type="matrix" values="0 0 0 0 1 0 0 0 0 1 0 0 0 0 1 0 0 0 0.5 0"/>
<feBlend mode="normal" in2="shape" result="effect2_innerShadow_593_7535"/>
<feColorMatrix in="SourceAlpha" type="matrix" values="0 0 0 0 0 0 0 0 0 0 0 0 0 0 0 0 0 0 127 0" result="hardAlpha"/>
<feOffset/>
<feGaussianBlur stdDeviation="0.380577"/>
<feComposite in2="hardAlpha" operator="arithmetic" k2="-1" k3="1"/>
<feColorMatrix type="matrix" values="0 0 0 0 1 0 0 0 0 1 0 0 0 0 1 0 0 0 1 0"/>
<feBlend mode="normal" in2="effect2_innerShadow_593_7535" result="effect3_innerShadow_593_7535"/>
</filter>
<linearGradient id="paint0_linear_593_7535" x1="81.6277" y1="25.5261" x2="81.6277" y2="99.3323" gradientUnits="userSpaceOnUse">
<stop stop-color="#9638FF"/>
<stop offset="0.403841" stop-color="#6618BB"/>
<stop offset="1" stop-color="#3E0672"/>
</linearGradient>
<linearGradient id="paint1_linear_593_7535" x1="81.6277" y1="15.9988" x2="81.6277" y2="89.805" gradientUnits="userSpaceOnUse">
<stop stop-color="#D0ACFF"/>
<stop offset="0.403841" stop-color="#AF52FF"/>
<stop offset="1" stop-color="#9638FF"/>
</linearGradient>
</defs>
</svg>
