<svg width="41" height="46" viewBox="0 0 41 46" fill="none" xmlns="http://www.w3.org/2000/svg">
<path d="M20.4888 4.13935L20.0551 3.62497L20.047 3.632L20.4888 4.13935ZM17.4412 6.79283L17.8829 7.30019L17.8829 7.30019L17.4412 6.79283ZM4.78089 17.9259L4.32366 17.4324H4.32366L4.78089 17.9259ZM2.98977 19.7428L3.51856 20.1587L3.51856 20.1587L2.98977 19.7428ZM2.47667 20.7604L1.8257 20.5907L1.82376 20.5982L1.82198 20.6057L2.47667 20.7604ZM6.37885 23.0042L6.4694 23.6708L6.4751 23.67L6.37885 23.0042ZM7.32485 22.8843L7.78379 23.3762L9.2999 21.9615L7.24207 22.2167L7.32485 22.8843ZM6.59185 23.5621L7.04355 24.0606L7.04355 24.0606L6.59185 23.5621ZM3.54772 26.2302L3.97636 26.7488L3.98137 26.7445L3.54772 26.2302ZM5.34744 30.2988L5.34461 29.6261L5.31402 29.6262L5.28356 29.6291L5.34744 30.2988ZM13.3958 29.1898L13.2868 28.526L13.3958 29.1898ZM18.7114 28.3326L18.6095 27.6676H18.6095L18.7114 28.3326ZM20.1731 28.1412L20.8458 28.1404L20.8451 27.4206L20.1269 27.47L20.1731 28.1412ZM20.1792 33.6335L20.8519 33.6328V33.6328L20.1792 33.6335ZM20.2128 39.8658L20.8854 39.8551V39.8551L20.2128 39.8658ZM20.2524 41.3111L20.9243 41.2772L20.9243 41.2771L20.2524 41.3111ZM20.2809 41.6957L19.6126 41.7733L19.6127 41.7736L20.2809 41.6957ZM20.3041 41.8388L20.9603 41.6906L20.9603 41.6906L20.3041 41.8388ZM20.4473 42.1113L19.9719 42.5874L19.972 42.5874L20.4473 42.1113ZM20.6103 42.2234L20.3206 42.8306L20.3207 42.8306L20.6103 42.2234ZM20.7138 42.2657L20.938 41.6315L20.9379 41.6314L20.7138 42.2657ZM20.9285 42.3261L20.7867 42.9837L20.7873 42.9838L20.9285 42.3261ZM21.3312 42.3234L21.1664 41.6712L21.1658 41.6713L21.3312 42.3234ZM21.7425 42.1268L22.1106 42.6899L22.1106 42.6898L21.7425 42.1268ZM23.0861 41.0799L22.6617 40.5579L23.0861 41.0799ZM39.0199 27.1183L38.5462 26.6406L38.5462 26.6406L39.0199 27.1183ZM39.5813 26.5095L40.1229 26.9085L40.123 26.9085L39.5813 26.5095ZM39.8607 25.9489L40.4977 26.1652L40.4977 26.1652L39.8607 25.9489ZM40.0177 24.9926L39.3476 24.9326L39.3447 24.9654L39.345 24.9983L40.0177 24.9926ZM38.3085 23.3127L38.3818 22.644L38.3766 22.6434L38.3085 23.3127ZM35.8534 23.3895L35.819 22.7176L35.819 22.7176L35.8534 23.3895ZM35.1558 23.4223L34.7127 22.9161L33.2671 24.1814L35.1863 24.0943L35.1558 23.4223ZM38.6932 20.1384L38.2431 19.6384L38.2324 19.648L38.2221 19.6581L38.6932 20.1384ZM39.8789 18.9751L39.3795 18.5244L39.3795 18.5244L39.8789 18.9751ZM39.4841 16.6424L39.9669 16.174L39.9336 16.1397L39.8959 16.1105L39.4841 16.6424ZM32.0178 16.6595L32.1276 17.3232L32.1277 17.3232L32.0178 16.6595ZM25.4302 17.7211L25.5328 18.386H25.5328L25.4302 17.7211ZM22.3188 18.1575L22.2684 17.4866L22.2676 17.4867L22.3188 18.1575ZM22.2507 18.1594L21.5782 18.1792L21.5987 18.8737L22.2922 18.8308L22.2507 18.1594ZM22.2446 17.93L21.5719 17.931L21.5719 17.9313L22.2446 17.93ZM22.2912 15.1799L22.9637 15.1952V15.1952L22.2912 15.1799ZM22.3748 8.52513L21.7021 8.52458V8.5246L22.3748 8.52513ZM22.3567 6.18038L21.6842 6.19453L21.6842 6.19457L22.3567 6.18038ZM22.3326 5.43099L23.0044 5.39651V5.39651L22.3326 5.43099ZM22.2886 4.97825L22.9459 4.83501L22.9459 4.83496L22.2886 4.97825ZM22.2032 4.59795L22.8529 4.42342L22.8529 4.42329L22.2032 4.59795ZM22.0015 4.21507L22.4764 3.73864L22.4276 3.68999L22.3699 3.65225L22.0015 4.21507ZM20.1688 11.7591L20.6105 12.2665L20.8416 12.0654V11.7591H20.1688ZM18.3501 13.3424L18.7918 13.8498L18.7918 13.8498L18.3501 13.3424ZM12.0575 18.7882L11.6221 18.2754L11.6221 18.2754L12.0575 18.7882ZM10.3733 20.1343L10.6649 20.7406L10.6649 20.7406L10.3733 20.1343ZM9.86881 20.287L10.0334 20.9393L10.0334 20.9393L9.86881 20.287ZM8.86762 20.5086L8.73582 19.8489L8.73581 19.8489L8.86762 20.5086ZM6.34521 20.9251V21.5978H6.38848L6.43139 21.5923L6.34521 20.9251ZM6.34368 20.9251V20.2524H6.30043L6.25753 20.2579L6.34368 20.9251ZM5.32606 21.6786L5.99851 21.6597L5.96065 20.3148L5.2882 20.3337L5.32606 21.6786ZM7.41387 18.3906L6.967 17.8878H6.967L7.41387 18.3906ZM16.1099 10.7864L16.5488 11.2962V11.2962L16.1099 10.7864ZM19.342 8.03286L19.7738 8.54876L19.342 8.03286ZM20.1602 14.6135L20.8328 14.5995L20.8043 13.2323L19.7386 14.0893L20.1602 14.6135ZM20.1731 18.6106L20.2869 19.2736L20.8459 19.1777V18.6106H20.1731ZM16.8772 19.1702L16.7647 18.507H16.7647L16.8772 19.1702ZM14.554 19.5583L14.0926 19.0687L12.4938 20.5755L14.6622 20.2223L14.554 19.5583ZM17.4938 16.9057L17.0506 16.3995L17.0506 16.3996L17.4938 16.9057ZM20.1024 14.6575L19.6774 14.1361L19.6771 14.1363L20.1024 14.6575ZM36.583 19.2849L37.0463 19.7727L37.0463 19.7727L36.583 19.2849ZM32.8697 22.5714L32.4309 22.0615L32.4309 22.0615L32.8697 22.5714ZM31.4951 23.7312L31.0681 23.2114L31.0681 23.2114L31.4951 23.7312ZM31.0561 24.0848L30.6439 23.5532L30.6437 23.5534L31.0561 24.0848ZM30.9682 24.1512L31.0897 24.8128L31.2415 24.785L31.3659 24.6937L30.9682 24.1512ZM30.6672 24.2055L30.7825 24.8683L30.7827 24.8683L30.6672 24.2055ZM29.8022 24.353L29.6898 23.6897H29.6898L29.8022 24.353ZM27.2617 24.779L27.3721 25.4426L27.2617 24.779ZM23.1224 25.4534L23.0278 24.7873H23.0278L23.1224 25.4534ZM22.426 25.5491L21.7533 25.5452L21.7489 26.3148L22.5122 26.2163L22.426 25.5491ZM22.4558 20.3379L22.3457 19.6742L21.7864 19.7671L21.7831 20.334L22.4558 20.3379ZM28.0508 19.4057L28.1624 20.0691L28.1624 20.0691L28.0508 19.4057ZM20.1731 20.7164H20.8459V19.9071L20.0502 20.0551L20.1731 20.7164ZM20.1731 25.9604L20.2979 26.6215L20.8459 26.5181V25.9604H20.1731ZM18.5269 26.245L18.6375 26.9086L18.6375 26.9086L18.5269 26.245ZM14.7429 26.865L14.6355 26.201H14.6355L14.7429 26.865ZM7.64737 27.9809L7.55075 27.3152H7.55075L7.64737 27.9809ZM5.12113 28.9369L5.79337 28.9114L5.7424 27.5669L5.07017 27.5924L5.12113 28.9369ZM5.32244 27.6282L5.804 28.098H5.804L5.32244 27.6282ZM9.11337 24.203L8.67019 23.6969L8.67015 23.6969L9.11337 24.203ZM11.4228 22.1807L11.3127 21.5171L11.1237 21.5484L10.9796 21.6746L11.4228 22.1807ZM15.5604 21.4943L15.6705 22.1579L15.6705 22.1579L15.5604 21.4943ZM28.125 34.0381L28.566 34.5462V34.5462L28.125 34.0381ZM23.5135 38.9405L24.0222 38.5003L23.1417 37.4829L22.6331 37.9232L23.5135 38.9405ZM22.4354 34.6395L21.9768 34.1473L21.7624 34.3472L21.7627 34.6403L22.4354 34.6395ZM27.3522 30.187L26.9101 29.6799L26.91 29.68L27.3522 30.187ZM32.1228 26.0269L32.0144 25.363L31.8252 25.3939L31.6807 25.5199L32.1228 26.0269ZM33.0205 25.8803L32.9122 25.2164L32.9121 25.2164L33.0205 25.8803ZM27.912 26.8444L28.3564 27.3493L29.9163 25.9764L27.8478 26.1747L27.912 26.8444ZM22.4273 31.5856L21.7546 31.5785L21.739 33.0597L22.8646 32.0968L22.4273 31.5856ZM22.4498 27.6569L22.346 26.9922L21.779 27.0808L21.7771 27.6547L22.4498 27.6569ZM24.3556 27.3592L24.4594 28.0239L24.466 28.0228L24.3556 27.3592ZM1.61451 30.3259C1.46334 29.9865 1.06566 29.8339 0.726277 29.9851C0.386891 30.1363 0.234314 30.534 0.385487 30.8733L1.61451 30.3259ZM4.08286 32.4374L4.07624 31.7647H4.07624L4.08286 32.4374ZM7.42312 32.8894C7.79061 32.8347 8.0442 32.4925 7.98953 32.125C7.93486 31.7575 7.59264 31.5039 7.22515 31.5586L7.42312 32.8894ZM9.38917 31.2854C9.02485 31.3583 8.78858 31.7127 8.86145 32.077C8.93431 32.4413 9.28872 32.6776 9.65303 32.6047L9.38917 31.2854ZM11.8954 32.1562C12.2597 32.0834 12.496 31.729 12.4232 31.3646C12.3503 31.0003 11.9959 30.7641 11.6316 30.8369L11.8954 32.1562ZM21.8693 1.90298C22.1558 2.13949 22.5798 2.09896 22.8163 1.81243C23.0528 1.52591 23.0123 1.1019 22.7258 0.865383L21.8693 1.90298ZM19.2393 1.71133L18.8276 1.17934V1.17934L19.2393 1.71133ZM16.3048 3.36961C16.045 3.63523 16.0497 4.06115 16.3154 4.32092C16.581 4.58069 17.0069 4.57596 17.2667 4.31034L16.3048 3.36961ZM15.4995 6.11907C15.7608 5.85496 15.7585 5.42902 15.4944 5.16772C15.2303 4.90641 14.8043 4.90869 14.543 5.17281L15.4995 6.11907ZM13.8797 5.84329C13.6184 6.1074 13.6207 6.53334 13.8848 6.79464C14.1489 7.05595 14.5748 7.05367 14.8361 6.78956L13.8797 5.84329ZM22.6686 43.5395C22.3845 43.7788 22.3481 44.2032 22.5875 44.4874C22.8268 44.7715 23.2512 44.8079 23.5354 44.5685L22.6686 43.5395ZM29.5151 39.5319C29.7993 39.2926 29.8356 38.8682 29.5963 38.584C29.357 38.2999 28.9326 38.2635 28.6484 38.5029L29.5151 39.5319ZM24.164 44.4875C23.881 44.7281 23.8466 45.1527 24.0873 45.4357C24.3279 45.7188 24.7525 45.7532 25.0355 45.5125L24.164 44.4875ZM27.5538 43.3715C27.8369 43.1308 27.8713 42.7063 27.6306 42.4232C27.39 42.1402 26.9654 42.1058 26.6824 42.3464L27.5538 43.3715ZM28.1557 40.9972C27.8755 41.2412 27.8461 41.6661 28.0901 41.9463C28.3341 42.2265 28.759 42.2559 29.0392 42.0119L28.1557 40.9972ZM29.8787 41.2809C30.1589 41.037 30.1882 40.612 29.9442 40.3318C29.7002 40.0516 29.2753 40.0223 28.9951 40.2663L29.8787 41.2809ZM5.12398 20.6159L5.62854 21.0608L5.12398 20.6159ZM37.1107 18.7419L36.6092 18.2935L37.1107 18.7419ZM36.7675 18.1225L36.688 17.4545L36.7675 18.1225ZM36.9924 26.0643L36.522 25.5834L36.9924 26.0643ZM36.6926 25.411L36.7494 26.0813L36.6926 25.411ZM4.9669 28.0319L4.43529 27.6197L4.9669 28.0319ZM20.1231 7.95528L20.7953 7.92693L20.7953 7.92688L20.1231 7.95528ZM19.6731 7.75781L20.101 8.2769L19.6731 7.75781ZM20.047 3.632L16.9994 6.28547L17.8829 7.30019L20.9305 4.64671L20.047 3.632ZM16.9994 6.28547C9.88057 12.4837 6.23559 15.6608 4.32366 17.4324L5.23812 18.4193C7.13036 16.666 10.7531 13.5079 17.8829 7.30019L16.9994 6.28547ZM4.32366 17.4324C3.37319 18.3131 2.8184 18.8725 2.46098 19.327L3.51856 20.1587C3.80335 19.7966 4.28651 19.3011 5.23812 18.4193L4.32366 17.4324ZM2.46099 19.327C2.07076 19.8232 1.9161 20.244 1.8257 20.5907L3.12763 20.9301C3.18211 20.7211 3.26657 20.4791 3.51856 20.1587L2.46099 19.327ZM1.82198 20.6057C1.65555 21.3099 1.80631 21.9279 2.18991 22.4135C2.54952 22.8687 3.0722 23.1567 3.57667 23.341C4.58089 23.7079 5.78902 23.7632 6.4694 23.6708L6.28829 22.3376C5.79829 22.4041 4.81356 22.3605 4.0384 22.0773C3.65318 21.9365 3.38954 21.7616 3.2457 21.5795C3.12584 21.4278 3.05601 21.2339 3.13135 20.9151L1.82198 20.6057ZM6.4751 23.67C6.93492 23.6035 7.09419 23.5908 7.40764 23.5519L7.24207 22.2167C6.962 22.2514 6.75898 22.2695 6.2826 22.3384L6.4751 23.67ZM6.86591 22.3924C6.63394 22.6089 6.43108 22.8 6.14014 23.0636L7.04355 24.0606C7.34366 23.7887 7.55551 23.5892 7.78379 23.3762L6.86591 22.3924ZM6.14014 23.0636C5.22453 23.8932 4.06741 24.9121 3.11407 25.716L3.98137 26.7445C4.94946 25.9282 6.11882 24.8985 7.04355 24.0606L6.14014 23.0636ZM3.11909 25.7118C1.9201 26.7029 1.1523 28.0714 1.53051 29.2982C1.93769 30.619 3.43567 31.1569 5.41133 30.9685L5.28356 29.6291C3.45009 29.804 2.92049 29.24 2.81623 28.9018C2.683 28.4696 2.91989 27.6221 3.97634 26.7487L3.11909 25.7118ZM5.35027 30.9715C6.66445 30.966 7.14989 30.8973 13.5049 29.8536L13.2868 28.526C6.87607 29.5788 6.524 29.6211 5.34461 29.6261L5.35027 30.9715ZM13.5049 29.8536C16.0912 29.4288 17.7543 29.1598 18.8133 28.9976L18.6095 27.6676C17.5423 27.8312 15.8723 28.1014 13.2868 28.526L13.5049 29.8536ZM18.8133 28.9976C19.7514 28.8538 20.0847 28.8215 20.2193 28.8123L20.1269 27.47C19.9342 27.4833 19.5555 27.5227 18.6095 27.6676L18.8133 28.9976ZM19.5004 28.1419L19.5064 33.6342L20.8519 33.6328L20.8458 28.1404L19.5004 28.1419ZM19.5064 33.6342C19.5095 36.5501 19.5194 38.5694 19.5402 39.8765L20.8854 39.8551C20.8648 38.5591 20.8549 36.549 20.8519 33.6328L19.5064 33.6342ZM19.5402 39.8764C19.5505 40.5289 19.5636 41.01 19.5806 41.3451L20.9243 41.2771C20.9086 40.9661 20.8957 40.5041 20.8854 39.8551L19.5402 39.8764ZM19.5806 41.345C19.5889 41.5106 19.5985 41.6514 19.6126 41.7733L20.9491 41.6181C20.9401 41.5404 20.9323 41.4345 20.9243 41.2772L19.5806 41.345ZM19.6127 41.7736C19.6198 41.8343 19.629 41.9033 19.648 41.987L20.9603 41.6906C20.9564 41.673 20.9536 41.6568 20.9491 41.6178L19.6127 41.7736ZM19.6479 41.987C19.636 41.934 19.6341 41.8917 19.6337 41.8726C19.6336 41.8695 19.6335 41.8382 19.6334 41.8746C19.6332 41.923 19.6359 42.0128 19.6689 42.1218C19.729 42.3203 19.8554 42.471 19.9719 42.5874L20.9226 41.6353C20.8961 41.6088 20.894 41.6031 20.9024 41.6152C20.9121 41.629 20.9375 41.6689 20.9566 41.732C20.9662 41.7636 20.9723 41.7949 20.9756 41.8246C20.9788 41.8531 20.9788 41.8748 20.9788 41.8805C20.9788 41.8808 20.9788 41.8848 20.9789 41.8761C20.979 41.8709 20.9791 41.8582 20.9788 41.8429C20.9781 41.8111 20.9752 41.7563 20.9603 41.6906L19.6479 41.987ZM19.972 42.5874C20.0438 42.6591 20.1201 42.7231 20.2086 42.775C20.2529 42.8009 20.2906 42.8181 20.3156 42.8289C20.3539 42.8454 20.3258 42.8331 20.3206 42.8306L20.9 41.6163C20.8817 41.6076 20.8662 41.601 20.8581 41.5975C20.8545 41.596 20.85 41.5941 20.8491 41.5938C20.8473 41.593 20.8473 41.593 20.8479 41.5933C20.8495 41.5939 20.8552 41.5964 20.8629 41.6002C20.8709 41.6041 20.8796 41.6088 20.8887 41.6141C20.9075 41.6251 20.9206 41.6348 20.9272 41.6402C20.933 41.6449 20.9318 41.6445 20.9226 41.6353L19.972 42.5874ZM20.3207 42.8306C20.3862 42.8619 20.4422 42.8832 20.4896 42.9L20.9379 41.6314C20.9269 41.6275 20.9201 41.6249 20.9148 41.6228C20.9099 41.6208 20.9052 41.6188 20.8999 41.6163L20.3207 42.8306ZM20.4895 42.8999C20.5853 42.9338 20.684 42.9615 20.7867 42.9837L21.0702 41.6684C21.0205 41.6577 20.9771 41.6453 20.938 41.6315L20.4895 42.8999ZM20.7873 42.9838C20.9435 43.0173 21.2144 43.047 21.4966 42.9754L21.1658 41.6713C21.1661 41.6713 21.1623 41.6722 21.1541 41.673C21.146 41.6738 21.1358 41.6742 21.1239 41.6739C21.0984 41.6734 21.0774 41.67 21.0697 41.6683L20.7873 42.9838ZM21.496 42.9756C21.7525 42.9108 21.9492 42.7954 22.1106 42.6899L21.3745 41.5637C21.2573 41.6403 21.2079 41.6607 21.1664 41.6712L21.496 42.9756ZM22.1106 42.6898C22.4262 42.4836 22.8325 42.153 23.5105 41.6018L22.6617 40.5579C21.9539 41.1334 21.6161 41.4057 21.3745 41.5637L22.1106 42.6898ZM23.5105 41.6018C27.604 38.2739 37.19 29.8803 39.4936 27.596L38.5462 26.6406C36.288 28.8801 26.7406 37.2419 22.6617 40.5579L23.5105 41.6018ZM39.4936 27.596C39.7504 27.3413 39.9543 27.1375 40.1229 26.9085L39.0397 26.1105C38.9439 26.2406 38.818 26.3711 38.5462 26.6406L39.4936 27.596ZM40.123 26.9085C40.3115 26.6526 40.4197 26.395 40.4977 26.1652L39.2237 25.7327C39.1699 25.8913 39.1157 26.0073 39.0397 26.1105L40.123 26.9085ZM40.4977 26.1652C40.6263 25.7866 40.6938 25.3838 40.6904 24.9869L39.345 24.9983C39.347 25.2377 39.3059 25.4907 39.2237 25.7327L40.4977 26.1652ZM40.6877 25.0526C40.7541 24.311 40.31 23.7161 39.8872 23.3509C39.457 22.9793 38.8872 22.6993 38.3818 22.644L38.2353 23.9814C38.4115 24.0007 38.7346 24.1331 39.0077 24.3691C39.2882 24.6114 39.3578 24.8192 39.3476 24.9326L40.6877 25.0526ZM38.3766 22.6434C37.8599 22.5909 37.1648 22.6487 35.819 22.7176L35.8878 24.0613C37.3374 23.9871 37.8591 23.9432 38.2405 23.982L38.3766 22.6434ZM35.819 22.7176C35.5533 22.7312 35.361 22.7395 35.1253 22.7502L35.1863 24.0943C35.4194 24.0837 35.6171 24.0752 35.8878 24.0613L35.819 22.7176ZM35.5988 23.9285C36.854 22.8298 37.8474 21.9101 39.1642 20.6187L38.2221 19.6581C36.9227 20.9325 35.9479 21.8349 34.7127 22.9161L35.5988 23.9285ZM38.6932 20.1384C39.1432 20.6384 39.1432 20.6384 39.1433 20.6384C39.1433 20.6384 39.1433 20.6383 39.1433 20.6383C39.1434 20.6383 39.1434 20.6382 39.1435 20.6382C39.1436 20.638 39.1438 20.6379 39.144 20.6377C39.1445 20.6373 39.1451 20.6367 39.1459 20.636C39.1475 20.6346 39.1497 20.6325 39.1526 20.6299C39.1585 20.6246 39.1669 20.617 39.1777 20.6072C39.1993 20.5875 39.2304 20.5592 39.269 20.5236C39.3462 20.4526 39.4538 20.3527 39.5763 20.2362C39.8185 20.0061 40.1299 19.7011 40.3783 19.4258L39.3795 18.5244C39.1663 18.7607 38.8848 19.0373 38.6495 19.261C38.5333 19.3714 38.4311 19.4663 38.358 19.5335C38.3216 19.5671 38.2925 19.5936 38.2726 19.6116C38.2627 19.6206 38.2552 19.6275 38.2502 19.632C38.2477 19.6343 38.2458 19.636 38.2446 19.637C38.244 19.6376 38.2436 19.6379 38.2434 19.6382C38.2432 19.6383 38.2431 19.6384 38.2431 19.6384C38.2431 19.6384 38.2431 19.6384 38.2431 19.6384C38.2431 19.6384 38.2431 19.6384 38.2431 19.6384C38.2431 19.6384 38.2431 19.6384 38.6932 20.1384ZM40.3783 19.4258C40.63 19.1469 40.7173 18.799 40.7411 18.5104C40.7655 18.2144 40.7296 17.9082 40.6675 17.631C40.5494 17.1042 40.2963 16.5135 39.9669 16.174L39.0013 17.1109C39.0889 17.2012 39.2641 17.5211 39.3546 17.9252C39.3968 18.1135 39.4102 18.2779 39.4002 18.4C39.3895 18.5296 39.3587 18.5474 39.3795 18.5244L40.3783 19.4258ZM39.8959 16.1105C39.4418 15.759 38.8252 15.5942 38.2136 15.5143C37.5847 15.4323 36.8691 15.4292 36.1426 15.4681C34.6892 15.5461 33.1009 15.7983 31.9079 15.9959L32.1277 17.3232C33.3245 17.125 34.8448 16.8851 36.2147 16.8116C36.8999 16.7749 37.5247 16.7813 38.0394 16.8485C38.5714 16.9179 38.9017 17.0423 39.0722 17.1743L39.8959 16.1105ZM31.9079 15.9959C29.2329 16.4386 26.9923 16.7994 25.3276 17.0563L25.5328 18.386C27.2042 18.128 29.45 17.7664 32.1276 17.3232L31.9079 15.9959ZM25.3276 17.0563C23.648 17.3155 22.5575 17.4649 22.2684 17.4866L22.3692 18.8283C22.7235 18.8017 23.8763 18.6416 25.5328 18.386L25.3276 17.0563ZM22.2676 17.4867C22.2811 17.4857 22.2912 17.4858 22.2817 17.4858C22.2748 17.4859 22.2443 17.4858 22.2091 17.4879L22.2922 18.8308C22.2819 18.8314 22.2729 18.8313 22.2876 18.8313C22.2997 18.8312 22.3314 18.8312 22.37 18.8282L22.2676 17.4867ZM22.9231 18.1395C22.92 18.0359 22.9175 18.0354 22.9173 17.9287L21.5719 17.9313C21.5722 18.0598 21.5767 18.1275 21.5782 18.1792L22.9231 18.1395ZM22.9173 17.9289C22.9166 17.4504 22.9315 16.6112 22.9637 15.1952L21.6186 15.1646C21.5865 16.5765 21.5711 17.433 21.5719 17.931L22.9173 17.9289ZM22.9637 15.1952C23.0179 12.8162 23.0461 10.4057 23.0475 8.52565L21.7021 8.5246C21.7007 10.3938 21.6726 12.7944 21.6186 15.1646L22.9637 15.1952ZM23.0475 8.52568C23.0483 7.58592 23.0422 6.77672 23.0293 6.16618L21.6842 6.19457C21.6968 6.79137 21.7029 7.58975 21.7021 8.52458L23.0475 8.52568ZM23.0293 6.16623C23.0229 5.86204 23.015 5.60265 23.0044 5.39651L21.6608 5.46547C21.6703 5.65144 21.6779 5.89505 21.6842 6.19453L23.0293 6.16623ZM23.0044 5.39651C22.9955 5.22298 22.9913 5.04318 22.9459 4.83501L21.6313 5.12149C21.6477 5.19682 21.6495 5.24688 21.6608 5.46547L23.0044 5.39651ZM22.9459 4.83496C22.9175 4.70453 22.8885 4.55594 22.8529 4.42342L21.5536 4.77249C21.5781 4.86367 21.5927 4.94413 21.6313 5.12154L22.9459 4.83496ZM22.8529 4.42329C22.8192 4.29814 22.7483 4.00971 22.4764 3.73864L21.5265 4.69149C21.5311 4.69611 21.5321 4.69785 21.5313 4.69673C21.5306 4.69562 21.5302 4.69477 21.5306 4.69555C21.5311 4.69676 21.5332 4.70149 21.5369 4.71316C21.5413 4.72697 21.5452 4.74155 21.5536 4.77262L22.8529 4.42329ZM22.3699 3.65225C22.0806 3.4628 21.6592 3.35864 21.305 3.32711C21.1156 3.31026 20.9072 3.31035 20.7049 3.34404C20.512 3.37617 20.2642 3.44881 20.0551 3.62503L20.9224 4.65367C20.8737 4.69468 20.8552 4.68298 20.9259 4.67119C20.9873 4.66097 21.077 4.65758 21.1857 4.66725C21.2924 4.67675 21.3988 4.69718 21.4885 4.72307C21.5328 4.73587 21.5689 4.74882 21.596 4.76027C21.6245 4.77228 21.6352 4.77934 21.633 4.77788L22.3699 3.65225ZM19.451 7.98363C19.4781 8.62558 19.4961 9.45665 19.4961 10.2819H20.8416C20.8416 9.4394 20.8232 8.58935 20.7953 7.92693L19.451 7.98363ZM19.4961 10.2819V11.7591H20.8416V10.2819H19.4961ZM19.7271 11.2517L17.9084 12.835L18.7918 13.8498L20.6105 12.2665L19.7271 11.2517ZM17.9084 12.835C14.7125 15.6171 12.789 17.2848 11.6221 18.2754L12.4928 19.3011C13.6674 18.304 15.5978 16.6302 18.7918 13.8498L17.9084 12.835ZM11.6221 18.2754C11.0423 18.7675 10.6386 19.0931 10.3779 19.296C10.2474 19.3975 10.1541 19.4672 10.0936 19.511C10.0631 19.5331 10.043 19.5472 10.0317 19.5548C10.0019 19.575 10.0332 19.5514 10.0817 19.5281L10.6649 20.7406C10.7231 20.7126 10.7778 20.6745 10.786 20.669C10.8127 20.6509 10.8451 20.628 10.8828 20.6007C10.9588 20.5456 11.0647 20.4663 11.2041 20.3579C11.4831 20.1408 11.902 19.8027 12.4928 19.3011L11.6221 18.2754ZM10.0817 19.5281C10.1088 19.5151 10.1287 19.5081 10.1186 19.5119C10.1168 19.5126 10.111 19.5147 10.1007 19.5183C10.0806 19.5253 10.0499 19.5356 10.0105 19.548C9.93173 19.5729 9.82434 19.6044 9.70421 19.6347L10.0334 20.9393C10.1824 20.9017 10.3151 20.8627 10.4153 20.8311C10.4892 20.8078 10.6 20.7718 10.6649 20.7406L10.0817 19.5281ZM9.70422 19.6347C9.44947 19.699 9.11455 19.7733 8.73582 19.8489L8.99942 21.1683C9.39178 21.0899 9.74999 21.0108 10.0334 20.9393L9.70422 19.6347ZM8.73581 19.8489C7.97864 20.0002 7.06353 20.154 6.25903 20.258L6.43139 21.5923C7.26927 21.4841 8.21491 21.325 8.99943 21.1683L8.73581 19.8489ZM6.34521 20.2524H6.34368V21.5978H6.34521V20.2524ZM6.25753 20.2579C5.94291 20.2986 5.57954 20.3255 5.28812 20.3337L5.32614 21.6786C5.65987 21.6692 6.06815 21.639 6.42984 21.5923L6.25753 20.2579ZM5.62854 21.0608C5.95245 20.6935 6.61529 20.0003 7.86075 18.8935L6.967 17.8878C5.69211 19.0208 4.98821 19.7527 4.61942 20.1709L5.62854 21.0608ZM7.86075 18.8935C10.6824 16.3859 13.9582 13.5266 16.5488 11.2962L15.671 10.2766C13.0755 12.5111 9.79447 15.375 6.967 17.8878L7.86075 18.8935ZM16.5488 11.2962C17.8444 10.1807 18.9668 9.22413 19.7738 8.54876L18.9103 7.51697C18.0963 8.19821 16.9685 9.15948 15.671 10.2766L16.5488 11.2962ZM19.7738 8.54876C19.8955 8.44692 20.0029 8.35775 20.101 8.2769L19.2452 7.23872C19.1445 7.32169 19.0345 7.41299 18.9103 7.51697L19.7738 8.54876ZM19.4876 14.6275C19.4956 15.0088 19.5004 15.4844 19.5004 16.4003H20.8459C20.8459 15.4803 20.841 14.9942 20.8328 14.5995L19.4876 14.6275ZM19.5004 16.4003V18.6106H20.8459V16.4003H19.5004ZM20.0593 17.9475C19.8297 17.9869 18.4753 18.2169 16.7647 18.507L16.9897 19.8335C18.6992 19.5436 20.0556 19.3133 20.2869 19.2736L20.0593 17.9475ZM16.7647 18.507C15.8759 18.6577 15.0606 18.7942 14.4458 18.8943L14.6622 20.2223C15.2811 20.1214 16.0997 19.9844 16.9897 19.8335L16.7647 18.507ZM15.0154 20.0479C15.5929 19.5036 16.4515 18.7124 17.9369 17.4118L17.0506 16.3996C15.5542 17.7098 14.6833 18.512 14.0926 19.0687L15.0154 20.0479ZM17.9369 17.4118C19.2785 16.2372 20.0652 15.5562 20.5278 15.1787L19.6771 14.1363C19.1925 14.5317 18.3864 15.2301 17.0506 16.3995L17.9369 17.4118ZM20.5275 15.179C20.5292 15.1776 20.5284 15.1782 20.5261 15.18C20.5237 15.1818 20.5219 15.1831 20.5245 15.1812C20.5267 15.1796 20.536 15.173 20.5464 15.1652C20.5577 15.1568 20.5693 15.1478 20.5818 15.1378L19.7386 14.0893C19.7381 14.0897 19.7394 14.0887 19.7418 14.0869C19.7434 14.0857 19.7453 14.0844 19.7398 14.0883C19.7348 14.0919 19.7252 14.0988 19.7134 14.1077C19.7016 14.1166 19.6899 14.1259 19.6774 14.1361L20.5275 15.179ZM36.6092 18.2935C36.4738 18.4449 36.3109 18.6156 36.1197 18.7972L37.0463 19.7727C37.2658 19.5642 37.4542 19.367 37.6122 19.1903L36.6092 18.2935ZM36.1197 18.7971C35.391 19.4892 34.2286 20.5144 32.4309 22.0615L33.3085 23.0813C35.1044 21.5358 36.2905 20.4905 37.0463 19.7727L36.1197 18.7971ZM32.4309 22.0615C31.9118 22.5081 31.4272 22.9164 31.0681 23.2114L31.922 24.2511C32.2912 23.9479 32.7839 23.5326 33.3085 23.0813L32.4309 22.0615ZM31.0681 23.2114C30.8869 23.3602 30.7417 23.4774 30.6439 23.5532L31.4683 24.6165C31.5817 24.5285 31.739 24.4014 31.922 24.2511L31.0681 23.2114ZM30.6437 23.5534C30.6102 23.5794 30.5907 23.5938 30.5704 23.6087L31.3659 24.6937C31.3939 24.6732 31.4234 24.6513 31.4686 24.6162L30.6437 23.5534ZM30.8466 23.4896C30.7998 23.4982 30.7225 23.513 30.5517 23.5428L30.7827 24.8683C30.9615 24.8371 31.0486 24.8204 31.0897 24.8128L30.8466 23.4896ZM30.5519 23.5428C30.3359 23.5804 30.0407 23.6303 29.6898 23.6897L29.9147 25.0163C30.2636 24.9571 30.5628 24.9065 30.7825 24.8683L30.5519 23.5428ZM29.6898 23.6897C28.9908 23.8082 28.0783 23.9613 27.1514 24.1154L27.3721 25.4426C28.3 25.2884 29.214 25.135 29.9147 25.0163L29.6898 23.6897ZM27.1514 24.1154C25.2911 24.4246 23.3666 24.7392 23.0278 24.7873L23.217 26.1194C23.5761 26.0684 25.5226 25.7501 27.3721 25.4426L27.1514 24.1154ZM23.0278 24.7873C22.8053 24.8189 22.6326 24.8427 22.516 24.8585C22.4576 24.8663 22.4133 24.8723 22.3837 24.8762C22.3689 24.8781 22.3578 24.8796 22.3504 24.8805C22.3468 24.881 22.344 24.8814 22.3423 24.8816C22.3414 24.8817 22.3408 24.8818 22.3404 24.8818C22.3402 24.8819 22.34 24.8819 22.3399 24.8819C22.3399 24.8819 22.3399 24.8819 22.3399 24.8819C22.3398 24.8819 22.3398 24.8819 22.3398 24.8819C22.3398 24.8819 22.3399 24.8819 22.3399 24.8819C22.3399 24.8819 22.3399 24.8819 22.426 25.5491C22.5122 26.2163 22.5122 26.2163 22.5122 26.2163C22.5122 26.2163 22.5122 26.2163 22.5122 26.2163C22.5123 26.2163 22.5123 26.2163 22.5123 26.2163C22.5124 26.2162 22.5124 26.2162 22.5125 26.2162C22.5127 26.2162 22.5129 26.2162 22.5132 26.2161C22.5137 26.2161 22.5145 26.216 22.5156 26.2158C22.5177 26.2156 22.5207 26.2152 22.5247 26.2146C22.5327 26.2136 22.5445 26.2121 22.5599 26.21C22.5909 26.2059 22.6366 26.1998 22.6963 26.1918C22.8158 26.1756 22.9914 26.1515 23.217 26.1194L23.0278 24.7873ZM23.0987 25.5529L23.1285 20.3417L21.7831 20.334L21.7533 25.5452L23.0987 25.5529ZM22.4558 20.3379C22.566 21.0015 22.566 21.0015 22.566 21.0015C22.5661 21.0015 22.5661 21.0015 22.5662 21.0015C22.5663 21.0014 22.5665 21.0014 22.5667 21.0014C22.5672 21.0013 22.568 21.0012 22.5689 21.001C22.5709 21.0007 22.5738 21.0002 22.5776 20.9996C22.5853 20.9983 22.5967 20.9964 22.6117 20.9939C22.6416 20.989 22.6856 20.9816 22.7422 20.9722C22.8555 20.9534 23.019 20.9263 23.2202 20.8929C23.6224 20.826 24.1751 20.7342 24.7767 20.6341C25.9797 20.434 27.379 20.2008 28.1624 20.0691L27.9392 18.7423C27.1572 18.8738 25.7591 19.1067 24.5559 19.3069C23.9544 19.407 23.4019 19.4988 22.9997 19.5656C22.7986 19.599 22.6351 19.6262 22.5218 19.645C22.4652 19.6544 22.4212 19.6617 22.3913 19.6667C22.3763 19.6691 22.3649 19.671 22.3573 19.6723C22.3534 19.6729 22.3505 19.6734 22.3486 19.6737C22.3476 19.6739 22.3469 19.674 22.3464 19.6741C22.3462 19.6741 22.346 19.6742 22.3459 19.6742C22.3458 19.6742 22.3457 19.6742 22.3457 19.6742C22.3457 19.6742 22.3457 19.6742 22.4558 20.3379ZM28.1624 20.0691C32.4933 19.3407 35.4585 18.9558 36.847 18.7905L36.688 17.4545C35.2794 17.6222 32.2927 18.0101 27.9392 18.7423L28.1624 20.0691ZM20.0484 25.2994C19.8503 25.3368 19.3217 25.4306 18.4163 25.5814L18.6375 26.9086C19.545 26.7574 20.0851 26.6616 20.2979 26.6215L20.0484 25.2994ZM18.4163 25.5814C17.3858 25.7532 16.0401 25.9739 14.6355 26.201L14.8502 27.5291C16.2565 27.3018 17.6044 27.0807 18.6375 26.9086L18.4163 25.5814ZM14.6355 26.201C11.8238 26.6555 8.77802 27.1371 7.55075 27.3152L7.74399 28.6467C8.98381 28.4667 12.0403 27.9834 14.8502 27.5291L14.6355 26.201ZM7.55075 27.3152C6.55259 27.4601 5.47087 27.5766 5.06913 27.5925L5.12217 28.9368C5.5979 28.9181 6.73747 28.7928 7.744 28.6467L7.55075 27.3152ZM5.49851 28.4442C5.56789 28.3547 5.66756 28.2378 5.804 28.098L4.84087 27.1585C4.6722 27.3314 4.53858 27.4865 4.43529 27.6197L5.49851 28.4442ZM5.804 28.098C6.37075 27.5169 7.48066 26.5272 9.55659 24.709L8.67015 23.6969C6.61312 25.4985 5.45377 26.5302 4.84087 27.1585L5.804 28.098ZM9.55655 24.7091L11.8659 22.6868L10.9796 21.6746L8.67019 23.6969L9.55655 24.7091ZM11.5329 22.8444L15.6705 22.1579L15.4503 20.8306L11.3127 21.5171L11.5329 22.8444ZM15.6705 22.1579C17.9585 21.7782 19.9057 21.4504 20.2961 21.3778L20.0502 20.0551C19.6762 20.1246 17.747 20.4495 15.4502 20.8307L15.6705 22.1579ZM36.522 25.5834C35.5045 26.5786 33.0919 28.8361 27.684 33.5301L28.566 34.5462C33.9818 29.8452 36.4174 27.5677 37.4628 26.5453L36.522 25.5834ZM27.684 33.5301C25.3819 35.5283 23.1111 37.5029 22.6291 37.9266L23.5174 38.9371C23.9954 38.5169 26.2621 36.546 28.566 34.5462L27.684 33.5301ZM23.1006 38.1599C23.1055 37.3853 23.1074 36.5049 23.108 35.8187C23.1084 35.4754 23.1084 35.1805 23.1083 34.9714C23.1083 34.8669 23.1083 34.7837 23.1082 34.7267C23.1082 34.6982 23.1082 34.6763 23.1082 34.6614C23.1082 34.654 23.1081 34.6483 23.1081 34.6445C23.1081 34.6426 23.1081 34.6412 23.1081 34.6402C23.1081 34.6398 23.1081 34.6394 23.1081 34.6392C23.1081 34.639 23.1081 34.6389 23.1081 34.6389C23.1081 34.6388 23.1081 34.6388 23.1081 34.6388C23.1081 34.6388 23.1081 34.6388 22.4354 34.6395C21.7627 34.6403 21.7627 34.6403 21.7627 34.6403C21.7627 34.6403 21.7627 34.6403 21.7627 34.6404C21.7627 34.6404 21.7627 34.6405 21.7627 34.6406C21.7627 34.6409 21.7627 34.6412 21.7627 34.6417C21.7627 34.6426 21.7627 34.6441 21.7627 34.6459C21.7627 34.6497 21.7627 34.6553 21.7627 34.6627C21.7627 34.6774 21.7628 34.6993 21.7628 34.7277C21.7628 34.7845 21.7629 34.8674 21.7629 34.9718C21.7629 35.1804 21.7629 35.4748 21.7626 35.8174C21.7619 36.5028 21.7601 37.3804 21.7552 38.1514L23.1006 38.1599ZM22.894 35.1317C24.5673 33.5727 26.2591 32.0334 27.7945 30.6939L26.91 29.68C25.3601 31.0322 23.6569 32.582 21.9768 34.1473L22.894 35.1317ZM27.7944 30.694L32.5649 26.534L31.6807 25.5199L26.9101 29.6799L27.7944 30.694ZM32.2312 26.6909L33.1289 26.5443L32.9121 25.2164L32.0144 25.363L32.2312 26.6909ZM33.1288 26.5443C34.7538 26.2792 35.9769 26.1468 36.7494 26.0813L36.6357 24.7407C35.8303 24.809 34.5728 24.9455 32.9122 25.2164L33.1288 26.5443ZM27.4675 26.3394C25.7173 27.8798 23.8543 29.4795 21.99 31.0744L22.8646 32.0968C24.7293 30.5015 26.5985 28.8965 28.3564 27.3493L27.4675 26.3394ZM23.1 31.5927C23.1069 30.936 23.1125 29.952 23.1164 29.1335C23.1184 28.724 23.1199 28.3555 23.1209 28.0893C23.1214 27.9562 23.1218 27.8487 23.1221 27.7744C23.1222 27.7373 23.1223 27.7085 23.1224 27.6889C23.1224 27.6792 23.1225 27.6717 23.1225 27.6667C23.1225 27.6642 23.1225 27.6623 23.1225 27.661C23.1225 27.6604 23.1225 27.6599 23.1225 27.6596C23.1225 27.6594 23.1225 27.6593 23.1225 27.6592C23.1225 27.6592 23.1225 27.6592 23.1225 27.6592C23.1225 27.6591 23.1225 27.6591 22.4498 27.6569C21.7771 27.6547 21.7771 27.6547 21.7771 27.6547C21.7771 27.6547 21.7771 27.6547 21.7771 27.6548C21.7771 27.6549 21.7771 27.655 21.7771 27.6551C21.7771 27.6554 21.7771 27.6559 21.7771 27.6565C21.7771 27.6578 21.777 27.6597 21.777 27.6622C21.777 27.6672 21.777 27.6746 21.777 27.6843C21.7769 27.7038 21.7768 27.7325 21.7767 27.7696C21.7764 27.8437 21.776 27.9511 21.7755 28.0841C21.7745 28.35 21.7729 28.7181 21.771 29.1271C21.7671 29.9457 21.7615 30.9261 21.7546 31.5785L23.1 31.5927ZM22.5536 28.3215L24.4594 28.0238L24.2518 26.6945L22.346 26.9922L22.5536 28.3215ZM24.466 28.0228C26.901 27.6176 27.4318 27.5662 27.9762 27.514L27.8478 26.1747C27.2604 26.231 26.696 26.2878 24.2452 26.6956L24.466 28.0228ZM1 30.5996C0.385487 30.8733 0.385626 30.8737 0.385769 30.874C0.385821 30.8741 0.385967 30.8744 0.386071 30.8746C0.386279 30.8751 0.386501 30.8756 0.386737 30.8761C0.387208 30.8772 0.387734 30.8783 0.388315 30.8796C0.389477 30.8822 0.39086 30.8852 0.392466 30.8886C0.395678 30.8955 0.399787 30.9042 0.404813 30.9146C0.41486 30.9352 0.428602 30.9626 0.446211 30.9957C0.48138 31.0617 0.532271 31.1511 0.600311 31.256C0.735825 31.4649 0.942839 31.7405 1.23389 32.0157C1.82323 32.5728 2.75519 33.1232 4.08947 33.1101L4.07624 31.7647C3.15615 31.7738 2.54669 31.4053 2.15819 31.038C1.96032 30.8509 1.81932 30.6629 1.72904 30.5238C1.68419 30.4546 1.65274 30.3989 1.63379 30.3633C1.62435 30.3456 1.61809 30.333 1.6149 30.3264C1.6133 30.3232 1.61249 30.3214 1.61242 30.3213C1.61239 30.3212 1.61255 30.3216 1.6129 30.3223C1.61308 30.3227 1.6133 30.3232 1.61357 30.3238C1.6137 30.3241 1.61385 30.3244 1.61401 30.3248C1.61408 30.3249 1.61421 30.3252 1.61425 30.3253C1.61438 30.3256 1.61451 30.3259 1 30.5996ZM4.08947 33.1101C5.0774 33.1004 5.90579 33.0459 6.48902 32.9936C6.78076 32.9675 7.01155 32.9418 7.17071 32.9225C7.2503 32.9129 7.31202 32.9048 7.35452 32.899C7.37577 32.8961 7.39223 32.8938 7.40372 32.8922C7.40946 32.8914 7.41396 32.8907 7.4172 32.8903C7.41882 32.89 7.42013 32.8898 7.42112 32.8897C7.42161 32.8896 7.42202 32.8896 7.42236 32.8895C7.42253 32.8895 7.42267 32.8895 7.4228 32.8895C7.42286 32.8894 7.42294 32.8894 7.42298 32.8894C7.42305 32.8894 7.42312 32.8894 7.32414 32.224C7.22515 31.5586 7.22521 31.5586 7.22526 31.5586C7.22528 31.5586 7.22533 31.5586 7.22535 31.5586C7.2254 31.5586 7.22543 31.5586 7.22543 31.5586C7.22545 31.5586 7.22539 31.5586 7.22524 31.5586C7.22496 31.5586 7.22436 31.5587 7.22345 31.5589C7.22163 31.5591 7.21856 31.5596 7.21426 31.5602C7.20566 31.5614 7.19215 31.5633 7.17389 31.5658C7.13738 31.5707 7.08188 31.578 7.00874 31.5869C6.86242 31.6046 6.64561 31.6287 6.36885 31.6536C5.81506 31.7032 5.02281 31.7554 4.07624 31.7647L4.08947 33.1101ZM9.65303 32.6047L11.8954 32.1562L11.6316 30.8369L9.38917 31.2854L9.65303 32.6047ZM22.2975 1.38418C22.7258 0.865383 22.7254 0.865101 22.7251 0.864814C22.725 0.864714 22.7246 0.864423 22.7244 0.864221C22.7239 0.863817 22.7234 0.863396 22.7228 0.86296C22.7217 0.862086 22.7206 0.861147 22.7194 0.860145C22.7169 0.858141 22.7141 0.855883 22.7109 0.853384C22.7046 0.848389 22.6969 0.842428 22.6879 0.835619C22.6698 0.82201 22.6463 0.804958 22.6176 0.785418C22.5603 0.746413 22.4813 0.697022 22.3823 0.645191C22.1848 0.541853 21.902 0.42607 21.5481 0.366807C20.816 0.244222 19.8629 0.377993 18.8276 1.17934L19.6511 2.24331C20.3986 1.66476 20.9746 1.63495 21.3259 1.69377C21.5137 1.72521 21.6612 1.78637 21.7585 1.8373C21.8069 1.86261 21.8415 1.88468 21.8609 1.89786C21.8705 1.90441 21.8762 1.90863 21.8777 1.90977C21.8784 1.91033 21.8781 1.91012 21.8767 1.90902C21.876 1.90847 21.8751 1.9077 21.8738 1.9067C21.8732 1.9062 21.8725 1.90564 21.8718 1.90502C21.8714 1.90471 21.871 1.90438 21.8706 1.90404C21.8704 1.90387 21.87 1.90361 21.8699 1.90352C21.8696 1.90325 21.8693 1.90298 22.2975 1.38418ZM18.8276 1.17934C18.0463 1.78406 17.4192 2.32804 16.9861 2.72213C16.7694 2.91927 16.601 3.07916 16.4859 3.19071C16.4283 3.2465 16.384 3.29022 16.3536 3.32049C16.3384 3.33563 16.3267 3.3474 16.3185 3.35565C16.3145 3.35977 16.3113 3.36301 16.309 3.36534C16.3078 3.36651 16.3069 3.36745 16.3062 3.36816C16.3058 3.36852 16.3055 3.36882 16.3053 3.36906C16.3052 3.36918 16.3051 3.36929 16.305 3.36938C16.305 3.36942 16.3049 3.36948 16.3049 3.36951C16.3048 3.36956 16.3048 3.36961 16.7857 3.83997C17.2667 4.31034 17.2666 4.31038 17.2666 4.31042C17.2666 4.31043 17.2665 4.31047 17.2665 4.31048C17.2665 4.31052 17.2665 4.31054 17.2665 4.31054C17.2665 4.31055 17.2665 4.31051 17.2666 4.31041C17.2668 4.3102 17.2672 4.30977 17.2679 4.30911C17.2692 4.3078 17.2713 4.30559 17.2744 4.30251C17.2805 4.29634 17.2901 4.28667 17.3032 4.27366C17.3293 4.24765 17.3691 4.20833 17.422 4.15707C17.5279 4.05452 17.6861 3.90427 17.8916 3.71726C18.3028 3.34306 18.9025 2.82271 19.6511 2.24331L18.8276 1.17934ZM14.543 5.17281C14.5363 5.17963 14.5343 5.18165 14.5276 5.1884C14.5263 5.18969 14.5251 5.19097 14.5238 5.19226C14.5225 5.19354 14.5213 5.19482 14.52 5.1961C14.5187 5.19738 14.5175 5.19866 14.5162 5.19993C14.5149 5.20121 14.5137 5.20248 14.5124 5.20375C14.4938 5.22258 14.5011 5.21521 14.4828 5.23372C14.4437 5.27324 14.4929 5.22353 14.4541 5.26274C14.4451 5.27185 14.449 5.26787 14.4401 5.2769C14.4208 5.29639 14.4455 5.27141 14.4263 5.29083C14.4112 5.30605 14.4142 5.30307 14.3994 5.31799C14.3943 5.32314 14.3913 5.32617 14.3863 5.33123C14.3846 5.33298 14.3751 5.34258 14.3734 5.34425C14.3362 5.38189 14.3853 5.33228 14.3483 5.36962C14.3423 5.37566 14.3481 5.3698 14.3422 5.37583C14.3392 5.3788 14.339 5.37902 14.3361 5.38198C14.336 5.38203 14.3301 5.38804 14.3301 5.38807C14.3287 5.38946 14.3254 5.39276 14.3241 5.39412C14.318 5.40024 14.3242 5.394 14.3182 5.40011C14.3081 5.41032 14.3224 5.39584 14.3123 5.40604C14.301 5.41745 14.3119 5.40642 14.3007 5.41775C14.2665 5.45233 14.3121 5.40625 14.2781 5.44054C14.2705 5.44824 14.242 5.47705 14.2355 5.48366C14.2099 5.50957 14.2407 5.47836 14.2154 5.50401C14.2145 5.50484 14.2137 5.50567 14.2129 5.5065C14.2121 5.50733 14.2113 5.50815 14.2104 5.50897C14.203 5.51647 14.213 5.50641 14.2056 5.51389C14.2045 5.51497 14.197 5.52256 14.196 5.52358C14.1618 5.5581 14.1927 5.52691 14.1595 5.56043C14.1454 5.57476 14.1392 5.58097 14.126 5.59433C14.0891 5.63161 14.1469 5.57317 14.1103 5.61022C14.1085 5.61201 14.1044 5.61617 14.1027 5.6179C14.0996 5.62106 14.0983 5.62231 14.0952 5.62541C14.0908 5.62994 14.0708 5.65015 14.0672 5.6538C14.0507 5.67049 14.0573 5.66374 14.0416 5.6796C14.0169 5.70462 14.0194 5.70205 13.9978 5.72396C13.9675 5.75454 13.9901 5.73168 13.9626 5.75948C13.9568 5.76531 13.9386 5.78376 13.9352 5.78714C13.9301 5.79234 13.9345 5.78789 13.9295 5.79295C13.9289 5.79359 13.9274 5.79508 13.9268 5.79569C13.9232 5.79936 13.9278 5.7947 13.9242 5.79834C13.92 5.80257 13.9233 5.79923 13.9192 5.80333C13.9109 5.81174 13.9229 5.79964 13.9147 5.80793C13.9077 5.81498 13.9051 5.81758 13.8999 5.82283C13.8928 5.83007 13.8958 5.82704 13.8901 5.83281C13.8864 5.83654 13.8866 5.83629 13.8841 5.83887C13.8815 5.84146 13.8827 5.8402 13.881 5.84198C13.8808 5.84222 13.8803 5.84264 13.8802 5.84274C13.8798 5.84322 13.8805 5.84252 13.88 5.84297C13.8797 5.84325 13.8802 5.84278 13.8799 5.84306C13.8799 5.8431 13.8799 5.84308 13.8799 5.84313C13.8797 5.84326 13.8798 5.84319 13.8797 5.84327C13.8797 5.84327 13.8797 5.84328 13.8797 5.84328C13.8797 5.84328 13.8797 5.84328 13.8797 5.84328C13.8797 5.84328 13.8797 5.84328 13.8797 5.84328C13.8797 5.8433 13.8797 5.84328 13.8797 5.84329C13.8797 5.84329 13.8797 5.84329 13.8797 5.84329C13.8797 5.84329 13.8797 5.84329 13.8797 5.84329C13.8797 5.84329 13.8797 5.84329 13.8797 5.84329C13.8797 5.84329 13.8797 5.84329 13.8797 5.84329L14.3579 6.31642L14.8361 6.78956C14.8361 6.78956 14.8361 6.78956 14.8361 6.78956V6.78956C14.8361 6.78955 14.8361 6.78956 14.8361 6.78955C14.8362 6.78951 14.8361 6.7896 14.8361 6.78955C14.8361 6.78955 14.8361 6.78954 14.8362 6.78954C14.8362 6.78953 14.8362 6.78954 14.8362 6.78953C14.8362 6.78949 14.8361 6.78955 14.8362 6.78952C14.837 6.7887 14.8354 6.79032 14.8362 6.7895C14.8362 6.7895 14.8362 6.78949 14.8362 6.78949C14.8362 6.78947 14.8362 6.78948 14.8362 6.78947C14.8363 6.7894 14.8362 6.78952 14.8362 6.78945C14.8363 6.78943 14.8363 6.78942 14.8363 6.78939C14.8384 6.78728 14.8348 6.79085 14.8374 6.78825C14.841 6.78462 14.8361 6.78959 14.8405 6.78514C14.8429 6.78267 14.8392 6.78647 14.8417 6.78394C14.842 6.78365 14.842 6.78357 14.8424 6.78326C14.8427 6.78288 14.8427 6.78295 14.8431 6.78254C14.8545 6.77095 14.8347 6.79097 14.8465 6.77908C14.8866 6.73851 14.8245 6.80132 14.8711 6.7542C14.9001 6.72491 14.881 6.7442 14.919 6.70575C14.9521 6.67237 14.9184 6.70639 14.9542 6.67023C14.9665 6.65775 14.9518 6.67266 14.9643 6.66C14.9718 6.65238 14.962 6.66235 14.9696 6.65468C14.97 6.65423 14.9705 6.65378 14.9709 6.65333C14.9714 6.65287 14.9718 6.65242 14.9723 6.65196C14.9783 6.64587 14.9689 6.65531 14.975 6.64921C14.9754 6.64875 14.9759 6.64829 14.9764 6.64782C14.9768 6.64736 14.9773 6.64689 14.9777 6.64642C14.9782 6.64596 14.9787 6.64549 14.9791 6.64502C14.9796 6.64454 14.9801 6.64407 14.9805 6.6436C14.9849 6.63919 14.9818 6.6423 14.9862 6.63784C14.9892 6.63482 14.9949 6.62909 14.9981 6.62586C14.9986 6.62531 15.0222 6.60145 15.0236 6.60006C15.0437 6.57977 15.0307 6.59285 15.0517 6.57168C15.0786 6.54445 15.0853 6.53769 15.116 6.5067C15.1315 6.49098 15.1048 6.51799 15.1204 6.50225C15.1211 6.50151 15.1219 6.50076 15.1226 6.50002C15.1233 6.49927 15.1241 6.49852 15.1248 6.49777C15.1256 6.49701 15.1263 6.49626 15.1271 6.4955C15.1278 6.49475 15.1286 6.49399 15.1293 6.49323C15.1331 6.4894 15.13 6.4925 15.1338 6.48865C15.1341 6.48838 15.1427 6.47968 15.143 6.47934C15.1443 6.47812 15.1512 6.47113 15.1524 6.46985C15.159 6.46324 15.165 6.45714 15.1718 6.45028C15.1844 6.43751 15.1691 6.45303 15.1818 6.4402C15.2005 6.42128 15.1732 6.44891 15.1919 6.42992C15.2019 6.41983 15.1922 6.42962 15.2023 6.41945C15.2032 6.41857 15.204 6.41769 15.2049 6.4168C15.2058 6.41592 15.2067 6.41503 15.2076 6.41414C15.2078 6.4139 15.2126 6.40903 15.2129 6.40878C15.2137 6.40788 15.2146 6.40698 15.2155 6.40608C15.2164 6.40517 15.2173 6.40427 15.2182 6.40336C15.2465 6.37482 15.1954 6.42646 15.2236 6.3979C15.2353 6.38612 15.2229 6.39866 15.2346 6.38681C15.2372 6.38418 15.2543 6.36693 15.2571 6.36402C15.2581 6.36305 15.2591 6.36208 15.26 6.36111C15.261 6.36014 15.2619 6.35917 15.2629 6.35819C15.2724 6.34861 15.2592 6.3619 15.2687 6.35231C15.295 6.32578 15.2542 6.36699 15.2805 6.34039C15.3768 6.24304 15.3837 6.23606 15.4995 6.11907L14.543 5.17281ZM23.5354 44.5685L29.5151 39.5319L28.6484 38.5029L22.6686 43.5395L23.5354 44.5685ZM25.0355 45.5125L27.5538 43.3715L26.6824 42.3464L24.164 44.4875L25.0355 45.5125ZM29.0392 42.0119L29.8787 41.2809L28.9951 40.2663L28.1557 40.9972L29.0392 42.0119ZM19.5004 20.7164V25.9604H20.8459V20.7164H19.5004ZM22.6331 37.9232C22.7209 37.8472 22.8355 37.8425 22.9175 37.8769C23.0051 37.9137 23.1015 38.0174 23.1006 38.1599L21.7552 38.1514C21.7491 39.1308 22.8847 39.4847 23.5135 38.9405L22.6331 37.9232ZM5.2882 20.3337C5.43963 20.3295 5.60826 20.4184 5.68835 20.589C5.76853 20.7598 5.72907 20.9468 5.62854 21.0608L4.61942 20.1709C4.37429 20.4489 4.31714 20.8341 4.47041 21.1607C4.62359 21.487 4.95609 21.6891 5.32606 21.6786L5.2882 20.3337ZM37.6122 19.1903C37.9251 18.8404 37.9722 18.3625 37.7582 17.9816C37.5493 17.6098 37.1329 17.4015 36.688 17.4545L36.847 18.7905C36.7733 18.7993 36.6531 18.7614 36.5853 18.6407C36.5535 18.5841 36.538 18.5155 36.546 18.4451C36.5543 18.3725 36.5849 18.3207 36.6092 18.2935L37.6122 19.1903ZM37.4628 26.5453C37.7951 26.2202 37.8884 25.7465 37.703 25.3429C37.5178 24.9395 37.0982 24.7015 36.6357 24.7407L36.7494 26.0813C36.6738 26.0877 36.5429 26.0406 36.4803 25.9043C36.4175 25.7676 36.4673 25.6369 36.522 25.5834L37.4628 26.5453ZM5.07017 27.5924C5.2564 27.5854 5.44077 27.684 5.53896 27.8582C5.64192 28.0409 5.62981 28.2749 5.49851 28.4442L4.43529 27.6197C4.22458 27.8914 4.21209 28.2442 4.3669 28.5189C4.51694 28.785 4.80539 28.9489 5.12113 28.9369L5.07017 27.5924ZM20.7953 7.92688C20.7616 7.13011 19.8367 6.75113 19.2452 7.23872L20.101 8.2769C19.8591 8.47627 19.4656 8.32773 19.451 7.98369L20.7953 7.92688Z" fill="#63358D"/>
</svg>
