<svg width="176" height="136" viewBox="0 0 176 136" fill="none" xmlns="http://www.w3.org/2000/svg">
<path d="M100.318 62.3017L125.368 31.9574C128.316 28.386 128.166 23.3938 125.033 20.8075L124.074 20.0167C120.941 17.43 116.011 18.2286 113.063 21.8L110.675 24.6925C110.427 24.0795 110.044 23.5276 109.514 23.0904L109.022 22.6841C107.119 21.1133 104.125 21.5978 102.335 23.7669L96.119 31.2961C95.7668 31.0485 95.4083 30.8145 95.044 30.5932L96.8018 28.4637C98.0351 26.9696 97.9726 24.881 96.6616 23.7992L96.4868 23.6546C95.1758 22.5727 93.1132 22.9063 91.8799 24.4004L88.7862 28.1477C87.5451 27.8932 86.2776 27.753 84.9969 27.7252L89.3367 22.4682C91.1272 20.2991 91.0359 17.2678 89.133 15.6971L88.6406 15.2907C86.7377 13.7199 83.7436 14.2049 81.9535 16.3735L65.2814 36.5702C64.9263 37 64.6489 37.4645 64.4413 37.9441C56.1541 48.441 56.7162 62.8302 65.8167 70.3428C75.0593 77.9726 89.6014 75.6178 98.2979 65.0833C99.0393 64.1851 99.7095 63.2542 100.318 62.3017Z" fill="#D0ACFF"/>
<path d="M102.749 19.4395C104.512 19.4395 105.941 18.0102 105.941 16.2471C105.941 14.484 104.512 13.0547 102.749 13.0547C100.986 13.0547 99.5566 14.484 99.5566 16.2471C99.5566 18.0102 100.986 19.4395 102.749 19.4395Z" fill="#D0ACFF"/>
<path d="M114.298 5.99295C112.506 8.16462 112.779 11.35 114.908 13.1078C117.037 14.8656 120.217 14.5301 122.01 12.3584C123.802 10.1868 123.529 7.00131 121.4 5.24353C119.27 3.48576 116.091 3.82129 114.298 5.99295Z" fill="#D0ACFF"/>
<path d="M49.7041 59.5246C47.893 58.9908 48.0825 56.3176 49.3202 54.8919L78.5137 21.3303C79.7519 19.9045 82.514 19.2779 83.3214 21.0177C83.4616 21.319 83.4435 22.3203 83.4435 22.3203L83.5251 86.7527C83.5251 86.7527 83.7639 88.6777 83.8508 88.8691C84.6309 90.5889 86.7541 89.9417 87.9917 88.516L117.132 54.9544C118.37 53.5287 118.712 50.8579 116.901 50.3241C116.51 50.2088 115.176 50.3617 115.176 50.3617L51.078 59.5168C51.078 59.5168 50.0411 59.6238 49.7041 59.5246Z" fill="#3E0672" stroke="#3E0672" stroke-width="1.95373" stroke-miterlimit="10"/>
<path d="M49.7041 50.2439C47.893 49.7101 48.0825 47.0369 49.3202 45.6112L78.5137 12.0496C79.7519 10.6238 82.514 9.99716 83.3214 11.737C83.4616 12.0383 83.4435 13.0396 83.4435 13.0396L83.5251 77.472C83.5251 77.472 83.7639 79.3969 83.8508 79.5884C84.6309 81.3082 86.7541 80.661 87.9917 79.2353L117.132 45.6737C118.37 44.2479 118.712 41.5772 116.901 41.0433C116.51 40.9281 115.176 41.0809 115.176 41.0809L51.078 50.2361C51.078 50.2361 50.0411 50.3431 49.7041 50.2439Z" fill="#9638FF" stroke="#9638FF" stroke-width="1.95373" stroke-miterlimit="10"/>
<path d="M52.2139 113.403C51.0062 113.403 50.0423 113.134 49.3223 112.597C48.6068 112.059 48.1852 111.293 48.0576 110.3C48.0439 110.177 48.1009 110.115 48.2285 110.115H50.1836C50.2702 110.115 50.3271 110.159 50.3545 110.245C50.4456 110.728 50.6393 111.084 50.9355 111.312C51.2363 111.539 51.6533 111.653 52.1865 111.653C52.6468 111.653 53.0068 111.553 53.2666 111.353C53.5264 111.152 53.6562 110.874 53.6562 110.519C53.6562 110.204 53.556 109.967 53.3555 109.808C53.1595 109.644 52.8268 109.523 52.3574 109.445L51.209 109.247C50.1973 109.088 49.4453 108.771 48.9531 108.297C48.4609 107.818 48.2148 107.169 48.2148 106.349C48.2148 105.419 48.5361 104.692 49.1787 104.168C49.8258 103.644 50.7259 103.382 51.8789 103.382C52.9954 103.382 53.8955 103.637 54.5791 104.147C55.2627 104.658 55.6751 105.378 55.8164 106.308C55.821 106.362 55.8073 106.408 55.7754 106.444C55.748 106.476 55.7093 106.492 55.6592 106.492H53.6973C53.6016 106.492 53.5423 106.435 53.5195 106.321C53.4284 105.911 53.2529 105.61 52.9932 105.419C52.7334 105.228 52.3757 105.132 51.9199 105.132C51.4779 105.132 51.1406 105.223 50.9082 105.405C50.6803 105.588 50.5664 105.852 50.5664 106.198C50.5664 106.513 50.6758 106.761 50.8945 106.943C51.1133 107.126 51.4551 107.26 51.9199 107.347L53.082 107.524C54.1302 107.693 54.8799 108.001 55.3311 108.447C55.7822 108.894 56.0078 109.552 56.0078 110.423C56.0078 111.343 55.6683 112.07 54.9893 112.604C54.3102 113.137 53.3851 113.403 52.2139 113.403ZM60.8887 113.403C59.6992 113.403 58.7559 113.071 58.0586 112.405C57.3659 111.74 57.0195 110.838 57.0195 109.698C57.0195 108.563 57.3682 107.661 58.0654 106.991C58.7627 106.321 59.6992 105.986 60.875 105.986C62.028 105.986 62.9258 106.312 63.5684 106.964C64.2155 107.616 64.5391 108.522 64.5391 109.685V110.074C64.5391 110.174 64.4844 110.225 64.375 110.225H59.3438C59.3802 110.749 59.5329 111.152 59.8018 111.435C60.0752 111.713 60.4512 111.852 60.9297 111.852C61.6543 111.852 62.1009 111.59 62.2695 111.065C62.3014 110.974 62.363 110.929 62.4541 110.929H64.3477C64.4023 110.929 64.4434 110.94 64.4707 110.963C64.5026 110.981 64.5163 111.011 64.5117 111.052C64.3887 111.781 64.0104 112.355 63.377 112.774C62.748 113.194 61.9186 113.403 60.8887 113.403ZM59.3438 109.097H62.3311C62.3037 108.6 62.167 108.217 61.9209 107.948C61.6794 107.675 61.3444 107.538 60.916 107.538C60.4466 107.538 60.0775 107.673 59.8086 107.941C59.5397 108.21 59.3848 108.595 59.3438 109.097ZM65.9951 113.294C65.8812 113.294 65.8242 113.237 65.8242 113.123V106.267C65.8242 106.153 65.8812 106.096 65.9951 106.096H67.8271C67.9365 106.096 67.9912 106.153 67.9912 106.267V107.121H68.0527C68.5449 106.374 69.2718 106 70.2334 106C71.2178 106 71.9082 106.374 72.3047 107.121H72.373C72.9609 106.374 73.7835 106 74.8408 106C75.6566 106 76.2741 106.264 76.6934 106.793C77.1172 107.317 77.3291 108.094 77.3291 109.124V113.123C77.3291 113.237 77.2744 113.294 77.165 113.294H75.2168C75.1074 113.294 75.0527 113.237 75.0527 113.123V109.124C75.0527 108.636 74.957 108.276 74.7656 108.044C74.5742 107.812 74.278 107.695 73.877 107.695C73.1022 107.695 72.7148 108.172 72.7148 109.124V113.123C72.7148 113.237 72.6579 113.294 72.5439 113.294H70.5957C70.4863 113.294 70.4316 113.237 70.4316 113.123V109.124C70.4316 108.636 70.3382 108.276 70.1514 108.044C69.9645 107.812 69.6706 107.695 69.2695 107.695C68.8685 107.695 68.5723 107.814 68.3809 108.051C68.1895 108.283 68.0938 108.641 68.0938 109.124V113.123C68.0938 113.237 68.0413 113.294 67.9365 113.294H65.9951ZM81.4717 113.403C80.5374 113.403 79.8014 113.073 79.2637 112.412C78.7259 111.751 78.457 110.847 78.457 109.698C78.457 108.532 78.7214 107.622 79.25 106.971C79.7786 106.314 80.5192 105.986 81.4717 105.986C81.9183 105.986 82.3353 106.089 82.7227 106.294C83.11 106.494 83.4199 106.77 83.6523 107.121H83.7275V106.267C83.7275 106.153 83.7822 106.096 83.8916 106.096H85.8398C85.9492 106.096 86.0039 106.153 86.0039 106.267V111.729H86.667C86.7673 111.729 86.8174 111.783 86.8174 111.893V113.123C86.8174 113.237 86.7673 113.294 86.667 113.294H84.958C84.2106 113.294 83.8369 112.982 83.8369 112.357V112.289H83.7686C83.5589 112.631 83.2467 112.902 82.832 113.103C82.4173 113.303 81.9639 113.403 81.4717 113.403ZM80.7676 109.698C80.7676 110.354 80.902 110.86 81.1709 111.216C81.4443 111.567 81.8249 111.742 82.3125 111.742C82.7956 111.742 83.1647 111.567 83.4199 111.216C83.6797 110.865 83.8096 110.359 83.8096 109.698C83.8096 109.051 83.6774 108.55 83.4131 108.194C83.1533 107.834 82.7865 107.654 82.3125 107.654C81.8294 107.654 81.4512 107.834 81.1777 108.194C80.9043 108.55 80.7676 109.051 80.7676 109.698ZM88.1025 113.294C87.9886 113.294 87.9316 113.237 87.9316 113.123V106.267C87.9316 106.153 87.9886 106.096 88.1025 106.096H89.9346C90.0439 106.096 90.0986 106.153 90.0986 106.267V107.121H90.1602C90.6751 106.365 91.4202 105.986 92.3955 105.986C93.234 105.986 93.8675 106.253 94.2959 106.786C94.7288 107.319 94.9453 108.112 94.9453 109.165V113.123C94.9453 113.237 94.8883 113.294 94.7744 113.294H92.833C92.7191 113.294 92.6621 113.237 92.6621 113.123V109.165C92.6621 108.659 92.5641 108.285 92.3682 108.044C92.1722 107.802 91.8646 107.682 91.4453 107.682C91.026 107.682 90.7139 107.805 90.5088 108.051C90.3037 108.292 90.2012 108.664 90.2012 109.165V113.123C90.2012 113.237 90.1488 113.294 90.0439 113.294H88.1025ZM99.1084 113.403C98.1742 113.403 97.4382 113.073 96.9004 112.412C96.3626 111.751 96.0938 110.847 96.0938 109.698C96.0938 108.532 96.3581 107.622 96.8867 106.971C97.4154 106.314 98.1559 105.986 99.1084 105.986C99.555 105.986 99.972 106.089 100.359 106.294C100.747 106.494 101.057 106.77 101.289 107.121H101.364V106.267C101.364 106.153 101.419 106.096 101.528 106.096H103.477C103.586 106.096 103.641 106.153 103.641 106.267V111.729H104.304C104.404 111.729 104.454 111.783 104.454 111.893V113.123C104.454 113.237 104.404 113.294 104.304 113.294H102.595C101.847 113.294 101.474 112.982 101.474 112.357V112.289H101.405C101.196 112.631 100.883 112.902 100.469 113.103C100.054 113.303 99.6006 113.403 99.1084 113.403ZM98.4043 109.698C98.4043 110.354 98.5387 110.86 98.8076 111.216C99.0811 111.567 99.4616 111.742 99.9492 111.742C100.432 111.742 100.801 111.567 101.057 111.216C101.316 110.865 101.446 110.359 101.446 109.698C101.446 109.051 101.314 108.55 101.05 108.194C100.79 107.834 100.423 107.654 99.9492 107.654C99.4661 107.654 99.0879 107.834 98.8145 108.194C98.541 108.55 98.4043 109.051 98.4043 109.698ZM111.454 113.403C110.524 113.403 109.788 113.073 109.246 112.412C108.708 111.751 108.439 110.847 108.439 109.698C108.439 108.536 108.706 107.627 109.239 106.971C109.772 106.314 110.511 105.986 111.454 105.986C111.905 105.986 112.325 106.089 112.712 106.294C113.104 106.494 113.416 106.77 113.648 107.121H113.724V103.382C113.724 103.268 113.774 103.211 113.874 103.211H115.822C115.932 103.211 115.986 103.268 115.986 103.382V113.123C115.986 113.237 115.932 113.294 115.822 113.294H113.983C113.874 113.294 113.819 113.237 113.819 113.123V112.289H113.765C113.55 112.631 113.236 112.902 112.821 113.103C112.407 113.303 111.951 113.403 111.454 113.403ZM110.764 109.698C110.764 110.354 110.898 110.86 111.167 111.216C111.436 111.567 111.816 111.742 112.309 111.742C112.787 111.742 113.156 111.567 113.416 111.216C113.676 110.86 113.806 110.354 113.806 109.698C113.806 109.051 113.674 108.55 113.409 108.194C113.149 107.834 112.783 107.654 112.309 107.654C111.821 107.654 111.44 107.834 111.167 108.194C110.898 108.55 110.764 109.051 110.764 109.698ZM121.141 113.403C119.951 113.403 119.008 113.071 118.311 112.405C117.618 111.74 117.271 110.838 117.271 109.698C117.271 108.563 117.62 107.661 118.317 106.991C119.015 106.321 119.951 105.986 121.127 105.986C122.28 105.986 123.178 106.312 123.82 106.964C124.467 107.616 124.791 108.522 124.791 109.685V110.074C124.791 110.174 124.736 110.225 124.627 110.225H119.596C119.632 110.749 119.785 111.152 120.054 111.435C120.327 111.713 120.703 111.852 121.182 111.852C121.906 111.852 122.353 111.59 122.521 111.065C122.553 110.974 122.615 110.929 122.706 110.929H124.6C124.654 110.929 124.695 110.94 124.723 110.963C124.755 110.981 124.768 111.011 124.764 111.052C124.641 111.781 124.262 112.355 123.629 112.774C123 113.194 122.171 113.403 121.141 113.403ZM119.596 109.097H122.583C122.556 108.6 122.419 108.217 122.173 107.948C121.931 107.675 121.596 107.538 121.168 107.538C120.699 107.538 120.329 107.673 120.061 107.941C119.792 108.21 119.637 108.595 119.596 109.097ZM8.10843 131.403C6.90075 131.403 5.93688 131.134 5.21683 130.597C4.50133 130.059 4.07978 129.293 3.95218 128.3C3.93851 128.177 3.99547 128.115 4.12308 128.115H6.07815C6.16474 128.115 6.22171 128.159 6.24905 128.245C6.3402 128.728 6.53388 129.084 6.83011 129.312C7.13089 129.539 7.54788 129.653 8.08108 129.653C8.54137 129.653 8.9014 129.553 9.16116 129.353C9.42093 129.152 9.55081 128.874 9.55081 128.519C9.55081 128.204 9.45055 127.967 9.25003 127.808C9.05407 127.644 8.72138 127.523 8.25198 127.445L7.10355 127.247C6.09183 127.088 5.33987 126.771 4.84769 126.297C4.3555 125.818 4.10941 125.169 4.10941 124.349C4.10941 123.419 4.43069 122.692 5.07327 122.168C5.72041 121.644 6.62047 121.382 7.77347 121.382C8.89 121.382 9.79007 121.637 10.4736 122.147C11.1572 122.658 11.5697 123.378 11.7109 124.308C11.7155 124.362 11.7018 124.408 11.6699 124.444C11.6426 124.476 11.6038 124.492 11.5537 124.492H9.59183C9.49612 124.492 9.43688 124.435 9.41409 124.321C9.32295 123.911 9.14749 123.61 8.88773 123.419C8.62796 123.228 8.27021 123.132 7.81448 123.132C7.37243 123.132 7.03519 123.223 6.80276 123.405C6.5749 123.588 6.46097 123.852 6.46097 124.198C6.46097 124.513 6.57034 124.761 6.78909 124.943C7.00784 125.126 7.34964 125.26 7.81448 125.347L8.97659 125.524C10.0247 125.693 10.7744 126.001 11.2256 126.447C11.6768 126.894 11.9023 127.552 11.9023 128.423C11.9023 129.343 11.5628 130.07 10.8838 130.604C10.2048 131.137 9.27965 131.403 8.10843 131.403ZM13.5088 131.294C13.3949 131.294 13.3379 131.237 13.3379 131.123V124.267C13.3379 124.153 13.3949 124.096 13.5088 124.096H15.4502C15.555 124.096 15.6074 124.153 15.6074 124.267V131.123C15.6074 131.237 15.555 131.294 15.4502 131.294H13.5088ZM13.2695 122.811V120.835C13.2695 120.735 13.3242 120.685 13.4336 120.685H15.5186C15.6325 120.685 15.6895 120.735 15.6895 120.835V122.811C15.6895 122.911 15.6325 122.961 15.5186 122.961H13.4336C13.3242 122.961 13.2695 122.911 13.2695 122.811ZM20.2559 131.403C19.2806 131.403 18.5127 131.21 17.9521 130.822C17.3916 130.43 17.068 129.865 16.9814 129.127C16.9769 129.072 16.9883 129.029 17.0156 128.997C17.043 128.961 17.0817 128.942 17.1318 128.942H18.8408C18.9365 128.942 18.998 128.993 19.0254 129.093C19.0892 129.398 19.2214 129.615 19.4219 129.742C19.627 129.87 19.9049 129.934 20.2559 129.934C20.5475 129.934 20.7799 129.874 20.9531 129.756C21.1309 129.633 21.2197 129.473 21.2197 129.277C21.2197 129.072 21.1536 128.922 21.0215 128.826C20.8893 128.726 20.6615 128.648 20.3379 128.594L19.3467 128.409C18.5947 128.282 18.0387 128.049 17.6787 127.712C17.3232 127.37 17.1455 126.88 17.1455 126.242C17.1455 125.549 17.4098 125 17.9385 124.595C18.4717 124.189 19.2031 123.986 20.1328 123.986C20.9759 123.986 21.6618 124.166 22.1904 124.526C22.7191 124.882 23.0312 125.41 23.127 126.112C23.1406 126.172 23.1315 126.217 23.0996 126.249C23.0723 126.281 23.0335 126.297 22.9834 126.297H21.2812C21.181 126.297 21.1149 126.244 21.083 126.14C21.0283 125.889 20.9258 125.711 20.7754 125.606C20.625 125.497 20.4108 125.442 20.1328 125.442C19.8503 125.442 19.6338 125.499 19.4834 125.613C19.3376 125.727 19.2646 125.889 19.2646 126.099C19.2646 126.295 19.333 126.447 19.4697 126.557C19.611 126.661 19.8594 126.743 20.2148 126.803L21.2197 126.98C21.9808 127.108 22.5231 127.336 22.8467 127.664C23.1748 127.992 23.3389 128.475 23.3389 129.113C23.3389 129.874 23.0723 130.446 22.5391 130.829C22.0104 131.212 21.2493 131.403 20.2559 131.403ZM27.6797 131.294C26.9505 131.294 26.3923 131.1 26.0049 130.713C25.6175 130.321 25.4238 129.758 25.4238 129.024V125.668H24.3096C24.1956 125.668 24.1387 125.611 24.1387 125.497V124.267C24.1387 124.153 24.1956 124.096 24.3096 124.096H25.4238V122.127C25.4238 122.022 25.4808 121.97 25.5947 121.97H27.543C27.6432 121.97 27.6934 122.022 27.6934 122.127V124.096H29.334C29.4434 124.096 29.498 124.153 29.498 124.267V125.497C29.498 125.547 29.4821 125.588 29.4502 125.62C29.4183 125.652 29.3796 125.668 29.334 125.668H27.6934V129.729H29.3203C29.4297 129.729 29.4844 129.783 29.4844 129.893V131.123C29.4844 131.237 29.4297 131.294 29.3203 131.294H27.6797ZM34.0781 131.403C32.8887 131.403 31.9453 131.071 31.248 130.405C30.5553 129.74 30.209 128.838 30.209 127.698C30.209 126.563 30.5576 125.661 31.2549 124.991C31.9521 124.321 32.8887 123.986 34.0645 123.986C35.2174 123.986 36.1152 124.312 36.7578 124.964C37.4049 125.616 37.7285 126.522 37.7285 127.685V128.074C37.7285 128.174 37.6738 128.225 37.5645 128.225H32.5332C32.5697 128.749 32.7223 129.152 32.9912 129.435C33.2646 129.713 33.6406 129.852 34.1191 129.852C34.8438 129.852 35.2904 129.59 35.459 129.065C35.4909 128.974 35.5524 128.929 35.6436 128.929H37.5371C37.5918 128.929 37.6328 128.94 37.6602 128.963C37.6921 128.981 37.7057 129.011 37.7012 129.052C37.5781 129.781 37.1999 130.355 36.5664 130.774C35.9375 131.194 35.1081 131.403 34.0781 131.403ZM32.5332 127.097H35.5205C35.4932 126.6 35.3564 126.217 35.1104 125.948C34.8688 125.675 34.5339 125.538 34.1055 125.538C33.6361 125.538 33.2669 125.673 32.998 125.941C32.7292 126.21 32.5742 126.595 32.5332 127.097ZM39.1846 131.294C39.0706 131.294 39.0137 131.237 39.0137 131.123V124.267C39.0137 124.153 39.0706 124.096 39.1846 124.096H41.0166C41.126 124.096 41.1807 124.153 41.1807 124.267V125.121H41.2422C41.7344 124.374 42.4613 124 43.4229 124C44.4072 124 45.0977 124.374 45.4941 125.121H45.5625C46.1504 124.374 46.973 124 48.0303 124C48.846 124 49.4635 124.264 49.8828 124.793C50.3066 125.317 50.5186 126.094 50.5186 127.124V131.123C50.5186 131.237 50.4639 131.294 50.3545 131.294H48.4062C48.2969 131.294 48.2422 131.237 48.2422 131.123V127.124C48.2422 126.636 48.1465 126.276 47.9551 126.044C47.7637 125.812 47.4674 125.695 47.0664 125.695C46.2917 125.695 45.9043 126.172 45.9043 127.124V131.123C45.9043 131.237 45.8473 131.294 45.7334 131.294H43.7852C43.6758 131.294 43.6211 131.237 43.6211 131.123V127.124C43.6211 126.636 43.5277 126.276 43.3408 126.044C43.154 125.812 42.86 125.695 42.459 125.695C42.0579 125.695 41.7617 125.814 41.5703 126.051C41.3789 126.283 41.2832 126.641 41.2832 127.124V131.123C41.2832 131.237 41.2308 131.294 41.126 131.294H39.1846ZM54.6611 131.403C53.7269 131.403 52.9909 131.073 52.4531 130.412C51.9154 129.751 51.6465 128.847 51.6465 127.698C51.6465 126.532 51.9108 125.622 52.4395 124.971C52.9681 124.314 53.7087 123.986 54.6611 123.986C55.1077 123.986 55.5247 124.089 55.9121 124.294C56.2995 124.494 56.6094 124.77 56.8418 125.121H56.917V124.267C56.917 124.153 56.9717 124.096 57.0811 124.096H59.0293C59.1387 124.096 59.1934 124.153 59.1934 124.267V129.729H59.8564C59.9567 129.729 60.0068 129.783 60.0068 129.893V131.123C60.0068 131.237 59.9567 131.294 59.8564 131.294H58.1475C57.4001 131.294 57.0264 130.982 57.0264 130.357V130.289H56.958C56.7484 130.631 56.4362 130.902 56.0215 131.103C55.6068 131.303 55.1533 131.403 54.6611 131.403ZM53.957 127.698C53.957 128.354 54.0915 128.86 54.3604 129.216C54.6338 129.567 55.0143 129.742 55.502 129.742C55.985 129.742 56.3542 129.567 56.6094 129.216C56.8691 128.865 56.999 128.359 56.999 127.698C56.999 127.051 56.8669 126.55 56.6025 126.194C56.3428 125.834 55.9759 125.654 55.502 125.654C55.0189 125.654 54.6406 125.834 54.3672 126.194C54.0938 126.55 53.957 127.051 53.957 127.698ZM64.0605 131.403C63.0853 131.403 62.3174 131.21 61.7568 130.822C61.1963 130.43 60.8727 129.865 60.7861 129.127C60.7816 129.072 60.793 129.029 60.8203 128.997C60.8477 128.961 60.8864 128.942 60.9365 128.942H62.6455C62.7412 128.942 62.8027 128.993 62.8301 129.093C62.8939 129.398 63.026 129.615 63.2266 129.742C63.4316 129.87 63.7096 129.934 64.0605 129.934C64.3522 129.934 64.5846 129.874 64.7578 129.756C64.9355 129.633 65.0244 129.473 65.0244 129.277C65.0244 129.072 64.9583 128.922 64.8262 128.826C64.694 128.726 64.4661 128.648 64.1426 128.594L63.1514 128.409C62.3994 128.282 61.8434 128.049 61.4834 127.712C61.1279 127.37 60.9502 126.88 60.9502 126.242C60.9502 125.549 61.2145 125 61.7432 124.595C62.2764 124.189 63.0078 123.986 63.9375 123.986C64.7806 123.986 65.4665 124.166 65.9951 124.526C66.5238 124.882 66.8359 125.41 66.9316 126.112C66.9453 126.172 66.9362 126.217 66.9043 126.249C66.877 126.281 66.8382 126.297 66.7881 126.297H65.0859C64.9857 126.297 64.9196 126.244 64.8877 126.14C64.833 125.889 64.7305 125.711 64.5801 125.606C64.4297 125.497 64.2155 125.442 63.9375 125.442C63.6549 125.442 63.4385 125.499 63.2881 125.613C63.1423 125.727 63.0693 125.889 63.0693 126.099C63.0693 126.295 63.1377 126.447 63.2744 126.557C63.4157 126.661 63.6641 126.743 64.0195 126.803L65.0244 126.98C65.7855 127.108 66.3278 127.336 66.6514 127.664C66.9795 127.992 67.1436 128.475 67.1436 129.113C67.1436 129.874 66.877 130.446 66.3438 130.829C65.8151 131.212 65.054 131.403 64.0605 131.403ZM74.3896 131.403C73.46 131.403 72.724 131.073 72.1816 130.412C71.6439 129.751 71.375 128.847 71.375 127.698C71.375 126.536 71.6416 125.627 72.1748 124.971C72.708 124.314 73.4463 123.986 74.3896 123.986C74.8408 123.986 75.2601 124.089 75.6475 124.294C76.0394 124.494 76.3516 124.77 76.584 125.121H76.6592V121.382C76.6592 121.268 76.7093 121.211 76.8096 121.211H78.7578C78.8672 121.211 78.9219 121.268 78.9219 121.382V131.123C78.9219 131.237 78.8672 131.294 78.7578 131.294H76.9189C76.8096 131.294 76.7549 131.237 76.7549 131.123V130.289H76.7002C76.486 130.631 76.1715 130.902 75.7568 131.103C75.3421 131.303 74.8864 131.403 74.3896 131.403ZM73.6992 127.698C73.6992 128.354 73.8337 128.86 74.1025 129.216C74.3714 129.567 74.752 129.742 75.2441 129.742C75.7227 129.742 76.0918 129.567 76.3516 129.216C76.6113 128.86 76.7412 128.354 76.7412 127.698C76.7412 127.051 76.609 126.55 76.3447 126.194C76.085 125.834 75.7181 125.654 75.2441 125.654C74.7565 125.654 74.376 125.834 74.1025 126.194C73.8337 126.55 73.6992 127.051 73.6992 127.698ZM84.0762 131.403C82.8867 131.403 81.9434 131.071 81.2461 130.405C80.5534 129.74 80.207 128.838 80.207 127.698C80.207 126.563 80.5557 125.661 81.2529 124.991C81.9502 124.321 82.8867 123.986 84.0625 123.986C85.2155 123.986 86.1133 124.312 86.7559 124.964C87.403 125.616 87.7266 126.522 87.7266 127.685V128.074C87.7266 128.174 87.6719 128.225 87.5625 128.225H82.5312C82.5677 128.749 82.7204 129.152 82.9893 129.435C83.2627 129.713 83.6387 129.852 84.1172 129.852C84.8418 129.852 85.2884 129.59 85.457 129.065C85.4889 128.974 85.5505 128.929 85.6416 128.929H87.5352C87.5898 128.929 87.6309 128.94 87.6582 128.963C87.6901 128.981 87.7038 129.011 87.6992 129.052C87.5762 129.781 87.1979 130.355 86.5645 130.774C85.9355 131.194 85.1061 131.403 84.0762 131.403ZM82.5312 127.097H85.5186C85.4912 126.6 85.3545 126.217 85.1084 125.948C84.8669 125.675 84.5319 125.538 84.1035 125.538C83.6341 125.538 83.265 125.673 82.9961 125.941C82.7272 126.21 82.5723 126.595 82.5312 127.097ZM92.6279 131.294C92.514 131.294 92.457 131.237 92.457 131.123V121.662C92.457 121.548 92.514 121.491 92.6279 121.491H94.6309C94.7311 121.491 94.7812 121.548 94.7812 121.662V131.123C94.7812 131.237 94.7311 131.294 94.6309 131.294H92.6279ZM96.7979 131.294C96.6839 131.294 96.627 131.237 96.627 131.123V124.267C96.627 124.153 96.6839 124.096 96.7979 124.096H98.6299C98.7393 124.096 98.7939 124.153 98.7939 124.267V125.121H98.8555C99.3704 124.365 100.116 123.986 101.091 123.986C101.929 123.986 102.563 124.253 102.991 124.786C103.424 125.319 103.641 126.112 103.641 127.165V131.123C103.641 131.237 103.584 131.294 103.47 131.294H101.528C101.414 131.294 101.357 131.237 101.357 131.123V127.165C101.357 126.659 101.259 126.285 101.063 126.044C100.868 125.802 100.56 125.682 100.141 125.682C99.7214 125.682 99.4092 125.805 99.2041 126.051C98.999 126.292 98.8965 126.664 98.8965 127.165V131.123C98.8965 131.237 98.8441 131.294 98.7393 131.294H96.7979ZM106.108 131.294C105.994 131.294 105.938 131.237 105.938 131.123V125.777H104.823C104.709 125.777 104.652 125.723 104.652 125.613V124.376C104.652 124.267 104.709 124.212 104.823 124.212H105.938V123.467C105.938 122.738 106.131 122.179 106.519 121.792C106.906 121.405 107.464 121.211 108.193 121.211H109.834C109.943 121.211 109.998 121.268 109.998 121.382V122.612C109.998 122.726 109.943 122.783 109.834 122.783H108.207V124.212H109.848C109.898 124.212 109.937 124.228 109.964 124.26C109.996 124.292 110.012 124.33 110.012 124.376V125.613C110.012 125.723 109.957 125.777 109.848 125.777H108.207V131.123C108.207 131.237 108.157 131.294 108.057 131.294H106.108ZM117.224 130.392C116.522 131.066 115.59 131.403 114.428 131.403C113.266 131.403 112.334 131.066 111.632 130.392C110.935 129.717 110.586 128.819 110.586 127.698C110.586 126.577 110.935 125.682 111.632 125.012C112.334 124.337 113.266 124 114.428 124C115.59 124 116.522 124.337 117.224 125.012C117.925 125.682 118.276 126.577 118.276 127.698C118.276 128.819 117.925 129.717 117.224 130.392ZM112.896 127.698C112.896 128.382 113.026 128.904 113.286 129.264C113.55 129.619 113.931 129.797 114.428 129.797C114.92 129.797 115.298 129.619 115.562 129.264C115.831 128.904 115.966 128.382 115.966 127.698C115.966 127.019 115.831 126.5 115.562 126.14C115.298 125.775 114.92 125.593 114.428 125.593C113.936 125.593 113.557 125.775 113.293 126.14C113.029 126.5 112.896 127.019 112.896 127.698ZM119.623 131.294C119.523 131.294 119.473 131.237 119.473 131.123V126.352C119.473 125.622 119.664 125.064 120.047 124.677C120.434 124.289 120.993 124.096 121.722 124.096H124.046C124.151 124.096 124.203 124.153 124.203 124.267V125.695C124.203 125.796 124.151 125.846 124.046 125.846H121.735V131.123C121.735 131.237 121.685 131.294 121.585 131.294H119.623ZM125.591 131.294C125.477 131.294 125.42 131.237 125.42 131.123V124.267C125.42 124.153 125.477 124.096 125.591 124.096H127.423C127.532 124.096 127.587 124.153 127.587 124.267V125.121H127.648C128.141 124.374 128.868 124 129.829 124C130.813 124 131.504 124.374 131.9 125.121H131.969C132.557 124.374 133.379 124 134.437 124C135.252 124 135.87 124.264 136.289 124.793C136.713 125.317 136.925 126.094 136.925 127.124V131.123C136.925 131.237 136.87 131.294 136.761 131.294H134.812C134.703 131.294 134.648 131.237 134.648 131.123V127.124C134.648 126.636 134.553 126.276 134.361 126.044C134.17 125.812 133.874 125.695 133.473 125.695C132.698 125.695 132.311 126.172 132.311 127.124V131.123C132.311 131.237 132.254 131.294 132.14 131.294H130.191C130.082 131.294 130.027 131.237 130.027 131.123V127.124C130.027 126.636 129.934 126.276 129.747 126.044C129.56 125.812 129.266 125.695 128.865 125.695C128.464 125.695 128.168 125.814 127.977 126.051C127.785 126.283 127.689 126.641 127.689 127.124V131.123C127.689 131.237 127.637 131.294 127.532 131.294H125.591ZM141.067 131.403C140.133 131.403 139.397 131.073 138.859 130.412C138.322 129.751 138.053 128.847 138.053 127.698C138.053 126.532 138.317 125.622 138.846 124.971C139.374 124.314 140.115 123.986 141.067 123.986C141.514 123.986 141.931 124.089 142.318 124.294C142.706 124.494 143.016 124.77 143.248 125.121H143.323V124.267C143.323 124.153 143.378 124.096 143.487 124.096H145.436C145.545 124.096 145.6 124.153 145.6 124.267V129.729H146.263C146.363 129.729 146.413 129.783 146.413 129.893V131.123C146.413 131.237 146.363 131.294 146.263 131.294H144.554C143.806 131.294 143.433 130.982 143.433 130.357V130.289H143.364C143.155 130.631 142.842 130.902 142.428 131.103C142.013 131.303 141.56 131.403 141.067 131.403ZM140.363 127.698C140.363 128.354 140.498 128.86 140.767 129.216C141.04 129.567 141.421 129.742 141.908 129.742C142.391 129.742 142.76 129.567 143.016 129.216C143.275 128.865 143.405 128.359 143.405 127.698C143.405 127.051 143.273 126.55 143.009 126.194C142.749 125.834 142.382 125.654 141.908 125.654C141.425 125.654 141.047 125.834 140.773 126.194C140.5 126.55 140.363 127.051 140.363 127.698ZM149.92 134.124C149.811 134.124 149.756 134.072 149.756 133.967V133.297C149.756 133.192 149.811 133.14 149.92 133.14H150.706C150.92 133.14 151.08 133.117 151.185 133.071C151.294 133.026 151.349 132.937 151.349 132.805C151.349 132.668 151.299 132.575 151.198 132.524C151.098 132.479 150.934 132.456 150.706 132.456H150.426C150.376 132.456 150.335 132.44 150.303 132.408C150.271 132.381 150.255 132.344 150.255 132.299V131.362C149.271 131.23 148.498 130.84 147.938 130.193C147.382 129.546 147.104 128.715 147.104 127.698C147.104 126.577 147.457 125.679 148.163 125.005C148.874 124.326 149.815 123.986 150.986 123.986C151.989 123.986 152.8 124.226 153.42 124.704C154.044 125.178 154.409 125.834 154.514 126.673C154.518 126.728 154.505 126.773 154.473 126.81C154.445 126.841 154.407 126.857 154.356 126.857H152.47C152.369 126.857 152.312 126.8 152.299 126.687C152.23 126.304 152.089 126.026 151.875 125.853C151.661 125.679 151.365 125.593 150.986 125.593C150.485 125.593 150.098 125.775 149.824 126.14C149.551 126.504 149.414 127.024 149.414 127.698C149.414 128.377 149.551 128.897 149.824 129.257C150.098 129.617 150.485 129.797 150.986 129.797C151.374 129.797 151.679 129.71 151.902 129.537C152.13 129.359 152.287 129.081 152.374 128.703C152.388 128.594 152.442 128.539 152.538 128.539H154.432C154.482 128.539 154.523 128.553 154.555 128.58C154.587 128.607 154.6 128.644 154.596 128.689C154.482 129.478 154.145 130.111 153.584 130.59C153.028 131.064 152.292 131.33 151.376 131.39V131.772C151.777 131.791 152.082 131.9 152.292 132.101C152.502 132.301 152.606 132.563 152.606 132.887C152.606 133.712 152.062 134.124 150.973 134.124H149.92ZM158.472 131.403C157.537 131.403 156.801 131.073 156.264 130.412C155.726 129.751 155.457 128.847 155.457 127.698C155.457 126.532 155.721 125.622 156.25 124.971C156.779 124.314 157.519 123.986 158.472 123.986C158.918 123.986 159.335 124.089 159.723 124.294C160.11 124.494 160.42 124.77 160.652 125.121H160.728V124.267C160.728 124.153 160.782 124.096 160.892 124.096H162.84C162.949 124.096 163.004 124.153 163.004 124.267V129.729H163.667C163.767 129.729 163.817 129.783 163.817 129.893V131.123C163.817 131.237 163.767 131.294 163.667 131.294H161.958C161.211 131.294 160.837 130.982 160.837 130.357V130.289H160.769C160.559 130.631 160.247 130.902 159.832 131.103C159.417 131.303 158.964 131.403 158.472 131.403ZM156.51 122.906C156.528 122.277 156.681 121.79 156.968 121.443C157.255 121.092 157.645 120.917 158.137 120.917C158.41 120.917 158.77 121.015 159.217 121.211C159.663 121.407 159.964 121.505 160.119 121.505C160.361 121.505 160.516 121.361 160.584 121.074C160.611 120.969 160.668 120.917 160.755 120.917H161.917C162.026 120.917 162.081 120.974 162.081 121.088C162.063 121.717 161.91 122.207 161.623 122.558C161.336 122.904 160.949 123.077 160.461 123.077C160.188 123.077 159.827 122.977 159.381 122.776C158.934 122.576 158.631 122.476 158.472 122.476C158.23 122.476 158.075 122.619 158.007 122.906C157.979 123.02 157.925 123.077 157.843 123.077H156.681C156.567 123.077 156.51 123.02 156.51 122.906ZM157.768 127.698C157.768 128.354 157.902 128.86 158.171 129.216C158.444 129.567 158.825 129.742 159.312 129.742C159.796 129.742 160.165 129.567 160.42 129.216C160.68 128.865 160.81 128.359 160.81 127.698C160.81 127.051 160.677 126.55 160.413 126.194C160.153 125.834 159.786 125.654 159.312 125.654C158.829 125.654 158.451 125.834 158.178 126.194C157.904 126.55 157.768 127.051 157.768 127.698ZM171.146 130.392C170.444 131.066 169.512 131.403 168.35 131.403C167.188 131.403 166.256 131.066 165.554 130.392C164.856 129.717 164.508 128.819 164.508 127.698C164.508 126.577 164.856 125.682 165.554 125.012C166.256 124.337 167.188 124 168.35 124C169.512 124 170.444 124.337 171.146 125.012C171.847 125.682 172.198 126.577 172.198 127.698C172.198 128.819 171.847 129.717 171.146 130.392ZM166.818 127.698C166.818 128.382 166.948 128.904 167.208 129.264C167.472 129.619 167.853 129.797 168.35 129.797C168.842 129.797 169.22 129.619 169.484 129.264C169.753 128.904 169.888 128.382 169.888 127.698C169.888 127.019 169.753 126.5 169.484 126.14C169.22 125.775 168.842 125.593 168.35 125.593C167.857 125.593 167.479 125.775 167.215 126.14C166.951 126.5 166.818 127.019 166.818 127.698Z" fill="black"/>
</svg>
