<svg width="368" height="272" viewBox="0 0 368 272" fill="none" xmlns="http://www.w3.org/2000/svg">
<path d="M154.119 106.157H159.854C160.155 106.157 160.407 106.409 160.407 106.711V164.36C160.407 164.662 160.155 164.913 159.854 164.913H154.119C153.817 164.913 153.565 164.662 153.565 164.36V106.711C153.565 106.409 153.817 106.157 154.119 106.157ZM193.658 153.595V155.054C193.658 155.708 193.558 156.563 193.306 157.669C193.105 158.726 192.552 159.833 191.596 160.889C190.69 161.945 189.332 162.901 187.471 163.706C185.61 164.461 183.094 164.863 179.875 164.863C176.655 164.863 174.14 164.461 172.279 163.706C170.418 162.951 169.11 161.996 168.154 160.889C167.248 159.833 166.645 158.726 166.444 157.619C166.242 156.512 166.091 155.708 166.091 155.054V154.198V122.204C166.091 121.903 166.343 121.651 166.645 121.651H172.379C172.681 121.651 172.933 121.903 172.933 122.204V152.941C172.933 153.947 173.084 154.701 173.235 155.255C173.386 155.858 173.687 156.412 174.09 156.915C174.543 157.468 175.197 157.871 176.102 158.223C176.957 158.575 178.165 158.776 179.674 158.776C181.233 158.776 182.491 158.575 183.396 158.223C184.302 157.871 185.006 157.468 185.459 156.965C185.962 156.462 186.264 155.959 186.415 155.355C186.565 154.752 186.767 154.299 186.767 152.89V122.204C186.767 121.903 187.018 121.651 187.32 121.651H193.055C193.357 121.651 193.608 121.903 193.608 122.204L193.658 153.595ZM213.277 121.701H217.151C217.503 121.701 217.754 122.054 217.654 122.355L216.346 127.386C216.296 127.637 216.044 127.788 215.843 127.788H213.126C211.668 127.788 210.511 127.99 209.605 128.392C208.75 128.794 207.995 129.197 207.543 129.75C207.09 130.304 206.788 130.807 206.637 131.36C206.486 131.964 206.436 132.467 206.436 132.97V133.674V164.36C206.436 164.662 206.184 164.913 205.883 164.913H200.097C199.796 164.913 199.544 164.662 199.544 164.36V133.422V131.561C199.544 130.958 199.645 130.102 199.896 128.996C200.097 127.889 200.651 126.833 201.607 125.726C202.512 124.669 203.87 123.714 205.732 122.909C207.492 122.104 210.058 121.701 213.277 121.701ZM134.148 121.701C138.826 121.701 142.297 122.607 144.511 124.468C146.674 126.329 147.78 128.644 147.78 131.41V135.183V152.74V155.054C147.78 156.009 147.579 157.066 147.227 158.223C146.875 159.38 146.221 160.436 145.215 161.392C144.209 162.348 142.8 163.153 141.04 163.807C139.279 164.461 136.965 164.762 134.148 164.762C131.28 164.762 129.017 164.41 127.256 163.807C125.495 163.203 124.087 162.348 123.081 161.392C122.075 160.436 121.37 159.38 121.069 158.223C120.716 157.066 120.515 156.009 120.515 155.054V151.281C120.515 149.269 121.069 147.407 122.075 145.747C123.131 144.087 124.59 142.88 126.501 142.226C127.457 141.874 128.514 141.572 129.771 141.119C130.979 140.666 132.186 140.314 133.343 139.861C134.5 139.459 135.456 139.107 136.361 138.805C137.216 138.453 137.77 138.302 137.971 138.201C138.172 138.101 138.474 137.95 138.776 137.749C139.128 137.547 139.43 137.246 139.782 136.944C140.134 136.541 140.386 136.139 140.587 135.686C140.838 135.183 140.939 134.63 140.939 133.976V132.467C140.939 131.913 140.838 131.41 140.587 130.807C140.386 130.203 139.983 129.75 139.48 129.247C138.977 128.744 138.222 128.392 137.367 128.09C136.512 127.788 135.405 127.637 134.047 127.637C131.381 127.637 129.62 128.191 128.614 129.297C127.809 130.253 127.306 131.41 127.206 132.769C127.206 133.07 126.954 133.272 126.652 133.272H121.018C120.716 133.272 120.465 133.02 120.465 132.718V131.31C120.465 129.951 120.716 128.694 121.219 127.537C121.722 126.38 122.527 125.323 123.684 124.418C124.791 123.563 126.2 122.808 127.96 122.355C129.671 122.003 131.733 121.701 134.148 121.701ZM141.04 142.93C140.939 143.483 140.637 143.836 140.235 144.137C139.782 144.439 139.43 144.59 139.027 144.741C138.222 145.043 137.317 145.345 136.411 145.647C135.506 145.999 134.601 146.301 133.796 146.552C132.84 146.904 131.884 147.206 131.079 147.508C130.425 147.81 129.822 148.162 129.218 148.615C128.715 149.067 128.312 149.57 127.91 150.275C127.508 150.979 127.306 151.784 127.306 152.79C127.306 154.802 127.809 156.311 128.765 157.317C129.721 158.273 131.532 158.826 134.148 158.826C136.814 158.826 138.625 158.273 139.631 157.267C140.587 156.211 141.09 154.752 141.09 152.84L141.04 142.93ZM233.902 121.701C238.581 121.701 242.052 122.607 244.265 124.468C246.428 126.329 247.535 128.644 247.535 131.41V135.183V152.74V155.054C247.535 156.009 247.334 157.066 246.982 158.223C246.629 159.38 245.976 160.436 244.969 161.392C243.963 162.348 242.555 163.153 240.794 163.807C239.033 164.461 236.719 164.762 233.902 164.762C231.035 164.762 228.771 164.41 227.011 163.807C225.25 163.203 223.841 162.348 222.835 161.392C221.829 160.436 221.125 159.38 220.823 158.223C220.471 157.066 220.27 156.009 220.27 155.054V151.281C220.27 149.269 220.823 147.407 221.829 145.747C222.886 144.087 224.344 142.88 226.256 142.226C227.212 141.874 228.268 141.572 229.526 141.119C230.733 140.666 231.94 140.314 233.097 139.861C234.254 139.459 235.21 139.107 236.116 138.805C236.971 138.453 237.524 138.302 237.726 138.201C237.927 138.101 238.229 137.95 238.53 137.749C238.883 137.547 239.184 137.246 239.536 136.944C239.889 136.541 240.14 136.139 240.341 135.686C240.593 135.183 240.694 134.63 240.694 133.976V132.467C240.694 131.913 240.593 131.41 240.341 130.807C240.14 130.203 239.738 129.75 239.235 129.247C238.681 128.744 237.977 128.392 237.122 128.09C236.267 127.788 235.16 127.637 233.802 127.637C231.136 127.637 229.375 128.191 228.369 129.297C227.564 130.253 227.061 131.41 226.96 132.769C226.96 133.07 226.709 133.272 226.407 133.272H220.622C220.32 133.272 220.069 133.02 220.069 132.718V131.31C220.069 129.951 220.32 128.694 220.823 127.537C221.326 126.38 222.131 125.323 223.288 124.418C224.395 123.563 225.803 122.808 227.564 122.355C229.425 122.003 231.488 121.701 233.902 121.701ZM240.744 142.93C240.643 143.483 240.341 143.836 239.939 144.137C239.486 144.439 239.134 144.59 238.732 144.741C237.927 145.043 237.021 145.345 236.116 145.647C235.21 145.999 234.305 146.301 233.5 146.552C232.544 146.904 231.588 147.206 230.783 147.508C230.129 147.81 229.526 148.162 228.922 148.615C228.419 149.067 228.017 149.57 227.614 150.275C227.212 150.929 227.011 151.784 227.011 152.79C227.011 154.802 227.514 156.311 228.469 157.317C229.425 158.273 231.236 158.826 233.852 158.826C236.518 158.826 238.329 158.273 239.335 157.267C240.291 156.211 240.794 154.752 240.794 152.84L240.744 142.93Z" fill="white"/>
</svg>
