<svg width="368" height="272" viewBox="0 0 368 272" fill="none" xmlns="http://www.w3.org/2000/svg">
<path d="M309.228 92.623V108.632H289.242V92.623H282.105V132.976H289.242V114.867H309.228V132.976H316.373V92.623H309.228Z" fill="white"/>
<path d="M266.995 125.178C262.831 128.539 257.119 127.939 253.612 125.899C249.506 123.501 247.244 117.863 247.244 112.469C247.244 108.514 248.613 103.236 253.015 100.179C257.062 97.3609 262.533 97.96 265.806 99.759C267.767 100.838 269.493 102.396 270.445 104.314L276.037 100.838C274.728 98.3797 272.884 96.6398 270.683 95.0218C265.208 91.0051 255.813 91.1846 249.624 94.3628C243.616 97.5404 240.105 105.154 240.105 112.469C240.105 116.365 240.82 119.963 242.306 123.32C245.518 130.636 251.886 133.634 259.616 133.634C266.758 133.634 272.945 130.338 276.096 124.581L270.267 121.342C269.493 122.78 268.423 124.098 266.995 125.178Z" fill="white"/>
<path d="M217.916 116.725H211.134L217.916 98.1381V98.2593L224.697 116.725H217.916ZM217.916 92.623H213.574L197.807 132.976H205.125L208.932 122.6H217.916H226.72L230.826 132.976H238.557L222.435 92.623H217.916Z" fill="white"/>
<path d="M171.215 114.867H190.966V108.992H171.215V98.8584H194.358V92.623H164.254V132.976H194.419V126.74H171.215V114.867Z" fill="white"/>
<path fill-rule="evenodd" clip-rule="evenodd" d="M224.049 170.84C224.049 174.28 221.264 177.087 217.85 177.087V179.586C221 179.586 223.768 177.879 225.289 175.336V170.84H224.049ZM226.529 170.84C226.529 174.28 229.314 177.087 232.729 177.087V179.586C229.577 179.586 226.81 177.879 225.289 175.336V170.84H226.529ZM256.286 150.839C256.286 147.398 259.071 144.591 262.486 144.591V142.092C259.335 142.092 256.566 143.799 255.047 146.342V150.839H256.286ZM253.806 150.843H255.047V146.347C253.526 143.803 250.757 142.096 247.606 142.096V144.595C251.022 144.595 253.806 147.402 253.806 150.843ZM253.806 170.837C253.806 174.277 251.022 177.091 247.606 177.091V179.582C252.387 179.582 256.286 175.653 256.286 170.837H253.806ZM283.563 150.843H286.045C286.045 146.026 282.146 142.097 277.364 142.097V144.595C280.778 144.595 283.563 147.402 283.563 150.843ZM196.772 170.837H194.292C194.292 175.653 198.191 179.582 202.971 179.582V177.083C199.556 177.083 196.772 174.277 196.772 170.837ZM232.731 142.097C228.187 142.097 224.042 146.046 224.049 150.84H226.531C226.531 147.289 229.41 144.591 232.73 144.59C232.722 143.401 232.723 143.005 232.731 142.097ZM256.286 177.084V179.585H271.165V167.087H286.045V150.843H283.563V164.588H271.165V150.843H268.685V177.083L256.286 177.084ZM262.486 142.092L277.364 142.097V144.598L262.486 144.591V142.092ZM256.292 165.318L256.286 170.837H253.806V166.354L239.301 151.714L241.04 149.943L256.292 165.318ZM224.049 156.362L239.301 171.737L241.04 169.965L226.531 155.325V150.84H224.049V156.362ZM194.292 142.097H224.049V144.595H211.65V170.783H209.17V144.595H196.772V170.837H194.292V142.097ZM202.971 177.083H217.852V179.585H202.971V177.083ZM232.729 142.098L247.608 142.097V144.598L232.729 144.59V142.098ZM232.729 177.087L247.608 177.096V179.583L232.729 179.579V177.087Z" fill="white"/>
<path d="M126.554 139.557C123.342 141.056 120.722 143.632 119.118 146.813C119.414 146.749 119.711 146.749 120.007 146.749C122.269 146.749 124.471 147.169 126.554 147.891C128.397 148.491 130.123 149.389 131.669 150.527C133.515 146.749 134.643 142.614 134.94 138.239C134.347 138.177 133.752 138.118 133.096 138.118C130.777 138.118 128.576 138.656 126.554 139.557Z" fill="#F49C0E"/>
<path d="M126.554 119.172C127.446 118.572 128.398 118.034 129.408 117.553C128.515 116.233 127.565 115.036 126.554 113.896C124.769 111.917 122.805 110.178 120.604 108.681C118.761 111.318 117.627 114.496 117.627 117.973C117.627 121.092 118.582 124.028 120.129 126.488C121.676 123.609 123.877 121.092 126.554 119.172Z" fill="#F49C0E"/>
<path d="M122.331 101.005C123.638 100.169 125.066 99.4476 126.554 98.9068C128.694 98.1296 130.957 97.7085 133.336 97.7085H134.286C132.68 94.4113 129.943 91.7147 126.554 90.2149C124.59 89.3757 122.448 88.8379 120.186 88.8379C119.828 88.8379 119.532 88.897 119.174 88.897C121.199 92.0745 122.387 95.7906 122.387 99.8672C122.387 100.228 122.331 100.647 122.331 101.005Z" fill="#F49C0E"/>
<path d="M131.61 121.391C129.705 122.229 127.981 123.49 126.554 124.988C123.937 127.746 122.27 131.581 122.27 135.781C122.27 136.138 122.27 136.499 122.331 136.856C123.639 136.018 125.065 135.299 126.554 134.82C128.635 134.1 130.839 133.681 133.097 133.681C133.752 133.681 134.347 133.74 134.94 133.799C134.643 129.304 133.515 125.168 131.61 121.391Z" fill="#F49C0E"/>
<path d="M137.973 115.576C140.472 115.576 142.855 116.057 145.053 116.896C146.481 117.434 147.791 118.095 149.04 118.934V117.974C149.04 113.898 147.553 110.242 145.053 107.421C143.744 105.864 142.078 104.606 140.235 103.705C140.296 104.066 140.296 104.366 140.296 104.726C140.296 108.741 139.106 112.459 137.14 115.638C137.38 115.576 137.676 115.576 137.973 115.576Z" fill="#F49C0E"/>
<path d="M126.553 103.647C125.541 104.184 124.589 104.786 123.696 105.446C124.709 106.166 125.66 106.943 126.553 107.723C128.813 109.702 130.837 111.981 132.562 114.439C134.643 111.74 135.893 108.384 135.893 104.727C135.893 103.885 135.832 103.107 135.713 102.267C134.939 102.208 134.168 102.148 133.335 102.148C130.894 102.148 128.634 102.687 126.553 103.647Z" fill="#F49C0E"/>
<path d="M151.181 127.208C149.754 130.026 147.611 132.484 145.053 134.341C144.221 134.941 143.329 135.482 142.379 135.96C143.329 136.501 144.221 137.039 145.053 137.7C147.553 139.499 149.575 141.897 151.002 144.655C152.726 142.136 153.681 139.077 153.681 135.782C153.681 132.602 152.787 129.666 151.181 127.208Z" fill="#F49C0E"/>
<path d="M145.054 149.928C146.006 149.449 146.957 148.849 147.732 148.19C147.137 146.512 146.185 145.012 145.054 143.692C143.509 141.834 141.543 140.334 139.225 139.376C138.867 143.633 137.796 147.771 136.071 151.489C136.727 151.605 137.319 151.605 137.974 151.605C140.534 151.605 142.973 151.006 145.054 149.928Z" fill="#F49C0E"/>
<path d="M126.554 158.143C127.624 156.941 128.576 155.682 129.467 154.363C128.576 153.704 127.565 153.105 126.554 152.626C124.532 151.725 122.33 151.189 120.007 151.189C116.856 151.189 113.881 152.147 111.442 153.766C115.428 155.803 118.7 159.221 120.543 163.359C122.744 161.859 124.769 160.12 126.554 158.143Z" fill="#F49C0E"/>
<path d="M137.973 156.042C137.62 156.042 137.202 156.042 136.844 155.98C138.928 159.159 140.056 162.938 140.056 167.014V168.153C141.961 167.195 143.687 165.872 145.054 164.195C147.436 161.438 148.799 157.841 148.799 153.942V152.864C147.612 153.582 146.364 154.245 145.054 154.724C142.855 155.563 140.472 156.042 137.973 156.042Z" fill="#F49C0E"/>
<path d="M145.054 128.405C146.303 127.026 147.314 125.467 148.029 123.668C147.138 122.888 146.126 122.229 145.054 121.691C142.973 120.611 140.534 120.011 137.974 120.011C137.26 120.011 136.609 120.073 135.894 120.132C137.677 124.028 138.868 128.165 139.224 132.541C141.484 131.64 143.509 130.202 145.054 128.405Z" fill="#F49C0E"/>
<path d="M126.554 164.317C125.598 165.097 124.648 165.874 123.637 166.597C124.531 167.253 125.542 167.853 126.554 168.333C128.575 169.233 130.777 169.775 133.096 169.775C133.928 169.775 134.702 169.711 135.475 169.592C135.654 168.753 135.713 167.915 135.713 167.015C135.713 163.476 134.525 160.241 132.62 157.603C130.838 160.061 128.813 162.338 126.554 164.317Z" fill="#F49C0E"/>
<path d="M59.388 121.692C58.3763 122.23 57.424 122.829 56.5942 123.55C57.2481 125.287 58.1982 126.787 59.388 128.166C60.9941 130.084 63.019 131.582 65.2761 132.542C65.6947 128.105 66.8237 123.969 68.6109 120.192C67.9525 120.073 67.1806 120.012 66.4659 120.012C63.9074 120.012 61.5278 120.612 59.388 121.692Z" fill="#009ABE"/>
<path d="M78.0682 98.8473C79.5549 99.3874 80.9228 100.106 82.2306 100.945C82.1742 100.587 82.1742 100.227 82.1742 99.8661C82.1742 95.7902 83.3618 91.9514 85.443 88.8367C85.0882 88.7754 84.7304 88.7754 84.3749 88.7754C82.1133 88.7754 79.9705 89.2564 78.0682 90.0949C74.616 91.5932 71.8223 94.3518 70.2139 97.7081H71.2864C73.666 97.7081 75.9261 98.1292 78.0682 98.8473Z" fill="#009ABE"/>
<path d="M53.3793 127.026C51.7122 129.543 50.7622 132.541 50.7622 135.78C50.7622 139.075 51.7731 142.134 53.4379 144.653C54.8675 141.894 56.8901 139.496 59.3877 137.698C60.2197 137.037 61.1727 136.437 62.1859 135.898C61.1727 135.417 60.2814 134.821 59.3877 134.159C56.8901 132.301 54.8066 129.844 53.3793 127.026Z" fill="#009ABE"/>
<path d="M59.3872 116.895C61.5886 116.056 63.9682 115.575 66.4651 115.575C66.8229 115.575 67.1798 115.575 67.4768 115.637C65.4542 112.458 64.2644 108.681 64.2644 104.604V103.764C62.4206 104.726 60.7558 106.043 59.3872 107.662C57.0068 110.418 55.5825 114.018 55.5825 117.973C55.5825 118.215 55.5825 118.514 55.6389 118.812C56.77 118.035 58.0185 117.374 59.3872 116.895Z" fill="#009ABE"/>
<path d="M90.5011 100.526C92.3448 99.9264 94.308 99.4477 96.2742 99.0879C97.1633 98.969 98.057 98.8485 98.9477 98.7895C98.3531 97.1086 97.4031 95.6111 96.2742 94.2917C94.7244 92.4329 92.7604 90.9945 90.5011 90.0347C90.3244 89.9757 90.2027 89.9166 90.0847 89.8545C87.884 92.5541 86.5762 96.0308 86.5762 99.8673C86.5762 100.588 86.6348 101.308 86.6934 102.086C87.9449 101.486 89.191 101.005 90.5011 100.526Z" fill="#009ABE"/>
<path d="M102.28 95.4312C103.71 92.6748 105.791 90.2154 108.291 88.3573C109.182 87.7574 110.074 87.1583 111.024 86.6796C110.134 86.1395 109.241 85.5987 108.291 85.2389C106.445 84.4587 104.421 84.0391 102.28 84.0391C100.141 84.0391 98.1157 84.4587 96.2742 85.179C95.3806 85.5987 94.487 86.0797 93.5933 86.6182C94.5456 87.0969 95.4377 87.6983 96.2742 88.2982C98.8282 90.1563 100.853 92.6135 102.28 95.4312Z" fill="#009ABE"/>
<path d="M114.534 89.916C112.095 90.8734 109.955 92.3739 108.291 94.3524C107.157 95.6704 106.266 97.1679 105.612 98.7888C106.503 98.8479 107.397 98.9691 108.291 99.0873C111.68 99.6872 114.833 100.647 117.807 102.085C117.928 101.308 117.986 100.588 117.986 99.8667C117.986 96.0915 116.676 92.6133 114.534 89.916Z" fill="#009ABE"/>
<path d="M78.0691 107.663C78.9605 106.883 79.9128 106.104 80.9237 105.445C80.03 104.727 79.08 104.125 78.0691 103.647C75.9856 102.687 73.7233 102.148 71.2873 102.148C70.4545 102.148 69.6225 102.208 68.8461 102.326C68.7288 103.047 68.668 103.826 68.668 104.606C68.668 108.263 69.9186 111.68 72.0021 114.378C73.7233 111.92 75.8067 109.642 78.0691 107.663Z" fill="#009ABE"/>
<path d="M100.141 103.105C98.8286 103.227 97.5824 103.345 96.2746 103.586C94.3092 103.944 92.3453 104.546 90.5016 105.265C89.6102 105.565 88.7751 105.982 87.9453 106.343C88.5992 107.784 89.4312 109.161 90.5016 110.301C92.0468 112.1 94.0717 113.539 96.2746 114.498C98.1161 115.277 100.141 115.697 102.281 115.697C102.638 115.697 102.935 115.697 103.292 115.638C101.269 112.518 100.08 108.741 100.08 104.726C100.08 104.183 100.141 103.646 100.141 103.105Z" fill="#009ABE"/>
<path d="M104.54 103.105C104.481 103.645 104.481 104.183 104.481 104.726C104.481 108.682 105.911 112.279 108.29 115.038C109.656 116.654 111.382 117.974 113.286 118.933V117.974C113.286 113.657 114.594 109.701 116.794 106.463C114.178 105.146 111.322 104.183 108.29 103.586C107.098 103.345 105.85 103.227 104.54 103.105Z" fill="#009ABE"/>
<path d="M78.0691 123.848C76.2255 123.248 74.4997 122.35 72.9522 121.271C71.1085 125.047 69.9187 129.182 69.6226 133.619C70.1562 133.68 70.7508 133.74 71.2874 133.74C73.7234 133.74 75.9857 133.198 78.0691 132.18C81.2815 130.621 83.8987 127.986 85.4439 124.808C85.0892 124.869 84.7314 124.869 84.3759 124.869C82.1752 124.869 80.0301 124.509 78.0691 123.848Z" fill="#009ABE"/>
<path d="M84.1362 108.561C81.8761 110.06 79.8513 111.859 78.0685 113.839C76.9966 114.978 76.0459 116.175 75.2139 117.495C76.103 118.095 77.0575 118.695 78.0685 119.114C79.9708 119.953 82.1136 120.434 84.3752 120.434C86.5158 120.434 88.5993 120.013 90.5016 119.173C91.393 118.813 92.2257 118.334 93.0007 117.855C92.1078 117.374 91.2757 116.836 90.5016 116.234C87.7642 114.258 85.5635 111.618 84.1362 108.561Z" fill="#009ABE"/>
<path d="M78.5443 145.913C80.8066 143.154 82.1753 139.616 82.1753 135.782V134.94C81.0418 135.661 79.7957 136.26 78.5443 136.798C76.2819 137.64 73.8459 138.119 71.2867 138.119C70.7508 138.119 70.1555 138.119 69.561 138.059C69.8572 142.434 70.9906 146.57 72.7734 150.288C75.0358 149.331 76.9967 147.771 78.5443 145.913Z" fill="#48BDD7"/>
<path d="M78.5433 151.966C77.4144 152.802 76.2246 153.526 74.9146 154.182C75.9849 155.803 77.2332 157.302 78.5433 158.739C80.2104 160.48 81.9947 162.038 83.9564 163.358C85.9204 160.718 87.0508 157.481 87.0508 153.942C87.0508 150.645 86.0399 147.589 84.3142 145.071C82.9455 147.769 80.9838 150.106 78.5433 151.966Z" fill="#48BDD7"/>
<path d="M55.6392 152.864V153.942C55.6392 160.118 59.1499 165.455 64.2654 168.093V166.955C64.2654 162.938 65.3981 159.159 67.4184 156.043H66.4661C62.4818 156.043 58.7944 154.845 55.6392 152.864Z" fill="#48BDD7"/>
<path d="M96.1524 168.395C97.4038 168.632 98.65 168.813 99.9007 168.932C100.019 168.275 100.08 167.616 100.08 166.957C100.08 162.94 98.5906 159.283 96.1524 156.462C94.8446 154.966 93.1798 153.705 91.3925 152.805C91.3925 153.164 91.4541 153.527 91.4541 153.944C91.4541 158.262 90.0854 162.279 87.7637 165.575C90.3815 166.896 93.1798 167.853 96.1524 168.395Z" fill="#48BDD7"/>
<path d="M104.364 168.931C105.671 168.813 106.92 168.697 108.168 168.452C111.202 167.915 114.059 166.957 116.737 165.575C115.13 161.739 112.037 158.681 108.168 157.122C106.386 156.342 104.364 155.925 102.28 155.925C101.922 155.925 101.565 155.982 101.269 155.982C103.291 159.16 104.421 162.878 104.421 166.957C104.421 167.616 104.421 168.275 104.364 168.931Z" fill="#48BDD7"/>
<path d="M56.7104 148.19C59.3869 150.349 62.7775 151.606 66.4656 151.606C67.121 151.606 67.8335 151.606 68.4897 151.489C66.7633 147.711 65.6328 143.633 65.2758 139.317C61.3501 140.995 58.258 144.171 56.7104 148.19Z" fill="#48BDD7"/>
<path d="M102.163 176.309C100.674 179.124 98.6496 181.466 96.152 183.323C95.3199 183.923 94.4263 184.458 93.5371 184.944C94.3699 185.48 95.202 185.959 96.152 186.38C97.9957 187.158 100.08 187.637 102.281 187.637C104.364 187.637 106.387 187.217 108.169 186.438C109.123 186.08 110.012 185.601 110.845 185.059C109.895 184.58 109.004 184.044 108.169 183.444C105.671 181.582 103.588 179.124 102.163 176.309Z" fill="#48BDD7"/>
<path d="M133.096 174.209C129.169 174.209 125.481 173.01 122.33 171.031C122.386 171.273 122.386 171.511 122.386 171.811C122.386 175.89 121.199 179.667 119.118 182.845H120.007C126.135 182.845 131.431 179.308 133.989 174.152C133.693 174.209 133.394 174.209 133.096 174.209Z" fill="#48BDD7"/>
<path d="M108.169 172.951C107.337 173.069 106.446 173.19 105.554 173.251C106.207 174.808 107.099 176.247 108.169 177.448C109.895 179.365 111.979 180.923 114.415 181.823C116.619 179.067 117.987 175.588 117.987 171.81C117.987 171.151 117.928 170.551 117.867 169.952C114.834 171.391 111.621 172.41 108.169 172.951Z" fill="#48BDD7"/>
<path d="M82.1745 170.974C81.0411 171.751 79.8513 172.353 78.5435 172.831C76.3428 173.728 73.9016 174.208 71.3454 174.208C70.9906 174.208 70.6892 174.208 70.3931 174.152C72.1188 177.567 75.035 180.266 78.5435 181.645C80.3309 182.366 82.2918 182.781 84.3144 182.781C84.6721 182.781 85.0291 182.723 85.3847 182.723C83.3621 179.546 82.1745 175.827 82.1745 171.81V170.974Z" fill="#48BDD7"/>
<path d="M96.1524 177.387C97.2242 176.128 98.1156 174.749 98.7695 173.251C97.8781 173.131 96.9845 173.069 96.1524 172.889C92.8205 172.353 89.6096 171.331 86.6348 169.952C86.5762 170.552 86.5762 171.152 86.5762 171.81C86.5762 175.531 87.884 179.003 90.0261 181.703C92.4034 180.745 94.4876 179.245 96.1524 177.387Z" fill="#48BDD7"/>
<path d="M78.5441 168.036C79.3761 167.616 80.1503 167.077 80.8651 166.538C80.03 165.998 79.3175 165.396 78.5441 164.796C75.9856 162.639 73.7233 160.121 71.8232 157.362C69.7984 160.062 68.6108 163.36 68.6108 166.957C68.6108 167.853 68.7281 168.697 68.8461 169.593C69.6789 169.712 70.5109 169.775 71.3459 169.775C73.9631 169.775 76.4035 169.114 78.5441 168.036Z" fill="#48BDD7"/>
</svg>
