<svg width="723" height="316" viewBox="0 0 723 316" fill="none" xmlns="http://www.w3.org/2000/svg">
<g clip-path="url(#clip0_1645_1027)">
<path d="M199.241 70.5915H180.481C164.714 70.5915 153.398 74.6615 146.531 82.8015C139.664 90.9415 136.224 103.798 136.211 121.371V199.611C136.211 200.144 136.319 200.672 136.529 201.162C136.738 201.651 137.045 202.094 137.431 202.461C137.798 202.847 138.238 203.155 138.726 203.368C139.214 203.581 139.739 203.694 140.271 203.701H153.051C153.583 203.694 154.108 203.581 154.596 203.368C155.084 203.155 155.524 202.847 155.891 202.461C156.286 202.099 156.601 201.659 156.816 201.168C157.031 200.677 157.142 200.147 157.141 199.611V121.371C157.141 111.961 158.651 104.631 161.741 99.3715C164.831 94.1115 171.061 91.5115 180.481 91.5115H199.241C199.761 91.1615 200.391 90.6915 201.141 90.1615C202.571 89.0615 203.291 88.0815 203.291 87.1615V74.6615C203.293 74.1283 203.185 73.6005 202.975 73.1104C202.766 72.6203 202.458 72.1783 202.071 71.8115C201.71 71.4227 201.272 71.1135 200.784 70.9034C200.297 70.6934 199.771 70.5871 199.241 70.5915Z" fill="white"/>
<path d="M264.141 182.761H260.881C254.011 182.761 248.941 180.611 245.661 176.241C242.381 171.871 240.771 164.111 240.771 152.881V74.6615C240.746 73.5934 240.311 72.5757 239.558 71.8184C238.804 71.0611 237.789 70.6219 236.721 70.5915H223.931C222.861 70.6217 221.843 71.0602 221.086 71.817C220.33 72.5739 219.891 73.5916 219.861 74.6615V152.881C219.742 160.549 220.473 168.205 222.041 175.711C223.233 181.465 225.757 186.86 229.411 191.461C232.999 195.733 237.699 198.927 242.991 200.691C248.611 202.691 255.661 203.691 264.181 203.691C264.715 203.685 265.242 203.573 265.731 203.36C266.221 203.147 266.663 202.838 267.031 202.451C267.421 202.087 267.732 201.646 267.944 201.155C268.156 200.665 268.264 200.136 268.261 199.601V186.851C268.236 185.776 267.798 184.752 267.038 183.991C266.279 183.23 265.256 182.789 264.181 182.761" fill="white"/>
<path d="M253.411 23.7815C253.411 19.1292 252.031 14.5815 249.446 10.7134C246.861 6.84537 243.188 3.83076 238.889 2.05088C234.591 0.271 229.861 -0.194187 225.299 0.714148C220.736 1.62248 216.545 3.86354 213.256 7.15388C209.967 10.4442 207.728 14.636 206.822 19.1991C205.915 23.7622 206.382 28.4916 208.164 32.7891C209.946 37.0867 212.962 40.7593 216.831 43.3425C220.7 45.9257 225.249 47.3035 229.901 47.3015C236.137 47.2988 242.117 44.8197 246.526 40.4091C250.934 35.9985 253.411 30.0176 253.411 23.7815Z" fill="white"/>
<path d="M597.971 182.761H594.701C587.821 182.761 582.751 180.611 579.491 176.241C576.231 171.871 574.611 164.121 574.611 152.881V27.6715C574.61 27.1406 574.503 26.6151 574.297 26.1258C574.091 25.6365 573.79 25.1931 573.411 24.8215C573.041 24.4379 572.596 24.1337 572.104 23.9274C571.613 23.7211 571.084 23.617 570.551 23.6215H557.761C556.692 23.6395 555.673 24.072 554.917 24.8276C554.161 25.5833 553.729 26.603 553.711 27.6715V152.881C553.614 160.179 554.335 167.465 555.861 174.601C557.048 180.4 559.56 185.845 563.201 190.511C566.808 194.887 571.486 198.253 576.781 200.281C582.381 202.541 589.461 203.701 597.971 203.701C598.505 203.695 599.032 203.583 599.521 203.37C600.011 203.157 600.453 202.848 600.821 202.461C601.204 202.093 601.508 201.65 601.714 201.16C601.92 200.67 602.025 200.143 602.021 199.611V186.851C602.011 185.777 601.582 184.748 600.826 183.985C600.07 183.221 599.045 182.782 597.971 182.761Z" fill="white"/>
<path d="M382.411 81.4415C372.531 73.3148 358.531 69.2448 340.411 69.2315C321.931 69.2315 308.758 72.3048 300.891 78.4515C293.024 84.5981 289.088 94.0181 289.081 106.711C289.062 107.289 289.16 107.864 289.37 108.401C289.58 108.939 289.896 109.429 290.301 109.841C290.669 110.227 291.111 110.534 291.601 110.744C292.091 110.953 292.618 111.061 293.151 111.061H305.921C306.455 111.059 306.983 110.95 307.474 110.741C307.965 110.531 308.41 110.225 308.781 109.841C309.185 109.429 309.502 108.939 309.712 108.401C309.921 107.864 310.02 107.289 310.001 106.711C310.001 99.8381 312.441 95.3548 317.321 93.2615C322.201 91.1681 329.914 90.1215 340.461 90.1215C352.428 90.1215 361.411 92.2548 367.411 96.5215C373.411 100.788 376.391 106.358 376.351 113.231V129.521C371.535 125.378 365.826 122.404 359.671 120.831C353.07 119.024 346.255 118.112 339.411 118.121C328.558 118.121 319.411 119.025 311.971 120.831C304.531 122.638 298.554 125.305 294.041 128.831C289.624 132.236 286.239 136.798 284.261 142.011C282.152 147.936 281.136 154.194 281.261 160.481C281.261 168.621 282.211 175.561 284.101 181.251C285.851 186.734 289.205 191.566 293.731 195.121C298.271 198.628 304.254 201.205 311.681 202.851C319.108 204.498 328.341 205.311 339.381 205.291C349.861 205.291 358.811 204.291 366.121 202.451C373.431 200.611 379.421 197.451 384.051 193.211C388.799 188.773 392.272 183.145 394.111 176.911C396.204 170.298 397.248 162.281 397.241 152.861V113.231C397.241 100.191 392.304 89.5948 382.431 81.4415H382.411ZM374.681 169.861C373.647 173.166 371.605 176.065 368.841 178.151C365.448 180.574 361.55 182.198 357.441 182.901C351.487 184.009 345.436 184.511 339.381 184.401C333.137 184.528 326.897 183.979 320.771 182.761C316.699 181.97 312.821 180.394 309.351 178.121C306.692 176.317 304.694 173.694 303.661 170.651C302.621 167.357 302.114 163.916 302.161 160.461C302.125 157.21 302.726 153.982 303.931 150.961C305.195 147.958 307.273 145.367 309.931 143.481C313.384 141.133 317.259 139.473 321.341 138.591C327.276 137.312 333.341 136.732 339.411 136.861C353.531 136.861 363.198 138.765 368.411 142.571C370.894 144.24 372.916 146.508 374.292 149.164C375.667 151.821 376.351 154.781 376.281 157.771C376.378 161.861 375.832 165.941 374.661 169.861" fill="white"/>
<path d="M718.031 159.951H705.531C702.821 159.951 701.451 161.321 701.451 164.021C701.451 177.421 689.451 184.121 665.451 184.121C651.651 184.121 642.181 181.251 637.081 175.431C631.811 169.821 629.011 158.781 628.611 142.301C636.461 147.551 648.701 150.171 665.411 150.171C703.411 150.171 722.391 136.951 722.351 110.511C722.351 82.8048 703.434 68.9548 665.601 68.9615C645.661 68.9615 631.168 73.7581 622.121 83.3515C612.534 94.0181 607.738 111.855 607.731 136.861C607.731 162.935 612.258 181.048 621.311 191.201C629.651 200.435 644.414 205.048 665.601 205.041C703.241 205.041 722.071 191.375 722.091 164.041C722.091 161.341 720.711 159.971 718.011 159.971L718.031 159.951ZM629.731 116.501C630.464 107.101 633.731 100.315 639.531 96.1415C645.011 91.9715 653.631 89.8815 665.451 89.8815C689.631 89.8815 701.718 96.7648 701.711 110.531C701.711 123.045 689.624 129.295 665.451 129.281C640.538 129.281 628.631 125.021 629.731 116.501Z" fill="white"/>
<path d="M528.911 70.5915H516.271C515.19 70.6065 514.158 71.0383 513.388 71.7967C512.619 72.5551 512.172 73.5814 512.141 74.6615V137.951C512.192 144.5 511.737 151.043 510.781 157.521C510.08 162.73 508.265 167.727 505.461 172.171C502.714 176.275 498.783 179.446 494.191 181.261C489.311 183.355 482.884 184.401 474.911 184.401C467.131 184.401 460.798 183.491 455.911 181.671C451.343 180.1 447.365 177.169 444.511 173.271C441.784 169.458 439.971 164.565 439.071 158.591C438.087 151.391 437.632 144.128 437.711 136.861V74.6615C437.69 73.5868 437.254 72.562 436.493 71.8028C435.732 71.0437 434.706 70.6094 433.631 70.5915H421.131C420.555 70.5662 419.979 70.6617 419.442 70.8718C418.905 71.0819 418.417 71.402 418.011 71.8115C417.625 72.1788 417.319 72.6211 417.111 73.1113C416.903 73.6014 416.797 74.129 416.801 74.6615V136.861C416.801 149.171 417.801 159.641 419.801 168.211C421.801 176.781 425.101 183.911 429.751 189.421C434.511 195.048 440.744 199.238 447.751 201.521C455.084 204.041 464.201 205.305 475.101 205.311C495.801 205.311 510.641 199.928 519.621 189.161C528.601 178.395 533.091 161.325 533.091 137.951V74.6615C533.102 73.6077 532.712 72.5891 532.001 71.8115C531.62 71.4019 531.154 71.0805 530.636 70.8697C530.118 70.659 529.56 70.564 529.001 70.5915" fill="white"/>
<path d="M28.9309 171.481C31.6532 169.136 34.8646 167.428 38.3309 166.481C42.0989 165.391 45.9824 164.75 49.9009 164.571C53.9009 164.401 57.4309 164.291 60.5309 164.291C68.5242 164.384 76.5059 163.657 84.3509 162.121C90.7844 160.916 96.8767 158.319 102.201 154.511C107.254 150.706 111.166 145.587 113.511 139.711C116.138 133.465 117.471 125.545 117.511 115.951C117.551 106.358 116.141 98.5215 113.281 92.4415C110.719 86.6819 106.61 81.7456 101.411 78.1815C95.8494 74.5649 89.5795 72.1783 83.0209 71.1815C75.1523 69.8471 67.1815 69.208 59.2009 69.2715C51.3988 69.2098 43.608 69.8794 35.9309 71.2715C29.3102 72.3891 22.9996 74.8902 17.4109 78.6115C12.1151 82.2757 7.89037 87.2839 5.17088 93.1215C2.16422 99.3015 0.660885 107.088 0.660885 116.481C0.564783 124.772 2.42874 132.968 6.10088 140.401C9.72088 147.635 15.6042 153.341 23.7509 157.521C18.0635 158.628 12.8781 161.522 8.95089 165.781C5.12861 169.865 3.03565 175.269 3.11089 180.861C3.00329 185.185 3.59767 189.498 4.87088 193.631C5.98048 196.949 7.89807 199.939 10.4509 202.331C13.3168 204.856 16.6308 206.82 20.2209 208.121C24.9827 209.897 29.8963 211.236 34.9009 212.121C40.9009 213.221 47.1509 214.181 53.7809 214.991C59.9477 215.712 66.0655 216.804 72.1009 218.261C77.0198 219.327 81.7119 221.254 85.9609 223.951C89.5809 226.381 91.1509 229.001 91.3709 233.531C91.3132 234.071 91.3888 234.617 91.591 235.121C91.7932 235.625 92.116 236.071 92.5309 236.421C93.3778 237.105 94.4431 237.46 95.5309 237.421H108.821C109.374 237.415 109.92 237.298 110.427 237.077C110.934 236.855 111.391 236.534 111.771 236.131C112.188 235.752 112.521 235.289 112.747 234.772C112.973 234.255 113.086 233.696 113.081 233.131C113.081 222.621 110.811 215.971 106.291 210.621C101.771 205.271 94.0709 201.531 83.2209 199.341C75.4209 197.715 68.0409 196.495 61.0809 195.681C54.0809 194.851 47.9509 193.921 42.6009 192.831C38.1643 192.043 33.8638 190.622 29.8309 188.611C28.3728 187.922 27.147 186.823 26.3034 185.449C25.4599 184.074 25.035 182.484 25.0809 180.871C24.9976 179.12 25.2992 177.372 25.9644 175.749C26.6295 174.127 27.6421 172.67 28.9309 171.481ZM23.9309 129.591C22.2677 125.291 21.4856 120.7 21.6309 116.091C21.6309 110.151 22.6309 105.461 24.7609 102.031C26.7338 98.7282 29.5592 96.0168 32.9409 94.1815C36.6279 92.2839 40.6566 91.1416 44.7909 90.8215C44.8909 90.8215 44.9809 90.8215 45.0809 90.8215C45.1809 90.8215 45.2709 90.7715 45.4209 90.7515C49.9409 90.3015 54.6809 90.0815 59.5709 90.0815C64.8409 90.0815 69.8209 90.2715 74.4409 90.6215C78.6058 90.856 82.6835 91.9094 86.4409 93.7215C89.8242 95.4608 92.5844 98.2071 94.3409 101.581C96.2542 105.088 97.2075 109.901 97.2009 116.021C97.2009 122.331 96.2709 127.271 94.4809 130.881C92.8093 134.329 90.1452 137.199 86.8309 139.121C83.1806 141.136 79.1387 142.34 74.9809 142.651H74.7309C74.6009 142.651 74.5109 142.701 74.3709 142.711C69.7442 143.171 64.7009 143.398 59.2409 143.391C53.7114 143.441 48.1877 143.016 42.7309 142.121C38.5755 141.51 34.5821 140.083 30.9809 137.921C27.8009 135.959 25.3201 133.044 23.8909 129.591H23.9309Z" fill="white"/>
<path d="M86.3209 315.822V312.822H87.7109C94.5209 312.822 101.331 312.822 108.151 312.822C111.851 312.822 114.591 310.961 115.241 307.741C115.496 305.719 115.606 303.68 115.571 301.641H96.2409C94.0596 301.679 91.9333 300.956 90.2271 299.597C88.5209 298.237 87.3413 296.326 86.8909 294.191C86.7557 293.443 86.6954 292.682 86.7109 291.921C86.7109 284.915 86.7109 277.915 86.7109 270.921C86.7109 265.431 90.0709 262.072 95.5409 262.072H110.411C115.801 262.072 118.481 264.751 118.481 270.072V307.591C118.608 309.501 118.007 311.387 116.799 312.872C115.591 314.356 113.866 315.328 111.971 315.591C110.983 315.792 109.978 315.892 108.971 315.891C101.831 315.891 94.7009 315.891 87.5709 315.891L86.3209 315.822ZM115.391 281.822C115.391 278.172 115.501 274.522 115.391 270.882C115.281 267.241 112.811 265.031 109.161 265.021H96.6609C92.4009 265.021 89.5909 267.721 89.5609 271.951C89.5609 278.441 89.4709 284.951 89.5609 291.431C89.6209 294.621 91.5609 298.531 96.6209 298.431C100.991 298.382 105.361 298.431 109.731 298.431H115.411C115.411 298.431 115.411 295.862 115.411 293.102C115.481 289.371 115.411 285.611 115.411 281.841L115.391 281.822Z" fill="white"/>
<path d="M488.681 267.661C489.431 266.542 490.041 265.661 490.621 264.751C491.146 263.914 491.876 263.224 492.742 262.748C493.609 262.272 494.582 262.025 495.571 262.031C498.904 261.952 502.238 261.952 505.571 262.031C508.821 262.102 511.351 264.862 511.721 268.602C511.809 269.479 511.852 270.36 511.851 271.241C511.851 280.795 511.851 290.338 511.851 299.871C511.851 302.021 511.801 301.581 510.101 301.621H508.721V271.421C508.721 267.711 506.781 265.512 503.111 265.292C500.71 265.15 498.303 265.133 495.901 265.241C493.031 265.361 491.151 267.581 490.841 270.971C490.841 271.491 490.841 271.971 490.841 272.531C490.841 281.718 490.841 290.901 490.841 300.081V301.551H487.841V271.871C487.841 268.031 485.551 265.471 481.721 265.241C479.356 265.116 476.986 265.116 474.621 265.241C470.781 265.411 468.981 267.382 468.971 271.241C468.971 280.821 468.971 290.405 468.971 299.991V301.531H466.031C465.977 301.274 465.941 301.014 465.921 300.751C465.921 290.331 465.921 279.901 465.971 269.481C465.971 265.661 467.881 263.102 471.091 262.211C471.634 262.077 472.192 262.017 472.751 262.031C475.561 262.031 478.371 262.031 481.171 262.031C483.971 262.031 486.341 262.931 487.601 265.731C487.801 266.291 488.201 266.841 488.681 267.661Z" fill="white"/>
<path d="M189.801 247.421H192.801C192.801 247.871 192.861 248.261 192.861 248.651C192.861 262.851 192.861 277.041 192.861 291.241C192.916 292.764 192.628 294.279 192.017 295.675C191.406 297.07 190.487 298.31 189.331 299.301C187.704 300.817 185.555 301.648 183.331 301.621C179.001 301.621 174.671 301.621 170.331 301.621C164.681 301.621 160.911 297.841 160.911 292.191C160.911 284.941 160.981 277.681 160.911 270.421C160.831 265.421 164.031 262.181 168.991 262.072C175.361 261.931 181.741 262.022 188.111 262.012C189.801 262.012 189.811 262.012 189.811 260.281V247.421H189.801ZM163.971 281.581C163.971 285.111 163.871 288.642 163.971 292.161C164.101 295.992 166.211 298.642 170.341 298.512C174.471 298.382 178.521 298.512 182.601 298.512C183.525 298.531 184.444 298.368 185.305 298.031C186.166 297.693 186.951 297.189 187.616 296.547C188.281 295.904 188.812 295.136 189.178 294.288C189.545 293.439 189.739 292.526 189.751 291.602C189.838 284.875 189.838 278.141 189.751 271.401C189.751 269.451 189.751 265.051 189.751 265.051H183.161C179.001 265.051 174.831 265.051 170.661 265.051C166.221 265.051 164.011 267.311 163.991 271.721C163.961 275.012 163.971 278.301 163.971 281.581Z" fill="white"/>
<path d="M21.1209 247.401H24.0209C24.0209 247.841 24.0809 248.271 24.0809 248.691C24.0809 252.691 24.0809 256.691 24.0809 260.691C24.0809 261.691 24.3909 261.991 25.3809 261.991C31.3809 261.951 37.3542 261.951 43.3009 261.991C44.5384 261.98 45.7731 262.111 46.9809 262.382C50.7509 263.292 52.8709 266.102 52.9809 270.632C53.1009 277.681 53.0409 284.732 52.9809 291.792C53.0146 292.631 52.9677 293.471 52.8409 294.301C52.4248 296.341 51.3224 298.175 49.7174 299.5C48.1124 300.825 46.1019 301.559 44.0209 301.581C39.2909 301.581 34.5609 301.641 29.8309 301.581C25.1009 301.521 21.0709 296.921 21.0709 291.861C21.0709 277.435 21.0709 263.005 21.0709 248.571C21.0609 248.231 21.1009 247.871 21.1209 247.401ZM49.9309 281.711V272.121C49.9309 267.391 47.6709 265.121 42.9309 265.072H24.1109C24.1109 265.072 24.1109 269.581 24.1109 271.681C24.0709 278.215 24.0709 284.745 24.1109 291.271C24.0769 292.237 24.2429 293.198 24.5985 294.096C24.9541 294.994 25.4916 295.808 26.1773 296.488C26.8629 297.168 27.6818 297.699 28.5825 298.047C29.4832 298.395 30.4461 298.553 31.4109 298.512H43.3109C47.3709 298.512 49.9409 295.931 49.9509 291.841C49.9409 288.441 49.9309 285.121 49.9309 281.711Z" fill="white"/>
<path d="M352.041 247.421H355.041V260.421C355.041 262.001 355.041 262.012 356.581 262.012H374.141C374.98 261.986 375.82 262.036 376.651 262.161C381.481 263.031 383.821 265.801 383.901 271.091C383.994 278.385 383.994 285.678 383.901 292.971C383.808 295.296 382.819 297.493 381.141 299.104C379.463 300.715 377.227 301.613 374.901 301.611C370.221 301.611 365.531 301.611 360.841 301.611C356.151 301.611 352.201 296.361 352.091 292.991C352.091 292.511 352.091 291.991 352.091 291.551V247.421H352.041ZM355.041 281.301V291.401C355.012 292.336 355.174 293.267 355.518 294.136C355.862 295.006 356.38 295.796 357.04 296.458C357.7 297.12 358.489 297.64 359.357 297.987C360.226 298.333 361.156 298.498 362.091 298.471C366.421 298.471 370.751 298.471 375.091 298.471C375.917 298.486 376.734 298.298 377.471 297.925C378.208 297.552 378.843 297.005 379.321 296.331C380.35 294.985 380.902 293.336 380.891 291.641V272.171C380.891 267.331 378.601 265.052 373.721 265.042C369.721 265.042 359.221 264.871 355.181 264.882C355.201 264.882 355.081 278.061 355.081 281.301H355.041Z" fill="white"/>
<path d="M237.181 275.121C237.181 273.121 237.321 271.292 237.181 269.512C237.076 268.236 236.476 267.053 235.51 266.214C234.544 265.375 233.288 264.947 232.011 265.021C224.431 265.021 216.861 265.021 209.281 265.021C208.101 265.021 207.981 264.511 208.011 263.581C208.041 262.651 207.891 261.901 209.321 261.921C217.051 261.981 224.791 261.921 232.521 261.921C236.791 261.921 239.071 263.652 240.111 267.512C240.228 267.972 240.285 268.446 240.281 268.921C240.281 276.741 240.281 284.558 240.281 292.371C240.285 293.574 240.051 294.766 239.592 295.878C239.134 296.99 238.46 298 237.61 298.85C236.759 299.701 235.749 300.375 234.637 300.833C233.525 301.291 232.334 301.525 231.131 301.521H217.761C216.478 301.538 215.204 301.297 214.015 300.814C212.827 300.331 211.746 299.615 210.838 298.709C209.93 297.802 209.212 296.723 208.726 295.535C208.241 294.348 207.997 293.075 208.011 291.792C207.938 288.673 208.072 285.553 208.411 282.451C209.111 277.581 212.311 275.061 217.211 275.061H237.211L237.181 275.121ZM223.501 298.621C223.501 298.541 228.561 298.481 231.071 298.361C234.951 298.191 237.231 295.711 237.231 291.841C237.231 289.512 237.231 287.191 237.231 284.841C237.231 283.181 237.231 278.551 237.231 278.551C237.231 278.551 221.991 278.111 216.901 278.421C215.375 278.535 213.943 279.199 212.871 280.29C211.798 281.381 211.159 282.824 211.071 284.352C210.971 287.112 210.971 289.881 211.071 292.641C211.059 293.962 211.525 295.242 212.384 296.246C213.242 297.249 214.434 297.908 215.741 298.101C218.281 298.521 220.911 298.471 223.501 298.621Z" fill="white"/>
<path d="M305.471 275.171C305.471 273.171 305.611 271.331 305.471 269.551C305.366 268.276 304.766 267.093 303.8 266.254C302.834 265.415 301.578 264.987 300.301 265.061C292.721 265.061 285.151 265.061 277.571 265.061C276.391 265.061 276.271 264.552 276.311 263.632C276.351 262.711 276.181 261.951 277.611 261.961C285.341 262.031 293.081 261.961 300.821 261.961C305.081 261.961 307.361 263.691 308.401 267.551C308.518 268.016 308.575 268.493 308.571 268.971C308.571 276.792 308.571 284.608 308.571 292.421C308.575 293.623 308.341 294.813 307.883 295.924C307.425 297.035 306.752 298.044 305.903 298.893C305.053 299.743 304.044 300.416 302.933 300.874C301.823 301.332 300.632 301.565 299.431 301.561H286.051C284.768 301.578 283.495 301.337 282.307 300.854C281.119 300.371 280.039 299.655 279.131 298.748C278.224 297.841 277.507 296.763 277.022 295.575C276.538 294.387 276.296 293.114 276.311 291.831C276.23 288.713 276.36 285.592 276.701 282.491C277.401 277.621 280.611 275.112 285.511 275.102H305.511L305.471 275.171ZM291.791 298.641C291.791 298.561 296.851 298.501 299.371 298.391C303.251 298.211 305.521 295.731 305.521 291.861C305.521 289.541 305.521 287.211 305.521 284.861C305.521 283.211 305.521 278.572 305.521 278.572C305.521 278.572 290.281 278.141 285.191 278.451C283.666 278.561 282.232 279.222 281.159 280.312C280.086 281.401 279.447 282.845 279.361 284.371C279.274 287.132 279.274 289.898 279.361 292.671C279.349 293.991 279.816 295.27 280.675 296.272C281.533 297.273 282.725 297.931 284.031 298.121C286.581 298.542 289.201 298.501 291.791 298.641Z" fill="white"/>
<path d="M559.411 301.611H554.181C548.641 301.611 543.111 301.611 537.581 301.611C536.462 301.619 535.345 301.505 534.251 301.271C532.254 300.848 530.465 299.746 529.188 298.153C527.912 296.559 527.227 294.573 527.251 292.531C527.251 285.645 527.251 278.755 527.251 271.861C527.251 265.861 530.711 262.241 536.751 262.081C541.391 261.961 546.041 261.971 550.691 262.081C555.631 262.191 558.741 265.351 558.901 270.271C558.901 271.791 559.381 273.611 558.711 274.741C558.041 275.871 556.241 276.181 554.911 276.801C547.038 280.468 539.161 284.135 531.281 287.801C530.521 288.151 530.131 288.571 530.281 289.431C530.446 291.21 530.703 292.979 531.051 294.731C531.293 295.805 531.9 296.761 532.768 297.437C533.636 298.114 534.711 298.469 535.811 298.441C538.371 298.561 540.931 298.551 543.501 298.561H557.681C559.441 298.561 559.441 298.561 559.431 300.341L559.411 301.611ZM530.251 284.821L533.691 283.231C540.731 279.958 547.768 276.685 554.801 273.411C555.201 273.221 555.721 272.891 555.801 272.541C556.088 271.665 556.159 270.732 556.006 269.823C555.853 268.913 555.482 268.054 554.925 267.32C554.367 266.585 553.64 265.997 552.805 265.605C551.97 265.214 551.052 265.03 550.131 265.071C545.721 265.001 541.311 265.011 536.901 265.071C533.411 265.071 530.831 267.181 530.521 270.671C530.181 274.451 530.311 278.271 530.241 282.071C530.241 282.881 530.251 283.711 530.251 284.821Z" fill="white"/>
<path d="M450.171 281.471C450.171 285.281 450.171 289.091 450.171 292.891C450.163 294.969 449.403 296.973 448.031 298.534C446.66 300.095 444.77 301.106 442.711 301.382C441.641 301.53 440.561 301.603 439.481 301.602C434.721 301.602 429.941 301.602 425.191 301.352C421.881 301.151 419.651 299.241 418.641 295.921C418 293.822 417.683 291.637 417.701 289.441C417.761 282.952 417.791 276.441 417.701 269.971C417.631 264.831 420.701 262.211 425.531 262.051C431.051 261.851 436.591 261.881 442.111 262.051C445.841 262.161 449.321 264.051 449.991 267.801C450.113 268.511 450.17 269.231 450.161 269.951C450.181 273.781 450.171 277.632 450.171 281.471ZM447.171 281.801C447.171 278.471 447.171 275.141 447.171 271.801C447.218 270.904 447.077 270.007 446.755 269.168C446.434 268.329 445.94 267.567 445.306 266.931C444.672 266.294 443.911 265.798 443.073 265.475C442.235 265.151 441.338 265.007 440.441 265.051C436.191 265.001 431.941 264.991 427.691 265.051C423.441 265.111 420.861 267.791 420.841 271.961C420.801 278.335 420.801 284.708 420.841 291.081C420.841 295.751 423.631 298.441 428.291 298.471C432.098 298.471 435.908 298.471 439.721 298.471C444.611 298.471 447.171 295.861 447.191 290.931C447.141 287.891 447.131 284.841 447.131 281.801H447.171Z" fill="white"/>
<path d="M701.741 262.121V265.012H682.231C678.481 265.012 676.541 267.011 676.541 270.731V273.141C676.492 273.944 676.613 274.749 676.897 275.502C677.18 276.255 677.62 276.939 678.186 277.51C678.752 278.081 679.433 278.526 680.184 278.816C680.934 279.106 681.738 279.234 682.541 279.191C686.151 279.191 689.771 279.392 693.361 279.191C694.482 279.13 695.605 279.305 696.654 279.705C697.704 280.105 698.657 280.722 699.452 281.516C700.247 282.309 700.867 283.261 701.27 284.31C701.673 285.358 701.85 286.48 701.791 287.602C701.826 290.272 701.726 292.942 701.491 295.602C701.189 297.262 700.322 298.766 699.037 299.86C697.752 300.953 696.128 301.569 694.441 301.602C687.661 301.661 680.891 301.602 674.121 301.602C673.961 301.602 673.811 301.602 673.471 301.531C673.411 300.746 673.411 299.957 673.471 299.171C673.551 299 673.673 298.851 673.824 298.737C673.976 298.624 674.154 298.55 674.341 298.521C675.781 298.451 677.221 298.521 678.671 298.521C683.231 298.521 687.811 298.411 692.371 298.521C696.151 298.641 698.441 296.522 698.601 293.072C698.731 291.354 698.731 289.629 698.601 287.911C698.221 284.332 696.041 282.441 692.401 282.391C688.761 282.341 685.261 282.471 681.701 282.391C680.183 282.323 678.69 281.984 677.291 281.391C676.121 280.931 675.123 280.12 674.433 279.068C673.744 278.017 673.397 276.778 673.441 275.521C673.34 272.765 673.441 270.004 673.741 267.262C673.939 265.828 674.648 264.515 675.737 263.563C676.827 262.611 678.224 262.085 679.671 262.081C686.891 261.981 694.101 262.081 701.321 262.081C701.462 262.078 701.603 262.091 701.741 262.121Z" fill="white"/>
<path d="M659.631 262.121V265.001H645.331C640.821 265.001 638.091 267.762 638.081 272.292C638.081 278.552 638.081 284.808 638.081 291.061C638.052 292.037 638.222 293.008 638.582 293.915C638.941 294.822 639.482 295.646 640.171 296.337C640.86 297.028 641.683 297.571 642.589 297.933C643.495 298.295 644.466 298.468 645.441 298.441C649.731 298.441 654.021 298.441 658.311 298.441C658.781 298.441 659.621 298.611 659.661 298.821C659.766 299.648 659.766 300.485 659.661 301.311C659.661 301.401 659.271 301.541 659.061 301.541C653.851 301.491 648.631 301.661 643.441 301.301C638.251 300.941 635.031 297.061 635.031 291.841C635.031 284.841 635.031 277.841 635.031 270.841C635.022 269.799 635.129 268.76 635.351 267.741C636.111 264.371 638.611 262.232 642.631 262.072C648.151 261.862 653.691 262.012 659.221 262.012C659.362 262.028 659.5 262.065 659.631 262.121Z" fill="white"/>
<path d="M583.331 265.031H575.951C575.951 265.702 575.851 266.292 575.851 266.871C575.851 277.732 575.851 288.591 575.851 299.451C575.851 302.021 576.091 301.561 573.671 301.611C573.401 301.611 573.131 301.611 572.801 301.561V247.561C572.901 247.511 573.001 247.421 573.111 247.421C576.491 247.421 575.811 247.061 575.851 249.951C575.851 253.391 575.851 256.841 575.851 260.292C575.851 262.031 575.851 262.031 577.641 262.031H583.331V265.031Z" fill="white"/>
<path d="M266.201 262.001V265.001H258.771C258.771 265.651 258.671 266.232 258.671 266.811C258.671 277.831 258.671 288.855 258.671 299.882C258.671 300.422 258.621 301.361 258.401 301.421C257.62 301.572 256.821 301.602 256.031 301.512C255.901 301.512 255.731 301.171 255.691 300.961C255.661 300.602 255.661 300.241 255.691 299.882C255.691 282.928 255.691 265.971 255.691 249.012C255.691 248.472 255.751 247.542 255.971 247.471C256.746 247.299 257.549 247.282 258.331 247.421C258.501 247.421 258.681 248.152 258.691 248.542C258.691 252.471 258.691 256.401 258.691 260.331C258.691 261.951 258.691 261.961 260.361 261.961L266.201 262.001Z" fill="white"/>
<path d="M604.831 262.042V264.961C603.901 265.061 603.001 265.102 602.111 265.281C600.805 265.455 599.606 266.093 598.733 267.08C597.861 268.066 597.374 269.335 597.361 270.651C597.301 271.318 597.271 271.985 597.271 272.651C597.271 281.751 597.271 290.852 597.271 299.941C597.271 300.471 597.171 301.401 596.951 301.451C596.165 301.589 595.362 301.605 594.571 301.501C594.461 301.501 594.321 301.121 594.281 300.911C594.256 300.552 594.256 300.191 594.281 299.831C594.281 289.831 594.281 279.851 594.281 269.891C594.272 269.052 594.349 268.215 594.511 267.391C595.291 263.991 597.131 262.391 600.691 262.021C601.991 261.931 603.351 262.042 604.831 262.042Z" fill="white"/>
<path d="M68.0509 301.561V262.171C68.17 262.107 68.2981 262.059 68.4309 262.031C71.7409 261.961 71.1009 261.762 71.1109 264.512C71.1109 276.178 71.1109 287.845 71.1109 299.512C71.1109 302.031 71.3009 301.561 68.9909 301.611C68.7209 301.611 68.4109 301.581 68.0509 301.561Z" fill="white"/>
<path d="M619.791 301.551H616.791V262.211C616.871 262.141 616.901 262.091 616.931 262.081C619.671 261.641 619.761 261.721 619.761 264.451V301.551H619.791Z" fill="white"/>
<path d="M402.411 281.882C402.411 287.961 402.411 294.048 402.411 300.141C402.411 300.611 402.271 301.461 402.071 301.501C401.286 301.627 400.486 301.627 399.701 301.501C399.561 301.501 399.421 300.881 399.411 300.551C399.411 298.831 399.411 297.111 399.411 295.391C399.411 284.811 399.411 274.238 399.411 263.671C399.411 263.141 399.491 262.211 399.711 262.151C400.485 261.981 401.287 261.981 402.061 262.151C402.251 262.151 402.411 262.961 402.411 263.391C402.411 268.318 402.411 273.245 402.411 278.171V281.882Z" fill="white"/>
<path d="M618.291 253.261C617.91 253.262 617.532 253.186 617.181 253.038C616.829 252.891 616.511 252.675 616.244 252.403C615.976 252.131 615.766 251.809 615.625 251.455C615.484 251.101 615.414 250.723 615.421 250.341C615.396 249.96 615.45 249.577 615.578 249.216C615.706 248.856 615.907 248.525 616.167 248.245C616.427 247.964 616.741 247.739 617.091 247.584C617.441 247.429 617.818 247.346 618.201 247.341C618.892 247.458 619.521 247.813 619.978 248.345C620.435 248.877 620.691 249.553 620.702 250.254C620.713 250.955 620.477 251.638 620.037 252.184C619.596 252.73 618.979 253.104 618.291 253.241V253.261Z" fill="white"/>
<path d="M66.7409 250.301C66.7147 249.923 66.767 249.543 66.8947 249.186C67.0224 248.829 67.2226 248.502 67.4827 248.226C67.7429 247.949 68.0574 247.73 68.4064 247.581C68.7555 247.433 69.1315 247.358 69.5109 247.361C70.2623 247.405 70.9685 247.735 71.485 248.282C72.0015 248.83 72.2892 249.554 72.2892 250.306C72.2892 251.059 72.0015 251.783 71.485 252.331C70.9685 252.878 70.2623 253.208 69.5109 253.251C69.1327 253.248 68.7592 253.168 68.4129 253.016C68.0665 252.864 67.7545 252.644 67.4957 252.368C67.2368 252.093 67.0365 251.767 66.9068 251.412C66.777 251.057 66.7206 250.679 66.7409 250.301Z" fill="white"/>
<path d="M400.731 247.361C401.484 247.391 402.198 247.707 402.725 248.246C403.253 248.785 403.553 249.505 403.566 250.259C403.579 251.013 403.303 251.743 402.794 252.3C402.285 252.856 401.583 253.197 400.831 253.251C400.078 253.222 399.364 252.906 398.837 252.367C398.309 251.828 398.008 251.108 397.996 250.354C397.983 249.6 398.259 248.87 398.768 248.313C399.276 247.757 399.979 247.416 400.731 247.361Z" fill="white"/>
</g>
<defs>
<clipPath id="clip0_1645_1027">
<rect width="721.71" height="315.55" fill="white" transform="translate(0.660889 0.271484)"/>
</clipPath>
</defs>
</svg>
