<svg width="368" height="272" viewBox="0 0 368 272" fill="none" xmlns="http://www.w3.org/2000/svg">
<path fill-rule="evenodd" clip-rule="evenodd" d="M99.2531 87.1426C97.1906 87.3088 93.6522 87.5732 91.3901 87.7303C89.128 87.8875 86.9389 88.0595 86.5254 88.1128C86.112 88.1662 84.0434 88.3213 81.9286 88.4578C76.4279 88.8124 74.7936 88.9322 71.7931 89.1998C67.7818 89.5579 66.4666 89.6554 63.6882 89.8005C62.291 89.8736 60.0591 90.0357 58.7284 90.1608C57.3978 90.2858 54.4582 90.5048 52.1961 90.6473C47.2908 90.9565 47.0227 90.9972 45.6599 91.6378C44.3774 92.2405 43.5601 93.0241 42.9647 94.2217C42.5379 95.0799 42.5186 96.5237 42.5186 127.659V160.2L43.3278 161.845C43.773 162.749 44.5308 164.001 45.012 164.627C47.5105 167.876 50.8308 172.241 51.3987 173.023C51.4954 173.156 51.8862 173.646 52.2672 174.111C52.6483 174.577 54.2492 176.646 55.8252 178.708C59.147 183.056 59.7163 183.634 61.4921 184.461C62.7998 185.07 62.8196 185.072 67.5405 184.907C70.1455 184.816 72.5491 184.704 72.8818 184.658C73.4288 184.583 75.6743 184.444 81.2287 184.141C85.3905 183.915 87.6546 183.776 91.0272 183.541C92.9566 183.406 97.366 183.131 100.826 182.929C104.285 182.726 108.695 182.461 110.624 182.339C112.554 182.217 115.33 182.057 116.794 181.985C123.55 181.649 130.915 181.096 131.794 180.859C132.975 180.539 134.271 179.768 134.997 178.954C136.317 177.471 136.27 178.894 136.27 140.655V105.351L134.871 103.985C134.102 103.233 132.442 101.918 131.182 101.061C129.922 100.204 127.04 98.1837 124.778 96.5716C122.515 94.9596 119.739 93.0033 118.608 92.2245C117.477 91.4455 115.735 90.2401 114.737 89.5462C112.513 87.999 111.58 87.5157 110.019 87.0998C108.551 86.7086 104.44 86.7248 99.2531 87.1426ZM109.744 93.0299C111.553 93.6657 122.721 101.596 122.721 102.244C122.721 102.626 123.236 102.588 98.0434 104.069C92.3881 104.402 85.257 104.836 82.1964 105.034C72.8576 105.639 66.8254 105.962 64.414 105.984C62.3684 106.003 61.9692 105.933 60.7849 105.342C58.7584 104.332 50.9864 97.98 50.9864 97.3345C50.9864 96.5327 52.0662 96.3181 58.3655 95.8679C61.4926 95.6443 66.8817 95.2516 70.3415 94.9954C73.8012 94.7392 80.5513 94.2461 85.3416 93.8999C90.132 93.5537 96.501 93.066 99.495 92.816C105.761 92.2927 107.765 92.3346 109.744 93.0299ZM128.608 109.767C128.954 110.039 129.349 110.665 129.486 111.158C129.844 112.446 129.829 170.018 129.47 171.329C129.165 172.443 128.69 173.047 127.728 173.545C127.214 173.81 123.036 174.128 110.67 174.84C87.9033 176.151 86.3609 176.242 77.3577 176.792C66.2769 177.469 64.4938 177.483 63.5106 176.897C61.8976 175.936 61.9941 177.982 61.9982 144.921C62.0009 121.598 62.0681 114.826 62.3011 114.366C62.972 113.04 63.416 112.957 72.6466 112.421C89.9266 111.418 101.646 110.733 105.543 110.499C107.739 110.368 111.713 110.133 114.374 109.979C117.036 109.824 120.356 109.618 121.753 109.521C126.705 109.178 127.914 109.221 128.608 109.767ZM258.521 115.538C257.503 116.275 256.75 117.712 256.762 118.894C256.782 120.873 258.783 122.809 260.817 122.817C264.049 122.829 265.983 119.281 264.208 116.598C262.97 114.728 260.32 114.234 258.521 115.538ZM171.109 137.337V156.45H174.496H177.883V143.492C177.883 135.855 177.973 130.589 178.101 130.669C178.221 130.743 182.483 136.577 187.572 143.634L196.825 156.464L199.874 156.396L202.924 156.329V137.337V118.345L199.478 118.278L196.033 118.21L195.97 131.128L195.907 144.045L191.553 137.989C189.157 134.659 186.218 130.594 185.02 128.956C183.823 127.319 181.593 124.234 180.065 122.101L177.287 118.224H174.198H171.109V137.337ZM111.834 120.061C105.833 120.464 105.733 120.484 104.848 121.492C104.181 122.252 103.615 123.876 103.915 124.175C103.982 124.243 105.111 124.433 106.423 124.598L108.81 124.897L108.874 131.359C108.91 134.913 108.91 140.72 108.874 144.263L108.81 150.705L107.973 149.404C107.513 148.689 106 146.361 104.61 144.232C100.126 137.364 98.9976 135.634 94.6705 128.99C92.3305 125.397 90.2346 122.199 90.0127 121.883L89.6094 121.309L83.2416 121.711C75.2872 122.213 74.2086 122.376 73.3408 123.207C72.4875 124.025 72.1008 124.97 72.1991 125.997C72.2571 126.605 72.4004 126.825 72.7608 126.86C73.027 126.887 74.0886 126.977 75.1197 127.062L76.9948 127.217V145.901V164.586L75.0513 165.147C72.7942 165.799 72.156 166.398 72.156 167.862V168.806L74.273 168.661C75.4374 168.582 78.8395 168.377 81.8335 168.208C88.2241 167.845 88.9683 167.618 89.8705 165.761C90.1577 165.17 90.3265 164.62 90.246 164.54C90.1654 164.459 88.8655 164.119 87.3575 163.784C85.8497 163.449 84.5333 163.098 84.4324 163.004C84.3315 162.91 84.2771 156.583 84.3115 148.943L84.3739 135.053L86.8983 139.038C88.2865 141.229 89.8758 143.73 90.4296 144.595C90.9834 145.46 93.5371 149.488 96.1045 153.547C103.008 164.459 103.303 164.897 104.667 166.251C105.964 167.538 107.217 168.063 108.987 168.063C110.159 168.063 112.451 167.425 114.191 166.615L115.702 165.912L115.764 144.92L115.826 123.927L117.519 123.594C118.492 123.403 119.435 123.056 119.734 122.778C120.304 122.251 120.657 120.897 120.419 120.149C120.239 119.579 119.176 119.568 111.834 120.061ZM240.835 124.03L240.908 127.66L238.67 127.66L236.432 127.659V130.321V132.982H238.588H240.743L240.831 142.115L240.919 151.248L241.554 152.593C242.886 155.411 245.389 156.558 250.223 156.564C251.753 156.566 253.196 156.49 253.428 156.395C253.796 156.246 253.852 155.869 253.852 153.554V150.885L251.856 150.882C249.553 150.878 248.87 150.609 248.179 149.433C247.711 148.636 247.677 148.138 247.599 140.784L247.516 132.982H250.684H253.852V130.321V127.659H251.089C249.57 127.659 248.154 127.593 247.944 127.512C247.62 127.388 247.561 126.835 247.561 123.883V120.401H244.162H240.763L240.835 124.03ZM219.134 126.849C213.18 127.801 209.411 131.106 207.87 136.726C207.451 138.253 207.345 139.302 207.345 141.934C207.345 147.189 208.535 150.582 211.354 153.365C212.942 154.932 215.493 156.298 217.585 156.7C219.078 156.987 223.315 156.972 224.915 156.673C225.886 156.491 228.119 155.535 229.624 154.656C229.938 154.472 230.727 153.764 231.378 153.082C234.614 149.689 235.97 143.453 234.739 137.622C233.598 132.215 230.286 128.588 225.317 127.3C223.738 126.891 220.395 126.647 219.134 126.849ZM279.86 126.849C272.944 127.955 268.922 132.285 268.13 139.477C267.813 142.357 268.117 145.968 268.858 148.12C270.37 152.515 273.576 155.473 278.045 156.597C280.365 157.181 285.362 156.964 287.36 156.193C291.75 154.498 294.464 151.154 295.493 146.17C297.108 138.345 294.399 131.122 288.795 128.311C286.511 127.165 282.245 126.467 279.86 126.849ZM312.292 127.08C309.84 127.673 308.059 128.99 306.682 131.23L306.125 132.135L306.118 129.776L306.11 127.417H302.844H299.578V141.934V156.45H302.965H306.352V147.421C306.352 137.522 306.429 136.854 307.78 134.989C309.641 132.419 314.232 131.99 316.52 134.172C318.124 135.701 318.207 136.337 318.207 147.058V156.45H321.594H324.982V146.091C324.982 134.826 324.88 133.647 323.73 131.53C322.337 128.966 320.566 127.687 317.513 127.04C315.529 126.619 314.153 126.63 312.292 127.08ZM257.481 141.934V156.45H260.868H264.255V141.934V127.417H260.868H257.481V141.934ZM223.358 132.881C225.146 133.412 226.758 135.083 227.472 137.145C228.278 139.472 228.404 142.983 227.771 145.485C226.928 148.82 225.538 150.366 222.768 151.049C221.32 151.407 221.061 151.407 219.622 151.052C218.76 150.839 217.719 150.417 217.309 150.114C216.289 149.36 215.203 147.654 214.722 146.051C214.171 144.213 214.175 139.64 214.73 137.789C215.961 133.682 219.424 131.712 223.358 132.881ZM284.884 133.225C286.874 134.254 287.762 135.498 288.463 138.241C289.637 142.828 288.421 148.284 285.812 150.142C284.619 150.991 282.387 151.436 280.795 151.142C277.375 150.509 275.704 148.383 275.107 143.902C274.79 141.517 275.072 138.556 275.78 136.854C276.654 134.751 278.323 133.224 280.303 132.716C281.54 132.398 283.763 132.645 284.884 133.225Z" fill="white"/>
</svg>
