<svg width="580" height="180" viewBox="0 0 580 180" fill="none" xmlns="http://www.w3.org/2000/svg">
<rect x="20" y="20" width="40" height="40" fill="white"/>
<rect x="40" y="140" width="20" height="20" fill="white"/>
<rect x="60" y="60" width="80" height="80" fill="#5AC2D7"/>
<path d="M215.364 60.0214C224.438 60.0214 231.567 62.2025 236.752 66.5647C241.937 70.9268 244.53 76.7834 244.53 84.1345C244.53 91.9702 241.937 97.9884 236.752 102.189C231.567 106.309 224.478 108.369 215.485 108.369L213.784 109.338H196.527V139.994H180V60.0214H215.364ZM213.419 96.6151C218.118 96.6151 221.602 95.6861 223.871 93.8281C226.22 91.8894 227.395 88.9409 227.395 84.9827C227.395 81.0244 226.22 78.1163 223.871 76.2583C221.602 74.3196 218.118 73.3502 213.419 73.3502H196.527V96.6151H213.419ZM223.263 100.129L249.269 139.994H230.433L208.923 104.976L223.263 100.129Z" fill="white"/>
<path d="M287.786 141.206C281.386 141.206 275.796 139.954 271.016 137.45C266.317 134.946 262.671 131.351 260.078 126.666C257.486 121.98 256.19 116.326 256.19 109.702C256.19 103.078 257.486 97.4229 260.078 92.7376C262.671 88.0523 266.276 84.4576 270.894 81.9534C275.593 79.4492 280.94 78.1971 286.936 78.1971C293.093 78.1971 298.318 79.4492 302.612 81.9534C306.906 84.3768 310.187 87.7292 312.456 92.0106C314.724 96.2112 315.858 101.018 315.858 106.43C315.858 108.046 315.818 109.58 315.737 111.034C315.656 112.488 315.534 113.781 315.372 114.912H266.884V103.401H308.081L300.06 106.309C300.06 101.22 298.885 97.3017 296.536 94.5552C294.268 91.8086 291.027 90.4354 286.814 90.4354C283.735 90.4354 281.062 91.1624 278.793 92.6164C276.606 94.0705 274.945 96.2516 273.811 99.1597C272.677 101.987 272.109 105.582 272.109 109.944C272.109 114.225 272.717 117.78 273.932 120.607C275.229 123.354 277.011 125.413 279.279 126.787C281.629 128.16 284.424 128.847 287.665 128.847C291.229 128.847 294.105 128.16 296.293 126.787C298.48 125.413 300.182 123.515 301.397 121.092L314.643 126.181C313.347 129.331 311.362 132.037 308.689 134.299C306.096 136.561 302.977 138.298 299.331 139.51C295.766 140.641 291.918 141.206 287.786 141.206Z" fill="white"/>
<path d="M367.929 79.4088H385.186L362.096 139.994H342.895L319.805 79.4088H337.669L352.617 127.271L367.929 79.4088Z" fill="white"/>
<path d="M421.891 141.206C415.491 141.206 409.901 139.954 405.121 137.45C400.422 134.946 396.776 131.351 394.183 126.666C391.591 121.98 390.295 116.326 390.295 109.702C390.295 103.078 391.591 97.4229 394.183 92.7376C396.776 88.0523 400.381 84.4576 404.999 81.9534C409.698 79.4492 415.045 78.1971 421.04 78.1971C427.198 78.1971 432.423 79.4492 436.717 81.9534C441.011 84.3768 444.292 87.7292 446.561 92.0106C448.829 96.2112 449.963 101.018 449.963 106.43C449.963 108.046 449.923 109.58 449.842 111.034C449.761 112.488 449.639 113.781 449.477 114.912H400.989V103.401H442.186L434.165 106.309C434.165 101.22 432.99 97.3017 430.641 94.5552C428.372 91.8086 425.132 90.4354 420.919 90.4354C417.84 90.4354 415.167 91.1624 412.898 92.6164C410.711 94.0705 409.05 96.2516 407.916 99.1597C406.781 101.987 406.214 105.582 406.214 109.944C406.214 114.225 406.822 117.78 408.037 120.607C409.334 123.354 411.116 125.413 413.384 126.787C415.734 128.16 418.529 128.847 421.77 128.847C425.334 128.847 428.21 128.16 430.398 126.787C432.585 125.413 434.287 123.515 435.502 121.092L448.748 126.181C447.452 129.331 445.467 132.037 442.793 134.299C440.201 136.561 437.082 138.298 433.436 139.51C429.871 140.641 426.023 141.206 421.891 141.206Z" fill="white"/>
<path d="M480.965 52.8723V139.994H464.316V52.8723H480.965Z" fill="white"/>
<path d="M526.315 78.1971C532.473 78.1971 537.86 79.4492 542.478 81.9534C547.177 84.4576 550.823 88.0523 553.416 92.7376C556.089 97.4229 557.426 103.078 557.426 109.702C557.426 116.245 556.089 121.899 553.416 126.666C550.823 131.351 547.177 134.946 542.478 137.45C537.86 139.954 532.473 141.206 526.315 141.206C520.239 141.206 514.852 139.954 510.153 137.45C505.454 134.946 501.767 131.351 499.094 126.666C496.501 121.899 495.205 116.245 495.205 109.702C495.205 103.078 496.501 97.4229 499.094 92.7376C501.767 88.0523 505.454 84.4576 510.153 81.9534C514.852 79.4492 520.239 78.1971 526.315 78.1971ZM526.315 90.5565C523.237 90.5565 520.604 91.2836 518.416 92.7376C516.31 94.1109 514.69 96.2112 513.555 99.0385C512.421 101.866 511.854 105.42 511.854 109.702C511.854 113.983 512.421 117.537 513.555 120.365C514.69 123.192 516.31 125.333 518.416 126.787C520.604 128.16 523.237 128.847 526.315 128.847C529.313 128.847 531.865 128.16 533.972 126.787C536.159 125.333 537.82 123.192 538.954 120.365C540.088 117.537 540.655 113.983 540.655 109.702C540.655 105.42 540.088 101.866 538.954 99.0385C537.82 96.2112 536.159 94.1109 533.972 92.7376C531.865 91.2836 529.313 90.5565 526.315 90.5565Z" fill="white"/>
</svg>
