<svg width="368" height="272" viewBox="0 0 368 272" fill="none" xmlns="http://www.w3.org/2000/svg">
<path d="M94.9952 138.311C96.6695 136.889 97.5169 134.73 97.5169 131.899C97.5169 126.686 94.5289 123.697 89.3184 123.697H72.314V148.288H76.4134V127.798H89.3184C92.2682 127.798 93.4177 128.948 93.4177 131.899C93.4177 134.85 92.2682 136 89.3184 136H80.888L92.5555 148.288H97.8366L90.1423 140.074C92.1332 139.948 93.7636 139.356 94.9952 138.308V138.311Z" fill="#F7F7FA"/>
<path d="M114.087 123.421H114.078C108.756 123.421 104.962 125.04 102.795 128.226C101.012 130.851 100.807 133.919 100.807 135.999C100.807 138.079 101.012 141.147 102.795 143.773C104.959 146.958 108.756 148.575 114.078 148.578C114.081 148.578 114.084 148.578 114.087 148.578C119.412 148.578 123.212 146.964 125.382 143.781C127.177 141.15 127.385 138.082 127.385 135.999C127.385 133.916 127.177 130.848 125.382 128.217C123.209 125.034 119.409 123.421 114.084 123.421H114.087ZM121.998 141.467C120.638 143.462 117.975 144.474 114.087 144.474H114.078C110.196 144.474 107.539 143.459 106.185 141.464C105.05 139.795 104.903 137.665 104.903 135.996C104.903 134.327 105.05 132.198 106.185 130.528C107.539 128.534 110.196 127.522 114.078 127.519H114.084C117.972 127.519 120.635 128.531 121.995 130.526C123.136 132.201 123.283 134.327 123.283 135.996C123.283 137.665 123.136 139.792 121.995 141.467H121.998Z" fill="#F7F7FA"/>
<path d="M266.129 135.434C264.745 134.477 262.863 133.993 260.529 133.993H252.641C248.676 133.993 248.345 132.383 248.345 130.875C248.345 129.367 248.676 127.757 252.641 127.757H267.675V123.741H252.641C250.309 123.741 248.424 124.225 247.04 125.181C245.803 126.038 244.327 127.719 244.327 130.875C244.327 134.032 245.803 135.712 247.04 136.569C248.424 137.525 250.306 138.009 252.641 138.009H260.529C262.009 138.009 263.156 138.261 263.844 138.737C264.268 139.027 264.824 139.593 264.824 141.127C264.824 142.662 264.493 144.246 260.529 144.246H245.34V148.261H260.529C262.86 148.261 264.745 147.777 266.129 146.821C267.366 145.965 268.842 144.284 268.842 141.127C268.842 137.971 267.366 136.29 266.129 135.434Z" fill="#F7F7FA"/>
<path d="M193.728 138.036H208.622V133.935H193.728V127.783H212.175V123.683H189.628V148.288H212.21V144.187H193.728V138.036Z" fill="#F7F7FA"/>
<path d="M278.108 138.036H293.004V133.935H278.108V127.783H296.557V123.683H274.008V148.288H296.59V144.187H278.108V138.036Z" fill="#F7F7FA"/>
<path d="M215.864 127.739H226.113V148.302H230.214V127.739H240.463V123.724H215.864V127.739Z" fill="#F7F7FA"/>
<path d="M354.768 123.724H330.17V127.739H340.42V148.302H344.52V127.739H354.768V123.724Z" fill="#F7F7FA"/>
<path d="M185.353 123.738H180.189L169.806 136L180.202 148.288H185.397L175.16 135.997L185.353 123.738Z" fill="#F7F7FA"/>
<path d="M165.185 123.683H160.881V148.288H165.185V123.683Z" fill="#F7F7FA"/>
<path d="M318.76 123.705H308.922C304.861 123.705 301.559 127.008 301.559 131.071V148.296H305.626V139.839H322.083V148.296H326.096V138.117C326.112 138.014 326.123 137.911 326.123 137.806V131.071C326.123 127.008 322.82 123.705 318.76 123.705ZM322.056 135.77H305.626V131.071C305.626 129.252 307.104 127.774 308.922 127.774H318.76C320.577 127.774 322.056 129.252 322.056 131.071V135.77Z" fill="#F7F7FA"/>
<path d="M131.511 131.077V140.918C131.511 144.981 134.812 148.284 138.874 148.284H156.092V144.215H138.874C137.056 144.215 135.578 142.737 135.578 140.918V131.077C135.578 129.258 137.056 127.78 138.874 127.78H156.092V123.711H138.874C134.812 123.711 131.511 127.014 131.511 131.077Z" fill="#F7F7FA"/>
<path d="M37.6511 145.732C28.1124 153.884 21.3388 154.459 17.8699 150.986C14.6737 147.788 17.3245 139.769 23.7843 131.848L11.5098 119.572H19.3536L31.5461 131.769C23.8517 139.513 19.3654 147.759 21.6848 150.079C23.6054 152.004 29.5169 149.337 35.8946 143.975L37.6511 145.732Z" fill="#F7F7FA"/>
<path d="M60.0276 152.426H52.1838L39.9912 140.229C47.6855 132.488 52.172 124.24 49.8555 121.922C47.9348 119.998 42.0174 122.667 35.6397 128.029L33.8833 126.272C43.4249 118.118 50.2014 117.54 53.6704 121.013C56.8666 124.21 54.2187 132.23 47.7559 140.15L60.0306 152.426H60.0276Z" fill="#F7F7FA"/>
</svg>
