<svg width="368" height="272" viewBox="0 0 368 272" fill="none" xmlns="http://www.w3.org/2000/svg">
<path d="M182.595 145.216C158.022 166.203 140.576 167.686 131.639 158.748C123.405 150.51 130.23 129.866 146.876 109.472L115.259 77.8596H135.467L166.87 109.262C147.05 129.204 135.496 150.438 141.464 156.406C146.411 161.361 161.636 154.492 178.068 140.693L182.591 145.216H182.595Z" fill="#F5F5FA"/>
<path d="M240.231 162.452H220.024L188.613 131.041C208.433 111.104 219.99 89.8698 214.021 83.9011C209.071 78.9418 193.834 85.8192 177.402 99.6266L172.879 95.1036C197.461 74.1038 214.911 72.6218 223.847 81.5627C232.087 89.801 225.26 110.445 208.615 130.839L240.231 162.452Z" fill="#F5F5FA"/>
<path d="M102.098 189.469C103.253 188.487 103.835 187.001 103.835 185.054C103.835 181.464 101.775 179.405 98.185 179.405H86.4696V196.338H89.2925V182.228H98.1809C100.212 182.228 101.004 183.019 101.004 185.05C101.004 187.082 100.212 187.873 98.1809 187.873H92.3738L100.41 196.334H104.049L98.7504 190.68C100.123 190.591 101.246 190.187 102.094 189.464L102.098 189.469Z" fill="#F5F5FA"/>
<path d="M115.247 179.215C111.58 179.215 108.967 180.33 107.473 182.522C106.246 184.332 106.104 186.444 106.104 187.877C106.104 189.311 106.246 191.423 107.473 193.232C108.963 195.425 111.58 196.54 115.247 196.54C115.247 196.54 115.247 196.54 115.255 196.54C118.922 196.54 121.543 195.429 123.037 193.236C124.273 191.423 124.414 189.311 124.414 187.877C124.414 186.444 124.273 184.332 123.037 182.518C121.543 180.325 118.922 179.215 115.255 179.215H115.247ZM120.703 191.645C119.766 193.018 117.933 193.717 115.255 193.717H115.251C112.578 193.717 110.748 193.018 109.815 191.645C109.032 190.494 108.935 189.028 108.935 187.881C108.935 186.734 109.036 185.264 109.815 184.118C110.748 182.744 112.578 182.046 115.251 182.046H115.255C117.933 182.046 119.766 182.744 120.707 184.118C121.495 185.268 121.596 186.734 121.596 187.885C121.596 189.036 121.495 190.498 120.707 191.653L120.703 191.645Z" fill="#F5F5FA"/>
<path d="M219.995 187.466C219.042 186.807 217.746 186.472 216.138 186.472H210.703C207.973 186.472 207.743 185.362 207.743 184.319C207.743 183.278 207.973 182.167 210.703 182.167H221.062V179.393H210.703C209.096 179.393 207.8 179.728 206.846 180.386C205.994 180.976 204.977 182.139 204.977 184.315C204.977 186.492 205.994 187.655 206.846 188.245C207.8 188.903 209.096 189.238 210.703 189.238H216.138C217.16 189.238 217.947 189.412 218.425 189.743C218.715 189.945 219.099 190.333 219.099 191.391C219.099 192.449 218.869 193.543 216.138 193.543H205.676V196.318H216.138C217.746 196.318 219.042 195.982 219.995 195.324C220.848 194.734 221.865 193.572 221.865 191.395C221.865 189.218 220.848 188.055 219.995 187.466Z" fill="#F5F5FA"/>
<path d="M170.117 189.275H180.378V186.452H170.117V182.215H182.825V179.393H167.294V196.338H182.85V193.511H170.117V189.275Z" fill="#F5F5FA"/>
<path d="M228.245 189.275H238.506V186.452H228.245V182.215H240.954V179.393H225.423V196.338H240.979V193.511H228.245V189.275Z" fill="#F5F5FA"/>
<path d="M185.366 182.147H192.429V196.338H195.252V182.147H202.31V179.393H185.366V182.147Z" fill="#F5F5FA"/>
<path d="M281.059 179.393H264.114V182.159H271.173V196.334H273.997V182.159H281.059V179.393Z" fill="#F5F5FA"/>
<path d="M164.378 179.393H160.82L153.64 187.873L160.8 196.338H164.378L157.327 187.873L164.378 179.393Z" fill="#F5F5FA"/>
<path d="M150.454 179.393H147.49V196.338H150.454V179.393Z" fill="#F5F5FA"/>
<path d="M256.252 179.409H249.475C246.677 179.409 244.403 181.682 244.403 184.481V196.342H247.206V190.519H258.542V196.342H261.308V189.331C261.32 189.263 261.324 189.19 261.324 189.117V184.481C261.324 181.682 259.049 179.409 256.252 179.409ZM258.521 187.716H247.202V184.481C247.202 183.229 248.219 182.211 249.471 182.211H256.248C257.5 182.211 258.517 183.229 258.517 184.481V187.716H258.521Z" fill="#F5F5FA"/>
<path d="M127.257 184.485V191.261C127.257 194.06 129.531 196.334 132.33 196.334H144.19V193.531H132.33C131.078 193.531 130.06 192.513 130.06 191.261V184.485C130.06 183.233 131.078 182.215 132.33 182.215H144.19V179.413H132.33C129.531 179.413 127.257 181.687 127.257 184.485Z" fill="#F5F5FA"/>
</svg>
