<svg width="243" height="24" viewBox="0 0 243 24" fill="none" xmlns="http://www.w3.org/2000/svg">
<path d="M58.9528 13.6314C60.1351 12.6271 60.7335 11.1032 60.7335 9.10501C60.7335 5.42552 58.6235 3.31555 54.9441 3.31555H42.9365V20.6736H45.8313V6.21028H54.9441C57.0271 6.21028 57.8388 7.02197 57.8388 9.10501C57.8388 11.1881 57.0271 11.9997 54.9441 11.9997H48.991L57.23 20.6736H60.9592L55.5259 14.8758C56.9318 14.7868 58.0831 14.3685 58.9528 13.6293V13.6314Z" fill="#F7F7FA"/>
<path d="M72.4345 3.12085H72.4283C68.6701 3.12085 65.9907 4.26383 64.4605 6.51253C63.2016 8.36573 63.0566 10.5316 63.0566 11.9997C63.0566 13.4677 63.2016 15.6336 64.4605 17.4868C65.9886 19.7355 68.6701 20.8764 72.4283 20.8785C72.4303 20.8785 72.4324 20.8785 72.4345 20.8785C76.1947 20.8785 78.8783 19.7397 80.4105 17.493C81.6777 15.6357 81.8248 13.4698 81.8248 11.9997C81.8248 10.5295 81.6777 8.36366 80.4105 6.50631C78.8762 4.25969 76.1927 3.12085 72.4324 3.12085H72.4345ZM78.021 15.8593C77.0603 17.2673 75.1801 17.9817 72.4345 17.9817H72.4283C69.6868 17.9817 67.8108 17.2653 66.8542 15.8572C66.0528 14.6791 65.9493 13.1758 65.9493 11.9976C65.9493 10.8194 66.0528 9.31614 66.8542 8.13796C67.8108 6.72994 69.6868 6.01558 72.4283 6.01351H72.4324C75.1781 6.01351 77.0582 6.72788 78.0189 8.1359C78.8244 9.31823 78.928 10.8194 78.928 11.9976C78.928 13.1758 78.8244 14.677 78.0189 15.8593H78.021Z" fill="#F7F7FA"/>
<path d="M179.798 11.6C178.821 10.925 177.492 10.5834 175.844 10.5834H170.274C167.474 10.5834 167.24 9.44661 167.24 8.38231C167.24 7.31801 167.474 6.18124 170.274 6.18124H180.89V3.34656H170.274C168.627 3.34656 167.296 3.6882 166.319 4.36323C165.445 4.96785 164.403 6.15432 164.403 8.38231C164.403 10.6103 165.445 11.7968 166.319 12.4014C167.296 13.0764 168.625 13.418 170.274 13.418H175.844C176.889 13.418 177.699 13.5961 178.185 13.9316C178.484 14.1366 178.877 14.5362 178.877 15.6191C178.877 16.7021 178.643 17.8202 175.844 17.8202H165.118V20.6549H175.844C177.49 20.6549 178.821 20.3132 179.798 19.6382C180.672 19.0336 181.714 17.8471 181.714 15.6191C181.714 13.3911 180.672 12.2047 179.798 11.6Z" fill="#F7F7FA"/>
<path d="M128.673 13.4367H139.19V10.542H128.673V6.1999H141.699V3.30518H125.778V20.6735H141.724V17.7788H128.673V13.4367Z" fill="#F7F7FA"/>
<path d="M188.257 13.4367H198.776V10.542H188.257V6.1999H201.285V3.30518H185.362V20.6735H201.308V17.7788H188.257V13.4367Z" fill="#F7F7FA"/>
<path d="M144.304 6.16879H151.541V20.6838H154.437V6.16879H161.674V3.33411H144.304V6.16879Z" fill="#F7F7FA"/>
<path d="M242.391 3.33411H225.021V6.16879H232.259V20.6838H235.154V6.16879H242.391V3.33411Z" fill="#F7F7FA"/>
<path d="M122.759 3.34448H119.112L111.78 11.9997L119.121 20.6735H122.79L115.561 11.9976L122.759 3.34448Z" fill="#F7F7FA"/>
<path d="M108.517 3.30518H105.478V20.6735H108.517V3.30518Z" fill="#F7F7FA"/>
<path d="M216.964 3.32166H210.017C207.149 3.32166 204.817 5.65317 204.817 8.52098V20.6797H207.689V14.7101H219.31V20.6797H222.144V13.4946C222.155 13.4221 222.163 13.3497 222.163 13.2751V8.52098C222.163 5.65317 219.831 3.32166 216.964 3.32166ZM219.291 11.8381H207.689V8.52098C207.689 7.2372 208.733 6.19361 210.017 6.19361H216.964C218.247 6.19361 219.291 7.2372 219.291 8.52098V11.8381Z" fill="#F7F7FA"/>
<path d="M84.7383 8.52513V15.4721C84.7383 18.3399 87.0698 20.6714 89.9376 20.6714H102.096V17.7995H89.9376C88.6538 17.7995 87.6102 16.7559 87.6102 15.4721V8.52513C87.6102 7.24135 88.6538 6.19776 89.9376 6.19776H102.096V3.32581H89.9376C87.0698 3.32581 84.7383 5.65732 84.7383 8.52513Z" fill="#F7F7FA"/>
<path d="M18.4596 18.87C11.7239 24.6242 6.94072 25.0301 4.49118 22.5785C2.2342 20.3215 4.10604 14.6604 8.66762 9.06972L0 0.404175H5.53891L14.1486 9.01382C8.71524 14.4803 5.5472 20.3008 7.18506 21.9386C8.54131 23.297 12.7157 21.4148 17.2193 17.6297L18.4596 18.87Z" fill="#F7F7FA"/>
<path d="M34.2605 23.5951H28.7216L20.1119 14.9855C25.5452 9.52109 28.7133 3.69851 27.0775 2.06272C25.7212 0.70439 21.5427 2.58866 17.0391 6.37375L15.7988 5.13345C22.5366 -0.622874 27.3218 -1.0308 29.7714 1.42082C32.0284 3.67779 30.1586 9.33888 25.5949 14.9296L34.2626 23.5951H34.2605Z" fill="#F7F7FA"/>
</svg>
