<svg width="210" height="42" viewBox="0 0 210 42" fill="none" xmlns="http://www.w3.org/2000/svg">
<g clip-path="url(#clip0_14144_13394)">
<path d="M43.788 11.6431C42.0124 11.6431 40.5715 13.0652 40.5715 14.8176V28.2651H43.788V14.8176H51.448V11.6431H43.788Z" fill="white"/>
<path d="M70.7065 19.956V14.821C70.7065 13.0686 69.2656 11.6465 67.49 11.6465H57.0815C55.3059 11.6465 53.865 13.0686 53.865 14.821V25.0939C53.865 26.8464 55.3059 28.2685 57.0815 28.2685H67.49C69.2656 28.2685 70.7065 26.8464 70.7065 25.0939V19.959V19.956ZM67.49 19.956V25.0909H57.0815V14.818H67.49V19.9529V19.956Z" fill="white"/>
<path d="M77.1396 11.6431C75.364 11.6431 73.9231 13.0652 73.9231 14.8176V25.0905C73.9231 26.843 75.364 28.2651 77.1396 28.2651L88.4871 28.106V25.0905H77.1396V14.8176H88.4871V11.796L77.1396 11.6431Z" fill="white"/>
<path d="M106.937 11.6431H102.583L96.2058 18.3683H94.9198V11.6431H91.7034V19.9556V28.2651H94.9198V21.5429H96.5281H96.7791L103.404 28.262H107.841L99.3386 19.5917L106.937 11.6431Z" fill="white"/>
<path d="M111.761 25.0909V21.5432L125.386 21.3903V14.821C125.386 13.0686 123.946 11.6465 122.17 11.6465H111.761C109.986 11.6465 108.545 13.0686 108.545 14.821V25.0939C108.545 26.8464 109.986 28.2685 111.761 28.2685L125.386 28.1095V25.0939H111.761V25.0909ZM111.761 14.818H122.17V18.3687H111.761V14.818Z" fill="white"/>
<path d="M133.474 6.79297H132.247L130.258 9.22128V11.6465H127.8V14.8211L130.258 14.7874V25.094C130.258 26.8464 131.698 28.2685 133.474 28.2685L138.677 28.1126V25.0909H133.474V14.7416L139.148 14.6651V11.6465H133.474V6.79297Z" fill="white"/>
<path d="M156.123 21.5432C156.123 19.7908 154.682 18.3687 152.906 18.3687H144.775V14.821H156.123V11.7994L144.775 11.6465C142.999 11.6465 141.559 13.0686 141.559 14.821V18.3687C141.559 20.1211 142.999 21.5432 144.775 21.5432H152.906V25.0909H141.559V28.1095L152.906 28.2654C154.682 28.2654 156.123 26.8433 156.123 25.0909V21.5432Z" fill="white"/>
<path d="M172.964 11.6431H162.556C160.78 11.6431 159.339 13.0652 159.339 14.8176V25.0905C159.339 26.843 160.78 28.2651 162.556 28.2651L176.181 28.106V25.0905H162.556V21.5398L176.181 21.3869V14.8176C176.181 13.0652 174.74 11.6431 172.964 11.6431ZM172.964 18.3683H162.556V14.8176H172.964V18.3683Z" fill="white"/>
<path d="M193.022 11.6431L179.397 11.8021V14.8176H193.022V18.3653L179.397 18.5182V25.0875C179.397 26.8399 180.838 28.262 182.614 28.262H193.022C194.798 28.262 196.239 26.8399 196.239 25.0875V14.8176C196.239 13.0652 194.798 11.6431 193.022 11.6431ZM193.022 25.0905H182.614V21.5429H193.022V25.0905Z" fill="white"/>
<path d="M204.326 14.7416L210 14.6651V11.6465H204.326V6.79297H203.099L201.11 9.22128V11.6465H198.653V14.8211L201.11 14.7874V25.094C201.11 26.8464 202.551 28.2685 204.326 28.2685L209.529 28.1126V25.0909H204.326V14.7416Z" fill="white"/>
<path d="M32.0592 0.767885L26.8255 0.00636187C26.6644 -0.0181047 26.5032 0.0461201 26.4537 0.091995L24.2195 2.95765C24.0676 3.15032 24.0305 3.38275 24.0831 3.59378C24.1358 3.8048 23.953 3.99748 23.7361 3.94855L21.8985 3.5479C21.6073 3.48368 21.3036 3.59378 21.1208 3.82621L13.8853 13.0379C13.7489 13.2122 13.5072 13.2734 13.3027 13.1816L10.551 11.9461C10.3093 11.839 10.0274 11.8635 9.80735 12.0134L8.42223 12.9645C8.19292 13.1235 7.89235 13.1419 7.64445 13.0165L6.95034 12.6678C6.51342 12.4476 5.98044 12.6923 5.87199 13.1663L5.36999 15.3378C5.25224 15.8454 5.47535 16.3715 5.92466 16.6467L6.96893 17.2798L10.3558 19.338L12.0105 20.3412C12.4661 20.6195 13.0548 20.5706 13.4576 20.2188L16.2155 17.8272C16.4417 17.6315 16.764 17.5917 17.0305 17.7263L17.8609 18.1422C18.1429 18.2829 18.4838 18.237 18.7131 18.023L20.1137 16.7324C20.3337 16.5274 20.6591 16.4755 20.9348 16.6008L23.0172 17.5367C23.3333 17.6774 23.7082 17.5887 23.9189 17.3165L24.8795 16.0962L32.1584 6.87842C32.4993 6.44414 32.2668 5.80801 31.7246 5.69179L30.1008 5.33703C29.7631 5.26363 29.6205 4.86299 29.8375 4.59691L32.3567 1.52023C32.586 1.24193 32.4187 0.822935 32.0592 0.770944V0.767885Z" fill="#8257E5"/>
<path d="M8.04428 19.3046C7.89864 19.2128 7.71891 19.3566 7.78088 19.5156L8.56486 21.5463C8.62064 21.6901 8.62993 21.8461 8.58965 21.9929L7.90793 24.6322C7.86455 24.8035 7.92652 24.9839 8.06907 25.094L10.0182 26.5895C10.1948 26.7241 10.4427 26.718 10.6131 26.5742L12.6645 24.8065C12.7822 24.7056 12.9279 24.6414 13.0828 24.6261L15.3944 24.3692C15.5618 24.3508 15.6113 24.1367 15.4719 24.0481L8.04428 19.3076V19.3046Z" fill="#8257E5"/>
<path d="M7.34398 26.0879C7.21074 25.9809 7.02791 25.9625 6.87608 26.0359L5.23376 26.8219C5.1408 26.8678 5.06643 26.9473 5.02924 27.0421L1.52769 35.5718C1.5184 35.5901 1.5184 35.6146 1.52769 35.636C1.54319 35.6819 1.59277 35.7064 1.63615 35.688L2.42942 35.3883C2.45421 35.3791 2.4852 35.3761 2.50689 35.3914C2.54717 35.4158 2.55956 35.4709 2.53478 35.5106L0.0124199 39.5751C-0.0402583 39.6608 0.0743943 39.7525 0.148763 39.6791L9.21561 30.6877C9.29927 30.6112 9.35195 30.5042 9.36125 30.391L9.53478 28.0758C9.54407 27.9352 9.4852 27.8006 9.37364 27.7119L7.34398 26.091V26.0879Z" fill="#8257E5"/>
<path d="M95.4249 40.3669C95.3785 40.2384 95.3506 40.0519 95.3382 39.8041C95.1801 40.009 94.9756 40.165 94.7308 40.2751C94.486 40.3852 94.2257 40.4403 93.9499 40.4403C93.5564 40.4403 93.2372 40.3332 92.9955 40.1161C92.7507 39.8989 92.6299 39.6268 92.6299 39.2934C92.6299 38.8989 92.7972 38.59 93.1288 38.3606C93.4603 38.1312 93.9221 38.0181 94.5139 38.0181H95.3351V37.5593C95.3351 37.2718 95.2452 37.0425 95.0655 36.8773C94.8858 36.7122 94.6224 36.6296 94.2753 36.6296C93.9592 36.6296 93.6989 36.7091 93.4913 36.8681C93.2837 37.0272 93.1815 37.2198 93.1815 37.4431H92.729C92.729 37.1189 92.8809 36.8406 93.1815 36.6051C93.4851 36.3696 93.857 36.2534 94.297 36.2534C94.737 36.2534 95.112 36.3666 95.3784 36.5898C95.6418 36.8161 95.7782 37.1281 95.7844 37.5318V39.4433C95.7844 39.8347 95.8247 40.1253 95.9083 40.321V40.3669H95.4249ZM94.0026 40.0457C94.3063 40.0457 94.5759 39.9723 94.8145 39.8286C95.0531 39.6849 95.2266 39.4922 95.3351 39.2506V38.3637H94.5263C94.0739 38.3698 93.7206 38.4493 93.4665 38.6083C93.2124 38.7674 93.0854 38.9845 93.0854 39.2598C93.0854 39.4861 93.1691 39.6726 93.3395 39.8225C93.5099 39.9723 93.7299 40.0457 94.0026 40.0457Z" fill="white"/>
<path d="M177.621 40.0671C177.938 40.0671 178.201 39.9785 178.415 39.8041C178.629 39.6298 178.743 39.4004 178.762 39.1221H179.196C179.183 39.3699 179.106 39.5931 178.96 39.795C178.818 39.9968 178.625 40.1558 178.387 40.2721C178.148 40.3852 177.894 40.4433 177.621 40.4433C177.085 40.4433 176.658 40.2598 176.345 39.8898C176.032 39.5228 175.874 39.0273 175.874 38.4034V38.2689C175.874 37.8713 175.945 37.5196 176.084 37.2137C176.227 36.9079 176.428 36.6724 176.692 36.5042C176.955 36.3391 177.265 36.2534 177.618 36.2534C178.068 36.2534 178.436 36.3849 178.728 36.6479C179.019 36.911 179.174 37.2596 179.196 37.6908H178.762C178.743 37.3758 178.625 37.1189 178.415 36.9262C178.204 36.7336 177.938 36.6357 177.618 36.6357C177.209 36.6357 176.893 36.7825 176.667 37.073C176.441 37.3636 176.329 37.7734 176.329 38.2964V38.4279C176.329 38.9417 176.441 39.3454 176.667 39.6329C176.893 39.9204 177.212 40.0671 177.621 40.0671Z" fill="white"/>
<path d="M179.846 38.2872C179.846 37.8988 179.924 37.5501 180.076 37.2382C180.228 36.9263 180.444 36.6846 180.723 36.5134C181.002 36.3391 181.318 36.2534 181.672 36.2534C182.217 36.2534 182.657 36.443 182.995 36.8192C183.332 37.1954 183.503 37.6969 183.503 38.3178V38.4095C183.503 38.801 183.425 39.1527 183.274 39.4647C183.122 39.7766 182.905 40.0182 182.629 40.1864C182.353 40.3546 182.034 40.4403 181.681 40.4403C181.139 40.4403 180.699 40.2507 180.358 39.8745C180.02 39.4983 179.85 38.9967 179.85 38.3759V38.2872H179.846ZM180.299 38.4095C180.299 38.8928 180.426 39.2903 180.68 39.5992C180.934 39.9081 181.266 40.0641 181.678 40.0641C182.09 40.0641 182.418 39.9081 182.669 39.5992C182.923 39.2903 183.05 38.8805 183.05 38.3728V38.2872C183.05 37.9783 182.992 37.6969 182.877 37.44C182.759 37.1831 182.598 36.9844 182.387 36.8437C182.177 36.703 181.938 36.6326 181.668 36.6326C181.266 36.6326 180.937 36.7886 180.68 37.1006C180.426 37.4125 180.299 37.8223 180.299 38.327V38.4095Z" fill="white"/>
<path d="M184.848 36.3299L184.863 36.9874C185.015 36.7428 185.204 36.5593 185.43 36.44C185.656 36.3176 185.911 36.2565 186.186 36.2565C186.831 36.2565 187.243 36.5164 187.417 37.0394C187.562 36.7886 187.757 36.5959 188.002 36.4583C188.247 36.3238 188.517 36.2534 188.811 36.2534C189.688 36.2534 190.137 36.7275 190.153 37.6725V40.3669H189.7V37.7061C189.7 37.3452 189.62 37.0761 189.465 36.9048C189.31 36.7305 189.056 36.6449 188.706 36.6449C188.38 36.651 188.104 36.755 187.881 36.9568C187.658 37.1587 187.531 37.4064 187.506 37.6969V40.3699H187.054V37.6755C187.054 37.3299 186.97 37.07 186.806 36.9018C186.645 36.7305 186.394 36.6449 186.056 36.6449C185.771 36.6449 185.526 36.7244 185.322 36.8865C185.117 37.0486 184.965 37.2841 184.869 37.6021V40.373H184.417V36.3329H184.851L184.848 36.3299Z" fill="white"/>
<path d="M194.593 38.3881C194.593 39.0181 194.451 39.5167 194.169 39.8867C193.887 40.2568 193.509 40.4403 193.035 40.4403C192.474 40.4403 192.046 40.2476 191.749 39.8592V41.9205H191.299V36.3268H191.718L191.739 36.8987C192.034 36.4675 192.461 36.2534 193.022 36.2534C193.512 36.2534 193.896 36.4369 194.175 36.8009C194.454 37.1679 194.593 37.6755 194.593 38.3239V38.3881ZM194.141 38.3086C194.141 37.7948 194.032 37.3881 193.819 37.0883C193.605 36.7886 193.304 36.6418 192.923 36.6418C192.644 36.6418 192.409 36.7091 192.207 36.8406C192.009 36.9721 191.854 37.1648 191.749 37.4156V39.3546C191.857 39.587 192.012 39.7613 192.213 39.8837C192.415 40.006 192.653 40.0671 192.929 40.0671C193.31 40.0671 193.608 39.9173 193.822 39.6176C194.035 39.3179 194.141 38.8836 194.141 38.3117V38.3086Z" fill="white"/>
<path d="M198.178 40.3669C198.132 40.2384 198.104 40.0519 198.092 39.8041C197.934 40.009 197.729 40.165 197.484 40.2751C197.239 40.3852 196.979 40.4403 196.703 40.4403C196.31 40.4403 195.991 40.3332 195.749 40.1161C195.504 39.8989 195.383 39.6268 195.383 39.2934C195.383 38.8989 195.551 38.59 195.882 38.3606C196.214 38.1312 196.675 38.0181 197.267 38.0181H198.088V37.5593C198.088 37.2718 197.999 37.0425 197.819 36.8773C197.639 36.7122 197.376 36.6296 197.032 36.6296C196.716 36.6296 196.455 36.7091 196.248 36.8681C196.04 37.0272 195.938 37.2198 195.938 37.4431H195.486C195.486 37.1189 195.637 36.8406 195.938 36.6051C196.242 36.3696 196.613 36.2534 197.053 36.2534C197.494 36.2534 197.868 36.3666 198.135 36.5898C198.398 36.8161 198.535 37.1281 198.541 37.5318V39.4433C198.541 39.8347 198.581 40.1253 198.665 40.321V40.3669H198.181H198.178ZM196.756 40.0457C197.06 40.0457 197.329 39.9723 197.568 39.8286C197.806 39.6849 197.98 39.4922 198.088 39.2506V38.3637H197.28C196.827 38.3698 196.474 38.4493 196.22 38.6083C195.966 38.7674 195.839 38.9845 195.839 39.2598C195.839 39.4861 195.922 39.6726 196.093 39.8225C196.263 39.9723 196.483 40.0457 196.756 40.0457Z" fill="white"/>
<path d="M200.177 36.3297L200.193 37.0209C200.348 36.7732 200.54 36.5836 200.769 36.4521C200.998 36.3206 201.252 36.2563 201.528 36.2563C201.968 36.2563 202.294 36.3787 202.507 36.6233C202.721 36.868 202.83 37.232 202.833 37.7213V40.3729H202.383V37.7182C202.383 37.3573 202.303 37.0882 202.151 36.9108C201.999 36.7334 201.754 36.6448 201.42 36.6448C201.141 36.6448 200.893 36.7304 200.676 36.9047C200.459 37.079 200.301 37.3115 200.199 37.6051V40.3698H199.75V36.3297H200.18H200.177Z" fill="white"/>
<path d="M205.296 39.7247L206.492 36.3269H206.979L205.231 41.052L205.141 41.26C204.918 41.7493 204.571 41.994 204.1 41.994C203.991 41.994 203.877 41.9756 203.753 41.942V41.5719L203.982 41.5934C204.205 41.5934 204.385 41.5383 204.521 41.4313C204.658 41.3242 204.775 41.1377 204.872 40.8716L205.073 40.3272L203.53 36.3208H204.026L205.296 39.7186V39.7247Z" fill="white"/>
<path d="M107.978 40.584V35.3359H108.452V40.584H107.978Z" fill="white"/>
<path d="M113.218 40.6757C112.335 40.6757 111.672 40.4525 111.229 40.0029C110.785 39.5533 110.565 38.8744 110.565 37.9599C110.565 37.3697 110.668 36.8712 110.869 36.4675C111.071 36.0638 111.371 35.761 111.771 35.553C112.171 35.3451 112.666 35.2441 113.255 35.2441C113.627 35.2441 113.959 35.2839 114.25 35.3634C114.541 35.4429 114.789 35.5591 114.993 35.7151C115.198 35.8711 115.353 36.0668 115.461 36.2993C115.57 36.5348 115.626 36.81 115.626 37.125H115.083C115.083 36.8589 115.037 36.6357 114.944 36.4552C114.851 36.2748 114.724 36.128 114.56 36.0179C114.395 35.9078 114.203 35.8283 113.977 35.7793C113.751 35.7304 113.509 35.7059 113.252 35.7059C112.927 35.7059 112.632 35.7457 112.372 35.8252C112.112 35.9047 111.889 36.0332 111.703 36.2075C111.517 36.3849 111.374 36.6082 111.275 36.8834C111.176 37.1587 111.126 37.489 111.126 37.8774V38.0395C111.126 38.5594 111.21 38.9784 111.374 39.2964C111.538 39.6145 111.777 39.8469 112.084 39.9876C112.391 40.1313 112.756 40.2017 113.181 40.2017C113.646 40.2017 114.017 40.1405 114.293 40.0151C114.569 39.8897 114.77 39.6971 114.894 39.4371C115.018 39.1771 115.08 38.8469 115.08 38.4493V38.3178H113.072V37.859H115.623V40.5748H115.189L115.117 39.8561C114.993 40.0488 114.829 40.2078 114.625 40.3271C114.42 40.4464 114.197 40.535 113.955 40.587C113.714 40.6421 113.466 40.6666 113.212 40.6666L113.218 40.6757Z" fill="white"/>
<path d="M118.179 40.584V35.3359H118.808V40.584H118.179Z" fill="white"/>
<path d="M122.678 40.584V35.9476H120.841V35.3359H125.235V35.9476H123.391V40.584H122.678Z" fill="white"/>
<path d="M126.22 40.584L128.312 35.3359H129.35L131.451 40.584H130.583L130.087 39.3301H127.531L127.041 40.584H126.22ZM127.794 38.6573H129.824L129.204 37.0578C129.183 37.0119 129.158 36.9507 129.13 36.8712C129.102 36.7917 129.068 36.703 129.034 36.6021C128.997 36.5012 128.963 36.4033 128.928 36.2993C128.894 36.1984 128.863 36.1036 128.832 36.0149H128.786C128.749 36.1158 128.708 36.2351 128.662 36.3666C128.616 36.4981 128.569 36.6266 128.526 36.7519C128.482 36.8773 128.445 36.9783 128.414 37.0547L127.794 38.6542V38.6573Z" fill="white"/>
<path d="M133.304 40.584V35.3359H134.196V39.8194H136.855V40.584H133.304Z" fill="white"/>
<path d="M138.779 40.584V35.3359H139.771V37.4768H142.275V35.3359H143.266V40.584H142.275V38.3209H139.771V40.584H138.779Z" fill="white"/>
<path d="M147.995 40.6757C147.437 40.6757 146.954 40.5779 146.548 40.3821C146.142 40.1864 145.832 39.8836 145.615 39.4799C145.398 39.0732 145.29 38.5685 145.29 37.9599C145.29 37.3513 145.398 36.8345 145.615 36.4338C145.832 36.0332 146.145 35.7365 146.548 35.5377C146.954 35.342 147.434 35.2441 147.995 35.2441C148.556 35.2441 149.048 35.342 149.451 35.5377C149.854 35.7335 150.164 36.0332 150.381 36.4338C150.598 36.8345 150.706 37.3422 150.706 37.9599C150.706 38.5777 150.598 39.0732 150.381 39.4799C150.164 39.8867 149.854 40.1864 149.451 40.3821C149.048 40.5779 148.562 40.6757 147.995 40.6757ZM147.995 39.7796C148.252 39.7796 148.481 39.7429 148.676 39.6695C148.872 39.5961 149.039 39.486 149.172 39.3392C149.305 39.1924 149.408 39.0151 149.479 38.804C149.55 38.593 149.584 38.3453 149.584 38.067V37.859C149.584 37.5776 149.55 37.3299 149.479 37.1158C149.408 36.9018 149.309 36.7213 149.172 36.5776C149.039 36.4308 148.872 36.3237 148.676 36.2473C148.481 36.1739 148.252 36.1372 147.995 36.1372C147.738 36.1372 147.508 36.1739 147.313 36.2473C147.118 36.3207 146.954 36.4308 146.82 36.5776C146.687 36.7244 146.588 36.9018 146.523 37.1158C146.455 37.3299 146.421 37.5776 146.421 37.859V38.067C146.421 38.3483 146.455 38.593 146.523 38.804C146.591 39.0151 146.69 39.1955 146.82 39.3392C146.954 39.486 147.115 39.5931 147.313 39.6695C147.508 39.7429 147.738 39.7796 147.995 39.7796Z" fill="white"/>
<path d="M155.079 40.6757C154.583 40.6757 154.158 40.5992 153.805 40.4463C153.452 40.2934 153.179 40.0609 152.99 39.749C152.801 39.4371 152.708 39.0517 152.708 38.5868V35.3267H153.932V38.5563C153.932 38.9171 154.031 39.2016 154.226 39.4004C154.422 39.6022 154.704 39.7031 155.072 39.7031C155.441 39.7031 155.729 39.6022 155.928 39.4004C156.126 39.1985 156.225 38.9171 156.225 38.5563V35.3267H157.458V38.5868C157.458 39.0517 157.362 39.4401 157.17 39.749C156.978 40.0609 156.705 40.2934 156.352 40.4463C155.999 40.5992 155.574 40.6757 155.079 40.6757Z" fill="white"/>
<path d="M161.893 40.6758C161.558 40.6758 161.242 40.6452 160.947 40.5871C160.653 40.529 160.393 40.4341 160.17 40.2996C159.943 40.1681 159.767 39.9937 159.64 39.7766C159.51 39.5595 159.445 39.2934 159.445 38.9784V38.908C159.445 38.8836 159.445 38.8622 159.451 38.8469H160.793C160.793 38.8469 160.793 38.8805 160.789 38.905C160.789 38.9295 160.786 38.9478 160.786 38.9631C160.786 39.1252 160.83 39.2567 160.913 39.3576C161 39.4585 161.118 39.5289 161.273 39.5717C161.428 39.6145 161.607 39.6359 161.815 39.6359C161.93 39.6359 162.035 39.6298 162.134 39.6206C162.233 39.6115 162.32 39.5931 162.398 39.5656C162.475 39.5411 162.543 39.5075 162.602 39.4708C162.661 39.4341 162.704 39.3851 162.735 39.3332C162.763 39.2781 162.779 39.2169 162.779 39.1466C162.779 39.0304 162.732 38.9325 162.642 38.8561C162.553 38.7796 162.432 38.7154 162.277 38.6634C162.125 38.6114 161.951 38.5655 161.762 38.5166C161.57 38.4707 161.372 38.4218 161.164 38.3698C160.957 38.3178 160.758 38.2536 160.566 38.1771C160.374 38.1006 160.204 38.0028 160.052 37.8866C159.9 37.7703 159.779 37.6235 159.686 37.4462C159.596 37.2688 159.55 37.0578 159.55 36.807C159.55 36.5317 159.609 36.2932 159.73 36.0913C159.847 35.8895 160.012 35.7243 160.222 35.5989C160.433 35.4705 160.672 35.3787 160.947 35.3206C161.22 35.2625 161.515 35.2319 161.824 35.2319C162.134 35.2319 162.416 35.2625 162.68 35.3237C162.946 35.3849 163.182 35.4797 163.389 35.6112C163.597 35.7427 163.758 35.9048 163.873 36.1005C163.99 36.2962 164.049 36.5317 164.055 36.807V36.8987H162.723V36.8437C162.723 36.7275 162.692 36.6235 162.627 36.5348C162.562 36.4461 162.466 36.3727 162.336 36.3207C162.206 36.2656 162.048 36.2412 161.855 36.2412C161.663 36.2412 161.502 36.2595 161.372 36.2962C161.242 36.3329 161.14 36.3819 161.068 36.4491C160.997 36.5164 160.963 36.5959 160.963 36.6877C160.963 36.8009 161.009 36.8926 161.099 36.9629C161.189 37.0333 161.313 37.0945 161.468 37.1464C161.623 37.1984 161.797 37.2443 161.989 37.2871C162.181 37.3299 162.376 37.3758 162.58 37.4248C162.785 37.4737 162.983 37.5349 163.172 37.6083C163.364 37.6817 163.538 37.7765 163.693 37.8927C163.848 38.0089 163.972 38.1496 164.062 38.3178C164.152 38.486 164.198 38.6909 164.198 38.9295C164.198 39.3484 164.099 39.6849 163.901 39.9387C163.702 40.1925 163.426 40.3791 163.079 40.4984C162.729 40.6146 162.336 40.6758 161.899 40.6758H161.893Z" fill="white"/>
<path d="M166.187 40.5842V35.3208H170.736V36.5288H167.799V37.3332H170.426V38.4953H167.799V39.3761H170.792V40.5842H166.187Z" fill="white"/>
<path d="M103.767 40.5779H101.328V35.3359H103.767C104.926 35.3359 105.871 36.2687 105.871 37.4125V38.5013C105.871 39.6451 104.926 40.5779 103.767 40.5779ZM101.75 40.162H103.767C104.693 40.162 105.449 39.4157 105.449 38.5013V37.4125C105.449 36.4981 104.693 35.7519 103.767 35.7519H101.75V40.162Z" fill="white"/>
</g>
<defs>
<clipPath id="clip0_14144_13394">
<rect width="210" height="42" fill="white"/>
</clipPath>
</defs>
</svg>
