<svg width="350" height="282" viewBox="0 0 350 282" fill="none" xmlns="http://www.w3.org/2000/svg">
<path fill-rule="evenodd" clip-rule="evenodd" d="M194.776 1.69597C194.607 0.940989 193.693 0.652241 193.125 1.17779C184.316 9.3314 136.775 53.3279 130.922 58.7452C130.654 58.9938 130.556 59.3567 130.645 59.7115L138.079 89.131C138.162 89.4583 138.391 89.7175 138.71 89.8267C149.705 93.5813 173.986 101.022 180.454 102.997C181.184 103.22 181.405 104.13 180.869 104.671C172.689 112.923 152.605 135.754 149.814 138.932C149.605 139.17 149.529 139.484 149.596 139.793L156.593 172.184C156.761 172.962 157.728 173.241 158.285 172.672L219.12 110.518C219.357 110.276 219.455 109.93 219.381 109.599L212.943 80.9951C212.868 80.6593 212.625 80.386 212.3 80.2715L167.196 64.3664C166.492 64.118 166.299 63.2133 166.84 62.6986L200.737 30.4644C200.991 30.222 201.104 29.8815 201.027 29.5383C200.263 26.1357 196.073 7.48217 194.776 1.69597Z" fill="#0B31BA"/>
<path d="M27.7188 243.906C27.7188 243.198 27.6146 242.562 27.4062 242C27.1979 241.417 26.8125 240.875 26.25 240.375C25.6875 239.875 24.875 239.375 23.8125 238.875C22.7708 238.354 21.3958 237.812 19.6875 237.25C17.6875 236.583 15.7604 235.833 13.9062 235C12.0521 234.146 10.3958 233.156 8.9375 232.031C7.47917 230.885 6.32292 229.552 5.46875 228.031C4.61458 226.49 4.1875 224.698 4.1875 222.656C4.1875 220.698 4.625 218.938 5.5 217.375C6.375 215.792 7.59375 214.448 9.15625 213.344C10.7396 212.219 12.5938 211.365 14.7188 210.781C16.8438 210.177 19.1667 209.875 21.6875 209.875C25.0208 209.875 27.9583 210.458 30.5 211.625C33.0625 212.771 35.0625 214.406 36.5 216.531C37.9583 218.635 38.6875 221.125 38.6875 224H27.7812C27.7812 222.854 27.5417 221.844 27.0625 220.969C26.6042 220.094 25.9062 219.406 24.9688 218.906C24.0312 218.406 22.8542 218.156 21.4375 218.156C20.0625 218.156 18.9062 218.365 17.9688 218.781C17.0312 219.198 16.3229 219.76 15.8438 220.469C15.3646 221.156 15.125 221.917 15.125 222.75C15.125 223.438 15.3125 224.062 15.6875 224.625C16.0833 225.167 16.6354 225.677 17.3438 226.156C18.0729 226.635 18.9479 227.094 19.9688 227.531C21.0104 227.969 22.1771 228.396 23.4688 228.812C25.8854 229.583 28.0312 230.448 29.9062 231.406C31.8021 232.344 33.3958 233.417 34.6875 234.625C36 235.812 36.9896 237.167 37.6562 238.688C38.3438 240.208 38.6875 241.927 38.6875 243.844C38.6875 245.885 38.2917 247.698 37.5 249.281C36.7083 250.865 35.5729 252.208 34.0938 253.312C32.6146 254.396 30.8438 255.219 28.7812 255.781C26.7188 256.344 24.4167 256.625 21.875 256.625C19.5417 256.625 17.2396 256.333 14.9688 255.75C12.7188 255.146 10.6771 254.229 8.84375 253C7.01042 251.75 5.54167 250.156 4.4375 248.219C3.35417 246.26 2.8125 243.938 2.8125 241.25H13.8125C13.8125 242.583 13.9896 243.708 14.3438 244.625C14.6979 245.542 15.2188 246.281 15.9062 246.844C16.5938 247.385 17.4375 247.781 18.4375 248.031C19.4375 248.26 20.5833 248.375 21.875 248.375C23.2708 248.375 24.3958 248.177 25.25 247.781C26.1042 247.365 26.7292 246.823 27.125 246.156C27.5208 245.469 27.7188 244.719 27.7188 243.906ZM56 210.5V256H45.0625V210.5H56ZM45.6875 208.125L51.875 198.312H63L54.2812 208.125H45.6875ZM101.719 210.5V256H90.7812L74.6875 227.688V256H63.7188V210.5H74.6875L90.7812 238.812V210.5H101.719ZM129.75 210.5V256H118.781V210.5H129.75ZM143.438 210.5V218.969H105.406V210.5H143.438ZM179.406 247.562V256H155.156V247.562H179.406ZM159.062 210.5V256H148.094V210.5H159.062ZM176.281 228.562V236.719H155.156V228.562H176.281ZM179.5 210.5V218.969H155.156V210.5H179.5ZM207.344 243.906C207.344 243.198 207.24 242.562 207.031 242C206.823 241.417 206.438 240.875 205.875 240.375C205.312 239.875 204.5 239.375 203.438 238.875C202.396 238.354 201.021 237.812 199.312 237.25C197.312 236.583 195.385 235.833 193.531 235C191.677 234.146 190.021 233.156 188.562 232.031C187.104 230.885 185.948 229.552 185.094 228.031C184.24 226.49 183.812 224.698 183.812 222.656C183.812 220.698 184.25 218.938 185.125 217.375C186 215.792 187.219 214.448 188.781 213.344C190.365 212.219 192.219 211.365 194.344 210.781C196.469 210.177 198.792 209.875 201.312 209.875C204.646 209.875 207.583 210.458 210.125 211.625C212.688 212.771 214.688 214.406 216.125 216.531C217.583 218.635 218.312 221.125 218.312 224H207.406C207.406 222.854 207.167 221.844 206.688 220.969C206.229 220.094 205.531 219.406 204.594 218.906C203.656 218.406 202.479 218.156 201.062 218.156C199.688 218.156 198.531 218.365 197.594 218.781C196.656 219.198 195.948 219.76 195.469 220.469C194.99 221.156 194.75 221.917 194.75 222.75C194.75 223.438 194.938 224.062 195.312 224.625C195.708 225.167 196.26 225.677 196.969 226.156C197.698 226.635 198.573 227.094 199.594 227.531C200.635 227.969 201.802 228.396 203.094 228.812C205.51 229.583 207.656 230.448 209.531 231.406C211.427 232.344 213.021 233.417 214.312 234.625C215.625 235.812 216.615 237.167 217.281 238.688C217.969 240.208 218.312 241.927 218.312 243.844C218.312 245.885 217.917 247.698 217.125 249.281C216.333 250.865 215.198 252.208 213.719 253.312C212.24 254.396 210.469 255.219 208.406 255.781C206.344 256.344 204.042 256.625 201.5 256.625C199.167 256.625 196.865 256.333 194.594 255.75C192.344 255.146 190.302 254.229 188.469 253C186.635 251.75 185.167 250.156 184.062 248.219C182.979 246.26 182.438 243.938 182.438 241.25H193.438C193.438 242.583 193.615 243.708 193.969 244.625C194.323 245.542 194.844 246.281 195.531 246.844C196.219 247.385 197.062 247.781 198.062 248.031C199.062 248.26 200.208 248.375 201.5 248.375C202.896 248.375 204.021 248.177 204.875 247.781C205.729 247.365 206.354 246.823 206.75 246.156C207.146 245.469 207.344 244.719 207.344 243.906ZM255.281 247.562V256H231.031V247.562H255.281ZM234.938 210.5V256H223.969V210.5H234.938ZM252.156 228.562V236.719H231.031V228.562H252.156ZM255.375 210.5V218.969H231.031V210.5H255.375ZM293.812 241.719V210.5H304.75V241.719C304.75 244.76 304.052 247.396 302.656 249.625C301.281 251.854 299.406 253.583 297.031 254.812C294.677 256.021 292.031 256.625 289.094 256.625C286.052 256.625 283.344 256.115 280.969 255.094C278.615 254.073 276.76 252.5 275.406 250.375C274.073 248.25 273.406 245.542 273.406 242.25H284.406C284.406 243.792 284.583 245 284.938 245.875C285.292 246.729 285.812 247.333 286.5 247.688C287.208 248.021 288.073 248.188 289.094 248.188C290.094 248.188 290.938 247.938 291.625 247.438C292.333 246.917 292.875 246.177 293.25 245.219C293.625 244.24 293.812 243.073 293.812 241.719ZM311.719 210.5H329.625C333.125 210.5 336.167 211.021 338.75 212.062C341.333 213.104 343.323 214.646 344.719 216.688C346.135 218.729 346.844 221.25 346.844 224.25C346.844 226.854 346.438 229.031 345.625 230.781C344.812 232.531 343.677 233.979 342.219 235.125C340.781 236.25 339.104 237.177 337.188 237.906L333.594 239.938H318.562L318.5 231.469H329.625C331.021 231.469 332.177 231.219 333.094 230.719C334.01 230.219 334.698 229.51 335.156 228.594C335.635 227.656 335.875 226.542 335.875 225.25C335.875 223.938 335.635 222.812 335.156 221.875C334.677 220.938 333.969 220.219 333.031 219.719C332.115 219.219 330.979 218.969 329.625 218.969H322.688V256H311.719V210.5ZM336.625 256L326.562 235.875L338.188 235.812L348.375 255.531V256H336.625Z" fill="#242325"/>
</svg>
