<svg width="238" height="102" viewBox="0 0 238 102" fill="none" xmlns="http://www.w3.org/2000/svg">
<circle cx="221" cy="85" r="5" transform="rotate(180 221 85)" fill="#6618BB"/>
<circle cx="221" cy="51" r="5" transform="rotate(180 221 51)" fill="#6618BB"/>
<circle cx="187" cy="85" r="5" transform="rotate(180 187 85)" fill="#6618BB"/>
<circle cx="153" cy="85" r="5" transform="rotate(180 153 85)" fill="#6618BB"/>
<circle cx="187" cy="51" r="5" transform="rotate(180 187 51)" fill="#6618BB"/>
<circle cx="119" cy="85" r="5" transform="rotate(180 119 85)" fill="#6618BB"/>
<circle cx="85" cy="85" r="5" transform="rotate(180 85 85)" fill="#6618BB"/>
<circle cx="153" cy="51" r="5" transform="rotate(180 153 51)" fill="#6618BB"/>
<circle cx="119" cy="51" r="5" transform="rotate(180 119 51)" fill="#6618BB"/>
<circle cx="221" cy="17" r="5" transform="rotate(180 221 17)" fill="#6618BB"/>
<circle cx="85" cy="51" r="5" transform="rotate(180 85 51)" fill="#6618BB"/>
<circle cx="187" cy="17" r="5" transform="rotate(180 187 17)" fill="#6618BB"/>
<circle cx="153" cy="17" r="5" transform="rotate(180 153 17)" fill="#6618BB"/>
<circle cx="119" cy="17" r="5" transform="rotate(180 119 17)" fill="#6618BB"/>
<circle cx="85" cy="17" r="5" transform="rotate(180 85 17)" fill="#6618BB"/>
<circle cx="51" cy="85" r="5" transform="rotate(180 51 85)" fill="#6618BB"/>
<circle cx="17" cy="85" r="5" transform="rotate(180 17 85)" fill="#6618BB"/>
<circle cx="51" cy="51" r="5" transform="rotate(180 51 51)" fill="#6618BB"/>
<circle cx="17" cy="51" r="5" transform="rotate(180 17 51)" fill="#6618BB"/>
<circle cx="51" cy="17" r="5" transform="rotate(180 51 17)" fill="#6618BB"/>
<circle cx="17" cy="17" r="5" transform="rotate(180 17 17)" fill="#6618BB"/>
</svg>
