<svg width="157" height="56" viewBox="0 0 157 56" fill="none" xmlns="http://www.w3.org/2000/svg">
<circle cx="3.09677" cy="3.09677" r="3.09677" transform="matrix(0 -1 -1 0 151.742 51.0967)" fill="#9638FF"/>
<circle cx="3.09677" cy="3.09677" r="3.09677" transform="matrix(0 -1 -1 0 151.742 30.9678)" fill="#9638FF"/>
<circle cx="3.09677" cy="3.09677" r="3.09677" transform="matrix(0 -1 -1 0 151.742 10.8386)" fill="#9638FF"/>
<circle cx="3.09677" cy="3.09677" r="3.09677" transform="matrix(0 -1 -1 0 131.613 51.0967)" fill="#9638FF"/>
<circle cx="3.09677" cy="3.09677" r="3.09677" transform="matrix(0 -1 -1 0 131.613 30.9678)" fill="#9638FF"/>
<circle cx="3.09677" cy="3.09677" r="3.09677" transform="matrix(0 -1 -1 0 131.613 10.8386)" fill="#9638FF"/>
<circle cx="3.09677" cy="3.09677" r="3.09677" transform="matrix(0 -1 -1 0 111.484 51.0967)" fill="#9638FF"/>
<circle cx="3.09677" cy="3.09677" r="3.09677" transform="matrix(0 -1 -1 0 111.484 30.9678)" fill="#9638FF"/>
<circle cx="3.09677" cy="3.09677" r="3.09677" transform="matrix(0 -1 -1 0 111.484 10.8386)" fill="#9638FF"/>
<circle cx="3.09677" cy="3.09677" r="3.09677" transform="matrix(0 -1 -1 0 91.3549 51.0967)" fill="#9638FF"/>
<circle cx="3.09677" cy="3.09677" r="3.09677" transform="matrix(0 -1 -1 0 91.3549 30.9678)" fill="#9638FF"/>
<circle cx="3.09677" cy="3.09677" r="3.09677" transform="matrix(0 -1 -1 0 91.3549 10.8386)" fill="#9638FF"/>
<circle cx="3.09677" cy="3.09677" r="3.09677" transform="matrix(0 -1 -1 0 71.2258 30.9678)" fill="#9638FF"/>
<circle cx="3.09677" cy="3.09677" r="3.09677" transform="matrix(0 -1 -1 0 71.2258 51.0967)" fill="#9638FF"/>
<circle cx="3.09677" cy="3.09677" r="3.09677" transform="matrix(0 -1 -1 0 71.2258 10.8386)" fill="#9638FF"/>
<circle cx="3.09677" cy="3.09677" r="3.09677" transform="matrix(0 -1 -1 0 51.0968 51.0967)" fill="#9638FF"/>
<circle cx="3.09677" cy="3.09677" r="3.09677" transform="matrix(0 -1 -1 0 51.0968 30.9678)" fill="#9638FF"/>
<circle cx="3.09677" cy="3.09677" r="3.09677" transform="matrix(0 -1 -1 0 51.0968 10.8386)" fill="#9638FF"/>
<circle cx="3.09677" cy="3.09677" r="3.09677" transform="matrix(0 -1 -1 0 30.9678 51.0967)" fill="#9638FF"/>
<circle cx="3.09677" cy="3.09677" r="3.09677" transform="matrix(0 -1 -1 0 30.9678 30.9678)" fill="#9638FF"/>
<circle cx="3.09677" cy="3.09677" r="3.09677" transform="matrix(0 -1 -1 0 30.9678 10.8386)" fill="#9638FF"/>
<circle cx="3.09677" cy="3.09677" r="3.09677" transform="matrix(0 -1 -1 0 10.8388 51.0967)" fill="#9638FF"/>
<circle cx="3.09677" cy="3.09677" r="3.09677" transform="matrix(0 -1 -1 0 10.8388 30.9678)" fill="#9638FF"/>
<circle cx="3.09677" cy="3.09677" r="3.09677" transform="matrix(0 -1 -1 0 10.8388 10.8386)" fill="#9638FF"/>
</svg>
