<svg width="248" height="352" viewBox="0 0 248 352" fill="none" xmlns="http://www.w3.org/2000/svg">
<circle cx="8" cy="8" r="8" transform="matrix(-1 0 0 1 236 12)" fill="#9638FF"/>
<circle cx="8" cy="8" r="8" transform="matrix(-1 0 0 1 236 64)" fill="#9638FF"/>
<circle cx="8" cy="8" r="8" transform="matrix(-1 0 0 1 184 12)" fill="#9638FF"/>
<circle cx="8" cy="8" r="8" transform="matrix(-1 0 0 1 132 12)" fill="#9638FF"/>
<circle cx="8" cy="8" r="8" transform="matrix(-1 0 0 1 184 64)" fill="#9638FF"/>
<circle cx="8" cy="8" r="8" transform="matrix(-1 0 0 1 80 12)" fill="#9638FF"/>
<circle cx="8" cy="8" r="8" transform="matrix(-1 0 0 1 28 12)" fill="#9638FF"/>
<circle cx="8" cy="8" r="8" transform="matrix(-1 0 0 1 132 64)" fill="#9638FF"/>
<circle cx="8" cy="8" r="8" transform="matrix(-1 0 0 1 80 64)" fill="#9638FF"/>
<circle cx="8" cy="8" r="8" transform="matrix(-1 0 0 1 236 116)" fill="#9638FF"/>
<circle cx="8" cy="8" r="8" transform="matrix(-1 0 0 1 28 64)" fill="#9638FF"/>
<circle cx="8" cy="8" r="8" transform="matrix(-1 0 0 1 184 116)" fill="#9638FF"/>
<circle cx="8" cy="8" r="8" transform="matrix(-1 0 0 1 132 116)" fill="#9638FF"/>
<circle cx="8" cy="8" r="8" transform="matrix(-1 0 0 1 80 116)" fill="#9638FF"/>
<circle cx="8" cy="8" r="8" transform="matrix(-1 0 0 1 28 116)" fill="#9638FF"/>
<circle cx="8" cy="8" r="8" transform="matrix(-1 0 0 1 236 168)" fill="#9638FF"/>
<circle cx="8" cy="8" r="8" transform="matrix(-1 0 0 1 80 168)" fill="#9638FF"/>
<circle cx="8" cy="8" r="8" transform="matrix(-1 0 0 1 184 168)" fill="#9638FF"/>
<circle cx="8" cy="8" r="8" transform="matrix(-1 0 0 1 132 168)" fill="#9638FF"/>
<circle cx="8" cy="8" r="8" transform="matrix(-1 0 0 1 28 168)" fill="#9638FF"/>
<circle cx="8" cy="8" r="8" transform="matrix(-1 0 0 1 236 220)" fill="#9638FF"/>
<circle cx="8" cy="8" r="8" transform="matrix(-1 0 0 1 184 220)" fill="#9638FF"/>
<circle cx="8" cy="8" r="8" transform="matrix(-1 0 0 1 132 220)" fill="#9638FF"/>
<circle cx="8" cy="8" r="8" transform="matrix(-1 0 0 1 80 220)" fill="#9638FF"/>
<circle cx="8" cy="8" r="8" transform="matrix(-1 0 0 1 28 220)" fill="#9638FF"/>
<circle cx="8" cy="8" r="8" transform="matrix(-1 0 0 1 236 272)" fill="#9638FF"/>
<circle cx="8" cy="8" r="8" transform="matrix(-1 0 0 1 184 272)" fill="#9638FF"/>
<circle cx="8" cy="8" r="8" transform="matrix(-1 0 0 1 132 272)" fill="#9638FF"/>
<circle cx="8" cy="8" r="8" transform="matrix(-1 0 0 1 80 272)" fill="#9638FF"/>
<circle cx="8" cy="8" r="8" transform="matrix(-1 0 0 1 28 272)" fill="#9638FF"/>
<circle cx="8" cy="8" r="8" transform="matrix(-1 0 0 1 236 324)" fill="#9638FF"/>
<circle cx="8" cy="8" r="8" transform="matrix(-1 0 0 1 184 324)" fill="#9638FF"/>
<circle cx="8" cy="8" r="8" transform="matrix(-1 0 0 1 132 324)" fill="#9638FF"/>
<circle cx="8" cy="8" r="8" transform="matrix(-1 0 0 1 80 324)" fill="#9638FF"/>
<circle cx="8" cy="8" r="8" transform="matrix(-1 0 0 1 28 324)" fill="#9638FF"/>
</svg>
