<svg width="248" height="248" viewBox="0 0 248 248" fill="none" xmlns="http://www.w3.org/2000/svg">
<circle cx="228" cy="228" r="8" transform="rotate(180 228 228)" fill="#9638FF"/>
<circle cx="228" cy="176" r="8" transform="rotate(180 228 176)" fill="#9638FF"/>
<circle cx="176" cy="228" r="8" transform="rotate(180 176 228)" fill="#9638FF"/>
<circle cx="124" cy="228" r="8" transform="rotate(180 124 228)" fill="#9638FF"/>
<circle cx="176" cy="176" r="8" transform="rotate(180 176 176)" fill="#9638FF"/>
<circle cx="72" cy="228" r="8" transform="rotate(180 72 228)" fill="#9638FF"/>
<circle cx="20" cy="228" r="8" transform="rotate(180 20 228)" fill="#9638FF"/>
<circle cx="124" cy="176" r="8" transform="rotate(180 124 176)" fill="#9638FF"/>
<circle cx="72" cy="176" r="8" transform="rotate(180 72 176)" fill="#9638FF"/>
<circle cx="228" cy="124" r="8" transform="rotate(180 228 124)" fill="#9638FF"/>
<circle cx="20" cy="176" r="8" transform="rotate(180 20 176)" fill="#9638FF"/>
<circle cx="176" cy="124" r="8" transform="rotate(180 176 124)" fill="#9638FF"/>
<circle cx="124" cy="124" r="8" transform="rotate(180 124 124)" fill="#9638FF"/>
<circle cx="72" cy="124" r="8" transform="rotate(180 72 124)" fill="#9638FF"/>
<circle cx="20" cy="124" r="8" transform="rotate(180 20 124)" fill="#9638FF"/>
<circle cx="228" cy="72" r="8" transform="rotate(180 228 72)" fill="#9638FF"/>
<circle cx="72" cy="72" r="8" transform="rotate(180 72 72)" fill="#9638FF"/>
<circle cx="176" cy="72" r="8" transform="rotate(180 176 72)" fill="#9638FF"/>
<circle cx="124" cy="72" r="8" transform="rotate(180 124 72)" fill="#9638FF"/>
<circle cx="20" cy="72" r="8" transform="rotate(180 20 72)" fill="#9638FF"/>
<circle cx="228" cy="20" r="8" transform="rotate(180 228 20)" fill="#9638FF"/>
<circle cx="176" cy="20" r="8" transform="rotate(180 176 20)" fill="#9638FF"/>
<circle cx="124" cy="20" r="8" transform="rotate(180 124 20)" fill="#9638FF"/>
<circle cx="72" cy="20" r="8" transform="rotate(180 72 20)" fill="#9638FF"/>
<circle cx="20" cy="20" r="8" transform="rotate(180 20 20)" fill="#9638FF"/>
</svg>
