<svg width="29" height="25" viewBox="0 0 29 25" fill="none" xmlns="http://www.w3.org/2000/svg">
<path d="M11.6708 11.7941C10.1179 11.7941 8.78855 11.2412 7.68269 10.1353C6.57683 9.02941 6.0239 7.7 6.0239 6.14706C6.0239 4.59412 6.57683 3.26471 7.68269 2.15882C8.78855 1.05294 10.1179 0.5 11.6708 0.5C13.2238 0.5 14.5531 1.05294 15.659 2.15882C16.7649 3.26471 17.3178 4.59412 17.3178 6.14706C17.3178 7.7 16.7649 9.02941 15.659 10.1353C14.5531 11.2412 13.2238 11.7941 11.6708 11.7941ZM0.376953 23.0882V19.1353C0.376953 18.3588 0.576949 17.6294 0.976941 16.9471C1.37693 16.2647 1.92986 15.7471 2.63573 15.3941C3.83571 14.7824 5.18862 14.2647 6.69448 13.8412C8.20033 13.4176 9.85912 13.2059 11.6708 13.2059H12.165C12.3061 13.2059 12.4473 13.2294 12.5885 13.2765C12.4002 13.7 12.2414 14.1412 12.112 14.6C11.9826 15.0588 11.8826 15.5353 11.812 16.0294H11.6708C10.0003 16.0294 8.50032 16.2412 7.17094 16.6647C5.84155 17.0882 4.75334 17.5118 3.9063 17.9353C3.69453 18.0529 3.52395 18.2176 3.39454 18.4294C3.26513 18.6412 3.20043 18.8765 3.20043 19.1353V20.2647H12.0944C12.2355 20.7588 12.4238 21.2471 12.6591 21.7294C12.8944 22.2118 13.1532 22.6647 13.4355 23.0882H0.376953ZM20.1413 24.5L19.7177 22.3824C19.4354 22.2647 19.1707 22.1412 18.9236 22.0118C18.6766 21.8824 18.4237 21.7235 18.1648 21.5353L16.1178 22.1706L14.7061 19.7706L16.3296 18.3588C16.2825 18.0294 16.259 17.7235 16.259 17.4412C16.259 17.1588 16.2825 16.8529 16.3296 16.5235L14.7061 15.1118L16.1178 12.7118L18.1648 13.3471C18.4237 13.1588 18.6766 13 18.9236 12.8706C19.1707 12.7412 19.4354 12.6176 19.7177 12.5L20.1413 10.3824H22.9647L23.3883 12.5C23.6706 12.6176 23.9353 12.7471 24.1824 12.8882C24.4294 13.0294 24.6824 13.2059 24.9412 13.4176L26.9882 12.7118L28.3999 15.1824L26.7764 16.5941C26.8235 16.8765 26.847 17.1706 26.847 17.4765C26.847 17.7824 26.8235 18.0765 26.7764 18.3588L28.3999 19.7706L26.9882 22.1706L24.9412 21.5353C24.6824 21.7235 24.4294 21.8824 24.1824 22.0118C23.9353 22.1412 23.6706 22.2647 23.3883 22.3824L22.9647 24.5H20.1413ZM21.553 20.2647C22.3295 20.2647 22.9942 19.9882 23.5471 19.4353C24.1 18.8824 24.3765 18.2176 24.3765 17.4412C24.3765 16.6647 24.1 16 23.5471 15.4471C22.9942 14.8941 22.3295 14.6176 21.553 14.6176C20.7766 14.6176 20.1119 14.8941 19.5589 15.4471C19.006 16 18.7295 16.6647 18.7295 17.4412C18.7295 18.2176 19.006 18.8824 19.5589 19.4353C20.1119 19.9882 20.7766 20.2647 21.553 20.2647ZM11.6708 8.97059C12.4473 8.97059 13.112 8.69412 13.6649 8.14118C14.2179 7.58824 14.4943 6.92353 14.4943 6.14706C14.4943 5.37059 14.2179 4.70588 13.6649 4.15294C13.112 3.6 12.4473 3.32353 11.6708 3.32353C10.8944 3.32353 10.2297 3.6 9.67677 4.15294C9.12384 4.70588 8.84737 5.37059 8.84737 6.14706C8.84737 6.92353 9.12384 7.58824 9.67677 8.14118C10.2297 8.69412 10.8944 8.97059 11.6708 8.97059Z" fill="#F3F3F3"/>
</svg>
