<svg width="15" height="17" viewBox="0 0 15 17" fill="none" xmlns="http://www.w3.org/2000/svg">
<path d="M1 17C0.71667 17 0.479004 16.904 0.287004 16.712C0.0950036 16.52 -0.000663206 16.2827 3.4602e-06 16V1C3.4602e-06 0.71667 0.0960036 0.479004 0.288004 0.287004C0.480004 0.0950036 0.717337 -0.000663206 1 3.4602e-06H8.175C8.40834 3.4602e-06 8.61667 0.0750034 8.8 0.225003C8.98334 0.375003 9.1 0.56667 9.15 0.800004L9.4 2H14C14.2833 2 14.521 2.096 14.713 2.288C14.905 2.48 15.0007 2.71734 15 3V11C15 11.2833 14.904 11.521 14.712 11.713C14.52 11.905 14.2827 12.0007 14 12H8.825C8.59167 12 8.38334 11.925 8.2 11.775C8.01667 11.625 7.9 11.4333 7.85 11.2L7.6 10H2V16C2 16.2833 1.904 16.521 1.712 16.713C1.52 16.905 1.28267 17.0007 1 17Z" fill="#F3F3F3"/>
</svg>
