<svg width="28" height="27" viewBox="0 0 28 27" fill="none" xmlns="http://www.w3.org/2000/svg">
<path d="M17.3998 9.3C16.5778 8.478 15.1306 7.9068 13.7998 7.8708M13.7998 7.8708C12.2158 7.8276 10.7998 8.544 10.7998 10.5C10.7998 14.1 17.3998 12.3 17.3998 15.9C17.3998 17.9532 15.643 18.8352 13.7998 18.7692M13.7998 7.8708V5.7M10.1998 17.1C10.9726 18.132 12.4114 18.72 13.7998 18.7692M13.7998 18.7692V21.3M13.7998 25.5C20.4274 25.5 25.7998 20.1276 25.7998 13.5C25.7998 6.8724 20.4274 1.5 13.7998 1.5C7.17221 1.5 1.7998 6.8724 1.7998 13.5C1.7998 20.1276 7.17221 25.5 13.7998 25.5Z" stroke="#F3F3F3" stroke-width="3" stroke-linecap="round" stroke-linejoin="round"/>
</svg>
