<svg width="18" height="20" viewBox="0 0 18 20" fill="none" xmlns="http://www.w3.org/2000/svg">
<path d="M5.00003 2C5.00003 2.53043 4.78932 3.03914 4.41424 3.41421C4.03917 3.78929 3.53046 4 3.00002 4C2.46958 4 1.96087 3.78929 1.5858 3.41421C1.21072 3.03914 1.00001 2.53043 1.00001 2C1.00001 1.46957 1.21072 0.960859 1.5858 0.585786C1.96087 0.210714 2.46958 0 3.00002 0C3.53046 0 4.03917 0.210714 4.41424 0.585786C4.78932 0.960859 5.00003 1.46957 5.00003 2ZM2.00001 14V19C2.00001 19.5523 1.55229 20 1.00001 20V20C0.447718 20 3.6709e-08 19.5523 3.6709e-08 19V8C-9.24822e-05 7.40846 0.174701 6.83008 0.502405 6.3376C0.830109 5.84512 1.2961 5.46051 1.84178 5.23213C2.38746 5.00375 2.98849 4.94179 3.56929 5.05404C4.15009 5.16629 4.68475 5.44774 5.10603 5.863L7.48005 8.106L9.08606 6.5C9.47653 6.10953 10.1096 6.10953 10.5001 6.5V6.5C10.8905 6.89046 10.8905 7.52354 10.5001 7.914L8.004 10.41C7.73447 10.6796 7.29948 10.6859 7.02222 10.4243L6.00004 9.46V19C6.00004 19.5523 5.55232 20 5.00003 20V20C4.44774 20 4.00003 19.5523 4.00003 19V14H2.00001ZM7.00005 2C7.00005 2.55228 7.44776 3 8.00005 3H16.0001V12H8.00005C7.44776 12 7.00005 12.4477 7.00005 13V13C7.00005 13.5523 7.44776 14 8.00005 14H11.3651L13.9189 19.4259C14.0838 19.7763 14.4363 20 14.8236 20V20C15.5565 20 16.0404 19.2376 15.7284 18.5744L13.5761 14H17.0001C17.2653 14 17.5197 13.8946 17.7072 13.7071C17.8948 13.5196 18.0001 13.2652 18.0001 13V2C18.0001 1.73478 17.8948 1.48043 17.7072 1.29289C17.5197 1.10536 17.2653 1 17.0001 1H8.00005C7.44776 1 7.00005 1.44772 7.00005 2V2Z" fill="#F3F3F3"/>
</svg>
