<svg width="25" height="25" viewBox="0 0 25 25" fill="none" xmlns="http://www.w3.org/2000/svg">
<path d="M10.9611 4.99906H14.7147L18.8313 0.870103C18.9476 0.75283 19.086 0.659748 19.2384 0.596226C19.3909 0.532704 19.5545 0.5 19.7196 0.5C19.8848 0.5 20.0484 0.532704 20.2008 0.596226C20.3533 0.659748 20.4917 0.75283 20.608 0.870103L23.8362 4.11071C24.0692 4.34514 24.2 4.66225 24.2 4.9928C24.2 5.32335 24.0692 5.64047 23.8362 5.8749L20.9709 8.75266H10.9611V11.2551C10.9611 11.5869 10.8293 11.9051 10.5946 12.1398C10.36 12.3744 10.0417 12.5063 9.70986 12.5063C9.37802 12.5063 9.05976 12.3744 8.82511 12.1398C8.59046 11.9051 8.45864 11.5869 8.45864 11.2551V7.50146C8.45864 6.83778 8.72229 6.20129 9.19159 5.732C9.66089 5.2627 10.2974 4.99906 10.9611 4.99906ZM3.45375 11.2551V16.2599L0.588456 19.1251C0.355414 19.3595 0.224609 19.6766 0.224609 20.0072C0.224609 20.3377 0.355414 20.6549 0.588456 20.8893L3.81661 24.1299C3.93292 24.2472 4.07131 24.3403 4.22378 24.4038C4.37626 24.4673 4.5398 24.5 4.70497 24.5C4.87015 24.5 5.03369 24.4673 5.18617 24.4038C5.33864 24.3403 5.47702 24.2472 5.59334 24.1299L10.9611 18.7623H15.966C16.2978 18.7623 16.6161 18.6304 16.8507 18.3958C17.0854 18.1611 17.2172 17.8429 17.2172 17.5111V16.2599H18.4684C18.8003 16.2599 19.1185 16.128 19.3532 15.8934C19.5878 15.6587 19.7196 15.3405 19.7196 15.0087V13.7575H20.9709C21.3027 13.7575 21.621 13.6256 21.8556 13.391C22.0903 13.1563 22.2221 12.8381 22.2221 12.5063V11.2551H13.4635V12.5063C13.4635 13.1699 13.1999 13.8064 12.7306 14.2757C12.2613 14.745 11.6248 15.0087 10.9611 15.0087H8.45864C7.79495 15.0087 7.15844 14.745 6.68915 14.2757C6.21985 13.8064 5.9562 13.1699 5.9562 12.5063V8.75266L3.45375 11.2551Z" fill="#F3F3F3"/>
</svg>
