<svg width="25" height="24" viewBox="0 0 25 24" fill="none" xmlns="http://www.w3.org/2000/svg">
<path d="M10.9334 16.2L17.9834 9.15L16.5834 7.75L10.9334 13.4L8.08338 10.55L6.68338 11.95L10.9334 16.2ZM5.33338 21C4.78338 21 4.31238 20.804 3.92038 20.412C3.52838 20.02 3.33271 19.5493 3.33338 19V5C3.33338 4.45 3.52938 3.979 3.92138 3.587C4.31338 3.195 4.78404 2.99934 5.33338 3H19.3334C19.8834 3 20.3544 3.196 20.7464 3.588C21.1384 3.98 21.334 4.45067 21.3334 5V19C21.3334 19.55 21.1374 20.021 20.7454 20.413C20.3534 20.805 19.8827 21.0007 19.3334 21H5.33338ZM5.33338 19H19.3334V5H5.33338V19Z" fill="#F3F3F3"/>
</svg>
