<svg width="24" height="24" viewBox="0 0 24 24" fill="none" xmlns="http://www.w3.org/2000/svg">
<g id="coffee">
<path id="Vector" d="M5 2H7V5H5V2ZM9 2H11V5H9V2ZM13 2H15V5H13V2ZM19 9H17V7H3V18C3 19.654 4.346 21 6 21H14C15.654 21 17 19.654 17 18H19C20.103 18 21 17.103 21 16V11C21 9.897 20.103 9 19 9ZM15 18C15 18.2652 14.8946 18.5196 14.7071 18.7071C14.5196 18.8946 14.2652 19 14 19H6C5.73478 19 5.48043 18.8946 5.29289 18.7071C5.10536 18.5196 5 18.2652 5 18V9H15V18ZM17 16V11H19L19.002 16H17Z" fill="#9638FF"/>
</g>
</svg>
