<svg width="17" height="18" viewBox="0 0 17 18" fill="none" xmlns="http://www.w3.org/2000/svg">
<path id="Vector" d="M6.83342 12.3334H10.1667C10.4029 12.3334 10.6009 12.2534 10.7609 12.0934C10.9209 11.9334 11.0006 11.7356 11.0001 11.5V9.83335H9.33342V10.6667H7.66675V7.33335H9.33342V8.16669H11.0001V6.50002C11.0001 6.26391 10.9201 6.06613 10.7601 5.90669C10.6001 5.74724 10.4023 5.66724 10.1667 5.66669H6.83342C6.5973 5.66669 6.39953 5.74669 6.24008 5.90669C6.08064 6.06669 6.00064 6.26447 6.00008 6.50002V11.5C6.00008 11.7361 6.08008 11.9342 6.24008 12.0942C6.40008 12.2542 6.59786 12.3339 6.83342 12.3334ZM8.50008 17.3334C7.3473 17.3334 6.26397 17.1145 5.25008 16.6767C4.23619 16.2389 3.35425 15.6453 2.60425 14.8959C1.85425 14.1459 1.26064 13.2639 0.823415 12.25C0.386193 11.2361 0.167304 10.1528 0.166748 9.00002C0.166748 7.84724 0.385637 6.76391 0.823415 5.75002C1.26119 4.73613 1.8548 3.85419 2.60425 3.10419C3.35425 2.35419 4.23619 1.76058 5.25008 1.32335C6.26397 0.886132 7.3473 0.667243 8.50008 0.666687C9.65286 0.666687 10.7362 0.885576 11.7501 1.32335C12.764 1.76113 13.6459 2.35474 14.3959 3.10419C15.1459 3.85419 15.7398 4.73613 16.1776 5.75002C16.6154 6.76391 16.834 7.84724 16.8334 9.00002C16.8334 10.1528 16.6145 11.2361 16.1768 12.25C15.739 13.2639 15.1454 14.1459 14.3959 14.8959C13.6459 15.6459 12.764 16.2397 11.7501 16.6775C10.7362 17.1153 9.65286 17.3339 8.50008 17.3334ZM8.50008 15.6667C10.3612 15.6667 11.9376 15.0209 13.2292 13.7292C14.5209 12.4375 15.1667 10.8611 15.1667 9.00002C15.1667 7.13891 14.5209 5.56252 13.2292 4.27085C11.9376 2.97919 10.3612 2.33335 8.50008 2.33335C6.63897 2.33335 5.06258 2.97919 3.77092 4.27085C2.47925 5.56252 1.83341 7.13891 1.83341 9.00002C1.83341 10.8611 2.47925 12.4375 3.77092 13.7292C5.06258 15.0209 6.63897 15.6667 8.50008 15.6667Z" fill="white"/>
</svg>
