<svg width="25" height="24" viewBox="0 0 25 24" fill="none" xmlns="http://www.w3.org/2000/svg">
<g clip-path="url(#clip0_1319_1354)">
<path fill-rule="evenodd" clip-rule="evenodd" d="M3.5 4.5C3.5 4.10218 3.65804 3.72064 3.93934 3.43934C4.22064 3.15804 4.60218 3 5 3H20C20.3978 3 20.7794 3.15804 21.0607 3.43934C21.342 3.72064 21.5 4.10218 21.5 4.5V6.586C21.4999 7.11639 21.2891 7.62501 20.914 8L15.5 13.414V20.838C15.5 21.0255 15.4521 21.2099 15.3608 21.3737C15.2695 21.5375 15.1379 21.6753 14.9783 21.7739C14.8188 21.8724 14.6368 21.9286 14.4494 21.9371C14.2621 21.9455 14.0757 21.9059 13.908 21.822L10.191 19.964C9.98337 19.8602 9.80875 19.7006 9.6867 19.5031C9.56466 19.3057 9.50001 19.0781 9.5 18.846V13.414L4.086 8C3.7109 7.62501 3.50011 7.11639 3.5 6.586V4.5ZM5.5 5V6.586L11.06 12.146C11.1994 12.2853 11.3101 12.4507 11.3856 12.6327C11.4611 12.8148 11.5 13.0099 11.5 13.207V18.382L13.5 19.382V13.207C13.5 12.809 13.658 12.427 13.94 12.147L19.5 6.585V5H5.5Z" fill="white"/>
<path d="M5.5 5V6.586L11.06 12.146C11.1994 12.2853 11.3101 12.4507 11.3856 12.6327C11.4611 12.8148 11.5 13.0099 11.5 13.207V18.382L13.5 19.382V13.207C13.5 12.809 13.658 12.427 13.94 12.147L19.5 6.585V5H5.5Z" fill="white"/>
</g>
<defs>
<clipPath id="clip0_1319_1354">
<rect width="24" height="24" fill="white" transform="translate(0.5)"/>
</clipPath>
</defs>
</svg>
