<svg width="44" height="44" viewBox="0 0 44 44" fill="none" xmlns="http://www.w3.org/2000/svg">
<path d="M22 3.4375C18.3287 3.4375 14.7398 4.52617 11.6872 6.56585C8.63465 8.60552 6.25545 11.5046 4.85049 14.8964C3.44554 18.2883 3.07794 22.0206 3.79418 25.6214C4.51042 29.2221 6.27833 32.5297 8.87434 35.1257C11.4704 37.7217 14.7779 39.4896 18.3786 40.2058C21.9794 40.9221 25.7117 40.5545 29.1036 39.1495C32.4954 37.7446 35.3945 35.3654 37.4342 32.3128C39.4738 29.2602 40.5625 25.6713 40.5625 22C40.557 17.0786 38.5996 12.3603 35.1196 8.88036C31.6397 5.4004 26.9214 3.44296 22 3.4375ZM22 36.4375C19.1445 36.4375 16.3532 35.5908 13.979 34.0043C11.6047 32.4179 9.75424 30.1631 8.6615 27.525C7.56876 24.8869 7.28285 21.984 7.83992 19.1834C8.397 16.3828 9.77203 13.8103 11.7912 11.7911C13.8103 9.77202 16.3828 8.39699 19.1834 7.83991C21.984 7.28284 24.8869 7.56875 27.525 8.66149C30.1631 9.75423 32.4179 11.6047 34.0044 13.979C35.5908 16.3532 36.4375 19.1445 36.4375 22C36.4334 25.8278 34.911 29.4977 32.2043 32.2043C29.4977 34.911 25.8278 36.4334 22 36.4375ZM30.9375 22C30.9375 22.547 30.7202 23.0716 30.3334 23.4584C29.9466 23.8452 29.422 24.0625 28.875 24.0625H24.0625V28.875C24.0625 29.422 23.8452 29.9466 23.4584 30.3334C23.0716 30.7202 22.547 30.9375 22 30.9375C21.453 30.9375 20.9284 30.7202 20.5416 30.3334C20.1548 29.9466 19.9375 29.422 19.9375 28.875V24.0625H15.125C14.578 24.0625 14.0534 23.8452 13.6666 23.4584C13.2798 23.0716 13.0625 22.547 13.0625 22C13.0625 21.453 13.2798 20.9284 13.6666 20.5416C14.0534 20.1548 14.578 19.9375 15.125 19.9375H19.9375V15.125C19.9375 14.578 20.1548 14.0534 20.5416 13.6666C20.9284 13.2798 21.453 13.0625 22 13.0625C22.547 13.0625 23.0716 13.2798 23.4584 13.6666C23.8452 14.0534 24.0625 14.578 24.0625 15.125V19.9375H28.875C29.422 19.9375 29.9466 20.1548 30.3334 20.5416C30.7202 20.9284 30.9375 21.453 30.9375 22Z" fill="#F3F3F3"/>
</svg>
