<svg width="96" height="96" viewBox="0 0 96 96" fill="none" xmlns="http://www.w3.org/2000/svg">
<path d="M44.7464 0.0523198C47.8231 -0.23981 53.2408 0.5586 56.0346 5.87041L56.3051 6.41736L56.3569 6.53163L56.3784 6.57753L56.435 6.70841C56.8455 7.67424 57.0296 8.56895 57.1108 9.06905L57.1625 9.42554L57.2055 9.79863C57.2426 10.1576 57.261 10.4706 57.2709 10.6913C57.2853 11.0086 57.2895 11.2863 57.2905 11.4756V11.7237C57.2904 11.7381 57.2896 11.7516 57.2895 11.7637L57.3217 37.471L82.3016 33.911L82.3416 33.9061L82.3563 33.9031C82.4069 33.8962 82.4578 33.8896 82.5086 33.8836L82.5242 33.8826C82.5399 33.8808 82.5555 33.8785 82.5711 33.8768C82.5705 33.8768 82.5865 33.8747 82.6033 33.8729C82.6146 33.8716 82.6484 33.8684 82.6893 33.8641H82.6912C82.7657 33.8562 82.857 33.8465 82.9598 33.8367C83.1708 33.8166 83.4757 33.7897 83.8182 33.7684C84.1392 33.7484 84.6081 33.726 85.117 33.7312C85.3417 33.7336 86.4896 33.7293 87.8065 34.0741L88.0722 34.1473L88.0731 34.1483C94.2886 35.977 95.947 41.5436 95.999 44.8918L96 45.2092C95.9523 48.341 94.7512 51.4232 92.8251 53.7464C92.8053 53.7704 92.7848 53.7939 92.7646 53.8177L92.6855 53.9115C92.6649 53.9357 92.6439 53.9597 92.623 53.9837L60.1304 91.335C58.3912 93.3344 55.6555 95.3047 52.2025 95.8551C50.3698 96.1471 47.9904 96.0742 45.593 94.9155C43.0945 93.7077 41.369 91.7004 40.3801 89.5252C40.3469 89.4523 40.3153 89.3783 40.2844 89.3045L40.259 89.2459C40.2339 89.186 40.2094 89.1256 40.1857 89.0652C40.0033 88.598 39.8909 88.1962 39.8264 87.9449L39.715 87.4663C39.6617 87.2122 39.6201 86.973 39.592 86.8051C39.5337 86.4566 39.4782 86.0762 39.4348 85.7659C39.3897 85.4439 39.3492 85.1365 39.3205 84.9152C39.3061 84.8043 39.2939 84.7111 39.2853 84.6437L39.2756 84.5656L39.2726 84.5392L39.2639 84.4728C39.2224 84.1424 39.2023 83.8096 39.2023 83.4766V83.4199L39.1701 58.4198L13.3729 62.098C13.283 62.1108 13.1926 62.1205 13.1024 62.1302L13.0994 62.1312C13.0878 62.1325 13.0759 62.1329 13.0643 62.1341L13.0652 62.1351L13.0438 62.138C13.0402 62.1384 13.0366 62.1377 13.033 62.138C13.0265 62.1387 13.0125 62.1412 12.9949 62.1429H12.991C12.9714 62.1449 12.9551 62.1459 12.9451 62.1468C12.9352 62.1478 12.9262 62.1493 12.9217 62.1498C12.9148 62.1504 12.915 62.1505 12.9119 62.1507L12.6727 62.1713C12.4878 62.1865 12.2212 62.2066 11.9178 62.2211C11.6352 62.2345 11.207 62.2486 10.7312 62.2357C10.4707 62.2287 9.31947 62.2076 8.0183 61.8255L8.01439 61.8245C2.07375 60.0767 0.209133 54.8369 0.0172073 51.4629L0.0045118 51.1426C-0.0824803 47.8796 1.09118 44.5173 3.29264 41.9862C3.29461 41.9839 3.29653 41.9816 3.2985 41.9793L35.8507 4.62808C38.0944 2.05216 41.2968 0.474676 44.4465 0.0845503L44.7464 0.0523198ZM49.0521 9.79277C48.3253 8.23079 46.742 7.86251 45.43 8.02498C44.1233 8.18681 42.7583 8.87902 41.8821 9.88556L9.32886 47.2368C8.45804 48.2381 7.96745 49.6451 8.00169 50.9296C8.03658 52.2327 8.65408 53.6727 10.2713 54.1488C10.5112 54.2192 10.7772 54.233 10.948 54.2377C11.1468 54.243 11.3562 54.2375 11.5379 54.2289C11.7221 54.2201 11.8917 54.2078 12.0144 54.1976C12.0761 54.1925 12.127 54.1883 12.1629 54.1849C12.1805 54.1833 12.1948 54.182 12.2049 54.181C12.2099 54.1805 12.2146 54.1794 12.2176 54.1791H12.2234L44.8792 49.5242C46.0828 49.3526 47.1599 50.286 47.1614 51.502L47.2024 83.4102V83.4766L47.2103 83.543L47.2112 83.5489C47.2118 83.5531 47.2122 83.5596 47.2132 83.5674C47.2152 83.5836 47.2182 83.6079 47.222 83.6377C47.2295 83.6976 47.2409 83.7829 47.2542 83.8858C47.281 84.0921 47.3177 84.3707 47.3577 84.6564C47.3975 84.9406 47.4418 85.2397 47.4827 85.4847C47.503 85.6062 47.5243 85.7246 47.5452 85.8245C47.5553 85.8725 47.5838 86.0158 47.638 86.1547L47.6624 86.2133C47.9722 86.8947 48.4533 87.4112 49.0745 87.7115C49.6836 88.0058 50.3391 88.0501 50.9437 87.9537C52.126 87.7653 53.2783 87.0213 54.0941 86.0834L86.5878 48.7321L86.6669 48.6393C87.475 47.6644 87.981 46.3257 87.9999 45.0871C88.0196 43.7884 87.4653 42.3095 85.8153 41.824C85.547 41.7452 85.2365 41.7343 85.034 41.7322C84.7963 41.7298 84.5402 41.7406 84.3143 41.7547C84.0858 41.7689 83.8736 41.7869 83.7196 41.8016C83.6423 41.8089 83.5788 41.8154 83.534 41.8201C83.5116 41.8225 83.4937 41.8246 83.4813 41.826C83.4751 41.8267 83.4701 41.8275 83.4666 41.8279H83.4608L83.4451 41.8299L83.4305 41.8318L51.6136 46.3676C50.41 46.5392 49.3329 45.6058 49.3314 44.3898L49.2894 11.6993C49.2895 11.6896 49.2902 11.6767 49.2904 11.6612C49.2906 11.626 49.2907 11.5757 49.2904 11.5156L49.2796 11.0527C49.2717 10.8767 49.2576 10.6714 49.2318 10.4764C49.2167 10.3626 49.1901 10.1922 49.1361 10.0155L49.0726 9.83867L49.0521 9.79277Z" fill="white"/>
</svg>
