<svg width="192" height="52" viewBox="0 0 192 52" fill="none" xmlns="http://www.w3.org/2000/svg">
<g id="logo-badge-alura">
<path id="XMLID_27_" d="M82.0673 11.8691H84.8257C84.9709 11.8691 85.0919 11.9901 85.0919 12.1353V39.8645C85.0919 40.0097 84.9709 40.1307 84.8257 40.1307H82.0673C81.9222 40.1307 81.8012 40.0097 81.8012 39.8645V12.1353C81.8012 11.9901 81.9222 11.8691 82.0673 11.8691ZM101.086 34.6864V35.3881C101.086 35.7027 101.037 36.114 100.916 36.6464C100.82 37.1545 100.553 37.6868 100.094 38.1949C99.6582 38.7031 99.0049 39.1628 98.1096 39.5499C97.2144 39.9129 96.0045 40.1065 94.456 40.1065C92.9074 40.1065 91.6976 39.9129 90.8023 39.5499C89.907 39.187 89.2779 38.7273 88.8182 38.1949C88.3826 37.6868 88.0923 37.1545 87.9955 36.6222C87.8987 36.0898 87.8261 35.7027 87.8261 35.3881V34.9768V19.5878C87.8261 19.4426 87.9471 19.3217 88.0923 19.3217H90.8507C90.9959 19.3217 91.1168 19.4426 91.1168 19.5878V34.3719C91.1168 34.8558 91.1894 35.2188 91.262 35.4849C91.3346 35.7511 91.4798 36.0414 91.6734 36.2834C91.8911 36.5496 92.2057 36.7431 92.6412 36.9125C93.0526 37.0819 93.6333 37.1787 94.3592 37.1787C95.1093 37.1787 95.7142 37.0819 96.1497 36.9125C96.5853 36.7431 96.924 36.5496 97.1418 36.3076C97.3837 36.0656 97.5289 35.8237 97.6015 35.5333C97.6741 35.243 97.7709 35.0252 97.7709 34.3477V19.5878C97.7709 19.4426 97.8919 19.3217 98.037 19.3217H100.795C100.941 19.3217 101.062 19.4426 101.062 19.5878L101.086 34.6864ZM110.522 19.3459H112.386C112.555 19.3459 112.676 19.5152 112.628 19.6604L111.998 22.0801C111.974 22.201 111.853 22.2736 111.756 22.2736H110.45C109.748 22.2736 109.192 22.3704 108.756 22.564C108.345 22.7576 107.982 22.9511 107.764 23.2173C107.522 23.4835 107.401 23.7254 107.328 23.9916C107.256 24.2819 107.232 24.5239 107.232 24.7659V25.1046V39.8645C107.232 40.0097 107.111 40.1307 106.966 40.1307H104.183C104.038 40.1307 103.917 40.0097 103.917 39.8645V24.9836V24.0884C103.917 23.798 103.965 23.3867 104.086 22.8544C104.183 22.322 104.449 21.8139 104.909 21.2816C105.344 20.7735 105.998 20.3137 106.893 19.9266C107.74 19.5394 108.974 19.3459 110.522 19.3459ZM72.4613 19.3459C74.7116 19.3459 76.3812 19.7814 77.4458 20.6767C78.4863 21.5719 79.0186 22.685 79.0186 24.0158V25.8305V34.2751V35.3881C79.0186 35.8479 78.9218 36.356 78.7524 36.9125C78.583 37.469 78.2685 37.9772 77.7846 38.4369C77.3006 38.8966 76.6231 39.2838 75.7763 39.5983C74.9294 39.9129 73.8163 40.0581 72.4613 40.0581C71.0821 40.0581 69.9933 39.8887 69.1464 39.5983C68.2995 39.308 67.622 38.8966 67.1381 38.4369C66.6542 37.9772 66.3154 37.469 66.1702 36.9125C66.0009 36.356 65.9041 35.8479 65.9041 35.3881V33.5734C65.9041 32.6055 66.1702 31.7103 66.6542 30.9118C67.1623 30.1133 67.864 29.5326 68.7835 29.218C69.2432 29.0487 69.7513 28.9035 70.3562 28.6857C70.937 28.4679 71.5177 28.2986 72.0742 28.0808C72.6307 27.8872 73.0904 27.7178 73.526 27.5727C73.9373 27.4033 74.2035 27.3307 74.3003 27.2823C74.3971 27.2339 74.5422 27.1613 74.6874 27.0645C74.8568 26.9678 75.002 26.8226 75.1713 26.6774C75.3407 26.4838 75.4617 26.2903 75.5585 26.0725C75.6795 25.8305 75.7279 25.5644 75.7279 25.2498V24.5239C75.7279 24.2577 75.6795 24.0158 75.5585 23.7254C75.4617 23.4351 75.2681 23.2173 75.0262 22.9753C74.76 22.7334 74.4212 22.564 74.0099 22.4188C73.5986 22.2736 73.0662 22.201 72.4129 22.201C71.1305 22.201 70.2836 22.4672 69.7997 22.9995C69.4126 23.4593 69.1706 24.0158 69.1222 24.6691C69.1222 24.8143 69.0012 24.9111 68.8561 24.9111H66.146C66.0009 24.9111 65.8799 24.7901 65.8799 24.6449V23.9674C65.8799 23.3141 66.0009 22.7092 66.2428 22.1527C66.4848 21.5961 66.8719 21.088 67.4285 20.6525C67.9608 20.2411 68.6383 19.8782 69.4852 19.6604C70.3078 19.491 71.2999 19.3459 72.4613 19.3459ZM75.7763 29.5568C75.7279 29.8229 75.5827 29.9923 75.3891 30.1375C75.1713 30.2827 75.002 30.3553 74.8084 30.4279C74.4213 30.573 73.9857 30.7182 73.5502 30.8634C73.1146 31.0328 72.6791 31.1779 72.292 31.2989C71.8322 31.4683 71.3725 31.6135 70.9853 31.7587C70.6708 31.9038 70.3804 32.0732 70.0901 32.291C69.8481 32.5088 69.6545 32.7507 69.461 33.0895C69.2674 33.4282 69.1706 33.8154 69.1706 34.2993C69.1706 35.2672 69.4126 35.9931 69.8723 36.477C70.332 36.9367 71.2031 37.2029 72.4613 37.2029C73.7437 37.2029 74.6148 36.9367 75.0988 36.4528C75.5585 35.9447 75.8005 35.243 75.8005 34.3235L75.7763 29.5568ZM120.443 19.3459C122.693 19.3459 124.363 19.7814 125.427 20.6767C126.468 21.5719 127 22.685 127 24.0158V25.8305V34.2751V35.3881C127 35.8479 126.903 36.356 126.734 36.9125C126.565 37.469 126.25 37.9772 125.766 38.4369C125.282 38.8966 124.605 39.2838 123.758 39.5983C122.911 39.9129 121.798 40.0581 120.443 40.0581C119.064 40.0581 117.975 39.8887 117.128 39.5983C116.281 39.308 115.604 38.8966 115.12 38.4369C114.636 37.9772 114.297 37.469 114.152 36.9125C113.983 36.356 113.886 35.8479 113.886 35.3881V33.5734C113.886 32.6055 114.152 31.7103 114.636 30.9118C115.144 30.1133 115.846 29.5326 116.765 29.218C117.225 29.0487 117.733 28.9035 118.338 28.6857C118.919 28.4679 119.499 28.2986 120.056 28.0808C120.612 27.8872 121.072 27.7178 121.508 27.5727C121.919 27.4033 122.185 27.3307 122.282 27.2823C122.379 27.2339 122.524 27.1613 122.669 27.0645C122.838 26.9678 122.984 26.8226 123.153 26.6774C123.322 26.4838 123.443 26.2903 123.54 26.0725C123.661 25.8305 123.71 25.5644 123.71 25.2498V24.5239C123.71 24.2577 123.661 24.0158 123.54 23.7254C123.443 23.4351 123.25 23.2173 123.008 22.9753C122.742 22.7334 122.403 22.564 121.992 22.4188C121.58 22.2736 121.048 22.201 120.395 22.201C119.112 22.201 118.265 22.4672 117.781 22.9995C117.394 23.4593 117.152 24.0158 117.104 24.6691C117.104 24.8143 116.983 24.9111 116.838 24.9111H114.055C113.91 24.9111 113.789 24.7901 113.789 24.6449V23.9674C113.789 23.3141 113.91 22.7092 114.152 22.1527C114.394 21.5961 114.781 21.088 115.338 20.6525C115.87 20.2411 116.547 19.8782 117.394 19.6604C118.29 19.491 119.282 19.3459 120.443 19.3459ZM123.734 29.5568C123.685 29.8229 123.54 29.9923 123.347 30.1375C123.129 30.2827 122.959 30.3553 122.766 30.4279C122.379 30.573 121.943 30.7182 121.508 30.8634C121.072 31.0328 120.637 31.1779 120.249 31.2989C119.79 31.4683 119.33 31.6135 118.943 31.7587C118.628 31.9038 118.338 32.0732 118.048 32.291C117.806 32.5088 117.612 32.7507 117.418 33.0895C117.225 33.404 117.128 33.8154 117.128 34.2993C117.128 35.2672 117.37 35.9931 117.83 36.477C118.29 36.9367 119.161 37.2029 120.419 37.2029C121.701 37.2029 122.572 36.9367 123.056 36.4528C123.516 35.9447 123.758 35.243 123.758 34.3235L123.734 29.5568Z" fill="#414040"/>
</g>
</svg>
