<svg width="192" height="52" viewBox="0 0 192 52" fill="none" xmlns="http://www.w3.org/2000/svg">
<path d="M121.038 32.3765H132.077V30.8606H122.791V15.7953H121.038V32.3765Z" fill="black"/>
<path d="M154.63 19.8221C152.64 19.8221 150.935 20.6749 149.893 22.2856V14.8004H148.211V32.3765H149.822V29.913C150.84 31.5948 152.569 32.4949 154.63 32.4949C158.183 32.4949 160.836 29.913 160.836 26.1467C160.836 22.3804 158.183 19.8221 154.63 19.8221ZM154.512 31.0026C151.859 31.0026 149.869 29.0603 149.869 26.1467C149.869 23.2331 151.859 21.2908 154.512 21.2908C157.141 21.2908 159.154 23.2331 159.154 26.1467C159.154 29.0603 157.141 31.0026 154.512 31.0026Z" fill="black"/>
<path d="M139.828 32.4958C143.475 32.4958 146.152 29.8428 146.152 26.1475C146.152 22.4523 143.475 19.823 139.828 19.823C136.18 19.823 133.479 22.4523 133.479 26.1475C133.479 29.8428 136.18 32.4958 139.828 32.4958ZM139.828 31.0034C137.175 31.0034 135.185 29.0611 135.185 26.1475C135.185 23.234 137.175 21.2916 139.828 21.2916C142.481 21.2916 144.447 23.234 144.447 26.1475C144.447 29.0611 142.481 31.0034 139.828 31.0034Z" fill="black"/>
<path d="M144.626 32.3768H146.308V19.8896H144.626V32.3768Z" fill="black"/>
<path d="M68.9187 32.6295C71.5007 32.6295 73.7273 31.7293 75.2433 30.0238L73.7036 28.5315C72.4245 29.8817 70.8611 30.5213 69.0372 30.5213C65.2946 30.5213 62.5231 27.8209 62.5231 24.1493C62.5231 20.4778 65.2946 17.7774 69.0372 17.7774C70.8611 17.7774 72.4245 18.3933 73.7036 19.7435L75.2433 18.2512C73.7273 16.5457 71.5007 15.6692 68.9424 15.6692C63.897 15.6692 60.1544 19.246 60.1544 24.1493C60.1544 29.0527 63.897 32.6295 68.9187 32.6295Z" fill="#FF029E"/>
<path d="M82.6532 32.5191C86.4195 32.5191 89.1672 29.8424 89.1672 26.0998C89.1672 22.3571 86.4195 19.7042 82.6532 19.7042C78.8869 19.7042 76.1154 22.3571 76.1154 26.0998C76.1154 29.8424 78.8869 32.5191 82.6532 32.5191ZM82.6532 30.5293C80.237 30.5293 78.4131 28.7764 78.4131 26.0998C78.4131 23.4231 80.237 21.6939 82.6532 21.6939C85.0693 21.6939 86.8695 23.4231 86.8695 26.0998C86.8695 28.7764 85.0693 30.5293 82.6532 30.5293Z" fill="#FF029E"/>
<path d="M101.013 14.7375V21.6542C99.9712 20.304 98.4079 19.6408 96.6313 19.6408C92.9597 19.6408 90.2831 22.199 90.2831 26.0364C90.2831 29.8738 92.9597 32.4557 96.6313 32.4557C98.4789 32.4557 100.09 31.7451 101.108 30.3238V32.3136H103.287V14.7375H101.013ZM96.8208 30.4659C94.4047 30.4659 92.5807 28.7131 92.5807 26.0364C92.5807 23.3597 94.4047 21.6305 96.8208 21.6305C99.2132 21.6305 101.037 23.3597 101.037 26.0364C101.037 28.7131 99.2132 30.4659 96.8208 30.4659Z" fill="#FF029E"/>
<path d="M117.586 26.1708C117.586 22.3098 115.004 19.7042 111.38 19.7042C107.756 19.7042 105.079 22.3808 105.079 26.0998C105.079 29.8424 107.779 32.5191 111.83 32.5191C113.915 32.5191 115.644 31.8085 116.781 30.482L115.525 29.0133C114.601 30.0319 113.37 30.5293 111.901 30.5293C109.414 30.5293 107.637 29.0607 107.353 26.8578H117.539C117.562 26.6447 117.586 26.3603 117.586 26.1708ZM111.38 21.6229C113.583 21.6229 115.17 23.1152 115.407 25.2233H107.353C107.59 23.0915 109.201 21.6229 111.38 21.6229Z" fill="#FF029E"/>
<path d="M49.4304 23.8728C49.4304 21.7498 47.3066 20.7252 41.8547 23.8728C36.4029 27.0204 43.57 27.8866 45.4227 27.9403C47.2754 27.994 49.4304 25.9957 49.4304 23.8728Z" fill="#FF87D0"/>
<path d="M37.8984 23.8724V34.5498C37.8984 40.7738 49.4301 40.8687 49.4301 34.5498L49.4304 23.8728C46.9788 25.777 43.6405 25.7045 41.8847 23.8724C40.1288 22.0402 37.8984 19.8549 37.8984 23.8724Z" fill="#FF029E"/>
<path d="M41.1107 20.7192C42.0264 20.7192 42.7688 20.0171 42.7688 19.1509C42.7688 18.2848 42.0264 17.5827 41.1107 17.5827C40.1949 17.5827 39.4525 18.2848 39.4525 19.1509C39.4525 20.0171 40.1949 20.7192 41.1107 20.7192Z" fill="#FF44B7"/>
<path d="M46.6605 16.8659C47.4549 16.8659 48.0989 16.2622 48.0989 15.5174C48.0989 14.7726 47.4549 14.1689 46.6605 14.1689C45.8661 14.1689 45.2221 14.7726 45.2221 15.5174C45.2221 16.2622 45.8661 16.8659 46.6605 16.8659Z" fill="#FF87D0"/>
<path d="M42.7162 13.5425C43.312 13.5425 43.795 13.0434 43.795 12.4277C43.795 11.8121 43.312 11.313 42.7162 11.313C42.1204 11.313 41.6374 11.8121 41.6374 12.4277C41.6374 13.0434 42.1204 13.5425 42.7162 13.5425Z" fill="#FF87D0"/>
<path d="M34.834 13.5808V20.8305C34.4315 23.2267 33.4532 23.2905 32 24.3829C33.5821 24.7813 34.834 26.3996 34.834 28.8052V36.0548C35.275 39.5605 39.4622 41.2495 41.5726 39.8107C39.6283 39.8107 37.1407 37.7684 37.1407 35.0663V27.8314C37.1407 26.052 36.4487 24.9974 35.3612 24.4372C36.4487 23.91 37.1407 22.8555 37.1407 21.0431V14.5694C37.1407 12.8629 37.8138 10.1436 40.3431 9.00032C37.8985 8.97234 34.8765 10.7973 34.834 13.5808Z" fill="black"/>
<path d="M52.0544 35.263V27.2522C52.4568 24.856 53.4351 24.7922 54.8883 23.6997C53.3062 23.3013 52.0544 21.6831 52.0544 19.2775V13.5502C52.0768 11.1667 49.4303 9.22106 46.8381 9.22347C48.8489 10.1922 50.1282 11.2657 50.1282 13.9679V20.2513C50.1282 22.0307 50.8202 23.0852 51.9077 23.6454C50.8202 24.1727 50.1282 25.2272 50.1282 27.0396V34.655C50.1282 37.2015 48.7647 39.2063 46.4095 39.5433C49.7208 40.2563 52.0258 37.8368 52.0544 35.263Z" fill="black"/>
<path d="M140.139 43.8192V42.7228H136.286V36.5195H135.15V43.8192H140.139Z" fill="#FF029E"/>
<path d="M145.904 41.0537C145.904 40.2239 145.657 39.572 145.173 39.088C144.689 38.604 144.057 38.367 143.296 38.367C142.496 38.367 141.834 38.6337 141.331 39.1572C140.827 39.6807 140.58 40.3425 140.58 41.1426C140.58 42.5452 141.439 43.938 143.435 43.938C144.334 43.938 145.193 43.6021 145.736 43.1972L145.282 42.397C144.808 42.7428 144.077 42.97 143.474 42.97C142.447 42.97 141.864 42.407 141.706 41.5772H145.865C145.894 41.3796 145.904 41.2018 145.904 41.0537ZM143.296 39.3053C144.096 39.3053 144.719 39.8486 144.808 40.6882H141.706C141.864 39.8585 142.477 39.3053 143.296 39.3053Z" fill="#FF029E"/>
<path d="M148.524 43.9479C149.107 43.9479 149.591 43.7899 149.957 43.4737C150.322 43.1576 150.51 42.7625 150.51 42.2983C150.51 41.7155 150.203 41.271 149.601 40.9549C149.433 40.8659 149.186 40.7573 148.85 40.6191L148.307 40.3919C148.011 40.2635 147.862 40.0659 147.862 39.8091C147.862 39.4831 148.129 39.2263 148.574 39.2263C149.038 39.2263 149.423 39.4239 149.739 39.8091L150.371 39.1374C149.966 38.5941 149.384 38.3176 148.623 38.3176C148.08 38.3176 147.635 38.4657 147.299 38.7521C146.973 39.0386 146.806 39.4041 146.806 39.8486C146.806 40.4313 147.092 40.866 147.655 41.1623C147.774 41.2315 148.001 41.3304 148.327 41.4686C148.663 41.597 148.88 41.6858 148.969 41.7352C149.275 41.8834 149.423 42.0908 149.423 42.3476C149.423 42.7131 149.058 43.0095 148.544 43.0095C148.04 43.0095 147.507 42.723 147.181 42.1995L146.48 42.8317C146.924 43.5725 147.704 43.9479 148.524 43.9479Z" fill="#FF029E"/>
<path d="M154.736 42.6543C154.4 42.8519 154.084 42.9506 153.798 42.9506C153.255 42.9506 152.978 42.6148 152.978 41.9332V39.4243H154.815V38.4958H152.978V36.6091H151.901V38.4958H150.973V39.4243H151.892V41.9135C151.892 43.2272 152.484 43.9483 153.64 43.9483C154.223 43.9483 154.717 43.8001 155.112 43.5038L154.736 42.6543Z" fill="#FF029E"/>
<path d="M160.778 41.0537C160.778 40.2239 160.531 39.572 160.047 39.088C159.563 38.604 158.931 38.367 158.171 38.367C157.37 38.367 156.709 38.6337 156.205 39.1572C155.701 39.6807 155.454 40.3425 155.454 41.1426C155.454 42.5452 156.314 43.938 158.309 43.938C159.208 43.938 160.067 43.6021 160.61 43.1972L160.156 42.397C159.682 42.7428 158.951 42.97 158.348 42.97C157.321 42.97 156.738 42.407 156.58 41.5772H160.739C160.768 41.3796 160.778 41.2018 160.778 41.0537ZM158.171 39.3053C158.971 39.3053 159.593 39.8486 159.682 40.6882H156.58C156.738 39.8585 157.351 39.3053 158.171 39.3053Z" fill="#FF029E"/>
</svg>
