<svg width="192" height="52" viewBox="0 0 192 52" fill="none" xmlns="http://www.w3.org/2000/svg">
<path fill-rule="evenodd" clip-rule="evenodd" d="M35.0257 24.6149C35.1078 24.0904 35.2752 23.699 35.4893 23.5306C35.6724 23.3865 36.1314 23.3704 36.4354 23.4974C36.843 23.6678 37.4109 24.1104 38.1646 24.8453L38.9325 25.5938C40.0879 26.857 43.2062 28.7946 46.4362 26.4403C46.4464 27.4487 46.4479 29.0272 46.4416 31.2665L46.4248 37.1603L46.2609 37.6417C46.0307 38.3173 45.7121 38.8295 45.2146 39.323C44.1576 40.3719 42.6014 40.9376 40.7688 40.9394C37.9952 40.942 35.8812 39.7062 35.169 37.6658L34.9926 37.1603L34.9738 31.1133C34.9601 26.6958 34.9741 24.9446 35.0257 24.6149Z" fill="#FF029E"/>
<path d="M46.3923 25.0545C46.3559 24.8796 46.2401 24.6083 46.1348 24.4516C45.2513 23.1367 42.8233 23.4653 39.3392 25.3713L38.9325 25.5938C40.0879 26.857 43.2062 28.7946 46.4362 26.4403C46.4277 25.5997 46.4132 25.1553 46.3923 25.0545Z" fill="#FF87D0"/>
<path d="M37.6045 19.4698C37.2487 19.5843 36.8138 19.9686 36.6447 20.3179C36.485 20.6479 36.466 21.2252 36.604 21.5547C36.9179 22.3043 37.8324 22.7229 38.6418 22.4876C39.3591 22.2791 39.7709 21.7819 39.8224 21.0623C39.8484 20.6991 39.832 20.6063 39.6907 20.3174C39.418 19.76 38.9365 19.4488 38.2815 19.4067C38.0253 19.3902 37.7811 19.4129 37.6045 19.4698Z" fill="#FF029E"/>
<path d="M43.1837 16.0727C42.6399 16.2356 42.243 16.7806 42.243 17.3645C42.243 18.3224 43.1694 18.9366 44.1877 18.6538C44.4814 18.5722 44.8779 18.2155 45.0189 17.906C45.159 17.5983 45.159 17.1307 45.0189 16.823C44.8779 16.5135 44.4814 16.1568 44.1877 16.0752C43.9184 16.0004 43.429 15.9992 43.1837 16.0727Z" fill="#FF87D0"/>
<path fill-rule="evenodd" clip-rule="evenodd" d="M36.1845 10.99C34.0332 11.4618 32.2947 13.0336 31.9815 14.79C31.9163 15.1559 31.8975 16.0849 31.8959 19.0275L31.8938 22.7964L31.7397 23.3283C31.4378 24.37 31.1438 24.7374 29.9722 25.5372C29.5275 25.8407 29.155 26.117 29.1442 26.151C29.1336 26.1851 29.2477 26.2492 29.3979 26.2936C30.0529 26.4869 30.9044 27.2575 31.3044 28.0187C31.4262 28.2505 31.6009 28.6829 31.6927 28.9795L31.8594 29.5188L31.9261 38.123L32.0825 38.5843C32.5189 39.8716 33.4198 40.8792 34.6825 41.492C34.9854 41.6391 35.4769 41.8173 35.7748 41.8881C36.7207 42.1129 37.9169 41.989 38.5022 41.6054L38.6568 41.5041L38.1276 41.397C36.4099 41.0492 34.9469 39.6736 34.4109 37.9021C34.2799 37.4693 34.2767 37.3792 34.2398 33.0086C34.2058 28.9993 34.1916 28.5204 34.096 28.1983C33.8729 27.4462 33.4288 26.8022 32.8838 26.4403L32.5539 26.2213L32.7503 26.1044C33.0606 25.9198 33.5694 25.395 33.7567 25.0662C33.851 24.9008 33.9905 24.5758 34.0668 24.3442C34.2046 23.9259 34.2058 23.8942 34.2449 19.7412C34.2868 15.2808 34.2888 15.2511 34.6055 14.2701C35.0753 12.8145 35.9282 11.7436 37.1587 11.0645L37.4595 10.8984L37.0082 10.9034C36.76 10.9061 36.3894 10.9451 36.1845 10.99ZM43.8074 11.0989C43.8074 11.1189 43.9767 11.2198 44.1835 11.3232C44.7929 11.6279 45.4956 12.124 45.8949 12.5316C46.6011 13.2525 46.9446 14.0462 47.0552 15.2124C47.089 15.5687 47.1172 17.4172 47.1178 19.32C47.119 23.1579 47.1275 23.2628 47.5039 24.0554C47.7321 24.536 48.1343 25.0057 48.5338 25.2585L48.7926 25.4222L48.5113 25.612C47.9342 26.0011 47.5326 26.5535 47.2897 27.2925C47.1514 27.7131 47.1512 27.72 47.112 32.4671L47.1103 32.6701C47.0772 36.687 47.0718 37.3356 46.8986 37.9359C46.8653 38.0514 46.8257 38.1653 46.7785 38.301L46.7662 38.3365C46.4239 39.3218 45.8407 40.0804 45.0224 40.6048C44.6463 40.8458 43.8144 41.1595 43.5481 41.1608C43.4552 41.1612 43.3939 41.1855 43.412 41.2148C43.4637 41.2984 43.9176 41.3476 44.6282 41.3466C45.9146 41.3447 46.8504 40.9568 47.7499 40.0527C48.1819 39.6184 48.345 39.4025 48.548 38.9955C48.5576 38.9763 48.567 38.9574 48.5762 38.939C48.6697 38.7519 48.7445 38.6023 48.8042 38.447C49.0423 37.8279 49.0423 37.1173 49.0422 33.5751L49.0422 33.3075V29.0829L49.1865 28.5139C49.358 27.8377 49.5999 27.3359 49.9407 26.9497C50.0778 26.7943 50.553 26.4218 50.9966 26.1221C51.4402 25.8224 51.8177 25.5537 51.8354 25.5251C51.853 25.4964 51.7173 25.4156 51.5337 25.3453C50.4888 24.9454 49.6257 23.9234 49.2854 22.6828C49.0837 21.9477 49.0453 21.1977 49.0437 17.9638C49.042 14.5584 49.0394 14.5314 48.6471 13.7848C48.0363 12.6225 46.7413 11.6554 45.3116 11.2938C44.7452 11.1506 43.8074 11.0291 43.8074 11.0989ZM149.886 34.1217H151.571V31.8221L151.832 32.1747C152.494 33.068 153.544 33.7485 154.76 34.0735C155.204 34.192 155.411 34.2095 156.325 34.2057C157.266 34.2019 157.441 34.1844 157.979 34.0412C160.015 33.4989 161.467 32.1357 162.123 30.1506C162.4 29.3111 162.486 28.6151 162.446 27.5497C162.389 26.0653 161.956 24.8494 161.105 23.787C159.4 21.6566 156.069 20.9755 153.55 22.242C153.022 22.5075 152.307 23.0822 151.95 23.5285L151.661 23.8894L151.63 16.6124H149.886V34.1217ZM124.796 34.1217H135.807V32.5573H126.601V17.6353H124.796V34.1217ZM140.59 21.6936C138.202 22.0669 136.375 23.6095 135.669 25.8499C135.435 26.5914 135.366 27.2156 135.403 28.2466C135.429 28.9691 135.468 29.2737 135.591 29.7177C136.332 32.3896 138.506 34.092 141.346 34.2241C143.217 34.3111 144.825 33.7545 146.092 32.5813L146.457 32.2436V34.1217H148.142V21.6666H146.457V23.6058L146.08 23.253C144.697 21.9595 142.635 21.3739 140.59 21.6936ZM142.928 23.2889C144.444 23.6766 145.659 24.9095 146.063 26.4706C146.209 27.0324 146.266 27.8521 146.206 28.5068C146.032 30.4015 144.894 31.8914 143.178 32.4727C142.485 32.7072 141.294 32.7493 140.557 32.5653C139.711 32.3538 139.114 32.0195 138.511 31.4201C137.56 30.4744 137.129 29.3763 137.131 27.9039C137.134 26.0605 137.964 24.5314 139.417 23.6956C139.756 23.5004 140.519 23.243 140.969 23.1716C141.457 23.0943 142.384 23.1498 142.928 23.2889ZM156.83 23.1738C158.568 23.4156 159.913 24.5373 160.47 26.2094C160.787 27.1613 160.823 28.3343 160.568 29.3383C160.437 29.8498 159.991 30.7263 159.67 31.1005C158.771 32.1502 157.602 32.6782 156.18 32.6773C155.051 32.6765 154.194 32.3955 153.324 31.741C152.661 31.2429 152.183 30.547 151.877 29.6348C151.202 27.6174 151.783 25.3298 153.277 24.1258C154.264 23.3312 155.527 22.9927 156.83 23.1738Z" fill="black"/>
<path d="M39.2219 13.3059C38.5194 13.6769 38.5095 14.8771 39.2056 15.2714C39.4882 15.4314 39.9925 15.4557 40.2514 15.3218C41.0373 14.9154 41.0623 13.7658 40.2955 13.2982C40.0424 13.1438 39.5218 13.1476 39.2219 13.3059Z" fill="#FF87D0"/>
<path d="M61.9387 24.2548C62.6413 20.4419 65.7579 17.7382 69.7676 17.4632C71.9242 17.3153 73.9433 17.7805 75.4133 18.7639C75.9404 19.1166 76.6883 19.7505 76.7805 19.9228C76.8259 20.0076 76.6958 20.166 76.0741 20.7824L75.3119 21.5379L74.9594 21.2267C73.3447 19.8013 71.4473 19.3005 69.2445 19.7184C66.6387 20.2127 64.6946 22.2448 64.2957 24.8912C64.1892 25.5976 64.1832 25.9749 64.2673 26.6632C64.3932 27.6924 64.8083 28.7861 65.371 29.5709C65.7157 30.0517 66.4864 30.7957 66.9397 31.0852C68.2086 31.8955 69.657 32.2416 71.2812 32.1226C72.6383 32.0232 73.9469 31.4386 74.9843 30.4682L75.2712 30.1998L75.4392 30.3218C75.5316 30.3889 75.8907 30.7297 76.2372 31.0793L76.8673 31.7147L76.5682 32.0212C75.852 32.755 74.6297 33.5043 73.5915 33.8459C72.7192 34.1329 71.9985 34.2497 70.8838 34.2847C68.9192 34.3464 67.3061 33.9618 65.8094 33.0748C63.7352 31.8455 62.3952 29.9049 61.9417 27.4739C61.7909 26.6655 61.7894 25.0652 61.9387 24.2548Z" fill="#FF029E"/>
<path fill-rule="evenodd" clip-rule="evenodd" d="M83.5495 21.5741C82.1567 21.7919 81.0203 22.3324 80.0775 23.2256C78.8114 24.4251 78.1639 25.9931 78.1646 27.8578C78.1656 30.4628 79.4212 32.5298 81.6576 33.6084C82.5357 34.0318 83.2395 34.1923 84.3753 34.2277C85.5122 34.2633 86.0861 34.1912 86.9491 33.9048C89.5622 33.0377 91.161 30.7461 91.161 27.8677C91.161 25.0084 89.562 22.7166 86.9625 21.8502C85.9629 21.517 84.6133 21.4079 83.5495 21.5741ZM87.5873 24.7059C87.0597 24.1849 86.6356 23.9267 85.9563 23.7128C85.416 23.5426 84.2698 23.4961 83.7215 23.6221C82.4971 23.9035 81.5099 24.6645 80.9882 25.729C80.617 26.4863 80.5411 26.8543 80.5411 27.8951C80.5411 28.9153 80.6356 29.3373 81.0402 30.1214C81.3709 30.7625 82.0934 31.4634 82.7427 31.773C83.4565 32.1132 83.9107 32.2182 84.6627 32.2167C86.3559 32.2134 87.6798 31.4057 88.3629 29.9592C88.7087 29.2271 88.7844 28.8496 88.7832 27.865C88.7818 26.8488 88.7032 26.4775 88.3241 25.6989C88.1255 25.2908 87.9765 25.0901 87.5873 24.7059Z" fill="#FF029E"/>
<path fill-rule="evenodd" clip-rule="evenodd" d="M103.736 23.3833L103.289 22.9516C102.12 21.8236 100.448 21.3249 98.5684 21.5435C95.2488 21.9296 93.0869 24.4228 93.0869 27.865C93.0869 30.9788 94.8081 33.2992 97.6894 34.0698C98.4186 34.2648 99.9488 34.2968 100.74 34.1335C101.816 33.9117 102.662 33.4568 103.421 32.6927L103.857 32.2534V34.1226H106.083V16.6133H103.736V23.3833ZM102.506 24.7059C101.982 24.1845 101.56 23.9275 100.878 23.7128C100.335 23.5418 99.1922 23.4961 98.6377 23.6233C96.9956 23.9999 95.8673 25.1865 95.5196 26.9024C95.3863 27.5605 95.4277 28.604 95.6127 29.2479C96.0218 30.6717 97.1325 31.7517 98.5619 32.1157C99.0826 32.2483 100.085 32.2474 100.638 32.1138C101.759 31.8425 102.733 31.0748 103.243 30.0608C103.641 29.269 103.765 28.6295 103.721 27.6001C103.667 26.3527 103.311 25.5054 102.506 24.7059Z" fill="#FF029E"/>
<path fill-rule="evenodd" clip-rule="evenodd" d="M113.484 21.526C111.851 21.7712 110.771 22.2763 109.782 23.2568C108.467 24.5607 107.797 26.548 107.999 28.5419C108.307 31.5654 110.262 33.6282 113.325 34.1603C114.106 34.296 115.838 34.2463 116.544 34.068C117.219 33.8974 117.752 33.6815 118.312 33.3515C118.791 33.0696 119.621 32.3628 119.621 32.2375C119.621 32.1564 118.432 30.7531 118.364 30.7531C118.339 30.7531 118.253 30.8238 118.173 30.9101C118.092 30.9964 117.86 31.1865 117.656 31.3327C116.678 32.0336 115.469 32.3356 114.197 32.1967C113.022 32.0684 112.081 31.635 111.383 30.9009C110.81 30.2975 110.465 29.6369 110.323 28.8728L110.282 28.6472H120.387L120.421 28.2711C120.462 27.8204 120.374 26.7229 120.255 26.2106C119.664 23.6602 117.845 21.9619 115.289 21.5744C114.766 21.4951 113.853 21.4706 113.484 21.526ZM117.754 25.5151C117.264 24.5429 116.273 23.7917 115.173 23.5586C114.259 23.3649 113.194 23.4963 112.358 23.906C111.865 24.1477 111.157 24.7983 110.873 25.271C110.647 25.6465 110.392 26.3156 110.327 26.7067L110.284 26.9625H118.177V26.8184C118.177 26.6062 117.947 25.8984 117.754 25.5151Z" fill="#FF029E"/>
<path d="M160.386 44.5176C159.791 44.5176 159.277 44.3995 158.846 44.1634C158.417 43.9248 158.086 43.5923 157.852 43.1657C157.622 42.7368 157.507 42.238 157.507 41.6693C157.507 41.1006 157.622 40.5994 157.852 40.1656C158.086 39.7295 158.41 39.3897 158.826 39.1463C159.244 38.9005 159.732 38.7776 160.289 38.7776C160.611 38.7776 160.929 38.8258 161.242 38.9222C161.556 39.0186 161.841 39.1752 162.099 39.3921C162.356 39.6066 162.561 39.8909 162.714 40.2452C162.867 40.5994 162.943 41.0355 162.943 41.5536V41.9151H158.182V41.1777H161.978C161.978 40.8645 161.909 40.5849 161.769 40.3391C161.632 40.0933 161.437 39.8994 161.182 39.7572C160.93 39.615 160.632 39.5439 160.289 39.5439C159.911 39.5439 159.584 39.6283 159.308 39.7969C159.035 39.9632 158.824 40.1801 158.677 40.4476C158.529 40.715 158.456 41.0018 158.456 41.3078V41.7994C158.456 42.2187 158.536 42.5742 158.697 42.8657C158.86 43.1549 159.087 43.3754 159.376 43.5272C159.666 43.6766 160.002 43.7513 160.386 43.7513C160.635 43.7513 160.86 43.72 161.061 43.6573C161.265 43.5923 161.441 43.4959 161.588 43.3682C161.736 43.238 161.85 43.0766 161.93 42.8838L162.847 43.1151C162.75 43.3947 162.588 43.6405 162.36 43.8525C162.132 44.0622 161.851 44.226 161.516 44.3441C161.181 44.4598 160.804 44.5176 160.386 44.5176Z" fill="#FF029E"/>
<path d="M156.435 38.8504V39.5733H153.234V38.8504H156.435ZM154.167 37.5202H155.116V42.812C155.116 43.0529 155.155 43.2337 155.233 43.3542C155.313 43.4722 155.415 43.5518 155.538 43.5927C155.664 43.6313 155.797 43.6505 155.936 43.6505C156.041 43.6505 156.127 43.6457 156.194 43.6361C156.261 43.624 156.314 43.6144 156.354 43.6072L156.547 44.3735C156.483 44.3952 156.393 44.4168 156.278 44.4385C156.163 44.4626 156.017 44.4747 155.84 44.4747C155.572 44.4747 155.309 44.4229 155.052 44.3192C154.797 44.2156 154.585 44.0578 154.416 43.8457C154.25 43.6337 154.167 43.3662 154.167 43.0433V37.5202Z" fill="#FF029E"/>
<path d="M152.208 40.0933L151.355 40.3102C151.301 40.1825 151.222 40.0584 151.118 39.9379C151.016 39.815 150.877 39.7138 150.7 39.6343C150.523 39.5548 150.296 39.515 150.02 39.515C149.642 39.515 149.327 39.5933 149.075 39.75C148.826 39.9042 148.701 40.1006 148.701 40.3391C148.701 40.5512 148.787 40.7187 148.958 40.8416C149.13 40.9645 149.398 41.0669 149.763 41.1488L150.679 41.3512C151.232 41.4717 151.643 41.656 151.914 41.9042C152.185 42.15 152.32 42.4669 152.32 42.8549C152.32 43.173 152.218 43.4573 152.015 43.7079C151.813 43.9585 151.532 44.1561 151.17 44.3007C150.808 44.4453 150.387 44.5176 149.907 44.5176C149.277 44.5176 148.756 44.3947 148.343 44.1489C147.93 43.9031 147.669 43.5441 147.559 43.0718L148.46 42.8693C148.545 43.1682 148.708 43.3923 148.946 43.5417C149.188 43.6911 149.503 43.7658 149.891 43.7658C150.334 43.7658 150.685 43.6814 150.945 43.5127C151.208 43.3417 151.339 43.1368 151.339 42.8983C151.339 42.7055 151.264 42.544 151.114 42.4139C150.964 42.2814 150.733 42.1826 150.422 42.1175L149.393 41.9006C148.827 41.7801 148.411 41.5934 148.146 41.3404C147.883 41.0849 147.752 40.7657 147.752 40.3825C147.752 40.0692 147.85 39.7921 148.046 39.5511C148.244 39.3102 148.513 39.121 148.854 38.9837C149.197 38.8463 149.586 38.7776 150.02 38.7776C150.631 38.7776 151.111 38.8981 151.46 39.1391C151.811 39.3801 152.06 39.6981 152.208 40.0933Z" fill="#FF029E"/>
<path d="M143.831 44.5176C143.236 44.5176 142.722 44.3995 142.291 44.1634C141.862 43.9248 141.531 43.5923 141.297 43.1657C141.067 42.7368 140.952 42.238 140.952 41.6693C140.952 41.1006 141.067 40.5994 141.297 40.1656C141.531 39.7295 141.855 39.3897 142.271 39.1463C142.689 38.9005 143.177 38.7776 143.734 38.7776C144.056 38.7776 144.374 38.8258 144.687 38.9222C145.001 39.0186 145.287 39.1752 145.544 39.3921C145.801 39.6066 146.006 39.8909 146.159 40.2452C146.312 40.5994 146.388 41.0355 146.388 41.5536V41.9151H141.627V41.1777H145.423C145.423 40.8645 145.354 40.5849 145.214 40.3391C145.078 40.0933 144.882 39.8994 144.627 39.7572C144.375 39.615 144.078 39.5439 143.734 39.5439C143.356 39.5439 143.029 39.6283 142.753 39.7969C142.48 39.9632 142.269 40.1801 142.122 40.4476C141.974 40.715 141.901 41.0018 141.901 41.3078V41.7994C141.901 42.2187 141.981 42.5742 142.142 42.8657C142.305 43.1549 142.532 43.3754 142.822 43.5272C143.111 43.6766 143.448 43.7513 143.831 43.7513C144.08 43.7513 144.305 43.72 144.506 43.6573C144.71 43.5923 144.886 43.4959 145.033 43.3682C145.181 43.238 145.295 43.0766 145.375 42.8838L146.292 43.1151C146.195 43.3947 146.033 43.6405 145.805 43.8525C145.577 44.0622 145.296 44.226 144.961 44.3441C144.626 44.4598 144.249 44.5176 143.831 44.5176Z" fill="#FF029E"/>
<path d="M135 44.4027V37H135.997V43.6075H139.826V44.4027H135Z" fill="#FF029E"/>
</svg>
