<svg width="192" height="52" viewBox="0 0 192 52" fill="none" xmlns="http://www.w3.org/2000/svg">
<path fill-rule="evenodd" clip-rule="evenodd" d="M68.4911 10.106C67.8189 10.1602 66.6656 10.2464 65.9284 10.2975C65.1911 10.3488 64.4776 10.4048 64.3429 10.4222C64.2081 10.4396 63.5339 10.4902 62.8446 10.5346C61.0518 10.6502 60.5192 10.6893 59.5412 10.7765C58.2339 10.8932 57.8052 10.925 56.8997 10.9723C56.4443 10.9961 55.7169 11.0489 55.2832 11.0897C54.8495 11.1305 53.8914 11.2018 53.1541 11.2483C51.5554 11.349 51.468 11.3623 51.0238 11.5711C50.6058 11.7675 50.3395 12.0229 50.1454 12.4132C50.0063 12.6929 50 13.1635 50 23.3113V33.9171L50.2638 34.4531C50.4089 34.7479 50.6558 35.156 50.8127 35.3599C51.627 36.4188 52.7092 37.8414 52.8942 38.0963C52.9258 38.1397 53.0531 38.2993 53.1773 38.4511C53.3015 38.6029 53.8233 39.2771 54.3369 39.9493C55.4196 41.3664 55.6051 41.5548 56.1839 41.8244C56.6101 42.0229 56.6166 42.0234 58.1552 41.9696C59.0043 41.94 59.7877 41.9036 59.8961 41.8887C60.0744 41.8642 60.8062 41.8189 62.6165 41.7201C63.9729 41.6463 64.7109 41.601 65.8101 41.5244C66.4389 41.4806 67.876 41.3908 69.0036 41.3248C70.1312 41.2589 71.5683 41.1724 72.1972 41.1327C72.826 41.0929 73.7309 41.0409 74.2079 41.0172C76.4098 40.9079 78.8104 40.7277 79.0968 40.6503C79.4819 40.5461 79.9044 40.2948 80.1408 40.0293C80.5711 39.546 80.5556 40.01 80.5556 27.5468V16.0404L80.0999 15.5952C79.8492 15.3504 79.3081 14.9215 78.8973 14.6422C78.4867 14.3629 77.5474 13.7045 76.8101 13.1791C76.0728 12.6537 75.168 12.0161 74.7993 11.7623C74.4307 11.5084 73.863 11.1155 73.5377 10.8894C72.8126 10.3851 72.5088 10.2276 72.0001 10.092C71.5214 9.96453 70.1817 9.96981 68.4911 10.106ZM71.9102 12.0248C72.5 12.232 76.1398 14.8166 76.1398 15.028C76.1398 15.1524 76.3077 15.14 68.0968 15.6227C66.2536 15.7311 63.9294 15.8727 62.9319 15.9373C59.8882 16.1346 57.9221 16.2396 57.1362 16.2469C56.4695 16.2532 56.3394 16.2301 55.9534 16.0376C55.2929 15.7083 52.7599 13.6381 52.7599 13.4278C52.7599 13.1664 53.1118 13.0965 55.1649 12.9498C56.1841 12.8769 57.9405 12.7489 59.0681 12.6654C60.1957 12.5819 62.3957 12.4212 63.957 12.3084C65.5183 12.1955 67.5941 12.0366 68.5699 11.9551C70.6123 11.7845 71.2655 11.7982 71.9102 12.0248ZM78.0584 17.4797C78.1712 17.5685 78.2999 17.7725 78.3446 17.9331C78.4612 18.3531 78.4563 37.117 78.3395 37.5443C78.2402 37.9074 78.0854 38.1042 77.7716 38.2665C77.6041 38.353 76.2425 38.4564 72.2122 38.6886C64.7919 39.1159 64.2892 39.1454 61.3549 39.3247C57.7434 39.5455 57.1622 39.5499 56.8418 39.359C56.3161 39.0458 56.3475 39.7126 56.3489 28.9374C56.3497 21.3356 56.3717 19.1288 56.4476 18.9787C56.6663 18.5467 56.8109 18.5195 59.8194 18.3448C65.4514 18.0179 69.2709 17.7947 70.5413 17.7185C71.2569 17.6756 72.552 17.5992 73.4194 17.5489C74.2868 17.4985 75.3691 17.4314 75.8244 17.3998C77.4383 17.2877 77.8322 17.3018 78.0584 17.4797ZM120.4 19.3606C120.068 19.601 119.823 20.0693 119.827 20.4545C119.833 21.0996 120.486 21.7304 121.148 21.733C122.202 21.737 122.832 20.5806 122.254 19.7061C121.85 19.0968 120.987 18.9357 120.4 19.3606ZM91.9105 26.4654V32.6948H93.0144H94.1184V28.4715C94.1184 25.9824 94.1476 24.2663 94.1895 24.2922C94.2286 24.3164 95.6177 26.2178 97.2763 28.5177L100.292 32.6994L101.286 32.6774L102.28 32.6554V26.4654V20.2755L101.157 20.2536L100.034 20.2317L100.013 24.4417L99.9929 28.6517L98.5736 26.6781C97.7929 25.5925 96.8349 24.2677 96.4446 23.734C96.0542 23.2003 95.3274 22.1949 94.8295 21.4998L93.9242 20.236H92.9173H91.9105V26.4654ZM72.5914 20.8348C70.6357 20.9661 70.6032 20.9727 70.3146 21.3013C70.0971 21.5491 69.9129 22.0784 70.0103 22.1758C70.0323 22.1978 70.4003 22.2597 70.8281 22.3135L71.6058 22.4111L71.6268 24.5171C71.6383 25.6754 71.6383 27.568 71.6268 28.7228L71.6058 30.8225L71.3332 30.3984C71.1833 30.1652 70.69 29.4067 70.237 28.7128C68.7757 26.4744 68.4078 25.9104 66.9975 23.745C66.2349 22.574 65.5517 21.5317 65.4794 21.4288L65.348 21.2417L63.2726 21.3726C60.68 21.5362 60.3285 21.5893 60.0457 21.8602C59.7675 22.1267 59.6415 22.4349 59.6736 22.7697C59.6925 22.9676 59.7392 23.0393 59.8567 23.0509C59.9434 23.0594 60.2894 23.0891 60.6255 23.1168L61.2366 23.1671V29.2568V35.3464L60.6032 35.5295C59.8675 35.742 59.6595 35.9371 59.6595 36.4144V36.722L60.3495 36.6748C60.729 36.6489 61.8378 36.5823 62.8136 36.5269C64.8965 36.4087 65.139 36.3349 65.4331 35.7296C65.5267 35.5369 65.5817 35.3578 65.5555 35.3315C65.5292 35.3052 65.1055 35.1944 64.614 35.0852C64.1226 34.9761 63.6936 34.8616 63.6607 34.831C63.6278 34.8004 63.6101 32.738 63.6213 30.2482L63.6416 25.7211L64.4644 27.0198C64.9168 27.7341 65.4348 28.5491 65.6153 28.831C65.7958 29.1129 66.6281 30.4258 67.4649 31.7486C69.7148 35.3052 69.8111 35.4481 70.2557 35.8891C70.6785 36.3086 71.0866 36.4798 71.6636 36.4798C72.0455 36.4798 72.7925 36.272 73.3598 36.008L73.8522 35.7788L73.8723 28.9369L73.8925 22.095L74.4445 21.9864C74.7614 21.9241 75.0688 21.8109 75.1664 21.7205C75.352 21.5485 75.467 21.1072 75.3896 20.8634C75.3307 20.6778 74.9845 20.6743 72.5914 20.8348ZM114.636 22.1286L114.66 23.3115L113.93 23.3114L113.201 23.3113V24.1787V25.0461H113.903H114.606L114.634 28.0228L114.663 30.9995L114.87 31.4377C115.304 32.3562 116.12 32.7299 117.695 32.732C118.194 32.7326 118.664 32.7079 118.74 32.677C118.86 32.6284 118.878 32.5056 118.878 31.751V30.8812L118.228 30.88C117.477 30.8787 117.255 30.791 117.03 30.4079C116.877 30.148 116.866 29.9858 116.84 27.5891L116.813 25.0461H117.846H118.878V24.1787V23.3113H117.978C117.483 23.3113 117.021 23.2898 116.953 23.2634C116.847 23.2228 116.828 23.0428 116.828 22.0806V20.9457H115.72H114.612L114.636 22.1286ZM107.563 23.0471C105.623 23.3576 104.394 24.4348 103.892 26.2664C103.755 26.7641 103.721 27.106 103.721 27.9636C103.721 29.6766 104.109 30.7824 105.027 31.6893C105.545 32.2001 106.376 32.6452 107.058 32.7764C107.545 32.87 108.926 32.8648 109.447 32.7674C109.764 32.7083 110.491 32.3965 110.982 32.1101C111.084 32.0503 111.342 31.8195 111.554 31.5973C112.608 30.4914 113.05 28.4589 112.649 26.5583C112.277 24.7963 111.198 23.6139 109.578 23.1942C109.064 23.0609 107.974 22.9813 107.563 23.0471ZM127.355 23.0471C125.101 23.4078 123.79 24.8191 123.532 27.1628C123.429 28.1015 123.528 29.2784 123.769 29.9799C124.262 31.4122 125.307 32.3764 126.764 32.7429C127.52 32.933 129.148 32.8622 129.799 32.6109C131.23 32.0588 132.115 30.9689 132.45 29.3444C132.976 26.794 132.094 24.44 130.267 23.5236C129.523 23.1502 128.132 22.9227 127.355 23.0471ZM137.925 23.1225C137.126 23.3158 136.546 23.745 136.097 24.475L135.915 24.7701L135.913 24.0013L135.911 23.2325H134.846H133.782V27.9636V32.6948H134.885H135.989V29.7522C135.989 26.5257 136.014 26.308 136.455 25.7002C137.061 24.8627 138.558 24.7228 139.303 25.4338C139.826 25.9323 139.853 26.1396 139.853 29.6339V32.6948H140.957H142.061V29.3187C142.061 25.647 142.028 25.2627 141.653 24.573C141.199 23.7371 140.622 23.3204 139.627 23.1094C138.98 22.9724 138.532 22.9758 137.925 23.1225ZM120.061 27.9636V32.6948H121.165H122.269V27.9636V23.2325H121.165H120.061V27.9636ZM108.94 25.0131C109.522 25.1861 110.048 25.7309 110.281 26.403C110.543 27.1615 110.584 28.3056 110.378 29.1211C110.103 30.208 109.65 30.7119 108.747 30.9347C108.276 31.0511 108.191 31.0511 107.722 30.9355C107.441 30.8662 107.102 30.7286 106.968 30.6299C106.636 30.384 106.282 29.8279 106.125 29.3057C105.945 28.7066 105.947 27.216 106.128 26.6128C106.529 25.2743 107.657 24.6323 108.94 25.0131ZM128.992 25.1252C129.641 25.4606 129.93 25.866 130.159 26.76C130.541 28.2552 130.145 30.0335 129.295 30.639C128.906 30.9158 128.179 31.0607 127.66 30.9647C126.545 30.7587 126 30.0656 125.806 28.6052C125.702 27.8277 125.795 26.8627 126.025 26.308C126.31 25.6227 126.854 25.125 127.499 24.9594C127.903 24.8559 128.627 24.9364 128.992 25.1252Z" fill="black"/>
</svg>
