<svg width="192" height="52" viewBox="0 0 192 52" fill="none" xmlns="http://www.w3.org/2000/svg">
<path d="M146.021 20.8448C146.196 20.6817 146.58 20.4953 146.883 20.4138C147.279 20.3089 150.54 20.274 159.204 20.274C165.69 20.2623 171 20.2973 171 20.3439C171 20.4021 170.15 22.9768 167.192 31.7379L165.364 31.7728C164.362 31.7845 163.547 31.7612 163.547 31.7146C163.547 31.6563 164.223 29.6059 165.061 27.136C165.9 24.6661 166.575 22.639 166.575 22.6273C166.575 22.604 162.581 22.604 148.84 22.6506L148.059 24.6894H155.163C160.764 24.6894 162.266 24.7244 162.266 24.8409C162.266 24.9108 161.835 26.2855 161.3 27.8816C160.496 30.3282 160.287 30.8524 159.961 31.1786C159.763 31.3884 159.39 31.6097 159.145 31.6796C158.878 31.7495 155.547 31.7961 150.412 31.7961C143.855 31.7961 142.12 31.7612 142.12 31.6563C142.12 31.5748 142.283 31.0155 142.877 29.3496H157.317L157.632 28.3942C157.806 27.8583 157.958 27.3574 157.958 27.2874C157.958 27.1709 156.467 27.1476 150.796 27.1709C146.86 27.1826 143.634 27.1709 143.634 27.136C143.634 27.101 144.019 25.9011 144.496 24.4564C144.962 23.0118 145.428 21.6837 145.532 21.4856C145.626 21.2875 145.847 21.0079 146.021 20.8448Z" fill="#B29600"/>
<path d="M70.9108 13.4469C71.3649 13.0042 71.854 12.3868 72.0054 12.0839C72.1568 11.7809 72.3315 11.5712 72.3897 11.5945C72.4595 11.6295 72.5061 11.7227 72.4945 11.7926C72.4945 11.8741 72.2965 12.3285 72.052 12.8062C71.7725 13.377 71.3416 13.9712 70.7943 14.5421C70.3518 15.0081 69.5134 15.7071 68.9311 16.0916C68.3605 16.476 67.4638 16.9886 66.9514 17.2333C66.4391 17.4779 65.4492 17.8624 64.7389 18.0838C64.0402 18.3051 62.9572 18.5964 62.3516 18.7362C61.7461 18.8643 60.4069 19.074 59.3822 19.2138C58.3574 19.3536 57.0997 19.5517 56.5873 19.6798C56.075 19.7963 55.3646 20.0061 55.0153 20.1459C54.6659 20.2857 53.9323 20.6701 53.385 20.9963C52.7561 21.3691 52.0341 21.9517 51.4053 22.5924C50.858 23.14 50.2408 23.874 50.0428 24.2235C49.8332 24.573 49.4839 25.2836 49.2626 25.7963C49.0414 26.3089 48.7735 27.1477 48.6687 27.6603C48.5523 28.1962 48.4707 29.1399 48.4707 29.8739C48.4591 30.6777 48.529 31.4583 48.6571 31.9709C48.7619 32.4136 48.9598 33.0777 49.0879 33.4272C49.216 33.7767 49.5072 34.4058 49.7401 34.8252C49.9613 35.2446 50.3805 35.8738 50.6484 36.2233C50.9279 36.5728 51.4286 37.132 51.7779 37.4582C52.1156 37.7961 52.7095 38.2737 53.0938 38.53C53.4781 38.7863 54.1419 39.1591 54.5844 39.3572C55.0153 39.5553 55.7489 39.8232 56.2147 39.9514C56.6689 40.0795 57.6005 40.2426 58.2759 40.3009C59.1027 40.3824 59.9877 40.3824 61.0125 40.3009C61.8509 40.231 63.0736 40.0446 63.7491 39.8815C64.4245 39.7184 65.4958 39.3805 66.1363 39.1358C66.7768 38.8795 67.72 38.4252 68.2324 38.1339C68.7448 37.831 69.3736 37.4232 69.6298 37.2368C69.886 37.0388 70.2819 36.6893 70.5148 36.4679C70.7477 36.2349 70.969 36.0951 71.0039 36.165C71.0505 36.2349 70.8292 36.5611 70.5265 36.9106C70.2237 37.2601 69.5599 37.8543 69.0475 38.2388C68.5352 38.6232 67.6152 39.1824 67.0097 39.4854C66.4041 39.7883 65.4842 40.1727 64.9718 40.3358C64.4594 40.4989 63.7258 40.7203 63.3415 40.8135C62.9572 40.9067 62.0372 41.0814 61.3036 41.1979C60.57 41.3144 59.6034 41.4076 59.1493 41.4076C58.7067 41.4076 57.8101 41.3144 57.1696 41.1979C56.5291 41.0814 55.6092 40.8601 55.1317 40.697C54.6543 40.5339 53.8624 40.196 53.385 39.9281C52.9075 39.6718 52.1506 39.1708 51.6964 38.8096C51.2539 38.4368 50.6484 37.8543 50.3572 37.5048C50.0661 37.1553 49.6236 36.5262 48.9249 35.3495L48.5872 35.7573C48.4009 35.9786 48.0515 36.5611 47.807 37.0388C47.5741 37.5164 47.248 38.3436 47.085 38.8795C46.9336 39.4038 46.7706 39.8349 46.724 39.8349C46.6658 39.8349 46.5959 39.6951 46.561 39.5203C46.526 39.3339 46.363 38.798 46.2 38.3203C46.0369 37.8427 45.7575 37.1553 45.5711 36.8058C45.3848 36.4563 45.0937 35.9903 44.5929 35.3844L43.9525 36.3514C43.6031 36.8873 42.9743 37.6796 42.5551 38.099C42.1358 38.5184 41.4837 39.0776 41.0994 39.3339C40.7151 39.5902 40.1212 39.9397 39.7952 40.1145C39.4575 40.2776 38.7704 40.5455 38.2813 40.7086C37.7806 40.8717 36.8723 41.0931 36.2667 41.2096C35.6612 41.3144 34.7995 41.4076 34.3453 41.4076C33.9028 41.4076 33.0643 41.3377 32.4821 41.2562C31.9115 41.163 30.9915 40.9999 30.4442 40.8717C29.8969 40.7436 29.0352 40.5106 28.5228 40.3358C28.0104 40.1727 27.0904 39.7883 26.4849 39.4854C25.8793 39.1824 24.9594 38.6232 24.447 38.2388C23.9346 37.8543 23.2709 37.2601 22.9681 36.9106C22.6653 36.5611 22.4441 36.2349 22.4906 36.165C22.5256 36.0951 22.7701 36.2699 23.038 36.5262C23.2941 36.7941 23.888 37.2601 24.3306 37.5631C24.7847 37.866 25.4601 38.2737 25.8444 38.4718C26.2287 38.6582 27.0206 38.996 27.5912 39.2174C28.1734 39.4388 29.1633 39.7533 29.8037 39.9048C30.4442 40.0562 31.6204 40.231 32.4239 40.2892C33.3788 40.3708 34.322 40.3708 35.1605 40.3009C35.8708 40.2426 36.8257 40.0795 37.2915 39.9514C37.7457 39.8232 38.456 39.5669 38.8636 39.3921C39.2595 39.2174 40.0048 38.7747 40.5055 38.4368C41.0063 38.0873 41.7748 37.4232 42.1941 36.9689C42.6133 36.5145 43.2072 35.7223 43.5216 35.2213C43.8244 34.7087 44.2552 33.7767 44.4765 33.1359C44.721 32.4136 44.919 31.5748 44.9889 30.9224C45.0471 30.3282 45.0587 29.4661 45.0005 28.9418C44.9423 28.4292 44.8491 27.7768 44.7793 27.4855C44.721 27.1943 44.558 26.67 44.4416 26.3205C44.3135 25.971 44.0573 25.3652 43.871 24.9807C43.673 24.5963 43.2771 23.9672 42.9859 23.5827C42.7064 23.1982 42.1824 22.6157 41.8331 22.3012C41.4954 21.975 40.8665 21.4973 40.459 21.2177C40.0397 20.9497 39.3643 20.5536 38.9451 20.3556C38.5259 20.1575 37.6874 19.8779 37.0819 19.7264C36.4763 19.575 35.1372 19.342 34.1124 19.2138C33.0876 19.0857 31.6786 18.841 30.9682 18.6896C30.2695 18.5265 29.1865 18.2352 28.581 18.0372C27.9755 17.8391 27.0089 17.4546 26.4267 17.175C25.8561 16.8954 25.0409 16.4411 24.6217 16.1731C24.2025 15.8935 23.4106 15.2294 22.8633 14.6819C22.1064 13.9246 21.757 13.4702 21.4309 12.8062C21.198 12.3285 21.0117 11.8625 21.0117 11.7926C21.0117 11.711 21.0467 11.6411 21.1049 11.6411C21.1515 11.6411 21.396 11.9673 21.6522 12.3518C21.9084 12.7479 22.4324 13.3537 22.8167 13.7032C23.201 14.0528 23.9346 14.6236 24.447 14.9615C24.9594 15.2993 25.8793 15.8469 26.4849 16.1731C27.0904 16.4993 27.9871 16.8954 28.4646 17.0585C28.942 17.2216 29.7339 17.4546 30.2113 17.5828C30.6888 17.6993 31.632 17.909 32.3074 18.0372C32.9828 18.1653 34.3453 18.3867 35.3351 18.5265C36.325 18.6546 37.4778 18.876 37.897 19.0041C38.3163 19.1323 39.0732 19.4468 39.5856 19.7031C40.098 19.9595 40.9015 20.4488 41.3789 20.775C41.8447 21.1012 42.6133 21.7652 43.0674 22.2429C43.5216 22.7322 44.1155 23.5128 44.3833 23.9905C44.6512 24.4681 45.0005 25.2603 45.1636 25.738C45.3149 26.2157 45.5362 27.0312 45.641 27.5438C45.7575 28.0797 45.839 29.07 45.8506 29.8739C45.8623 30.6544 45.7924 31.5748 45.7109 31.9709C45.6294 32.3554 45.4314 33.0777 45.0005 34.4757L45.5245 35.3262C45.8157 35.7806 46.1883 36.6194 46.3746 37.1786C46.5493 37.7495 46.7123 38.2038 46.7473 38.2038C46.7822 38.2038 46.9452 37.7495 47.1199 37.1786C47.3062 36.6194 47.6789 35.7689 48.5057 34.4175L48.2146 33.5437C48.0632 33.066 47.8652 32.3787 47.772 32.0292C47.6905 31.6564 47.6323 30.7826 47.6323 29.9321C47.6439 28.9651 47.7255 28.103 47.8885 27.369C48.0166 26.7632 48.2728 25.8429 48.4707 25.3302C48.6687 24.8176 49.0879 24.0021 49.4024 23.5244C49.7168 23.0468 50.334 22.3012 50.7765 21.8818C51.219 21.4623 51.9177 20.8915 52.3369 20.6119C52.7561 20.3323 53.4898 19.9012 53.9672 19.6682C54.4447 19.4352 55.1783 19.1323 55.5975 19.0041C56.0167 18.876 57.1696 18.6546 58.1594 18.5265C59.1493 18.3867 60.5117 18.1653 61.1871 18.0372C61.8626 17.909 62.8058 17.6993 63.2832 17.5828C63.7607 17.4546 64.5526 17.2216 65.03 17.0585C65.5075 16.8954 66.4041 16.4877 67.0097 16.1615C67.6152 15.8352 68.5585 15.276 69.1058 14.9265C69.6531 14.5654 70.4682 13.9013 70.9108 13.4469Z" fill="#650202"/>
<path fill-rule="evenodd" clip-rule="evenodd" d="M80.8673 20.3789H97.4033L97.7294 20.6585C97.9856 20.8915 98.0438 21.0313 98.0321 21.4507C98.0205 21.7186 97.7643 22.6856 97.4732 23.5827C97.1704 24.4798 96.7745 25.47 96.6115 25.7962C96.4251 26.1341 96.0874 26.5186 95.2839 27.0778L81.7989 27.136L80.2851 31.7961H76.908L79.237 24.806L93.5954 24.7477L93.9331 23.7574C94.1078 23.2099 94.2591 22.7322 94.2591 22.674C94.2591 22.6274 91.0568 22.5924 80.0522 22.5924L80.3317 21.8002C80.4831 21.3691 80.6694 20.8798 80.7392 20.7051L80.8673 20.3789ZM99.5227 20.3789H116.618L115.826 22.5225L107.371 22.5575C101.793 22.5808 98.9172 22.5458 98.9172 22.4759C98.9172 22.406 99.0569 21.905 99.2199 21.3691L99.5227 20.3789ZM129.02 20.3789C137.474 20.3789 139.675 20.4022 139.675 20.5187C139.663 20.6002 139.512 21.0546 139.011 22.4177L127.983 22.5342L124.932 31.7379L123.279 31.7612C122.231 31.7845 121.625 31.7495 121.625 31.6796C121.625 31.6097 122.312 29.5476 123.139 27.1011C123.977 24.6545 124.653 22.6274 124.653 22.6157C124.653 22.6041 123.081 22.5808 121.159 22.5808C119.238 22.5808 117.677 22.5458 117.689 22.4876C117.712 22.441 117.84 22.0099 117.992 21.5322C118.132 21.0546 118.271 20.6002 118.306 20.5187C118.353 20.4022 120.6 20.3672 129.02 20.3672V20.3789ZM98.1253 24.806H104.984C108.757 24.806 111.843 24.8526 111.843 24.8992C111.843 24.9458 111.668 25.4584 111.063 27.0778L100.722 27.1477L99.9652 29.3496L114.137 29.4078L113.415 31.7495L104.588 31.7728C99.744 31.7845 95.773 31.7612 95.773 31.7146C95.773 31.668 96.2272 30.3166 96.7861 28.7088C97.3334 27.1127 97.8575 25.5749 97.9506 25.3069L98.1253 24.806ZM103.901 33.7883C103.925 33.7767 104.029 33.8116 104.134 33.8466C104.251 33.8815 104.32 34.0214 104.309 34.1379C104.297 34.2544 104.181 34.3825 104.053 34.4175C103.925 34.4524 103.762 34.4524 103.703 34.4175C103.633 34.3825 103.575 34.2544 103.564 34.1379C103.552 34.0097 103.61 33.8815 103.703 33.8582C103.796 33.8233 103.89 33.7883 103.901 33.7883ZM113.357 33.8C113.462 33.8233 113.555 33.9398 113.578 34.068C113.602 34.1961 113.567 34.3476 113.52 34.3942C113.462 34.4524 113.31 34.4641 113.159 34.4291C113.019 34.3942 112.891 34.2893 112.88 34.2078C112.868 34.1262 112.926 33.9864 113.019 33.9165C113.112 33.8349 113.264 33.7883 113.357 33.8ZM116.163 33.7767V35.3495C116.163 36.6427 116.129 36.9339 115.989 36.9805C115.896 37.0155 115.744 36.9922 115.663 36.9339C115.581 36.864 115.453 36.864 115.348 36.9223C115.255 36.9922 115.022 37.0388 114.848 37.0388C114.638 37.0388 114.452 36.9339 114.289 36.7242C114.137 36.5029 114.056 36.2233 114.056 35.8738C114.056 35.5009 114.137 35.2563 114.324 35.0116C114.568 34.7087 114.638 34.6854 115.581 34.8252V34.301C115.581 33.8233 115.605 33.7767 116.163 33.7767ZM114.638 35.8971C114.638 36.0485 114.72 36.2699 114.801 36.398C114.964 36.6194 114.976 36.6194 115.278 36.433C115.48 36.2932 115.581 36.1184 115.581 35.9087C115.581 35.7223 115.488 35.4893 115.383 35.3844C115.267 35.2679 115.104 35.1747 115.034 35.1747C114.952 35.1747 114.824 35.2796 114.754 35.3961C114.685 35.5242 114.626 35.7456 114.638 35.8971ZM121.054 33.7767V35.3495C121.054 36.666 121.019 36.9339 120.868 37.0155C120.763 37.0621 120.647 37.0388 120.6 36.9572C120.542 36.8407 120.449 36.8407 120.158 36.9572C119.867 37.0621 119.727 37.0621 119.494 36.9572C119.319 36.8757 119.133 36.666 119.063 36.4912C118.993 36.3048 118.97 35.932 119.005 35.6407C119.051 35.3145 119.18 35.0466 119.343 34.9068C119.482 34.7903 119.727 34.6971 119.89 34.6971C120.053 34.7087 120.239 34.767 120.321 34.8485C120.449 34.9767 120.472 34.8835 120.472 34.3942C120.472 33.8116 120.484 33.7767 121.054 33.7767ZM119.529 35.8854C119.529 36.0718 119.622 36.3048 119.715 36.398C119.808 36.4912 119.925 36.5728 119.971 36.5728C120.018 36.5844 120.158 36.4912 120.263 36.3747C120.367 36.2582 120.461 35.9903 120.461 35.7922C120.472 35.5242 120.402 35.3728 120.239 35.2912C120.111 35.2213 119.983 35.1747 119.948 35.1747C119.925 35.1747 119.82 35.2563 119.715 35.3611C119.61 35.4543 119.529 35.699 119.529 35.8854ZM127.11 33.7767V35.3495C127.11 36.666 127.075 36.9339 126.924 37.0155C126.819 37.0621 126.702 37.0388 126.656 36.9572C126.597 36.8407 126.504 36.8407 126.213 36.9572C125.922 37.0621 125.782 37.0621 125.549 36.9572C125.375 36.8757 125.188 36.666 125.119 36.4912C125.049 36.3048 125.025 35.932 125.06 35.6407C125.107 35.3145 125.235 35.0466 125.398 34.9068C125.538 34.7903 125.782 34.6971 125.945 34.6971C126.108 34.7087 126.295 34.767 126.376 34.8485C126.504 34.9767 126.528 34.8835 126.528 34.3942C126.528 33.8116 126.539 33.7767 127.11 33.7767ZM125.584 35.9204C125.584 36.0835 125.677 36.3048 125.771 36.398C125.864 36.4912 125.98 36.5728 126.027 36.5728C126.073 36.5844 126.213 36.4912 126.318 36.3747C126.423 36.2582 126.516 36.0252 126.516 35.8504C126.528 35.664 126.446 35.4427 126.353 35.3495C126.26 35.2563 126.097 35.1747 126.004 35.1747C125.91 35.1747 125.771 35.2796 125.701 35.3961C125.631 35.5242 125.573 35.7572 125.584 35.9204ZM134.004 33.7767C134.12 33.7767 134.318 33.8466 134.458 33.9282C134.656 34.0447 134.714 34.0447 134.749 33.9282C134.772 33.8466 134.877 33.7767 134.97 33.7767C135.063 33.7767 135.145 33.8699 135.145 33.9864C135.145 34.0913 135.063 34.266 134.959 34.3592C134.796 34.5107 134.714 34.5107 134.341 34.3709C134.039 34.2544 133.911 34.2427 133.887 34.3476C133.876 34.4175 133.782 34.4757 133.689 34.4757C133.596 34.4757 133.503 34.3825 133.491 34.266C133.48 34.1495 133.538 33.9981 133.631 33.9165C133.713 33.8349 133.887 33.7767 134.004 33.7767ZM146.778 33.7767H147.372V35.4077C147.372 37.0271 147.372 37.0388 147.104 37.0155C146.848 36.9805 146.848 36.9456 146.813 35.3844L146.778 33.7767ZM100.268 33.9748C100.384 34.0097 100.431 34.3359 100.431 35.1864C100.431 36.2116 100.408 36.3631 100.175 36.6427C99.9769 36.864 99.7673 36.9572 99.3364 37.0038C98.7891 37.0737 98.7192 37.0504 98.3699 36.7009C97.9972 36.3398 97.9972 36.3281 97.9972 34.0097H98.2883C98.5678 34.0097 98.5795 34.0097 98.5795 35.0582C98.5795 35.9437 98.6028 36.1301 98.8124 36.3398C98.9405 36.4563 99.1151 36.5728 99.2199 36.5728C99.3131 36.5728 99.4994 36.4563 99.6275 36.3398C99.8255 36.1301 99.8488 35.967 99.8371 35.0582C99.8138 34.2777 99.8488 34.0097 99.9652 33.9748C100.047 33.9398 100.186 33.9515 100.268 33.9748ZM132.082 33.8932C132.222 33.8932 132.455 33.9398 132.583 34.0097C132.711 34.068 132.816 34.2311 132.816 34.3592C132.816 34.4757 132.781 34.5922 132.758 34.5922C132.723 34.5922 132.56 34.534 132.408 34.4757C132.245 34.4058 132.036 34.3825 131.943 34.4175C131.838 34.4408 131.768 34.5806 131.768 34.7087C131.768 34.8641 131.923 35.0194 132.234 35.1747C132.49 35.2912 132.769 35.5242 132.874 35.664C132.967 35.8038 133.049 36.0136 133.049 36.1301C133.049 36.2466 132.886 36.4912 132.699 36.6893C132.455 36.9456 132.257 37.0388 131.943 37.0388C131.721 37.0388 131.43 36.9805 131.302 36.9223C131.174 36.8524 131.069 36.6893 131.069 36.5728C131.069 36.398 131.116 36.3514 131.267 36.398C131.384 36.433 131.605 36.4912 131.768 36.5262C131.954 36.5728 132.106 36.5262 132.199 36.398C132.28 36.3048 132.315 36.1417 132.292 36.0485C132.257 35.9437 132.024 35.7572 131.768 35.6407C131.512 35.5126 131.232 35.2679 131.151 35.1048C131.034 34.8602 131.034 34.7437 131.162 34.499C131.255 34.3243 131.43 34.1146 131.57 34.033C131.71 33.9515 131.943 33.8932 132.082 33.8932ZM139.442 34.0097H140.234C140.886 34.0097 141.061 34.0563 141.282 34.266C141.445 34.4291 141.55 34.6621 141.55 34.8835C141.55 35.0699 141.468 35.3495 141.375 35.4893C141.259 35.6524 140.991 35.7922 140.676 35.8738C140.152 35.9786 140.141 35.9903 140.117 36.4796C140.094 36.9223 140.059 36.9805 139.512 36.9805L139.442 34.0097ZM140.467 35.3728C140.746 35.3495 140.781 35.2912 140.781 34.9417C140.781 34.5806 140.746 34.5223 140.467 34.4874C140.176 34.4524 140.164 34.4874 140.152 34.9301C140.141 35.3728 140.164 35.3961 140.467 35.3728ZM101.304 34.7087C101.398 34.7087 101.502 34.7553 101.537 34.8252C101.572 34.8951 101.712 34.8835 101.922 34.8019C102.096 34.732 102.387 34.6971 102.562 34.7437C102.818 34.8019 102.9 34.9184 103.005 35.3145C103.074 35.5825 103.109 36.0718 103.086 36.398C103.051 36.9223 103.028 36.9805 102.76 36.9805C102.481 36.9805 102.469 36.9456 102.434 36.165C102.411 35.6873 102.341 35.3145 102.259 35.2679C102.178 35.2213 102.026 35.233 101.922 35.2912C101.759 35.3728 101.712 35.5825 101.689 36.1883C101.654 36.9456 101.642 36.9805 101.363 36.9805C101.083 36.9805 101.072 36.9572 101.037 35.9903C101.025 35.4543 101.037 34.9417 101.071 34.8602C101.095 34.7786 101.211 34.7087 101.304 34.7087ZM103.959 34.7204C104.204 34.7553 104.216 34.8136 104.216 35.8738C104.216 36.9689 104.216 36.9805 103.925 36.9805C103.645 36.9805 103.633 36.9572 103.598 35.9903C103.587 35.4543 103.598 34.9417 103.633 34.8485C103.68 34.7553 103.82 34.7087 103.959 34.7204ZM104.891 34.7204C105.066 34.7553 105.194 34.9534 105.392 35.5242C105.625 36.2233 105.648 36.2582 105.764 35.9903C105.823 35.8272 105.951 35.466 106.032 35.198C106.16 34.8019 106.254 34.6971 106.463 34.6971C106.603 34.6971 106.719 34.7437 106.719 34.7903C106.719 34.8369 106.58 35.2912 106.417 35.8155C106.242 36.3281 106.044 36.8058 105.974 36.899C105.904 36.9805 105.718 37.0388 105.555 37.0155C105.299 36.9805 105.217 36.8407 104.903 35.932C104.705 35.3495 104.565 34.8369 104.588 34.7786C104.623 34.732 104.763 34.7087 104.891 34.7204ZM107.942 34.7087C108.222 34.7087 108.443 34.7903 108.641 35C108.827 35.1747 108.932 35.4194 108.932 35.9903H108.233C107.756 35.9903 107.535 36.0252 107.535 36.1301C107.523 36.2116 107.616 36.3514 107.721 36.4563C107.861 36.5844 108.024 36.6077 108.361 36.5378C108.769 36.4563 108.815 36.4796 108.815 36.6893C108.815 36.8291 108.722 36.9339 108.559 36.9689C108.408 37.0038 108.14 37.0271 107.942 37.0388C107.756 37.0388 107.453 36.9339 107.278 36.8058C106.987 36.5961 106.952 36.4912 106.964 35.9204C106.964 35.3961 107.022 35.2213 107.243 34.9883C107.441 34.7903 107.651 34.7087 107.942 34.7087ZM107.511 35.4776C107.535 35.5708 107.686 35.6407 107.942 35.6407C108.268 35.6407 108.35 35.5941 108.326 35.431C108.303 35.3145 108.175 35.2097 108 35.198C107.837 35.1747 107.651 35.198 107.604 35.2446C107.546 35.2912 107.511 35.3961 107.511 35.4776ZM109.689 34.7087C109.782 34.7087 109.887 34.7553 109.922 34.8252C109.957 34.8951 110.05 34.8835 110.19 34.8019C110.306 34.732 110.481 34.6971 110.597 34.7437C110.702 34.7903 110.795 34.9301 110.795 35.0582C110.795 35.2213 110.714 35.2912 110.504 35.2912C110.329 35.2912 110.166 35.3844 110.096 35.5242C110.038 35.6407 109.98 36.0369 109.98 36.398C109.98 36.9922 109.968 37.0271 109.724 37.0038C109.479 36.9805 109.456 36.9106 109.421 35.9903C109.409 35.4543 109.421 34.9417 109.456 34.8602C109.479 34.7786 109.596 34.6971 109.689 34.6971V34.7087ZM111.727 34.7087C111.925 34.7087 112.158 34.7437 112.251 34.767C112.344 34.8019 112.425 34.9184 112.425 35.0349C112.425 35.2097 112.344 35.233 111.936 35.1864C111.54 35.1514 111.447 35.1747 111.505 35.3029C111.54 35.3961 111.738 35.5475 111.948 35.6407C112.146 35.7456 112.367 35.8971 112.425 35.9903C112.484 36.0951 112.542 36.2582 112.542 36.3747C112.542 36.4912 112.437 36.6893 112.309 36.8058C112.181 36.9456 111.925 37.0388 111.727 37.0388C111.54 37.0388 111.273 36.9922 111.144 36.9223C111.016 36.864 110.912 36.7359 110.912 36.631C110.912 36.5029 111.028 36.4679 111.401 36.4912C111.703 36.5145 111.89 36.4679 111.925 36.3747C111.948 36.2932 111.773 36.1534 111.552 36.0485C111.331 35.9553 111.098 35.7689 111.028 35.6407C110.97 35.5242 110.912 35.3611 110.912 35.2912C110.912 35.233 111.016 35.0699 111.144 34.9417C111.273 34.8136 111.529 34.7087 111.727 34.7087ZM113.276 34.732C113.52 34.767 113.532 34.8369 113.532 35.8738C113.532 36.9456 113.52 36.9922 113.276 37.0155C113.019 37.0388 113.008 37.0271 113.019 35.8738C113.031 34.732 113.031 34.6971 113.276 34.732ZM117.584 34.7204C117.864 34.7204 118.097 34.7903 118.248 34.9417C118.446 35.1398 118.481 35.3378 118.481 36.1068C118.481 36.9689 118.458 37.0388 118.248 37.0388C118.12 37.0388 118.015 36.9922 118.015 36.9223C118.015 36.8446 117.937 36.8446 117.782 36.9223C117.654 36.9922 117.421 37.0388 117.258 37.0388C117.095 37.0388 116.885 36.9689 116.792 36.864C116.699 36.7708 116.618 36.5495 116.618 36.3747C116.606 36.2 116.676 35.9903 116.757 35.9087C116.839 35.8271 117.13 35.7223 117.41 35.6757C117.771 35.6174 117.899 35.5359 117.875 35.4077C117.84 35.2796 117.701 35.2446 117.281 35.2679C116.874 35.2912 116.734 35.2563 116.711 35.1281C116.699 35.0349 116.792 34.9068 116.92 34.8369C117.037 34.7786 117.34 34.7204 117.584 34.7204ZM117.177 36.3514C117.2 36.5262 117.281 36.5728 117.526 36.5495C117.759 36.5262 117.84 36.4563 117.852 36.2582C117.864 36.0835 117.794 36.0019 117.677 36.0019C117.573 36.0136 117.421 36.0369 117.328 36.0718C117.235 36.1068 117.165 36.2349 117.177 36.3514ZM122.533 34.7204C122.743 34.7204 123.011 34.767 123.139 34.8252C123.267 34.8951 123.43 35.1281 123.488 35.3495C123.558 35.5825 123.581 35.8155 123.546 35.8738C123.512 35.9437 123.174 35.9903 122.79 35.9903C122.405 35.9903 122.091 36.0369 122.091 36.0835C122.091 36.1301 122.149 36.2699 122.231 36.3864C122.359 36.5728 122.475 36.5961 122.941 36.5378C123.383 36.4796 123.488 36.4912 123.488 36.631C123.488 36.7359 123.383 36.864 123.255 36.9223C123.127 36.9922 122.883 37.0388 122.708 37.0388C122.533 37.0388 122.254 37.0038 122.102 36.9572C121.951 36.9106 121.753 36.7242 121.672 36.5495C121.578 36.3747 121.509 36.0718 121.509 35.8738C121.509 35.6873 121.567 35.4077 121.648 35.2679C121.718 35.1281 121.87 34.9417 121.963 34.8602C122.068 34.7903 122.324 34.7204 122.533 34.7204ZM122.091 35.5825C122.091 35.6174 122.3 35.6407 122.557 35.6407C122.918 35.6407 123.011 35.6058 122.964 35.466C122.929 35.3728 122.906 35.2679 122.906 35.233C122.906 35.2097 122.755 35.1747 122.568 35.1747C122.37 35.1747 122.196 35.2563 122.161 35.3495C122.126 35.4543 122.091 35.5592 122.091 35.5825ZM128.577 34.7087C128.787 34.7087 129.066 34.767 129.194 34.8252C129.322 34.8951 129.474 35.1398 129.544 35.3844C129.602 35.6291 129.625 35.8621 129.602 35.9087C129.567 35.9553 129.229 35.9903 128.845 35.9903C128.461 35.9903 128.146 36.0369 128.146 36.0835C128.146 36.1301 128.204 36.2699 128.286 36.3864C128.414 36.5728 128.531 36.5961 128.996 36.5378C129.439 36.4796 129.544 36.4912 129.544 36.631C129.544 36.7359 129.427 36.8757 129.287 36.9456C129.136 37.0155 128.798 37.0504 128.496 37.0038C128.204 36.9689 127.913 36.8757 127.832 36.7941C127.75 36.7009 127.646 36.4563 127.611 36.2233C127.564 36.0019 127.564 35.6757 127.611 35.5009C127.646 35.3262 127.797 35.0699 127.937 34.9417C128.088 34.8136 128.356 34.7087 128.577 34.7087ZM128.146 35.5825C128.146 35.6174 128.356 35.6407 128.612 35.6407C129.02 35.6407 129.078 35.6174 129.02 35.4077C128.985 35.2446 128.868 35.1747 128.624 35.1747C128.426 35.1747 128.251 35.2563 128.216 35.3495C128.181 35.4543 128.146 35.5592 128.146 35.5825ZM134.26 34.7204C134.516 34.7087 134.831 34.7903 134.959 34.8835C135.157 35.0233 135.203 35.198 135.226 35.9903C135.25 36.7359 135.215 36.9456 135.075 36.9805C134.982 37.0155 134.819 36.9922 134.726 36.9223C134.609 36.8446 134.532 36.8446 134.493 36.9223C134.458 36.9922 134.283 37.0388 134.085 37.0388C133.887 37.0388 133.631 36.9456 133.503 36.8058C133.375 36.6893 133.27 36.4912 133.27 36.3747C133.27 36.2582 133.363 36.0835 133.468 35.967C133.584 35.8504 133.899 35.7223 134.178 35.6757C134.446 35.6291 134.667 35.5592 134.667 35.5242C134.667 35.5009 134.633 35.3961 134.574 35.3145C134.516 35.198 134.341 35.1747 133.945 35.233C133.503 35.2796 133.387 35.2563 133.363 35.1281C133.352 35.0349 133.445 34.9068 133.573 34.8369C133.689 34.7786 134.004 34.7204 134.26 34.7204ZM133.899 36.433C133.934 36.5145 134.062 36.5844 134.178 36.5844C134.283 36.5844 134.446 36.5029 134.528 36.4097C134.609 36.3048 134.644 36.1767 134.609 36.1184C134.574 36.0485 134.481 36.0019 134.4 36.0019C134.318 36.0019 134.155 36.0602 134.039 36.1417C133.922 36.2233 133.852 36.3514 133.899 36.433ZM136.787 34.7087C137.125 34.7087 137.369 34.7903 137.555 34.9417C137.695 35.0699 137.847 35.3262 137.882 35.5009C137.916 35.6757 137.893 36.0136 137.823 36.2582C137.753 36.5029 137.579 36.7708 137.439 36.8757C137.288 36.9689 136.973 37.0504 136.74 37.0504C136.426 37.0504 136.216 36.9572 136.007 36.7592C135.774 36.5145 135.716 36.3514 135.727 35.8738C135.727 35.4194 135.785 35.2213 136.007 35C136.216 34.7903 136.414 34.7087 136.787 34.7087ZM136.321 35.9204C136.344 36.2116 136.438 36.433 136.566 36.5029C136.705 36.6077 136.822 36.6077 136.973 36.5029C137.09 36.433 137.183 36.2116 137.206 35.9204C137.218 35.6757 137.171 35.4077 137.09 35.3262C137.008 35.233 136.857 35.1747 136.752 35.1747C136.647 35.1747 136.496 35.2446 136.426 35.3262C136.356 35.4077 136.309 35.6757 136.321 35.9204ZM142.761 34.7204C143.052 34.7204 143.308 34.8019 143.436 34.9184C143.599 35.0815 143.646 35.3145 143.634 36.0835C143.634 36.864 143.599 37.0504 143.459 37.0504C143.366 37.0504 143.262 36.9922 143.227 36.9339C143.188 36.8563 143.091 36.8563 142.935 36.9339C142.807 36.9922 142.586 37.0388 142.446 37.0388C142.295 37.0388 142.085 36.9456 141.969 36.8407C141.864 36.7242 141.759 36.5029 141.759 36.3514C141.759 36.1883 141.829 35.9903 141.911 35.9087C141.992 35.8271 142.283 35.7223 142.563 35.6757C142.924 35.6174 143.052 35.5359 143.029 35.4194C142.994 35.2796 142.854 35.2446 142.435 35.2679C142.027 35.2912 141.887 35.2563 141.864 35.1281C141.852 35.0349 141.946 34.9068 142.074 34.8369C142.19 34.7786 142.505 34.7204 142.761 34.7204ZM142.33 36.3514C142.353 36.5262 142.435 36.5728 142.679 36.5495C142.912 36.5262 142.994 36.4563 143.005 36.2582C143.017 36.0835 142.947 36.0019 142.831 36.0019C142.726 36.0136 142.574 36.0369 142.481 36.0718C142.388 36.1068 142.318 36.2349 142.33 36.3514ZM144.589 34.7204C144.775 34.7204 144.799 34.8136 144.799 35.5359C144.799 36.1883 144.845 36.3631 145.008 36.4563C145.148 36.5378 145.276 36.5262 145.404 36.433C145.556 36.3281 145.614 36.0835 145.637 35.5359C145.672 34.8369 145.695 34.767 145.94 34.7437C146.196 34.7204 146.196 34.7437 146.196 35.8854C146.196 36.9689 146.184 37.0388 145.963 37.0388C145.835 37.0388 145.719 36.9922 145.707 36.9223C145.684 36.8291 145.591 36.8291 145.381 36.9339C145.218 37.0038 144.95 37.0388 144.775 37.0038C144.577 36.9572 144.403 36.8174 144.333 36.631C144.275 36.4796 144.205 36.0136 144.193 35.6058C144.193 35.198 144.228 34.8369 144.275 34.7903C144.333 34.7553 144.473 34.7204 144.589 34.7204ZM148.968 34.7087C149.224 34.7087 149.527 34.8019 149.725 34.9417C149.992 35.1514 150.039 35.2679 150.039 35.7689C150.039 36.0835 150.004 36.433 149.957 36.5378C149.911 36.6427 149.725 36.7941 149.55 36.8873C149.375 36.9689 149.072 37.0504 148.874 37.0504C148.676 37.0504 148.397 36.9223 148.211 36.7592C147.931 36.5262 147.885 36.3864 147.885 35.8854C147.885 35.3611 147.931 35.233 148.211 35C148.432 34.8136 148.688 34.7087 148.968 34.7087ZM148.548 35.9204C148.572 36.2116 148.665 36.433 148.793 36.5029C148.933 36.6077 149.049 36.6077 149.2 36.5029C149.317 36.433 149.41 36.2116 149.433 35.9204C149.445 35.6757 149.398 35.4077 149.317 35.3262C149.235 35.233 149.084 35.1747 148.979 35.1747C148.874 35.1747 148.723 35.2446 148.653 35.3262C148.583 35.4077 148.537 35.6757 148.548 35.9204Z" fill="black"/>
<path fill-rule="evenodd" clip-rule="evenodd" d="M22.6189 15.2527C22.7936 15.4741 23.1662 15.9168 23.4573 16.2314C23.7484 16.5459 24.2958 17.0236 24.6801 17.2915C25.0643 17.5595 25.8446 18.0605 26.4268 18.3867C27.0091 18.7129 27.8941 19.1323 28.4065 19.3187C28.9188 19.5051 29.9436 19.7847 30.6773 19.9478C31.4109 20.1226 32.9131 20.3789 33.9961 20.542C35.0791 20.7051 36.2669 20.9381 36.6162 21.0546C36.9656 21.1827 37.5711 21.439 37.9554 21.6254C38.3397 21.8235 39.0733 22.2895 39.5857 22.674C40.0981 23.0468 40.7153 23.5943 40.9482 23.874C41.1811 24.1652 41.5654 24.7128 41.7866 25.0972C42.0195 25.4817 42.3339 26.1924 42.497 26.67C42.6484 27.1477 42.8347 27.8584 42.9162 28.2428C42.9977 28.6273 43.0559 29.5477 43.0559 30.2816C43.0559 31.3884 42.9977 31.8078 42.7415 32.6699C42.5668 33.2408 42.2175 34.1379 41.9729 34.6505C41.7168 35.1631 41.2277 35.932 40.8667 36.3631C40.5173 36.8058 39.9234 37.3883 39.5508 37.6912C39.1898 37.9825 38.4678 38.4252 37.9554 38.6698C37.443 38.9261 36.6046 39.2407 36.0922 39.3805C35.3236 39.6019 34.8462 39.6368 33.3556 39.6485C31.9466 39.6485 31.3061 39.5902 30.4444 39.4038C29.8388 39.264 28.814 38.9611 28.1736 38.7397C27.5331 38.5067 26.6015 38.0757 26.0891 37.7611C25.5884 37.4582 24.8198 36.8873 24.3773 36.4796C23.9348 36.0835 23.5971 35.7107 23.632 35.6408C23.6669 35.5709 24.0745 35.8155 24.5287 36.165C24.9945 36.5145 25.7747 37.0155 26.2521 37.2601C26.7296 37.5165 27.568 37.866 28.1153 38.064C28.6627 38.2504 29.5477 38.5067 30.095 38.6232C30.817 38.7747 31.5972 38.8329 32.948 38.8329C34.392 38.8329 34.9976 38.7863 35.6264 38.6232C36.0689 38.5067 36.756 38.2621 37.1403 38.099C37.5245 37.9242 38.1534 37.5747 38.5377 37.3067C38.9219 37.0504 39.5508 36.5029 39.9351 36.0951C40.3194 35.6874 40.855 34.9767 41.1229 34.534C41.3907 34.0913 41.775 33.2175 41.9846 32.6117C42.3223 31.6214 42.3572 31.3651 42.3572 30.1651C42.3689 29.2564 42.299 28.5574 42.1593 28.0098C42.0428 27.5671 41.7168 26.6933 41.4256 26.0875C40.9715 25.1438 40.7386 24.8293 39.8885 23.9905C39.2247 23.338 38.5726 22.8254 37.9554 22.4759C37.443 22.1847 36.6279 21.8468 36.1504 21.707C35.673 21.5672 34.3338 21.3109 33.1809 21.1478C32.0281 20.9847 30.5841 20.7284 29.9785 20.5653C29.373 20.4138 28.3948 20.1109 27.8242 19.9012C27.242 19.6798 26.3336 19.2371 25.798 18.9226C25.2739 18.5964 24.4588 18.0022 24.0046 17.5944C23.5388 17.1867 23.1429 16.7906 23.1196 16.7207C23.0847 16.6508 22.8867 16.3013 22.6771 15.9518C22.4675 15.6022 22.2928 15.2061 22.2928 15.078C22.3045 14.8799 22.3627 14.9149 22.6189 15.2527ZM71.1671 15.0081C71.1904 15.078 71.0972 15.3576 70.9691 15.6255C70.841 15.9052 70.6431 16.2896 70.5383 16.476C70.4218 16.6741 69.956 17.175 69.4902 17.5828C69.036 18.0022 68.2209 18.608 67.6969 18.9226C67.1612 19.2488 66.2529 19.6798 65.6706 19.9012C65.1 20.1109 64.1218 20.4138 63.5163 20.5653C62.9108 20.7284 61.4668 20.9847 60.3139 21.1478C59.161 21.3109 57.8219 21.5672 57.3444 21.707C56.867 21.8468 56.0518 22.1847 55.5394 22.4759C54.9106 22.8254 54.2818 23.3264 53.618 23.9905C52.8727 24.7244 52.5001 25.2254 52.1391 25.9128C51.8712 26.4254 51.5335 27.2642 51.3938 27.7768C51.2191 28.4642 51.1493 29.07 51.1376 30.0486C51.126 31.0039 51.1842 31.6098 51.3356 32.1457C51.452 32.5651 51.6849 33.2175 51.8596 33.602C52.0343 33.9864 52.3953 34.6155 52.6515 35C52.9193 35.3844 53.4317 35.9903 53.816 36.3514C54.1886 36.7126 54.7592 37.1786 55.0736 37.4C55.3997 37.6097 55.9819 37.9359 56.3895 38.1106C56.7854 38.2854 57.4609 38.53 57.9034 38.6349C58.474 38.7863 59.1727 38.8329 60.5468 38.8329C61.8976 38.8329 62.6778 38.7747 63.3998 38.6232C63.9472 38.5067 64.8322 38.2504 65.3795 38.064C65.9268 37.866 66.7653 37.5165 67.2427 37.2601C67.7202 37.0155 68.5004 36.5145 68.9662 36.165C69.4203 35.8155 69.8279 35.5709 69.8628 35.6408C69.8978 35.7107 69.595 36.0602 69.1991 36.433C68.7915 36.7941 68.0695 37.3417 67.5921 37.6446C67.1146 37.9475 66.2995 38.3553 65.7871 38.565C65.2747 38.763 64.3897 39.0543 63.8074 39.1941C63.2368 39.3456 62.3518 39.5203 61.8627 39.5902C61.362 39.6601 60.5701 39.7184 60.1159 39.7184C59.6501 39.7184 58.8117 39.6368 58.2527 39.5436C57.6821 39.4504 56.7971 39.2057 56.2731 38.996C55.7374 38.798 54.9455 38.3786 54.4914 38.0757C54.0489 37.7844 53.3618 37.1902 52.9775 36.7825C52.5932 36.3631 52.0459 35.6058 51.7548 35.1048C51.4753 34.5922 51.091 33.7651 50.928 33.2524C50.7533 32.7398 50.5437 31.8777 50.4738 31.3301C50.3574 30.5729 50.3574 30.0719 50.4622 29.1748C50.5321 28.5341 50.6951 27.637 50.8232 27.1943C50.9513 26.7516 51.2308 26.006 51.452 25.5632C51.6733 25.1205 52.1041 24.4332 52.4186 24.0604C52.7213 23.6759 53.3502 23.0817 53.7927 22.7439C54.2468 22.406 54.9688 21.94 55.3997 21.707C55.8422 21.4856 56.4943 21.1944 56.8553 21.0662C57.228 20.9381 58.4158 20.7051 59.4988 20.542C60.5934 20.3789 62.084 20.1226 62.8176 19.9478C63.5512 19.7847 64.576 19.5051 65.0884 19.3187C65.6008 19.1206 66.5906 18.643 67.2893 18.2469C67.988 17.8508 68.8847 17.2449 69.2922 16.9187C69.6998 16.5809 70.2821 15.9867 70.5848 15.5906C70.8876 15.2061 71.1554 14.9382 71.1671 15.0081ZM23.2244 17.3498C23.2943 17.3498 23.3758 17.4313 23.434 17.5245C23.4806 17.6177 23.7834 17.9673 24.0978 18.2935C24.4239 18.6313 25.0993 19.1789 25.6117 19.5051C26.124 19.843 26.9159 20.2973 27.3584 20.5303C27.8126 20.7517 28.5113 21.0429 28.9305 21.1711C29.3497 21.2992 30.2347 21.5089 30.9102 21.6487C31.5856 21.7769 32.7384 21.9633 33.4721 22.0682C34.2057 22.1614 35.1024 22.3245 35.4517 22.4293C35.8011 22.5342 36.4881 22.8138 36.9656 23.0701C37.443 23.3147 38.1767 23.7924 38.5959 24.1419C39.0151 24.4798 39.5508 25.0157 39.7837 25.3419C40.0166 25.6565 40.3659 26.2506 40.5523 26.67C40.7386 27.0894 40.9831 27.8001 41.0996 28.2428C41.2044 28.6855 41.3208 29.4311 41.3558 29.8739C41.3907 30.3166 41.3558 31.0622 41.2859 31.5049C41.2044 31.9476 40.9715 32.7631 40.7735 33.3107C40.5639 33.8583 40.2029 34.5922 39.97 34.9417C39.7371 35.2912 39.2713 35.8621 38.9219 36.2C38.5842 36.5495 38.0486 37.0038 37.7225 37.2135C37.4081 37.4233 36.8025 37.7378 36.3833 37.9009C35.9641 38.0757 35.2305 38.2854 34.753 38.3902C34.2756 38.4834 33.4371 38.5766 32.8898 38.5766C32.3425 38.5766 31.4808 38.5184 30.9684 38.4368C30.456 38.3553 29.6059 38.1689 29.0819 38.0174C28.5462 37.866 27.7893 37.5864 27.3933 37.4116C26.9858 37.2368 26.4035 36.9106 26.0775 36.6893C25.763 36.4679 25.2507 36.0835 24.9479 35.8272C24.6451 35.5592 24.4239 35.3145 24.4472 35.2679C24.4821 35.2097 24.8314 35.3961 25.239 35.6757C25.6349 35.9553 26.3336 36.3514 26.7762 36.5728C27.2303 36.7825 27.964 37.0854 28.4065 37.2368C28.8606 37.3883 29.6641 37.5864 30.2115 37.6796C30.7588 37.7844 31.6904 37.8543 32.2843 37.8543C32.8665 37.8543 33.3556 37.8194 33.3556 37.7728C33.3556 37.7145 32.983 37.5864 32.5172 37.4699C32.0514 37.3533 31.3527 37.1087 30.9684 36.9106C30.5841 36.7126 29.9902 36.3398 29.6408 36.0718C29.3031 35.8039 28.8024 35.3262 28.5579 35C28.3017 34.6738 27.9174 34.068 27.6961 33.6253C27.4749 33.1942 27.2187 32.5185 27.1255 32.1224C27.0324 31.7146 26.9508 30.8874 26.9508 30.2816C26.9508 29.6409 27.0324 28.8836 27.1372 28.4758C27.242 28.0914 27.4982 27.4389 27.7078 27.0195C27.9174 26.6001 28.3482 25.9477 28.651 25.5749C28.9654 25.1904 29.5593 24.6429 29.9785 24.3516C30.3978 24.0604 31.1314 23.6642 31.6089 23.4895C32.1096 23.2914 32.8432 23.1167 33.3323 23.0701C33.7865 23.0351 34.1708 22.9652 34.1708 22.9186C34.1708 22.8604 34.0543 22.8021 33.9146 22.7672C33.7632 22.7439 33.0179 22.6274 32.2493 22.5225C31.4808 22.4293 30.2464 22.1847 29.5127 21.9983C28.7092 21.7886 27.7078 21.4274 27.0091 21.0895C26.3686 20.775 25.5069 20.2624 25.0876 19.9362C24.6684 19.6216 24.1677 19.1556 23.9697 18.9109C23.7717 18.6546 23.4923 18.2352 23.3642 17.9673C23.2244 17.6876 23.108 17.443 23.108 17.408C23.108 17.3731 23.1662 17.3498 23.2244 17.3498ZM31.1431 24.4798C30.654 24.7128 30.095 25.1438 29.5593 25.6681C28.9538 26.2739 28.6277 26.7283 28.325 27.369C28.0921 27.8467 27.8475 28.5108 27.766 28.8253C27.6961 29.1515 27.6262 29.8506 27.6262 30.3981C27.6262 30.9923 27.7078 31.668 27.8242 32.0874C27.929 32.4719 28.2085 33.1476 28.4414 33.5903C28.6859 34.0447 29.1634 34.6971 29.5127 35.0582C29.8621 35.4194 30.4211 35.8621 30.7355 36.0485C31.0615 36.2349 31.6438 36.5145 32.0514 36.6543C32.4473 36.8058 33.1576 36.9572 33.6235 36.9922C34.1009 37.0388 34.7996 37.0155 35.277 36.9339C35.7428 36.8524 36.5114 36.5961 37.0587 36.3281C37.7458 36.0019 38.2116 35.6757 38.7473 35.1514C39.1665 34.7204 39.6439 34.0796 39.9001 33.602C40.133 33.1592 40.4125 32.4719 40.5057 32.0874C40.6221 31.668 40.692 30.9224 40.692 30.2234C40.692 29.3379 40.6221 28.8836 40.4242 28.3011C40.2844 27.8817 39.9816 27.2292 39.7604 26.8564C39.5391 26.4836 39.0384 25.8895 38.6541 25.5166C38.2698 25.1555 37.641 24.7011 37.2567 24.4914C36.8724 24.2934 36.2436 24.0371 35.8593 23.9439C35.4517 23.8274 34.7297 23.7575 34.1125 23.7691C33.5419 23.7691 32.8083 23.8507 32.4822 23.9439C32.1678 24.0254 31.5623 24.2701 31.1431 24.4798ZM70.3054 17.3498C70.3519 17.3498 70.3869 17.3731 70.3869 17.408C70.3869 17.443 70.3054 17.641 70.2006 17.8508C70.0957 18.0488 69.8396 18.4566 69.6299 18.7478C69.4203 19.0391 68.9429 19.5167 68.5702 19.808C68.186 20.1109 67.4873 20.5653 67.0098 20.8332C66.5324 21.0895 65.6939 21.4623 65.1466 21.6487C64.5993 21.8352 63.656 22.0915 63.0505 22.2196C62.445 22.3478 61.4435 22.5109 60.8379 22.5924C60.2324 22.6623 59.6385 22.7439 59.5337 22.7788C59.4172 22.8021 59.3241 22.8604 59.3241 22.9186C59.3241 22.9652 59.7084 23.0351 60.1625 23.0817C60.6283 23.1167 61.3503 23.2798 61.7695 23.4312C62.1888 23.5943 62.8409 23.9206 63.2252 24.1652C63.6095 24.4099 64.2266 24.9225 64.6109 25.3186C65.0767 25.8079 65.4377 26.3555 65.7871 27.0778C66.0666 27.6487 66.3577 28.4642 66.4392 28.8836C66.5207 29.3379 66.5556 30.1185 66.5207 30.8059C66.4741 31.6214 66.3693 32.1923 66.183 32.7282C66.0316 33.1476 65.7172 33.8 65.4959 34.1728C65.2747 34.5456 64.7507 35.198 64.3314 35.6058C63.7958 36.1417 63.2834 36.5029 62.5847 36.8524C62.0374 37.1203 61.2688 37.4233 60.8612 37.5165C60.4653 37.6097 60.1392 37.7262 60.1392 37.7961C60.1392 37.8776 60.6749 37.8893 61.6764 37.831C62.5498 37.7844 63.6095 37.6446 64.0985 37.5165C64.576 37.4 65.4144 37.1203 65.9618 36.9106C66.4974 36.6893 67.3708 36.2349 67.8832 35.8971C68.3956 35.5709 68.8497 35.3262 68.8963 35.3728C68.9545 35.4311 68.7449 35.6757 68.4305 35.932C68.1277 36.1883 67.4873 36.631 67.0098 36.9223C66.5324 37.2135 65.6357 37.6213 65.0301 37.8194C64.4246 38.0291 63.4581 38.2737 62.8758 38.3786C62.3052 38.4834 61.3037 38.565 60.6633 38.565C59.8714 38.5766 59.161 38.4951 58.4507 38.332C57.8801 38.1922 57.0416 37.9009 56.5875 37.6796C56.1333 37.4582 55.4812 37.0388 55.1319 36.7475C54.7825 36.4563 54.2701 35.9437 53.9906 35.6058C53.7228 35.2679 53.2919 34.5806 53.0357 34.068C52.7796 33.5554 52.4768 32.6932 52.337 32.1457C52.209 31.5981 52.1041 30.7826 52.1041 30.3399C52.1041 29.8972 52.209 29.0467 52.337 28.4758C52.4651 27.8933 52.7679 27.0079 53.0241 26.4953C53.2687 25.9827 53.7345 25.2836 54.0489 24.9341C54.3516 24.5846 54.9222 24.0837 55.3065 23.8157C55.6908 23.5361 56.3197 23.1633 56.7039 22.9652C57.0882 22.7788 57.6938 22.5342 58.0431 22.4293C58.3925 22.3361 59.4172 22.1497 60.3139 22.0216C61.2106 21.8934 62.3401 21.707 62.8176 21.6021C63.295 21.4973 64.052 21.3109 64.5061 21.1711C64.9603 21.0429 65.6823 20.7517 66.1364 20.5303C66.5906 20.2973 67.3708 19.843 67.8832 19.5167C68.3956 19.1789 69.1292 18.5614 69.5135 18.1304C69.8978 17.7109 70.2471 17.3614 70.3054 17.3498ZM56.2381 24.4914C55.8538 24.7011 55.225 25.1555 54.8407 25.5166C54.4564 25.8778 53.9441 26.5069 53.6995 26.9147C53.455 27.3224 53.1522 27.9982 53.0241 28.4176C52.8611 28.9535 52.7912 29.501 52.7912 30.2816C52.7912 30.9457 52.8611 31.668 52.9775 32.0874C53.0823 32.4719 53.3269 33.1243 53.5365 33.5437C53.7694 34.0214 54.1886 34.5922 54.6661 35.0699C55.1901 35.5942 55.7141 35.967 56.3546 36.2932C56.9485 36.5961 57.6006 36.8291 58.1596 36.9223C58.672 37.0038 59.3707 37.0388 59.8481 37.0038C60.3023 36.9572 60.9777 36.8291 61.362 36.6893C61.7462 36.5611 62.3984 36.2466 62.8176 35.9786C63.2368 35.7107 63.8307 35.2213 64.1335 34.8951C64.4363 34.5689 64.8671 33.9631 65.0884 33.5437C65.298 33.1243 65.5658 32.4719 65.659 32.0874C65.7638 31.6913 65.8453 30.9224 65.8453 30.3166C65.8453 29.4894 65.7754 29.0234 65.5542 28.336C65.4028 27.8351 65.0418 27.0894 64.774 26.6817C64.4945 26.2623 63.9821 25.6681 63.6327 25.3652C63.2834 25.0506 62.6778 24.6429 62.2936 24.4448C61.9093 24.2584 61.3037 24.0254 60.9544 23.9322C60.605 23.839 59.8365 23.7575 59.2659 23.7691C58.6952 23.7691 57.9267 23.8507 57.5773 23.9439C57.228 24.0371 56.6224 24.2934 56.2381 24.4914Z" fill="#650202"/>
<path d="M31.8301 27.9399C32.2377 27.5322 32.6802 27.2176 33.0063 27.1011C33.2974 27.0079 33.8447 26.9147 34.229 26.9147C34.6133 26.903 35.1606 26.9729 35.4517 27.0661C35.7428 27.171 36.2552 27.4972 36.6046 27.8001C36.9423 28.103 37.3382 28.569 37.4663 28.8253C37.606 29.1049 37.7225 29.6176 37.7574 30.1069C37.7924 30.6661 37.7574 31.0971 37.6293 31.5049C37.5245 31.8311 37.2218 32.3321 36.9423 32.6583C36.6628 32.9728 36.1737 33.3573 35.8593 33.5204C35.4866 33.7068 35.0092 33.835 34.5201 33.8583C33.9379 33.9049 33.6118 33.8583 33.1227 33.6719C32.7734 33.5437 32.2493 33.2408 31.9698 32.9961C31.6904 32.7515 31.3294 32.2971 31.1663 31.9709C30.98 31.5981 30.8519 31.1088 30.817 30.6311C30.782 30.0836 30.817 29.6991 30.9684 29.2331C31.1314 28.7554 31.3527 28.4176 31.8301 27.9399Z" fill="black"/>
<path d="M56.7738 27.87C57.0533 27.5904 57.5424 27.2642 57.8684 27.1477C58.2061 27.0079 58.7418 26.9147 59.1494 26.903C59.5337 26.903 60.1043 26.9846 60.4303 27.1011C60.8263 27.2292 61.2106 27.4972 61.6647 27.9399C62.1422 28.4176 62.3634 28.7554 62.5265 29.2331C62.6778 29.6875 62.7128 30.0952 62.6778 30.6311C62.6429 31.167 62.5265 31.5632 62.2819 32.0175C62.0956 32.367 61.7346 32.8214 61.4784 33.0427C61.2222 33.2525 60.7215 33.5437 60.3721 33.6719C59.883 33.8583 59.557 33.9049 58.9747 33.8583C58.4856 33.835 58.0082 33.7068 57.6355 33.5204C57.3095 33.3573 56.832 32.9728 56.5525 32.6583C56.2847 32.3437 55.9819 31.8544 55.8888 31.5632C55.784 31.2719 55.7141 30.701 55.7141 30.2816C55.7141 29.7341 55.7956 29.3613 55.9936 28.9418C56.145 28.6273 56.4943 28.138 56.7738 27.87Z" fill="black"/>
</svg>
