<svg width="192" height="52" viewBox="0 0 192 52" fill="none" xmlns="http://www.w3.org/2000/svg">
<path d="M54.7998 27.0875C55.5881 26.418 55.987 25.402 55.987 24.07C55.987 21.6169 54.5804 20.2103 52.1273 20.2103H44.1223V31.7824H46.0522V22.1401H52.1273C53.516 22.1401 54.0572 22.6812 54.0572 24.07C54.0572 25.4586 53.516 25.9997 52.1273 25.9997H48.1586L53.6514 31.7824H56.1375L52.5153 27.9172C53.4525 27.8578 54.22 27.579 54.7998 27.0862V27.0875Z" fill="#10101E"/>
<path d="M63.7878 20.0805H63.7835C61.2781 20.0805 59.4919 20.8425 58.4718 22.3416C57.6324 23.5772 57.5358 25.0211 57.5358 25.9997C57.5358 26.9784 57.6324 28.4223 58.4718 29.6578C59.4905 31.157 61.2781 31.9176 63.7835 31.919C63.7849 31.919 63.7864 31.919 63.7878 31.919C66.2946 31.919 68.0836 31.1597 69.1052 29.6619C69.9499 28.4237 70.0479 26.9798 70.0479 25.9997C70.0479 25.0196 69.9499 23.5758 69.1052 22.3375C68.0822 20.8398 66.2932 20.0805 63.7864 20.0805H63.7878ZM67.5121 28.5728C66.8716 29.5116 65.6181 29.9877 63.7878 29.9877H63.7835C61.9559 29.9877 60.7052 29.5102 60.0676 28.5715C59.5333 27.7859 59.4643 26.7838 59.4643 25.9983C59.4643 25.2129 59.5333 24.2107 60.0676 23.4253C60.7052 22.4866 61.9559 22.0104 63.7835 22.009H63.7864C65.6168 22.009 66.8702 22.4852 67.5108 23.4239C68.0477 24.2121 68.1167 25.2129 68.1167 25.9983C68.1167 26.7838 68.0477 27.7846 67.5108 28.5728H67.5121Z" fill="#10101E"/>
<path d="M135.363 25.7334C134.712 25.2833 133.826 25.0556 132.727 25.0556H129.014C127.147 25.0556 126.991 24.2977 126.991 23.5882C126.991 22.8786 127.147 22.1207 129.014 22.1207H136.091V20.231H129.014C127.916 20.231 127.029 20.4587 126.377 20.9088C125.795 21.3119 125.1 22.1029 125.1 23.5882C125.1 25.0735 125.795 25.8645 126.377 26.2675C127.029 26.7176 127.915 26.9453 129.014 26.9453H132.727C133.424 26.9453 133.964 27.064 134.288 27.2876C134.488 27.4244 134.749 27.6907 134.749 28.4127C134.749 29.1346 134.593 29.8801 132.727 29.8801H125.577V31.7699H132.727C133.824 31.7699 134.712 31.5422 135.363 31.0921C135.946 30.689 136.641 29.898 136.641 28.4127C136.641 26.9274 135.946 26.1364 135.363 25.7334Z" fill="#10101E"/>
<path d="M101.279 26.9578H108.291V25.028H101.279V22.1332H109.964V20.2034H99.35V31.7824H109.98V29.8525H101.279V26.9578Z" fill="#10101E"/>
<path d="M141.003 26.9578H148.016V25.028H141.003V22.1332H149.688V20.2034H139.073V31.7824H149.704V29.8525H141.003V26.9578Z" fill="#10101E"/>
<path d="M111.7 22.1125H116.525V31.7892H118.456V22.1125H123.281V20.2228H111.7V22.1125Z" fill="#10101E"/>
<path d="M177.092 20.2228H165.512V22.1125H170.337V31.7892H172.267V22.1125H177.092V20.2228Z" fill="#10101E"/>
<path d="M97.3374 20.2296H94.9065L90.0184 25.9997L94.912 31.7822H97.358L92.5391 25.9983L97.3374 20.2296Z" fill="#10101E"/>
<path d="M87.8429 20.2034H85.8164V31.7824H87.8429V20.2034Z" fill="#10101E"/>
<path d="M160.141 20.2144H155.51C153.598 20.2144 152.043 21.7688 152.043 23.6807V31.7865H153.958V27.8067H161.705V31.7865H163.594V26.9964C163.601 26.9481 163.607 26.8998 163.607 26.8501V23.6807C163.607 21.7688 162.053 20.2144 160.141 20.2144ZM161.693 25.8921H153.958V23.6807C153.958 22.8248 154.654 22.1291 155.51 22.1291H160.141C160.997 22.1291 161.693 22.8248 161.693 23.6807V25.8921Z" fill="#10101E"/>
<path d="M71.9901 23.6834V28.3147C71.9901 30.2266 73.5445 31.7809 75.4564 31.7809H83.5622V29.8663H75.4564C74.6005 29.8663 73.9048 29.1705 73.9048 28.3147V23.6834C73.9048 22.8275 74.6005 22.1318 75.4564 22.1318H83.5622V20.2171H75.4564C73.5445 20.2171 71.9901 21.7715 71.9901 23.6834Z" fill="#10101E"/>
<path d="M27.8044 30.5799C23.3139 34.4161 20.1253 34.6867 18.4921 33.0523C16.9875 31.5477 18.2354 27.7736 21.2765 24.0465L15.498 18.2694H19.1906L24.9305 24.0092C21.3082 27.6535 19.1961 31.5339 20.2881 32.6257C21.1922 33.5312 23.9752 32.2765 26.9775 29.7531L27.8044 30.5799Z" fill="#10101E"/>
<path d="M34.6458 33.7301L28.906 27.9903C32.5282 24.3474 34.6403 20.4656 33.5497 19.3751C32.6456 18.4695 29.8599 19.7257 26.8575 22.2491L26.0307 21.4222C30.5225 17.5848 33.7126 17.3128 35.3457 18.9472C36.8503 20.4519 35.6038 24.2259 32.5614 27.953L38.3398 33.7301H34.6458Z" fill="#10101E"/>
</svg>
