<svg width="192" height="52" viewBox="0 0 192 52" fill="none" xmlns="http://www.w3.org/2000/svg">
<path d="M146.783 34.0938C145.111 34.0938 143.795 33.7617 142.834 33.0977C141.873 32.4258 141.318 31.457 141.17 30.1914C141.162 30.0977 141.182 30.0234 141.229 29.9688C141.275 29.9062 141.342 29.875 141.428 29.875H144.357C144.521 29.875 144.627 29.9609 144.674 30.1328C144.783 30.6562 145.01 31.0273 145.354 31.2461C145.705 31.4648 146.182 31.5742 146.783 31.5742C147.283 31.5742 147.682 31.4727 147.979 31.2695C148.283 31.0586 148.436 30.7852 148.436 30.4492C148.436 30.0977 148.322 29.8398 148.096 29.6758C147.869 29.5039 147.479 29.3711 146.924 29.2773L145.225 28.9609C143.936 28.7422 142.982 28.3438 142.365 27.7656C141.756 27.1797 141.451 26.3398 141.451 25.2461C141.451 24.0586 141.904 23.1172 142.811 22.4219C143.725 21.7266 144.979 21.3789 146.572 21.3789C148.018 21.3789 149.193 21.6875 150.1 22.3047C151.006 22.9141 151.541 23.8203 151.705 25.0234C151.729 25.125 151.713 25.2031 151.658 25.2578C151.611 25.3125 151.545 25.3398 151.459 25.3398H148.541C148.369 25.3398 148.256 25.25 148.201 25.0703C148.107 24.6406 147.932 24.3359 147.674 24.1562C147.416 23.9688 147.049 23.875 146.572 23.875C146.088 23.875 145.717 23.9727 145.459 24.168C145.209 24.3633 145.084 24.6406 145.084 25C145.084 25.3359 145.201 25.5977 145.436 25.7852C145.678 25.9648 146.104 26.1055 146.713 26.207L148.436 26.5117C149.74 26.7305 150.67 27.1211 151.225 27.6836C151.787 28.2461 152.068 29.0742 152.068 30.168C152.068 31.4727 151.611 32.4531 150.697 33.1094C149.791 33.7656 148.486 34.0938 146.783 34.0938Z" fill="#390078"/>
<path d="M127.881 33.9062C127.686 33.9062 127.588 33.8086 127.588 33.6133V16.9141C127.588 16.7188 127.686 16.6211 127.881 16.6211H131.209C131.389 16.6211 131.479 16.7188 131.479 16.9141V26.1484H131.596L135.744 21.7188C135.846 21.6172 135.959 21.5664 136.084 21.5664H139.541C139.658 21.5664 139.732 21.6016 139.764 21.6719C139.795 21.7344 139.775 21.8125 139.705 21.9062L135.604 26.5352V26.6641L140.021 33.5664C140.084 33.6523 140.096 33.7305 140.057 33.8008C140.018 33.8711 139.939 33.9062 139.822 33.9062H136.225C136.084 33.9062 135.982 33.8438 135.92 33.7188L132.896 28.9609H132.768L131.479 30.2852V33.6133C131.479 33.8086 131.389 33.9062 131.209 33.9062H127.881Z" fill="#390078"/>
<path d="M123.697 33.9062C122.447 33.9062 121.49 33.5742 120.826 32.9102C120.162 32.2383 119.83 31.2734 119.83 30.0156V16.9141C119.83 16.7188 119.928 16.6211 120.123 16.6211H123.451C123.631 16.6211 123.721 16.7188 123.721 16.9141V31.2227H125.689C125.877 31.2227 125.971 31.3164 125.971 31.5039V33.6133C125.971 33.8086 125.877 33.9062 125.689 33.9062H123.697Z" fill="#390078"/>
<path fill-rule="evenodd" clip-rule="evenodd" d="M108.756 34.0938C107.154 34.0938 105.893 33.5273 104.971 32.3945C104.049 31.2617 103.588 29.7109 103.588 27.7422C103.588 25.7422 104.041 24.1836 104.947 23.0664C105.854 21.9414 107.123 21.3789 108.756 21.3789C109.521 21.3789 110.236 21.5547 110.9 21.9062C111.564 22.25 112.096 22.7227 112.494 23.3242H112.623V21.8594C112.623 21.6641 112.717 21.5664 112.904 21.5664H116.244C116.432 21.5664 116.525 21.6641 116.525 21.8594V31.2227H117.662C117.834 31.2227 117.92 31.3164 117.92 31.5039V33.6133C117.92 33.8086 117.834 33.9062 117.662 33.9062H114.732C113.451 33.9062 112.811 33.3711 112.811 32.3008V32.1836H112.693C112.334 32.7695 111.799 33.2344 111.088 33.5781C110.377 33.9219 109.6 34.0938 108.756 34.0938ZM108.24 30.3438C107.779 29.7344 107.549 28.8672 107.549 27.7422C107.549 26.6328 107.783 25.7734 108.252 25.1641C108.721 24.5469 109.369 24.2383 110.197 24.2383C111.01 24.2383 111.639 24.5469 112.084 25.1641C112.537 25.7734 112.764 26.6328 112.764 27.7422C112.764 28.875 112.541 29.7422 112.096 30.3438C111.658 30.9453 111.025 31.2461 110.197 31.2461C109.361 31.2461 108.709 30.9453 108.24 30.3438Z" fill="#390078"/>
<path d="M96.2871 33.9062C96.0918 33.9062 95.9941 33.8086 95.9941 33.6133V20.1836H91.4121C91.2168 20.1836 91.1191 20.0859 91.1191 19.8906V17.3945C91.1191 17.1992 91.2168 17.1016 91.4121 17.1016H104.607C104.787 17.1016 104.877 17.1992 104.877 17.3945V19.8906C104.877 19.9766 104.85 20.0469 104.795 20.1016C104.748 20.1562 104.686 20.1836 104.607 20.1836H100.002V33.6133C100.002 33.8086 99.9043 33.9062 99.709 33.9062H96.2871Z" fill="#390078"/>
<path d="M83.1189 15H76.8161V36.4689H83.1189V15Z" fill="#390078"/>
<path d="M46.1891 22.0912C46.2215 22.0912 46.254 22.0914 46.2864 22.0918L51.2726 17.1056C49.9244 15.7574 48.0958 15 46.1891 15L46.1891 22.0912Z" fill="#9638FF"/>
<path d="M43.4376 35.9227C44.3099 36.2841 45.2447 36.47 46.1888 36.47L46.1891 29.3783C46.1569 29.3783 46.1243 29.3781 46.092 29.3776L41.1053 34.3644C41.7729 35.0319 42.5654 35.5615 43.4376 35.9227Z" fill="#9638FF"/>
<path d="M52.8307 26.5297C52.4694 25.6575 51.9398 24.865 51.2723 24.1974C50.6047 23.5298 49.8125 22.9997 48.9402 22.6384C48.098 22.2895 47.1974 22.1042 46.2864 22.0918C46.254 22.0914 46.2215 22.0912 46.1891 22.0912L46.1891 15C45.245 15 44.3102 15.1859 43.4379 15.5473C42.5657 15.9085 41.7732 16.4381 41.1056 17.1056C40.6206 17.5907 40.2084 18.1417 39.8807 18.7413C39.655 19.1544 39.4703 19.5886 39.3295 20.0376C39.1115 20.7327 39 21.4582 39 22.1891C39 22.9041 39.1065 23.6082 39.3108 24.28C39.3486 24.4046 39.3899 24.5282 39.4345 24.6505C39.556 24.9839 39.702 25.308 39.8716 25.6202C40.2007 26.2263 40.6161 26.7831 41.1056 27.2726C41.7732 27.9402 42.5657 28.4697 43.4379 28.8311C44.2803 29.1799 45.181 29.3653 46.092 29.3776L46.1888 29.2809L46.1891 29.3783L46.1888 36.47C47.1329 36.47 48.0677 36.2841 48.9399 35.9227C49.8122 35.5615 50.6047 35.0319 51.2723 34.3644C51.9398 33.6968 52.4694 32.9043 52.8307 32.032C53.1919 31.1598 53.3779 30.2249 53.3779 29.2809C53.3779 28.3368 53.1919 27.4019 52.8307 26.5297Z" fill="#390078"/>
<path d="M65.0972 22.0912C65.1296 22.0912 65.1621 22.0914 65.1945 22.0918L70.1806 17.1056C68.8325 15.7574 67.0038 15 65.0972 15L65.0972 22.0912Z" fill="#9638FF"/>
<path d="M62.3457 35.9227C63.2179 36.2841 64.1527 36.47 65.0968 36.47L65.0972 29.3783C65.0649 29.3783 65.0323 29.3781 65 29.3776L60.0134 34.3644C60.6809 35.0319 61.4734 35.5615 62.3457 35.9227Z" fill="#9638FF"/>
<path d="M71.7386 26.5297C71.3774 25.6575 70.8481 24.865 70.1802 24.1974C69.5126 23.5298 68.7205 22.9997 67.8483 22.6384C67.0061 22.2895 66.1054 22.1042 65.1945 22.0918C65.1621 22.0914 65.1296 22.0912 65.0972 22.0912L65.0972 15C64.1531 15 63.2182 15.1859 62.346 15.5473C61.5837 15.863 60.8823 16.3072 60.272 16.8598C60.1841 16.9394 60.098 17.0214 60.0137 17.1056C59.8899 17.2294 59.7712 17.3572 59.6575 17.4887C59.3842 17.805 59.1404 18.1429 58.9279 18.4981C58.7474 18.7998 58.5895 19.114 58.4553 19.438C58.4105 19.546 58.3684 19.6551 58.329 19.7652C58.2543 19.9737 58.1892 20.1858 58.134 20.4008C58.0143 20.8668 57.941 21.3463 57.9169 21.8327C57.911 21.9511 57.908 22.07 57.908 22.1891C57.908 22.353 57.9136 22.5163 57.9247 22.6787C57.962 23.2251 58.0614 23.7621 58.2188 24.28C58.2869 24.5039 58.3658 24.7243 58.4553 24.9403C58.6005 25.2908 58.7734 25.6299 58.9727 25.9541C59.2032 26.3291 59.469 26.6842 59.7679 27.0143C59.8475 27.1022 59.9294 27.1884 60.0137 27.2726C60.6812 27.9402 61.4738 28.4697 62.346 28.8311C63.1883 29.1799 64.089 29.3653 65 29.3776L65.0968 29.2809L65.0972 29.3783L65.0968 36.47C66.0409 36.47 66.9757 36.2841 67.848 35.9227C68.7202 35.5615 69.5128 35.0319 70.1802 34.3644C70.8481 33.6968 71.3774 32.9043 71.7386 32.032C72.0998 31.1598 72.2861 30.2249 72.2861 29.2809C72.2861 28.3368 72.0998 27.4019 71.7386 26.5297Z" fill="#390078"/>
</svg>
