<svg width="192" height="52" viewBox="0 0 192 52" fill="none" xmlns="http://www.w3.org/2000/svg">
<path d="M146.783 34.4727C145.111 34.4727 143.795 34.1406 142.834 33.4766C141.873 32.8047 141.318 31.8359 141.17 30.5703C141.162 30.4766 141.182 30.4023 141.229 30.3477C141.275 30.2852 141.342 30.2539 141.428 30.2539H144.357C144.521 30.2539 144.627 30.3398 144.674 30.5117C144.783 31.0352 145.01 31.4062 145.354 31.625C145.705 31.8438 146.182 31.9531 146.783 31.9531C147.283 31.9531 147.682 31.8516 147.979 31.6484C148.283 31.4375 148.436 31.1641 148.436 30.8281C148.436 30.4766 148.322 30.2188 148.096 30.0547C147.869 29.8828 147.479 29.75 146.924 29.6562L145.225 29.3398C143.936 29.1211 142.982 28.7227 142.365 28.1445C141.756 27.5586 141.451 26.7188 141.451 25.625C141.451 24.4375 141.904 23.4961 142.811 22.8008C143.725 22.1055 144.979 21.7578 146.572 21.7578C148.018 21.7578 149.193 22.0664 150.1 22.6836C151.006 23.293 151.541 24.1992 151.705 25.4023C151.729 25.5039 151.713 25.582 151.658 25.6367C151.611 25.6914 151.545 25.7188 151.459 25.7188H148.541C148.369 25.7188 148.256 25.6289 148.201 25.4492C148.107 25.0195 147.932 24.7148 147.674 24.5352C147.416 24.3477 147.049 24.2539 146.572 24.2539C146.088 24.2539 145.717 24.3516 145.459 24.5469C145.209 24.7422 145.084 25.0195 145.084 25.3789C145.084 25.7148 145.201 25.9766 145.436 26.1641C145.678 26.3438 146.104 26.4844 146.713 26.5859L148.436 26.8906C149.74 27.1094 150.67 27.5 151.225 28.0625C151.787 28.625 152.068 29.4531 152.068 30.5469C152.068 31.8516 151.611 32.832 150.697 33.4883C149.791 34.1445 148.486 34.4727 146.783 34.4727Z" fill="#390078"/>
<path d="M127.881 34.2852C127.686 34.2852 127.588 34.1875 127.588 33.9922V17.293C127.588 17.0977 127.686 17 127.881 17H131.209C131.389 17 131.479 17.0977 131.479 17.293V26.5273H131.596L135.744 22.0977C135.846 21.9961 135.959 21.9453 136.084 21.9453H139.541C139.658 21.9453 139.732 21.9805 139.764 22.0508C139.795 22.1133 139.775 22.1914 139.705 22.2852L135.604 26.9141V27.043L140.021 33.9453C140.084 34.0312 140.096 34.1094 140.057 34.1797C140.018 34.25 139.939 34.2852 139.822 34.2852H136.225C136.084 34.2852 135.982 34.2227 135.92 34.0977L132.896 29.3398H132.768L131.479 30.6641V33.9922C131.479 34.1875 131.389 34.2852 131.209 34.2852H127.881Z" fill="#390078"/>
<path d="M123.697 34.2852C122.447 34.2852 121.49 33.9531 120.826 33.2891C120.162 32.6172 119.83 31.6523 119.83 30.3945V17.293C119.83 17.0977 119.928 17 120.123 17H123.451C123.631 17 123.721 17.0977 123.721 17.293V31.6016H125.689C125.877 31.6016 125.971 31.6953 125.971 31.8828V33.9922C125.971 34.1875 125.877 34.2852 125.689 34.2852H123.697Z" fill="#390078"/>
<path fill-rule="evenodd" clip-rule="evenodd" d="M108.756 34.4727C107.154 34.4727 105.893 33.9062 104.971 32.7734C104.049 31.6406 103.588 30.0898 103.588 28.1211C103.588 26.1211 104.041 24.5625 104.947 23.4453C105.854 22.3203 107.123 21.7578 108.756 21.7578C109.521 21.7578 110.236 21.9336 110.9 22.2852C111.564 22.6289 112.096 23.1016 112.494 23.7031H112.623V22.2383C112.623 22.043 112.717 21.9453 112.904 21.9453H116.244C116.432 21.9453 116.525 22.043 116.525 22.2383V31.6016H117.662C117.834 31.6016 117.92 31.6953 117.92 31.8828V33.9922C117.92 34.1875 117.834 34.2852 117.662 34.2852H114.732C113.451 34.2852 112.811 33.75 112.811 32.6797V32.5625H112.693C112.334 33.1484 111.799 33.6133 111.088 33.957C110.377 34.3008 109.6 34.4727 108.756 34.4727ZM108.24 30.7227C107.779 30.1133 107.549 29.2461 107.549 28.1211C107.549 27.0117 107.783 26.1523 108.252 25.543C108.721 24.9258 109.369 24.6172 110.197 24.6172C111.01 24.6172 111.639 24.9258 112.084 25.543C112.537 26.1523 112.764 27.0117 112.764 28.1211C112.764 29.2539 112.541 30.1211 112.096 30.7227C111.658 31.3242 111.025 31.625 110.197 31.625C109.361 31.625 108.709 31.3242 108.24 30.7227Z" fill="#390078"/>
<path d="M96.2871 34.2852C96.0918 34.2852 95.9941 34.1875 95.9941 33.9922V20.5625H91.4121C91.2168 20.5625 91.1191 20.4648 91.1191 20.2695V17.7734C91.1191 17.5781 91.2168 17.4805 91.4121 17.4805H104.607C104.787 17.4805 104.877 17.5781 104.877 17.7734V20.2695C104.877 20.3555 104.85 20.4258 104.795 20.4805C104.748 20.5352 104.686 20.5625 104.607 20.5625H100.002V33.9922C100.002 34.1875 99.9043 34.2852 99.709 34.2852H96.2871Z" fill="#390078"/>
<path d="M83.1189 15.3789H76.8161V36.8478H83.1189V15.3789Z" fill="#390078"/>
<path d="M46.1891 22.4701C46.2215 22.4701 46.254 22.4703 46.2864 22.4707L51.2726 17.4846C49.9244 16.1363 48.0958 15.3789 46.1891 15.3789L46.1891 22.4701Z" fill="#9638FF"/>
<path d="M43.4376 36.3016C44.3099 36.663 45.2447 36.8489 46.1888 36.8489L46.1891 29.7572C46.1569 29.7572 46.1243 29.757 46.092 29.7565L41.1053 34.7433C41.7729 35.4108 42.5654 35.9404 43.4376 36.3016Z" fill="#9638FF"/>
<path d="M52.8307 26.9086C52.4694 26.0364 51.9398 25.2439 51.2723 24.5763C50.6047 23.9087 49.8125 23.3786 48.9402 23.0174C48.098 22.6685 47.1974 22.4831 46.2864 22.4707C46.254 22.4703 46.2215 22.4701 46.1891 22.4701L46.1891 15.3789C45.245 15.3789 44.3102 15.5649 43.4379 15.9262C42.5657 16.2875 41.7732 16.817 41.1056 17.4846C40.6206 17.9696 40.2084 18.5206 39.8807 19.1202C39.655 19.5333 39.4703 19.9675 39.3295 20.4165C39.1115 21.1116 39 21.8371 39 22.568C39 23.283 39.1065 23.9871 39.3108 24.6589C39.3486 24.7835 39.3899 24.9071 39.4345 25.0294C39.556 25.3628 39.702 25.6869 39.8716 25.9991C40.2007 26.6052 40.6161 27.162 41.1056 27.6515C41.7732 28.3191 42.5657 28.8486 43.4379 29.21C44.2803 29.5588 45.181 29.7442 46.092 29.7565L46.1888 29.6598L46.1891 29.7572L46.1888 36.8489C47.1329 36.8489 48.0677 36.663 48.9399 36.3016C49.8122 35.9404 50.6047 35.4108 51.2723 34.7433C51.9398 34.0757 52.4694 33.2832 52.8307 32.4109C53.1919 31.5387 53.3779 30.6038 53.3779 29.6598C53.3779 28.7157 53.1919 27.7808 52.8307 26.9086Z" fill="#390078"/>
<path d="M65.0972 22.4701C65.1296 22.4701 65.1621 22.4703 65.1945 22.4707L70.1806 17.4846C68.8325 16.1363 67.0038 15.3789 65.0972 15.3789L65.0972 22.4701Z" fill="#9638FF"/>
<path d="M62.3457 36.3016C63.2179 36.663 64.1527 36.8489 65.0968 36.8489L65.0972 29.7572C65.0649 29.7572 65.0323 29.757 65 29.7565L60.0134 34.7433C60.6809 35.4108 61.4734 35.9404 62.3457 36.3016Z" fill="#9638FF"/>
<path d="M71.7386 26.9086C71.3774 26.0364 70.8481 25.2439 70.1802 24.5763C69.5126 23.9087 68.7205 23.3786 67.8483 23.0174C67.0061 22.6684 66.1054 22.4831 65.1945 22.4707C65.1621 22.4703 65.1296 22.4701 65.0972 22.4701L65.0972 15.3789C64.1531 15.3789 63.2182 15.5649 62.346 15.9262C61.5837 16.2419 60.8823 16.6862 60.272 17.2387C60.1841 17.3183 60.098 17.4003 60.0137 17.4846C59.8899 17.6083 59.7712 17.7361 59.6575 17.8677C59.3842 18.1839 59.1404 18.5218 58.9279 18.877C58.7474 19.1787 58.5895 19.4929 58.4553 19.8169C58.4105 19.9249 58.3684 20.034 58.329 20.1441C58.2543 20.3526 58.1892 20.5647 58.134 20.7797C58.0143 21.2457 57.941 21.7252 57.9169 22.2116C57.911 22.33 57.908 22.4489 57.908 22.568C57.908 22.7319 57.9136 22.8952 57.9247 23.0576C57.962 23.604 58.0614 24.141 58.2188 24.6589C58.2869 24.8828 58.3658 25.1032 58.4553 25.3192C58.6005 25.6697 58.7734 26.0088 58.9727 26.333C59.2032 26.708 59.469 27.0631 59.7679 27.3932C59.8475 27.4811 59.9294 27.5673 60.0137 27.6515C60.6812 28.3191 61.4738 28.8486 62.346 29.21C63.1883 29.5588 64.089 29.7442 65 29.7565L65.0968 29.6598L65.0972 29.7572L65.0968 36.8489C66.0409 36.8489 66.9757 36.663 67.848 36.3016C68.7202 35.9404 69.5128 35.4108 70.1802 34.7433C70.8481 34.0757 71.3774 33.2832 71.7386 32.4109C72.0998 31.5387 72.2861 30.6038 72.2861 29.6598C72.2861 28.7157 72.0998 27.7808 71.7386 26.9086Z" fill="#390078"/>
</svg>
